<svg width="273" height="78" viewBox="0 0 273 78" fill="none" xmlns="http://www.w3.org/2000/svg">
<mask id="mask0_227_58" style="mask-type:alpha" maskUnits="userSpaceOnUse" x="0" y="3" width="41" height="71">
<g clip-path="url(#clip0_227_58)">
<g clip-path="url(#clip1_227_58)">
<path fill-rule="evenodd" clip-rule="evenodd" d="M10.2479 11.645C4.76068 15.8725 0.175048 19.4792 0.0577604 19.6595C-0.218423 20.0848 1.57519 23.0047 4.73124 27.2671C7.82671 31.448 8.78811 32.8994 10.4223 35.8607C12.8163 40.1988 16.9396 48.214 16.9396 48.5298C16.9396 48.8358 14.9646 52.4313 8.74356 63.4532C6.93802 66.6523 5.35345 69.6598 5.22253 70.1366C4.6765 72.1247 5.60019 73.2431 7.78896 73.2431C9.42878 73.2431 11.2302 72.3019 12.6442 70.7058C13.7981 69.4034 13.5367 69.8863 17.5211 61.6995L20.5453 55.486L24.2104 62.8304C27.5997 69.6227 27.9778 70.2692 29.2386 71.4278C31.4659 73.4744 34.2085 73.9372 35.6309 72.5067C36.7882 71.3437 36.5234 70.7099 30.3162 59.7802C27.201 54.2947 24.4884 49.5169 24.2882 49.1624C23.9352 48.5367 24.0266 48.3203 27.3637 41.8964C31.6271 33.6885 32.6345 31.9731 35.3762 28.2529C37.8295 24.9239 39.6932 22.1752 40.5484 20.6253C41.0481 19.7192 41.0778 19.5369 40.7729 19.2519C39.9586 18.491 20.6029 3.93223 20.4224 3.94495C20.3136 3.95254 15.735 7.4176 10.2479 11.645ZM26.9005 15.6753C29.9755 17.8957 32.4962 19.8024 32.5023 19.9125C32.5138 20.1281 20.9017 41.8485 20.6024 42.1717C20.407 42.3821 8.35275 20.4087 8.47203 20.0596C8.51193 19.9426 11.2273 17.871 14.5062 15.4558C19.5953 11.7072 20.5294 11.1065 20.8889 11.3511C21.1202 11.509 23.8254 13.4548 26.9005 15.6753Z" fill="black"/>
</g>
</g>
</mask>
<g mask="url(#mask0_227_58)">
<rect y="3.94495" width="41" height="69.39" fill="#F1EFE9"/>
</g>
<rect x="67.8" y="12.62" width="0.79" height="52.04" fill="#F1EFE9" fill-opacity="0.28"/>
<mask id="mask1_227_58" style="mask-type:alpha" maskUnits="userSpaceOnUse" x="95" y="0" width="178" height="78">
<g clip-path="url(#clip2_227_58)">
<g clip-path="url(#clip3_227_58)">
<path d="M106.533 18.8386C105.477 21.3257 105.033 23.7339 105.967 26.2653C106.299 27.1644 106.841 27.872 107.483 28.5467C107.933 29.0191 108.546 29.5116 107.963 30.2534C107.434 30.927 106.73 31.1438 105.905 30.7866C104.676 30.254 103.803 29.3414 103.171 28.1855C101.638 25.3797 101.755 22.4771 102.717 19.5437C104.482 14.1662 108.227 10.2566 112.345 6.62858C114.782 4.48196 117.454 2.67384 120.309 1.13455C120.849 0.843675 121.418 0.591138 121.999 0.397243C125.874 -0.895658 128.102 1.0399 127.501 5.1487C126.652 10.9554 124.83 16.5126 123.155 22.1074C122.63 23.8615 122.093 25.6119 121.421 27.8269C123.943 26.1215 125.975 24.5565 127.613 22.5155C127.87 22.1958 128.071 21.8317 128.333 21.5172C128.905 20.8307 129.639 20.4374 130.503 20.8269C131.434 21.2465 131.443 22.0904 131.182 22.941C130.417 25.4396 129.639 27.9342 128.859 30.4284C128.629 31.1607 128.432 31.8895 128.736 32.813C129.738 32.3187 130.336 31.4936 130.956 30.712C132.918 28.2362 134.263 25.4122 135.522 22.5411C135.81 21.884 136.092 21.2217 136.429 20.5893C136.886 19.7321 137.576 19.2242 138.572 19.6327C139.56 20.0381 139.505 20.9401 139.277 21.741C138.927 22.9711 138.425 24.1574 138.023 25.374C137.574 26.735 137.131 28.0998 136.749 29.4807C136.55 30.2029 136.43 30.968 137.011 31.9391C138.771 30.5132 140.281 29.069 141.115 27.0242C142.323 24.0623 144.097 21.5013 146.706 19.6343C148.663 18.2343 150.701 16.6732 153.228 18.6403C153.359 18.7418 153.616 18.6994 153.814 18.6927C155.562 18.6334 155.996 19.1732 155.355 20.8694C154.412 23.3642 153.448 25.8473 152.839 28.4511C152.714 28.983 152.431 29.5158 152.89 30.0643C153.746 29.9853 154.211 29.3192 154.739 28.8021C157.198 26.3897 159.143 23.6702 159.766 20.1778C159.929 19.2678 160.205 18.3785 160.718 17.5943C161.156 16.924 161.797 16.6455 162.579 16.8636C163.45 17.1065 163.614 17.8047 163.495 18.5716C163.343 19.5615 163.118 20.5402 162.871 21.7957C164.216 20.2996 165.11 18.7829 166.419 17.625C167.113 17.0106 167.809 16.4058 168.691 16.0694C170.474 15.3892 171.655 16.2805 171.468 18.1765C171.266 20.244 170.463 22.14 169.767 24.0669C169.324 25.2947 168.815 26.508 168.666 27.8512C169.439 27.9206 169.736 27.4395 170.094 27.1072C173.033 24.384 175.479 21.3434 176.499 17.348C176.725 16.4639 177.091 15.5891 177.545 14.7973C177.997 14.0086 178.802 13.73 179.68 14.082C180.585 14.4449 180.636 15.2065 180.391 16.0183C178.233 23.1825 176.089 30.3513 173.564 37.3984C173.233 38.3235 172.601 38.9158 171.564 38.5658C170.579 38.2335 170.504 37.43 170.768 36.5405C171.568 33.8378 172.364 31.1339 173.158 28.4298C173.341 27.8049 173.513 27.1765 173.801 26.1568C172.721 27.3781 171.921 28.2926 171.109 29.1954C170.452 29.9251 169.688 30.5277 168.848 31.034C167.823 31.6512 166.736 32.0077 165.692 31.1937C164.729 30.4423 164.696 29.3679 164.969 28.2451C165.431 26.3479 166.067 24.5092 166.748 22.6833C167.03 21.9264 167.292 21.1617 167.648 20.162C166.749 20.4564 166.369 20.9844 165.965 21.4608C163.659 24.1816 161.806 27.1795 160.475 30.4938C160.36 30.7791 160.239 31.062 160.108 31.3402C159.569 32.4877 158.693 33.2649 157.427 32.7667C156.281 32.3154 156.781 31.2266 156.939 30.3439C156.965 30.2024 156.966 30.0565 156.986 29.8288C155.981 30.7399 155.062 31.6171 154.094 32.4372C153.09 33.2888 151.944 34.0318 150.601 33.4508C149.358 32.9136 149.491 31.6162 149.409 30.4982C149.396 30.3109 149.354 30.1256 149.332 29.9816C148.341 30.9043 147.398 31.8301 146.405 32.7C144.085 34.7335 142.194 34.5778 140.27 32.1608C139.622 32.7322 139.008 33.3428 138.324 33.8607C137.268 34.6597 136.208 35.6658 134.728 35.0787C133.236 34.487 133.453 33.0197 133.233 31.4449C132.605 32.2165 132.116 32.8067 131.638 33.406C130.796 34.4617 129.815 35.3469 128.587 35.9377C127.568 36.4278 126.571 36.3637 125.681 35.6925C124.803 35.0315 124.658 34.0678 124.876 33.0528C125.102 32.0012 125.375 30.9592 125.641 29.9166C125.905 28.8861 126.186 27.86 126.538 26.5377C124.609 28.2694 122.857 29.7503 120.961 31.0471C120.217 31.5555 120.075 32.3975 119.842 33.1787C117.671 40.4689 114.999 47.5598 111.368 54.2611C109.697 57.3445 107.725 60.2155 104.94 62.4237C104.222 62.9937 103.436 63.511 102.612 63.9106C98.6979 65.8093 95.3406 63.542 95.6224 59.2131C95.8051 56.4057 96.581 53.7579 98.0037 51.3361C102.373 43.8989 107.938 37.5319 115.073 32.6163C116.154 31.871 116.768 30.9736 117.146 29.7194C119.436 22.1147 121.856 14.5476 123.621 6.79512C123.78 6.09662 123.882 5.38515 124.007 4.67902C124.218 3.48929 123.731 3.12684 122.635 3.56075C120.317 4.47771 118.314 5.92029 116.393 7.45909C112.448 10.6203 108.787 14.0481 106.533 18.8386ZM106.09 45.0136C104.135 47.3985 102.31 49.8733 100.934 52.6478C99.972 54.588 99.2267 56.6047 99.0452 58.7833C98.9717 59.6662 98.99 60.6076 99.8517 61.1257C100.71 61.6423 101.537 61.2322 102.294 60.7452C103.387 60.0417 104.245 59.0936 105.041 58.08C107.958 54.3678 109.897 50.1162 111.682 45.803C112.965 42.7051 114.251 39.5929 115.21 36.0214C111.71 38.7715 108.923 41.7598 106.09 45.0136ZM145.642 30.3554C148.156 28.1769 150.057 25.5568 151.309 22.4744C151.541 21.9049 151.799 21.2623 151.23 20.7734C150.693 20.3121 150.054 20.5036 149.513 20.8314C148.949 21.1729 148.38 21.5382 147.906 21.9902C145.773 24.0239 144.509 26.5522 143.817 29.3881C143.681 29.9465 143.562 30.5667 144.12 30.9267C144.661 31.2767 145.042 30.7127 145.642 30.3554Z" fill="black"/>
<path d="M223.7 57.2778C223.795 56.376 223.176 56.2772 222.633 56.1609C221.961 56.017 221.754 56.6124 221.515 57.0264C219.873 59.872 218.219 62.7075 216.095 65.2346C215.432 66.0234 214.725 66.7607 213.842 67.3138C211.834 68.5736 210.367 67.9157 209.99 65.5732C209.942 65.2797 209.934 64.9797 209.892 64.5129C208.762 65.5425 207.928 66.6669 206.756 67.4021C205.676 68.0801 204.547 69.0322 203.249 68.1019C201.987 67.1986 202.069 65.8005 202.468 64.4565C203.151 62.1547 203.875 59.865 204.628 57.4204C203.982 57.6203 203.655 58.0595 203.313 58.4506C201.138 60.9353 199.26 63.6121 197.985 66.681C197.73 67.2947 197.461 67.9184 197.091 68.4644C196.594 69.1976 195.869 69.6204 194.974 69.2126C194.079 68.8052 194.133 67.9948 194.361 67.2193C195.055 64.8593 195.778 62.5082 196.492 60.1543C196.657 59.6133 196.799 59.0721 196.618 58.4154C195.935 58.531 195.647 59.0995 195.282 59.5386C193.232 62.0004 191.617 64.7279 190.369 67.676C190.149 68.195 189.915 68.7116 189.643 69.2039C189.246 69.9204 188.621 70.2263 187.828 69.9481C187.02 69.6645 186.787 68.9958 186.908 68.2112C187 67.6167 187.176 67.0348 187.497 66.6762C186.529 67.4969 185.582 68.345 184.586 69.1312C183.48 70.0047 182.252 70.8785 180.801 70.2242C179.405 69.5952 179.8 68.1349 179.72 66.7158C178.62 67.9659 177.733 69.203 176.518 70.1011C175.34 70.9721 174.097 71.8351 172.579 70.9844C171.026 70.1138 170.912 68.5545 171.178 67.0533C171.968 62.5858 174.214 59.0171 178.158 56.6744C179.741 55.7337 181.461 55.1254 183.137 56.6304C183.277 56.7562 183.497 56.8322 183.688 56.8551C185.618 57.0845 185.658 57.1596 185.035 59.0516C184.266 61.386 183.321 63.6665 182.869 66.0988C182.795 66.496 182.606 66.8898 183.01 67.3399C183.908 67.2637 184.469 66.5619 185.056 65.9744C187.345 63.681 188.992 60.9971 189.861 57.8557C189.996 57.3636 190.129 56.8498 190.382 56.4154C190.795 55.7066 191.502 55.4834 192.248 55.7593C192.987 56.0322 193.157 56.6626 192.961 57.406C192.741 58.2379 192.536 59.074 192.259 60.1667C193.449 58.8459 194.177 57.4801 195.314 56.4554C195.85 55.9726 196.363 55.4712 197.039 55.185C198.745 54.463 199.87 55.1642 199.949 57.027C199.986 57.8895 199.955 58.7554 199.955 59.6088C200.631 58.6892 201.331 57.6555 202.115 56.6917C203.029 55.569 204.077 54.5678 205.497 54.1133C207.148 53.5845 208.395 54.6848 208.095 56.3905C207.673 58.776 206.526 60.9424 205.967 63.2879C205.829 63.865 205.55 64.4335 205.877 65.2459C208.255 63.6665 209.984 61.6406 211.125 59.1455C211.762 57.7526 212.185 56.2599 212.669 54.8003C212.832 54.3059 212.989 53.8215 213.364 53.4511C213.8 53.0206 214.331 52.8539 214.917 53.0777C215.543 53.3172 215.734 53.8627 215.636 54.4576C215.53 55.11 215.328 55.7497 215.133 56.3845C214.547 58.2954 213.916 60.1932 213.36 62.1122C213.137 62.8774 212.923 63.6887 213.337 64.4796C214.134 64.6113 214.508 64.0748 214.904 63.6296C217.169 61.0759 218.93 58.1898 220.358 55.1041C220.673 54.423 220.701 53.6149 220.933 52.8886C221.211 52.0258 221.679 51.1844 222.701 51.2346C223.651 51.2815 223.852 52.0739 223.843 52.9317C223.836 53.7544 224.587 53.8167 225.124 54.0508C227.08 54.904 227.25 55.3326 226.486 57.3463C225.904 58.8794 225.357 60.4261 224.822 61.9765C224.61 62.5908 224.369 63.2305 224.882 64.0301C226.663 63.1092 228.157 61.9279 228.76 59.9774C229.768 56.7233 231.205 53.7803 233.995 51.6628C234.954 50.9346 236.006 50.4119 237.207 50.2765C239.232 50.0475 240.609 51.5321 240.153 53.5118C239.33 57.0947 236.855 59.2206 233.594 60.4863C232.437 60.935 231.602 61.3294 232.074 62.7326C232.419 63.7622 233.405 63.9924 234.807 63.4082C236.604 62.6594 237.971 61.3409 239.333 60.0128C239.732 59.6233 240.168 59.0478 240.763 59.4885C241.456 60.0013 240.958 60.6173 240.619 61.1036C239.245 63.0759 237.47 64.6359 235.332 65.7056C232.556 67.0939 230.336 66.3316 228.739 63.5277C228.08 63.7609 227.78 64.3903 227.349 64.8521C226.675 65.5721 225.932 66.2001 225.054 66.6413C224.177 67.0816 223.243 67.5662 222.313 66.8473C221.41 66.149 221.272 65.1114 221.405 64.0529C221.704 61.6782 222.685 59.5279 223.7 57.2778ZM178.448 65.3688C179.571 63.85 180.672 62.3167 181.331 60.5245C181.557 59.9096 181.904 59.219 181.316 58.6674C180.659 58.0497 179.912 58.4574 179.347 58.8462C176.444 60.8429 174.982 63.7309 174.417 67.1296C174.35 67.5332 174.383 67.9816 174.812 68.2076C175.255 68.4406 175.588 68.1195 175.914 67.8865C176.834 67.2289 177.632 66.4449 178.448 65.3688ZM235.811 53.4255C234.236 54.8415 233.113 56.5311 232.462 58.7172C235.606 57.3016 237.474 54.928 237.102 52.9794C236.646 52.7854 236.333 53.1047 235.811 53.4255Z" fill="black"/>
<path d="M171.432 73.467C171.946 73.8167 172.373 74.1003 172.805 74.3752C173.402 74.754 174.215 75.0452 173.833 75.9821C173.484 76.8369 172.709 77.1847 171.829 77.1121C170.896 77.0353 170.043 76.6253 169.281 76.0948C165.886 73.7269 163.464 70.4913 161.316 67.0275C160.406 65.5598 159.568 64.0477 158.537 62.2805C158.018 63.5634 157.568 64.5715 157.2 65.6083C156.532 67.4921 155.915 69.3941 155.271 71.2868C154.937 72.2699 154.627 73.4654 153.256 73.0794C151.846 72.6828 152.051 71.4593 152.375 70.3905C153.06 68.1362 153.752 65.8811 154.539 63.661C156.217 58.9259 157.958 54.2128 159.674 49.4913C159.814 49.1059 159.91 48.6924 160.116 48.3457C160.629 47.4853 161.372 46.8891 162.407 47.2847C163.456 47.6857 163.428 48.6016 163.105 49.4935C162.111 52.2409 161.084 54.9764 160.086 57.7222C159.919 58.1831 159.559 58.611 159.738 59.1594C160.172 59.4429 160.561 59.1932 160.913 59.0443C163.774 57.8324 166.404 56.2585 168.545 53.9687C169.761 52.6679 170.646 51.1755 170.812 49.3608C171.01 47.1847 169.985 45.9425 167.803 45.7286C163.568 45.3131 159.849 46.8954 156.247 48.8294C154.086 49.9892 152.194 51.3972 151.479 53.9739C151.164 55.1054 150.081 55.1628 149.375 54.1769C148.71 53.25 148.8 52.2479 149.269 51.2586C149.974 49.7719 151.19 48.7207 152.453 47.7638C156.552 44.6578 161.215 42.9017 166.296 42.24C167.002 42.1479 167.736 42.1737 168.448 42.2427C173.217 42.7053 175.661 46.2813 174.169 50.8319C172.623 55.5463 168.98 58.3189 164.734 60.4405C164.011 60.8022 163.255 61.1006 162.283 61.5301C164.833 65.9976 167.459 70.1646 171.432 73.467Z" fill="black"/>
<path d="M231.276 13.485C231.911 12.6515 232.205 11.7719 232.57 10.9257C232.975 9.98423 233.725 9.59467 234.687 9.87676C235.672 10.1654 235.794 10.993 235.614 11.8684C235.407 12.867 235.153 13.8558 234.816 15.2939C235.528 14.3711 235.993 13.7719 236.453 13.1686C237.265 12.1038 238.134 11.0818 239.293 10.3879C240.426 9.70914 241.631 9.27191 242.908 10.0693C244.172 10.8589 244.417 12.1878 244.293 13.4506C243.807 18.3504 241.456 22.2779 237.6 25.2722C235.716 26.7353 234.398 26.7915 231.894 25.8832C230.921 28.1327 230.411 30.535 229.689 32.8652C229.401 33.7937 229.194 34.752 228.846 35.6568C228.48 36.6089 227.758 37.2205 226.685 36.8791C225.583 36.5279 225.655 35.6136 225.914 34.7124C227.517 29.1535 229.124 23.5958 230.728 18.0377C230.81 17.755 230.88 17.4693 230.836 17.1004C229.341 18.6153 227.503 19.7443 226.402 21.6308C225.442 23.2739 224.332 24.809 222.865 26.0549C221.84 26.9271 220.754 27.6696 219.381 27.8966C217.044 28.2824 215.339 27.0806 214.964 24.7514C214.196 19.9756 218.243 13.1093 222.811 11.4421C226.112 10.2369 228.311 11.7676 228.322 15.2797C228.323 15.6859 228.322 16.0922 228.322 16.6078C229.594 15.8668 230.256 14.5763 231.276 13.485ZM219.273 19.8402C218.802 21.1478 218.4 22.4655 218.523 23.887C218.61 24.8769 219.198 25.1368 220.011 24.8176C220.515 24.6196 221.001 24.2519 221.368 23.845C223.375 21.6138 224.534 18.9568 225.082 16.031C225.202 15.3881 225.267 14.6372 224.59 14.2126C223.835 13.738 223.202 14.2165 222.647 14.6721C221.053 15.9825 220.165 17.7745 219.273 19.8402ZM235.206 18.4962C234.52 19.7502 233.819 20.9962 233.158 22.263C232.943 22.6756 232.84 23.163 233.2 23.5597C233.585 23.983 234.094 24.0586 234.605 23.8225C235.111 23.5886 235.645 23.3645 236.072 23.0181C238.778 20.8185 240.189 17.8709 240.812 14.5135C240.913 13.9685 241.109 13.2837 240.326 12.7503C237.977 13.9597 236.821 16.2932 235.206 18.4962Z" fill="black"/>
<path d="M208.236 15.1212C209.916 11.4457 211.552 7.87618 213.299 4.06078C210.325 4.24427 207.727 4.78027 205.115 5.20503C204.711 5.27077 204.306 5.34922 203.898 5.37382C202.86 5.43645 202.05 5.18293 202 3.92628C201.952 2.75554 202.131 1.63794 203.545 1.53204C208.046 1.19506 212.509 0.553261 216.985 0.0213226C218.33 -0.138362 218.766 0.605237 218.13 2.03761C216.691 5.26896 215.153 8.45594 213.677 11.6708C211.302 16.8453 209.253 22.1547 207.171 27.4509C206.46 29.2603 204.61 30.4475 202.717 30.277C201.584 30.175 201.361 29.4254 201.745 28.514C202.223 27.3822 202.825 26.3031 203.363 25.196C204.975 21.8745 206.581 18.5503 208.236 15.1212Z" fill="black"/>
<path d="M189.169 27.2165C188.106 28.3507 187.033 29.2807 185.667 29.8368C182.307 31.2038 179.641 29.3682 179.997 25.7435C180.471 20.9075 182.688 16.9922 186.739 14.1985C187.032 13.9964 187.355 13.8279 187.682 13.6854C191.245 12.1337 193.928 14.0988 193.511 17.9755C193.131 21.5066 191.651 24.5419 189.169 27.2165ZM187.447 17.3256C187.213 17.5971 186.974 17.8638 186.747 18.1408C185.052 20.2084 184.069 22.6012 183.537 25.197C183.387 25.9275 183.342 26.7192 184.004 27.1703C184.758 27.6842 185.355 26.9962 185.896 26.59C186.852 25.873 187.505 24.8714 188.112 23.8617C189.18 22.0857 189.865 20.1643 190.045 18.0921C190.096 17.5046 190.255 16.7927 189.615 16.408C188.953 16.0101 188.467 16.5508 187.968 16.8878C187.841 16.9735 187.729 17.0802 187.447 17.3256Z" fill="black"/>
<path d="M264.927 16.9559C263.748 18.296 262.641 19.5547 261.289 21.0922C263.486 20.7413 265.339 20.4562 267.187 20.1456C268.079 19.9953 269.051 19.7969 269.3 20.9864C269.562 22.2315 268.838 22.9452 267.645 23.1088C264.649 23.5197 261.649 23.8846 258.648 24.2613C257.985 24.3447 257.429 24.1688 257.095 23.53C256.742 22.86 256.885 22.2492 257.279 21.6494C258.549 19.7145 260.071 17.9767 261.544 16.2008C263.174 14.2345 264.835 12.2943 266.651 10.1419C264.975 10.1317 263.634 10.5562 262.27 10.826C261.274 11.0233 260.151 11.394 259.713 9.97631C259.395 8.95538 260.28 7.96008 261.688 7.74803C264.17 7.3742 266.659 7.05199 269.144 6.69218C270.008 6.56697 270.813 6.59983 271.297 7.45518C271.751 8.25216 271.396 8.96801 270.906 9.5838C268.952 12.0266 266.971 14.4464 264.927 16.9559Z" fill="black"/>
<path d="M256.381 11.3786C255.472 15.5472 252.871 18.0081 249.049 19.2523C248.021 19.587 247.551 20.0547 247.862 21.1163C248.178 22.1949 248.973 22.5902 250.001 22.357C251.903 21.9256 253.447 20.8349 254.851 19.5212C255.372 19.0333 255.915 18.5644 256.478 18.125C256.72 17.9365 257.053 17.8525 257.338 18.0693C257.673 18.3243 257.644 18.6741 257.542 19.0448C256.786 21.7853 250.798 25.5088 247.978 24.9862C245.587 24.5429 244.041 22.6148 244.351 20.0727C244.906 15.5301 247.046 11.8573 250.864 9.24679C251.362 8.90614 251.948 8.65616 252.53 8.47977C254.906 7.75745 256.286 8.76343 256.381 11.3786ZM252.512 11.2546C250.331 12.6405 249.328 14.8049 248.34 17.4425C250.905 16.1761 252.515 14.5384 253.317 12.1608C253.48 11.6773 253.792 10.9415 252.512 11.2546Z" fill="black"/>
<path d="M246.415 64.8455C245.117 65.0367 243.959 65.2628 242.789 65.3886C241.998 65.4739 241.083 65.7032 240.549 64.8362C239.977 63.9076 240.556 63.1555 241.124 62.4886C243.713 59.4467 246.328 56.4257 248.93 53.3958C249.19 53.0934 249.569 52.8773 249.668 52.3153C248.16 52.0669 246.775 52.6719 245.352 52.8622C244.585 52.9644 243.713 53.2978 243.437 52.2476C243.175 51.2515 243.763 50.493 244.688 50.2583C247.369 49.5782 250.119 49.2235 252.868 48.9967C254.184 48.8883 254.834 50.1929 254.089 51.3853C253.417 52.4627 252.555 53.4303 251.726 54.4009C249.531 56.9651 247.307 59.5042 244.949 62.2223C246.755 62.2441 248.284 61.7109 249.849 61.4419C250.761 61.2848 251.847 60.9208 252.101 62.225C252.339 63.4511 251.549 64.0918 250.346 64.2571C249.079 64.431 247.816 64.6426 246.415 64.8455Z" fill="black"/>
<path d="M220.627 45.3603C219.375 47.1967 217.814 48.5964 216.339 50.0733C215.946 50.4662 215.484 50.9245 214.887 50.4439C214.386 50.0411 214.592 49.5052 214.829 49.0455C215.79 47.1868 216.764 45.3261 218.299 43.8604C218.81 43.3724 219.461 42.9078 220.219 43.3757C220.944 43.8228 221.001 44.5118 220.627 45.3603Z" fill="black"/>
<path d="M225.892 9.02949C224.669 9.24852 224.37 8.52917 224.656 7.70608C225.257 5.97338 225.97 4.27169 226.756 2.61379C227.181 1.718 228.029 1.13079 229.026 1.69611C230.01 2.25305 229.708 3.21422 229.287 4.00016C228.345 5.75728 227.226 7.40574 225.892 9.02949Z" fill="black"/>
<path d="M181.836 8.67462C181.458 9.54622 181.029 10.2293 180.341 10.7254C179.848 11.0805 179.321 11.2289 178.762 10.9513C178.195 10.6703 178.019 10.1465 178.022 9.54418C178.026 8.7583 178.3 8.03972 178.614 7.34308C179.106 6.24944 179.832 5.27038 181.171 5.72664C182.668 6.23651 182.241 7.45983 181.836 8.67462Z" fill="black"/>
</g>
</g>
</mask>
<g mask="url(#mask1_227_58)">
<rect x="95.39" width="176.63" height="77.28" fill="#F1EFE9"/>
</g>
<defs>
<clipPath id="clip0_227_58">
<rect width="41" height="69.39" fill="white" transform="translate(0 3.94495)"/>
</clipPath>
<clipPath id="clip1_227_58">
<rect width="40.9401" height="69.39" fill="white" transform="translate(0.0299072 3.94495)"/>
</clipPath>
<clipPath id="clip2_227_58">
<rect width="176.63" height="77.28" fill="white" transform="translate(95.39)"/>
</clipPath>
<clipPath id="clip3_227_58">
<rect width="176.198" height="77.28" fill="white" transform="translate(95.6058)"/>
</clipPath>
</defs>
</svg>
