<svg width="19" height="32" viewBox="0 0 19 32" fill="none" xmlns="http://www.w3.org/2000/svg">
<path fill-rule="evenodd" clip-rule="evenodd" d="M4.74207 3.55098C2.19552 5.50052 0.0673585 7.1638 0.0129264 7.24695C-0.115248 7.44307 0.717155 8.78962 2.18185 10.7553C3.61843 12.6834 4.06462 13.3527 4.82305 14.7183C5.93405 16.7189 7.84764 20.4152 7.84764 20.5608C7.84764 20.7019 6.9311 22.3601 4.04395 27.4429C3.206 28.9182 2.47062 30.3052 2.40986 30.5251C2.15645 31.4419 2.58513 31.9577 3.60092 31.9577C4.36196 31.9577 5.19798 31.5236 5.85421 30.7875C6.38972 30.1869 6.26843 30.4096 8.11754 26.6342L9.52103 23.7687L11.222 27.1557C12.7949 30.288 12.9704 30.5862 13.5555 31.1205C14.5892 32.0643 15.862 32.2779 16.5222 31.618C17.0592 31.0817 16.9364 30.7894 14.0556 25.7491C12.6099 23.2194 11.351 21.016 11.2581 20.8525C11.0942 20.564 11.1367 20.4642 12.6854 17.5017C14.664 13.7166 15.1316 12.9255 16.4039 11.2099C17.5425 9.67468 18.4074 8.40711 18.8043 7.69232C19.0363 7.27449 19.05 7.19043 18.9085 7.05898C18.5306 6.70806 9.5478 -0.0058635 9.464 3.84336e-06C9.41352 0.00350168 7.28864 1.60145 4.74207 3.55098ZM12.4705 5.40958C13.8975 6.43354 15.0674 7.31286 15.0702 7.36363C15.0755 7.46303 9.68647 17.4797 9.54757 17.6287C9.45688 17.7258 3.86259 7.59245 3.91792 7.43144C3.93644 7.37751 5.19662 6.42215 6.71835 5.30837C9.08015 3.57965 9.51369 3.30264 9.68049 3.41547C9.78788 3.48825 11.0433 4.38562 12.4705 5.40958Z" fill="#7D9B4E"/>
</svg>
