<svg width="891" height="259" viewBox="0 0 891 259" fill="none" xmlns="http://www.w3.org/2000/svg">
<path d="M189.114 4.63356C188.311 7.18198 187.654 9.48135 187.654 9.74294C187.654 10.0047 187.956 10.6145 188.326 11.0981L188.997 11.9774L192.556 12.0292L196.116 12.0809L196.072 13.3176C195.97 16.1517 194.421 21.8522 192.874 25.0855C191.838 27.2519 190.69 29.2992 190.167 29.9115C189.832 30.3034 190.382 30.7147 184.783 25.8835C180.328 22.0402 173.613 15.5355 171.867 13.3722C170.672 11.8907 168.844 8.80177 168.345 7.41979C168.173 6.94302 167.98 5.59395 167.91 4.37577L167.783 2.18789L166.547 2.13671L165.311 2.08534L163.003 4.99143C161.733 6.58972 160.504 8.22018 160.272 8.61457L159.849 9.33143L160.616 10.9316C161.582 12.9456 163.266 15.6335 165.011 17.9462L166.363 19.7374L165.186 21.6104C162.903 25.2448 160.748 30.5456 159.859 34.7136C159.392 36.9066 159.166 43.0877 159.486 44.928C159.73 46.3313 159.619 46.8368 157.88 52.1841C157.411 53.6272 157.077 54.8901 157.139 54.9903C157.27 55.2008 164.046 55.2341 168.94 55.0484L172.187 54.9251L173.425 50.8159C174.495 47.2612 174.621 46.6891 174.36 46.5773C174.194 46.5061 172.456 46.442 170.498 46.4346L166.938 46.4212L166.63 45.3591C165.827 42.5974 165.579 40.7902 165.468 36.9087C165.332 32.138 165.552 29.9063 166.45 26.9426C167.13 24.6963 168.203 22.0691 168.44 22.0691C168.512 22.0691 170.105 23.4507 171.98 25.1394C173.855 26.8281 176.459 29.1151 177.766 30.2219C186.537 37.6472 191.856 43.2903 193.929 47.3689C194.659 48.8051 195.248 50.7769 195.46 52.4918C195.572 53.3909 195.722 54.5973 195.794 55.1728L195.926 56.2192L197.352 56.2624L198.778 56.3055L201.393 53.0026C202.901 51.098 204.008 49.5279 204.008 49.2942C204.008 48.6995 201.735 44.3722 200.313 42.258C198.705 39.8679 196.302 36.8569 194.299 34.7202C191.675 31.9207 191.803 32.4131 193.271 30.7925C197.104 26.5579 200.765 20.6959 202.846 15.46C204.026 12.49 205.529 6.92381 205.529 5.52432C205.529 5.16912 205.254 4.6562 204.721 4.01829L203.913 3.05087L198.826 3.04744L193.739 3.04402V2.40477C193.739 2.053 193.685 1.3681 193.618 0.882765L193.498 0H192.036H190.574L189.114 4.63356Z" fill="black"/>
<path fill-rule="evenodd" clip-rule="evenodd" d="M259.533 27.3961C259.533 31.1667 259.46 33.8647 259.359 33.8647C259.264 33.8647 258.795 33.3162 258.317 32.6459C257.292 31.2097 255.656 30.0313 254.171 29.6603C252.869 29.3348 250.219 29.3373 248.884 29.6651C243.828 30.9074 240.585 35.5258 240.199 42.032C239.793 48.8932 242.78 54.4885 247.838 56.3406C248.782 56.6862 249.405 56.761 251.451 56.7741C253.773 56.789 253.991 56.758 255.051 56.2616C256.533 55.567 257.59 54.68 258.486 53.3797C259.563 51.8149 259.723 51.9362 259.723 54.3167V56.3143H261.72H263.716V38.621V20.9276H261.624H259.533V27.3961ZM659.047 30.5353V33.6744H657.05H655.053V35.4818V37.2892H657.05H659.047L659.055 46.2786L659.055 46.4491C659.061 54.2487 659.063 55.7732 659.695 56.9616C659.849 57.2504 660.04 57.5193 660.278 57.8535L660.299 57.8839C661.836 60.0491 665.325 61.1657 668.361 60.4644C669.203 60.2702 669.326 60.1844 669.248 59.8461C669.198 59.6302 669.017 58.8112 668.847 58.026L668.537 56.5985L666.849 56.5991C665.018 56.5997 664.548 56.4033 663.717 55.29C663.336 54.7801 663.323 54.5111 663.27 46.0322L663.216 37.2995L666.027 37.2468L668.84 37.1941V35.4818V33.7696L666.035 33.7169L663.23 33.6643V30.5302V27.3961H661.138H659.047V30.5353ZM222.263 29.475C219.524 29.8589 217.181 30.9274 215.593 32.5166C214.691 33.4195 213.338 35.501 213.55 35.6599C213.583 35.6848 214.472 36.0109 215.526 36.3847L217.441 37.0643L217.8 36.3977C218.275 35.5153 219.865 34.0998 220.931 33.6099C221.647 33.2816 222.178 33.2155 224.164 33.2079C226.257 33.1999 226.634 33.2486 227.32 33.6156C228.907 34.4657 229.869 36.2069 229.869 38.2327C229.869 39.9194 229.414 40.1586 225.305 40.6308C222.146 40.9938 218.728 41.6737 217.265 42.23C214.322 43.3491 212.755 45.6321 212.755 48.7994C212.755 52.6813 214.94 55.446 218.925 56.6048C219.788 56.8559 220.558 56.9117 222.339 56.8523C224.428 56.7825 224.755 56.7212 225.899 56.1857C227.265 55.5461 228.479 54.5543 229.329 53.3844L229.869 52.6425V54.4784V56.3143H231.96H234.052L234.049 46.8493C234.045 36.5883 233.981 35.7896 233.009 33.8702C231.602 31.0923 228.995 29.674 224.83 29.4208C223.993 29.3698 222.838 29.3944 222.263 29.475ZM279.792 29.4986C276.948 29.9423 274.842 30.9173 273.226 32.5379C272.327 33.4393 270.958 35.5029 271.161 35.6511C271.197 35.678 272.089 36.0044 273.142 36.3769L275.057 37.0539L275.586 36.2169C276.23 35.198 277.406 34.2085 278.658 33.6305C279.466 33.2578 279.905 33.1988 281.876 33.1988C284.429 33.1988 284.914 33.3552 286.208 34.5958C287.049 35.4027 287.485 36.6484 287.485 38.2456C287.485 39.9892 287.179 40.1399 282.467 40.7124C278.07 41.2466 276.085 41.7057 274.236 42.616C271.44 43.9933 270.456 45.6376 270.48 48.8945C270.49 50.2959 270.589 50.9477 270.921 51.7962C271.743 53.8934 273.334 55.4188 275.676 56.3518C276.603 56.7212 277.101 56.7774 279.499 56.7833L282.256 56.7899L283.694 56.1027C285.102 55.4298 286.24 54.5054 287.062 53.3654L287.473 52.7947L287.479 54.5545L287.485 56.3143H289.577H291.669L291.666 46.6591C291.663 36.3678 291.606 35.6055 290.701 33.8316C290.094 32.6408 288.661 31.2244 287.441 30.608C285.467 29.6109 282.153 29.1301 279.792 29.4986ZM321.018 29.4958C317.534 30.1179 314.657 32.3509 313.063 35.6721C311.46 39.0108 311.075 43.9954 312.108 48.0384C313.213 52.3647 316.398 55.6962 320.308 56.6157C321.885 56.9865 324.786 56.8913 326.087 56.4262C327.32 55.985 328.716 54.8608 329.7 53.5153C330.17 52.8721 330.618 52.3396 330.696 52.3323C330.773 52.3249 330.858 55.4654 330.886 59.3108L330.936 66.3025L332.98 66.3565L335.024 66.4105V48.0448V29.6792H333.027H331.031V31.7719C331.031 34.2595 330.88 34.3824 329.782 32.7879C328.871 31.4635 327.557 30.4004 326.207 29.8951C325.004 29.4448 322.419 29.2458 321.018 29.4958ZM379.596 29.4767C376.276 30.0037 373.263 32.0622 371.54 34.9805C368.965 39.3433 368.776 45.8663 371.088 50.6068C372.06 52.5987 374.184 54.7249 376.124 55.6465C380.835 57.8848 386.987 57.0662 390.277 53.7634C391.27 52.7669 392.45 50.8697 392.45 50.2706C392.45 50.0412 388.727 49.013 388.471 49.1717C388.359 49.2408 388.267 49.384 388.267 49.4898C388.267 49.9097 387.07 51.3885 386.301 51.9172C385.005 52.8093 383.584 53.1335 381.349 53.0462C379.076 52.9571 377.813 52.4756 376.37 51.1471C374.851 49.7482 374.01 47.987 373.728 45.6127L373.598 44.5187H383.235H392.872L392.782 41.7125C392.724 39.9265 392.575 38.4914 392.372 37.7648C391.218 33.6383 388.406 30.7588 384.573 29.78C383.15 29.4166 380.856 29.2768 379.596 29.4767ZM342.482 39.6198C342.542 49.3437 342.552 49.5882 342.971 50.8337C343.959 53.772 346.034 55.7864 348.697 56.3923C352.686 57.3 356.327 56.007 358.223 53.0093C358.589 52.4305 358.953 51.9526 359.031 51.9477C359.109 51.9427 359.173 52.9231 359.173 54.1264V56.3143H361.265H363.357V42.9967V29.6792H361.274H359.191L359.135 38.5734L359.078 47.4676L358.573 48.5473C357.864 50.059 356.696 51.2531 355.208 51.9861C354.082 52.5403 353.784 52.6036 352.332 52.5966C350.96 52.5901 350.563 52.5119 349.744 52.0858C348.615 51.4989 347.683 50.5038 347.119 49.2847C346.731 48.447 346.717 48.1145 346.664 39.049L346.61 29.6792H344.515H342.421L342.482 39.6198ZM255.246 33.8462C258.08 35.2425 259.526 38.3651 259.526 43.0919C259.526 46.7972 258.647 49.4251 256.782 51.2909C255.483 52.5905 254.181 53.08 252.022 53.08C249.808 53.08 248.558 52.5949 247.162 51.1941C245.994 50.0225 245.263 48.6843 244.761 46.8017C244.344 45.2347 244.296 41.0927 244.678 39.5722C245.294 37.1258 246.573 35.1293 248.174 34.1181C250.061 32.9266 253.138 32.8082 255.246 33.8462ZM325.511 33.405C329.064 34.4607 330.865 37.6775 330.883 42.9967C330.899 47.6463 329.374 50.9977 326.57 52.4786C325.693 52.9419 325.425 52.9849 323.425 52.9849C321.413 52.9849 321.15 52.9421 320.151 52.4511C318.265 51.5245 316.726 49.3412 316.068 46.6591C315.63 44.8717 315.638 41.0328 316.084 39.3955C316.974 36.1266 318.777 34.0498 321.319 33.3637C322.543 33.0337 324.32 33.0512 325.511 33.405ZM384.494 33.7237C385.053 33.9843 385.855 34.4988 386.277 34.8667C387.563 35.9886 388.639 38.4092 388.645 40.1905L388.647 40.904H381.136C375.13 40.904 373.625 40.8549 373.625 40.6585C373.625 40.5237 373.753 39.9228 373.909 39.3235C374.705 36.2641 376.759 34.0351 379.403 33.3601C380.895 32.9791 383.259 33.1478 384.494 33.7237ZM540.947 33.4964C537.245 34.0414 534.069 36.4764 532.377 40.0684C531.241 42.4792 530.994 43.7636 530.988 47.2774C530.984 49.8895 531.045 50.5358 531.418 51.8326C533.036 57.4615 536.903 60.5748 542.597 60.8347C547.535 61.0599 551.57 59.0461 553.325 55.4797C553.667 54.7835 553.913 54.1869 553.872 54.1538C553.83 54.1207 552.943 53.8551 551.9 53.5636C550.128 53.0682 549.991 53.0551 549.808 53.3631C548.067 56.2987 546.386 57.1803 542.79 57.0433C541.114 56.9796 540.7 56.8925 539.587 56.3691C538.129 55.6838 536.929 54.548 536.15 53.1167C535.629 52.1588 535.076 50.0708 535.069 49.0372L535.066 48.514H544.695H554.324L554.219 45.8029C554.104 42.8544 553.826 41.5175 552.922 39.5749C551.318 36.1273 548.434 34.0466 544.501 33.4992C542.86 33.2709 542.48 33.2707 540.947 33.4964ZM569.934 33.578C567.811 34.0399 566.217 35.1628 565.243 36.8824L564.635 37.9551L564.54 35.8623L564.445 33.7696H562.448H560.452L560.403 47.0396L560.354 60.3096H562.447H564.54L564.543 51.7007C564.545 45.2143 564.608 42.827 564.799 42.0175C565.26 40.0589 566.417 38.5688 568.206 37.632C568.845 37.2972 569.338 37.2099 570.625 37.2028C572.071 37.195 572.349 37.2536 573.262 37.7599C573.824 38.0711 574.497 38.6061 574.758 38.9486C575.735 40.2305 575.742 40.3043 575.751 50.6543L575.759 60.3096H577.851H579.942V51.593C579.942 46.1912 580.02 42.4471 580.147 41.7475C580.393 40.3949 581.007 39.275 581.965 38.433C582.909 37.6039 583.733 37.2841 585.255 37.1564C587.565 36.9627 589.75 37.9625 590.633 39.6173C591.066 40.4274 591.066 40.439 591.12 50.369L591.174 60.3096H593.26H595.345L595.342 50.5592C595.338 40.0402 595.274 39.2037 594.329 37.3594C594.068 36.8499 593.441 36.0307 592.936 35.5389C590.278 32.9522 585.427 32.6376 582.012 34.8302C581.016 35.4696 579.855 36.6661 579.523 37.3946C579.232 38.0333 579.061 37.9813 578.623 37.1218C577.701 35.314 575.57 33.8415 573.348 33.4775C571.943 33.2473 571.377 33.2639 569.934 33.578ZM611.612 33.4937C606.78 34.248 603.24 37.7057 601.98 42.9016C601.407 45.2655 601.407 49.2564 601.98 51.4629C603.576 57.6103 608.17 61.1229 614.24 60.8377C618.647 60.6305 622.061 58.4147 623.972 54.5195C625.283 51.8482 625.484 50.8556 625.481 47.0871C625.478 43.362 625.276 42.3573 624.005 39.7625C622.548 36.7885 619.681 34.4312 616.637 33.7054C615.347 33.3978 612.89 33.2943 611.612 33.4937ZM639.246 33.4872C636.943 33.8481 634.852 34.8509 633.424 36.2795C631.17 38.5348 630.839 42.3156 632.661 45.0052C633.894 46.8259 635.818 47.7403 641.014 48.975C644.218 49.7362 645.045 50.044 645.807 50.7595C647.843 52.6718 646.865 55.5377 643.764 56.749C642.435 57.2682 639.4 57.3105 638.014 56.8291C636.394 56.2669 635.25 55.0474 634.648 53.2416C634.553 52.9566 634.364 52.9724 632.61 53.4124L630.677 53.8974L630.792 54.4875C631.014 55.6302 632.037 57.3968 632.999 58.2967C636.006 61.1105 642.13 61.742 646.496 59.688C648.234 58.8707 650.093 56.9863 650.67 55.4582C651.608 52.9718 651.085 50.1074 649.371 48.3462C648.069 47.0089 646.269 46.2219 642.15 45.1896C638.424 44.2554 637.231 43.7688 636.323 42.8118C635.805 42.2656 635.753 42.0932 635.753 40.9241C635.753 39.8281 635.827 39.5406 636.253 38.9819C637.647 37.1528 641.49 36.3937 643.929 37.4656C644.999 37.9355 645.85 38.705 646.439 39.7349C646.717 40.221 646.966 40.6479 646.992 40.6838C647.041 40.7516 650.535 39.7781 650.65 39.6647C650.686 39.6293 650.388 38.9767 649.988 38.2148C648.771 35.8983 646.928 34.3854 644.563 33.761C643.278 33.4222 640.556 33.2819 639.246 33.4872ZM683.721 33.66C681.725 34.3045 680.054 35.6599 679.357 37.1992C679.127 37.7077 679.1 37.5953 679.013 35.7602L678.918 33.7696H676.921H674.924L674.876 47.0396L674.827 60.3096H676.91H678.993L679.05 51.13L679.108 41.9504L679.637 40.8733C680.271 39.581 681.345 38.5645 682.793 37.8868C683.763 37.4326 684.068 37.3876 686.102 37.3973L688.342 37.4081L688.289 35.3987L688.235 33.3891L686.524 33.3483C685.286 33.3188 684.511 33.405 683.721 33.66ZM701.173 33.4939C698.33 33.9375 696.224 34.9126 694.608 36.5331C693.709 37.4345 692.34 39.4982 692.542 39.6464C692.579 39.6732 693.47 39.9997 694.524 40.3722L696.438 41.0491L696.968 40.2122C697.612 39.1932 698.787 38.2037 700.04 37.6258C700.848 37.253 701.287 37.1941 703.257 37.1941C705.81 37.1941 706.295 37.3505 707.589 38.5911C708.431 39.3979 708.867 40.6437 708.867 42.2409C708.867 43.9845 708.561 44.1352 703.849 44.7077C699.451 45.2419 697.466 45.701 695.618 46.6113C692.821 47.9885 691.837 49.6329 691.861 52.8898C691.872 54.2912 691.971 54.943 692.303 55.7915C693.124 57.8886 694.716 59.4141 697.057 60.347C697.984 60.7165 698.482 60.7726 700.88 60.7785L703.638 60.7852L705.076 60.098C706.484 59.4251 707.621 58.5007 708.443 57.3607L708.855 56.7899L708.861 58.5498L708.867 60.3096H710.959H713.05L713.047 50.6543C713.044 40.3631 712.987 39.6007 712.083 37.8268C711.475 36.6361 710.043 35.2196 708.822 34.6032C706.848 33.6061 703.534 33.1254 701.173 33.4939ZM729.736 33.5005C727.924 33.9275 725.979 35.3414 725.067 36.8927L724.555 37.7648L724.501 35.7196L724.447 33.6744H722.456H720.466V46.992V60.3096H722.558H724.65L724.651 51.4153C724.651 45.7175 724.725 42.2475 724.855 41.7601C725.295 40.1076 726.894 38.4138 728.657 37.731C729.278 37.4907 730.061 37.4066 731.638 37.411L733.777 37.4169V35.3555V33.2939L732.113 33.313C731.198 33.3236 730.128 33.4079 729.736 33.5005ZM544.967 37.3973C547.753 38.2016 549.65 40.594 550.008 43.7535L550.137 44.8992H542.602H535.066V44.4405C535.066 43.7452 535.723 41.7808 536.264 40.8566C536.867 39.8275 538.373 38.4044 539.43 37.8647C540.951 37.0887 543.232 36.8961 544.967 37.3973ZM616.71 37.7277C619.724 39.1086 621.396 42.4711 621.396 47.153C621.396 50.7304 620.612 53.088 618.783 55.0115C617.236 56.6387 616.32 56.9802 613.505 56.9802C611.369 56.9802 611.158 56.9457 610.204 56.4437C606.788 54.6433 605.007 49.8073 605.883 44.709C606.559 40.7782 608.534 38.187 611.495 37.3468C612.884 36.9525 615.422 37.1378 616.71 37.7277ZM229.836 45.7078C229.78 47.9628 229.721 48.3418 229.27 49.3032C228.283 51.4104 226.428 52.7203 223.867 53.1187C220.78 53.5987 217.873 52.487 217.141 50.5468C216.808 49.6654 216.895 48.0121 217.319 47.1811C218.074 45.7013 219.918 44.9213 223.831 44.4278C226.35 44.1101 228.841 43.6246 229.298 43.3624C229.455 43.2722 229.654 43.1959 229.741 43.1927C229.827 43.1896 229.87 44.3214 229.836 45.7078ZM287.452 45.8029C287.394 48.2589 287.356 48.4864 286.831 49.5239C285.552 52.0493 282.573 53.5129 279.369 53.1904C276.256 52.877 274.57 51.4089 274.559 49.0022C274.547 46.3069 276.415 45.0651 281.442 44.4263C284.174 44.0793 286.433 43.6464 286.882 43.3841C287.057 43.2821 287.271 43.1959 287.357 43.1927C287.444 43.1896 287.486 44.3643 287.452 45.8029ZM708.834 49.7982C708.776 52.2542 708.738 52.4817 708.212 53.5191C706.933 56.0445 703.954 57.5081 700.75 57.1856C697.637 56.8723 695.951 55.4041 695.941 52.9975C695.929 50.3022 697.797 49.0604 702.824 48.4215C705.555 48.0745 707.814 47.6417 708.264 47.3794C708.439 47.2774 708.652 47.1912 708.739 47.188C708.825 47.1849 708.868 48.3595 708.834 49.7982Z" fill="#888888"/>
<path fill-rule="evenodd" clip-rule="evenodd" d="M420.017 18.2985C417.996 19.6649 417.17 20.3915 417.17 20.8036C417.17 21.9496 425.006 30.5204 430.85 35.7672L433.923 38.5258L431.869 40.4183C426.537 45.3321 419.401 52.8289 417.653 55.3533C417.133 56.1039 417.113 56.1944 417.37 56.6507C417.959 57.697 421.909 60.312 422.536 60.071C422.699 60.0088 423.715 58.9027 424.795 57.6129C428.165 53.5872 436.006 45.8357 438.883 43.6845C439.111 43.5141 439.247 43.378 439.41 43.325C439.843 43.1838 440.467 43.6296 443.525 45.5762C458.673 55.2164 469.181 58.5692 482.962 58.159C492.677 57.87 500.94 55.2523 510.011 49.5891C514.669 46.6819 523.276 39.5477 523.276 38.5951C523.276 37.8866 516.504 32.0407 512.241 29.0692C505.023 24.0382 498.34 21.1932 490.665 19.8848C482.081 18.4216 473.004 18.956 464.537 21.4232C458.042 23.3156 452.17 26.0868 445.313 30.4951C444.006 31.3357 442.22 32.4787 441.344 33.0356L439.752 34.0477L439.158 33.6368C436.053 31.4919 430.455 26.0339 424.999 19.8337C423.258 17.8558 422.497 17.1226 422.185 17.1226C421.95 17.1226 420.974 17.6519 420.017 18.2985ZM505.617 33.0211C498.849 28.9252 491.413 26.5613 483.724 26.0613C482.208 25.9626 480.625 25.8973 480.207 25.9164C479.788 25.9352 478.761 25.975 477.925 26.0048C470.087 26.2834 461.824 28.8533 453.395 33.6339C450.935 35.029 445.884 38.4183 445.885 38.6723C445.888 38.9541 449.451 41.2985 452.729 43.1744C460.174 47.4349 466.963 49.8452 474.502 50.9047C477.693 51.3531 484.725 51.3514 487.718 50.9015C490.301 50.5132 493.319 49.7562 496.084 48.8028C498.846 47.8504 503.711 45.4135 506.497 43.5857C509.061 41.9039 512.319 39.4824 512.913 38.816L513.293 38.3898L512.628 37.8326C511.577 36.9528 507.572 34.2035 505.617 33.0211Z" fill="black"/>
<path d="M405.178 113.628C396.938 120.383 388.68 127.36 388.68 127.568C388.68 127.69 394.483 134.704 401.576 143.155C408.669 151.605 417.174 161.74 420.477 165.676C423.779 169.612 426.48 172.959 426.48 173.114C426.48 173.504 423.035 176.434 391.348 202.985C376.02 215.829 363.044 226.719 362.513 227.185L361.547 228.032L361.623 243.405L361.7 258.777L401.562 225.346L441.424 191.914L441.913 190.194C442.182 189.248 442.818 187.616 443.326 186.566C443.862 185.46 444.146 184.526 444.004 184.343C443.505 183.704 443.392 182.441 443.768 181.716C444.081 181.113 444.253 181.032 444.697 181.279C445.099 181.504 445.302 181.477 445.475 181.175C446.023 180.224 446.622 179.599 446.631 179.97C446.636 180.183 446.775 180.275 446.939 180.173C447.103 180.072 447.32 180.204 447.422 180.468C447.584 180.891 447.683 180.875 448.262 180.331C450.521 178.209 455.103 178.928 460.03 182.178C463.219 184.281 463.653 184.765 463.396 185.935C463.234 186.671 463.292 186.844 463.701 186.844C464.126 186.844 464.145 186.917 463.817 187.311C463.496 187.698 463.502 187.825 463.855 188.049C464.089 188.198 464.451 188.257 464.658 188.181C464.949 188.074 464.962 188.18 464.716 188.64C464.54 188.969 464.475 189.485 464.571 189.788C464.699 190.191 464.604 190.327 464.217 190.296C463.926 190.272 463.683 190.453 463.677 190.697C463.659 191.414 463.156 192.017 462.24 192.42L461.385 192.795L461.588 195.299L461.791 197.802L460.886 197.621C460.126 197.469 459.982 197.533 459.982 198.017C459.982 198.334 459.666 198.868 459.279 199.205C458.865 199.564 458.424 200.447 458.208 201.348C457.587 203.935 455.581 204.59 453.471 202.896C452.344 201.99 451.679 201.725 451.682 202.183C451.684 202.712 453.087 204.544 457.755 210.112C463.845 217.377 464.36 217.967 464.609 217.967C464.718 217.967 465.38 217.44 466.079 216.796C466.822 216.11 468.988 214.831 471.3 213.711C474.641 212.092 475.697 211.402 478.141 209.236L481.032 206.674V204.337C481.032 203.052 480.894 201.639 480.727 201.198C480.141 199.658 481.218 199.983 482.345 201.687C483.175 202.941 484.027 203.178 485.039 202.439C485.585 202.04 485.579 201.994 484.832 200.865C484.409 200.226 483.442 199.082 482.683 198.324C480.973 196.613 479.833 196.334 477.525 197.062C475.907 197.572 475.124 198.195 473.58 200.204C472.417 201.717 472.265 201.079 473.319 199.106C473.87 198.073 474.113 197.333 473.921 197.269C473.744 197.21 472.761 197.708 471.736 198.376C469.957 199.535 469.008 199.894 469.222 199.328C469.276 199.184 470.155 198.372 471.174 197.524C473.871 195.279 473.709 194.965 470.478 196.181C466.487 197.683 466.042 196.825 469.926 195.119C471.142 194.584 472.137 194.02 472.137 193.866C472.137 193.599 471.622 193.634 468.283 194.129C467.046 194.312 466.983 194.29 467.417 193.833C467.674 193.562 469.275 192.87 470.975 192.295C472.674 191.72 474.171 191.145 474.301 191.019C474.43 190.892 474.063 190.428 473.485 189.987C472.907 189.546 472.434 188.925 472.434 188.607C472.434 187.881 472.575 187.885 473.807 188.647C474.356 188.986 474.806 189.171 474.806 189.058C474.806 188.946 472.198 185.73 469.012 181.912C465.825 178.094 463.148 174.789 463.063 174.567C462.885 174.102 464.374 172.76 475.25 163.585C490.479 150.739 496.152 145.869 496.152 145.639C496.152 145.39 486.37 133.599 483.184 130.009C481.667 128.299 481.179 127.917 480.785 128.131C480.513 128.279 475.421 132.492 469.469 137.493C456.524 148.372 447.582 155.721 447.295 155.718C447.024 155.716 445.635 154.087 428.845 134.082C412.221 114.272 409.306 110.839 409.021 110.733C408.904 110.69 407.174 111.992 405.178 113.628Z" fill="black"/>
<path d="M487.872 208.671C486.986 209.253 484.832 211.125 483.083 212.83C479.94 215.895 479.896 215.957 479.163 218.356C478.756 219.691 478.364 221.784 478.293 223.007C478.179 224.978 478 225.536 476.714 227.929L475.264 230.629L476.13 231.783C476.859 232.754 483.857 241.19 486.398 244.16L487.169 245.061L490.4 242.408C498.792 235.517 507.122 228.196 507.122 227.712C507.122 226.95 490.775 207.757 490.056 207.676C489.74 207.64 488.757 208.088 487.872 208.671Z" fill="black"/>
<path fill-rule="evenodd" clip-rule="evenodd" d="M575.8 137.872C581.852 139.296 586.95 143.644 589.822 149.831C591.247 152.902 591.422 153.103 591.905 152.228C592.195 151.703 594.171 148.61 596.297 145.356L600.163 139.44H608.444H616.724L611.22 147.954C608.193 152.637 603.897 159.329 601.675 162.825C599.453 166.322 597.397 169.523 597.106 169.939C596.682 170.546 597.01 172.034 598.753 177.432C603.544 192.266 606.026 194.838 615.551 194.838H619.634L618.768 195.812C616.072 198.844 610.331 201.195 605.621 201.195C597.68 201.195 591.993 196.813 588.954 188.352L587.521 184.364L585.202 186.961C580.348 192.399 571.483 197.806 563.677 200.089C558.195 201.693 550.928 202.068 546.105 200.996C536.124 198.78 528.975 192.074 527.678 183.713C526.142 173.816 531.878 159.742 541.267 150.368C551.043 140.607 565.38 135.419 575.8 137.872ZM545.857 165.348C550.465 155.527 558.079 146.804 563.914 144.663C565.976 143.906 568.969 143.818 570.685 144.462C573.443 145.499 576.211 148.991 578.223 153.971C579.455 157.021 581.743 165.304 581.743 166.711C581.743 168.913 573.376 180.125 568.077 185.022C558.189 194.162 550.038 196.331 544.892 191.193C540.386 186.695 540.78 176.172 545.857 165.348Z" fill="black"/>
<path fill-rule="evenodd" clip-rule="evenodd" d="M113.541 139.333C108.646 139.97 102.603 142.249 98.5906 144.971C97.5509 145.676 95.4693 147.443 93.9653 148.897C87.1381 155.497 83.1858 164.306 81.991 175.585C81.562 179.634 81.8042 188.349 82.4452 191.929C84.0281 200.771 87.6373 208.25 93.0359 213.872C98.1575 219.206 103.541 222.221 110.854 223.851C114.829 224.737 123.19 224.821 126.959 224.014C142.003 220.792 152.274 209.876 155.723 193.444C156.747 188.568 157.032 179.441 156.326 174.111C154.997 164.061 151.396 156.044 145.412 149.813C141.178 145.403 136.8 142.614 131.286 140.813C126.426 139.225 119.079 138.612 113.541 139.333ZM135.242 156.943C132.341 154.032 130.08 152.641 126.348 151.467C123.356 150.527 116.97 150.363 113.434 151.136C102.505 153.526 95.4032 164.253 94.5772 179.618C94.099 188.511 96.4528 198.055 100.534 203.773C102.561 206.613 105.744 209.394 108.529 210.756C111.648 212.282 113.778 212.815 117.624 213.03C125.203 213.456 130.979 211.372 135.555 206.562C137.837 204.164 139.018 202.428 140.432 199.391C142.903 194.085 143.824 189.353 143.817 181.999C143.811 175.619 143.364 172.63 141.659 167.591C140.05 162.834 138.423 160.134 135.242 156.943Z" fill="#888888"/>
<path fill-rule="evenodd" clip-rule="evenodd" d="M229.818 150.662C225.629 144.626 221.439 141.395 215.781 139.837C213.833 139.301 212.692 139.212 207.73 139.212C202.449 139.211 201.703 139.276 199.11 139.974C195.099 141.052 192.197 142.33 189.041 144.409C181.103 149.638 175.468 158.739 173.339 169.769C171.919 177.126 171.925 186.894 173.355 193.953C176.302 208.504 184.879 219.213 196.612 222.992C200.809 224.344 202.239 224.536 207.878 224.507C212.307 224.483 213.6 224.373 215.481 223.86C218.29 223.093 220.919 221.793 223.49 219.898C225.907 218.116 226.863 217.073 229.636 213.19C232.889 208.635 232.931 208.677 232.931 216.532V222.905H239.157H245.383V167.623V112.341H239.008H232.634V132.794C232.634 134.259 232.635 135.628 232.636 136.906V136.944V136.979V137.013V137.044V137.074V137.102V137.128V137.153C232.644 149.237 232.646 153.066 231.923 153.208C231.588 153.274 231.096 152.547 230.377 151.482C230.204 151.226 230.018 150.95 229.818 150.662ZM229.673 164.175C226.965 157.813 221.663 152.969 215.587 151.304C213.473 150.725 206.841 150.48 204.505 150.895C197.031 152.222 190.911 157.611 187.809 165.599C186.089 170.028 185.459 173.567 185.285 179.776C185.109 186.068 185.527 190.05 186.85 194.675C189.485 203.893 195.328 210.321 202.987 212.428C205.664 213.165 212.435 213.176 215.142 212.449C222.737 210.408 228.36 204.281 231.003 195.164C232.281 190.753 232.717 187.355 232.729 181.703C232.744 174.57 231.805 169.184 229.673 164.175Z" fill="#888888"/>
<path fill-rule="evenodd" clip-rule="evenodd" d="M297.562 139.452C284.135 141.661 273.772 150.785 269.21 164.417C264.945 177.16 265.828 193.539 271.379 204.653C273.983 209.867 278.424 215.169 282.758 218.239C286.754 221.07 291.95 223.224 296.969 224.131C300.31 224.735 308.94 224.65 312.029 223.984C322.989 221.619 331.722 214.801 336.791 204.653C340.518 197.189 342.255 187.136 341.488 177.455C340.911 170.161 339.649 165.168 336.98 159.62C331.888 149.03 323.779 142.436 312.682 139.863C309.323 139.084 301.149 138.862 297.562 139.452ZM328.691 181.954C328.695 166.054 322.142 154.631 311.198 151.459C308.714 150.739 302.114 150.407 299.537 150.872C296.976 151.333 294.19 152.31 292.465 153.351C284.132 158.377 279.477 168.591 279.477 181.851C279.477 197.947 286.192 209.299 297.562 212.424C300.603 213.26 307.913 213.185 311.041 212.286C317.125 210.539 321.649 206.583 324.834 200.229C327.523 194.863 328.689 189.338 328.691 181.954Z" fill="#888888"/>
<path d="M656.17 131.022C649.466 132.434 643.859 136.688 640.845 142.65C640.371 143.588 639.785 144.354 639.543 144.354C639.167 144.354 639.102 143.421 639.102 137.981V131.608H632.876H626.65V172.959V214.309H633.024H639.399L639.401 188.298C639.403 172.851 639.524 161.234 639.701 159.694C640.602 151.828 645.613 145.303 652.64 142.846C654.876 142.064 659.078 141.798 661.842 142.265C667.602 143.236 672.291 147.385 674.031 153.05C674.443 154.394 674.513 158.221 674.603 184.445L674.706 214.309H681.215H687.724V185.752C687.724 158.284 687.746 157.108 688.31 154.906C689.145 151.641 690.492 149.278 692.904 146.849C696.48 143.247 700.761 141.773 706.847 142.049C710.684 142.223 713.47 143.102 716.437 145.075C720.041 147.474 721.744 150.481 722.404 155.618C722.57 156.904 722.694 169.745 722.699 186.075L722.708 214.309H729.094H735.48L735.38 183.407C735.282 153.345 735.263 152.433 734.662 149.838C733.861 146.372 732.479 142.839 731.126 140.797C728.069 136.184 723.327 132.863 717.52 131.266C714.36 130.398 705.938 130.307 702.737 131.107C695.845 132.829 689.757 137.083 686.398 142.524C685.777 143.531 685.099 144.354 684.892 144.354C684.686 144.354 683.963 143.346 683.287 142.114C680.804 137.592 675.772 133.296 671.194 131.79C666.645 130.294 660.997 130.005 656.17 131.022Z" fill="#888888"/>
<path d="M879.998 130.456C872.99 131.477 866.31 136.05 863.319 141.876C862.703 143.074 862.067 144.011 861.904 143.958C861.722 143.898 861.576 141.484 861.527 137.734L861.447 131.608H855.375H849.303V172.959V214.309H855.678H862.052L862.057 186.964L862.057 185.098V185.095C862.061 161.05 862.062 157.726 863.249 154.9C863.44 154.446 863.661 154.006 863.918 153.494L864.042 153.247C865.514 150.302 869.051 146.713 871.989 145.183C876.35 142.91 882.162 142.089 887.697 142.964C889.165 143.196 890.465 143.329 890.588 143.26C890.71 143.191 890.81 140.292 890.81 136.819V130.505L889.253 130.318C887.15 130.066 882.17 130.14 879.998 130.456Z" fill="#888888"/>
<path fill-rule="evenodd" clip-rule="evenodd" d="M797.371 135.155C805.246 135.821 810.265 137.45 816.098 141.236C820.862 144.328 824.856 148.767 827.297 153.684C829.431 157.984 830.158 161.103 830.345 166.768C830.523 172.155 830.198 175.166 829.037 178.868C828.096 181.869 826.056 185.856 824.224 188.274C820.527 193.152 814.338 197.48 808.364 199.363C806.602 199.919 806.563 199.975 806.255 202.398L806.054 203.982L815.795 203.85C822.265 203.762 825.917 203.597 826.669 203.358C829.015 202.613 830.391 200.761 831.149 197.33C831.296 196.664 831.49 196.515 832.213 196.515H833.096V205.409V214.304H817.105H801.114L801.248 213.34C801.419 212.106 802.559 198.759 802.559 197.991C802.559 197.563 803.074 197.177 804.515 196.524C809.616 194.211 812.909 190.644 815.049 185.113C816.548 181.24 817.102 178.013 817.293 172.045C817.639 161.21 815.932 154.542 811.214 148.304C808.075 144.154 804.16 141.402 799.462 140.046C789.808 137.26 780.852 140.495 774.813 148.952C768.847 157.307 767.393 171.018 771.168 183.322C773.124 189.7 776.1 193.482 781.09 195.933L783.782 197.256L784.314 205.644C784.606 210.257 784.787 214.09 784.715 214.162C784.62 214.257 759.794 214.372 753.266 214.309C752.776 214.304 752.748 213.742 752.821 205.483L752.9 196.663L753.822 196.573C754.725 196.485 754.75 196.518 755.084 198.212C755.739 201.542 757.482 203.014 761.498 203.627C762.705 203.811 766.982 203.909 771.726 203.861L779.879 203.779L779.967 201.952L780.054 200.126L777.595 199.331C772.59 197.714 768.81 195.363 764.765 191.351C758.762 185.395 755.72 177.86 755.72 168.943C755.72 159.986 758.959 152.139 765.263 145.827C771.6 139.48 779.253 136.038 788.933 135.179C792.947 134.822 793.421 134.821 797.371 135.155Z" fill="black"/>
<path fill-rule="evenodd" clip-rule="evenodd" d="M50.1725 67.0285C51.079 66.9447 52.2577 67.1109 52.7924 67.3984C53.3271 67.6852 54.2791 67.645 54.9074 67.308C55.7525 66.8563 56.214 67.0027 56.6782 67.8699C57.1897 68.8254 57.4983 82.2966 57.5603 106.355C57.5642 108.03 57.7732 109.732 58.0244 110.139C58.3349 110.641 64.6164 111.019 77.5665 111.318L96.6511 111.757L96.5212 115.447C96.45 117.477 96.3109 121.43 96.2133 124.232C96.1137 127.078 95.7235 129.446 95.3299 129.597C94.9416 129.746 88.4049 129.923 80.8042 129.99C65.4926 130.125 58.7628 130.437 58.1589 131.041C57.8378 131.363 57.4192 153.217 57.5346 163.648C57.7014 178.721 56.9412 209.199 56.3848 209.708C56.1277 209.943 56.1033 209.157 56.3307 207.96C56.5588 206.764 56.4962 205.939 56.1916 206.127C55.8877 206.315 55.4407 211.152 55.1994 216.875C54.5995 231.093 54.0721 236.495 53.3884 235.416C53.0146 234.826 52.8267 235.226 52.8194 236.623C52.8142 237.771 52.5656 238.81 52.2676 238.931C51.9703 239.052 51.2524 240.783 50.6729 242.778C50.0934 244.772 49.5956 245.737 49.5666 244.921C49.5007 243.087 48.1947 242.93 48.1947 244.756C48.1947 245.481 47.8663 246.075 47.4649 246.075C47.0291 246.075 46.9256 245.61 47.2084 244.921C47.7371 243.632 47.7886 243.147 47.6396 240.854C47.5822 239.978 47.3402 239.456 47.1016 239.695C46.8629 239.934 46.2696 239.798 45.783 239.394C44.5522 238.372 44.6728 239.457 45.9465 240.865C46.7621 241.766 46.8306 242.29 46.2577 243.225C45.6011 244.296 45.5404 244.247 45.7039 242.778C45.8147 241.781 45.5767 241.189 45.1033 241.281C44.1593 241.463 43.8283 240.383 43.2376 235.194C42.9897 233.018 42.5368 230.769 42.2316 230.197C41.9263 229.624 41.6151 225.385 41.54 220.778C41.4655 216.17 41.1517 212.244 40.8438 212.053C40.3052 211.72 39.9887 215.604 40.2748 219.039C40.35 219.945 40.1865 220.466 39.9116 220.196C39.4264 219.719 38.9596 201.211 38.9932 183.76C39.0025 179.045 38.9774 174.149 38.9385 172.879C38.899 171.61 38.8699 161.595 38.8726 150.624L38.8785 130.677L37.438 130.621C36.6462 130.591 34.5148 130.468 32.7018 130.349C30.8888 130.229 23.1424 130.074 15.4869 130.005C7.83213 129.935 1.26777 129.687 0.899901 129.454C0.531369 129.219 0.24854 128.138 0.270955 127.05C0.29337 125.962 0.230741 123.588 0.131191 121.775C0.0323003 119.961 -0.0230768 116.967 0.00922748 115.121L0.0679005 111.765L18.9369 111.32C29.3145 111.074 38.0663 110.712 38.3854 110.515C38.7038 110.318 38.9649 100.36 38.9649 88.385V66.6137L41.9098 66.795C43.5303 66.8946 45.044 66.7871 45.2741 66.557C45.5048 66.3268 46.3302 66.373 47.1088 66.6598C47.8874 66.9467 49.266 67.1129 50.1725 67.0285ZM40.4997 206.839C40.503 209.378 40.6216 210.336 40.7647 208.968C40.9071 207.6 40.9051 205.523 40.7594 204.352C40.6137 203.181 40.497 204.301 40.4997 206.839ZM40.7199 233.711C40.5372 234.164 40.3876 233.793 40.3876 232.886C40.3876 231.98 40.5372 231.609 40.7199 232.062C40.9031 232.516 40.9031 233.258 40.7199 233.711ZM44.6597 236.513C44.4513 237.057 44.568 237.502 44.9188 237.502C45.2701 237.502 45.5576 237.057 45.5576 236.513C45.5576 235.969 45.4409 235.524 45.2985 235.524C45.1561 235.524 44.8686 235.969 44.6597 236.513ZM51.5431 236.568C51.5747 237.336 51.731 237.492 51.9413 236.967C52.1318 236.491 52.1081 235.922 51.8892 235.703C51.6703 235.484 51.5147 235.873 51.5431 236.568ZM46.2169 238.201C46.2169 238.584 46.5135 238.716 46.8761 238.491C47.2387 238.267 47.5354 237.953 47.5354 237.793C47.5354 237.633 47.2387 237.502 46.8761 237.502C46.5135 237.502 46.2169 237.817 46.2169 238.201ZM48.906 238.546C48.9377 239.314 49.0939 239.471 49.3042 238.945C49.4947 238.469 49.471 237.9 49.2521 237.681C49.0333 237.462 48.8777 237.851 48.906 238.546ZM44.239 242.739C44.239 243.08 43.9424 243.543 43.5798 243.767C43.2172 243.991 42.9205 243.711 42.9205 243.146C42.9205 242.581 43.2172 242.118 43.5798 242.118C43.9424 242.118 44.239 242.397 44.239 242.739Z" fill="#AA0000"/>
</svg>
