<svg width="1201" height="1170" viewBox="0 0 1201 1170" fill="none" xmlns="http://www.w3.org/2000/svg">
<path fill-rule="evenodd" clip-rule="evenodd" d="M185.647 0.772445C172.677 2.44545 158.557 5.74544 144.682 10.3474C98.8613 25.5414 60.3643 55.4884 33.0853 97.1604C17.0623 121.636 4.93825 155.538 1.09725 186.612C-0.36575 198.449 -0.36575 970.827 1.09725 982.664C5.84125 1021.04 20.2793 1056.23 44.3673 1088.12C52.1473 1098.42 71.2703 1117.54 81.5723 1125.32C113.463 1149.41 148.65 1163.85 187.024 1168.59C198.865 1170.05 1001.24 1170.05 1013.08 1168.59C1051.45 1163.85 1086.64 1149.41 1118.53 1125.32C1128.83 1117.54 1147.95 1098.42 1155.73 1088.12C1179.82 1056.23 1194.26 1021.04 1199 982.664C1200.47 970.827 1200.47 198.449 1199 186.612C1196.11 163.226 1188.73 138.466 1178.49 117.77C1167.57 95.7024 1155.64 79.1064 1138.11 61.5764C1107.09 30.5554 1070.85 11.4784 1025.62 2.36745L1014.55 0.138445L603.55 0.0104452C368.193 -0.0635548 189.6 0.262445 185.647 0.772445Z" fill="white"/>
<path fill-rule="evenodd" clip-rule="evenodd" d="M185.647 0.772445C172.677 2.44545 158.557 5.74544 144.682 10.3474C98.8613 25.5414 60.3643 55.4884 33.0853 97.1604C17.0623 121.636 4.93825 155.538 1.09725 186.612C-0.36575 198.449 -0.36575 970.827 1.09725 982.664C5.84125 1021.04 20.2793 1056.23 44.3673 1088.12C52.1473 1098.42 71.2703 1117.54 81.5723 1125.32C113.463 1149.41 148.65 1163.85 187.024 1168.59C198.865 1170.05 1001.24 1170.05 1013.08 1168.59C1051.45 1163.85 1086.64 1149.41 1118.53 1125.32C1128.83 1117.54 1147.95 1098.42 1155.73 1088.12C1179.82 1056.23 1194.26 1021.04 1199 982.664C1200.47 970.827 1200.47 198.449 1199 186.612C1196.11 163.226 1188.73 138.466 1178.49 117.77C1167.57 95.7024 1155.64 79.1064 1138.11 61.5764C1107.09 30.5554 1070.85 11.4784 1025.62 2.36745L1014.55 0.138445L603.55 0.0104452C368.193 -0.0635548 189.6 0.262445 185.647 0.772445ZM456.1 302.287C457.236 303.424 639.496 811.727 640.517 816.608C641.722 822.369 644.124 822.138 582.998 822.138C527.127 822.138 526.866 822.128 525.212 820.032C524.298 818.874 514.332 790.842 503.065 757.738C491.798 724.635 482.423 698.02 482.231 698.594C481.993 699.309 452.544 699.644 388.717 699.658L295.55 699.678L276.122 760.164C263.321 800.016 256.036 821.246 254.767 822.394C253 823.995 248.79 824.161 203.582 824.415C172.394 824.59 153.355 824.324 151.686 823.69C149.652 822.917 149.05 822.007 149.05 819.71C149.05 818.072 186.221 710.173 231.653 579.935C277.085 449.697 314.899 340.213 315.684 336.638C316.469 333.063 317.391 324.153 317.733 316.838C318.292 304.851 318.561 303.394 320.452 302.068C322.256 300.804 331.811 300.636 388.75 300.868C436.959 301.065 455.263 301.45 456.1 302.287ZM386.727 392.388C386.484 392.801 385.966 394.713 385.576 396.638C382.557 411.532 374.166 441.641 363.001 477.638C355.751 501.013 347.163 529.363 343.916 540.638C340.67 551.913 335.097 569.731 331.532 580.234C327.967 590.737 325.05 599.624 325.05 599.984C325.05 600.344 353.661 600.638 388.629 600.638H452.209L451.516 597.388C451.134 595.6 446.866 581.988 442.031 567.138C420.259 500.272 389.062 397.661 389.052 392.888C389.05 391.527 387.438 391.18 386.727 392.388ZM882.076 422.691C913.596 426.607 940.932 437.025 962.972 453.52C994.956 477.457 1017.15 517.987 1024.64 566.138C1026.75 579.724 1026.94 611.283 1025.04 633.522C1023.27 654.174 1024.31 653.141 1003.87 654.669C995.246 655.313 983.096 655.825 976.87 655.805C970.644 655.785 922.873 655.486 870.712 655.139C779.425 654.533 775.894 654.578 776.389 656.324C776.672 657.322 777.213 660.163 777.59 662.638C779.717 676.583 788.399 695.806 797.548 706.827C811.228 723.308 834.192 734.616 864.55 739.823C892.363 744.593 945.581 739.325 978.821 728.511C988.906 725.23 991.484 724.706 992.195 725.792C992.68 726.532 992.959 745.913 992.814 768.861C992.506 817.49 993.953 812.311 979.055 818.129C931.107 836.854 851.343 840.847 798.71 827.157C739.883 811.856 694.43 768.095 675.609 708.638C667.141 681.887 663.401 653.657 664.359 623.718C667.092 538.27 708.461 468.472 775.225 436.668C790.794 429.252 807.21 425.04 829.55 422.731C841.388 421.507 872.36 421.484 882.076 422.691ZM831.006 509.979C801.637 518.676 782.719 542.298 776.598 577.914L775.95 581.691L845.75 581.414C927.716 581.09 922.05 581.851 922.05 571.162C922.05 561.699 920.418 555.258 915.33 544.638C909.123 531.68 898.526 520.881 886.05 514.801C873.847 508.853 867.998 507.629 852.09 507.692C841.106 507.735 837.126 508.167 831.006 509.979Z" fill="white"/>
<path fill-rule="evenodd" clip-rule="evenodd" d="M185.647 0.772445C172.677 2.44545 158.557 5.74544 144.682 10.3474C98.8613 25.5414 60.3643 55.4884 33.0853 97.1604C17.0623 121.636 4.93825 155.538 1.09725 186.612C-0.36575 198.449 -0.36575 970.827 1.09725 982.664C5.84125 1021.04 20.2793 1056.23 44.3673 1088.12C52.1473 1098.42 71.2703 1117.54 81.5723 1125.32C113.463 1149.41 148.65 1163.85 187.024 1168.59C198.865 1170.05 1001.24 1170.05 1013.08 1168.59C1051.45 1163.85 1086.64 1149.41 1118.53 1125.32C1128.83 1117.54 1147.95 1098.42 1155.73 1088.12C1179.82 1056.23 1194.26 1021.04 1199 982.664C1200.47 970.827 1200.47 198.449 1199 186.612C1196.11 163.226 1188.73 138.466 1178.49 117.77C1167.57 95.7024 1155.64 79.1064 1138.11 61.5764C1107.09 30.5554 1070.85 11.4784 1025.62 2.36745L1014.55 0.138445L603.55 0.0104452C368.193 -0.0635548 189.6 0.262445 185.647 0.772445ZM455.829 302.388C457.167 303.557 488.228 389.155 549.44 560.355C599.826 701.274 641.05 817.23 641.05 818.033C641.05 818.837 640.343 820.202 639.479 821.067C638.088 822.457 631.59 822.638 583.089 822.638C532.076 822.638 528.119 822.515 526.079 820.863C524.454 819.547 518.488 803.313 503.018 758.113C491.541 724.577 482.127 697.698 482.1 698.383C482.061 699.365 462.371 699.682 388.86 699.883L295.671 700.138L276.387 760.138C260.369 809.975 256.666 820.519 254.521 822.388L251.938 824.638H202.428C170.212 824.638 152.243 824.276 150.984 823.603C149.684 822.907 149.05 821.508 149.05 819.335C149.05 817.556 184.767 713.735 228.421 588.62C272.076 463.505 309.611 355.513 311.833 348.638C315.989 335.784 318.042 323.418 318.047 311.217C318.052 299.57 311.028 300.638 387.594 300.638C449.245 300.638 453.967 300.759 455.829 302.388ZM386.7 392.721C386.471 393.5 383.997 403.588 381.203 415.138C378.408 426.688 369.626 457.063 361.686 482.638C353.747 508.213 345.19 536.338 342.671 545.138C340.152 553.938 335.157 569.9 331.57 580.609C327.984 591.318 325.05 600.206 325.05 600.359C325.05 600.513 353.625 600.638 388.55 600.638C423.475 600.638 452.056 600.301 452.063 599.888C452.07 599.475 447.374 584.513 441.627 566.638C422.789 508.049 402.259 441.584 395.449 417.138C388.898 393.624 387.544 389.844 386.7 392.721ZM886.922 423.199C934.572 430.196 971.115 451.889 994.634 487.138C1013.17 514.926 1023.36 544.916 1026.22 580.183C1027.15 591.59 1027.13 599.567 1026.15 616.945C1025.46 629.151 1024.55 641.523 1024.14 644.437C1022.9 653.27 1022.74 653.335 998.049 655.262C979.854 656.682 973.937 656.762 959.55 655.783C948.798 655.051 911.998 654.627 859.416 654.632L776.282 654.638L777.662 661.888C781.899 684.153 790.267 700.05 805.091 713.995C826.964 734.571 867.241 744.638 912.05 740.73C938.483 738.425 971.038 731.954 985.41 726.148C989.992 724.298 991.665 723.998 992.268 724.919C992.707 725.59 992.95 745.138 992.808 768.361C992.559 809.083 992.479 810.656 990.548 812.585C987.893 815.239 969.27 822.201 955.55 825.669C928.177 832.589 905.955 835.052 871.05 835.034C840.229 835.019 827.859 833.873 806.167 829.023C753.887 817.335 713.606 786.802 688.165 739.58C676.723 718.342 668.082 687.628 664.998 657.231C663.467 642.148 664.297 607.917 666.539 593.638C673.179 551.345 688.831 514.778 712.9 485.321C733.123 460.573 764.468 438.6 792.05 429.838C800.661 427.103 820.373 423.262 830.55 422.338C842.744 421.23 877.084 421.754 886.922 423.199ZM838.05 508.325C827.897 510.007 814.984 515.946 805.791 523.162C791.887 534.074 780.524 555.355 777.103 576.888L776.349 581.638L843.949 581.594C904.978 581.555 912.036 581.385 916.55 579.844L921.55 578.138L921.856 572.188C922.637 556.996 915.283 539.828 902.56 527.138C888.361 512.977 874.319 507.53 852.64 507.774C845.991 507.849 839.425 508.097 838.05 508.325Z" fill="white"/>
<path fill-rule="evenodd" clip-rule="evenodd" d="M185.647 0.772445C172.677 2.44545 158.557 5.74544 144.682 10.3474C98.8613 25.5414 60.3643 55.4884 33.0853 97.1604C17.0623 121.636 4.93825 155.538 1.09725 186.612C-0.36575 198.449 -0.36575 970.827 1.09725 982.664C5.84125 1021.04 20.2793 1056.23 44.3673 1088.12C52.1473 1098.42 71.2703 1117.54 81.5723 1125.32C113.463 1149.41 148.65 1163.85 187.024 1168.59C198.865 1170.05 1001.24 1170.05 1013.08 1168.59C1051.45 1163.85 1086.64 1149.41 1118.53 1125.32C1128.83 1117.54 1147.95 1098.42 1155.73 1088.12C1179.82 1056.23 1194.26 1021.04 1199 982.664C1200.47 970.827 1200.47 198.449 1199 186.612C1196.11 163.226 1188.73 138.466 1178.49 117.77C1167.57 95.7024 1155.64 79.1064 1138.11 61.5764C1107.09 30.5554 1070.85 11.4784 1025.62 2.36745L1014.55 0.138445L603.55 0.0104452C368.193 -0.0635548 189.6 0.262445 185.647 0.772445ZM455.874 302.388C457.283 303.593 486.332 383.546 549.159 559.138C599.34 699.388 640.607 815.449 640.862 817.051C641.766 822.737 642.795 822.638 582.915 822.638H528.162L525.726 820.388C523.859 818.663 518.564 804.254 503.035 758.638L482.779 699.138L389.308 699.638L295.836 700.138L276.505 760.137C260.289 810.465 256.751 820.498 254.556 822.387L251.938 824.638H202.428C170.212 824.638 152.243 824.276 150.984 823.603C149.658 822.893 149.05 821.506 149.05 819.191C149.05 817.294 185.018 712.701 231.119 580.537C276.257 451.135 313.822 342.758 314.596 339.699C316.336 332.824 318.031 318.2 318.042 309.959C318.047 305.685 318.534 303.297 319.621 302.209C321.018 300.812 328.555 300.638 387.511 300.638C449.225 300.638 453.97 300.759 455.874 302.388ZM386.672 393.652C382.826 411.536 374.491 441.498 363.4 477.304C355.932 501.413 347.164 530.363 343.915 541.638C339.215 557.946 328.819 590.259 325.429 599.094C324.898 600.476 331.512 600.638 388.51 600.638H452.185L451.552 598.388C451.203 597.151 446.021 580.838 440.036 562.138C419.68 498.543 404.123 448.199 396.465 421.138C388.084 391.52 387.489 389.852 386.672 393.652ZM896.429 424.536C945.456 434.558 979.423 458.68 1002.89 500.138C1012.88 517.801 1019.98 538.114 1024.21 561.193C1028.33 583.723 1026.77 646.339 1021.95 651.513C1019.77 653.852 1017.72 654.158 993.166 655.793C978.791 656.751 971.051 656.757 957.666 655.822C946.504 655.041 912.114 654.627 858.8 654.632L777.05 654.638L777.053 657.388C777.054 658.901 778.173 664.312 779.54 669.413C790.251 709.394 814.444 729.776 862.55 739.347C873.344 741.495 906.818 741.748 922.05 739.797C943.218 737.087 965.879 732.438 978.55 728.206C985.7 725.818 991.887 724.065 992.3 724.31C992.713 724.555 993.043 743.517 993.035 766.447C993.024 797.493 992.705 808.776 991.785 810.638C988.242 817.809 953.751 828.041 915.55 833.254C905.659 834.604 895.495 835.041 873.05 835.083C841.729 835.141 831.58 834.331 810.294 830.075C729.677 813.954 675.961 751.975 665.562 663.079C663.606 646.351 663.617 616.597 665.586 600.608C673.918 532.945 706.517 478.276 757.97 445.683C773.872 435.609 789.532 429.352 808.05 425.671C825.079 422.286 832.161 421.789 859.55 422.057C881.825 422.276 887.109 422.631 896.429 424.536ZM835.55 509.051C811.832 514.439 793.77 529.944 784.071 553.243C780.556 561.685 777.05 574.464 777.05 578.831V581.704L845.8 581.421C912.271 581.147 914.679 581.072 918.432 579.14L922.314 577.142L921.737 568.64C919.96 542.476 901.795 519.2 876.765 511.017C869.839 508.753 866.431 508.281 855.05 508.01C846.144 507.798 839.508 508.152 835.55 509.051Z" fill="#757575"/>
<path fill-rule="evenodd" clip-rule="evenodd" d="M185.647 0.772445C172.677 2.44545 158.557 5.74544 144.682 10.3474C98.8613 25.5414 60.3643 55.4884 33.0853 97.1604C17.0623 121.636 4.93825 155.538 1.09725 186.612C-0.36575 198.449 -0.36575 970.827 1.09725 982.664C5.84125 1021.04 20.2793 1056.23 44.3673 1088.12C52.1473 1098.42 71.2703 1117.54 81.5723 1125.32C113.463 1149.41 148.65 1163.85 187.024 1168.59C198.865 1170.05 1001.24 1170.05 1013.08 1168.59C1051.45 1163.85 1086.64 1149.41 1118.53 1125.32C1128.83 1117.54 1147.95 1098.42 1155.73 1088.12C1179.82 1056.23 1194.26 1021.04 1199 982.664C1200.47 970.827 1200.47 198.449 1199 186.612C1196.11 163.226 1188.73 138.466 1178.49 117.77C1167.57 95.7024 1155.64 79.1064 1138.11 61.5764C1107.09 30.5554 1070.85 11.4784 1025.62 2.36745L1014.55 0.138445L603.55 0.0104452C368.193 -0.0635548 189.6 0.262445 185.647 0.772445ZM456.479 302.209C457.343 303.074 458.05 303.927 458.05 304.106C458.05 304.286 499.225 419.491 549.55 560.119C599.875 700.747 641.05 816.803 641.05 818.022C641.05 819.241 640.51 820.778 639.85 821.438C638.946 822.342 624.987 822.638 583.164 822.638C529.471 822.638 527.612 822.575 525.597 820.682C524.204 819.374 516.748 798.922 503.084 758.932L482.653 699.138L389.391 699.398L296.129 699.658L288.96 721.898C285.017 734.13 276.307 761.18 269.606 782.008C261.058 808.573 256.737 820.589 255.13 822.258L252.84 824.638H201.968H151.096L149.506 822.211C148.283 820.344 148.132 819.017 148.855 816.461C149.371 814.633 185.683 710.313 229.548 584.638C273.413 458.963 310.563 352.088 312.105 347.138C315.772 335.367 316.823 329.228 317.621 314.943C318.122 305.97 318.658 302.838 319.856 301.888C321.081 300.916 336.287 300.638 388.17 300.638C447.507 300.638 455.081 300.812 456.479 302.209ZM381.746 414.398C378.634 426.905 369.386 458.738 361.195 485.138C353.003 511.538 344.865 538.349 343.109 544.717C341.353 551.086 336.663 566.048 332.686 577.967L325.455 599.638H388.662H451.869L448.601 589.388C417.055 490.45 404.811 451.07 396.482 421.763C391.89 405.607 387.969 392.224 387.769 392.023C387.568 391.823 384.858 401.891 381.746 414.398ZM874.655 421.678C905.944 424.2 936.029 434.268 958.876 449.861C970.417 457.738 986.382 474.198 994.906 487.008C1012.29 513.135 1022.59 542.202 1026.13 575.138C1027.89 591.462 1026.1 641.55 1023.46 649.899C1023.16 650.867 1021.7 652.271 1020.23 653.017C1016.72 654.795 994.757 656.194 974.55 655.927C965.75 655.81 917.713 655.445 867.8 655.114L777.05 654.514V656.948C777.05 662.14 782.158 679.134 786.428 688.149C793.463 703.001 803.063 714.165 815.968 722.506C829.191 731.053 853.861 738.644 875.341 740.774C903.097 743.528 954.675 736.797 983.214 726.698C987.753 725.092 991.823 723.998 992.258 724.267C992.694 724.536 993.05 743.847 993.05 767.181V809.606L990.3 812.553C983.689 819.637 948.42 829.219 912.05 833.812C895.978 835.842 842.933 835.519 827.55 833.298C793.137 828.33 765.068 817.802 741.05 800.856C729.006 792.358 709.556 772.921 700.791 760.622C692.708 749.28 680.318 724.757 676.132 711.814C654.589 645.209 661.252 569.257 693.562 513.133C712.47 480.289 737.204 456.13 769.292 439.164C788.987 428.751 810.986 423.252 839.05 421.728C860.635 420.556 860.74 420.556 874.655 421.678ZM840.05 508.283C814.502 513.351 796.863 526.68 785.995 549.133C782.153 557.071 777.05 574.284 777.05 579.305V581.716L845.3 581.427C909.969 581.153 913.78 581.038 917.937 579.225L922.324 577.311L921.731 569.225C919.681 541.261 901.434 518.649 874.05 510.139C868.594 508.444 845.577 507.187 840.05 508.283Z" fill="white"/>
<path fill-rule="evenodd" clip-rule="evenodd" d="M185.647 0.772445C172.677 2.44545 158.557 5.74544 144.682 10.3474C98.8613 25.5414 60.3643 55.4884 33.0853 97.1604C17.0623 121.636 4.93825 155.538 1.09725 186.612C-0.36575 198.449 -0.36575 970.827 1.09725 982.664C5.84125 1021.04 20.2793 1056.23 44.3673 1088.12C52.1473 1098.42 71.2703 1117.54 81.5723 1125.32C113.463 1149.41 148.65 1163.85 187.024 1168.59C198.865 1170.05 1001.24 1170.05 1013.08 1168.59C1051.45 1163.85 1086.64 1149.41 1118.53 1125.32C1128.83 1117.54 1147.95 1098.42 1155.73 1088.12C1179.82 1056.23 1194.26 1021.04 1199 982.664C1200.47 970.827 1200.47 198.449 1199 186.612C1196.11 163.226 1188.73 138.466 1178.49 117.77C1167.57 95.7024 1155.64 79.1064 1138.11 61.5764C1107.09 30.5554 1070.85 11.4784 1025.62 2.36745L1014.55 0.138445L603.55 0.0104452C368.193 -0.0635548 189.6 0.262445 185.647 0.772445ZM456.237 301.888C458.029 303.315 641.05 814.326 641.05 817.901C641.05 819.186 640.51 820.778 639.85 821.438C638.945 822.343 624.955 822.638 583.024 822.638H527.399L525.274 820.376C523.921 818.937 515.764 796.474 502.849 758.626L482.55 699.138L389.37 699.393L296.19 699.648L290.659 716.893C260.507 810.901 257.038 821.207 254.975 822.888C252.993 824.503 248.928 824.638 202.094 824.638C152.311 824.638 151.325 824.6 149.515 822.6C147.721 820.617 147.726 820.378 149.702 813.85C150.819 810.158 187.525 704.538 231.272 579.138C275.018 453.738 311.75 348.213 312.899 344.638C315.502 336.534 316.792 328.257 317.65 314.138C318.018 308.088 318.763 302.576 319.307 301.888C320.08 300.91 334.926 300.638 387.481 300.638C439.727 300.638 455.017 300.916 456.237 301.888ZM387.046 392.221C387.038 394.192 380.091 422.725 377.084 433.138C375.337 439.188 368.043 463.038 360.875 486.138C353.707 509.238 346.296 533.763 344.406 540.638C342.516 547.513 337.572 563.41 333.42 575.965C329.268 588.52 326.064 598.985 326.301 599.222C326.538 599.459 354.861 599.537 389.241 599.396L451.749 599.138L440.978 565.638C420.794 502.86 404.173 449.184 396.106 420.723C388.804 394.96 387.058 389.465 387.046 392.221ZM876.05 421.654C918.774 425.365 954.548 441.433 980.149 468.413C1003.87 493.413 1020.41 530.332 1025.67 570.023C1028.4 590.644 1026.29 645.571 1022.55 651.285C1021.69 652.594 1019.7 653.753 1017.81 654.04C1008.46 655.463 979.044 656.779 968.55 656.244C961.95 655.908 916.162 655.381 866.8 655.073C787.516 654.578 777.05 654.688 777.05 656.01C777.05 658.966 780.003 671.271 782.359 678.138C790.42 701.623 806.135 719.31 826.907 728.272C842.606 735.046 863.073 739.967 880.55 741.17C907.241 743.006 962.063 735.022 984.791 725.989C988.223 724.624 991.485 723.789 992.041 724.132C993.532 725.054 993.408 807.758 991.91 811.047C988.87 817.718 954.012 828.082 916.941 833.337C907.198 834.718 897.605 835.097 872.05 835.11C837.782 835.128 830.525 834.543 808.81 830.016C740.679 815.811 690.499 767.566 672.145 698.622C658.035 645.622 661.299 588.283 681.275 538.265C704.234 480.775 752.576 437.295 806.374 425.745C826.566 421.41 854.417 419.775 876.05 421.654ZM841.55 508.264C840.45 508.48 837.075 509.139 834.05 509.727C831.025 510.315 824.356 512.811 819.23 515.274C807.454 520.93 796.76 530.759 789.837 542.289C784.785 550.703 778.598 567.787 777.47 576.439L776.779 581.741L845.164 581.439C909.941 581.154 913.781 581.037 917.935 579.225L922.32 577.313L921.696 569.194C918.924 533.126 889.727 507.261 852.342 507.754C847.506 507.818 842.65 508.047 841.55 508.264Z" fill="white"/>
<path fill-rule="evenodd" clip-rule="evenodd" d="M185.647 0.772445C172.677 2.44545 158.557 5.74544 144.682 10.3474C98.8613 25.5414 60.3643 55.4884 33.0853 97.1604C17.0623 121.636 4.93825 155.538 1.09725 186.612C-0.36575 198.449 -0.36575 970.827 1.09725 982.664C5.84125 1021.04 20.2793 1056.23 44.3673 1088.12C52.1473 1098.42 71.2703 1117.54 81.5723 1125.32C113.463 1149.41 148.65 1163.85 187.024 1168.59C198.865 1170.05 1001.24 1170.05 1013.08 1168.59C1051.45 1163.85 1086.64 1149.41 1118.53 1125.32C1128.83 1117.54 1147.95 1098.42 1155.73 1088.12C1179.82 1056.23 1194.26 1021.04 1199 982.664C1200.47 970.827 1200.47 198.449 1199 186.612C1196.11 163.226 1188.73 138.466 1178.49 117.77C1167.57 95.7024 1155.64 79.1064 1138.11 61.5764C1107.09 30.5554 1070.85 11.4784 1025.62 2.36745L1014.55 0.138445L603.55 0.0104452C368.193 -0.0635548 189.6 0.262445 185.647 0.772445ZM456.843 301.888C458.595 304 641.05 814.822 641.05 817.617C641.05 819.059 640.51 820.778 639.85 821.438C638.057 823.231 528.148 823.161 525.692 821.365C523.724 819.927 520.89 812.115 498.485 746.391L482.55 699.644L389.48 699.641L296.41 699.638L280.602 748.759C257.215 821.437 257.385 820.944 254.987 822.888C252.994 824.503 248.92 824.638 202.011 824.638C155.825 824.638 151.04 824.485 149.519 822.964C148.388 821.833 148.009 820.291 148.351 818.214C148.629 816.522 184.515 712.988 228.098 588.138C271.68 463.288 309.063 355.771 311.171 349.211C315.08 337.043 316.405 329.479 317.573 312.638C317.936 307.413 318.696 302.576 319.263 301.888C320.771 300.062 455.327 300.062 456.843 301.888ZM381.826 414.976C378.677 427.715 369.998 457.713 362.538 481.638C355.078 505.563 346.941 532.338 344.456 541.138C341.971 549.938 336.813 566.518 332.994 577.983C329.175 589.447 326.05 599.01 326.05 599.233C326.05 599.456 354.175 599.638 388.55 599.638C429.259 599.638 451.05 599.292 451.05 598.645C451.05 598.099 446.808 584.486 441.624 568.395C423.813 513.111 403.087 446.102 395.459 419.138C391.258 404.288 387.76 392.065 387.685 391.976C387.611 391.887 384.974 402.237 381.826 414.976ZM878.55 421.678C908.397 424.497 938.646 435.247 960.461 450.789C994.665 475.158 1019.07 519.257 1025.56 568.439C1027.45 582.73 1027.46 615.024 1025.6 635.122C1023.74 655.096 1025.23 653.892 1000.45 655.566C989.951 656.276 975.548 656.582 968.05 656.255C960.625 655.931 914.613 655.403 865.8 655.081C792.605 654.598 777.054 654.727 777.072 655.817C777.133 659.579 781.325 675.495 784.056 682.332C794.226 707.801 810.837 723.048 838.794 732.574C869.46 743.024 897.766 743.807 946.55 735.558C961.196 733.081 971.198 730.588 982.512 726.595C987.243 724.925 991.549 723.828 992.082 724.158C992.682 724.528 993.05 741.006 993.05 767.475C993.05 803.89 992.828 810.51 991.545 812.342C989.643 815.058 972.662 821.759 957.755 825.677C945.003 829.028 921.474 833.107 906.194 834.616C892.815 835.936 851.245 835.934 837.906 834.611C788.724 829.736 752.343 814.288 722.736 785.711C699.66 763.436 685.678 741.08 675.524 710.223C666.952 684.173 663.618 662.101 663.653 631.638C663.693 597.673 668.38 571.314 679.571 542.12C690.464 513.702 704.713 491.762 725.994 470.638C746.615 450.168 770.892 435.302 795.16 428.284C817.318 421.876 851.755 419.148 878.55 421.678ZM839.515 508.646C823.469 511.559 811.784 517.686 800.377 529.169C793.479 536.113 791.417 539.016 787.167 547.767C782.371 557.642 778.972 568.093 777.532 577.388L776.874 581.638L838.712 581.584C901.539 581.529 913.32 581.075 918.595 578.503C921.515 577.079 921.547 576.973 921.298 569.6C920.76 553.632 914.611 540.19 902.068 527.563C892.815 518.247 884.1 513.098 872.55 510.122C865.238 508.238 846.396 507.396 839.515 508.646Z" fill="#757575"/>
</svg>
