<svg width="1526" height="1638" viewBox="0 0 1526 1638" fill="none" xmlns="http://www.w3.org/2000/svg">
<path fill-rule="evenodd" clip-rule="evenodd" d="M380.252 135.656C171.252 210.218 0.138573 271.304 0.000573294 271.402C-0.297427 271.614 115.68 1277.95 116.174 1279.43C116.49 1280.38 756.287 1635.36 761.166 1637.29C763.028 1638.03 814.861 1609.66 1085.32 1459.91C1262.38 1361.87 1407.78 1281.16 1408.43 1280.54C1409.46 1279.56 1526.36 272.13 1525.53 271.387C1524.32 270.295 764.075 -0.0679872 762.412 1.2825e-05C761.224 0.0480128 589.252 61.093 380.252 135.656ZM999.252 713.105C1129.05 1005.23 1235.79 1245.52 1236.46 1247.08L1237.66 1249.92L1148.96 1249.67L1060.25 1249.41L1012.7 1130.66C986.544 1065.34 964.695 1011.46 964.146 1010.91C963.486 1010.25 894.689 1009.99 761.255 1010.16L559.362 1010.41L511.448 1130.16L463.534 1249.91H375.036C291.179 1249.91 286.571 1249.82 287.169 1248.16C288.947 1243.23 762.326 181.976 762.752 181.971C763.027 181.967 869.452 420.978 999.252 713.105ZM693.492 694.162C655.728 785.05 624.54 860.199 624.184 861.162C623.571 862.823 630.588 862.912 762.752 862.912C894.916 862.912 901.933 862.823 901.32 861.162C897.857 851.774 763.208 528.912 762.756 528.912C762.424 528.912 731.255 603.274 693.492 694.162Z" fill="white"/>
</svg>
