<svg width="210" height="300" viewBox="0 0 210 300" fill="none" xmlns="http://www.w3.org/2000/svg">
<path fill-rule="evenodd" clip-rule="evenodd" d="M68.8926 1.01819C64.5176 2.77019 60.7116 6.09819 58.8026 9.83919C56.6486 14.0632 -0.652376 200.882 0.00562349 201.539C0.240623 201.774 4.21562 200.208 8.83962 198.06C25.2046 190.458 54.9476 180.981 62.5186 180.956C63.9186 180.951 65.1596 180.084 65.7526 178.698C66.2826 177.46 74.3666 150.176 83.7176 118.066C93.0696 85.9572 101.251 59.0472 101.897 58.2682C103.338 56.5332 106.721 56.9132 107.949 58.9482C108.447 59.7732 116.818 87.4042 126.551 120.351L144.248 180.254L155.248 182.697C169.25 185.806 184.281 190.819 198.19 197.019C204.209 199.702 209.296 201.734 209.495 201.535C209.859 201.17 156.112 23.3612 153.095 14.9482C150.86 8.71519 147.33 4.28619 142.73 1.93919C139.054 0.0631875 136.872 -0.0478125 105.038 0.0111875C86.3676 0.0461875 70.1936 0.497187 68.8926 1.01819ZM54.0586 209.698C52.4236 219.272 53.1246 232.94 55.6496 240.714C58.9216 250.792 67.7476 263.024 67.7476 257.482C67.7476 251.522 74.5876 245.958 81.9206 245.952C90.9696 245.945 94.7476 252.28 94.7476 267.46C94.7476 279.111 100.642 290.304 110.144 296.698C112.801 298.486 115.329 299.948 115.763 299.948C116.197 299.948 115.888 297.811 115.077 295.198C113.037 288.634 113.875 280.114 117.101 274.609C118.824 271.669 122.159 268.556 127.446 264.954C131.737 262.03 137.643 257.828 140.57 255.616C151.887 247.063 158.461 233.152 157.504 219.778C157.229 215.943 156.59 212.39 156.082 211.882C155.519 211.319 152.585 212.327 148.548 214.471C136.689 220.768 128.78 222.306 108.248 222.306C92.8486 222.306 89.0916 221.99 82.2476 220.121C71.6626 217.23 62.6246 212.711 58.8636 208.427C57.1836 206.514 55.5976 204.948 55.3396 204.948C55.0816 204.948 54.5046 207.085 54.0586 209.698Z" fill="white"/>
</svg>
