<svg width="25" height="13" viewBox="0 0 25 13" fill="none" xmlns="http://www.w3.org/2000/svg">
<path fill-rule="evenodd" clip-rule="evenodd" d="M14.8331 0.00755405C14.8242 0.0168267 14.2586 0.0271376 13.5763 0.0305388C12.5989 0.035372 12.324 0.0467924 12.2802 0.0844917C12.2497 0.110806 12.2096 0.122693 12.1912 0.110914C12.1699 0.0972732 12.1564 0.521346 12.154 1.27666C12.1502 2.45482 12.1507 2.46449 12.2264 2.54809L12.3027 2.63229H13.7466H15.1906V7.61151V12.5907L15.2915 12.6954L15.3924 12.8H20.109H24.8256L24.9103 12.7121C24.9699 12.6504 24.9953 12.5839 24.9961 12.4884C25.0084 10.9063 24.989 0.223224 24.9738 0.182052C24.9194 0.0349064 25.0031 0.0374479 19.8857 0.028748C17.18 0.0241654 14.9399 0.0137469 14.9078 0.00558412C14.8756 -0.0025787 14.842 -0.00168282 14.8331 0.00755405ZM0.220634 0.0444299C0.180277 0.0520915 0.114132 0.0949464 0.0736368 0.139663L0 0.220933L0.00894148 6.43509C0.0176067 12.4888 0.0195398 12.6513 0.0836139 12.7247C0.148344 12.7988 0.170611 12.8 1.51033 12.8H2.87129L2.9722 12.6954L3.07311 12.5907V6.42768C3.07311 2.08141 3.0621 0.243345 3.03582 0.192399C2.95414 0.0341546 2.8495 0.0225904 1.53402 0.0266361C0.852021 0.0287484 0.260991 0.0367325 0.220634 0.0444299ZM24.2616 4.11807L24.2528 7.34024L23.1696 7.34969L22.0864 7.35917L21.7701 7.00957C21.5962 6.81731 21.3817 6.57945 21.2936 6.48099L21.1333 6.30198L20.6131 6.29045L20.0928 6.27892V6.06669V5.85446H21.0349H21.9769L22.1027 6.01045C22.5084 6.51389 23.2762 6.39249 23.5423 5.78286C23.6333 5.57445 23.636 5.24565 23.5486 5.04591C23.4114 4.73268 23.0918 4.52263 22.7523 4.52263C22.4563 4.52263 22.1198 4.7248 22.0264 4.9587L21.9832 5.06682H21.0362H20.0891L20.0964 4.83411L20.1037 4.60139H20.2343C20.3061 4.60139 20.3752 4.58417 20.3877 4.56316C20.4002 4.54211 20.433 4.53387 20.4606 4.54483C20.4881 4.55582 20.5018 4.54991 20.491 4.53172C20.4656 4.48912 20.9848 3.97103 21.0371 3.98678C21.0589 3.99337 21.0646 3.98614 21.0497 3.97078C21.0349 3.95542 21.1433 3.81712 21.2906 3.66349L21.5584 3.38413H21.7722C21.9819 3.38413 21.9874 3.38667 22.0662 3.51839C22.1103 3.59225 22.1427 3.66471 22.1381 3.6795C22.1334 3.69425 22.1413 3.70381 22.1555 3.70066C22.1698 3.69754 22.2708 3.739 22.38 3.79281C22.5516 3.87734 22.6133 3.88908 22.8345 3.87906C22.9752 3.87268 23.0845 3.86126 23.0772 3.85367C23.0699 3.84612 23.1314 3.79356 23.2139 3.73692C23.5843 3.48252 23.7198 2.9737 23.5251 2.56849C23.3658 2.23704 23.0075 2.02617 22.6879 2.07586C22.5992 2.08965 22.4932 2.10368 22.4523 2.10705C22.4114 2.11041 22.3845 2.12416 22.3925 2.13762C22.4005 2.15108 22.3583 2.19136 22.2988 2.22712C22.2392 2.26289 22.138 2.37252 22.0738 2.47072C22.0095 2.56889 21.957 2.62932 21.957 2.60498C21.957 2.5806 21.9406 2.56069 21.9205 2.56069C21.9004 2.56069 21.8938 2.57719 21.9058 2.59739C21.9336 2.64411 21.8448 2.62653 21.8108 2.57859C21.7951 2.55643 21.7853 2.55983 21.7849 2.58754C21.7846 2.61898 21.7134 2.63229 21.546 2.63229C21.3227 2.63229 21.2981 2.64049 21.1577 2.76186C21.0751 2.83311 20.9999 2.90159 20.9904 2.91402C20.9809 2.92644 20.7757 3.13599 20.5345 3.37966L20.0958 3.82267L20.0948 2.37065L20.0938 0.918639L20.171 0.906215C20.2134 0.899377 21.1532 0.894258 22.2593 0.894831L24.2704 0.895905L24.2616 4.11807ZM8.38961 2.61543C8.36113 2.62127 8.19801 2.64547 8.02712 2.66921C7.19716 2.78445 6.28514 3.21271 5.63342 3.7932C5.53185 3.88364 5.43111 3.94661 5.40902 3.93351C5.38692 3.92041 5.38047 3.92295 5.39466 3.93917C5.42583 3.97486 5.03811 4.40763 4.98912 4.39177C4.97013 4.38565 4.96533 4.39177 4.97849 4.40538C4.99164 4.41902 4.91966 4.54522 4.81858 4.68585C4.47818 5.1594 4.175 5.79216 4.00999 6.37359C3.83157 7.00209 3.78234 7.9063 3.8864 8.64242C3.94805 9.07849 4.15809 9.77029 4.33616 10.124C4.40313 10.257 4.44687 10.3843 4.43337 10.4069C4.41918 10.4308 4.42395 10.4385 4.44466 10.4252C4.48222 10.4011 4.58213 10.6078 4.5629 10.6698C4.55683 10.6895 4.56356 10.6934 4.57792 10.6785C4.60961 10.6457 4.8029 10.939 4.77753 10.9816C4.76766 10.9981 4.77422 11.0073 4.79206 11.0019C4.80991 10.9965 4.94134 11.1302 5.08406 11.2991C5.46488 11.7496 5.92676 12.1217 6.46911 12.4152C6.59774 12.4848 6.68242 12.5495 6.65733 12.5589C6.63223 12.5684 6.65052 12.5765 6.69799 12.5769C6.74546 12.5774 6.9092 12.6262 7.06186 12.6853C7.79948 12.9711 8.78047 13.0742 9.53252 12.9449C10.1094 12.8458 10.8262 12.588 11.193 12.3479C11.2665 12.2998 11.344 12.2715 11.3652 12.2851C11.3904 12.3013 11.3939 12.2934 11.3755 12.2624C11.355 12.2281 11.3629 12.2213 11.4043 12.2377C11.4356 12.2502 11.4576 12.2468 11.4531 12.2303C11.4486 12.2137 11.5458 12.1236 11.6693 12.0301C11.9799 11.7948 12.546 11.1923 12.7792 10.8488C13.308 10.0701 13.5824 9.26215 13.6748 8.21301C13.7428 7.4403 13.6171 6.55768 13.3405 5.86531C13.2713 5.69195 13.2125 5.51542 13.21 5.47299C13.2076 5.4306 13.1939 5.40336 13.1796 5.41249C13.1539 5.42895 13.1392 5.36791 13.1525 5.29953C13.1564 5.27984 13.1485 5.27511 13.1351 5.289C13.1217 5.30293 13.0273 5.17648 12.9253 5.008C12.8233 4.83955 12.7008 4.65359 12.6531 4.59481C12.6054 4.53602 12.5754 4.47279 12.5865 4.45428C12.5975 4.43574 12.5931 4.42503 12.5768 4.43044C12.5364 4.4438 12.0358 3.9125 12.0464 3.86746C12.051 3.84777 12.0443 3.84254 12.0314 3.85582C12.0186 3.86914 11.8659 3.76886 11.692 3.63299C11.3809 3.38997 10.7756 3.03986 10.5211 2.9558C10.4441 2.93038 10.4006 2.8973 10.4142 2.87449C10.4271 2.85283 10.421 2.84635 10.4003 2.85964C10.3801 2.8726 10.2184 2.84245 10.0411 2.79258C9.5204 2.64622 8.67936 2.556 8.38961 2.61543ZM19.3324 3.85027L19.3301 5.06682H18.6412H17.9524V3.85199V2.63716L18.6435 2.63544L19.3347 2.63373L19.3324 3.85027ZM22.916 2.79544C23.0091 2.86307 23.0194 3.04366 22.9356 3.13964C22.8782 3.20544 22.6987 3.22757 22.6268 3.17773C22.5601 3.13159 22.5089 2.99769 22.532 2.93024C22.5958 2.74442 22.7643 2.68524 22.916 2.79544ZM22.6305 2.81091C22.6184 2.83117 22.6322 2.83719 22.663 2.82498C22.7227 2.80117 22.7337 2.7755 22.684 2.7755C22.6662 2.7755 22.6421 2.79143 22.6305 2.81091ZM22.9304 3.00821C22.9311 3.06729 22.9388 3.08712 22.9476 3.05228C22.9564 3.01745 22.9558 2.96912 22.9463 2.94488C22.9369 2.92064 22.9297 2.94914 22.9304 3.00821ZM22.4404 3.89943C22.4404 3.90716 22.4644 3.92309 22.4939 3.93484C22.5247 3.94704 22.5385 3.94103 22.5264 3.92077C22.5062 3.88672 22.4404 3.87043 22.4404 3.89943ZM22.9211 5.26856C22.9984 5.37045 23.0149 5.46064 22.9562 5.46064C22.9361 5.46064 22.9278 5.47439 22.9378 5.49118C22.9727 5.54982 22.8659 5.6486 22.7676 5.6486C22.6524 5.6486 22.4818 5.47489 22.5389 5.41571C22.5577 5.39623 22.5655 5.35978 22.5562 5.33469C22.5347 5.27669 22.6735 5.17422 22.7735 5.17422C22.8154 5.17422 22.8818 5.21669 22.9211 5.26856ZM22.9086 5.36372C22.9216 5.39902 22.9409 5.41889 22.9515 5.40787C22.9622 5.39688 22.9516 5.36798 22.928 5.34367C22.8938 5.30859 22.8899 5.31271 22.9086 5.36372ZM8.84724 5.37432C8.85839 5.38592 8.94256 5.39988 9.03421 5.40532C9.23693 5.41739 9.49875 5.49587 9.47414 5.53715C9.4643 5.55369 9.47645 5.55942 9.50117 5.54989C9.56863 5.52387 9.87218 5.7178 10.0959 5.92986C11.1284 6.90846 11.124 8.80704 10.087 9.79986C9.32027 10.5339 8.12606 10.4826 7.35455 9.6825C6.88794 9.1986 6.66344 8.59978 6.66147 7.83362C6.66023 7.3625 6.7407 7.00241 6.94217 6.57723C7.13419 6.17206 7.50531 5.77899 7.87439 5.58992C8.17819 5.43425 8.77706 5.30153 8.84724 5.37432ZM22.5819 5.48588C22.6071 5.52927 22.6351 5.55709 22.6441 5.54767C22.6532 5.53826 22.6326 5.50274 22.5984 5.46873C22.539 5.40969 22.5382 5.41044 22.5819 5.48588ZM19.3333 7.03592V8.14578H18.6429H17.9524V7.03592V5.92606H18.6429H19.3333V7.03592ZM20.9359 7.17623C20.9946 7.23974 21.0221 7.29806 21.0061 7.32495C20.99 7.35205 20.994 7.36007 21.0164 7.34568C21.0366 7.33275 21.205 7.49182 21.3907 7.69915C21.5763 7.90651 21.7656 8.08588 21.8114 8.0978C22.0046 8.1481 21.7752 8.16307 20.9593 8.15354C20.2099 8.14474 20.0928 8.136 20.0928 8.08878C20.0928 8.05871 20.1083 8.0441 20.1273 8.05627C20.1463 8.06844 20.1619 8.06132 20.1619 8.04048C20.1619 8.01965 20.1467 8.00257 20.1281 8.00257C20.1079 8.00257 20.0947 7.81669 20.0952 7.53715L20.096 7.07172H20.4677C20.8333 7.07172 20.8409 7.07344 20.9359 7.17623ZM20.1554 7.13198C20.1803 7.14232 20.2101 7.14103 20.2215 7.12915C20.233 7.11726 20.2126 7.10881 20.1762 7.11035C20.136 7.11207 20.1278 7.12055 20.1554 7.13198ZM20.2913 7.13122C20.3151 7.14118 20.3539 7.14118 20.3776 7.13122C20.4014 7.12131 20.3819 7.11318 20.3345 7.11318C20.287 7.11318 20.2676 7.12131 20.2913 7.13122ZM19.3333 10.4715V12.0095L18.6428 12.0199L17.9523 12.0303L17.9524 10.4818L17.9524 8.93342H18.6429H19.3333V10.4715ZM21.8189 10.4729V12.0124H20.9559H20.0928V11.7238C20.0928 11.5026 20.1029 11.4416 20.136 11.4622C20.1702 11.4835 20.1703 11.4779 20.1369 11.435C20.1054 11.3946 20.0952 11.071 20.0968 10.1571L20.0989 8.93342H20.9589H21.8189V10.4729ZM24.2597 10.4639L24.2528 11.9945L23.3984 12.004L22.5439 12.0136L22.542 10.7868C22.5408 10.112 22.5363 9.419 22.5319 9.24668L22.5238 8.93342H23.3952H24.2667L24.2597 10.4639ZM0.719108 12.8603C0.743999 12.8706 0.773792 12.8693 0.785254 12.8574C0.796715 12.8456 0.776347 12.8371 0.73996 12.8386C0.699741 12.8404 0.691559 12.8488 0.719108 12.8603ZM0.99529 12.8603C1.02018 12.8706 1.04997 12.8693 1.06144 12.8574C1.0729 12.8456 1.05253 12.8371 1.01614 12.8386C0.975923 12.8404 0.967741 12.8488 0.99529 12.8603ZM1.68574 12.8603C1.71064 12.8706 1.74043 12.8693 1.75189 12.8574C1.76335 12.8456 1.74298 12.8371 1.7066 12.8386C1.66638 12.8404 1.6582 12.8488 1.68574 12.8603ZM1.82384 12.8603C1.84873 12.8706 1.87852 12.8693 1.88998 12.8574C1.90144 12.8456 1.88107 12.8371 1.84469 12.8386C1.80447 12.8404 1.79629 12.8488 1.82384 12.8603ZM2.10002 12.8603C2.12491 12.8706 2.1547 12.8693 2.16616 12.8574C2.17762 12.8456 2.15726 12.8371 2.12087 12.8386C2.08065 12.8404 2.07247 12.8488 2.10002 12.8603Z" fill="white"/>
</svg>
