<svg width="20" height="20" viewBox="0 0 20 20" fill="none" xmlns="http://www.w3.org/2000/svg">
<path fill-rule="evenodd" clip-rule="evenodd" d="M9.47153 0.00931275C9.03481 0.0313582 8.32195 0.127518 7.88145 0.223794C6.04722 0.624699 4.34929 1.53672 3.02792 2.83078C2.55086 3.29799 2.19964 3.70884 1.82667 4.23602C0.928036 5.50619 0.322396 7.02257 0.106585 8.54273C0.0206619 9.14795 -0.00750356 9.57968 0.00164702 10.1509C0.00952669 10.6425 0.0367242 10.974 0.11118 11.4856C0.160629 11.8255 0.197622 12.0133 0.290144 12.3946C0.459098 13.0907 0.717944 13.794 1.05044 14.4603C1.38307 15.1269 1.74327 15.689 2.21686 16.2806C2.61805 16.7818 3.20412 17.368 3.7182 17.7822C4.66978 18.5489 5.72783 19.1215 6.91015 19.5099C7.21997 19.6116 7.31087 19.6375 7.62382 19.7133C8.14358 19.8391 8.62694 19.9181 9.16846 19.9656C10.1081 20.048 11.166 19.9809 12.0859 19.7807C12.4763 19.6957 12.7388 19.6248 13.0887 19.5099C14.421 19.0723 15.5517 18.4267 16.6278 17.4892C16.8367 17.3072 17.3445 16.7964 17.528 16.5837C18.3166 15.6695 18.8863 14.7285 19.3184 13.6264C19.5173 13.1192 19.6621 12.633 19.7888 12.0475C19.9216 11.4337 20.0004 10.6729 20.0004 10.0043C20.0004 8.7787 19.773 7.54823 19.3391 6.42617C18.8962 5.28067 18.3143 4.31876 17.4949 3.37761C17.3181 3.17457 16.8247 2.68081 16.6229 2.50501C16.216 2.15066 15.8548 1.87732 15.4204 1.59518C14.5283 1.01583 13.4316 0.541004 12.4228 0.29738C11.9826 0.191083 11.803 0.156113 11.417 0.101513C11.0828 0.0542444 10.7376 0.0200764 10.4752 0.00829602C10.2196 -0.00318131 9.70879 -0.00266317 9.47153 0.00931275ZM11.4317 4.28028V4.99883H10.7131H9.99456L9.99203 4.29005C9.99064 3.90022 9.99162 3.57575 9.99419 3.569C9.99791 3.55925 10.1473 3.55722 10.7153 3.55922L11.4317 3.56172V4.28028ZM7.13989 6.42617V7.14961L6.43219 7.15212C5.91752 7.15394 5.72087 7.15161 5.71119 7.14359C5.69274 7.12828 5.69127 5.72792 5.70968 5.70951C5.71873 5.70046 5.8872 5.69829 6.43068 5.70022L7.13989 5.70272V6.42617ZM9.28962 5.7133C9.29289 5.72181 9.29556 6.04727 9.29556 6.43656V7.14435L9.27356 7.14968C9.26147 7.1526 8.93701 7.15378 8.55256 7.15231L7.85356 7.14961L7.85103 6.43594C7.84964 6.04343 7.8506 5.71678 7.85317 5.71006C7.85684 5.70044 8.00942 5.69783 8.57076 5.69783C9.21184 5.69783 9.28428 5.69939 9.28962 5.7133ZM11.4317 6.42617V7.14961L10.7327 7.15231C10.3482 7.15378 10.0238 7.1526 10.0117 7.14968L9.98967 7.14435V6.42761C9.98967 6.03341 9.99263 5.7079 9.99625 5.70429C9.99987 5.70067 10.3243 5.69884 10.7172 5.70022L11.4317 5.70272V6.42617ZM15.0468 6.44214C15.1964 6.51797 15.4143 6.73029 15.5498 6.93215C15.6621 7.09954 15.6733 7.11936 15.768 7.32166C15.9296 7.66677 16.0571 8.13338 16.077 8.4523C16.0804 8.50741 16.0864 8.5525 16.0903 8.5525C16.0942 8.5525 16.1232 8.54095 16.1548 8.52683C16.4559 8.39224 16.8855 8.31263 17.3707 8.3015C17.9155 8.289 18.3534 8.37789 18.5522 8.5413L18.5849 8.56819L18.5585 8.63122C18.4267 8.94557 18.2158 9.26505 17.9738 9.51695C17.8066 9.69096 17.5307 9.90121 17.3121 10.0211C17.2147 10.0746 16.9778 10.178 16.8526 10.2218C16.6574 10.29 16.2998 10.3611 16.1517 10.3611H16.0839L16.047 10.4809C15.8307 11.1817 15.485 11.8645 15.0062 12.5363C14.7692 12.8689 14.5166 13.1663 14.2082 13.4758C13.907 13.7781 13.6927 13.9659 13.3793 14.202C13.0773 14.4295 12.7904 14.6125 12.4135 14.8179C12.3137 14.8723 12.2292 14.9168 12.2258 14.9168C12.2225 14.9168 12.1436 14.9525 12.0505 14.996C11.7404 15.1413 11.4345 15.2568 11.0692 15.3668C10.7458 15.4641 10.6415 15.4903 10.3318 15.5516C9.96009 15.6252 9.6514 15.6699 9.31022 15.6995C9.11559 15.7164 8.27387 15.7229 8.04618 15.7093C7.40046 15.6707 6.81237 15.5616 6.26492 15.3788C6.03316 15.3015 5.96297 15.274 5.70278 15.1587C5.18408 14.9288 4.63887 14.5403 4.25192 14.1248C3.82571 13.6672 3.51228 13.1722 3.27092 12.5754C3.17262 12.3324 3.14427 12.2508 3.07892 12.0231C2.96599 11.6295 2.9146 11.3593 2.867 10.9086C2.83743 10.6287 2.84398 10.5228 2.89926 10.3867C2.97953 10.1892 3.18344 10.0385 3.42305 9.99959C3.463 9.9931 5.1272 9.98974 8.31842 9.98969C13.0577 9.98961 13.2808 9.98831 13.4896 9.95944C13.7742 9.9201 13.9375 9.87296 14.1314 9.77411C14.2766 9.70012 14.3427 9.65255 14.4449 9.54832C14.5272 9.46449 14.5539 9.43 14.6002 9.34774L14.634 9.28756L14.5606 9.17447C14.2727 8.73108 14.1787 8.2436 14.283 7.73619C14.3076 7.61678 14.3871 7.3682 14.439 7.24844C14.5477 6.99785 14.7504 6.68526 14.9263 6.49704C14.9652 6.45537 14.999 6.42128 15.0014 6.42128C15.0037 6.42128 15.0242 6.43066 15.0468 6.44214ZM5.00139 8.56961L4.99889 9.29061H4.28033H3.56178L3.55928 8.56961L3.55676 7.84861H4.28033H5.0039L5.00139 8.56961ZM7.14239 8.56961L7.13989 9.29061L6.43219 9.29312C5.91752 9.29494 5.72087 9.29261 5.71119 9.28459C5.7002 9.27547 5.69789 9.1524 5.69789 8.57654C5.69789 8.1932 5.70056 7.87258 5.70383 7.86408C5.70916 7.85017 5.78202 7.84861 6.42733 7.84861H7.14491L7.14239 8.56961ZM9.29067 8.57206V9.29061H8.57211H7.85356L7.85106 8.56955L7.84854 7.84849L8.56961 7.851L9.29067 7.8535V8.57206ZM11.4317 8.57206V9.29061H10.7131H9.99456L9.99206 8.56955L9.98954 7.84849L10.7106 7.851L11.4317 7.8535V8.57206ZM13.5752 8.56961L13.5727 9.29061L12.8596 9.29312C12.2956 9.29511 12.1449 9.29305 12.1388 9.28335C12.1298 9.26917 12.1277 7.88737 12.1366 7.86408C12.1419 7.85017 12.2148 7.84861 12.8601 7.84861H13.5777L13.5752 8.56961Z" fill="white"/>
</svg>
