<svg xmlns="http://www.w3.org/2000/svg" xmlns:xlink="http://www.w3.org/1999/xlink" width="1080" zoomAndPan="magnify" viewBox="0 0 810 809.999993" height="1080" preserveAspectRatio="xMidYMid meet" version="1.0"><path fill="#ffffff" d="M 404.996094 81 C 397.351562 81 389.707031 81.269531 382.082031 81.8125 C 371.304688 82.578125 360.574219 83.878906 349.929688 85.714844 C 339.285156 87.550781 328.738281 89.917969 318.328125 92.808594 C 307.917969 95.699219 297.664062 99.105469 287.59375 103.019531 C 277.527344 106.933594 267.660156 111.351562 258.035156 116.25 C 248.40625 121.148438 239.027344 126.527344 229.9375 132.363281 C 220.851562 138.203125 212.058594 144.488281 203.59375 151.203125 C 195.132812 157.917969 187.015625 165.050781 179.265625 172.578125 C 171.515625 180.105469 164.148438 188.011719 157.191406 196.277344 C 150.230469 204.535156 143.691406 213.140625 137.589844 222.054688 C 131.492188 230.972656 125.839844 240.1875 120.660156 249.667969 C 115.480469 259.144531 110.78125 268.878906 106.574219 278.828125 C 102.367188 288.777344 98.664062 298.933594 95.46875 309.25 C 92.277344 319.570312 89.605469 330.042969 87.457031 340.632812 C 85.3125 351.21875 83.695312 361.90625 82.617188 372.65625 C 81.539062 383.402344 81 394.199219 81 405 C 81 412.644531 81.269531 420.292969 81.808594 427.917969 C 82.570312 438.695312 83.875 449.425781 85.710938 460.070312 C 87.546875 470.714844 89.914062 481.261719 92.804688 491.671875 C 95.695312 502.082031 99.105469 512.335938 103.019531 522.40625 C 106.933594 532.472656 111.347656 542.339844 116.246094 551.964844 C 121.144531 561.59375 126.523438 570.96875 132.363281 580.058594 C 138.199219 589.148438 144.484375 597.941406 151.199219 606.402344 C 157.914062 614.863281 165.050781 622.984375 172.574219 630.734375 C 180.101562 638.484375 188.007812 645.851562 196.273438 652.808594 C 204.535156 659.769531 213.136719 666.308594 222.054688 672.410156 C 230.96875 678.507812 240.183594 684.160156 249.667969 689.339844 C 259.144531 694.519531 268.875 699.21875 278.824219 703.425781 C 288.777344 707.632812 298.929688 711.335938 309.25 714.53125 C 319.570312 717.722656 330.042969 720.394531 340.628906 722.542969 C 351.214844 724.6875 361.902344 726.304688 372.652344 727.382812 C 383.398438 728.460938 394.195312 729 404.996094 729 C 412.644531 729 420.289062 728.730469 427.914062 728.1875 C 438.691406 727.421875 449.421875 726.121094 460.070312 724.285156 C 470.710938 722.449219 481.257812 720.082031 491.667969 717.195312 C 502.078125 714.304688 512.332031 710.894531 522.402344 706.980469 C 532.46875 703.066406 542.335938 698.648438 551.964844 693.75 C 561.589844 688.851562 570.96875 683.472656 580.058594 677.636719 C 589.148438 671.800781 597.941406 665.511719 606.402344 658.796875 C 614.863281 652.082031 622.980469 644.949219 630.730469 637.425781 C 638.480469 629.898438 645.847656 621.992188 652.808594 613.726562 C 659.765625 605.464844 666.308594 596.859375 672.40625 587.945312 C 678.503906 579.027344 684.15625 569.8125 689.335938 560.332031 C 694.515625 550.851562 699.214844 541.121094 703.421875 531.171875 C 707.628906 521.222656 711.335938 511.066406 714.527344 500.746094 C 717.71875 490.429688 720.390625 479.957031 722.539062 469.371094 C 724.683594 458.78125 726.300781 448.09375 727.378906 437.34375 C 728.457031 426.597656 728.996094 415.800781 728.996094 405 C 729 397.355469 728.726562 389.707031 728.1875 382.082031 C 727.421875 371.304688 726.121094 360.578125 724.285156 349.929688 C 722.449219 339.289062 720.082031 328.742188 717.191406 318.332031 C 714.300781 307.921875 710.890625 297.667969 706.976562 287.597656 C 703.0625 277.53125 698.648438 267.664062 693.75 258.035156 C 688.851562 248.410156 683.472656 239.03125 677.636719 229.941406 C 671.796875 220.851562 665.511719 212.058594 658.796875 203.597656 C 652.082031 195.136719 644.949219 187.019531 637.421875 179.269531 C 629.894531 171.519531 621.988281 164.148438 613.722656 157.191406 C 605.464844 150.234375 596.859375 143.691406 587.945312 137.59375 C 579.027344 131.496094 569.8125 125.84375 560.332031 120.664062 C 550.851562 115.484375 541.121094 110.785156 531.171875 106.578125 C 521.21875 102.371094 511.066406 98.664062 500.746094 95.46875 C 490.425781 92.277344 479.953125 89.605469 469.367188 87.457031 C 458.78125 85.3125 448.09375 83.699219 437.34375 82.621094 C 426.597656 81.542969 415.800781 81 404.996094 81 Z M 404.996094 81 " fill-opacity="1" fill-rule="nonzero"/><path fill="#dd2c00" d="M 404.996094 81 C 397.351562 81 389.707031 81.269531 382.082031 81.8125 C 375.585938 82.402344 369.113281 83.1875 362.664062 84.167969 L 362.667969 340.46875 L 87.5 340.46875 C 87.488281 340.523438 87.472656 340.578125 87.457031 340.632812 C 85.3125 351.222656 83.695312 361.90625 82.617188 372.65625 C 81.539062 383.402344 81 394.199219 81 405 C 81 412.648438 81.269531 420.292969 81.808594 427.921875 C 82.574219 438.695312 83.875 449.425781 85.710938 460.070312 C 86.617188 464.542969 87.613281 468.992188 88.707031 473.417969 L 362.667969 473.417969 L 362.667969 725.875 C 365.988281 726.429688 369.316406 726.933594 372.652344 727.382812 C 383.398438 728.460938 394.195312 729 404.996094 729 C 412.644531 729 420.289062 728.730469 427.914062 728.1875 C 434.199219 727.609375 440.464844 726.851562 446.703125 725.90625 L 446.703125 473.417969 L 721.503906 473.417969 C 721.859375 472.070312 722.203125 470.722656 722.539062 469.371094 C 724.683594 458.785156 726.300781 448.09375 727.378906 437.347656 C 728.457031 426.597656 729 415.804688 728.996094 405 C 729 397.355469 728.730469 389.707031 728.1875 382.082031 C 727.425781 371.308594 726.121094 360.578125 724.285156 349.933594 C 723.625 346.769531 722.917969 343.613281 722.164062 340.46875 L 446.703125 340.46875 L 446.703125 84.035156 C 443.589844 83.519531 440.46875 83.046875 437.34375 82.621094 C 426.597656 81.542969 415.800781 81 404.996094 81 Z M 614.792969 158.1875 L 475.660156 294.65625 L 524.785156 294.65625 L 641.109375 183.46875 C 639.890625 182.058594 638.664062 180.65625 637.421875 179.269531 C 630.21875 171.886719 622.667969 164.851562 614.792969 158.1875 Z M 170.027344 182.496094 C 165.617188 186.964844 161.335938 191.558594 157.191406 196.277344 C 153.160156 201.261719 149.277344 206.367188 145.550781 211.582031 L 232.472656 294.660156 L 287.382812 294.660156 Z M 333.703125 519.21875 L 282.4375 519.21875 L 169.472656 627.191406 C 170.496094 628.378906 171.53125 629.558594 172.574219 630.730469 C 180.085938 638.460938 187.976562 645.816406 196.222656 652.761719 L 333.703125 519.214844 Z M 522.351562 519.21875 L 637.929688 629.691406 C 643.066406 624.539062 648.027344 619.210938 652.808594 613.722656 C 656.183594 609.503906 659.457031 605.203125 662.617188 600.820312 L 577.242188 519.21875 Z M 522.351562 519.21875 " fill-opacity="1" fill-rule="nonzero"/><path fill="#202149" d="M 475.511719 89.027344 L 475.511719 266.128906 L 600.667969 147.265625 C 596.503906 143.9375 592.261719 140.710938 587.945312 137.59375 C 579.027344 131.496094 569.8125 125.84375 560.332031 120.664062 C 550.851562 115.484375 541.121094 110.785156 531.171875 106.578125 C 521.21875 102.371094 511.066406 98.664062 500.746094 95.46875 C 492.421875 92.984375 484.007812 90.835938 475.511719 89.027344 Z M 333.511719 89.402344 C 328.421875 90.414062 323.363281 91.550781 318.328125 92.808594 C 307.917969 95.699219 297.664062 99.105469 287.59375 103.019531 C 277.527344 106.933594 267.660156 111.351562 258.035156 116.25 C 248.40625 121.148438 239.027344 126.527344 229.9375 132.363281 C 222.648438 137.144531 215.554688 142.214844 208.675781 147.566406 L 333.511719 266.128906 Z M 672.617188 222.925781 L 597.53125 294.5625 L 709.289062 294.5625 C 708.546875 292.230469 707.777344 289.910156 706.976562 287.597656 C 703.0625 277.53125 698.648438 267.664062 693.75 258.035156 C 688.851562 248.410156 683.472656 239.03125 677.636719 229.941406 C 675.992188 227.582031 674.320312 225.242188 672.617188 222.925781 Z M 136.589844 223.691406 C 130.875 232.09375 125.5625 240.761719 120.660156 249.667969 C 115.480469 259.144531 110.78125 268.878906 106.574219 278.828125 C 104.523438 284.023438 102.609375 289.269531 100.832031 294.5625 L 210.871094 294.5625 Z M 101.746094 518.582031 C 102.164062 519.859375 102.585938 521.132812 103.019531 522.40625 C 106.933594 532.472656 111.347656 542.339844 116.246094 551.964844 C 121.144531 561.59375 126.523438 570.96875 132.363281 580.058594 C 134.222656 582.746094 136.125 585.40625 138.070312 588.039062 L 210.871094 518.582031 Z M 597.53125 518.582031 L 671.496094 589.140625 C 671.800781 588.742188 672.105469 588.34375 672.40625 587.945312 C 678.503906 579.027344 684.15625 569.8125 689.335938 560.332031 C 694.515625 550.851562 699.214844 541.121094 703.421875 531.171875 C 705.039062 527.007812 706.574219 522.808594 708.019531 518.582031 Z M 333.511719 545.285156 L 209.613281 662.953125 C 213.683594 666.203125 217.832031 669.355469 222.054688 672.410156 C 230.96875 678.507812 240.183594 684.160156 249.667969 689.339844 C 259.144531 694.519531 268.875 699.21875 278.824219 703.425781 C 288.777344 707.632812 298.929688 711.335938 309.253906 714.53125 C 317.253906 716.90625 325.347656 718.972656 333.511719 720.722656 Z M 475.511719 545.285156 L 475.511719 720.820312 C 480.925781 719.75 486.3125 718.539062 491.667969 717.195312 C 502.078125 714.304688 512.332031 710.894531 522.402344 706.980469 C 532.46875 703.066406 542.335938 698.648438 551.964844 693.75 C 561.589844 688.851562 570.96875 683.472656 580.058594 677.636719 C 586.855469 673.152344 593.476562 668.417969 599.917969 663.433594 Z M 475.511719 545.285156 " fill-opacity="1" fill-rule="evenodd"/></svg>