<svg width="50" height="50" viewBox="0 0 50 50" fill="none" xmlns="http://www.w3.org/2000/svg">
<mask id="mask0_475_6516" style="mask-type:luminance" maskUnits="userSpaceOnUse" x="5" y="5" width="40" height="40">
<path d="M5.06177 5H45V45H5.06177V5Z" fill="white"/>
</mask>
<g mask="url(#mask0_475_6516)">
<mask id="mask1_475_6516" style="mask-type:luminance" maskUnits="userSpaceOnUse" x="5" y="5" width="40" height="40">
<path d="M44.9696 25.0004C44.9696 36.0175 36.0395 44.9486 25.0234 44.9486C14.0068 44.9486 5.07642 36.0175 5.07642 25.0004C5.07642 13.9828 14.0068 5.05176 25.0234 5.05176C36.0395 5.05176 44.9696 13.9828 44.9696 25.0004Z" fill="white"/>
</mask>
<g mask="url(#mask1_475_6516)">
<path d="M55.9145 45.5984H-5.69263V4.36719H55.9145V45.5984Z" fill="#283284"/>
<path d="M55.9145 45.5979V45.5437H-5.63856V4.42101H55.8603V45.5979H55.9145H55.9688V4.36675C55.9688 4.35229 55.9632 4.33878 55.9531 4.32841C55.9425 4.31829 55.929 4.3125 55.9145 4.3125H-5.69257C-5.70704 4.3125 -5.72103 4.31829 -5.73115 4.32841C-5.74104 4.33878 -5.74683 4.35277 -5.74683 4.36675V45.5979C-5.74683 45.6124 -5.74128 45.6259 -5.73091 45.636C-5.72054 45.6467 -5.70704 45.6522 -5.69257 45.6522H55.9145C55.929 45.6522 55.9425 45.6467 55.9531 45.636C55.9632 45.6259 55.9688 45.6124 55.9688 45.5979H55.9145Z" fill="#231F20"/>
<path d="M1.68609 45.6331L-5.69263 45.5984V40.2449L52.1078 4.36719H55.9145V13.2163L1.68609 45.6331Z" fill="white"/>
<path d="M1.68614 45.6327V45.5784L-5.63856 45.5442V40.2748L52.1235 4.42101H55.8603V13.1855L1.65817 45.5861L1.68614 45.6327L1.71363 45.679L55.9425 13.2624C55.9587 13.2527 55.9688 13.2349 55.9688 13.2159V4.36675C55.9688 4.35229 55.9632 4.33878 55.9531 4.32841C55.9425 4.31829 55.929 4.3125 55.9145 4.3125H52.1079C52.0977 4.3125 52.0874 4.31539 52.0789 4.32094L-5.72151 40.1986C-5.73718 40.2085 -5.74683 40.2259 -5.74683 40.2445V45.5979C-5.74683 45.6276 -5.72271 45.6522 -5.69305 45.6522L1.68566 45.6864C1.69555 45.6864 1.70519 45.684 1.71363 45.679L1.68614 45.6327Z" fill="#231F20"/>
</g>
</g>
<mask id="mask2_475_6516" style="mask-type:luminance" maskUnits="userSpaceOnUse" x="5" y="28" width="17" height="17">
<path d="M5.06177 28.5801H21.3581V44.9998H5.06177V28.5801Z" fill="white"/>
</mask>
<g mask="url(#mask2_475_6516)">
<mask id="mask3_475_6516" style="mask-type:luminance" maskUnits="userSpaceOnUse" x="5" y="5" width="40" height="40">
<path d="M44.9696 25.0004C44.9696 36.0175 36.0395 44.9486 25.0234 44.9486C14.0068 44.9486 5.07642 36.0175 5.07642 25.0004C5.07642 13.9828 14.0068 5.05176 25.0234 5.05176C36.0395 5.05176 44.9696 13.9828 44.9696 25.0004Z" fill="white"/>
</mask>
<g mask="url(#mask3_475_6516)">
<path d="M21.3338 28.5898L-5.69263 45.5987H-0.846706L21.3338 32.1211V28.5898Z" fill="#C21E3A"/>
</g>
</g>
<mask id="mask4_475_6516" style="mask-type:luminance" maskUnits="userSpaceOnUse" x="5" y="28" width="17" height="17">
<path d="M5.06177 28.5186H21.4198V45H5.06177V28.5186Z" fill="white"/>
</mask>
<g mask="url(#mask4_475_6516)">
<mask id="mask5_475_6516" style="mask-type:luminance" maskUnits="userSpaceOnUse" x="5" y="5" width="40" height="40">
<path d="M44.9696 25.0004C44.9696 36.0175 36.0395 44.9486 25.0234 44.9486C14.0068 44.9486 5.07642 36.0175 5.07642 25.0004C5.07642 13.9828 14.0068 5.05176 25.0234 5.05176C36.0395 5.05176 44.9696 13.9828 44.9696 25.0004Z" fill="white"/>
</mask>
<g mask="url(#mask5_475_6516)">
<path d="M21.3338 28.5893L21.3049 28.5437L-5.72152 45.5523C-5.74226 45.5651 -5.75166 45.5897 -5.74491 45.6128C-5.73792 45.6362 -5.71694 45.6524 -5.69258 45.6524H-0.846663C-0.836536 45.6524 -0.826891 45.6497 -0.818451 45.6442L21.3623 32.1669C21.3782 32.1572 21.3881 32.1399 21.3881 32.1206V28.5893C21.3881 28.5695 21.3775 28.5512 21.3601 28.542C21.3428 28.5321 21.3215 28.5331 21.3049 28.5437L21.3338 28.5893H21.2796V32.0902L-0.862096 45.5439H-5.50499L21.3625 28.6351L21.3338 28.5893Z" fill="#231F20"/>
</g>
</g>
<mask id="mask6_475_6516" style="mask-type:luminance" maskUnits="userSpaceOnUse" x="28" y="5" width="17" height="20">
<path d="M28.5803 5H45.0001V24.2593H28.5803V5Z" fill="white"/>
</mask>
<g mask="url(#mask6_475_6516)">
<mask id="mask7_475_6516" style="mask-type:luminance" maskUnits="userSpaceOnUse" x="5" y="5" width="40" height="40">
<path d="M44.9696 25.0004C44.9696 36.0175 36.0395 44.9486 25.0234 44.9486C14.0068 44.9486 5.07642 36.0175 5.07642 25.0004C5.07642 13.9828 14.0068 5.05176 25.0234 5.05176C36.0395 5.05176 44.9696 13.9828 44.9696 25.0004Z" fill="white"/>
</mask>
<g mask="url(#mask7_475_6516)">
<path d="M28.6245 24.2097L55.9145 7.5298V4.36719H54.9478L28.6245 20.5234V24.2097Z" fill="#C21E3A"/>
</g>
</g>
<mask id="mask8_475_6516" style="mask-type:luminance" maskUnits="userSpaceOnUse" x="28" y="5" width="17" height="20">
<path d="M28.5369 5H45V24.2841H28.5369V5Z" fill="white"/>
</mask>
<g mask="url(#mask8_475_6516)">
<mask id="mask9_475_6516" style="mask-type:luminance" maskUnits="userSpaceOnUse" x="5" y="5" width="40" height="40">
<path d="M44.9696 25.0004C44.9696 36.0175 36.0395 44.9486 25.0234 44.9486C14.0068 44.9486 5.07642 36.0175 5.07642 25.0004C5.07642 13.9828 14.0068 5.05176 25.0234 5.05176C36.0395 5.05176 44.9696 13.9828 44.9696 25.0004Z" fill="white"/>
</mask>
<g mask="url(#mask9_475_6516)">
<path d="M28.6246 24.2093L28.6525 24.2556L55.943 7.57567C55.9592 7.56578 55.9688 7.54794 55.9688 7.52937V4.36675C55.9688 4.35229 55.9633 4.33878 55.9531 4.32841C55.9425 4.31829 55.929 4.3125 55.9145 4.3125H54.9479C54.9377 4.3125 54.9279 4.31539 54.9194 4.32046L28.5961 20.4767C28.5797 20.487 28.5703 20.5044 28.5703 20.523V24.2093C28.5703 24.2288 28.5809 24.2467 28.5978 24.2563C28.6149 24.2662 28.6359 24.2657 28.6525 24.2556L28.6246 24.2093H28.6783V20.5533L54.9631 4.42101H55.8603V7.49875L28.5961 24.1628L28.6246 24.2093Z" fill="#231F20"/>
</g>
</g>
<mask id="mask10_475_6516" style="mask-type:luminance" maskUnits="userSpaceOnUse" x="5" y="5" width="40" height="40">
<path d="M5.06177 5H45V45H5.06177V5Z" fill="white"/>
</mask>
<g mask="url(#mask10_475_6516)">
<mask id="mask11_475_6516" style="mask-type:luminance" maskUnits="userSpaceOnUse" x="5" y="5" width="40" height="40">
<path d="M44.9696 25.0004C44.9696 36.0175 36.0395 44.9486 25.0234 44.9486C14.0068 44.9486 5.07642 36.0175 5.07642 25.0004C5.07642 13.9828 14.0068 5.05176 25.0234 5.05176C36.0395 5.05176 44.9696 13.9828 44.9696 25.0004Z" fill="white"/>
</mask>
<g mask="url(#mask11_475_6516)">
<path d="M48.5353 45.6331L55.9145 45.5984V40.2449L-1.88693 4.36719H-5.69263V13.2163L48.5353 45.6331Z" fill="white"/>
<path d="M48.5353 45.6327V45.6864L55.9145 45.6522C55.9447 45.6522 55.9688 45.6276 55.9688 45.5979V40.2445C55.9688 40.2259 55.9591 40.2085 55.943 40.1986L-1.85794 4.32094C-1.86638 4.31539 -1.8765 4.3125 -1.88687 4.3125H-5.69257C-5.70704 4.3125 -5.72103 4.31829 -5.73115 4.32841C-5.74104 4.33878 -5.74683 4.35277 -5.74683 4.36675V13.2159C-5.74683 13.2349 -5.7367 13.2527 -5.72054 13.2624L48.5074 45.679C48.5163 45.684 48.5257 45.6864 48.5353 45.6864V45.6327L48.5633 45.5861L-5.63856 13.1855V4.42101H-1.90206L55.8603 40.2748V45.5442L48.5349 45.5784L48.5353 45.6327Z" fill="#231F20"/>
</g>
</g>
<mask id="mask12_475_6516" style="mask-type:luminance" maskUnits="userSpaceOnUse" x="5" y="6" width="17" height="22">
<path d="M5.06177 6.82227H21.2708V27.5309H5.06177V6.82227Z" fill="white"/>
</mask>
<g mask="url(#mask12_475_6516)">
<mask id="mask13_475_6516" style="mask-type:luminance" maskUnits="userSpaceOnUse" x="5" y="5" width="40" height="40">
<path d="M44.9696 25.0004C44.9696 36.0175 36.0395 44.9486 25.0234 44.9486C14.0068 44.9486 5.07642 36.0175 5.07642 25.0004C5.07642 13.9828 14.0068 5.05176 25.0234 5.05176C36.0395 5.05176 44.9696 13.9828 44.9696 25.0004Z" fill="white"/>
</mask>
<g mask="url(#mask13_475_6516)">
<path d="M21.2458 23.7808L-5.69263 6.82715V11.1084L21.2458 27.4772V23.7808Z" fill="#C21E3A"/>
</g>
</g>
<mask id="mask14_475_6516" style="mask-type:luminance" maskUnits="userSpaceOnUse" x="5" y="6" width="17" height="22">
<path d="M5.06177 6.72852H21.3581V27.538H5.06177V6.72852Z" fill="white"/>
</mask>
<g mask="url(#mask14_475_6516)">
<mask id="mask15_475_6516" style="mask-type:luminance" maskUnits="userSpaceOnUse" x="5" y="5" width="40" height="40">
<path d="M44.9696 25.0004C44.9696 36.0175 36.0395 44.9486 25.0234 44.9486C14.0068 44.9486 5.07642 36.0175 5.07642 25.0004C5.07642 13.9828 14.0068 5.05176 25.0234 5.05176C36.0395 5.05176 44.9696 13.9828 44.9696 25.0004Z" fill="white"/>
</mask>
<g mask="url(#mask15_475_6516)">
<path d="M21.2458 23.7803L21.2745 23.7343L-5.66388 6.78093C-5.68052 6.77032 -5.70149 6.76959 -5.71886 6.77924C-5.73622 6.78864 -5.74683 6.80673 -5.74683 6.82674V11.1079C-5.74683 11.1265 -5.73718 11.1444 -5.72103 11.1542L21.2179 27.5231C21.2343 27.5332 21.2555 27.5337 21.2724 27.5238C21.2892 27.5142 21.2999 27.4959 21.2999 27.4768V23.7803C21.2999 23.7613 21.2907 23.7439 21.2745 23.7343L21.2458 23.7803H21.1916V27.3804L-5.63856 11.0776V6.92512L21.2169 23.8262L21.2458 23.7803Z" fill="#231F20"/>
</g>
</g>
<mask id="mask16_475_6516" style="mask-type:luminance" maskUnits="userSpaceOnUse" x="30" y="26" width="15" height="19">
<path d="M30.1235 26.543H45.0001V44.9998H30.1235V26.543Z" fill="white"/>
</mask>
<g mask="url(#mask16_475_6516)">
<mask id="mask17_475_6516" style="mask-type:luminance" maskUnits="userSpaceOnUse" x="5" y="5" width="40" height="40">
<path d="M44.9696 25.0004C44.9696 36.0175 36.0395 44.9486 25.0234 44.9486C14.0068 44.9486 5.07642 36.0175 5.07642 25.0004C5.07642 13.9828 14.0068 5.05176 25.0234 5.05176C36.0395 5.05176 44.9696 13.9828 44.9696 25.0004Z" fill="white"/>
</mask>
<g mask="url(#mask17_475_6516)">
<path d="M30.1475 26.5547V30.0407L55.9145 45.5984V42.3714L30.1475 26.5547Z" fill="#C21E3A"/>
</g>
</g>
<mask id="mask18_475_6516" style="mask-type:luminance" maskUnits="userSpaceOnUse" x="30" y="26" width="15" height="19">
<path d="M30.0618 26.4814H45V45H30.0618V26.4814Z" fill="white"/>
</mask>
<g mask="url(#mask18_475_6516)">
<mask id="mask19_475_6516" style="mask-type:luminance" maskUnits="userSpaceOnUse" x="5" y="5" width="40" height="40">
<path d="M44.9696 25.0004C44.9696 36.0175 36.0395 44.9486 25.0234 44.9486C14.0068 44.9486 5.07642 36.0175 5.07642 25.0004C5.07642 13.9828 14.0068 5.05176 25.0234 5.05176C36.0395 5.05176 44.9696 13.9828 44.9696 25.0004Z" fill="white"/>
</mask>
<g mask="url(#mask19_475_6516)">
<path d="M30.1475 26.5544H30.0933V30.0404C30.0933 30.0594 30.1031 30.0768 30.1191 30.0872L55.8866 45.6442C55.9032 45.6545 55.9244 45.6548 55.9413 45.6451C55.9582 45.6357 55.9688 45.6176 55.9688 45.5981V42.3711C55.9688 42.3523 55.9591 42.3345 55.943 42.3248L30.1755 26.5079C30.1588 26.4977 30.1379 26.4973 30.1208 26.5072C30.1039 26.5163 30.0933 26.5346 30.0933 26.5544H30.1475L30.1191 26.6002L55.8603 42.401V45.5019L30.2013 30.01V26.5544H30.1475Z" fill="#231F20"/>
</g>
</g>
<mask id="mask20_475_6516" style="mask-type:luminance" maskUnits="userSpaceOnUse" x="5" y="5" width="40" height="40">
<path d="M5.06177 5H45V45H5.06177V5Z" fill="white"/>
</mask>
<g mask="url(#mask20_475_6516)">
<mask id="mask21_475_6516" style="mask-type:luminance" maskUnits="userSpaceOnUse" x="5" y="5" width="40" height="40">
<path d="M44.9696 25.0004C44.9696 36.0175 36.0395 44.9486 25.0234 44.9486C14.0068 44.9486 5.07642 36.0175 5.07642 25.0004C5.07642 13.9828 14.0068 5.05176 25.0234 5.05176C36.0395 5.05176 44.9696 13.9828 44.9696 25.0004Z" fill="white"/>
</mask>
<g mask="url(#mask21_475_6516)">
<path d="M55.9145 19.7361H30.7324V4.36719H19.3132V19.7361H-5.86816V30.2297H19.3132V45.5984H30.7324V30.2297H55.9145V19.7361Z" fill="white"/>
<path d="M55.9145 19.7357V19.6814H30.7867V4.36675C30.7867 4.35229 30.7812 4.33878 30.7711 4.32841C30.7609 4.31829 30.7474 4.3125 30.7325 4.3125H19.3132C19.2992 4.3125 19.2852 4.31829 19.2749 4.32841C19.2648 4.33878 19.259 4.35277 19.259 4.36675V19.6814H-5.86811C-5.88258 19.6814 -5.89656 19.6875 -5.90669 19.6971C-5.91682 19.7075 -5.92236 19.7215 -5.92236 19.7357V30.2293C-5.92236 30.244 -5.91682 30.2577 -5.90669 30.2678C-5.89656 30.278 -5.88282 30.2835 -5.86811 30.2835H19.259V45.5979C19.259 45.6124 19.2648 45.6259 19.2749 45.636C19.2852 45.6467 19.2988 45.6522 19.3132 45.6522H30.7325C30.7474 45.6522 30.7609 45.6467 30.7711 45.636C30.7812 45.6259 30.7867 45.6124 30.7867 45.5979V30.2835H55.9145C55.929 30.2835 55.9425 30.278 55.9531 30.2678C55.9632 30.2577 55.9688 30.244 55.9688 30.2293V19.7357C55.9688 19.7215 55.9632 19.7077 55.9531 19.6976C55.9425 19.687 55.929 19.6814 55.9145 19.6814V19.7357H55.8603V30.175H30.7325C30.7185 30.175 30.7045 30.181 30.6944 30.1912C30.6843 30.2013 30.6782 30.2153 30.6782 30.2293V45.5437H19.3672V30.2293C19.3672 30.2148 19.3619 30.2013 19.3516 30.1912C19.3414 30.181 19.3279 30.175 19.3132 30.175H-5.81434V19.7899H19.3132C19.3279 19.7899 19.3414 19.7844 19.3516 19.7743C19.3619 19.7636 19.3672 19.7501 19.3672 19.7357V4.42101H30.6782V19.7357C30.6782 19.7501 30.6843 19.7636 30.6944 19.7743C30.7045 19.7844 30.7183 19.7899 30.7325 19.7899H55.9145V19.7357Z" fill="#231F20"/>
<path d="M55.9145 21.9084H28.0972V4.36719H21.9489V21.9084H-5.86816V28.0576H21.5969V45.5984H28.0972V28.4092H55.9145V21.9084Z" fill="#C21E3A"/>
<path d="M55.9145 21.908V21.8537H28.1515V4.36675C28.1515 4.35229 28.1459 4.33878 28.1358 4.32841C28.1254 4.31829 28.1119 4.3125 28.0972 4.3125H21.949C21.9345 4.3125 21.9205 4.31829 21.9104 4.32841C21.9003 4.33878 21.8947 4.35277 21.8947 4.36675V21.8533L-5.86811 21.8537C-5.88258 21.8537 -5.89656 21.8593 -5.90669 21.8694C-5.91682 21.8795 -5.92236 21.8935 -5.92236 21.908V28.0572C-5.92236 28.0719 -5.91682 28.0854 -5.90669 28.0955C-5.89656 28.1059 -5.88282 28.1112 -5.86811 28.1112H21.5427V45.5979C21.5427 45.6124 21.5482 45.6259 21.5583 45.636C21.569 45.6467 21.5825 45.6522 21.5969 45.6522H28.0972C28.1119 45.6522 28.1254 45.6467 28.1358 45.636C28.1459 45.6259 28.1515 45.6124 28.1515 45.5979V28.463H55.9145C55.929 28.463 55.9425 28.4575 55.9531 28.4473C55.9632 28.4372 55.9688 28.4235 55.9688 28.4088V21.908C55.9688 21.893 55.9632 21.8795 55.9531 21.8694C55.9425 21.8593 55.929 21.8537 55.9145 21.8537V21.908H55.8603V28.3545H28.0972C28.0832 28.3545 28.0692 28.3605 28.0591 28.3707C28.0488 28.3808 28.043 28.3948 28.043 28.4088V45.5437H21.6512V28.0572C21.6512 28.0427 21.6456 28.0292 21.635 28.0189C21.6249 28.0087 21.6114 28.0029 21.5969 28.0029H-5.81434V21.9618H21.949C21.9634 21.9618 21.9769 21.9562 21.9871 21.9461C21.9972 21.936 22.0027 21.9225 22.0027 21.908V4.42101H28.043V21.908C28.043 21.9225 28.0488 21.936 28.0591 21.9461C28.0692 21.9562 28.0828 21.9618 28.0972 21.9618H55.9145V21.908Z" fill="#231F20"/>
</g>
</g>
<mask id="mask22_475_6516" style="mask-type:luminance" maskUnits="userSpaceOnUse" x="5" y="5" width="41" height="40">
<path d="M5 5H45.0463V45H5V5Z" fill="white"/>
</mask>
<g mask="url(#mask22_475_6516)">
<path d="M44.9697 25H44.9154C44.9154 30.4935 42.6893 35.4668 39.0893 39.067C35.4893 42.6673 30.5165 44.8939 25.0234 44.8939C19.5301 44.8939 14.5571 42.6673 10.9571 39.067C7.35705 35.4668 5.13073 30.4935 5.13073 25C5.13073 19.5061 7.35705 14.5327 10.9571 10.9324C14.5571 7.3319 19.5301 5.10558 25.0234 5.1051C30.5165 5.10558 35.4893 7.3319 39.0893 10.9324C42.6893 14.5327 44.9154 19.5061 44.9154 25H45.0239C45.0239 13.9528 36.0697 4.99707 25.0234 4.99707C13.9772 4.99707 5.02246 13.9528 5.02246 25C5.02246 36.0472 13.9772 45.0024 25.0234 45.0024C36.0697 45.0024 45.0239 36.0472 45.0239 25H44.9697Z" fill="#231F20"/>
</g>
</svg>
