<svg xmlns="http://www.w3.org/2000/svg" xmlns:xlink="http://www.w3.org/1999/xlink" width="1080" zoomAndPan="magnify" viewBox="0 0 810 809.999993" height="1080" preserveAspectRatio="xMidYMid meet" version="1.0"><defs><clipPath id="d69f0a2a27"><path d="M 106 81 L 704 81 L 704 279 L 106 279 Z M 106 81 " clip-rule="nonzero"/></clipPath><clipPath id="5d148686db"><path d="M 81 278.179688 L 729 278.179688 L 729 548.835938 L 81 548.835938 Z M 81 278.179688 " clip-rule="nonzero"/></clipPath></defs><g clip-path="url(#d69f0a2a27)"><path fill="#dd2c00" d="M 678.988281 231.832031 C 666.28125 211.820312 651.28125 193.0625 634.113281 175.894531 C 572.914062 114.699219 491.546875 80.996094 405 80.996094 C 318.457031 80.996094 237.09375 114.699219 175.898438 175.894531 C 158.726562 193.0625 143.726562 211.820312 131.023438 231.832031 C 121.523438 246.796875 113.351562 262.480469 106.480469 278.710938 L 703.523438 278.710938 C 696.652344 262.480469 688.484375 246.796875 678.988281 231.832031 " fill-opacity="1" fill-rule="nonzero"/></g><g clip-path="url(#5d148686db)"><path fill="#ffc106" d="M 729.003906 405 C 729.003906 360.890625 720.207031 318.144531 703.523438 278.710938 L 106.480469 278.710938 C 89.792969 318.144531 81 360.894531 81 405 C 81 455.53125 92.53125 504.273438 114.277344 548.285156 L 695.722656 548.285156 C 717.46875 504.273438 729.003906 455.53125 729.003906 405 " fill-opacity="1" fill-rule="nonzero"/></g><path fill="#dd2c00" d="M 106.480469 531.257812 C 110.472656 539.328125 122.550781 564.28125 127.21875 572.007812 C 140.703125 594.335938 156.980469 615.1875 175.898438 634.101562 C 237.089844 695.296875 318.453125 729 405 729 C 491.542969 729 572.90625 695.296875 634.109375 634.101562 C 653.023438 615.183594 669.304688 594.335938 682.785156 572.007812 C 687.453125 564.28125 699.539062 539.328125 703.523438 531.257812 L 106.480469 531.257812 " fill-opacity="1" fill-rule="nonzero"/></svg>