<svg width="50" height="50" viewBox="0 0 50 50" fill="none" xmlns="http://www.w3.org/2000/svg">
<mask id="mask0_475_6380" style="mask-type:luminance" maskUnits="userSpaceOnUse" x="6" y="5" width="38" height="13">
<path d="M6.54321 5H43.4568V17.2222H6.54321V5Z" fill="white"/>
</mask>
<g mask="url(#mask0_475_6380)">
<path d="M41.9127 14.3109C41.1284 13.0756 40.2024 11.9177 39.1427 10.8579C35.365 7.08044 30.3423 5 24.9999 5C19.6577 5 14.6353 7.08044 10.8578 10.8579C9.79782 11.9177 8.8719 13.0756 8.08775 14.3109C7.50133 15.2346 6.9969 16.2027 6.57275 17.2046H43.4273C43.0031 16.2027 42.4989 15.2346 41.9127 14.3109Z" fill="#EF363C"/>
</g>
<mask id="mask1_475_6380" style="mask-type:luminance" maskUnits="userSpaceOnUse" x="5" y="17" width="40" height="17">
<path d="M5 17.1719H45V33.8791H5V17.1719Z" fill="white"/>
</mask>
<g mask="url(#mask1_475_6380)">
<path d="M45.0002 25.0007C45.0002 22.2779 44.4572 19.6393 43.4274 17.2051H6.57287C5.54278 19.6393 5 22.2781 5 25.0007C5 28.1199 5.71181 31.1287 7.05416 33.8455H42.9458C44.2882 31.1287 45.0002 28.1199 45.0002 25.0007Z" fill="#F6ED20"/>
</g>
<path d="M6.57275 32.7939C6.81919 33.2921 7.56475 34.8324 7.85289 35.3094C8.68526 36.6877 9.69004 37.9748 10.8578 39.1423C14.6351 42.9198 19.6575 45.0003 24.9999 45.0003C30.342 45.0003 35.3645 42.9198 39.1424 39.1423C40.31 37.9745 41.315 36.6877 42.1471 35.3094C42.4353 34.8324 43.1813 33.2921 43.4273 32.7939H6.57275Z" fill="#EF363C"/>
</svg>
