<svg width="14" height="20" viewBox="0 0 14 20" fill="none" xmlns="http://www.w3.org/2000/svg">
<path fill-rule="evenodd" clip-rule="evenodd" d="M2.53339 0.0231805C2.44159 0.0400712 2.14117 0.161444 1.86577 0.292898C1.19335 0.613755 0.640964 1.16748 0.296407 1.86607C0.0565988 2.35236 0.0375717 2.43501 0.00966531 3.11184C-0.01517 3.71504 0.00325619 3.91399 0.119355 4.29627C0.292334 4.86574 0.671541 5.46233 1.10055 5.84C1.44945 6.1471 2.28677 6.58606 2.52371 6.58606C2.60249 6.58606 2.66692 6.6161 2.66692 6.65282C2.66692 6.68954 2.60249 6.71958 2.52371 6.71958C2.44493 6.71958 2.15205 6.82947 1.87278 6.9638C1.18334 7.29533 0.638494 7.84358 0.290732 8.55553L0.0298273 9.08962V9.99091V10.8922L0.290732 11.4263C0.638494 12.1382 1.18334 12.6865 1.87278 13.018C2.15205 13.1523 2.44493 13.2622 2.52371 13.2622C2.60249 13.2622 2.66692 13.2923 2.66692 13.329C2.66692 13.3657 2.60249 13.3958 2.52371 13.3958C2.28677 13.3958 1.44945 13.8347 1.10055 14.1418C0.671541 14.5195 0.292334 15.1161 0.119355 15.6855C0.00325619 16.0678 -0.01517 16.2668 0.00966531 16.87C0.0375717 17.5468 0.0565988 17.6294 0.296407 18.1157C0.644703 18.8219 1.18968 19.3644 1.89916 19.7109L2.43325 19.9718H3.338H4.24276L4.77338 19.7101C5.76927 19.2188 6.50852 18.2414 6.67068 17.2012C6.7084 16.9596 6.73991 15.465 6.74178 13.8297C6.74479 11.2873 6.75734 10.926 6.83498 11.1436C7.23061 12.2525 8.33979 13.1547 9.52668 13.3333C10.9605 13.5489 12.397 12.7724 13.0545 11.4263L13.3154 10.8922V9.99091V9.08962L13.0545 8.55553C12.7067 7.84358 12.1619 7.29533 11.4725 6.9638C11.1932 6.82947 10.9003 6.71958 10.8215 6.71958C10.7427 6.71958 10.6783 6.68954 10.6783 6.65282C10.6783 6.6161 10.7427 6.58606 10.8215 6.58606C11.0585 6.58606 11.8958 6.1471 12.2447 5.84C12.6737 5.46233 13.0529 4.86574 13.2259 4.29627C13.342 3.91399 13.3604 3.71504 13.3356 3.11184C13.3077 2.43501 13.2886 2.35236 13.0488 1.86607C12.7005 1.15987 12.1556 0.617427 11.4461 0.270933L10.912 0.0100284L6.80614 0.00121587C4.54793 -0.00359098 2.62519 0.00628976 2.53339 0.0231805ZM8.86534 6.81265C7.97728 7.12983 7.15003 7.95514 6.83498 8.8382C6.7536 9.06612 6.74499 8.979 6.74232 7.9046L6.73938 6.71958L7.9244 6.72252C8.98171 6.72512 9.08312 6.73487 8.86534 6.81265Z" fill="#808080"/>
<path fill-rule="evenodd" clip-rule="evenodd" d="M2.53339 0.0231805C2.44159 0.0400712 2.14117 0.161444 1.86577 0.292898C1.19335 0.613755 0.640964 1.16748 0.296407 1.86607C0.0565988 2.35236 0.0375717 2.43501 0.00966531 3.11184C-0.01517 3.71504 0.00325619 3.91399 0.119355 4.29627C0.292334 4.86574 0.671541 5.46233 1.10055 5.84C1.44945 6.1471 2.28677 6.58606 2.52371 6.58606C2.60249 6.58606 2.66692 6.6161 2.66692 6.65282C2.66692 6.68954 2.60249 6.71958 2.52371 6.71958C2.44493 6.71958 2.15205 6.82947 1.87278 6.9638C1.18334 7.29533 0.638494 7.84358 0.290732 8.55553L0.0298273 9.08962V9.99091V10.8922L0.290732 11.4263C0.638494 12.1382 1.18334 12.6865 1.87278 13.018C2.15205 13.1523 2.46176 13.2622 2.56103 13.2622C2.66438 13.2622 2.72393 13.2908 2.7003 13.329C2.6776 13.3657 2.59635 13.3958 2.51977 13.3958C2.28624 13.3958 1.44684 13.837 1.10055 14.1418C0.671541 14.5195 0.292334 15.1161 0.119355 15.6855C0.00325619 16.0678 -0.01517 16.2668 0.00966531 16.87C0.0375717 17.5468 0.0565988 17.6294 0.296407 18.1157C0.644703 18.8219 1.18968 19.3644 1.89916 19.7109L2.43325 19.9718H3.338H4.24276L4.77338 19.7101C5.78589 19.2106 6.51359 18.2372 6.67442 17.1671C6.71808 16.8764 6.73738 15.5686 6.72536 13.7161C6.7072 10.9148 6.71247 10.753 6.81195 11.0586C7.30519 12.573 8.92736 13.5741 10.4942 13.331C11.5978 13.1598 12.556 12.447 13.0545 11.4263L13.3154 10.8922V9.99091V9.08962L13.0545 8.55553C12.7067 7.84358 12.1619 7.29533 11.4725 6.9638C11.1932 6.82947 10.9003 6.71958 10.8215 6.71958C10.7427 6.71958 10.6783 6.68954 10.6783 6.65282C10.6783 6.6161 10.7427 6.58606 10.8215 6.58606C11.0585 6.58606 11.8958 6.1471 12.2447 5.84C12.6737 5.46233 13.0529 4.86574 13.2259 4.29627C13.342 3.91399 13.3604 3.71504 13.3356 3.11184C13.3077 2.43501 13.2886 2.35236 13.0488 1.86607C12.7005 1.15987 12.1556 0.617427 11.4461 0.270933L10.912 0.0100284L6.80614 0.00121587C4.54793 -0.00359098 2.62519 0.00628976 2.53339 0.0231805ZM8.86534 6.81265C7.93749 7.14405 7.14776 7.95661 6.79392 8.94388C6.72576 9.13422 6.68517 9.2148 6.70373 9.123C6.72236 9.03121 6.73798 8.45292 6.73844 7.83784L6.73938 6.71958L7.9244 6.72252C8.98171 6.72512 9.08312 6.73487 8.86534 6.81265Z" fill="#C4C4C4"/>
<path fill-rule="evenodd" clip-rule="evenodd" d="M2.53339 0.0231805C2.44159 0.0400712 2.14117 0.161444 1.86577 0.292898C1.19335 0.613755 0.640964 1.16748 0.296407 1.86607C0.0565988 2.35236 0.0375717 2.43501 0.00966531 3.11184C-0.01517 3.71504 0.00325619 3.91399 0.119355 4.29627C0.39942 5.21838 1.01823 5.92805 1.93027 6.37295L2.43325 6.61837L4.87005 6.66197C6.21029 6.68593 7.71243 6.71004 8.20814 6.71551C9.0492 6.72479 9.0926 6.73147 8.858 6.81518C7.88721 7.16154 7.02919 8.0902 6.76575 9.07961C6.64818 9.52117 6.64818 10.4606 6.76575 10.9022C7.09128 12.1247 8.24479 13.1405 9.52668 13.3333C10.9605 13.5489 12.397 12.7724 13.0545 11.4263L13.3154 10.8922V9.99091V9.08962L13.0545 8.55553C12.7067 7.84358 12.1619 7.29533 11.4725 6.9638C11.1932 6.82947 10.9003 6.71958 10.8215 6.71958C10.7427 6.71958 10.6783 6.68954 10.6783 6.65282C10.6783 6.6161 10.7427 6.58606 10.8215 6.58606C11.0585 6.58606 11.8958 6.1471 12.2447 5.84C12.6737 5.46233 13.0529 4.86574 13.2259 4.29627C13.342 3.91399 13.3604 3.71504 13.3356 3.11184C13.3077 2.43501 13.2886 2.35236 13.0488 1.86607C12.7005 1.15987 12.1556 0.617427 11.4461 0.270933L10.912 0.0100284L6.80614 0.00121587C4.54793 -0.00359098 2.62519 0.00628976 2.53339 0.0231805ZM2.53339 13.3767C2.21714 13.4327 1.42655 13.8549 1.10055 14.1418C0.671541 14.5195 0.292334 15.1161 0.119355 15.6855C0.00325619 16.0678 -0.01517 16.2668 0.00966531 16.87C0.0375717 17.5468 0.0565988 17.6294 0.296407 18.1157C0.644703 18.8219 1.18968 19.3644 1.89916 19.7109L2.43325 19.9718H3.338H4.24276L4.77338 19.7101C5.76927 19.2188 6.50852 18.2414 6.67068 17.2012C6.70793 16.9625 6.73858 15.9936 6.73885 15.0481L6.73938 13.329L4.71984 13.3381C3.60906 13.3431 2.62519 13.3605 2.53339 13.3767Z" fill="white"/>
<path fill-rule="evenodd" clip-rule="evenodd" d="M2.53339 0.0231805C2.44159 0.0400712 2.14117 0.161444 1.86577 0.292898C1.19335 0.613755 0.640964 1.16748 0.296407 1.86607C0.0565988 2.35236 0.0375717 2.43501 0.00966531 3.11184C-0.01517 3.71504 0.00325619 3.91399 0.119355 4.29627C0.39942 5.21838 1.01823 5.92805 1.93027 6.37295L2.43325 6.61837L4.87005 6.66197C6.21029 6.68593 7.71243 6.70943 8.20814 6.71417L9.10942 6.72272L8.74063 6.87447C7.77031 7.2737 7.02499 8.10596 6.76575 9.07961C6.64818 9.52117 6.64818 10.4606 6.76575 10.9022C7.16799 12.4129 8.81774 13.5454 10.3402 13.356C12.115 13.1353 13.3488 11.7553 13.3488 9.99091C13.3488 8.63237 12.661 7.53548 11.4413 6.94884C11.1792 6.82273 10.9003 6.71958 10.8215 6.71958C10.7427 6.71958 10.6783 6.68954 10.6783 6.65282C10.6783 6.6161 10.7427 6.58606 10.8215 6.58606C11.0585 6.58606 11.8958 6.1471 12.2447 5.84C12.6737 5.46233 13.0529 4.86574 13.2259 4.29627C13.342 3.91399 13.3604 3.71504 13.3356 3.11184C13.3077 2.43501 13.2886 2.35236 13.0488 1.86607C12.7005 1.15987 12.1556 0.617427 11.4461 0.270933L10.912 0.0100284L6.80614 0.00121587C4.54793 -0.00359098 2.62519 0.00628976 2.53339 0.0231805ZM2.53339 13.3767C2.21714 13.4327 1.42655 13.8549 1.10055 14.1418C0.671541 14.5195 0.292334 15.1161 0.119355 15.6855C0.00325619 16.0678 -0.01517 16.2668 0.00966531 16.87C0.0375717 17.5468 0.0565988 17.6294 0.296407 18.1157C0.644703 18.8219 1.18968 19.3644 1.89916 19.7109L2.43325 19.9718H3.338H4.24276L4.77338 19.7101C5.76927 19.2188 6.50852 18.2414 6.67068 17.2012C6.70793 16.9625 6.73858 15.9936 6.73885 15.0481L6.73938 13.329L4.71984 13.3381C3.60906 13.3431 2.62519 13.3605 2.53339 13.3767Z" fill="white"/>
<path fill-rule="evenodd" clip-rule="evenodd" d="M2.53345 0.0231805C2.44165 0.0400712 2.14123 0.161444 1.86583 0.292898C1.19341 0.613755 0.641024 1.16748 0.296466 1.86607C0.0566583 2.35236 0.0376312 2.43501 0.00972483 3.11184C-0.0151105 3.71504 0.0033157 3.91399 0.119414 4.29626C0.39948 5.21838 1.01829 5.92805 1.93033 6.37295L2.43331 6.61837L4.87011 6.66197C6.21035 6.68593 7.71249 6.70943 8.2082 6.71417L9.10948 6.72272L8.7238 6.88134C7.9274 7.20881 7.16878 7.98044 6.87737 8.75935C6.70466 9.22108 6.63796 10.0922 6.73203 10.6583C6.95228 11.9836 8.13616 13.1138 9.5238 13.3234C11.0393 13.5523 12.5968 12.6448 13.1552 11.2076C13.3783 10.6334 13.4098 9.61477 13.2235 9.0013C13.0439 8.41025 12.6359 7.80065 12.1571 7.4083C11.7655 7.08737 11.0478 6.71958 10.8134 6.71958C10.7391 6.71958 10.6784 6.68954 10.6784 6.65282C10.6784 6.6161 10.7428 6.58606 10.8216 6.58606C11.0585 6.58606 11.8958 6.1471 12.2447 5.84C12.6738 5.46232 13.053 4.86574 13.2259 4.29626C13.342 3.91399 13.3605 3.71504 13.3356 3.11184C13.3077 2.43501 13.2887 2.35236 13.0489 1.86607C12.7006 1.15987 12.1556 0.617427 11.4461 0.270933L10.912 0.0100284L6.8062 0.00121587C4.54799 -0.00359098 2.62525 0.00628976 2.53345 0.0231805ZM2.53345 13.3767C2.22328 13.4317 1.42935 13.8525 1.1167 14.1277C0.688091 14.5049 0.288922 15.1274 0.121017 15.6803C0.00311542 16.0684 -0.0152441 16.2646 0.00972483 16.87C0.0374977 17.5445 0.0571256 17.6304 0.29186 18.1054C0.642292 18.8145 1.20176 19.3728 1.89521 19.7055C2.37169 19.9342 2.49233 19.9632 3.08651 19.9918C3.87196 20.0296 4.3471 19.9401 4.89448 19.6511C5.66571 19.2438 6.19386 18.6283 6.52801 17.7472C6.69231 17.314 6.69785 17.2449 6.72488 15.3152L6.75266 13.329L4.72651 13.3381C3.61212 13.3431 2.62525 13.3605 2.53345 13.3767Z" fill="white"/>
<path fill-rule="evenodd" clip-rule="evenodd" d="M2.53339 0.0231805C2.44159 0.0400712 2.14117 0.161444 1.86577 0.292898C1.19335 0.613755 0.640964 1.16748 0.296407 1.86607C0.0565988 2.35236 0.0375717 2.43501 0.00966531 3.11184C-0.01517 3.71504 0.00325619 3.91399 0.119355 4.29626C0.292334 4.86574 0.671541 5.46232 1.10055 5.84C1.51281 6.20285 2.26574 6.56723 2.7003 6.6141C3.25522 6.67392 9.18252 6.7077 10.081 6.65609C10.8564 6.61163 10.9565 6.59006 11.4185 6.36781C12.3229 5.93279 12.9455 5.21911 13.2259 4.29626C13.342 3.91399 13.3604 3.71504 13.3356 3.11184C13.3077 2.43501 13.2886 2.35236 13.0488 1.86607C12.7005 1.15987 12.1556 0.617427 11.4461 0.270933L10.912 0.0100284L6.80614 0.00121587C4.54793 -0.00359098 2.62519 0.00628976 2.53339 0.0231805Z" fill="#757575"/>
</svg>
