<svg width="166" height="39" viewBox="0 0 166 39" fill="none" xmlns="http://www.w3.org/2000/svg">
<path d="M19.6 1.368V6.168C19.6 6.648 19.312 6.936 18.832 6.936H6.928V16.584H15.952C16.432 16.584 16.72 16.872 16.72 17.352V22.152C16.72 22.68 16.432 22.92 15.952 22.92H6.928V38.232C6.928 38.712 6.64 39 6.16 39H1.168C0.64 39 0.4 38.712 0.4 38.232V1.368C0.4 0.887999 0.64 0.599999 1.168 0.599999H18.832C19.312 0.599999 19.6 0.887999 19.6 1.368ZM42.2305 7.512V19.224C42.2305 22.44 41.0305 24.552 38.7265 25.56L42.0385 38.136C42.1825 38.712 41.8945 39 41.3665 39H36.3745C35.8945 39 35.6545 38.76 35.5585 38.328L32.3425 26.136H29.0305V38.232C29.0305 38.712 28.7425 39 28.2625 39H23.2705C22.7905 39 22.5025 38.712 22.5025 38.232V1.368C22.5025 0.887999 22.7905 0.599999 23.2705 0.599999H35.3185C39.8305 0.599999 42.2305 3 42.2305 7.512ZM29.0305 19.8H33.7825C35.0305 19.8 35.7025 19.128 35.7025 17.88V8.856C35.7025 7.608 35.0305 6.936 33.7825 6.936H29.0305V19.8ZM67.741 39H62.653C62.221 39 61.981 38.76 61.885 38.328L60.541 31.32H51.997L50.701 38.328C50.605 38.76 50.365 39 49.933 39H44.797C44.269 39 44.029 38.712 44.173 38.184L52.141 1.272C52.237 0.791997 52.525 0.599999 52.957 0.599999H59.629C60.061 0.599999 60.349 0.791997 60.445 1.272L68.413 38.184C68.509 38.712 68.317 39 67.741 39ZM59.341 25.752L56.269 9L53.197 25.752H59.341ZM67.7343 0.599999H85.3983C85.9263 0.599999 86.1663 0.887999 86.1663 1.368V6.168C86.1663 6.648 85.9263 6.936 85.3983 6.936H79.8303V38.232C79.8303 38.76 79.5903 39 79.0623 39H74.0703C73.5903 39 73.3023 38.76 73.3023 38.232V6.936H67.7343C67.2543 6.936 66.9663 6.648 66.9663 6.168V1.368C66.9663 0.887999 67.2543 0.599999 67.7343 0.599999ZM107.728 1.368V6.168C107.728 6.648 107.536 6.984 106.96 6.984H94.9596V16.584H104.128C104.608 16.584 104.896 16.872 104.896 17.4V22.152C104.896 22.68 104.608 22.968 104.128 22.968H94.9596V32.664H106.96C107.536 32.664 107.728 32.904 107.728 33.432V38.232C107.728 38.712 107.536 39 106.96 39H89.2956C88.8636 39 88.5756 38.712 88.5756 38.232V1.368C88.5756 0.887999 88.8636 0.599999 89.2956 0.599999H106.96C107.536 0.599999 107.728 0.887999 107.728 1.368ZM130.828 7.512V19.224C130.828 22.44 129.628 24.552 127.324 25.56L130.636 38.136C130.78 38.712 130.492 39 129.964 39H124.972C124.492 39 124.252 38.76 124.156 38.328L120.94 26.136H117.628V38.232C117.628 38.712 117.34 39 116.86 39H111.868C111.388 39 111.1 38.712 111.1 38.232V1.368C111.1 0.887999 111.388 0.599999 111.868 0.599999H123.916C128.428 0.599999 130.828 3 130.828 7.512ZM117.628 19.8H122.38C123.628 19.8 124.3 19.128 124.3 17.88V8.856C124.3 7.608 123.628 6.936 122.38 6.936H117.628V19.8ZM149.392 0.599999H154.384C154.864 0.599999 155.152 0.887999 155.152 1.368V38.232C155.152 38.712 154.864 39 154.384 39H149.632C149.2 39 148.912 38.808 148.768 38.376L141.424 17.88H141.184V38.232C141.184 38.712 140.944 39 140.416 39H135.424C134.944 39 134.656 38.712 134.656 38.232V1.368C134.656 0.887999 134.944 0.599999 135.424 0.599999H140.176C140.608 0.599999 140.896 0.791997 141.04 1.224L148.336 21.624H148.624V1.368C148.624 0.887999 148.864 0.599999 149.392 0.599999ZM159.776 0.599999H164.768C165.248 0.599999 165.536 0.887999 165.536 1.368V38.232C165.536 38.712 165.248 39 164.768 39H159.776C159.248 39 159.008 38.712 159.008 38.232V1.368C159.008 0.887999 159.248 0.599999 159.776 0.599999Z" fill="white"/>
</svg>
