<svg width="20" height="20" viewBox="0 0 20 20" fill="none" xmlns="http://www.w3.org/2000/svg">
<path fill-rule="evenodd" clip-rule="evenodd" d="M9.42985 0.123723C9.23991 0.214383 8.90486 0.513744 8.20236 1.22058L7.23619 2.19281L8.37532 3.33277L9.51439 4.47279L9.94716 4.45011C10.4625 4.42304 10.7249 4.51564 11.0921 4.85419C11.4408 5.1755 11.5637 5.50448 11.5355 6.04082L11.5129 6.47133L12.6138 7.56986L13.7146 8.66839L13.9477 8.6153C14.4157 8.50865 14.9779 8.7046 15.3312 9.0976C16.0155 9.85862 15.7847 11.0197 14.8592 11.4725C14.1338 11.8274 13.2208 11.5147 12.8573 10.787C12.7123 10.4965 12.6551 9.96098 12.7425 9.71038L12.8029 9.53731L11.7564 8.49088L10.7101 7.4445V10.1646V12.8846L10.9428 13.0486C11.3478 13.3341 11.5461 13.7497 11.5461 14.3131C11.5461 15.1808 10.8245 15.8309 9.93232 15.7669C9.36328 15.726 8.91703 15.4205 8.66198 14.897C8.48792 14.5398 8.4977 13.9672 8.68403 13.6068C8.82757 13.3291 9.15839 12.9921 9.34567 12.9326L9.45597 12.8976V10.1091V7.32061L9.34567 7.2856C9.15703 7.22572 8.82689 6.88805 8.68691 6.61179C8.54368 6.32915 8.50407 5.91133 8.58245 5.51081L8.62337 5.30179L7.49803 4.17865L6.3727 3.05552L3.31069 6.11204C0.885707 8.53268 0.222713 9.2229 0.123902 9.42983C-0.0345835 9.76153 -0.041481 10.1726 0.105822 10.501C0.187546 10.6832 1.22541 11.7516 4.71605 15.2465C7.3872 17.921 9.30329 19.7998 9.42347 19.8624C9.71803 20.0157 10.1149 20.0431 10.4547 19.9335C10.723 19.847 10.95 19.629 15.2895 15.2895C19.629 10.9499 19.8471 10.7229 19.9336 10.4547C20.0431 10.1149 20.0157 9.718 19.8624 9.42345C19.7998 9.30327 17.921 7.38718 15.2466 4.71603C11.7516 1.22539 10.6833 0.187525 10.501 0.1058C10.1727 -0.0414506 9.76161 -0.0345531 9.42985 0.123723Z" fill="white"/>
</svg>
