<svg width="513" height="500" viewBox="0 0 513 500" fill="none" xmlns="http://www.w3.org/2000/svg">
<path fill-rule="evenodd" clip-rule="evenodd" d="M236.086 0.927206C220.713 1.95708 200.404 5.60216 184.441 10.196C94.1813 36.176 23.9779 112.046 5.32209 203.775C-8.28842 270.695 4.44936 339.373 40.7451 394.767C66.2727 433.726 98.7281 463.435 137.618 483.441C151.762 490.717 171.734 498.833 177.933 499.824C183.731 500.752 188.834 497.959 191.227 492.547C193.006 488.527 193.09 486.54 192.445 463.92L191.752 439.613L183.143 440.946C173.473 442.444 157.487 441.906 144.537 439.648C134.048 437.82 123.385 432.52 116.67 425.799C111.359 420.481 109.989 418.172 103.031 402.817C96.7454 388.944 89.5724 379.737 79.8802 373.099C73.1995 368.524 67.7149 362.534 68.1483 360.285C68.7247 357.291 72.9813 355.962 80.2735 356.498C94.3544 357.533 109.097 367.817 119.6 383.93C126.792 394.964 133.886 401.82 142.564 406.126C148.811 409.226 150.525 409.612 159.522 409.947C169.863 410.333 180.221 408.771 188.628 405.562C192.781 403.975 192.916 403.777 194.44 397.028C196.379 388.441 200.04 380.589 205.074 374.22L208.942 369.327L200.745 368.174C174.351 364.461 155.555 358.019 138.026 346.68C115.082 331.836 101.459 308.728 94.9069 273.534C92.8682 262.581 92.5479 234.595 94.3434 224.297C97.2529 207.617 104.132 192.321 114.386 179.732L118.866 174.234L116.925 167.996C111.692 151.183 112.686 130.854 119.728 110.646C121.496 105.571 121.929 105.366 129.997 105.782C141.787 106.389 167.102 116.552 184.322 127.589L191.492 132.185L197.024 131.101C200.068 130.506 205.803 129.317 209.77 128.46C236.889 122.6 275.318 122.6 302.437 128.46C306.404 129.317 312.126 130.49 315.153 131.066L320.658 132.114L330.166 126.332C352.823 112.556 378.647 103.308 387.699 105.729C390.271 106.417 390.993 107.441 392.97 113.201C397.276 125.754 398.483 134.224 397.977 148.359C397.637 157.879 396.942 163.18 395.425 167.836L393.34 174.234L397.718 179.607C406.614 190.528 413.268 204.031 416.945 218.624C419.178 227.489 419.424 260.341 417.352 273.033C414.116 292.852 405.903 313.653 396.342 326.245C379.808 348.022 349.859 362.878 311.954 368.106L303.248 369.307L307.123 374.21C311.894 380.244 315.624 387.979 317.781 396.314C319.146 401.581 319.485 410.033 319.804 446.68C320.231 495.683 320.219 495.6 326.92 498.779C331.546 500.974 335.294 500.302 349.909 494.657C423.719 466.149 482.032 401.34 503.311 324.168C517.455 272.876 514.464 213.319 495.263 163.928C478.133 119.864 447.723 79.6348 410.396 51.6561C369.919 21.3165 323.822 4.19697 273.635 0.864152C256.105 -0.299833 254.369 -0.29683 236.086 0.927206Z" fill="white"/>
</svg>
