<svg width="512" height="500" viewBox="0 0 512 500" fill="none" xmlns="http://www.w3.org/2000/svg">
<path fill-rule="evenodd" clip-rule="evenodd" d="M235.887 0.926421C220.527 1.95542 200.235 5.59742 184.285 10.1874C94.1016 36.1454 23.9576 111.951 5.31759 203.602C-8.28141 270.466 4.44559 339.085 40.7106 394.433C66.2166 433.359 98.6446 463.042 137.502 483.032C151.634 490.301 171.589 498.411 177.783 499.401C183.576 500.328 188.675 497.537 191.066 492.13C192.843 488.113 192.927 486.128 192.283 463.527L191.59 439.241L182.988 440.573C173.327 442.069 157.354 441.532 144.415 439.276C133.935 437.449 123.281 432.154 116.572 425.438C111.265 420.125 109.896 417.818 102.944 402.476C96.6636 388.615 89.4966 379.415 79.8126 372.783C73.1376 368.212 67.6576 362.227 68.0906 359.98C68.6666 356.988 72.9196 355.66 80.2056 356.196C94.2746 357.23 109.005 367.505 119.499 383.605C126.685 394.629 133.773 401.48 142.444 405.782C148.685 408.879 150.398 409.265 159.387 409.6C169.72 409.985 180.069 408.425 188.469 405.218C192.618 403.633 192.753 403.435 194.276 396.692C196.213 388.112 199.871 380.267 204.901 373.903L208.766 369.014L200.576 367.862C174.204 364.152 155.424 357.716 137.91 346.386C114.985 331.555 101.374 308.466 94.8266 273.302C92.7896 262.358 92.4696 234.396 94.2636 224.107C97.1706 207.441 104.044 192.158 114.29 179.58L118.766 174.086L116.826 167.853C111.598 151.055 112.591 130.743 119.627 110.552C121.394 105.481 121.826 105.276 129.887 105.692C141.667 106.299 166.961 116.453 184.166 127.481L191.33 132.073L196.858 130.99C199.899 130.395 205.629 129.207 209.593 128.351C236.689 122.496 275.085 122.496 302.181 128.351C306.145 129.207 311.862 130.379 314.887 130.955L320.387 132.002L329.887 126.225C352.525 112.46 378.327 103.22 387.371 105.639C389.941 106.327 390.663 107.35 392.638 113.105C396.94 125.647 398.146 134.11 397.641 148.233C397.301 157.745 396.607 163.042 395.091 167.694L393.008 174.086L397.382 179.455C406.27 190.366 412.919 203.858 416.593 218.439C418.824 227.296 419.07 260.12 416.999 272.802C413.766 292.604 405.56 313.387 396.007 325.969C379.487 347.727 349.563 362.571 311.69 367.794L302.992 368.994L306.864 373.893C311.631 379.922 315.357 387.65 317.513 395.978C318.876 401.241 319.215 409.686 319.534 446.302C319.96 495.263 319.948 495.18 326.644 498.357C331.266 500.55 335.011 499.878 349.613 494.238C423.361 465.754 481.625 401 502.886 323.893C517.018 272.645 514.029 213.138 494.844 163.789C477.729 119.762 447.345 79.5674 410.049 51.6124C369.606 21.2984 323.548 4.19342 273.404 0.863421C255.889 -0.299579 254.154 -0.296579 235.887 0.926421Z" fill="white"/>
</svg>
