<svg width="15" height="20" viewBox="0 0 15 20" fill="none" xmlns="http://www.w3.org/2000/svg">
<path fill-rule="evenodd" clip-rule="evenodd" d="M1.33547 1.34766V2.69531H1.80422H2.27297V2.24609V1.79688H2.66359H3.05422V2.24609V2.69531H3.52297H3.99172V1.34766V0H3.52297H3.05422V0.429688V0.859375H2.66359H2.27297V0.429688V0H1.80422H1.33547V1.34766ZM4.34328 0.449219V0.898438H4.75344H5.16359V1.79688V2.69531H5.61281H6.06203V1.79688V0.898438H6.47219H6.88234V0.449219V0H5.61281H4.34328V0.449219ZM7.23391 1.34766V2.69531H7.70266H8.17141L8.17254 2.08008L8.17363 1.46484L8.45574 1.90352C8.61086 2.14477 8.75203 2.33777 8.76941 2.33242C8.7868 2.32707 8.93148 2.1209 9.09094 1.87422L9.38086 1.42578L9.3816 2.06055L9.38234 2.69531H9.85109H10.3198V1.34766V0H9.82039H9.3209L9.0907 0.380859C8.96406 0.590352 8.83988 0.792695 8.81469 0.830508C8.77484 0.890391 8.73391 0.841016 8.49945 0.450234L8.23 0.00117187L7.73195 0.000585937L7.23391 0V1.34766ZM10.7105 1.34766V2.69531H11.8237H12.937V2.24609V1.79688H12.2925H11.648V0.898438V0H11.1792H10.7105V1.34766ZM0.023047 4.0918C0.0357033 4.19383 0.328477 7.45863 0.673711 11.3469C1.01891 15.2351 1.30461 18.418 1.30863 18.42C1.37992 18.4555 7.04945 20 7.10832 20C7.20449 20 12.864 18.4409 12.9065 18.4027C12.922 18.3888 13.2159 15.2137 13.5597 11.3469C13.9035 7.48016 14.1954 4.22414 14.2083 4.11133L14.2317 3.90625H7.11586H0L0.023047 4.0918Z" fill="white"/>
<path fill-rule="evenodd" clip-rule="evenodd" d="M1.33546 1.34766V2.69531H1.80421H2.27296V2.24609V1.79688H2.66358H3.05421V2.24609V2.69531H3.52296H3.99171V1.34766V0H3.52296H3.05421V0.429688V0.859375H2.66358H2.27296V0.429688V0H1.80421H1.33546V1.34766ZM4.34327 0.449219V0.898438H4.75343H5.16358V1.79688V2.69531H5.6128H6.06202V1.79688V0.898438H6.47218H6.88233V0.449219V0H5.6128H4.34327V0.449219ZM7.2339 1.34766V2.69531H7.70265H8.1714L8.17253 2.08008L8.17362 1.46484L8.45573 1.90352C8.61085 2.14477 8.75202 2.33777 8.7694 2.33242C8.78679 2.32707 8.93147 2.1209 9.09093 1.87422L9.38085 1.42578L9.38159 2.06055L9.38233 2.69531H9.85108H10.3198V1.34766V0H9.82038H9.32089L9.09069 0.380859C8.96405 0.590352 8.83987 0.792695 8.81468 0.830508C8.77483 0.890391 8.7339 0.841016 8.49944 0.450234L8.22999 0.00117187L7.73194 0.000585937L7.2339 0V1.34766ZM10.7105 1.34766V2.69531H11.8237H12.937V2.24609V1.79688H12.2925H11.648V0.898438V0H11.1792H10.7105V1.34766ZM0.0244824 4.11133C0.0369824 4.22414 0.0995215 4.90527 0.163389 5.625C0.631553 10.8991 0.767451 12.4273 0.885888 13.75C0.95999 14.5771 1.08374 15.9655 1.16097 16.8352C1.23815 17.7048 1.3046 18.4179 1.30862 18.4198C1.39144 18.4587 7.05222 20 7.11218 20C7.15948 20 7.66765 19.8692 8.24144 19.7093C10.3795 19.1135 12.5328 18.5187 12.7131 18.474C12.8155 18.4487 12.9071 18.4153 12.9166 18.3998C12.9262 18.3844 13.0404 17.1781 13.1705 15.7191C13.3006 14.2601 13.4592 12.4863 13.5229 11.7773C13.5867 11.0684 13.7097 9.68848 13.7964 8.71094C13.8831 7.7334 14.0062 6.34473 14.0701 5.625C14.1339 4.90527 14.1964 4.22414 14.2089 4.11133L14.2317 3.90625H7.11671H0.00170898L0.0244824 4.11133Z" fill="white"/>
<path fill-rule="evenodd" clip-rule="evenodd" d="M1.33546 1.34766V2.69531H1.80421H2.27296V2.24609V1.79688H2.66358H3.05421V2.24609V2.69531H3.52296H3.99171V1.34766V0H3.52296H3.05421V0.429688V0.859375H2.66358H2.27296V0.429688V0H1.80421H1.33546V1.34766ZM4.34327 0.449219V0.898438H4.75343H5.16358V1.79688V2.69531H5.6128H6.06202V1.79688V0.898438H6.47218H6.88233V0.449219V0H5.6128H4.34327V0.449219ZM7.2339 1.34766V2.69531H7.70265H8.1714L8.17253 2.08008L8.17362 1.46484L8.45573 1.90352C8.61085 2.14477 8.75202 2.33777 8.7694 2.33242C8.78679 2.32707 8.93147 2.1209 9.09093 1.87422L9.38085 1.42578L9.38159 2.06055L9.38233 2.69531H9.85108H10.3198V1.34766V0H9.82038H9.32089L9.09069 0.380859C8.96405 0.590352 8.83987 0.792695 8.81468 0.830508C8.77483 0.890391 8.7339 0.841016 8.49944 0.450234L8.22999 0.00117187L7.73194 0.000585937L7.2339 0V1.34766ZM10.7105 1.34766V2.69531H11.8237H12.937V2.24609V1.79688H12.2925H11.648V0.898438V0H11.1792H10.7105V1.34766ZM0.0244824 4.11133C0.0369824 4.22414 0.0995215 4.90527 0.163389 5.625C0.631553 10.8991 0.767451 12.4273 0.885888 13.75C0.95999 14.5771 1.08374 15.9655 1.16097 16.8352C1.23815 17.7048 1.3046 18.4179 1.30862 18.4198C1.39144 18.4587 7.05222 20 7.11218 20C7.15948 20 7.66765 19.8692 8.24144 19.7093C10.3795 19.1135 12.5328 18.5187 12.7131 18.474C12.8155 18.4487 12.9071 18.4153 12.9166 18.3998C12.9262 18.3844 13.0404 17.1781 13.1705 15.7191C13.3006 14.2601 13.4592 12.4863 13.5229 11.7773C13.5867 11.0684 13.7097 9.68848 13.7964 8.71094C13.8831 7.7334 14.0062 6.34473 14.0701 5.625C14.1339 4.90527 14.1964 4.22414 14.2089 4.11133L14.2317 3.90625H7.11671H0.00170898L0.0244824 4.11133ZM11.5575 7.07766C11.545 7.10879 11.5357 7.09953 11.5339 7.05402C11.5322 7.01285 11.5414 6.9898 11.5544 7.00277C11.5673 7.01574 11.5687 7.04945 11.5575 7.07766ZM2.69026 7.19484C2.6778 7.22598 2.66854 7.21672 2.66667 7.17121C2.66499 7.13004 2.67421 7.10699 2.68718 7.11996C2.70015 7.13293 2.70155 7.16664 2.69026 7.19484ZM2.72933 7.62453C2.71687 7.65566 2.70761 7.64641 2.70573 7.6009C2.70405 7.55973 2.71327 7.53668 2.72624 7.54965C2.73921 7.56262 2.74062 7.59633 2.72933 7.62453ZM11.4793 7.89797C11.4669 7.9291 11.4576 7.91984 11.4557 7.87434C11.4541 7.83316 11.4633 7.81012 11.4762 7.82309C11.4892 7.83605 11.4906 7.86977 11.4793 7.89797ZM2.76839 8.05422C2.75593 8.08535 2.74667 8.07609 2.74479 8.03059C2.74311 7.98941 2.75233 7.96637 2.7653 7.97934C2.77827 7.9923 2.77968 8.02602 2.76839 8.05422ZM11.4403 8.32766C11.4278 8.35879 11.4185 8.34953 11.4167 8.30402C11.415 8.26285 11.4242 8.2398 11.4372 8.25277C11.4501 8.26574 11.4516 8.29945 11.4403 8.32766ZM2.80745 8.48391C2.79499 8.51504 2.78573 8.50578 2.78386 8.46027C2.78218 8.4191 2.7914 8.39605 2.80437 8.40902C2.81733 8.42199 2.81874 8.4557 2.80745 8.48391ZM2.84651 8.91359C2.83405 8.94473 2.82479 8.93547 2.82292 8.88996C2.82124 8.84879 2.83046 8.82574 2.84343 8.83871C2.8564 8.85168 2.8578 8.88539 2.84651 8.91359ZM4.64339 8.91359C4.63093 8.94473 4.62167 8.93547 4.61979 8.88996C4.61811 8.84879 4.62733 8.82574 4.6403 8.83871C4.65327 8.85168 4.65468 8.88539 4.64339 8.91359ZM2.88558 9.34328C2.87312 9.37441 2.86386 9.36516 2.86198 9.31965C2.8603 9.27848 2.86952 9.25543 2.88249 9.2684C2.89546 9.28137 2.89687 9.31508 2.88558 9.34328ZM2.92464 9.77297C2.91218 9.8041 2.90292 9.79484 2.90104 9.74934C2.89936 9.70816 2.90858 9.68512 2.92155 9.69809C2.93452 9.71105 2.93593 9.74477 2.92464 9.77297ZM4.72151 9.81203C4.70905 9.84316 4.69979 9.83391 4.69792 9.7884C4.69624 9.74723 4.70546 9.72418 4.71843 9.73715C4.7314 9.75012 4.7328 9.78383 4.72151 9.81203ZM2.9637 10.2027C2.95124 10.2338 2.94198 10.2245 2.94011 10.179C2.93843 10.1379 2.94765 10.1148 2.96062 10.1278C2.97358 10.1407 2.97499 10.1745 2.9637 10.2027ZM4.76058 10.2417C4.74812 10.2729 4.73886 10.2636 4.73698 10.2181C4.7353 10.1769 4.74452 10.1539 4.75749 10.1668C4.77046 10.1798 4.77187 10.2135 4.76058 10.2417ZM3.00276 10.6323C2.9903 10.6635 2.98104 10.6542 2.97917 10.6087C2.97749 10.5675 2.98671 10.5445 2.99968 10.5575C3.01265 10.5704 3.01405 10.6041 3.00276 10.6323ZM11.2051 10.9863C11.1942 11.0132 11.1854 10.9912 11.1854 10.9375C11.1854 10.8838 11.1942 10.8618 11.2051 10.8887C11.2159 10.9155 11.2159 10.9595 11.2051 10.9863ZM3.04183 11.062C3.02937 11.0932 3.02011 11.0839 3.01823 11.0384C3.01655 10.9972 3.02577 10.9742 3.03874 10.9871C3.05171 11.0001 3.05312 11.0338 3.04183 11.062ZM11.1668 11.4136C11.1544 11.4447 11.1451 11.4355 11.1432 11.39C11.1416 11.3488 11.1508 11.3257 11.1637 11.3387C11.1767 11.3517 11.1781 11.3854 11.1668 11.4136ZM11.1278 11.8433C11.1153 11.8744 11.106 11.8652 11.1042 11.8196C11.1025 11.7785 11.1117 11.7554 11.1247 11.7684C11.1376 11.7814 11.1391 11.8151 11.1278 11.8433ZM3.11995 11.9605C3.10749 11.9916 3.09823 11.9823 3.09636 11.9368C3.09468 11.8957 3.1039 11.8726 3.11687 11.8856C3.12983 11.8986 3.13124 11.9323 3.11995 11.9605ZM11.0887 12.273C11.0762 12.3041 11.067 12.2948 11.0651 12.2493C11.0634 12.2082 11.0726 12.1851 11.0856 12.1981C11.0986 12.2111 11.1 12.2448 11.0887 12.273ZM11.0496 12.7027C11.0372 12.7338 11.0279 12.7245 11.026 12.679C11.0244 12.6379 11.0336 12.6148 11.0466 12.6278C11.0595 12.6407 11.0609 12.6745 11.0496 12.7027ZM9.25276 12.7417C9.2403 12.7729 9.23105 12.7636 9.22917 12.7181C9.22749 12.6769 9.23671 12.6539 9.24968 12.6668C9.26265 12.6798 9.26405 12.7135 9.25276 12.7417ZM11.0106 13.1323C10.9981 13.1635 10.9889 13.1542 10.987 13.1087C10.9853 13.0675 10.9945 13.0445 11.0075 13.0575C11.0205 13.0704 11.0219 13.1041 11.0106 13.1323ZM9.2137 13.1714C9.20124 13.2025 9.19198 13.1933 9.19011 13.1478C9.18843 13.1066 9.19765 13.0836 9.21062 13.0965C9.22358 13.1095 9.22499 13.1432 9.2137 13.1714ZM3.23632 13.252C3.2255 13.2788 3.21663 13.2568 3.21663 13.2031C3.21663 13.1494 3.2255 13.1275 3.23632 13.1543C3.24718 13.1812 3.24718 13.2251 3.23632 13.252ZM5.03401 13.3277C5.02155 13.3588 5.01229 13.3495 5.01042 13.304C5.00874 13.2629 5.01796 13.2398 5.03093 13.2528C5.0439 13.2657 5.0453 13.2995 5.03401 13.3277ZM10.9715 13.562C10.9591 13.5932 10.9498 13.5839 10.9479 13.5384C10.9462 13.4972 10.9555 13.4742 10.9684 13.4871C10.9814 13.5001 10.9828 13.5338 10.9715 13.562ZM9.17464 13.6011C9.16218 13.6322 9.15292 13.623 9.15105 13.5775C9.14937 13.5363 9.15858 13.5132 9.17155 13.5262C9.18452 13.5392 9.18593 13.5729 9.17464 13.6011ZM3.2762 13.7183C3.26374 13.7494 3.25448 13.7402 3.25261 13.6946C3.25093 13.6535 3.26015 13.6304 3.27312 13.6434C3.28608 13.6564 3.28749 13.6901 3.2762 13.7183ZM5.07308 13.7573C5.06062 13.7885 5.05136 13.7792 5.04948 13.7337C5.0478 13.6925 5.05702 13.6695 5.06999 13.6825C5.08296 13.6954 5.08437 13.7291 5.07308 13.7573ZM9.13558 14.0308C9.12312 14.0619 9.11386 14.0527 9.11198 14.0071C9.1103 13.966 9.11952 13.9429 9.13249 13.9559C9.14546 13.9689 9.14687 14.0026 9.13558 14.0308ZM10.9325 14.0308C10.92 14.0619 10.9107 14.0527 10.9089 14.0071C10.9072 13.966 10.9164 13.9429 10.9294 13.9559C10.9423 13.9689 10.9437 14.0026 10.9325 14.0308ZM3.31526 14.148C3.3028 14.1791 3.29354 14.1698 3.29167 14.1243C3.28999 14.0832 3.29921 14.0601 3.31218 14.0731C3.32515 14.0861 3.32655 14.1198 3.31526 14.148ZM5.11214 14.2261C5.09968 14.2572 5.09042 14.248 5.08854 14.2025C5.08686 14.1613 5.09608 14.1382 5.10905 14.1512C5.12202 14.1642 5.12343 14.1979 5.11214 14.2261ZM9.09651 14.4605C9.08405 14.4916 9.0748 14.4823 9.07292 14.4368C9.07124 14.3957 9.08046 14.3726 9.09343 14.3856C9.1064 14.3986 9.1078 14.4323 9.09651 14.4605ZM10.8934 14.4605C10.8809 14.4916 10.8717 14.4823 10.8698 14.4368C10.8681 14.3957 10.8773 14.3726 10.8903 14.3856C10.9033 14.3986 10.9047 14.4323 10.8934 14.4605ZM3.35433 14.5777C3.34187 14.6088 3.33261 14.5995 3.33073 14.554C3.32905 14.5129 3.33827 14.4898 3.35124 14.5028C3.36421 14.5157 3.36562 14.5495 3.35433 14.5777ZM10.8543 14.8902C10.8419 14.9213 10.8326 14.912 10.8307 14.8665C10.8291 14.8254 10.8383 14.8023 10.8512 14.8153C10.8642 14.8282 10.8656 14.862 10.8543 14.8902ZM3.39339 15.0073C3.38093 15.0385 3.37167 15.0292 3.36979 14.9837C3.36811 14.9425 3.37733 14.9195 3.3903 14.9325C3.40327 14.9454 3.40468 14.9791 3.39339 15.0073ZM10.8153 15.3198C10.8028 15.351 10.7935 15.3417 10.7917 15.2962C10.79 15.255 10.7992 15.232 10.8122 15.245C10.8251 15.2579 10.8266 15.2916 10.8153 15.3198ZM3.43245 15.437C3.41999 15.4682 3.41073 15.4589 3.40886 15.4134C3.40718 15.3722 3.4164 15.3492 3.42937 15.3621C3.44233 15.3751 3.44374 15.4088 3.43245 15.437ZM10.7762 15.7495C10.7637 15.7807 10.7545 15.7714 10.7526 15.7259C10.7509 15.6847 10.7601 15.6617 10.7731 15.6746C10.7861 15.6876 10.7875 15.7213 10.7762 15.7495ZM3.47151 15.8667C3.45905 15.8979 3.44979 15.8886 3.44792 15.8431C3.44624 15.8019 3.45546 15.7789 3.46843 15.7918C3.4814 15.8048 3.4828 15.8385 3.47151 15.8667Z" fill="white"/>
<path fill-rule="evenodd" clip-rule="evenodd" d="M1.33546 1.34766V2.69531H1.80421H2.27296V2.24609V1.79688H2.66358H3.05421V2.24609V2.69531H3.52296H3.99171V1.34766V0H3.52296H3.05421V0.429688V0.859375H2.66358H2.27296V0.429688V0H1.80421H1.33546V1.34766ZM4.34327 0.449219V0.898438H4.75343H5.16358V1.79688V2.69531H5.6128H6.06202V1.79688V0.898438H6.47218H6.88233V0.449219V0H5.6128H4.34327V0.449219ZM7.2339 1.34766V2.69531H7.70265H8.1714L8.17253 2.08008L8.17362 1.46484L8.45573 1.90352C8.61085 2.14477 8.75202 2.33777 8.7694 2.33242C8.78679 2.32707 8.93147 2.1209 9.09093 1.87422L9.38085 1.42578L9.38159 2.06055L9.38233 2.69531H9.85108H10.3198V1.34766V0H9.82038H9.32089L9.09069 0.380859C8.96405 0.590352 8.83987 0.792695 8.81468 0.830508C8.77483 0.890391 8.7339 0.841016 8.49944 0.450234L8.22999 0.00117187L7.73194 0.000585937L7.2339 0V1.34766ZM10.7105 1.34766V2.69531H11.8237H12.937V2.24609V1.79688H12.2925H11.648V0.898438V0H11.1792H10.7105V1.34766ZM0.0244824 4.11133C0.0369824 4.22414 0.0995215 4.90527 0.163389 5.625C0.631553 10.8991 0.767451 12.4273 0.885888 13.75C0.95999 14.5771 1.08374 15.9655 1.16097 16.8352C1.23815 17.7048 1.3046 18.4179 1.30862 18.4198C1.39144 18.4587 7.05222 20 7.11218 20C7.15948 20 7.66765 19.8692 8.24144 19.7093C10.3795 19.1135 12.5328 18.5187 12.7131 18.474C12.8155 18.4487 12.9071 18.4153 12.9166 18.3998C12.9262 18.3844 13.0404 17.1781 13.1705 15.7191C13.3006 14.2601 13.4592 12.4863 13.5229 11.7773C13.5867 11.0684 13.7097 9.68848 13.7964 8.71094C13.8831 7.7334 14.0062 6.34473 14.0701 5.625C14.1339 4.90527 14.1964 4.22414 14.2089 4.11133L14.2317 3.90625H7.11671H0.00170898L0.0244824 4.11133ZM11.564 7.00195C11.5585 7.11988 11.557 7.12129 11.5419 7.02164L11.5256 6.91437L7.08483 6.9043L2.64405 6.89418L7.10694 6.88461L11.5698 6.875L11.564 7.00195ZM2.6912 7.15773C2.68187 7.20633 2.67386 7.17578 2.67343 7.08984C2.673 7.00391 2.68065 6.96414 2.69042 7.00148C2.70019 7.03883 2.70054 7.10914 2.6912 7.15773ZM11.5186 7.45117C11.5088 7.48879 11.5008 7.45801 11.5008 7.38281C11.5008 7.30762 11.5088 7.27684 11.5186 7.31445C11.5285 7.35207 11.5285 7.41355 11.5186 7.45117ZM2.73026 7.58742C2.72093 7.63602 2.71292 7.60547 2.71249 7.51953C2.71206 7.43359 2.71972 7.39383 2.72948 7.43117C2.73925 7.46852 2.7396 7.53883 2.73026 7.58742ZM11.4796 7.88086C11.4698 7.91848 11.4617 7.8877 11.4617 7.8125C11.4617 7.7373 11.4698 7.70652 11.4796 7.74414C11.4894 7.78176 11.4894 7.84324 11.4796 7.88086ZM2.76933 8.01711C2.75999 8.0657 2.75198 8.03516 2.75155 7.94922C2.75112 7.86328 2.75878 7.82352 2.76854 7.86086C2.77831 7.8982 2.77866 7.96852 2.76933 8.01711ZM11.4412 8.29055C11.4319 8.33914 11.4239 8.30859 11.4234 8.22266C11.423 8.13672 11.4307 8.09695 11.4404 8.1343C11.4502 8.17164 11.4505 8.24195 11.4412 8.29055ZM2.80839 8.4468C2.79905 8.49539 2.79104 8.46484 2.79062 8.37891C2.79019 8.29297 2.79784 8.2532 2.80761 8.29055C2.81737 8.32789 2.81772 8.3982 2.80839 8.4468ZM11.4136 8.59375C11.4136 8.67137 11.3907 8.6718 8.00538 8.66234L4.59718 8.65277L7.98585 8.64258C10.9618 8.63363 11.3745 8.62527 11.3745 8.57398C11.3745 8.54191 11.3833 8.51562 11.3941 8.51562C11.4048 8.51562 11.4136 8.55078 11.4136 8.59375ZM2.84745 8.87648C2.83812 8.92508 2.83011 8.89453 2.82968 8.80859C2.82925 8.72266 2.8369 8.68289 2.84667 8.72023C2.85644 8.75758 2.85679 8.82789 2.84745 8.87648ZM4.64433 9.03273C4.63499 9.08133 4.62698 9.05078 4.62655 8.96484C4.62612 8.87891 4.63378 8.83914 4.64354 8.87648C4.65331 8.91383 4.65366 8.98414 4.64433 9.03273ZM2.88651 9.30617C2.87718 9.35477 2.86917 9.32422 2.86874 9.23828C2.86831 9.15234 2.87597 9.11258 2.88573 9.14992C2.8955 9.18727 2.89585 9.25758 2.88651 9.30617ZM4.68269 9.48242C4.67288 9.52004 4.66483 9.48926 4.66483 9.41406C4.66483 9.33887 4.67288 9.30809 4.68269 9.3457C4.69253 9.38332 4.69253 9.4448 4.68269 9.48242ZM2.92487 9.75586C2.91507 9.79348 2.90702 9.7627 2.90702 9.6875C2.90702 9.6123 2.91507 9.58152 2.92487 9.61914C2.93472 9.65676 2.93472 9.71824 2.92487 9.75586ZM4.72175 9.91211C4.71194 9.94973 4.7039 9.91895 4.7039 9.84375C4.7039 9.76855 4.71194 9.73777 4.72175 9.77539C4.73159 9.81301 4.73159 9.87449 4.72175 9.91211ZM2.96394 10.1855C2.95413 10.2231 2.94608 10.1924 2.94608 10.1172C2.94608 10.042 2.95413 10.0112 2.96394 10.0488C2.97378 10.0864 2.97378 10.148 2.96394 10.1855ZM4.76081 10.3418C4.75101 10.3794 4.74296 10.3486 4.74296 10.2734C4.74296 10.1982 4.75101 10.1675 4.76081 10.2051C4.77065 10.2427 4.77065 10.3042 4.76081 10.3418ZM3.003 10.6152C2.99319 10.6528 2.98515 10.6221 2.98515 10.5469C2.98515 10.4717 2.99319 10.4409 3.003 10.4785C3.01284 10.5161 3.01284 10.5777 3.003 10.6152ZM6.52343 10.498C6.20784 10.5045 5.6805 10.5045 5.35155 10.498C5.02257 10.4914 5.28077 10.4861 5.9253 10.4861C6.56983 10.4861 6.83897 10.4914 6.52343 10.498ZM11.2068 10.9468C11.1975 10.9954 11.1895 10.9648 11.1891 10.8789C11.1886 10.793 11.1963 10.7532 11.206 10.7905C11.2158 10.8279 11.2162 10.8982 11.2068 10.9468ZM3.04206 11.0449C3.03226 11.0825 3.02421 11.0518 3.02421 10.9766C3.02421 10.9014 3.03226 10.8706 3.04206 10.9082C3.0519 10.9458 3.0519 11.0073 3.04206 11.0449ZM11.1678 11.3765C11.1584 11.4251 11.1504 11.3945 11.15 11.3086C11.1496 11.2227 11.1572 11.1829 11.167 11.2202C11.1767 11.2576 11.1771 11.3279 11.1678 11.3765ZM3.08112 11.4746C3.07132 11.5122 3.06327 11.4814 3.06327 11.4062C3.06327 11.3311 3.07132 11.3003 3.08112 11.3379C3.09097 11.3755 3.09097 11.437 3.08112 11.4746ZM11.1287 11.8062C11.1194 11.8548 11.1114 11.8242 11.1109 11.7383C11.1105 11.6523 11.1182 11.6126 11.1279 11.6499C11.1377 11.6873 11.138 11.7576 11.1287 11.8062ZM3.12089 11.9234C3.11155 11.972 3.10354 11.9414 3.10312 11.8555C3.10269 11.7695 3.11034 11.7298 3.12011 11.7671C3.12987 11.8045 3.13022 11.8748 3.12089 11.9234ZM11.0896 12.2359C11.0803 12.2845 11.0723 12.2539 11.0719 12.168C11.0714 12.082 11.0791 12.0423 11.0889 12.0796C11.0986 12.117 11.099 12.1873 11.0896 12.2359ZM6.24104 12.2266H9.30421L9.29835 12.3535C9.29292 12.4717 9.29136 12.473 9.27624 12.373L9.25995 12.2656H6.19616C3.30312 12.2656 3.13249 12.2618 3.13542 12.1973C3.13726 12.1564 3.14644 12.1486 3.15819 12.1777C3.17374 12.2162 3.8271 12.2266 6.24104 12.2266ZM11.0506 12.6655C11.0412 12.7141 11.0332 12.6836 11.0328 12.5977C11.0324 12.5117 11.04 12.472 11.0498 12.5093C11.0596 12.5466 11.0599 12.617 11.0506 12.6655ZM9.253 12.8418C9.24319 12.8794 9.23515 12.8486 9.23515 12.7734C9.23515 12.6982 9.24319 12.6675 9.253 12.7051C9.26284 12.7427 9.26284 12.8042 9.253 12.8418ZM11.0115 13.0952C11.0022 13.1438 10.9942 13.1133 10.9937 13.0273C10.9933 12.9414 11.001 12.9016 11.0107 12.939C11.0205 12.9763 11.0209 13.0466 11.0115 13.0952ZM9.21464 13.2905C9.2053 13.3391 9.1973 13.3086 9.19687 13.2227C9.19644 13.1367 9.20409 13.097 9.21386 13.1343C9.22362 13.1716 9.22397 13.242 9.21464 13.2905ZM4.14093 13.1543C3.33925 13.1645 3.25327 13.172 3.23726 13.2332C3.22413 13.2832 3.21835 13.2779 3.21499 13.2129L3.21046 13.125L4.11866 13.134L5.02687 13.143L4.14093 13.1543ZM5.03495 13.4468C5.02562 13.4954 5.01761 13.4648 5.01718 13.3789C5.01675 13.293 5.0244 13.2532 5.03417 13.2905C5.04394 13.3279 5.04429 13.3982 5.03495 13.4468ZM10.9717 13.5449C10.9619 13.5825 10.9539 13.5518 10.9539 13.4766C10.9539 13.4014 10.9619 13.3706 10.9717 13.4082C10.9816 13.4458 10.9816 13.5073 10.9717 13.5449ZM3.27714 13.6812C3.2678 13.7298 3.25979 13.6992 3.25937 13.6133C3.25894 13.5273 3.26659 13.4876 3.27636 13.5249C3.28612 13.5623 3.28647 13.6326 3.27714 13.6812ZM9.17558 13.7202C9.16624 13.7688 9.15823 13.7383 9.1578 13.6523C9.15737 13.5664 9.16503 13.5266 9.1748 13.564C9.18456 13.6013 9.18491 13.6716 9.17558 13.7202ZM5.07401 13.8765C5.06468 13.9251 5.05667 13.8945 5.05624 13.8086C5.05581 13.7227 5.06347 13.6829 5.07323 13.7202C5.083 13.7576 5.08335 13.8279 5.07401 13.8765ZM10.9334 13.9937C10.9241 14.0423 10.916 14.0117 10.9156 13.9258C10.9152 13.8398 10.9228 13.8001 10.9326 13.8374C10.9424 13.8748 10.9427 13.9451 10.9334 13.9937ZM3.3162 14.1109C3.30687 14.1595 3.29886 14.1289 3.29843 14.043C3.298 13.957 3.30565 13.9173 3.31542 13.9546C3.32519 13.992 3.32554 14.0623 3.3162 14.1109ZM9.13651 14.1499C9.12718 14.1985 9.11917 14.168 9.11874 14.082C9.11831 13.9961 9.12597 13.9563 9.13573 13.9937C9.1455 14.031 9.14585 14.1013 9.13651 14.1499ZM5.11237 14.3262C5.10257 14.3638 5.09452 14.333 5.09452 14.2578C5.09452 14.1826 5.10257 14.1519 5.11237 14.1895C5.12222 14.227 5.12222 14.2886 5.11237 14.3262ZM10.8943 14.4234C10.885 14.472 10.877 14.4414 10.8766 14.3555C10.8761 14.2695 10.8838 14.2298 10.8935 14.2671C10.9033 14.3045 10.9037 14.3748 10.8943 14.4234ZM3.35526 14.5405C3.34593 14.5891 3.33792 14.5586 3.33749 14.4727C3.33706 14.3867 3.34472 14.347 3.35448 14.3843C3.36425 14.4216 3.3646 14.492 3.35526 14.5405ZM9.1089 14.4727C9.1089 14.5264 9.09374 14.5703 9.07526 14.5703C9.05675 14.5703 9.04999 14.5264 9.06026 14.4727C9.07054 14.4189 9.08569 14.375 9.09394 14.375C9.10214 14.375 9.1089 14.4189 9.1089 14.4727ZM5.30925 14.5939C5.29628 14.6069 5.26257 14.6083 5.2344 14.597C5.20323 14.5845 5.21249 14.5753 5.258 14.5734C5.29917 14.5717 5.32222 14.5809 5.30925 14.5939ZM8.70769 14.672C8.69472 14.685 8.66101 14.6864 8.63284 14.6751C8.60167 14.6627 8.61093 14.6534 8.65644 14.6515C8.69761 14.6498 8.72065 14.6591 8.70769 14.672ZM10.8553 14.853C10.8459 14.9016 10.8379 14.8711 10.8375 14.7852C10.8371 14.6992 10.8447 14.6595 10.8545 14.6968C10.8642 14.7341 10.8646 14.8045 10.8553 14.853ZM5.89519 14.7502C5.88222 14.7631 5.84851 14.7645 5.82034 14.7532C5.78917 14.7408 5.79843 14.7315 5.84394 14.7296C5.88511 14.728 5.90815 14.7372 5.89519 14.7502ZM3.39433 14.9702C3.38499 15.0188 3.37698 14.9883 3.37655 14.9023C3.37612 14.8164 3.38378 14.7766 3.39354 14.814C3.40331 14.8513 3.40366 14.9216 3.39433 14.9702ZM8.12175 14.8283C8.10878 14.8413 8.07507 14.8427 8.0469 14.8314C8.01573 14.8189 8.02499 14.8096 8.0705 14.8078C8.11167 14.8061 8.13472 14.8153 8.12175 14.8283ZM6.48112 14.9064C6.46815 14.9194 6.43444 14.9208 6.40628 14.9095C6.37511 14.897 6.38437 14.8878 6.42987 14.8859C6.47105 14.8842 6.49409 14.8934 6.48112 14.9064ZM7.53581 14.9845C7.52284 14.9975 7.48913 14.9989 7.46097 14.9876C7.42979 14.9752 7.43905 14.9659 7.48456 14.964C7.52573 14.9623 7.54878 14.9716 7.53581 14.9845ZM7.06706 15.0627C7.05409 15.0756 7.02038 15.077 6.99222 15.0657C6.96104 15.0533 6.9703 15.044 7.01581 15.0421C7.05698 15.0405 7.08003 15.0497 7.06706 15.0627ZM10.8162 15.2827C10.8069 15.3313 10.7989 15.3008 10.7984 15.2148C10.798 15.1289 10.8057 15.0891 10.8154 15.1265C10.8252 15.1638 10.8255 15.2341 10.8162 15.2827ZM3.43339 15.3999C3.42405 15.4485 3.41604 15.418 3.41562 15.332C3.41519 15.2461 3.42284 15.2063 3.43261 15.2437C3.44237 15.281 3.44272 15.3513 3.43339 15.3999ZM10.7771 15.7124C10.7678 15.761 10.7598 15.7305 10.7594 15.6445C10.7589 15.5586 10.7666 15.5188 10.7764 15.5562C10.7861 15.5935 10.7865 15.6638 10.7771 15.7124ZM3.49101 15.798C3.4996 15.8717 3.49272 15.9234 3.47573 15.9129C3.44515 15.894 3.43069 15.6641 3.46011 15.6641C3.46847 15.6641 3.48237 15.7243 3.49101 15.798ZM10.5436 16.0002C10.5307 16.0131 10.4969 16.0145 10.4688 16.0032C10.4376 15.9908 10.4469 15.9815 10.4924 15.9796C10.5335 15.978 10.5566 15.9872 10.5436 16.0002ZM3.94206 16.0392C3.92909 16.0522 3.89538 16.0536 3.86722 16.0423C3.83604 16.0298 3.8453 16.0206 3.89081 16.0187C3.93198 16.017 3.95503 16.0263 3.94206 16.0392ZM4.91862 16.3127C4.90565 16.3256 4.87194 16.327 4.84378 16.3157C4.81261 16.3033 4.82187 16.294 4.86737 16.2921C4.90855 16.2905 4.93159 16.2997 4.91862 16.3127ZM9.41081 16.3127C9.39784 16.3256 9.36413 16.327 9.33597 16.3157C9.30479 16.3033 9.31405 16.294 9.35956 16.2921C9.40073 16.2905 9.42378 16.2997 9.41081 16.3127ZM5.62175 16.508C5.60878 16.5209 5.57507 16.5223 5.5469 16.5111C5.51573 16.4986 5.52499 16.4893 5.5705 16.4875C5.61167 16.4858 5.63472 16.495 5.62175 16.508ZM8.70769 16.508C8.69472 16.5209 8.66101 16.5223 8.63284 16.5111C8.60167 16.4986 8.61093 16.4893 8.65644 16.4875C8.69761 16.4858 8.72065 16.495 8.70769 16.508ZM8.00456 16.7033C7.99159 16.7163 7.95788 16.7177 7.92972 16.7064C7.89854 16.6939 7.9078 16.6846 7.95331 16.6828C7.99448 16.6811 8.01753 16.6903 8.00456 16.7033ZM6.59831 16.7814C6.58534 16.7944 6.55163 16.7958 6.52347 16.7845C6.49229 16.772 6.50155 16.7628 6.54706 16.7609C6.58823 16.7592 6.61128 16.7684 6.59831 16.7814ZM7.30144 16.8986C7.28847 16.9116 7.25476 16.913 7.22659 16.9017C7.19542 16.8892 7.20468 16.88 7.25019 16.8781C7.29136 16.8764 7.3144 16.8856 7.30144 16.8986Z" fill="white"/>
<path fill-rule="evenodd" clip-rule="evenodd" d="M1.33546 1.34766V2.69531H1.80421H2.27296V2.24609V1.79688H2.66358H3.05421V2.24609V2.69531H3.52296H3.99171V1.34766V0H3.52296H3.05421V0.429688V0.859375H2.66358H2.27296V0.429688V0H1.80421H1.33546V1.34766ZM4.34327 0.449219V0.898438H4.75343H5.16358V1.79688V2.69531H5.6128H6.06202V1.79688V0.898438H6.47218H6.88233V0.449219V0H5.6128H4.34327V0.449219ZM7.2339 1.34766V2.69531H7.70265H8.1714L8.17253 2.08008L8.17362 1.46484L8.45573 1.90352C8.61085 2.14477 8.75202 2.33777 8.7694 2.33242C8.78679 2.32707 8.93147 2.1209 9.09093 1.87422L9.38085 1.42578L9.38159 2.06055L9.38233 2.69531H9.85108H10.3198V1.34766V0H9.82038H9.32089L9.09069 0.380859C8.96405 0.590352 8.83987 0.792695 8.81468 0.830508C8.77483 0.890391 8.7339 0.841016 8.49944 0.450234L8.22999 0.00117187L7.73194 0.000585937L7.2339 0V1.34766ZM10.7105 1.34766V2.69531H11.8237H12.937V2.24609V1.79688H12.2925H11.648V0.898438V0H11.1792H10.7105V1.34766ZM0.0244824 4.11133C0.0369824 4.22414 0.0995215 4.90527 0.163389 5.625C0.631553 10.8991 0.767451 12.4273 0.885888 13.75C0.95999 14.5771 1.08374 15.9655 1.16097 16.8352C1.23815 17.7048 1.3046 18.4179 1.30862 18.4198C1.39085 18.4584 7.05198 20 7.11151 20C7.15843 20 7.79843 19.8325 8.5337 19.6277C9.26901 19.4229 10.0903 19.1948 10.3589 19.1208C10.6275 19.0468 11.2515 18.8737 11.7456 18.7362C12.2398 18.5988 12.701 18.4739 12.7706 18.4589C12.8401 18.4438 12.9053 18.4181 12.9155 18.4017C12.9256 18.3853 13.0317 17.2748 13.1511 15.934C13.2706 14.5931 13.4291 12.8193 13.5033 11.9922C13.628 10.6025 13.7735 8.96758 14.0701 5.625C14.1339 4.90527 14.1964 4.22414 14.2089 4.11133L14.2317 3.90625H7.11671H0.00170898L0.0244824 4.11133ZM12.8979 5.18555C12.8978 5.3634 11.8037 17.4354 11.7861 17.453C11.7664 17.4728 7.43366 18.6921 7.22413 18.7368L7.11671 18.7598V17.8564C7.11671 17.161 7.10546 16.9526 7.06788 16.951C7.04104 16.9498 7.36183 16.8536 7.78077 16.7371C8.19972 16.6207 9.03468 16.3888 9.63624 16.2217L10.73 15.918L10.9713 13.2812C11.104 11.8311 11.2139 10.605 11.2154 10.5566L11.2183 10.4688H9.16749H7.11671V9.57086V8.67297L5.85694 8.66211C5.16405 8.65609 6.12128 8.64707 7.98409 8.64203L11.371 8.63281L11.3911 8.50586C11.4169 8.34316 11.5308 7.11664 11.5308 7.00141V6.91406L7.08741 6.90461C4.64358 6.89941 3.65038 6.89051 4.88038 6.88477L7.11671 6.87437V5.99578V5.11719H10.0073C12.7343 5.11719 12.898 5.12105 12.8979 5.18555ZM2.69116 7.19727C2.68183 7.24563 2.67421 7.20605 2.67421 7.10938C2.67421 7.0127 2.68183 6.97312 2.69116 7.02148C2.70046 7.06984 2.70046 7.14891 2.69116 7.19727ZM2.73069 7.64594C2.72171 7.70531 2.71413 7.66602 2.71382 7.55859C2.71354 7.45117 2.72089 7.40258 2.73015 7.45062C2.7394 7.49867 2.73964 7.58656 2.73069 7.64594ZM2.76976 8.07562C2.76077 8.135 2.75319 8.0957 2.75288 7.98828C2.75261 7.88086 2.75995 7.83227 2.76921 7.88031C2.77847 7.92836 2.7787 8.01625 2.76976 8.07562ZM2.80882 8.50531C2.79983 8.56469 2.79226 8.52539 2.79194 8.41797C2.79167 8.31055 2.79901 8.26195 2.80827 8.31C2.81753 8.35805 2.81776 8.44594 2.80882 8.50531ZM2.84788 8.935C2.8389 8.99437 2.83132 8.95508 2.83101 8.84766C2.83073 8.74023 2.83808 8.69164 2.84733 8.73969C2.85659 8.78773 2.85683 8.87562 2.84788 8.935ZM4.64429 9.0332C4.63495 9.08156 4.62733 9.04199 4.62733 8.94531C4.62733 8.84863 4.63495 8.80906 4.64429 8.85742C4.65358 8.90578 4.65358 8.98484 4.64429 9.0332ZM2.88694 9.36469C2.87796 9.42406 2.87038 9.38477 2.87007 9.27734C2.86979 9.16992 2.87714 9.12133 2.8864 9.16937C2.89565 9.21742 2.89589 9.30531 2.88694 9.36469ZM4.68335 9.46289C4.67401 9.51125 4.6664 9.47168 4.6664 9.375C4.6664 9.27832 4.67401 9.23875 4.68335 9.28711C4.69265 9.33547 4.69265 9.41453 4.68335 9.46289ZM2.92554 9.81445C2.9162 9.86281 2.90858 9.82324 2.90858 9.72656C2.90858 9.62988 2.9162 9.59031 2.92554 9.63867C2.93483 9.68703 2.93483 9.76609 2.92554 9.81445ZM4.72241 9.89258C4.71308 9.94094 4.70546 9.90137 4.70546 9.80469C4.70546 9.70801 4.71308 9.66844 4.72241 9.7168C4.73171 9.76516 4.73171 9.84422 4.72241 9.89258ZM2.9646 10.2441C2.95526 10.2925 2.94765 10.2529 2.94765 10.1562C2.94765 10.0596 2.95526 10.02 2.9646 10.0684C2.9739 10.1167 2.9739 10.1958 2.9646 10.2441ZM4.76147 10.3223C4.75214 10.3706 4.74452 10.3311 4.74452 10.2344C4.74452 10.1377 4.75214 10.0981 4.76147 10.1465C4.77077 10.1948 4.77077 10.2739 4.76147 10.3223ZM3.00366 10.6738C2.99433 10.7222 2.98671 10.6826 2.98671 10.5859C2.98671 10.4893 2.99433 10.4497 3.00366 10.498C3.01296 10.5464 3.01296 10.6255 3.00366 10.6738ZM6.52343 10.498C6.20784 10.5045 5.6805 10.5045 5.35155 10.498C5.02257 10.4914 5.28077 10.4861 5.9253 10.4861C6.56983 10.4861 6.83897 10.4914 6.52343 10.498ZM3.04272 11.1035C3.03339 11.1519 3.02577 11.1123 3.02577 11.0156C3.02577 10.9189 3.03339 10.8794 3.04272 10.9277C3.05202 10.9761 3.05202 11.0552 3.04272 11.1035ZM3.08179 11.5332C3.07245 11.5816 3.06483 11.542 3.06483 11.4453C3.06483 11.3486 3.07245 11.3091 3.08179 11.3574C3.09108 11.4058 3.09108 11.4848 3.08179 11.5332ZM3.12085 11.9629C3.11151 12.0113 3.1039 11.9717 3.1039 11.875C3.1039 11.7783 3.11151 11.7387 3.12085 11.7871C3.13015 11.8355 3.13015 11.9145 3.12085 11.9629ZM6.24558 12.2266H9.31319L9.28972 12.4316C9.27679 12.5444 9.22882 13.0674 9.18311 13.5938C9.13737 14.1201 9.09753 14.5538 9.09452 14.5574C9.08624 14.5676 7.17233 15.0781 7.14265 15.0781C7.12839 15.0781 7.11671 14.4453 7.11671 13.6719V12.2656H5.12452C3.25206 12.2656 3.13253 12.2615 3.13542 12.1973C3.13726 12.1564 3.14644 12.1486 3.15819 12.1777C3.17374 12.2162 3.828 12.2266 6.24558 12.2266ZM5.03007 13.3203L5.03323 13.4961L5.01815 13.3301L5.00304 13.1641H4.1289H3.25472L3.23843 13.2715C3.22339 13.3709 3.22175 13.3694 3.21632 13.2512L3.21046 13.1236L4.11866 13.1341L5.02687 13.1445L5.03007 13.3203ZM3.2771 13.7207C3.26776 13.7691 3.26015 13.7295 3.26015 13.6328C3.26015 13.5361 3.26776 13.4966 3.2771 13.5449C3.2864 13.5933 3.2864 13.6723 3.2771 13.7207ZM5.07397 13.877C5.06464 13.9253 5.05702 13.8857 5.05702 13.7891C5.05702 13.6924 5.06464 13.6528 5.07397 13.7012C5.08327 13.7495 5.08327 13.8286 5.07397 13.877ZM3.31616 14.1504C3.30683 14.1988 3.29921 14.1592 3.29921 14.0625C3.29921 13.9658 3.30683 13.9262 3.31616 13.9746C3.32546 14.023 3.32546 14.102 3.31616 14.1504ZM5.11304 14.3066C5.1037 14.355 5.09608 14.3154 5.09608 14.2188C5.09608 14.1221 5.1037 14.0825 5.11304 14.1309C5.12233 14.1792 5.12233 14.2583 5.11304 14.3066ZM3.35522 14.5801C3.34589 14.6284 3.33827 14.5889 3.33827 14.4922C3.33827 14.3955 3.34589 14.3559 3.35522 14.4043C3.36452 14.4527 3.36452 14.5317 3.35522 14.5801ZM5.30925 14.5939C5.29628 14.6069 5.26257 14.6083 5.2344 14.597C5.20323 14.5845 5.21249 14.5753 5.258 14.5734C5.29917 14.5717 5.32222 14.5809 5.30925 14.5939ZM5.4655 14.633C5.45253 14.6459 5.41882 14.6473 5.39065 14.6361C5.35948 14.6236 5.36874 14.6143 5.41425 14.6125C5.45542 14.6108 5.47847 14.62 5.4655 14.633ZM5.62175 14.672C5.60878 14.685 5.57507 14.6864 5.5469 14.6751C5.51573 14.6627 5.52499 14.6534 5.5705 14.6515C5.61167 14.6498 5.63472 14.6591 5.62175 14.672ZM5.89519 14.7502C5.88222 14.7631 5.84851 14.7645 5.82034 14.7532C5.78917 14.7408 5.79843 14.7315 5.84394 14.7296C5.88511 14.728 5.90815 14.7372 5.89519 14.7502ZM3.39476 15.0287C3.38577 15.0881 3.37819 15.0488 3.37788 14.9414C3.37761 14.834 3.38495 14.7854 3.39421 14.8334C3.40347 14.8815 3.4037 14.9694 3.39476 15.0287ZM6.05144 14.7892C6.03847 14.8022 6.00476 14.8036 5.97659 14.7923C5.94542 14.7798 5.95468 14.7706 6.00019 14.7687C6.04136 14.767 6.0644 14.7763 6.05144 14.7892ZM6.20769 14.8283C6.19472 14.8413 6.16101 14.8427 6.13284 14.8314C6.10167 14.8189 6.11093 14.8096 6.15644 14.8078C6.19761 14.8061 6.22065 14.8153 6.20769 14.8283ZM6.48112 14.9064C6.46815 14.9194 6.43444 14.9208 6.40628 14.9095C6.37511 14.897 6.38437 14.8878 6.42987 14.8859C6.47105 14.8842 6.49409 14.8934 6.48112 14.9064ZM6.63737 14.9455C6.6244 14.9584 6.59069 14.9598 6.56253 14.9486C6.53136 14.9361 6.54062 14.9268 6.58612 14.925C6.6273 14.9233 6.65034 14.9325 6.63737 14.9455ZM6.79362 14.9845C6.78065 14.9975 6.74694 14.9989 6.71878 14.9876C6.68761 14.9752 6.69687 14.9659 6.74237 14.964C6.78355 14.9623 6.80659 14.9716 6.79362 14.9845ZM7.06706 15.0627C7.05409 15.0756 7.02038 15.077 6.99222 15.0657C6.96104 15.0533 6.9703 15.044 7.01581 15.0421C7.05698 15.0405 7.08003 15.0497 7.06706 15.0627ZM3.43382 15.4584C3.42483 15.5178 3.41726 15.4785 3.41694 15.3711C3.41667 15.2637 3.42401 15.2151 3.43327 15.2631C3.44253 15.3112 3.44276 15.3991 3.43382 15.4584ZM3.49132 15.8008C3.50011 15.876 3.49323 15.9375 3.47604 15.9375C3.4589 15.9375 3.44483 15.876 3.44483 15.8008C3.44483 15.7256 3.45171 15.6641 3.46011 15.6641C3.46847 15.6641 3.48253 15.7256 3.49132 15.8008ZM3.78581 16.0002C3.77284 16.0131 3.73913 16.0145 3.71097 16.0032C3.67979 15.9908 3.68905 15.9815 3.73456 15.9796C3.77573 15.978 3.79878 15.9872 3.78581 16.0002ZM4.01124 16.0547C4.0605 16.0759 4.06769 16.0882 4.03077 16.0882C3.99854 16.0882 3.93702 16.0732 3.89405 16.0547C3.84479 16.0335 3.83761 16.0211 3.87452 16.0211C3.90675 16.0211 3.96827 16.0362 4.01124 16.0547ZM4.28468 16.1328C4.33394 16.154 4.34112 16.1664 4.30421 16.1664C4.27198 16.1664 4.21046 16.1513 4.16749 16.1328C4.11823 16.1116 4.11104 16.0993 4.14796 16.0993C4.18019 16.0993 4.24171 16.1143 4.28468 16.1328ZM4.48894 16.1955C4.47597 16.2084 4.44226 16.2098 4.41409 16.1986C4.38292 16.1861 4.39218 16.1768 4.43769 16.175C4.47886 16.1733 4.5019 16.1825 4.48894 16.1955ZM4.76237 16.2736C4.7494 16.2866 4.71569 16.288 4.68753 16.2767C4.65636 16.2642 4.66562 16.255 4.71112 16.2531C4.7523 16.2514 4.77534 16.2606 4.76237 16.2736ZM4.9878 16.3281C5.03706 16.3493 5.04425 16.3617 5.00733 16.3617C4.97511 16.3617 4.91358 16.3466 4.87062 16.3281C4.82136 16.307 4.81417 16.2946 4.85108 16.2946C4.88331 16.2946 4.94483 16.3096 4.9878 16.3281ZM5.19206 16.3908C5.17909 16.4038 5.14538 16.4052 5.11722 16.3939C5.08604 16.3814 5.0953 16.3721 5.14081 16.3703C5.18198 16.3686 5.20503 16.3778 5.19206 16.3908ZM5.4655 16.4689C5.45253 16.4819 5.41882 16.4833 5.39065 16.472C5.35948 16.4595 5.36874 16.4503 5.41425 16.4484C5.45542 16.4467 5.47847 16.4559 5.4655 16.4689ZM5.69093 16.5234C5.74019 16.5446 5.74737 16.557 5.71046 16.557C5.67823 16.557 5.61671 16.5419 5.57374 16.5234C5.52448 16.5023 5.51729 16.4899 5.55421 16.4899C5.58644 16.4899 5.64796 16.505 5.69093 16.5234ZM5.96437 16.6016C6.01362 16.6227 6.02081 16.6351 5.9839 16.6351C5.95167 16.6351 5.89015 16.62 5.84718 16.6016C5.79792 16.5804 5.79073 16.568 5.82765 16.568C5.85987 16.568 5.9214 16.5831 5.96437 16.6016ZM6.16862 16.6642C6.15565 16.6772 6.12194 16.6786 6.09378 16.6673C6.06261 16.6548 6.07187 16.6456 6.11737 16.6437C6.15855 16.642 6.18159 16.6513 6.16862 16.6642ZM6.44206 16.7423C6.42909 16.7553 6.39538 16.7567 6.36722 16.7454C6.33604 16.733 6.3453 16.7237 6.39081 16.7218C6.43198 16.7202 6.45503 16.7294 6.44206 16.7423ZM6.66749 16.7969C6.71675 16.818 6.72394 16.8304 6.68702 16.8304C6.65479 16.8304 6.59327 16.8154 6.5503 16.7969C6.50104 16.7757 6.49386 16.7633 6.53077 16.7633C6.563 16.7633 6.62452 16.7784 6.66749 16.7969ZM6.87175 16.8595C6.85878 16.8725 6.82507 16.8739 6.7969 16.8626C6.76573 16.8502 6.77499 16.8409 6.8205 16.839C6.86167 16.8373 6.88472 16.8466 6.87175 16.8595Z" fill="white"/>
<path fill-rule="evenodd" clip-rule="evenodd" d="M1.33545 1.34766V2.69531H1.8042H2.27295V2.24609V1.79688H2.66357H3.0542V2.24609V2.69531H3.52295H3.9917V1.34766V0H3.52295H3.0542V0.429688V0.859375H2.66357H2.27295V0.429688V0H1.8042H1.33545V1.34766ZM4.34326 0.449219V0.898438H4.75342H5.16357V1.79688V2.69531H5.61279H6.06201V1.79688V0.898438H6.47217H6.88232V0.449219V0H5.61279H4.34326V0.449219ZM7.23389 1.34766V2.69531H7.70264H8.17139L8.17252 2.08008L8.17361 1.46484L8.45572 1.90352C8.61084 2.14477 8.75201 2.33777 8.76939 2.33242C8.78678 2.32707 8.93147 2.1209 9.09092 1.87422L9.38084 1.42578L9.38158 2.06055L9.38232 2.69531H9.85107H10.3198V1.34766V0H9.82037H9.32088L9.09068 0.380859C8.96404 0.590352 8.83986 0.792695 8.81467 0.830508C8.77482 0.890391 8.73389 0.841016 8.49943 0.450234L8.22998 0.00117187L7.73193 0.000585937L7.23389 0V1.34766ZM10.7104 1.34766V2.69531H11.8237H12.937V2.24609V1.79688H12.2925H11.6479V0.898438V0H11.1792H10.7104V1.34766ZM2.92213 9.56055C3.05494 11.0161 3.16537 12.2114 3.16752 12.2168C3.16963 12.2221 4.5533 12.2266 6.24229 12.2266H9.31318L9.28971 12.4316C9.27678 12.5444 9.22881 13.0674 9.18311 13.5938C9.13736 14.1201 9.09752 14.5538 9.09451 14.5574C9.08006 14.5751 7.16064 15.0781 7.10779 15.0781C7.0408 15.0781 5.16229 14.5821 5.13826 14.558C5.12221 14.542 5.00764 13.3982 5.00744 13.252L5.00732 13.1641H4.12842C3.42334 13.1641 3.24951 13.1743 3.24951 13.216C3.24951 13.42 3.49248 15.883 3.51459 15.9031C3.52994 15.9171 4.34525 16.1519 5.32643 16.425L7.11041 16.9217L8.92018 16.4198L10.73 15.918L10.9713 13.2812C11.104 11.8311 11.2138 10.6021 11.2154 10.5502L11.2183 10.456L7.99752 10.4827L4.77682 10.5095L4.75643 10.3817C4.72588 10.1903 4.6167 8.93273 4.6167 8.77238V8.63281H7.99385H11.371L11.3911 8.50586C11.4169 8.34316 11.5308 7.11664 11.5308 7.00141V6.91406H7.10568H2.68064L2.92213 9.56055Z" fill="#808080"/>
<path fill-rule="evenodd" clip-rule="evenodd" d="M1.33545 1.34766V2.69531H1.8042H2.27295V2.24609V1.79688H2.66357H3.0542V2.24609V2.69531H3.52295H3.9917V1.34766V0H3.52295H3.0542V0.429688V0.859375H2.66357H2.27295V0.429688V0H1.8042H1.33545V1.34766ZM4.34326 0.449219V0.898438H4.75342H5.16357V1.79688V2.69531H5.61279H6.06201V1.79688V0.898438H6.47217H6.88232V0.449219V0H5.61279H4.34326V0.449219ZM7.23389 1.34766V2.69531H7.70264H8.17139L8.17252 2.08008L8.17361 1.46484L8.45572 1.90352C8.61084 2.14477 8.75201 2.33777 8.76939 2.33242C8.78678 2.32707 8.93147 2.1209 9.09092 1.87422L9.38084 1.42578L9.38158 2.06055L9.38232 2.69531H9.85107H10.3198V1.34766V0H9.82037H9.32088L9.09068 0.380859C8.96404 0.590352 8.83986 0.792695 8.81467 0.830508C8.77482 0.890391 8.73389 0.841016 8.49943 0.450234L8.22998 0.00117187L7.73193 0.000585937L7.23389 0V1.34766ZM10.7104 1.34766V2.69531H11.8237H12.937V2.24609V1.79688H12.2925H11.6479V0.898438V0H11.1792H10.7104V1.34766Z" fill="white"/>
</svg>
