<svg width="20" height="20" viewBox="0 0 20 20" fill="none" xmlns="http://www.w3.org/2000/svg">
<path fill-rule="evenodd" clip-rule="evenodd" d="M9.43978 0.00458688C8.91619 0.0351674 8.50999 0.0817072 8.08644 0.159668C6.40739 0.468706 4.85093 1.17471 3.54179 2.22111C2.98566 2.66562 2.45006 3.19835 2.01083 3.74387C1.39106 4.51361 0.890963 5.36514 0.522913 6.27735C0.441465 6.47925 0.340416 6.75771 0.344333 6.76948C0.346042 6.7746 0.37545 6.70907 0.409684 6.62384C0.776757 5.70986 1.29126 4.84247 1.92558 4.06822C2.26218 3.65737 2.71454 3.19601 3.13029 2.83955C3.94122 2.14423 4.90319 1.56753 5.92365 1.16493C7.85907 0.401333 9.94024 0.256576 11.9598 0.745083C12.4124 0.854561 12.9356 1.0233 13.3576 1.19584L13.4662 1.24027L13.4196 1.46653C13.1203 2.91883 12.6037 4.27056 11.8588 5.55077C11.3398 6.44274 10.6965 7.3028 9.99056 8.0485L9.84511 8.20214V9.04717C9.84511 9.55578 9.84869 9.8922 9.8541 9.8922C9.85906 9.8922 9.9019 9.86975 9.94933 9.8423C10.3916 9.58636 11.0139 9.34679 11.4803 9.25295C11.7444 9.1998 11.8652 9.18698 12.1508 9.18175C12.8211 9.16948 13.355 9.28515 13.9228 9.56565C14.2933 9.74862 14.5636 9.94169 14.8515 10.2288C15.1377 10.5143 15.3234 10.7741 15.5045 11.1424C15.6813 11.5017 15.7855 11.8526 15.8438 12.2839C15.8628 12.4247 15.8657 12.4904 15.8661 12.7784C15.8663 12.9984 15.8621 13.1451 15.8535 13.213C15.7843 13.7611 15.632 14.1784 15.3368 14.6289C14.8677 15.3448 14.1579 15.8706 13.2607 16.1669C12.8901 16.2892 12.514 16.3654 12.0671 16.4087C11.8785 16.4269 11.3559 16.4238 11.1392 16.4031C10.3598 16.3287 9.53032 16.1143 8.67307 15.7656C8.23906 15.5891 7.56932 15.2561 7.56944 15.2168C7.56947 15.2079 7.57817 15.1412 7.58878 15.0687C7.62554 14.8174 7.66146 14.4101 7.6861 13.965C7.72043 13.3452 7.72079 13.2965 7.71992 9.44531C7.71945 7.35429 7.71674 5.64114 7.7139 5.6383C7.71105 5.63546 7.63892 5.65059 7.5536 5.67193C6.80636 5.85881 5.78701 5.96974 4.26082 6.03026L4.09234 6.03694V6.22116V6.40538L4.16315 6.40542C4.39458 6.40553 4.72618 6.44073 4.90334 6.484C5.26996 6.57352 5.4714 6.74977 5.55024 7.05L5.57204 7.13302V9.16411V11.1952L5.4646 11.2432C4.87535 11.5066 4.08539 11.7825 3.42072 11.9569C2.37937 12.2303 1.41491 12.3713 0.302735 12.413C0.138893 12.4191 0.00294607 12.4259 0.000631283 12.428C-0.0109133 12.4387 0.138561 12.9573 0.229687 13.2228C0.67855 14.5304 1.38499 15.7162 2.33029 16.7486C2.51109 16.9461 2.88533 17.3144 3.07657 17.4831C4.08115 18.3691 5.22741 19.0406 6.48037 19.4771C7.15489 19.712 7.78519 19.8602 8.57151 19.9687L8.76585 19.9956L9.82557 19.9987C10.8461 20.0017 10.8918 20.001 11.0611 19.9815C13.215 19.7332 15.201 18.828 16.8041 17.3641C16.9812 17.2024 17.398 16.7793 17.5404 16.6168C18.5322 15.4847 19.219 14.2505 19.6414 12.8407C19.7867 12.3558 19.8852 11.8892 19.9752 11.2596C19.9963 11.1123 19.997 11.0804 20.0002 10.0729C20.0038 8.95077 20.0053 8.9914 19.9483 8.59319C19.6904 6.79015 18.9255 5.07431 17.7516 3.66573C17.3569 3.19211 16.9108 2.74432 16.4562 2.36552C15.6442 1.68885 14.777 1.16517 13.7861 0.753072C13.6612 0.701131 13.6145 0.684254 13.2147 0.546617C12.3174 0.237686 11.4101 0.0609426 10.4507 0.00817138C10.2918 -0.000570102 9.57181 -0.00311929 9.43978 0.00458688ZM6.3534 2.06562C6.1845 2.07981 5.95995 2.14053 5.82502 2.20846C5.6918 2.27555 5.57587 2.36181 5.44892 2.48825C5.38119 2.55571 5.30696 2.63902 5.28396 2.6734C5.10056 2.94748 5.03015 3.20531 5.04269 3.55689C5.05619 3.93552 5.17836 4.22555 5.43375 4.48532C5.67471 4.73043 5.95218 4.86792 6.2948 4.91199C6.41887 4.92795 6.68953 4.91782 6.80544 4.89287C7.23989 4.79935 7.60203 4.52223 7.79642 4.13455C7.8967 3.93455 7.93475 3.75735 7.93483 3.48993C7.93488 3.29058 7.92351 3.20516 7.87563 3.04553C7.77896 2.72318 7.53241 2.42398 7.2129 2.2413C6.97702 2.10643 6.65386 2.04037 6.3534 2.06562ZM11.4225 10.0009C11.0868 10.0165 10.8003 10.1042 10.56 10.2649C10.4517 10.3374 10.2821 10.5112 10.2034 10.6303C10.0151 10.9155 9.88577 11.3101 9.81162 11.8261C9.71919 12.4692 9.71914 13.3907 9.8115 14.0323C9.95494 15.0286 10.2968 15.5617 10.924 15.7672C11.3008 15.8906 11.8368 15.8919 12.2174 15.7703C12.555 15.6625 12.8284 15.4431 12.9994 15.143C13.214 14.7661 13.3372 14.2647 13.3906 13.55C13.4079 13.3184 13.4135 12.7782 13.4012 12.5146C13.3496 11.4036 13.1215 10.7 12.699 10.3481C12.3811 10.0833 11.9822 9.9748 11.4225 10.0009Z" fill="white"/>
</svg>
