<svg width="1090" height="1090" viewBox="0 0 1090 1090" fill="none" xmlns="http://www.w3.org/2000/svg">
<path fill-rule="evenodd" clip-rule="evenodd" d="M510.962 0.334582C508.762 0.540582 501.337 1.20458 494.462 1.80858C405.677 9.60958 316.543 41.2146 241.753 91.4136C211.146 111.957 187.466 131.59 159.422 159.674C117.279 201.875 87.0632 242.931 60.4062 294.209C28.6292 355.335 9.58515 420.038 1.82315 493.244C-0.335851 513.605 -0.651848 569.697 1.27615 590.244C13.6632 722.274 67.5012 837.864 159.422 929.784C220.85 991.213 292.195 1035.25 374.253 1062.4C450.521 1087.63 532.882 1095.48 613.962 1085.24C706.374 1073.56 796.976 1036.9 870.962 981.241C906.68 954.37 943.34 918.811 971.076 884.134C1031.21 808.952 1070.86 717.121 1084.37 621.744C1088.06 595.655 1088.63 587.659 1089.17 554.187C1089.73 519.488 1088.93 502.5 1085.45 475.244C1062.95 299.075 955.681 144.963 797.462 61.4866C737.989 30.1086 672.765 10.4676 600.462 2.16358C587.787 0.707576 521.431 -0.648418 510.962 0.334582ZM598.962 61.6146C639.236 66.4726 674.011 74.5966 709.361 87.4066C879.535 149.072 1002.95 302.005 1026.36 480.244C1029.75 506.066 1030.77 526.119 1030.17 555.144C1028.87 617.383 1017.8 670.798 994.148 728.919C949.726 838.091 863.372 929.796 755.991 981.832C642.689 1036.74 514.227 1045.53 394.462 1006.56C269.57 965.936 165.074 874.781 107.508 756.244C57.8981 654.091 45.7182 538.183 73.0062 427.904C98.7422 323.897 158.461 231.399 243.772 163.403C279.436 134.978 321.852 110.458 365.962 92.7686C409.256 75.4066 458.293 64.0566 508.462 59.7856C526.873 58.2186 579.643 59.2856 598.962 61.6146ZM520.448 99.7996C385.211 106.819 259.9 176.266 180.494 288.198C137.84 348.326 110.977 418.938 101.92 494.744C99.7252 513.113 98.8962 557.221 100.379 576.744C107.606 671.899 142.592 757.861 203.959 831.244C264.338 903.445 349.356 956.076 440.462 977.651C480.006 987.016 512.466 990.369 554.76 989.458C591.523 988.666 617.958 985.218 652.465 976.713C755.849 951.231 847.85 887.798 910.072 799.097C990.805 684.008 1012.01 534.566 966.49 401.488C932.178 301.179 865.342 218.263 774.231 162.979C711.869 125.138 642.15 103.883 566.962 99.7886C546.336 98.6656 542.283 98.6666 520.448 99.7996ZM658.266 286.049C719.038 295.846 768.295 320.554 810.052 362.189C837.867 389.923 859.253 423.252 872.705 459.827C894.018 517.781 894.15 584.085 873.069 641.96C842.908 724.759 773.778 788.058 689.347 810.183C658.411 818.29 661.089 818.109 566.712 818.494L482.462 818.839V643.291C482.462 539.466 482.831 467.744 483.365 467.744C483.862 467.744 488.924 469.36 494.615 471.334C540.405 487.223 578.013 508.249 598.962 529.671L604.962 535.807L605.462 619.525L605.962 703.244L621.462 703.101C640.039 702.93 652.569 700.975 668.49 695.763C755.204 667.378 797.358 569.857 758.81 486.818C739.319 444.832 701.109 414.164 654.462 403.067C645.876 401.025 640.452 400.47 624.712 400.027L605.462 399.485V414.999V430.512L595.712 428.224C571.515 422.544 536.954 416.594 505.962 412.773C496.612 411.621 487.5 410.447 485.712 410.165L482.462 409.653V346.646V283.638L565.212 284.013C636.275 284.335 649.417 284.623 658.266 286.049ZM418.462 344.382V404.02L412.212 403.411C402.38 402.453 356.462 399.718 328.462 398.423L302.962 397.244L302.704 340.994L302.445 284.744H360.454H418.462V344.382ZM326.962 432.261C350.597 435.696 380.836 441.12 400.962 445.534L417.962 449.262L418.215 634.503L418.467 819.744L386.215 819.729C361.33 819.718 352.533 819.378 347.708 818.24C327.284 813.424 310.198 796.694 304.31 775.744C303.319 772.217 302.977 734.487 302.731 601.274C302.559 507.79 302.629 430.752 302.887 430.078C303.181 429.311 304.594 429.028 306.66 429.321C308.476 429.579 317.612 430.902 326.962 432.261Z" fill="white"/>
</svg>
