<svg width="501" height="500" viewBox="0 0 501 500" fill="none" xmlns="http://www.w3.org/2000/svg">
<path fill-rule="evenodd" clip-rule="evenodd" d="M95.8937 1.53907C69.8215 5.33764 47.6739 16.3185 31.1021 33.6639C22.4334 42.7375 17.9881 49.0252 12.6591 59.7501C7.25014 70.634 3.55553 83.0573 1.61427 96.8821C-0.538922 112.227 -0.537922 388.316 1.61627 403.364C5.2319 428.619 14.6154 448.824 30.5134 465.588C47.7838 483.799 69.4957 494.499 97.0143 498.363C112.572 500.546 387.537 500.546 403.095 498.363C429.852 494.606 449.974 484.952 467.589 467.419C485.063 450.029 494.874 429.396 498.493 402.429C500.663 386.257 500.678 113.761 498.51 97.4159C495.091 71.6476 485.792 51.3343 469.596 34.2567C452.325 16.0456 430.613 5.34563 403.095 1.48209C388.766 -0.529149 109.736 -0.477168 95.8937 1.53907ZM331.971 69.0316C356.915 71.2808 377.361 78.2741 392.001 89.5639C402.912 97.9787 412.692 109.413 417.996 119.958C425.73 135.334 429.224 148.892 431.007 170.452C432.46 188.007 431.735 330.994 430.143 341.033C427.497 357.726 422.249 373.023 414.823 385.69C410.53 393.013 393.146 410.398 385.822 414.691C373.155 422.116 357.858 427.364 341.165 430.01C331.126 431.603 188.139 432.328 170.585 430.875C131.961 427.68 107.377 415.558 88.4445 390.369C78.2993 376.872 71.213 355.478 69.1848 332.219C67.8153 316.523 67.7823 183.393 69.1438 167.953C71.7808 138.038 80.4705 116.636 96.8873 99.6241C113.972 81.9197 134.65 72.5833 163.587 69.5074C178.909 67.879 314.918 67.4952 331.971 69.0316ZM178.581 99.9419C148.481 101.466 134.517 106.394 120.577 120.411C112.398 128.635 109.008 134.235 105.106 145.962C99.8872 161.651 99.6193 166.732 99.6193 249.922C99.6193 331.8 99.9102 337.707 104.686 352.901C108.184 364.026 112.684 371.541 120.56 379.408C131.502 390.335 142.696 395.528 161.961 398.613C171.285 400.107 181.989 400.318 249.555 400.34C331.795 400.366 336.319 400.146 352.516 395.33C363.954 391.929 371.479 387.485 379.682 379.29C390.695 368.283 396.421 355.253 399.189 334.89C401.062 321.114 401.041 177.207 399.164 164.455C396.153 143.996 390.553 131.427 379.549 120.437C371.796 112.694 366.366 109.278 355.676 105.423C341.145 100.181 335.238 99.808 261.55 99.4831C224.164 99.3172 186.828 99.5241 178.581 99.9419ZM354.399 132.197C362.369 134.578 369.01 143.916 369.01 152.742C369.01 156.961 365.805 163.924 362.377 167.151C354.346 174.711 341.719 174.898 333.725 167.574C329.122 163.358 327.025 158.503 327.025 152.056C327.025 145.76 328.33 142.327 332.334 138.093C338.411 131.666 345.914 129.662 354.399 132.197ZM272.838 159.429C301.66 167.054 325.347 187.846 336.643 215.435C341.177 226.511 342.51 234.34 342.515 249.922C342.52 265.221 341.666 270.505 337.278 282.341C327.986 307.405 307.563 327.844 282.542 337.12C270.633 341.536 265.374 342.387 250.055 342.382C231.124 342.376 222.877 340.493 207.571 332.677C181.28 319.253 162.025 292.66 157.965 264.17C156.616 254.695 157.472 234.534 159.553 226.85C166.055 202.821 183.511 180.22 204.572 168.557C214.091 163.286 226.154 159.146 236.56 157.578C243.081 156.595 266.676 157.799 272.838 159.429ZM239.059 189.022C225.58 191.59 213.482 198.299 204.428 208.227C193.291 220.438 187.32 237.085 188.396 252.921C190.606 285.436 213.847 308.873 246.556 311.572C269.662 313.478 294.926 298.842 305.08 277.666C314.23 258.583 314.172 240.783 304.896 221.967C299.648 211.32 288.818 200.115 279.017 195.191C266.659 188.982 251.528 186.646 239.059 189.022Z" fill="white"/>
</svg>
