<svg width="501" height="500" viewBox="0 0 501 500" fill="none" xmlns="http://www.w3.org/2000/svg">
<path fill-rule="evenodd" clip-rule="evenodd" d="M163.845 0.447087C127.944 1.71927 111.026 4.14253 91.8114 10.7633C71.4617 17.7757 56.5168 27.0331 41.8166 41.7333C24.675 58.8749 13.8304 78.2551 7.28149 103.449C0.944482 127.828 0 146.829 0 249.958C0 353.087 0.944482 372.088 7.28149 396.467C13.8304 421.661 24.675 441.041 41.8166 458.182C58.9582 475.324 78.3384 486.169 103.532 492.718C127.927 499.058 146.865 500 250.041 500C353.218 500 372.155 499.058 396.55 492.718C421.744 486.169 441.124 475.324 458.266 458.182C475.407 441.041 486.252 421.661 492.801 396.467C499.138 372.088 500.082 353.087 500.082 249.958C500.082 146.829 499.138 127.828 492.801 103.449C486.252 78.2551 475.407 58.8749 458.266 41.7333C443.565 27.0331 428.621 17.7757 408.271 10.7633C388.591 3.98186 372.668 1.7603 334.04 0.405089C317.979 -0.158483 179.968 -0.124298 163.845 0.447087ZM321.098 45.3306C354.416 46.1472 368.359 47.2406 380.923 50.0219C393.231 52.7464 405.894 57.9695 414.737 63.9695C421.16 68.3272 432.024 79.2734 436.234 85.6294C442.37 94.8951 447.257 106.786 449.977 119.076C454.069 137.56 455.136 164.633 455.136 249.958C455.136 335.283 454.069 362.356 449.977 380.839C447.257 393.129 442.37 405.021 436.234 414.286C432.024 420.642 421.16 431.589 414.737 435.946C405.894 441.946 393.231 447.169 380.923 449.894C362.391 453.996 335.633 455.05 250.041 455.05C164.449 455.05 137.692 453.996 119.16 449.894C106.851 447.169 94.1887 441.946 85.3449 435.946C78.922 431.589 68.0583 420.642 63.8486 414.286C57.7119 405.021 52.8253 393.129 50.1051 380.839C46.0136 362.356 44.9465 335.283 44.9465 249.958C44.9465 150.745 46.2226 128.96 53.2858 107.6C57.9043 93.6332 63.7974 84.0217 73.9553 73.8887C81.8556 66.0074 86.9751 62.2959 95.8448 58.0188C114.367 49.0871 131.225 46.4348 176.298 45.3599C198.886 44.8218 299.505 44.8008 321.098 45.3306ZM378.499 86.9021C369.948 88.1919 361.358 94.0776 357.103 101.565C352.153 110.271 351.86 121.175 356.33 130.309C358.819 135.396 364.603 141.18 369.69 143.669C378.844 148.149 389.66 147.849 398.504 142.872C404.736 139.365 410.609 131.603 412.49 124.388C413.473 120.618 413.581 113.48 412.712 109.798C410.699 101.269 404.667 93.6371 397.003 89.9207C394.739 88.8233 391.899 87.6967 390.69 87.4178C387.19 86.6096 381.918 86.3864 378.499 86.9021ZM234.902 122.3C195.275 127.075 160.556 149.443 139.953 183.471C115.445 223.949 115.445 275.967 139.953 316.445C148.911 331.24 160.936 344.287 174.833 354.291C219.577 386.499 280.505 386.499 325.249 354.291C373.752 319.377 391.676 255.264 368.439 199.801C352.25 161.16 316.906 132.207 275.924 124.013C263.515 121.531 247 120.842 234.902 122.3ZM256.878 166.964C280.322 169.107 301.428 180.558 315.695 198.877C337.159 226.434 339.156 263.675 320.785 293.79C314.607 303.918 304.001 314.523 293.873 320.702C266.483 337.41 233.599 337.41 206.209 320.702C196.397 314.716 186.336 304.804 179.895 294.777C170.349 279.916 165.495 260.699 167.002 243.731C170.863 200.252 205.35 167.803 249.064 166.516C250.273 166.48 253.789 166.682 256.878 166.964Z" fill="white"/>
</svg>
