<svg width="15" height="15" viewBox="0 0 18 19" fill="none" xmlns="http://www.w3.org/2000/svg">
<path fill-rule="evenodd" clip-rule="evenodd" d="M13 0.757324H5C2.23858 0.757324 0 2.9959 0 5.75732V13.7573C0 16.5187 2.23858 18.7573 5 18.7573H13C15.7614 18.7573 18 16.5187 18 13.7573V5.75732C18 2.9959 15.7614 0.757324 13 0.757324ZM16.25 13.7573C16.2445 15.5499 14.7926 17.0018 13 17.0073H5C3.20735 17.0018 1.75549 15.5499 1.75 13.7573V5.75732C1.75549 3.96467 3.20735 2.51281 5 2.50732H13C14.7926 2.51281 16.2445 3.96467 16.25 5.75732V13.7573ZM13.75 6.00732C14.3023 6.00732 14.75 5.5596 14.75 5.00732C14.75 4.45504 14.3023 4.00732 13.75 4.00732C13.1977 4.00732 12.75 4.45504 12.75 5.00732C12.75 5.5596 13.1977 6.00732 13.75 6.00732ZM9 5.25732C6.51472 5.25732 4.5 7.27204 4.5 9.75732C4.5 12.2426 6.51472 14.2573 9 14.2573C11.4853 14.2573 13.5 12.2426 13.5 9.75732C13.5027 8.56302 13.0294 7.41689 12.1849 6.5724C11.3404 5.72791 10.1943 5.25466 9 5.25732ZM6.25 9.75732C6.25 11.2761 7.4812 12.5073 9 12.5073C10.5188 12.5073 11.75 11.2761 11.75 9.75732C11.75 8.23852 10.5188 7.00732 9 7.00732C7.4812 7.00732 6.25 8.23852 6.25 9.75732Z" fill="white"/>
</svg>
