<svg width="25" height="14" viewBox="0 0 25 14" fill="none" xmlns="http://www.w3.org/2000/svg">
<path fill-rule="evenodd" clip-rule="evenodd" d="M10.5601 0.0917198C12.9129 0.562689 14.5569 2.52791 14.9093 5.29085C14.9665 5.7393 14.9662 6.71751 14.9087 7.26955C14.7472 8.81992 14.1142 10.2184 13.1404 11.1763C12.3607 11.9432 11.4368 12.4188 10.3755 12.5995C9.859 12.6873 8.83703 12.6629 8.33625 12.5506C6.06677 12.0419 4.55469 10.3273 4.09942 7.74617C3.98838 7.11679 3.98739 5.54404 4.09757 4.85379C4.42041 2.8313 5.59509 1.14922 7.17305 0.449797C7.60314 0.259167 8.21534 0.0831315 8.6404 0.0278647C9.07908 -0.0291375 10.1311 0.00583815 10.5601 0.0917198ZM2.18191 0.273005L2.27743 0.342245L2.27679 6.2469C2.2764 9.49442 2.26192 12.1735 2.24456 12.2004C2.16008 12.3315 2.00659 12.3522 1.15487 12.3479C0.314973 12.3437 0.102613 12.3165 0.0337749 12.2043C0.0158992 12.1753 0.00103126 9.49442 0.00064453 6.2469L0 0.342245L0.0955231 0.273005C0.237025 0.170348 2.04041 0.170348 2.18191 0.273005ZM24.0538 0.273005C24.1476 0.340954 24.1494 0.3604 24.1494 1.31021C24.1494 2.07558 24.1366 2.29621 24.0884 2.36451C24.0303 2.44688 23.9533 2.45155 22.4341 2.46494L20.8406 2.47905V6.12492V9.77084H19.8784C19.0406 9.77084 18.9128 9.77997 18.8901 9.84124C18.8757 9.87995 18.864 10.4366 18.864 11.0783C18.864 12.2797 18.8542 12.3517 18.6902 12.3517C18.6513 12.3517 18.5876 12.3152 18.5486 12.2706C18.4837 12.1964 18.4767 11.7741 18.4667 7.32802L18.4558 2.46664L16.9272 2.4714C15.4344 2.47607 15.396 2.47398 15.2836 2.38244L15.1685 2.28869V1.34359C15.1685 0.45398 15.1737 0.392795 15.2562 0.301128L15.3438 0.203722H19.651C23.48 0.203722 23.969 0.21142 24.0538 0.273005ZM8.83041 2.18185C7.89418 2.35819 7.19247 2.97734 6.75297 4.01477C6.45974 4.70703 6.33633 5.58507 6.37259 6.72116C6.41969 8.19445 6.74214 9.11783 7.44857 9.80217C7.95244 10.2903 8.47948 10.5161 9.21122 10.5575C9.83622 10.5929 10.2984 10.5007 10.808 10.2387C11.6412 9.81049 12.155 9.05215 12.4307 7.84363C12.5136 7.48034 12.5238 7.31298 12.5219 6.34448C12.5197 5.26735 12.5181 5.24791 12.3847 4.72563C12.3092 4.43012 12.1612 4.00819 12.049 3.76892C11.8802 3.40875 11.7897 3.28006 11.4781 2.95776C11.191 2.66074 11.0355 2.53908 10.7856 2.41591C10.2163 2.13543 9.51957 2.05205 8.83041 2.18185ZM22.9363 8.86975L22.9479 9.77084H22.0447H21.1414V8.85774V7.94459L22.0331 7.95665L22.9247 7.96867L22.9363 8.86975ZM24.9818 8.86975L25 9.77084H24.102H23.204V8.85774V7.94459L24.0838 7.95665L24.9637 7.96867L24.9818 8.86975ZM20.8308 11.0158L20.8424 11.9531L19.9713 11.9411L19.1003 11.929L19.0886 11.0403C19.0822 10.5515 19.0862 10.1265 19.0976 10.0959C19.1135 10.053 19.3136 10.0446 19.9687 10.0593L20.8192 10.0785L20.8308 11.0158ZM22.9363 11.0057L22.9479 11.9513H22.0447H21.1414V11.0242C21.1414 10.5143 21.1539 10.0842 21.1691 10.0685C21.1844 10.0527 21.5856 10.0444 22.0608 10.0499L22.9247 10.0601L22.9363 11.0057ZM24.9873 10.9945V11.929L24.0956 11.941L23.204 11.9531V11.0251C23.204 10.5147 23.2122 10.0888 23.2223 10.0786C23.2323 10.0684 23.6335 10.0601 24.1139 10.0601H24.9873V10.9945ZM20.8406 13.1082V13.9982H19.963H19.0853L19.0807 13.1393C19.0782 12.6668 19.0897 12.2663 19.1062 12.2493C19.1226 12.2322 19.5196 12.2182 19.9884 12.2182H20.8406V13.1082ZM22.9363 13.1193L22.948 13.9982H22.0447H21.1414V13.1073V12.2164L22.0331 12.2285L22.9247 12.2405L22.9363 13.1193ZM24.9873 13.1082V13.9759L24.0956 13.9879L23.204 14V13.1082V12.2164L24.0956 12.2285L24.9873 12.2405V13.1082Z" fill="white"/>
</svg>
