<svg width="15" height="20" viewBox="0 0 15 20" fill="none" xmlns="http://www.w3.org/2000/svg">
<path fill-rule="evenodd" clip-rule="evenodd" d="M9.19857 0.0337665C9.16894 0.0633903 9.16128 0.21573 9.17492 0.503682C9.20717 1.1835 9.08425 1.74237 8.7718 2.33696C8.5787 2.70444 8.28562 2.97387 7.30464 3.6857C6.86599 4.00401 6.37223 4.37658 6.20739 4.51364C5.36647 5.21284 4.76145 6.08479 4.62041 6.80072C4.47264 7.5507 4.7579 8.45063 5.43576 9.37303C5.73865 9.78518 6.79744 10.8461 6.94208 10.8824C7.08414 10.9181 7.17235 10.8531 7.16735 10.7165C7.16508 10.6547 7.06609 10.3843 6.9474 10.1156C6.52461 9.15867 6.26679 8.30786 6.17335 7.56152C6.06978 6.73432 6.1773 6.58238 7.85538 5.18396C9.16277 4.09445 9.67732 3.47008 9.92232 2.67583C10.1425 1.96228 10.0242 1.03515 9.61682 0.281035C9.49363 0.0530337 9.45486 0.0112947 9.3572 0.00148523C9.29404 -0.00484597 9.22268 0.00965326 9.19857 0.0337665ZM10.6302 4.30713C8.72252 5.1654 7.61761 6.01898 7.28502 6.89135C7.22632 7.04537 7.21221 7.17372 7.2185 7.49712C7.23289 8.23908 7.43584 8.7877 7.94253 9.45443C8.39279 10.0469 8.40252 10.0646 8.40252 10.2887C8.40252 10.5228 8.32521 10.8427 8.18233 11.1999C8.10018 11.4052 8.08916 11.4703 8.12375 11.5462C8.19089 11.6936 8.3294 11.6648 8.58612 11.4502C9.57012 10.6275 9.90743 9.72109 9.5555 8.84543C9.495 8.69496 9.31609 8.36754 9.15788 8.11781C8.99972 7.86812 8.84191 7.5806 8.80728 7.47891C8.59878 6.86697 9.07042 6.21814 10.6827 4.89878C11.0536 4.59532 11.2945 4.37091 11.2945 4.32894C11.2945 4.08417 11.1372 4.07901 10.6302 4.30713ZM12.8773 10.5432C12.5944 10.5894 12.2489 10.6954 11.9661 10.8226C11.7296 10.9291 11.7198 10.9391 11.7316 11.0613C11.7461 11.2107 11.7747 11.2224 12.2835 11.2866C13.2648 11.4103 13.7504 11.9369 13.4422 12.5427C13.2229 12.9738 12.5313 13.6841 11.8506 14.1774C11.6315 14.3363 11.4412 14.5006 11.4279 14.5427C11.4121 14.5922 11.4319 14.6474 11.4839 14.6994C11.5592 14.7747 11.578 14.7765 11.7908 14.7292C11.9155 14.7014 12.2175 14.611 12.4618 14.5283C13.6105 14.1391 14.38 13.5959 14.6974 12.9499C14.823 12.6944 14.8314 12.6526 14.8314 12.2855C14.8314 11.8247 14.7656 11.5757 14.5496 11.2185C14.3751 10.9302 14.1455 10.7359 13.8471 10.6243C13.6023 10.5327 13.1652 10.4962 12.8773 10.5432ZM3.96677 10.8196C3.07528 10.8837 2.33074 11.0541 1.92906 11.286C1.77844 11.3729 1.70634 11.447 1.64091 11.5821C1.32271 12.2395 2.11654 12.7605 3.75182 12.9674C4.77525 13.0968 6.86154 13.0877 7.96711 12.9489C9.19544 12.7947 10.39 12.4447 11.097 12.0319C11.4242 11.8407 11.49 11.7787 11.49 11.6613C11.49 11.4725 11.4134 11.4626 10.8337 11.5758C9.8363 11.7706 8.79009 11.8652 7.17219 11.9068C5.463 11.9507 3.52257 11.856 3.38872 11.7222C3.31606 11.6495 4.10719 11.3468 4.72886 11.2095C4.84708 11.1834 4.98336 11.1372 5.03174 11.1068C5.12722 11.047 5.1484 10.9025 5.07278 10.8269C5.02127 10.7754 4.61924 10.7727 3.96677 10.8196ZM3.906 13.1815C3.30864 13.3648 3.01983 13.577 2.9818 13.8604C2.941 14.1648 3.20128 14.4141 3.77625 14.6216C4.8864 15.022 6.46498 15.0825 8.46114 14.8011C9.29506 14.6836 10.796 14.376 10.8744 14.3066C10.9671 14.2246 10.9604 14.1316 10.8549 14.0349C10.674 13.8691 10.0269 13.4375 9.95917 13.4375C9.92048 13.4375 9.62913 13.4898 9.31175 13.5538C8.32662 13.7524 7.60826 13.8312 6.56342 13.8556C5.39477 13.8827 4.39659 13.7961 4.1247 13.644C4.05846 13.6069 4.06697 13.5932 4.21431 13.5002C4.34535 13.4175 4.37713 13.3749 4.37713 13.2821C4.37713 13.208 4.35008 13.1522 4.30154 13.1262C4.25996 13.104 4.22037 13.0869 4.21361 13.0883C4.20681 13.0898 4.06838 13.1317 3.906 13.1815ZM4.30545 15.2561C3.81146 15.3633 3.55684 15.5994 3.55657 15.9504C3.55638 16.1694 3.61699 16.3012 3.79735 16.474C4.18082 16.8414 5.27944 17.0874 6.76473 17.1384C8.02687 17.1817 9.25406 16.9929 10.2882 16.5963C10.5332 16.5024 10.5957 16.4614 10.6157 16.3818C10.633 16.3128 10.6184 16.2621 10.5669 16.2123C10.4234 16.0737 9.51087 15.5479 9.41391 15.5479C9.3597 15.5479 8.92969 15.6095 8.45836 15.6847C7.73825 15.7996 7.50142 15.8215 6.97581 15.8215C6.19195 15.8215 5.01513 15.6914 4.8445 15.586C4.80182 15.5596 4.80159 15.5429 4.84321 15.4928C4.9143 15.4071 4.86525 15.2495 4.7586 15.2209C4.64124 15.1895 4.59645 15.193 4.30545 15.2561ZM2.30581 16.6678C1.15423 16.7717 0.38038 16.9933 0.115525 17.295C0.0200879 17.4037 0 17.4609 0 17.6245C0 18.4563 1.12609 18.833 4.08401 18.9903C5.15911 19.0475 7.93053 19.0146 8.83241 18.934C11.5946 18.687 13.5002 18.1503 13.8216 17.5288C13.983 17.2169 13.6787 16.6628 13.3864 16.7361C13.2845 16.7617 13.2349 16.8953 13.2896 16.9974C13.3526 17.1152 13.2905 17.1814 13.0201 17.2848C12.2383 17.5835 10.4945 17.8663 8.51976 18.0146C7.73809 18.0733 5.42037 18.0733 4.68978 18.0146C3.16869 17.8925 1.89107 17.6846 1.57557 17.5081C1.52078 17.4774 1.53492 17.459 1.66389 17.3932C1.86055 17.2929 2.52435 17.0898 2.85295 17.0294C2.99266 17.0037 3.13773 16.967 3.17537 16.9479C3.27073 16.8993 3.26592 16.6959 3.16818 16.6436C3.08068 16.5967 3.09877 16.5962 2.30581 16.6678ZM14.23 17.9708C13.4229 18.5793 12.1129 18.9892 10.4738 19.1462C9.85498 19.2055 5.33564 19.2362 4.04493 19.1899C3.39727 19.1666 2.96331 19.1659 2.92134 19.1881C2.82567 19.2387 2.83094 19.4415 2.92931 19.4942C3.15247 19.6136 5.18932 19.89 6.4214 19.9681C7.46343 20.0341 9.66794 19.9926 10.5911 19.8897C12.4305 19.6844 13.2588 19.4707 13.897 19.0368C14.3694 18.7157 14.7522 18.1706 14.6701 17.9359C14.614 17.7752 14.4748 17.7862 14.23 17.9708Z" fill="white"/>
<path fill-rule="evenodd" clip-rule="evenodd" d="M9.19857 0.0337665C9.16894 0.0633903 9.16128 0.21573 9.17492 0.503682C9.20717 1.1835 9.08425 1.74237 8.7718 2.33696C8.5787 2.70444 8.28562 2.97387 7.30464 3.6857C6.86599 4.00401 6.37223 4.37658 6.20739 4.51364C5.36647 5.21284 4.76145 6.08479 4.62041 6.80072C4.47264 7.5507 4.7579 8.45063 5.43576 9.37303C5.73865 9.78518 6.79744 10.8461 6.94208 10.8824C7.08414 10.9181 7.17235 10.8531 7.16735 10.7165C7.16508 10.6547 7.06609 10.3843 6.9474 10.1156C6.52461 9.15867 6.26679 8.30786 6.17335 7.56152C6.06978 6.73432 6.1773 6.58238 7.85538 5.18396C9.16277 4.09445 9.67732 3.47008 9.92232 2.67583C10.1425 1.96228 10.0242 1.03515 9.61682 0.281035C9.49363 0.0530337 9.45486 0.0112947 9.3572 0.00148523C9.29404 -0.00484597 9.22268 0.00965326 9.19857 0.0337665ZM10.6302 4.30713C8.72252 5.1654 7.61761 6.01898 7.28502 6.89135C7.22632 7.04537 7.21221 7.17372 7.2185 7.49712C7.23289 8.23908 7.43584 8.7877 7.94253 9.45443C8.39279 10.0469 8.40252 10.0646 8.40252 10.2887C8.40252 10.5228 8.32521 10.8427 8.18233 11.1999C8.10018 11.4052 8.08916 11.4703 8.12375 11.5462C8.19089 11.6936 8.3294 11.6648 8.58612 11.4502C9.57012 10.6275 9.90743 9.72109 9.5555 8.84543C9.495 8.69496 9.31609 8.36754 9.15788 8.11781C8.99972 7.86812 8.84191 7.5806 8.80728 7.47891C8.59878 6.86697 9.07042 6.21814 10.6827 4.89878C11.0536 4.59532 11.2945 4.37091 11.2945 4.32894C11.2945 4.08417 11.1372 4.07901 10.6302 4.30713ZM12.8773 10.5432C12.5944 10.5894 12.2489 10.6954 11.9661 10.8226C11.7296 10.9291 11.7198 10.9391 11.7316 11.0613C11.7461 11.2107 11.7747 11.2224 12.2835 11.2866C13.2648 11.4103 13.7504 11.9369 13.4422 12.5427C13.2229 12.9738 12.5313 13.6841 11.8506 14.1774C11.6315 14.3363 11.4412 14.5006 11.4279 14.5427C11.4121 14.5922 11.4319 14.6474 11.4839 14.6994C11.5592 14.7747 11.578 14.7765 11.7908 14.7292C11.9155 14.7014 12.2175 14.611 12.4618 14.5283C13.6105 14.1391 14.38 13.5959 14.6974 12.9499C14.823 12.6944 14.8314 12.6526 14.8314 12.2855C14.8314 11.8247 14.7656 11.5757 14.5496 11.2185C14.3751 10.9302 14.1455 10.7359 13.8471 10.6243C13.6023 10.5327 13.1652 10.4962 12.8773 10.5432ZM3.96677 10.8196C3.07528 10.8837 2.33074 11.0541 1.92906 11.286C1.77844 11.3729 1.70634 11.447 1.64091 11.5821C1.32271 12.2395 2.11654 12.7605 3.75182 12.9674C4.77525 13.0968 6.86154 13.0877 7.96711 12.9489C9.19544 12.7947 10.39 12.4447 11.097 12.0319C11.4242 11.8407 11.49 11.7787 11.49 11.6613C11.49 11.4725 11.4134 11.4626 10.8337 11.5758C9.8363 11.7706 8.79009 11.8652 7.17219 11.9068C5.463 11.9507 3.52257 11.856 3.38872 11.7222C3.31606 11.6495 4.10719 11.3468 4.72886 11.2095C4.84708 11.1834 4.98336 11.1372 5.03174 11.1068C5.12722 11.047 5.1484 10.9025 5.07278 10.8269C5.02127 10.7754 4.61924 10.7727 3.96677 10.8196ZM3.906 13.1815C3.30864 13.3648 3.01983 13.577 2.9818 13.8604C2.941 14.1648 3.20128 14.4141 3.77625 14.6216C4.8864 15.022 6.46498 15.0825 8.46114 14.8011C9.29506 14.6836 10.796 14.376 10.8744 14.3066C10.9671 14.2246 10.9604 14.1316 10.8549 14.0349C10.674 13.8691 10.0269 13.4375 9.95917 13.4375C9.92048 13.4375 9.62913 13.4898 9.31175 13.5538C8.32662 13.7524 7.60826 13.8312 6.56342 13.8556C5.39477 13.8827 4.39659 13.7961 4.1247 13.644C4.05846 13.6069 4.06697 13.5932 4.21431 13.5002C4.34535 13.4175 4.37713 13.3749 4.37713 13.2821C4.37713 13.208 4.35008 13.1522 4.30154 13.1262C4.25996 13.104 4.22037 13.0869 4.21361 13.0883C4.20681 13.0898 4.06838 13.1317 3.906 13.1815ZM4.30545 15.2561C3.81146 15.3633 3.55684 15.5994 3.55657 15.9504C3.55638 16.1694 3.61699 16.3012 3.79735 16.474C4.18082 16.8414 5.27944 17.0874 6.76473 17.1384C8.02687 17.1817 9.25406 16.9929 10.2882 16.5963C10.5332 16.5024 10.5957 16.4614 10.6157 16.3818C10.633 16.3128 10.6184 16.2621 10.5669 16.2123C10.4234 16.0737 9.51087 15.5479 9.41391 15.5479C9.3597 15.5479 8.92969 15.6095 8.45836 15.6847C7.73825 15.7996 7.50142 15.8215 6.97581 15.8215C6.19195 15.8215 5.01513 15.6914 4.8445 15.586C4.80182 15.5596 4.80159 15.5429 4.84321 15.4928C4.9143 15.4071 4.86525 15.2495 4.7586 15.2209C4.64124 15.1895 4.59645 15.193 4.30545 15.2561ZM2.30581 16.6678C1.15423 16.7717 0.38038 16.9933 0.115525 17.295C0.0200879 17.4037 0 17.4609 0 17.6245C0 18.4563 1.12609 18.833 4.08401 18.9903C5.15911 19.0475 7.93053 19.0146 8.83241 18.934C11.5946 18.687 13.5002 18.1503 13.8216 17.5288C13.983 17.2169 13.6787 16.6628 13.3864 16.7361C13.2845 16.7617 13.2349 16.8953 13.2896 16.9974C13.3526 17.1152 13.2905 17.1814 13.0201 17.2848C12.2383 17.5835 10.4945 17.8663 8.51976 18.0146C7.73809 18.0733 5.42037 18.0733 4.68978 18.0146C3.16869 17.8925 1.89107 17.6846 1.57557 17.5081C1.52078 17.4774 1.53492 17.459 1.66389 17.3932C1.86055 17.2929 2.52435 17.0898 2.85295 17.0294C2.99266 17.0037 3.13773 16.967 3.17537 16.9479C3.27073 16.8993 3.26592 16.6959 3.16818 16.6436C3.08068 16.5967 3.09877 16.5962 2.30581 16.6678ZM14.23 17.9708C13.4229 18.5793 12.1129 18.9892 10.4738 19.1462C9.85498 19.2055 5.33564 19.2362 4.04493 19.1899C3.39727 19.1666 2.96331 19.1659 2.92134 19.1881C2.82567 19.2387 2.83094 19.4415 2.92931 19.4942C3.15247 19.6136 5.18932 19.89 6.4214 19.9681C7.46343 20.0341 9.66794 19.9926 10.5911 19.8897C12.4305 19.6844 13.2588 19.4707 13.897 19.0368C14.3694 18.7157 14.7522 18.1706 14.6701 17.9359C14.614 17.7752 14.4748 17.7862 14.23 17.9708Z" fill="white"/>
<path fill-rule="evenodd" clip-rule="evenodd" d="M9.19857 0.0337665C9.16894 0.0633903 9.16128 0.21573 9.17492 0.503682C9.20717 1.1835 9.08425 1.74237 8.7718 2.33696C8.5787 2.70444 8.28562 2.97387 7.30464 3.6857C6.86599 4.00401 6.37223 4.37658 6.20739 4.51364C5.36647 5.21284 4.76145 6.08479 4.62041 6.80072C4.47264 7.5507 4.7579 8.45063 5.43576 9.37303C5.73865 9.78518 6.79744 10.8461 6.94208 10.8824C7.08414 10.9181 7.17235 10.8531 7.16735 10.7165C7.16508 10.6547 7.06609 10.3843 6.9474 10.1156C6.52461 9.15867 6.26679 8.30786 6.17335 7.56152C6.06978 6.73432 6.1773 6.58238 7.85538 5.18396C9.16277 4.09445 9.67732 3.47008 9.92232 2.67583C10.1425 1.96228 10.0242 1.03515 9.61682 0.281035C9.49363 0.0530337 9.45486 0.0112947 9.3572 0.00148523C9.29404 -0.00484597 9.22268 0.00965326 9.19857 0.0337665ZM10.6302 4.30713C8.72252 5.1654 7.61761 6.01898 7.28502 6.89135C7.22632 7.04537 7.21221 7.17372 7.2185 7.49712C7.23289 8.23908 7.43584 8.7877 7.94253 9.45443C8.39279 10.0469 8.40252 10.0646 8.40252 10.2887C8.40252 10.5228 8.32521 10.8427 8.18233 11.1999C8.10018 11.4052 8.08916 11.4703 8.12375 11.5462C8.19089 11.6936 8.3294 11.6648 8.58612 11.4502C9.57012 10.6275 9.90743 9.72109 9.5555 8.84543C9.495 8.69496 9.31609 8.36754 9.15788 8.11781C8.99972 7.86812 8.84191 7.5806 8.80728 7.47891C8.59878 6.86697 9.07042 6.21814 10.6827 4.89878C11.0536 4.59532 11.2945 4.37091 11.2945 4.32894C11.2945 4.08417 11.1372 4.07901 10.6302 4.30713ZM12.8773 10.5432C12.5944 10.5894 12.2489 10.6954 11.9661 10.8226C11.7296 10.9291 11.7198 10.9391 11.7316 11.0613C11.7461 11.2107 11.7747 11.2224 12.2835 11.2866C13.2648 11.4103 13.7504 11.9369 13.4422 12.5427C13.2229 12.9738 12.5313 13.6841 11.8506 14.1774C11.6315 14.3363 11.4412 14.5006 11.4279 14.5427C11.4121 14.5922 11.4319 14.6474 11.4839 14.6994C11.5592 14.7747 11.578 14.7765 11.7908 14.7292C11.9155 14.7014 12.2175 14.611 12.4618 14.5283C13.6105 14.1391 14.38 13.5959 14.6974 12.9499C14.823 12.6944 14.8314 12.6526 14.8314 12.2855C14.8314 11.8247 14.7656 11.5757 14.5496 11.2185C14.3751 10.9302 14.1455 10.7359 13.8471 10.6243C13.6023 10.5327 13.1652 10.4962 12.8773 10.5432ZM3.96677 10.8196C3.07528 10.8837 2.33074 11.0541 1.92906 11.286C1.77844 11.3729 1.70634 11.447 1.64091 11.5821C1.32271 12.2395 2.11654 12.7605 3.75182 12.9674C4.77525 13.0968 6.86154 13.0877 7.96711 12.9489C9.19544 12.7947 10.39 12.4447 11.097 12.0319C11.4242 11.8407 11.49 11.7787 11.49 11.6613C11.49 11.4725 11.4134 11.4626 10.8337 11.5758C9.8363 11.7706 8.79009 11.8652 7.17219 11.9068C5.463 11.9507 3.52257 11.856 3.38872 11.7222C3.31606 11.6495 4.10719 11.3468 4.72886 11.2095C4.84708 11.1834 4.98336 11.1372 5.03174 11.1068C5.12722 11.047 5.1484 10.9025 5.07278 10.8269C5.02127 10.7754 4.61924 10.7727 3.96677 10.8196ZM3.906 13.1815C3.30864 13.3648 3.01983 13.577 2.9818 13.8604C2.941 14.1648 3.20128 14.4141 3.77625 14.6216C4.8864 15.022 6.46498 15.0825 8.46114 14.8011C9.29506 14.6836 10.796 14.376 10.8744 14.3066C10.9671 14.2246 10.9604 14.1316 10.8549 14.0349C10.674 13.8691 10.0269 13.4375 9.95917 13.4375C9.92048 13.4375 9.62913 13.4898 9.31175 13.5538C8.32662 13.7524 7.60826 13.8312 6.56342 13.8556C5.39477 13.8827 4.39659 13.7961 4.1247 13.644C4.05846 13.6069 4.06697 13.5932 4.21431 13.5002C4.34535 13.4175 4.37713 13.3749 4.37713 13.2821C4.37713 13.208 4.35008 13.1522 4.30154 13.1262C4.25996 13.104 4.22037 13.0869 4.21361 13.0883C4.20681 13.0898 4.06838 13.1317 3.906 13.1815ZM4.30545 15.2561C3.81146 15.3633 3.55684 15.5994 3.55657 15.9504C3.55638 16.1694 3.61699 16.3012 3.79735 16.474C4.18082 16.8414 5.27944 17.0874 6.76473 17.1384C8.02687 17.1817 9.25406 16.9929 10.2882 16.5963C10.5332 16.5024 10.5957 16.4614 10.6157 16.3818C10.633 16.3128 10.6184 16.2621 10.5669 16.2123C10.4234 16.0737 9.51087 15.5479 9.41391 15.5479C9.3597 15.5479 8.92969 15.6095 8.45836 15.6847C7.73825 15.7996 7.50142 15.8215 6.97581 15.8215C6.19195 15.8215 5.01513 15.6914 4.8445 15.586C4.80182 15.5596 4.80159 15.5429 4.84321 15.4928C4.9143 15.4071 4.86525 15.2495 4.7586 15.2209C4.64124 15.1895 4.59645 15.193 4.30545 15.2561ZM2.30581 16.6678C1.15423 16.7717 0.38038 16.9933 0.115525 17.295C0.0200879 17.4037 0 17.4609 0 17.6245C0 18.4563 1.12609 18.833 4.08401 18.9903C5.15911 19.0475 7.93053 19.0146 8.83241 18.934C11.5946 18.687 13.5002 18.1503 13.8216 17.5288C13.983 17.2169 13.6787 16.6628 13.3864 16.7361C13.2845 16.7617 13.2349 16.8953 13.2896 16.9974C13.3526 17.1152 13.2905 17.1814 13.0201 17.2848C12.2383 17.5835 10.4945 17.8663 8.51976 18.0146C7.73809 18.0733 5.42037 18.0733 4.68978 18.0146C3.16869 17.8925 1.89107 17.6846 1.57557 17.5081C1.52078 17.4774 1.53492 17.459 1.66389 17.3932C1.86055 17.2929 2.52435 17.0898 2.85295 17.0294C2.99266 17.0037 3.13773 16.967 3.17537 16.9479C3.27073 16.8993 3.26592 16.6959 3.16818 16.6436C3.08068 16.5967 3.09877 16.5962 2.30581 16.6678ZM14.23 17.9708C13.4229 18.5793 12.1129 18.9892 10.4738 19.1462C9.85498 19.2055 5.33564 19.2362 4.04493 19.1899C3.39727 19.1666 2.96331 19.1659 2.92134 19.1881C2.82567 19.2387 2.83094 19.4415 2.92931 19.4942C3.15247 19.6136 5.18932 19.89 6.4214 19.9681C7.46343 20.0341 9.66794 19.9926 10.5911 19.8897C12.4305 19.6844 13.2588 19.4707 13.897 19.0368C14.3694 18.7157 14.7522 18.1706 14.6701 17.9359C14.614 17.7752 14.4748 17.7862 14.23 17.9708Z" fill="white"/>
<path fill-rule="evenodd" clip-rule="evenodd" d="M9.19857 0.0337665C9.16894 0.0633903 9.16128 0.21573 9.17492 0.503682C9.20717 1.1835 9.08425 1.74237 8.7718 2.33696C8.5787 2.70444 8.28562 2.97387 7.30464 3.6857C6.86599 4.00401 6.37223 4.37658 6.20739 4.51364C5.36647 5.21284 4.76145 6.08479 4.62041 6.80072C4.47264 7.5507 4.7579 8.45063 5.43576 9.37303C5.73865 9.78518 6.79744 10.8461 6.94208 10.8824C7.08414 10.9181 7.17235 10.8531 7.16735 10.7165C7.16508 10.6547 7.06609 10.3843 6.9474 10.1156C6.52461 9.15867 6.26679 8.30786 6.17335 7.56152C6.06978 6.73432 6.1773 6.58238 7.85538 5.18396C9.16277 4.09445 9.67732 3.47008 9.92232 2.67583C10.1425 1.96228 10.0242 1.03515 9.61682 0.281035C9.49363 0.0530337 9.45486 0.0112947 9.3572 0.00148523C9.29404 -0.00484597 9.22268 0.00965326 9.19857 0.0337665ZM10.6302 4.30713C8.72252 5.1654 7.61761 6.01898 7.28502 6.89135C7.22632 7.04537 7.21221 7.17372 7.2185 7.49712C7.23289 8.23908 7.43584 8.7877 7.94253 9.45443C8.39279 10.0469 8.40252 10.0646 8.40252 10.2887C8.40252 10.5228 8.32521 10.8427 8.18233 11.1999C8.10018 11.4052 8.08916 11.4703 8.12375 11.5462C8.19089 11.6936 8.3294 11.6648 8.58612 11.4502C9.57012 10.6275 9.90743 9.72109 9.5555 8.84543C9.495 8.69496 9.31609 8.36754 9.15788 8.11781C8.99972 7.86812 8.84191 7.5806 8.80728 7.47891C8.59878 6.86697 9.07042 6.21814 10.6827 4.89878C11.0536 4.59532 11.2945 4.37091 11.2945 4.32894C11.2945 4.08417 11.1372 4.07901 10.6302 4.30713ZM12.8773 10.5432C12.5944 10.5894 12.2489 10.6954 11.9661 10.8226C11.7296 10.9291 11.7198 10.9391 11.7316 11.0613C11.7461 11.2107 11.7747 11.2224 12.2835 11.2866C13.2648 11.4103 13.7504 11.9369 13.4422 12.5427C13.2229 12.9738 12.5313 13.6841 11.8506 14.1774C11.6315 14.3363 11.4412 14.5006 11.4279 14.5427C11.4121 14.5922 11.4319 14.6474 11.4839 14.6994C11.5592 14.7747 11.578 14.7765 11.7908 14.7292C11.9155 14.7014 12.2175 14.611 12.4618 14.5283C13.6105 14.1391 14.38 13.5959 14.6974 12.9499C14.823 12.6944 14.8314 12.6526 14.8314 12.2855C14.8314 11.8247 14.7656 11.5757 14.5496 11.2185C14.3751 10.9302 14.1455 10.7359 13.8471 10.6243C13.6023 10.5327 13.1652 10.4962 12.8773 10.5432ZM3.96677 10.8196C3.07528 10.8837 2.33074 11.0541 1.92906 11.286C1.77844 11.3729 1.70634 11.447 1.64091 11.5821C1.32271 12.2395 2.11654 12.7605 3.75182 12.9674C4.77525 13.0968 6.86154 13.0877 7.96711 12.9489C9.19544 12.7947 10.39 12.4447 11.097 12.0319C11.4242 11.8407 11.49 11.7787 11.49 11.6613C11.49 11.4725 11.4134 11.4626 10.8337 11.5758C9.8363 11.7706 8.79009 11.8652 7.17219 11.9068C5.463 11.9507 3.52257 11.856 3.38872 11.7222C3.31606 11.6495 4.10719 11.3468 4.72886 11.2095C4.84708 11.1834 4.98336 11.1372 5.03174 11.1068C5.12722 11.047 5.1484 10.9025 5.07278 10.8269C5.02127 10.7754 4.61924 10.7727 3.96677 10.8196ZM3.906 13.1815C3.30864 13.3648 3.01983 13.577 2.9818 13.8604C2.941 14.1648 3.20128 14.4141 3.77625 14.6216C4.8864 15.022 6.46498 15.0825 8.46114 14.8011C9.29506 14.6836 10.796 14.376 10.8744 14.3066C10.9671 14.2246 10.9604 14.1316 10.8549 14.0349C10.674 13.8691 10.0269 13.4375 9.95917 13.4375C9.92048 13.4375 9.62913 13.4898 9.31175 13.5538C8.32662 13.7524 7.60826 13.8312 6.56342 13.8556C5.39477 13.8827 4.39659 13.7961 4.1247 13.644C4.05846 13.6069 4.06697 13.5932 4.21431 13.5002C4.34535 13.4175 4.37713 13.3749 4.37713 13.2821C4.37713 13.208 4.35008 13.1522 4.30154 13.1262C4.25996 13.104 4.22037 13.0869 4.21361 13.0883C4.20681 13.0898 4.06838 13.1317 3.906 13.1815ZM4.30545 15.2561C3.81146 15.3633 3.55684 15.5994 3.55657 15.9504C3.55638 16.1694 3.61699 16.3012 3.79735 16.474C4.18082 16.8414 5.27944 17.0874 6.76473 17.1384C8.02687 17.1817 9.25406 16.9929 10.2882 16.5963C10.5332 16.5024 10.5957 16.4614 10.6157 16.3818C10.633 16.3128 10.6184 16.2621 10.5669 16.2123C10.4234 16.0737 9.51087 15.5479 9.41391 15.5479C9.3597 15.5479 8.92969 15.6095 8.45836 15.6847C7.73825 15.7996 7.50142 15.8215 6.97581 15.8215C6.19195 15.8215 5.01513 15.6914 4.8445 15.586C4.80182 15.5596 4.80159 15.5429 4.84321 15.4928C4.9143 15.4071 4.86525 15.2495 4.7586 15.2209C4.64124 15.1895 4.59645 15.193 4.30545 15.2561ZM2.30581 16.6678C1.15423 16.7717 0.38038 16.9933 0.115525 17.295C0.0200879 17.4037 0 17.4609 0 17.6245C0 18.4563 1.12609 18.833 4.08401 18.9903C5.15911 19.0475 7.93053 19.0146 8.83241 18.934C11.5946 18.687 13.5002 18.1503 13.8216 17.5288C13.983 17.2169 13.6787 16.6628 13.3864 16.7361C13.2845 16.7617 13.2349 16.8953 13.2896 16.9974C13.3526 17.1152 13.2905 17.1814 13.0201 17.2848C12.2383 17.5835 10.4945 17.8663 8.51976 18.0146C7.73809 18.0733 5.42037 18.0733 4.68978 18.0146C3.16869 17.8925 1.89107 17.6846 1.57557 17.5081C1.52078 17.4774 1.53492 17.459 1.66389 17.3932C1.86055 17.2929 2.52435 17.0898 2.85295 17.0294C2.99266 17.0037 3.13773 16.967 3.17537 16.9479C3.27073 16.8993 3.26592 16.6959 3.16818 16.6436C3.08068 16.5967 3.09877 16.5962 2.30581 16.6678ZM14.23 17.9708C13.4229 18.5793 12.1129 18.9892 10.4738 19.1462C9.85498 19.2055 5.33564 19.2362 4.04493 19.1899C3.39727 19.1666 2.96331 19.1659 2.92134 19.1881C2.82567 19.2387 2.83094 19.4415 2.92931 19.4942C3.15247 19.6136 5.18932 19.89 6.4214 19.9681C7.46343 20.0341 9.66794 19.9926 10.5911 19.8897C12.4305 19.6844 13.2588 19.4707 13.897 19.0368C14.3694 18.7157 14.7522 18.1706 14.6701 17.9359C14.614 17.7752 14.4748 17.7862 14.23 17.9708Z" fill="white"/>
<path fill-rule="evenodd" clip-rule="evenodd" d="M9.19857 0.0337665C9.16894 0.0633903 9.16128 0.21573 9.17492 0.503682C9.20717 1.1835 9.08425 1.74237 8.7718 2.33696C8.5787 2.70444 8.28562 2.97387 7.30464 3.6857C6.86599 4.00401 6.37223 4.37658 6.20739 4.51364C5.36647 5.21284 4.76145 6.08479 4.62041 6.80072C4.47264 7.5507 4.7579 8.45063 5.43576 9.37303C5.73865 9.78518 6.79744 10.8461 6.94208 10.8824C7.08414 10.9181 7.17235 10.8531 7.16735 10.7165C7.16508 10.6547 7.06609 10.3843 6.9474 10.1156C6.52461 9.15867 6.26679 8.30786 6.17335 7.56152C6.06978 6.73432 6.1773 6.58238 7.85538 5.18396C9.16277 4.09445 9.67732 3.47008 9.92232 2.67583C10.1425 1.96228 10.0242 1.03515 9.61682 0.281035C9.49363 0.0530337 9.45486 0.0112947 9.3572 0.00148523C9.29404 -0.00484597 9.22268 0.00965326 9.19857 0.0337665ZM10.6302 4.30713C8.72252 5.1654 7.61761 6.01898 7.28502 6.89135C7.22632 7.04537 7.21221 7.17372 7.2185 7.49712C7.23289 8.23908 7.43584 8.7877 7.94253 9.45443C8.39279 10.0469 8.40252 10.0646 8.40252 10.2887C8.40252 10.5228 8.32521 10.8427 8.18233 11.1999C8.10018 11.4052 8.08916 11.4703 8.12375 11.5462C8.19089 11.6936 8.3294 11.6648 8.58612 11.4502C9.57012 10.6275 9.90743 9.72109 9.5555 8.84543C9.495 8.69496 9.31609 8.36754 9.15788 8.11781C8.99972 7.86812 8.84191 7.5806 8.80728 7.47891C8.59878 6.86697 9.07042 6.21814 10.6827 4.89878C11.0536 4.59532 11.2945 4.37091 11.2945 4.32894C11.2945 4.08417 11.1372 4.07901 10.6302 4.30713ZM12.8773 10.5432C12.5944 10.5894 12.2489 10.6954 11.9661 10.8226C11.7296 10.9291 11.7198 10.9391 11.7316 11.0613C11.7461 11.2107 11.7747 11.2224 12.2835 11.2866C13.2648 11.4103 13.7504 11.9369 13.4422 12.5427C13.2229 12.9738 12.5313 13.6841 11.8506 14.1774C11.6315 14.3363 11.4412 14.5006 11.4279 14.5427C11.4121 14.5922 11.4319 14.6474 11.4839 14.6994C11.5592 14.7747 11.578 14.7765 11.7908 14.7292C11.9155 14.7014 12.2175 14.611 12.4618 14.5283C13.6105 14.1391 14.38 13.5959 14.6974 12.9499C14.823 12.6944 14.8314 12.6526 14.8314 12.2855C14.8314 11.8247 14.7656 11.5757 14.5496 11.2185C14.3751 10.9302 14.1455 10.7359 13.8471 10.6243C13.6023 10.5327 13.1652 10.4962 12.8773 10.5432ZM3.96677 10.8196C3.07528 10.8837 2.33074 11.0541 1.92906 11.286C1.77844 11.3729 1.70634 11.447 1.64091 11.5821C1.32271 12.2395 2.11654 12.7605 3.75182 12.9674C4.77525 13.0968 6.86154 13.0877 7.96711 12.9489C9.19544 12.7947 10.39 12.4447 11.097 12.0319C11.4242 11.8407 11.49 11.7787 11.49 11.6613C11.49 11.4725 11.4134 11.4626 10.8337 11.5758C9.8363 11.7706 8.79009 11.8652 7.17219 11.9068C5.463 11.9507 3.52257 11.856 3.38872 11.7222C3.31606 11.6495 4.10719 11.3468 4.72886 11.2095C4.84708 11.1834 4.98336 11.1372 5.03174 11.1068C5.12722 11.047 5.1484 10.9025 5.07278 10.8269C5.02127 10.7754 4.61924 10.7727 3.96677 10.8196ZM3.906 13.1815C3.30864 13.3648 3.01983 13.577 2.9818 13.8604C2.941 14.1648 3.20128 14.4141 3.77625 14.6216C4.8864 15.022 6.46498 15.0825 8.46114 14.8011C9.29506 14.6836 10.796 14.376 10.8744 14.3066C10.9671 14.2246 10.9604 14.1316 10.8549 14.0349C10.674 13.8691 10.0269 13.4375 9.95917 13.4375C9.92048 13.4375 9.62913 13.4898 9.31175 13.5538C8.32662 13.7524 7.60826 13.8312 6.56342 13.8556C5.39477 13.8827 4.39659 13.7961 4.1247 13.644C4.05846 13.6069 4.06697 13.5932 4.21431 13.5002C4.34535 13.4175 4.37713 13.3749 4.37713 13.2821C4.37713 13.208 4.35008 13.1522 4.30154 13.1262C4.25996 13.104 4.22037 13.0869 4.21361 13.0883C4.20681 13.0898 4.06838 13.1317 3.906 13.1815ZM4.30545 15.2561C3.81146 15.3633 3.55684 15.5994 3.55657 15.9504C3.55638 16.1694 3.61699 16.3012 3.79735 16.474C4.18082 16.8414 5.27944 17.0874 6.76473 17.1384C8.02687 17.1817 9.25406 16.9929 10.2882 16.5963C10.5332 16.5024 10.5957 16.4614 10.6157 16.3818C10.633 16.3128 10.6184 16.2621 10.5669 16.2123C10.4234 16.0737 9.51087 15.5479 9.41391 15.5479C9.3597 15.5479 8.92969 15.6095 8.45836 15.6847C7.73825 15.7996 7.50142 15.8215 6.97581 15.8215C6.19195 15.8215 5.01513 15.6914 4.8445 15.586C4.80182 15.5596 4.80159 15.5429 4.84321 15.4928C4.9143 15.4071 4.86525 15.2495 4.7586 15.2209C4.64124 15.1895 4.59645 15.193 4.30545 15.2561ZM2.30581 16.6678C1.15423 16.7717 0.38038 16.9933 0.115525 17.295C0.0200879 17.4037 0 17.4609 0 17.6245C0 18.4563 1.12609 18.833 4.08401 18.9903C5.15911 19.0475 7.93053 19.0146 8.83241 18.934C11.5946 18.687 13.5002 18.1503 13.8216 17.5288C13.983 17.2169 13.6787 16.6628 13.3864 16.7361C13.2845 16.7617 13.2349 16.8953 13.2896 16.9974C13.3526 17.1152 13.2905 17.1814 13.0201 17.2848C12.2383 17.5835 10.4945 17.8663 8.51976 18.0146C7.73809 18.0733 5.42037 18.0733 4.68978 18.0146C3.16869 17.8925 1.89107 17.6846 1.57557 17.5081C1.52078 17.4774 1.53492 17.459 1.66389 17.3932C1.86055 17.2929 2.52435 17.0898 2.85295 17.0294C2.99266 17.0037 3.13773 16.967 3.17537 16.9479C3.27073 16.8993 3.26592 16.6959 3.16818 16.6436C3.08068 16.5967 3.09877 16.5962 2.30581 16.6678ZM14.23 17.9708C13.4229 18.5793 12.1129 18.9892 10.4738 19.1462C9.85498 19.2055 5.33564 19.2362 4.04493 19.1899C3.39727 19.1666 2.96331 19.1659 2.92134 19.1881C2.82567 19.2387 2.83094 19.4415 2.92931 19.4942C3.15247 19.6136 5.18932 19.89 6.4214 19.9681C7.46343 20.0341 9.66794 19.9926 10.5911 19.8897C12.4305 19.6844 13.2588 19.4707 13.897 19.0368C14.3694 18.7157 14.7522 18.1706 14.6701 17.9359C14.614 17.7752 14.4748 17.7862 14.23 17.9708Z" fill="white"/>
<path fill-rule="evenodd" clip-rule="evenodd" d="M9.19857 0.0337665C9.16894 0.0633903 9.16128 0.21573 9.17492 0.503682C9.20717 1.1835 9.08425 1.74237 8.7718 2.33696C8.5787 2.70444 8.28562 2.97387 7.30464 3.6857C6.86599 4.00401 6.37223 4.37658 6.20739 4.51364C5.36647 5.21284 4.76145 6.08479 4.62041 6.80072C4.47264 7.5507 4.7579 8.45063 5.43576 9.37303C5.73865 9.78518 6.79744 10.8461 6.94208 10.8824C7.08414 10.9181 7.17235 10.8531 7.16735 10.7165C7.16508 10.6547 7.06609 10.3843 6.9474 10.1156C6.52461 9.15867 6.26679 8.30786 6.17335 7.56152C6.06978 6.73432 6.1773 6.58238 7.85538 5.18396C9.16277 4.09445 9.67732 3.47008 9.92232 2.67583C10.1425 1.96228 10.0242 1.03515 9.61682 0.281035C9.49363 0.0530337 9.45486 0.0112947 9.3572 0.00148523C9.29404 -0.00484597 9.22268 0.00965326 9.19857 0.0337665ZM10.6302 4.30713C8.72252 5.1654 7.61761 6.01898 7.28502 6.89135C7.22632 7.04537 7.21221 7.17372 7.2185 7.49712C7.23289 8.23908 7.43584 8.7877 7.94253 9.45443C8.39279 10.0469 8.40252 10.0646 8.40252 10.2887C8.40252 10.5228 8.32521 10.8427 8.18233 11.1999C8.10018 11.4052 8.08916 11.4703 8.12375 11.5462C8.19089 11.6936 8.3294 11.6648 8.58612 11.4502C9.57012 10.6275 9.90743 9.72109 9.5555 8.84543C9.495 8.69496 9.31609 8.36754 9.15788 8.11781C8.99972 7.86812 8.84191 7.5806 8.80728 7.47891C8.59878 6.86697 9.07042 6.21814 10.6827 4.89878C11.0536 4.59532 11.2945 4.37091 11.2945 4.32894C11.2945 4.08417 11.1372 4.07901 10.6302 4.30713ZM12.8773 10.5432C12.5944 10.5894 12.2489 10.6954 11.9661 10.8226C11.7296 10.9291 11.7198 10.9391 11.7316 11.0613C11.7461 11.2107 11.7747 11.2224 12.2835 11.2866C13.2648 11.4103 13.7504 11.9369 13.4422 12.5427C13.2229 12.9738 12.5313 13.6841 11.8506 14.1774C11.6315 14.3363 11.4412 14.5006 11.4279 14.5427C11.4121 14.5922 11.4319 14.6474 11.4839 14.6994C11.5592 14.7747 11.578 14.7765 11.7908 14.7292C11.9155 14.7014 12.2175 14.611 12.4618 14.5283C13.6105 14.1391 14.38 13.5959 14.6974 12.9499C14.823 12.6944 14.8314 12.6526 14.8314 12.2855C14.8314 11.8247 14.7656 11.5757 14.5496 11.2185C14.3751 10.9302 14.1455 10.7359 13.8471 10.6243C13.6023 10.5327 13.1652 10.4962 12.8773 10.5432ZM3.96677 10.8196C3.07528 10.8837 2.33074 11.0541 1.92906 11.286C1.77844 11.3729 1.70634 11.447 1.64091 11.5821C1.32271 12.2395 2.11654 12.7605 3.75182 12.9674C4.77525 13.0968 6.86154 13.0877 7.96711 12.9489C9.19544 12.7947 10.39 12.4447 11.097 12.0319C11.4242 11.8407 11.49 11.7787 11.49 11.6613C11.49 11.4725 11.4134 11.4626 10.8337 11.5758C9.8363 11.7706 8.79009 11.8652 7.17219 11.9068C5.463 11.9507 3.52257 11.856 3.38872 11.7222C3.31606 11.6495 4.10719 11.3468 4.72886 11.2095C4.84708 11.1834 4.98336 11.1372 5.03174 11.1068C5.12722 11.047 5.1484 10.9025 5.07278 10.8269C5.02127 10.7754 4.61924 10.7727 3.96677 10.8196ZM3.906 13.1815C3.30864 13.3648 3.01983 13.577 2.9818 13.8604C2.941 14.1648 3.20128 14.4141 3.77625 14.6216C4.8864 15.022 6.46498 15.0825 8.46114 14.8011C9.29506 14.6836 10.796 14.376 10.8744 14.3066C10.9671 14.2246 10.9604 14.1316 10.8549 14.0349C10.674 13.8691 10.0269 13.4375 9.95917 13.4375C9.92048 13.4375 9.62913 13.4898 9.31175 13.5538C8.32662 13.7524 7.60826 13.8312 6.56342 13.8556C5.39477 13.8827 4.39659 13.7961 4.1247 13.644C4.05846 13.6069 4.06697 13.5932 4.21431 13.5002C4.34535 13.4175 4.37713 13.3749 4.37713 13.2821C4.37713 13.208 4.35008 13.1522 4.30154 13.1262C4.25996 13.104 4.22037 13.0869 4.21361 13.0883C4.20681 13.0898 4.06838 13.1317 3.906 13.1815ZM4.30545 15.2561C3.81146 15.3633 3.55684 15.5994 3.55657 15.9504C3.55638 16.1694 3.61699 16.3012 3.79735 16.474C4.18082 16.8414 5.27944 17.0874 6.76473 17.1384C8.02687 17.1817 9.25406 16.9929 10.2882 16.5963C10.5332 16.5024 10.5957 16.4614 10.6157 16.3818C10.633 16.3128 10.6184 16.2621 10.5669 16.2123C10.4234 16.0737 9.51087 15.5479 9.41391 15.5479C9.3597 15.5479 8.92969 15.6095 8.45836 15.6847C7.73825 15.7996 7.50142 15.8215 6.97581 15.8215C6.19195 15.8215 5.01513 15.6914 4.8445 15.586C4.80182 15.5596 4.80159 15.5429 4.84321 15.4928C4.9143 15.4071 4.86525 15.2495 4.7586 15.2209C4.64124 15.1895 4.59645 15.193 4.30545 15.2561ZM2.30581 16.6678C1.15423 16.7717 0.38038 16.9933 0.115525 17.295C0.0200879 17.4037 0 17.4609 0 17.6245C0 18.4563 1.12609 18.833 4.08401 18.9903C5.15911 19.0475 7.93053 19.0146 8.83241 18.934C11.5946 18.687 13.5002 18.1503 13.8216 17.5288C13.983 17.2169 13.6787 16.6628 13.3864 16.7361C13.2845 16.7617 13.2349 16.8953 13.2896 16.9974C13.3526 17.1152 13.2905 17.1814 13.0201 17.2848C12.2383 17.5835 10.4945 17.8663 8.51976 18.0146C7.73809 18.0733 5.42037 18.0733 4.68978 18.0146C3.16869 17.8925 1.89107 17.6846 1.57557 17.5081C1.52078 17.4774 1.53492 17.459 1.66389 17.3932C1.86055 17.2929 2.52435 17.0898 2.85295 17.0294C2.99266 17.0037 3.13773 16.967 3.17537 16.9479C3.27073 16.8993 3.26592 16.6959 3.16818 16.6436C3.08068 16.5967 3.09877 16.5962 2.30581 16.6678ZM14.23 17.9708C13.4229 18.5793 12.1129 18.9892 10.4738 19.1462C9.85498 19.2055 5.33564 19.2362 4.04493 19.1899C3.39727 19.1666 2.96331 19.1659 2.92134 19.1881C2.82567 19.2387 2.83094 19.4415 2.92931 19.4942C3.15247 19.6136 5.18932 19.89 6.4214 19.9681C7.46343 20.0341 9.66794 19.9926 10.5911 19.8897C12.4305 19.6844 13.2588 19.4707 13.897 19.0368C14.3694 18.7157 14.7522 18.1706 14.6701 17.9359C14.614 17.7752 14.4748 17.7862 14.23 17.9708Z" fill="white"/>
<path fill-rule="evenodd" clip-rule="evenodd" d="M9.19857 0.0337665C9.16894 0.0633903 9.16128 0.21573 9.17492 0.503682C9.20717 1.1835 9.08425 1.74237 8.7718 2.33696C8.5787 2.70444 8.28562 2.97387 7.30464 3.6857C6.86599 4.00401 6.37223 4.37658 6.20739 4.51364C5.36647 5.21284 4.76145 6.08479 4.62041 6.80072C4.47264 7.5507 4.7579 8.45063 5.43576 9.37303C5.73865 9.78518 6.79744 10.8461 6.94208 10.8824C7.08414 10.9181 7.17235 10.8531 7.16735 10.7165C7.16508 10.6547 7.06609 10.3843 6.9474 10.1156C6.52461 9.15867 6.26679 8.30786 6.17335 7.56152C6.06978 6.73432 6.1773 6.58238 7.85538 5.18396C9.16277 4.09445 9.67732 3.47008 9.92232 2.67583C10.1425 1.96228 10.0242 1.03515 9.61682 0.281035C9.49363 0.0530337 9.45486 0.0112947 9.3572 0.00148523C9.29404 -0.00484597 9.22268 0.00965326 9.19857 0.0337665ZM10.6302 4.30713C8.72252 5.1654 7.61761 6.01898 7.28502 6.89135C7.22632 7.04537 7.21221 7.17372 7.2185 7.49712C7.23289 8.23908 7.43584 8.7877 7.94253 9.45443C8.39279 10.0469 8.40252 10.0646 8.40252 10.2887C8.40252 10.5228 8.32521 10.8427 8.18233 11.1999C8.10018 11.4052 8.08916 11.4703 8.12375 11.5462C8.19089 11.6936 8.3294 11.6648 8.58612 11.4502C9.57012 10.6275 9.90743 9.72109 9.5555 8.84543C9.495 8.69496 9.31609 8.36754 9.15788 8.11781C8.99972 7.86812 8.84191 7.5806 8.80728 7.47891C8.59878 6.86697 9.07042 6.21814 10.6827 4.89878C11.0536 4.59532 11.2945 4.37091 11.2945 4.32894C11.2945 4.08417 11.1372 4.07901 10.6302 4.30713ZM12.8773 10.5432C12.5944 10.5894 12.2489 10.6954 11.9661 10.8226C11.7296 10.9291 11.7198 10.9391 11.7316 11.0613C11.7461 11.2107 11.7747 11.2224 12.2835 11.2866C13.2648 11.4103 13.7504 11.9369 13.4422 12.5427C13.2229 12.9738 12.5313 13.6841 11.8506 14.1774C11.6315 14.3363 11.4412 14.5006 11.4279 14.5427C11.4121 14.5922 11.4319 14.6474 11.4839 14.6994C11.5592 14.7747 11.578 14.7765 11.7908 14.7292C11.9155 14.7014 12.2175 14.611 12.4618 14.5283C13.6105 14.1391 14.38 13.5959 14.6974 12.9499C14.823 12.6944 14.8314 12.6526 14.8314 12.2855C14.8314 11.8247 14.7656 11.5757 14.5496 11.2185C14.3751 10.9302 14.1455 10.7359 13.8471 10.6243C13.6023 10.5327 13.1652 10.4962 12.8773 10.5432ZM3.96677 10.8196C3.07528 10.8837 2.33074 11.0541 1.92906 11.286C1.77844 11.3729 1.70634 11.447 1.64091 11.5821C1.32271 12.2395 2.11654 12.7605 3.75182 12.9674C4.77525 13.0968 6.86154 13.0877 7.96711 12.9489C9.19544 12.7947 10.39 12.4447 11.097 12.0319C11.4242 11.8407 11.49 11.7787 11.49 11.6613C11.49 11.4725 11.4134 11.4626 10.8337 11.5758C9.8363 11.7706 8.79009 11.8652 7.17219 11.9068C5.463 11.9507 3.52257 11.856 3.38872 11.7222C3.31606 11.6495 4.10719 11.3468 4.72886 11.2095C4.84708 11.1834 4.98336 11.1372 5.03174 11.1068C5.12722 11.047 5.1484 10.9025 5.07278 10.8269C5.02127 10.7754 4.61924 10.7727 3.96677 10.8196ZM3.906 13.1815C3.30864 13.3648 3.01983 13.577 2.9818 13.8604C2.941 14.1648 3.20128 14.4141 3.77625 14.6216C4.8864 15.022 6.46498 15.0825 8.46114 14.8011C9.29506 14.6836 10.796 14.376 10.8744 14.3066C10.9671 14.2246 10.9604 14.1316 10.8549 14.0349C10.674 13.8691 10.0269 13.4375 9.95917 13.4375C9.92048 13.4375 9.62913 13.4898 9.31175 13.5538C8.32662 13.7524 7.60826 13.8312 6.56342 13.8556C5.39477 13.8827 4.39659 13.7961 4.1247 13.644C4.05846 13.6069 4.06697 13.5932 4.21431 13.5002C4.34535 13.4175 4.37713 13.3749 4.37713 13.2821C4.37713 13.208 4.35008 13.1522 4.30154 13.1262C4.25996 13.104 4.22037 13.0869 4.21361 13.0883C4.20681 13.0898 4.06838 13.1317 3.906 13.1815ZM4.30545 15.2561C3.81146 15.3633 3.55684 15.5994 3.55657 15.9504C3.55638 16.1694 3.61699 16.3012 3.79735 16.474C4.18082 16.8414 5.27944 17.0874 6.76473 17.1384C8.02687 17.1817 9.25406 16.9929 10.2882 16.5963C10.5332 16.5024 10.5957 16.4614 10.6157 16.3818C10.633 16.3128 10.6184 16.2621 10.5669 16.2123C10.4234 16.0737 9.51087 15.5479 9.41391 15.5479C9.3597 15.5479 8.92969 15.6095 8.45836 15.6847C7.73825 15.7996 7.50142 15.8215 6.97581 15.8215C6.19195 15.8215 5.01513 15.6914 4.8445 15.586C4.80182 15.5596 4.80159 15.5429 4.84321 15.4928C4.9143 15.4071 4.86525 15.2495 4.7586 15.2209C4.64124 15.1895 4.59645 15.193 4.30545 15.2561ZM2.30581 16.6678C1.15423 16.7717 0.38038 16.9933 0.115525 17.295C0.0200879 17.4037 0 17.4609 0 17.6245C0 18.4563 1.12609 18.833 4.08401 18.9903C5.15911 19.0475 7.93053 19.0146 8.83241 18.934C11.5946 18.687 13.5002 18.1503 13.8216 17.5288C13.983 17.2169 13.6787 16.6628 13.3864 16.7361C13.2845 16.7617 13.2349 16.8953 13.2896 16.9974C13.3526 17.1152 13.2905 17.1814 13.0201 17.2848C12.2383 17.5835 10.4945 17.8663 8.51976 18.0146C7.73809 18.0733 5.42037 18.0733 4.68978 18.0146C3.16869 17.8925 1.89107 17.6846 1.57557 17.5081C1.52078 17.4774 1.53492 17.459 1.66389 17.3932C1.86055 17.2929 2.52435 17.0898 2.85295 17.0294C2.99266 17.0037 3.13773 16.967 3.17537 16.9479C3.27073 16.8993 3.26592 16.6959 3.16818 16.6436C3.08068 16.5967 3.09877 16.5962 2.30581 16.6678ZM14.23 17.9708C13.4229 18.5793 12.1129 18.9892 10.4738 19.1462C9.85498 19.2055 5.33564 19.2362 4.04493 19.1899C3.39727 19.1666 2.96331 19.1659 2.92134 19.1881C2.82567 19.2387 2.83094 19.4415 2.92931 19.4942C3.15247 19.6136 5.18932 19.89 6.4214 19.9681C7.46343 20.0341 9.66794 19.9926 10.5911 19.8897C12.4305 19.6844 13.2588 19.4707 13.897 19.0368C14.3694 18.7157 14.7522 18.1706 14.6701 17.9359C14.614 17.7752 14.4748 17.7862 14.23 17.9708Z" fill="white"/>
<path fill-rule="evenodd" clip-rule="evenodd" d="M9.19857 0.0337665C9.16894 0.0633903 9.16128 0.21573 9.17492 0.503682C9.20717 1.1835 9.08425 1.74237 8.7718 2.33696C8.5787 2.70444 8.28562 2.97387 7.30464 3.6857C6.86599 4.00401 6.37223 4.37658 6.20739 4.51364C5.36647 5.21284 4.76145 6.08479 4.62041 6.80072C4.47264 7.5507 4.7579 8.45063 5.43576 9.37303C5.73865 9.78518 6.79744 10.8461 6.94208 10.8824C7.08414 10.9181 7.17235 10.8531 7.16735 10.7165C7.16508 10.6547 7.06609 10.3843 6.9474 10.1156C6.52461 9.15867 6.26679 8.30786 6.17335 7.56152C6.06978 6.73432 6.1773 6.58238 7.85538 5.18396C9.16277 4.09445 9.67732 3.47008 9.92232 2.67583C10.1425 1.96228 10.0242 1.03515 9.61682 0.281035C9.49363 0.0530337 9.45486 0.0112947 9.3572 0.00148523C9.29404 -0.00484597 9.22268 0.00965326 9.19857 0.0337665ZM10.6302 4.30713C8.72252 5.1654 7.61761 6.01898 7.28502 6.89135C7.22632 7.04537 7.21221 7.17372 7.2185 7.49712C7.23289 8.23908 7.43584 8.7877 7.94253 9.45443C8.39279 10.0469 8.40252 10.0646 8.40252 10.2887C8.40252 10.5228 8.32521 10.8427 8.18233 11.1999C8.10018 11.4052 8.08916 11.4703 8.12375 11.5462C8.19089 11.6936 8.3294 11.6648 8.58612 11.4502C9.57012 10.6275 9.90743 9.72109 9.5555 8.84543C9.495 8.69496 9.31609 8.36754 9.15788 8.11781C8.99972 7.86812 8.84191 7.5806 8.80728 7.47891C8.59878 6.86697 9.07042 6.21814 10.6827 4.89878C11.0536 4.59532 11.2945 4.37091 11.2945 4.32894C11.2945 4.08417 11.1372 4.07901 10.6302 4.30713ZM12.8773 10.5432C12.5944 10.5894 12.2489 10.6954 11.9661 10.8226C11.7296 10.9291 11.7198 10.9391 11.7316 11.0613C11.7461 11.2107 11.7747 11.2224 12.2835 11.2866C13.2648 11.4103 13.7504 11.9369 13.4422 12.5427C13.2229 12.9738 12.5313 13.6841 11.8506 14.1774C11.6315 14.3363 11.4412 14.5006 11.4279 14.5427C11.4121 14.5922 11.4319 14.6474 11.4839 14.6994C11.5592 14.7747 11.578 14.7765 11.7908 14.7292C11.9155 14.7014 12.2175 14.611 12.4618 14.5283C13.6105 14.1391 14.38 13.5959 14.6974 12.9499C14.823 12.6944 14.8314 12.6526 14.8314 12.2855C14.8314 11.8247 14.7656 11.5757 14.5496 11.2185C14.3751 10.9302 14.1455 10.7359 13.8471 10.6243C13.6023 10.5327 13.1652 10.4962 12.8773 10.5432ZM3.96677 10.8196C3.07528 10.8837 2.33074 11.0541 1.92906 11.286C1.77844 11.3729 1.70634 11.447 1.64091 11.5821C1.32271 12.2395 2.11654 12.7605 3.75182 12.9674C4.77525 13.0968 6.86154 13.0877 7.96711 12.9489C9.19544 12.7947 10.39 12.4447 11.097 12.0319C11.4242 11.8407 11.49 11.7787 11.49 11.6613C11.49 11.4725 11.4134 11.4626 10.8337 11.5758C9.8363 11.7706 8.79009 11.8652 7.17219 11.9068C5.463 11.9507 3.52257 11.856 3.38872 11.7222C3.31606 11.6495 4.10719 11.3468 4.72886 11.2095C4.84708 11.1834 4.98336 11.1372 5.03174 11.1068C5.12722 11.047 5.1484 10.9025 5.07278 10.8269C5.02127 10.7754 4.61924 10.7727 3.96677 10.8196ZM3.906 13.1815C3.30864 13.3648 3.01983 13.577 2.9818 13.8604C2.941 14.1648 3.20128 14.4141 3.77625 14.6216C4.8864 15.022 6.46498 15.0825 8.46114 14.8011C9.29506 14.6836 10.796 14.376 10.8744 14.3066C10.9671 14.2246 10.9604 14.1316 10.8549 14.0349C10.674 13.8691 10.0269 13.4375 9.95917 13.4375C9.92048 13.4375 9.62913 13.4898 9.31175 13.5538C8.32662 13.7524 7.60826 13.8312 6.56342 13.8556C5.39477 13.8827 4.39659 13.7961 4.1247 13.644C4.05846 13.6069 4.06697 13.5932 4.21431 13.5002C4.34535 13.4175 4.37713 13.3749 4.37713 13.2821C4.37713 13.208 4.35008 13.1522 4.30154 13.1262C4.25996 13.104 4.22037 13.0869 4.21361 13.0883C4.20681 13.0898 4.06838 13.1317 3.906 13.1815ZM4.30545 15.2561C3.81146 15.3633 3.55684 15.5994 3.55657 15.9504C3.55638 16.1694 3.61699 16.3012 3.79735 16.474C4.18082 16.8414 5.27944 17.0874 6.76473 17.1384C8.02687 17.1817 9.25406 16.9929 10.2882 16.5963C10.5332 16.5024 10.5957 16.4614 10.6157 16.3818C10.633 16.3128 10.6184 16.2621 10.5669 16.2123C10.4234 16.0737 9.51087 15.5479 9.41391 15.5479C9.3597 15.5479 8.92969 15.6095 8.45836 15.6847C7.73825 15.7996 7.50142 15.8215 6.97581 15.8215C6.19195 15.8215 5.01513 15.6914 4.8445 15.586C4.80182 15.5596 4.80159 15.5429 4.84321 15.4928C4.9143 15.4071 4.86525 15.2495 4.7586 15.2209C4.64124 15.1895 4.59645 15.193 4.30545 15.2561ZM2.30581 16.6678C1.15423 16.7717 0.38038 16.9933 0.115525 17.295C0.0200879 17.4037 0 17.4609 0 17.6245C0 18.4563 1.12609 18.833 4.08401 18.9903C5.15911 19.0475 7.93053 19.0146 8.83241 18.934C11.5946 18.687 13.5002 18.1503 13.8216 17.5288C13.983 17.2169 13.6787 16.6628 13.3864 16.7361C13.2845 16.7617 13.2349 16.8953 13.2896 16.9974C13.3526 17.1152 13.2905 17.1814 13.0201 17.2848C12.2383 17.5835 10.4945 17.8663 8.51976 18.0146C7.73809 18.0733 5.42037 18.0733 4.68978 18.0146C3.16869 17.8925 1.89107 17.6846 1.57557 17.5081C1.52078 17.4774 1.53492 17.459 1.66389 17.3932C1.86055 17.2929 2.52435 17.0898 2.85295 17.0294C2.99266 17.0037 3.13773 16.967 3.17537 16.9479C3.27073 16.8993 3.26592 16.6959 3.16818 16.6436C3.08068 16.5967 3.09877 16.5962 2.30581 16.6678ZM14.23 17.9708C13.4229 18.5793 12.1129 18.9892 10.4738 19.1462C9.85498 19.2055 5.33564 19.2362 4.04493 19.1899C3.39727 19.1666 2.96331 19.1659 2.92134 19.1881C2.82567 19.2387 2.83094 19.4415 2.92931 19.4942C3.15247 19.6136 5.18932 19.89 6.4214 19.9681C7.46343 20.0341 9.66794 19.9926 10.5911 19.8897C12.4305 19.6844 13.2588 19.4707 13.897 19.0368C14.3694 18.7157 14.7522 18.1706 14.6701 17.9359C14.614 17.7752 14.4748 17.7862 14.23 17.9708Z" fill="white"/>
</svg>
