<svg width="20" height="20" viewBox="0 0 20 20" fill="none" xmlns="http://www.w3.org/2000/svg">
<path fill-rule="evenodd" clip-rule="evenodd" d="M0 10V20H10H20V10V0H10H0V10Z" fill="white"/>
<path fill-rule="evenodd" clip-rule="evenodd" d="M0 10V20H10H20V10V0H10H0V10ZM15.0941 9.09218C15.0702 9.09843 15.0252 9.09865 14.9941 9.09268C14.963 9.0867 14.9825 9.08158 15.0375 9.0813C15.0925 9.08103 15.118 9.08593 15.0941 9.09218ZM15.4441 9.09218C15.4202 9.09843 15.3752 9.09865 15.3441 9.09268C15.313 9.0867 15.3325 9.08158 15.3875 9.0813C15.4425 9.08103 15.468 9.08593 15.4441 9.09218ZM15.7432 9.1151C15.7349 9.1234 15.7133 9.1243 15.6953 9.11708C15.6754 9.1091 15.6813 9.10318 15.7104 9.10198C15.7368 9.1009 15.7515 9.1068 15.7432 9.1151ZM10.3938 9.19372C10.136 9.19777 9.71408 9.19777 9.45625 9.19372C9.19845 9.18965 9.40938 9.18633 9.925 9.18633C10.4406 9.18633 10.6516 9.18965 10.3938 9.19372ZM17.2282 9.76875C17.2593 9.8084 17.2584 9.80927 17.2188 9.7782C17.1947 9.75932 17.175 9.73962 17.175 9.73445C17.175 9.71387 17.1955 9.7271 17.2282 9.76875ZM17.4282 9.96875C17.4593 10.0084 17.4584 10.0093 17.4188 9.9782C17.3947 9.95932 17.375 9.93962 17.375 9.93445C17.375 9.91387 17.3955 9.9271 17.4282 9.96875ZM14.2923 11.5433C14.286 11.5676 14.2804 11.5538 14.2799 11.5125C14.2794 11.4713 14.2846 11.4513 14.2914 11.4683C14.2983 11.4852 14.2987 11.5189 14.2923 11.5433ZM14.6032 12.1938C14.6343 12.2334 14.6334 12.2343 14.5938 12.2032C14.5521 12.1705 14.5389 12.15 14.5594 12.15C14.5646 12.15 14.5843 12.1697 14.6032 12.1938ZM13.3282 13.5688C13.3593 13.6084 13.3584 13.6093 13.3188 13.5782C13.2771 13.5455 13.2639 13.525 13.2844 13.525C13.2896 13.525 13.3093 13.5447 13.3282 13.5688ZM17.6032 13.8438C17.6343 13.8834 17.6334 13.8843 17.5938 13.8532C17.5521 13.8205 17.5389 13.8 17.5595 13.8C17.5646 13.8 17.5843 13.8197 17.6032 13.8438ZM17.8032 14.0438C17.8343 14.0834 17.8334 14.0843 17.7938 14.0532C17.7521 14.0205 17.7389 14 17.7595 14C17.7646 14 17.7843 14.0197 17.8032 14.0438ZM18.3921 15.5047C18.3841 15.5246 18.3782 15.5187 18.377 15.4896C18.3759 15.4632 18.3818 15.4485 18.3901 15.4568C18.3984 15.4651 18.3993 15.4866 18.3921 15.5047ZM8.99155 15.7813C8.98462 15.7985 8.97895 15.7844 8.97895 15.75C8.97895 15.7156 8.98462 15.7016 8.99155 15.7188C8.9985 15.736 8.9985 15.7641 8.99155 15.7813ZM16.5427 15.8559C16.5367 15.887 16.5316 15.8675 16.5313 15.8125C16.531 15.7575 16.5359 15.732 16.5422 15.7559C16.5484 15.7798 16.5486 15.8248 16.5427 15.8559ZM10.8421 16.0047C10.8341 16.0246 10.8282 16.0187 10.827 15.9896C10.8259 15.9632 10.8318 15.9485 10.8401 15.9568C10.8484 15.9651 10.8493 15.9866 10.8421 16.0047ZM18.3921 16.1047C18.3841 16.1246 18.3782 16.1187 18.377 16.0896C18.3759 16.0632 18.3818 16.0485 18.3901 16.0568C18.3984 16.0651 18.3993 16.0866 18.3921 16.1047ZM13.8625 16.2C13.8874 16.2275 13.9021 16.25 13.8953 16.25C13.8884 16.25 13.8624 16.2275 13.8375 16.2C13.8126 16.1725 13.7979 16.15 13.8048 16.15C13.8116 16.15 13.8376 16.1725 13.8625 16.2ZM10.8171 16.2297C10.8091 16.2496 10.8032 16.2437 10.802 16.2146C10.8009 16.1882 10.8068 16.1735 10.8151 16.1818C10.8234 16.1901 10.8243 16.2116 10.8171 16.2297ZM16.35 16.3581C16.35 16.3626 16.3191 16.3935 16.2813 16.4269L16.2125 16.4875L16.2731 16.4188C16.3298 16.3545 16.35 16.3385 16.35 16.3581ZM8.775 16.4581C8.775 16.4626 8.74405 16.4935 8.70625 16.5269L8.6375 16.5875L8.6981 16.5188C8.75475 16.4545 8.775 16.4385 8.775 16.4581ZM8.19323 16.7401C8.18493 16.7484 8.16335 16.7493 8.14532 16.7421C8.12537 16.7341 8.1313 16.7282 8.16042 16.727C8.18677 16.7259 8.20153 16.7318 8.19323 16.7401ZM12.525 17.3625C12.5717 17.4106 12.6042 17.45 12.5973 17.45C12.5904 17.45 12.5467 17.4106 12.5 17.3625C12.4534 17.3144 12.4208 17.275 12.4277 17.275C12.4346 17.275 12.4784 17.3144 12.525 17.3625ZM17.8 17.4826C17.8 17.4868 17.7578 17.529 17.7063 17.5764L17.6125 17.6625L17.6986 17.5688C17.7788 17.4815 17.8 17.4635 17.8 17.4826ZM10.275 17.5345C10.275 17.5396 10.2553 17.5593 10.2313 17.5782C10.1916 17.6093 10.1907 17.6084 10.2218 17.5688C10.2545 17.5271 10.275 17.5139 10.275 17.5345ZM6.0282 17.7188C6.05928 17.7584 6.0584 17.7593 6.01875 17.7282C5.99468 17.7093 5.975 17.6896 5.975 17.6845C5.975 17.6639 5.99553 17.6771 6.0282 17.7188ZM10.05 17.7595C10.05 17.7646 10.0303 17.7843 10.0063 17.8032C9.9666 17.8343 9.96573 17.8334 9.9968 17.7938C10.0295 17.7521 10.05 17.7389 10.05 17.7595ZM8.51823 18.3901C8.50993 18.3984 8.48835 18.3993 8.47032 18.3921C8.45037 18.3841 8.4563 18.3782 8.48542 18.377C8.51177 18.3759 8.52653 18.3818 8.51823 18.3901ZM14.8682 18.3901C14.8599 18.3984 14.8383 18.3993 14.8203 18.3921C14.8004 18.3841 14.8063 18.3782 14.8354 18.377C14.8618 18.3759 14.8765 18.3818 14.8682 18.3901ZM15.7682 18.3901C15.7599 18.3984 15.7383 18.3993 15.7203 18.3921C15.7004 18.3841 15.7063 18.3782 15.7354 18.377C15.7618 18.3759 15.7765 18.3818 15.7682 18.3901Z" fill="white"/>
<path fill-rule="evenodd" clip-rule="evenodd" d="M0 10V20H10H20V10V0H10H0V10ZM15.3572 9.0934C15.2855 9.09842 15.1617 9.09847 15.0822 9.0935C15.0026 9.08852 15.0613 9.0844 15.2125 9.08435C15.3638 9.0843 15.4288 9.08837 15.3572 9.0934ZM14.8188 9.11723C14.7947 9.12353 14.7553 9.12353 14.7313 9.11723C14.7072 9.11095 14.7269 9.1058 14.775 9.1058C14.8231 9.1058 14.8428 9.11095 14.8188 9.11723ZM15.7188 9.11723C15.6947 9.12353 15.6553 9.12353 15.6313 9.11723C15.6072 9.11095 15.6269 9.1058 15.675 9.1058C15.7231 9.1058 15.7428 9.11095 15.7188 9.11723ZM14.6182 9.1401C14.6099 9.1484 14.5883 9.1493 14.5703 9.14208C14.5504 9.1341 14.5563 9.12818 14.5854 9.12698C14.6118 9.1259 14.6265 9.1318 14.6182 9.1401ZM15.8813 9.14155C15.8641 9.1485 15.836 9.1485 15.8188 9.14155C15.8016 9.13462 15.8156 9.12895 15.85 9.12895C15.8844 9.12895 15.8985 9.13462 15.8813 9.14155ZM10.3938 9.19372C10.136 9.19777 9.71408 9.19777 9.45625 9.19372C9.19845 9.18965 9.40938 9.18633 9.925 9.18633C10.4406 9.18633 10.6516 9.18965 10.3938 9.19372ZM14.3682 9.1901C14.3599 9.1984 14.3383 9.1993 14.3203 9.19208C14.3004 9.1841 14.3063 9.17818 14.3354 9.17698C14.3618 9.1759 14.3765 9.1818 14.3682 9.1901ZM16.1432 9.1901C16.1349 9.1984 16.1133 9.1993 16.0953 9.19208C16.0754 9.1841 16.0813 9.17818 16.1104 9.17698C16.1368 9.1759 16.1515 9.1818 16.1432 9.1901ZM13.9 9.35C13.8794 9.36333 13.8513 9.37422 13.8375 9.37422C13.8238 9.37422 13.8294 9.36333 13.85 9.35C13.8706 9.33668 13.8988 9.32578 13.9125 9.32578C13.9263 9.32578 13.9206 9.33668 13.9 9.35ZM16.6 9.35C16.6206 9.36333 16.6263 9.37422 16.6125 9.37422C16.5988 9.37422 16.5706 9.36333 16.55 9.35C16.5294 9.33668 16.5238 9.32578 16.5375 9.32578C16.5513 9.32578 16.5794 9.33668 16.6 9.35ZM13.75 9.41163C13.75 9.418 13.7247 9.4355 13.6938 9.4505C13.6397 9.47667 13.6394 9.47622 13.686 9.43887C13.737 9.39802 13.75 9.3925 13.75 9.41163ZM16.8 9.46425C16.8 9.47113 16.7775 9.46473 16.75 9.45C16.7225 9.43528 16.7 9.41762 16.7 9.41075C16.7 9.40387 16.7225 9.41028 16.75 9.425C16.7775 9.43973 16.8 9.45738 16.8 9.46425ZM13.425 9.60945C13.425 9.61462 13.4053 9.63432 13.3813 9.6532C13.3416 9.68427 13.3407 9.6834 13.3718 9.64375C13.4045 9.6021 13.425 9.58887 13.425 9.60945ZM17.1032 9.66875C17.1343 9.7084 17.1334 9.70927 17.0938 9.6782C17.0697 9.65932 17.05 9.63962 17.05 9.63445C17.05 9.61387 17.0705 9.6271 17.1032 9.66875ZM13.15 9.8625C13.0476 9.96563 12.9581 10.05 12.9512 10.05C12.9444 10.05 13.0226 9.96563 13.125 9.8625C13.2274 9.75938 13.3169 9.675 13.3238 9.675C13.3306 9.675 13.2524 9.75938 13.15 9.8625ZM17.325 9.8625C17.3997 9.93813 17.4552 10 17.4483 10C17.4414 10 17.3747 9.93813 17.3 9.8625C17.2253 9.78688 17.1698 9.725 17.1767 9.725C17.1836 9.725 17.2503 9.78688 17.325 9.8625ZM17.5375 10.1C17.5624 10.1275 17.5771 10.15 17.5703 10.15C17.5634 10.15 17.5374 10.1275 17.5125 10.1C17.4876 10.0725 17.4729 10.05 17.4798 10.05C17.4866 10.05 17.5126 10.0725 17.5375 10.1ZM12.95 10.0844C12.95 10.0896 12.9303 10.1093 12.9063 10.1282C12.8666 10.1593 12.8657 10.1584 12.8968 10.1188C12.9295 10.0771 12.95 10.0639 12.95 10.0844ZM17.6282 10.2188C17.6593 10.2584 17.6584 10.2593 17.6188 10.2282C17.5771 10.1955 17.5639 10.175 17.5845 10.175C17.5896 10.175 17.6093 10.1947 17.6282 10.2188ZM17.8 10.475C17.8147 10.5025 17.8211 10.525 17.8143 10.525C17.8074 10.525 17.7897 10.5025 17.775 10.475C17.7603 10.4475 17.7539 10.425 17.7608 10.425C17.7676 10.425 17.7853 10.4475 17.8 10.475ZM17.85 10.5594C17.85 10.5646 17.8303 10.5843 17.8063 10.6032C17.7666 10.6343 17.7657 10.6334 17.7968 10.5938C17.8295 10.5521 17.85 10.5389 17.85 10.5594ZM15.0563 10.7165C15.0391 10.7235 15.011 10.7235 14.9938 10.7165C14.9766 10.7096 14.9906 10.7039 15.025 10.7039C15.0594 10.7039 15.0735 10.7096 15.0563 10.7165ZM15.4317 10.7164C15.4148 10.7233 15.381 10.7237 15.3567 10.7173C15.3324 10.711 15.3463 10.7054 15.3875 10.7049C15.4288 10.7044 15.4486 10.7096 15.4317 10.7164ZM15.5682 10.7401C15.5599 10.7484 15.5383 10.7493 15.5203 10.7421C15.5004 10.7341 15.5063 10.7282 15.5354 10.727C15.5618 10.7259 15.5765 10.7318 15.5682 10.7401ZM14.7729 10.7841C14.7672 10.7891 14.7344 10.8066 14.7 10.823C14.6411 10.8511 14.6403 10.8505 14.686 10.8139C14.7258 10.782 14.8072 10.7541 14.7729 10.7841ZM15.7873 10.8247C15.7961 10.8389 15.7861 10.8431 15.7638 10.8345C15.7205 10.8179 15.7126 10.8 15.7485 10.8C15.7615 10.8 15.7789 10.8111 15.7873 10.8247ZM14.625 10.8586C14.625 10.8634 14.5997 10.8887 14.5688 10.9149L14.5125 10.9625L14.5601 10.9063C14.6049 10.8534 14.625 10.8386 14.625 10.8586ZM12.5421 10.9297C12.5341 10.9496 12.5282 10.9437 12.527 10.9146C12.5259 10.8882 12.5318 10.8735 12.5401 10.8818C12.5484 10.8901 12.5493 10.9116 12.5421 10.9297ZM15.9282 10.9188C15.9593 10.9584 15.9584 10.9593 15.9188 10.9282C15.8947 10.9093 15.875 10.8896 15.875 10.8844C15.875 10.8639 15.8955 10.8771 15.9282 10.9188ZM16.0875 11.05C16.1412 11.105 16.1795 11.15 16.1727 11.15C16.1658 11.15 16.1162 11.105 16.0625 11.05C16.0088 10.995 15.9705 10.95 15.9774 10.95C15.9842 10.95 16.0338 10.995 16.0875 11.05ZM12.5171 11.0297C12.5091 11.0496 12.5032 11.0437 12.502 11.0146C12.5009 10.9882 12.5068 10.9735 12.5151 10.9818C12.5234 10.9901 12.5243 11.0116 12.5171 11.0297ZM14.5 10.9836C14.5 10.9884 14.4747 11.0137 14.4438 11.0399L14.3875 11.0875L14.4351 11.0313C14.4799 10.9784 14.5 10.9636 14.5 10.9836ZM12.4921 11.1547C12.4841 11.1746 12.4782 11.1687 12.477 11.1396C12.4759 11.1132 12.4818 11.0985 12.4901 11.1068C12.4984 11.1151 12.4993 11.1366 12.4921 11.1547ZM16.2282 11.2188C16.2593 11.2584 16.2584 11.2593 16.2188 11.2282C16.1947 11.2093 16.175 11.1896 16.175 11.1844C16.175 11.1639 16.1955 11.1771 16.2282 11.2188ZM12.4685 11.7313C12.4636 11.8172 12.4596 11.7469 12.4596 11.575C12.4596 11.4031 12.4636 11.3328 12.4685 11.4188C12.4734 11.5047 12.4734 11.6453 12.4685 11.7313ZM14.2932 11.6188C14.2878 11.6703 14.2834 11.6281 14.2834 11.525C14.2834 11.4219 14.2878 11.3797 14.2932 11.4313C14.2986 11.4828 14.2986 11.5672 14.2932 11.6188ZM16.625 11.3616C16.625 11.368 16.5997 11.3855 16.5688 11.4005C16.5147 11.4267 16.5144 11.4262 16.561 11.3889C16.612 11.348 16.625 11.3425 16.625 11.3616ZM16.4 11.4625C16.418 11.4841 16.4204 11.5 16.4057 11.5C16.3918 11.5 16.3739 11.4831 16.366 11.4625C16.3581 11.4419 16.3555 11.425 16.3602 11.425C16.365 11.425 16.3829 11.4419 16.4 11.4625ZM14.3171 11.7797C14.3091 11.7996 14.3032 11.7937 14.302 11.7646C14.3009 11.7382 14.3068 11.7235 14.3151 11.7318C14.3234 11.7401 14.3243 11.7616 14.3171 11.7797ZM12.4921 12.0547C12.4841 12.0746 12.4782 12.0687 12.477 12.0396C12.4759 12.0132 12.4818 11.9985 12.4901 12.0068C12.4984 12.0151 12.4993 12.0366 12.4921 12.0547ZM14.4782 12.0688C14.5093 12.1084 14.5084 12.1093 14.4688 12.0782C14.4447 12.0593 14.425 12.0396 14.425 12.0344C14.425 12.0139 14.4455 12.0271 14.4782 12.0688ZM12.5165 12.2063C12.5096 12.2235 12.5039 12.2094 12.5039 12.175C12.5039 12.1406 12.5096 12.1266 12.5165 12.1438C12.5235 12.161 12.5235 12.1891 12.5165 12.2063ZM14.625 12.2125C14.6573 12.2469 14.6781 12.275 14.6712 12.275C14.6644 12.275 14.6323 12.2469 14.6 12.2125C14.5677 12.1781 14.5469 12.15 14.5538 12.15C14.5607 12.15 14.5927 12.1781 14.625 12.2125ZM12.5421 12.3047C12.5341 12.3246 12.5282 12.3187 12.527 12.2896C12.5259 12.2632 12.5318 12.2485 12.5401 12.2568C12.5484 12.2651 12.5493 12.2866 12.5421 12.3047ZM14.875 12.3893C14.875 12.3961 14.8525 12.3897 14.825 12.375C14.7975 12.3603 14.775 12.3426 14.775 12.3358C14.775 12.3289 14.7975 12.3353 14.825 12.35C14.8525 12.3647 14.875 12.3824 14.875 12.3893ZM15.325 12.6C15.3456 12.6133 15.3513 12.6242 15.3375 12.6242C15.3238 12.6242 15.2956 12.6133 15.275 12.6C15.2544 12.5867 15.2488 12.5758 15.2625 12.5758C15.2763 12.5758 15.3044 12.5867 15.325 12.6ZM12.6992 12.7375C12.6992 12.7513 12.6883 12.7456 12.675 12.725C12.6617 12.7044 12.6508 12.6763 12.6508 12.6625C12.6508 12.6488 12.6617 12.6544 12.675 12.675C12.6883 12.6956 12.6992 12.7238 12.6992 12.7375ZM12.8 12.925C12.8147 12.9525 12.8211 12.975 12.8143 12.975C12.8074 12.975 12.7897 12.9525 12.775 12.925C12.7603 12.8975 12.7539 12.875 12.7608 12.875C12.7676 12.875 12.7853 12.8975 12.8 12.925ZM16.075 12.925C16.0956 12.9383 16.1013 12.9492 16.0875 12.9492C16.0738 12.9492 16.0456 12.9383 16.025 12.925C16.0044 12.9117 15.9988 12.9008 16.0125 12.9008C16.0263 12.9008 16.0544 12.9117 16.075 12.925ZM16.35 13.05C16.3981 13.0764 16.4263 13.0979 16.4125 13.0979C16.3988 13.0979 16.3481 13.0764 16.3 13.05C16.2519 13.0237 16.2238 13.0021 16.2375 13.0021C16.2513 13.0021 16.3019 13.0237 16.35 13.05ZM16.5632 13.1702C16.5555 13.1779 16.5353 13.1702 16.5183 13.1531C16.4938 13.1284 16.4967 13.1256 16.5323 13.1391C16.557 13.1485 16.5709 13.1625 16.5632 13.1702ZM12.9782 13.1938C13.0093 13.2334 13.0084 13.2343 12.9688 13.2032C12.9271 13.1705 12.9139 13.15 12.9344 13.15C12.9396 13.15 12.9593 13.1697 12.9782 13.1938ZM16.75 13.2638C16.75 13.2707 16.7163 13.2588 16.675 13.2375C16.6338 13.2162 16.6 13.1931 16.6 13.1862C16.6 13.1793 16.6338 13.1912 16.675 13.2125C16.7163 13.2338 16.75 13.2569 16.75 13.2638ZM13.2 13.4375C13.2886 13.5269 13.3554 13.6 13.3486 13.6C13.3417 13.6 13.2636 13.5269 13.175 13.4375C13.0864 13.3481 13.0196 13.275 13.0264 13.275C13.0333 13.275 13.1114 13.3481 13.2 13.4375ZM17.1892 13.5277C17.1985 13.5428 17.1766 13.5359 17.1406 13.5122C17.1045 13.4886 17.075 13.4645 17.075 13.4587C17.075 13.4406 17.1714 13.4989 17.1892 13.5277ZM13.4375 13.65C13.4624 13.6775 13.4771 13.7 13.4703 13.7C13.4634 13.7 13.4374 13.6775 13.4125 13.65C13.3876 13.6225 13.3729 13.6 13.3798 13.6C13.3866 13.6 13.4126 13.6225 13.4375 13.65ZM17.3532 13.6438C17.3843 13.6834 17.3834 13.6843 17.3438 13.6532C17.3021 13.6205 17.2889 13.6 17.3095 13.6C17.3146 13.6 17.3343 13.6197 17.3532 13.6438ZM17.4625 13.725C17.4874 13.7525 17.5021 13.775 17.4953 13.775C17.4884 13.775 17.4624 13.7525 17.4375 13.725C17.4126 13.6975 17.3979 13.675 17.4048 13.675C17.4116 13.675 17.4376 13.6975 17.4625 13.725ZM13.5532 13.7438C13.5843 13.7834 13.5834 13.7843 13.5438 13.7532C13.5021 13.7205 13.4889 13.7 13.5094 13.7C13.5146 13.7 13.5343 13.7197 13.5532 13.7438ZM17.7 13.9375C17.7747 14.0131 17.8302 14.075 17.8233 14.075C17.8164 14.075 17.7497 14.0131 17.675 13.9375C17.6003 13.8619 17.5448 13.8 17.5517 13.8C17.5586 13.8 17.6253 13.8619 17.7 13.9375ZM13.925 13.9893C13.925 13.9961 13.9025 13.9897 13.875 13.975C13.8475 13.9603 13.825 13.9426 13.825 13.9358C13.825 13.9289 13.8475 13.9353 13.875 13.95C13.9025 13.9647 13.925 13.9824 13.925 13.9893ZM14.15 14.1138C14.15 14.1207 14.1163 14.1088 14.075 14.0875C14.0338 14.0662 14 14.0431 14 14.0362C14 14.0293 14.0338 14.0412 14.075 14.0625C14.1163 14.0838 14.15 14.1069 14.15 14.1138ZM17.9032 14.1688C17.9343 14.2084 17.9334 14.2093 17.8938 14.1782C17.8521 14.1455 17.8389 14.125 17.8595 14.125C17.8646 14.125 17.8843 14.1447 17.9032 14.1688ZM14.425 14.2375C14.4594 14.2572 14.4763 14.2732 14.4625 14.2732C14.4488 14.2732 14.4094 14.2572 14.375 14.2375C14.3406 14.2179 14.3238 14.2018 14.3375 14.2018C14.3513 14.2018 14.3906 14.2179 14.425 14.2375ZM15.425 14.675C15.4456 14.6883 15.4513 14.6992 15.4375 14.6992C15.4238 14.6992 15.3956 14.6883 15.375 14.675C15.3544 14.6617 15.3488 14.6508 15.3625 14.6508C15.3763 14.6508 15.4044 14.6617 15.425 14.675ZM18.2242 14.7375C18.2242 14.7513 18.2133 14.7456 18.2 14.725C18.1867 14.7044 18.1758 14.6763 18.1758 14.6625C18.1758 14.6488 18.1867 14.6544 18.2 14.675C18.2133 14.6956 18.2242 14.7238 18.2242 14.7375ZM15.6873 14.7997C15.6961 14.8139 15.6861 14.8181 15.6638 14.8096C15.6205 14.7929 15.6126 14.775 15.6485 14.775C15.6615 14.775 15.6789 14.7861 15.6873 14.7997ZM15.814 14.8639C15.8597 14.9006 15.8589 14.901 15.8 14.873C15.7235 14.8365 15.7093 14.825 15.7411 14.825C15.7545 14.825 15.7873 14.8425 15.814 14.8639ZM16.1782 15.0938C16.2093 15.1334 16.2084 15.1343 16.1688 15.1032C16.1271 15.0705 16.1139 15.05 16.1345 15.05C16.1396 15.05 16.1593 15.0697 16.1782 15.0938ZM18.3415 15.2063C18.3346 15.2235 18.329 15.2094 18.329 15.175C18.329 15.1406 18.3346 15.1266 18.3415 15.1438C18.3485 15.161 18.3485 15.1891 18.3415 15.2063ZM16.3032 15.1938C16.3343 15.2334 16.3334 15.2343 16.2938 15.2032C16.2521 15.1705 16.2389 15.15 16.2595 15.15C16.2646 15.15 16.2843 15.1697 16.3032 15.1938ZM18.3665 15.3313C18.3596 15.3485 18.354 15.3344 18.354 15.3C18.354 15.2656 18.3596 15.2516 18.3665 15.2688C18.3735 15.286 18.3735 15.3141 18.3665 15.3313ZM16.4258 15.3514C16.4637 15.4224 16.4378 15.4108 16.3878 15.3344C16.3641 15.2984 16.3572 15.2765 16.3723 15.2858C16.3874 15.2951 16.4114 15.3247 16.4258 15.3514ZM18.3927 15.5809C18.3867 15.612 18.3816 15.5925 18.3813 15.5375C18.381 15.4825 18.3859 15.457 18.3922 15.4809C18.3984 15.5048 18.3986 15.5498 18.3927 15.5809ZM16.5171 15.6047C16.5091 15.6246 16.5032 15.6187 16.502 15.5896C16.5009 15.5632 16.5068 15.5485 16.5151 15.5568C16.5234 15.5651 16.5243 15.5866 16.5171 15.6047ZM16.5431 15.8808C16.5375 15.9257 16.5329 15.895 16.5328 15.8125C16.5326 15.73 16.5372 15.6932 16.5429 15.7308C16.5486 15.7684 16.5487 15.8359 16.5431 15.8808ZM8.99223 15.8188C8.98595 15.8428 8.9808 15.8231 8.9808 15.775C8.9808 15.7269 8.98595 15.7072 8.99223 15.7313C8.99853 15.7553 8.99853 15.7947 8.99223 15.8188ZM13.225 15.7366C13.225 15.743 13.1997 15.7605 13.1688 15.7755C13.1147 15.8017 13.1144 15.8012 13.161 15.7639C13.212 15.723 13.225 15.7175 13.225 15.7366ZM13.05 15.8366C13.05 15.843 13.0247 15.8605 12.9938 15.8755C12.9397 15.9017 12.9394 15.9012 12.986 15.8639C13.037 15.823 13.05 15.8175 13.05 15.8366ZM13.5782 15.8688C13.6093 15.9084 13.6084 15.9093 13.5688 15.8782C13.5271 15.8455 13.5139 15.825 13.5344 15.825C13.5396 15.825 13.5593 15.8447 13.5782 15.8688ZM10.8422 15.9938C10.836 16.0178 10.8308 15.9981 10.8308 15.95C10.8308 15.9019 10.836 15.8822 10.8422 15.9063C10.8485 15.9303 10.8485 15.9697 10.8422 15.9938ZM12.925 15.9116C12.925 15.918 12.8997 15.9355 12.8688 15.9505C12.8147 15.9767 12.8144 15.9762 12.861 15.9389C12.912 15.898 12.925 15.8925 12.925 15.9116ZM13.6532 15.9688C13.6843 16.0084 13.6834 16.0093 13.6438 15.9782C13.6021 15.9455 13.5889 15.925 13.6094 15.925C13.6146 15.925 13.6343 15.9447 13.6532 15.9688ZM8.96655 16.0313C8.95962 16.0485 8.95395 16.0344 8.95395 16C8.95395 15.9656 8.95962 15.9516 8.96655 15.9688C8.9735 15.986 8.9735 16.0141 8.96655 16.0313ZM18.3922 16.0938C18.386 16.1178 18.3808 16.0981 18.3808 16.05C18.3808 16.0019 18.386 15.9822 18.3922 16.0063C18.3985 16.0303 18.3985 16.0697 18.3922 16.0938ZM12.75 16.0116C12.75 16.018 12.7247 16.0355 12.6938 16.0505C12.6397 16.0767 12.6394 16.0762 12.686 16.0389C12.737 15.998 12.75 15.9925 12.75 16.0116ZM13.85 16.1875C13.9247 16.2631 13.9802 16.325 13.9733 16.325C13.9664 16.325 13.8997 16.2631 13.825 16.1875C13.7503 16.1119 13.6948 16.05 13.7017 16.05C13.7086 16.05 13.7753 16.1119 13.85 16.1875ZM10.8173 16.2183C10.811 16.2426 10.8054 16.2288 10.8049 16.1875C10.8044 16.1463 10.8096 16.1264 10.8164 16.1433C10.8233 16.1602 10.8237 16.194 10.8173 16.2183ZM6.125 16.1866C6.125 16.193 6.0997 16.2105 6.06875 16.2255C6.01473 16.2517 6.01442 16.2512 6.06102 16.2139C6.11202 16.173 6.125 16.1675 6.125 16.1866ZM18.3665 16.2813C18.3596 16.2985 18.354 16.2844 18.354 16.25C18.354 16.2156 18.3596 16.2016 18.3665 16.2188C18.3735 16.236 18.3735 16.2641 18.3665 16.2813ZM7.1125 16.3C7.13738 16.3275 7.15213 16.35 7.14525 16.35C7.13838 16.35 7.11238 16.3275 7.0875 16.3C7.06263 16.2725 7.04788 16.25 7.05475 16.25C7.06163 16.25 7.08763 16.2725 7.1125 16.3ZM10.7915 16.3563C10.7846 16.3735 10.7789 16.3594 10.7789 16.325C10.7789 16.2906 10.7846 16.2766 10.7915 16.2938C10.7985 16.311 10.7985 16.3391 10.7915 16.3563ZM12.275 16.2866C12.275 16.293 12.2497 16.3105 12.2188 16.3255C12.1647 16.3517 12.1644 16.3512 12.211 16.3139C12.262 16.273 12.275 16.2675 12.275 16.2866ZM16.3 16.4125C16.2393 16.4744 16.184 16.525 16.1771 16.525C16.1702 16.525 16.2143 16.4744 16.275 16.4125C16.3357 16.3506 16.391 16.3 16.3979 16.3C16.4048 16.3 16.3607 16.3506 16.3 16.4125ZM5.875 16.3366C5.875 16.343 5.8497 16.3605 5.81875 16.3755C5.76473 16.4017 5.76442 16.4012 5.81102 16.3639C5.86202 16.323 5.875 16.3175 5.875 16.3366ZM14.0782 16.3938C14.1093 16.4334 14.1084 16.4343 14.0688 16.4032C14.0271 16.3705 14.0139 16.35 14.0344 16.35C14.0396 16.35 14.0593 16.3697 14.0782 16.3938ZM18.3421 16.4047C18.3341 16.4246 18.3282 16.4187 18.327 16.3896C18.3259 16.3632 18.3318 16.3485 18.3401 16.3568C18.3484 16.3651 18.3493 16.3866 18.3421 16.4047ZM7.225 16.4375C7.2573 16.4719 7.2781 16.5 7.27123 16.5C7.26435 16.5 7.2323 16.4719 7.2 16.4375C7.1677 16.4031 7.1469 16.375 7.15378 16.375C7.16065 16.375 7.1927 16.4031 7.225 16.4375ZM12.1 16.3866C12.1 16.393 12.0747 16.4105 12.0438 16.4255C11.9897 16.4517 11.9894 16.4512 12.036 16.4139C12.087 16.373 12.1 16.3675 12.1 16.3866ZM8.8 16.4326C8.8 16.4368 8.75783 16.479 8.70625 16.5264L8.6125 16.6125L8.69865 16.5188C8.77885 16.4315 8.8 16.4135 8.8 16.4326ZM10.7671 16.4797C10.7591 16.4996 10.7532 16.4937 10.752 16.4646C10.7509 16.4382 10.7568 16.4235 10.7651 16.4318C10.7734 16.4401 10.7743 16.4616 10.7671 16.4797ZM11.9625 16.475C11.954 16.4888 11.9337 16.4998 11.9173 16.4996C11.8994 16.4994 11.9025 16.4896 11.925 16.475C11.973 16.444 11.9817 16.444 11.9625 16.475ZM14.3 16.5393C14.3 16.5461 14.2775 16.5397 14.25 16.525C14.2225 16.5103 14.2 16.4926 14.2 16.4858C14.2 16.4789 14.2225 16.4853 14.25 16.5C14.2775 16.5147 14.3 16.5324 14.3 16.5393ZM7.45 16.6163C7.45 16.6344 7.35365 16.5761 7.33583 16.5473C7.32648 16.5322 7.34835 16.5391 7.38443 16.5628C7.4205 16.5864 7.45 16.6105 7.45 16.6163ZM10.7421 16.5797C10.7341 16.5996 10.7282 16.5937 10.727 16.5646C10.7259 16.5382 10.7318 16.5235 10.7401 16.5318C10.7484 16.5401 10.7493 16.5616 10.7421 16.5797ZM16.15 16.5366C16.15 16.543 16.1247 16.5605 16.0938 16.5755C16.0397 16.6017 16.0394 16.6012 16.086 16.5639C16.137 16.523 16.15 16.5175 16.15 16.5366ZM11.975 16.625C11.9897 16.6525 11.9961 16.675 11.9893 16.675C11.9824 16.675 11.9647 16.6525 11.95 16.625C11.9353 16.5975 11.9289 16.575 11.9357 16.575C11.9426 16.575 11.9603 16.5975 11.975 16.625ZM14.45 16.6C14.4706 16.6133 14.4763 16.6242 14.4625 16.6242C14.4488 16.6242 14.4206 16.6133 14.4 16.6C14.3794 16.5867 14.3738 16.5758 14.3875 16.5758C14.4013 16.5758 14.4294 16.5867 14.45 16.6ZM8.56397 16.6383C8.53727 16.6585 8.50352 16.6746 8.48897 16.6741C8.4744 16.6736 8.49063 16.6572 8.525 16.6375C8.60598 16.5912 8.6257 16.5916 8.56397 16.6383ZM14.7932 16.7151C14.7849 16.7234 14.7633 16.7243 14.7453 16.7171C14.7254 16.7091 14.7313 16.7032 14.7604 16.702C14.7868 16.7009 14.8015 16.7068 14.7932 16.7151ZM15.7432 16.7151C15.7349 16.7234 15.7133 16.7243 15.6953 16.7171C15.6754 16.7091 15.6813 16.7032 15.7104 16.702C15.7368 16.7009 15.7515 16.7068 15.7432 16.7151ZM7.85673 16.7414C7.8398 16.7483 7.80605 16.7487 7.78173 16.7423C7.7574 16.736 7.77125 16.7304 7.8125 16.7299C7.85375 16.7294 7.87365 16.7346 7.85673 16.7414ZM8.24375 16.7422C8.2197 16.7485 8.1803 16.7485 8.15625 16.7422C8.1322 16.736 8.15188 16.7308 8.2 16.7308C8.24813 16.7308 8.2678 16.736 8.24375 16.7422ZM14.9313 16.7415C14.9141 16.7485 14.886 16.7485 14.8688 16.7415C14.8516 16.7346 14.8656 16.729 14.9 16.729C14.9344 16.729 14.9485 16.7346 14.9313 16.7415ZM15.6313 16.7415C15.6141 16.7485 15.586 16.7485 15.5688 16.7415C15.5516 16.7346 15.5656 16.729 15.6 16.729C15.6344 16.729 15.6485 16.7346 15.6313 16.7415ZM5.32018 16.8132C5.31248 16.8209 5.2985 16.807 5.2891 16.7823C5.27555 16.7467 5.2784 16.7438 5.3031 16.7683C5.3202 16.7853 5.32788 16.8055 5.32018 16.8132ZM15.3694 16.7682C15.3182 16.7735 15.2282 16.7736 15.1694 16.7683C15.1106 16.763 15.1525 16.7587 15.2625 16.7586C15.3725 16.7585 15.4206 16.7628 15.3694 16.7682ZM5.375 16.9C5.38973 16.9275 5.39613 16.95 5.38925 16.95C5.38238 16.95 5.36473 16.9275 5.35 16.9C5.33528 16.8725 5.32887 16.85 5.33575 16.85C5.34262 16.85 5.36028 16.8725 5.375 16.9ZM5.45 17.025C5.46473 17.0525 5.47113 17.075 5.46425 17.075C5.45738 17.075 5.43973 17.0525 5.425 17.025C5.41028 16.9975 5.40387 16.975 5.41075 16.975C5.41762 16.975 5.43528 16.9975 5.45 17.025ZM10.5781 17.0419C10.5486 17.0925 10.5415 17.0763 10.5656 17.0135C10.5741 16.9911 10.5865 16.9781 10.5929 16.9846C10.5993 16.991 10.5927 17.0168 10.5781 17.0419ZM12.2282 17.0188C12.2593 17.0584 12.2584 17.0593 12.2188 17.0282C12.1947 17.0093 12.175 16.9896 12.175 16.9845C12.175 16.9639 12.1955 16.9771 12.2282 17.0188ZM10.525 17.15C10.5103 17.1775 10.4926 17.2 10.4857 17.2C10.4789 17.2 10.4853 17.1775 10.5 17.15C10.5147 17.1225 10.5324 17.1 10.5393 17.1C10.5461 17.1 10.5397 17.1225 10.525 17.15ZM12.3375 17.15C12.3624 17.1775 12.3771 17.2 12.3703 17.2C12.3634 17.2 12.3374 17.1775 12.3125 17.15C12.2876 17.1225 12.2729 17.1 12.2798 17.1C12.2866 17.1 12.3126 17.1225 12.3375 17.15ZM18.05 17.15C18.0353 17.1775 18.0176 17.2 18.0108 17.2C18.0039 17.2 18.0103 17.1775 18.025 17.15C18.0397 17.1225 18.0574 17.1 18.0643 17.1C18.0711 17.1 18.0647 17.1225 18.05 17.15ZM5.5782 17.2188C5.60928 17.2584 5.6084 17.2593 5.56875 17.2282C5.5271 17.1955 5.51388 17.175 5.53445 17.175C5.53963 17.175 5.55933 17.1947 5.5782 17.2188ZM18 17.2345C18 17.2396 17.9803 17.2593 17.9563 17.2782C17.9166 17.3093 17.9157 17.3084 17.9468 17.2688C17.9795 17.2271 18 17.2139 18 17.2345ZM5.6532 17.3188C5.68428 17.3584 5.6834 17.3593 5.64375 17.3282C5.6021 17.2955 5.58888 17.275 5.60945 17.275C5.61463 17.275 5.63433 17.2947 5.6532 17.3188ZM12.525 17.3625C12.5717 17.4106 12.6042 17.45 12.5973 17.45C12.5904 17.45 12.5467 17.4106 12.5 17.3625C12.4534 17.3144 12.4208 17.275 12.4277 17.275C12.4346 17.275 12.4784 17.3144 12.525 17.3625ZM17.925 17.3336C17.925 17.3384 17.8997 17.3637 17.8688 17.3899L17.8125 17.4375L17.8601 17.3813C17.9049 17.3284 17.925 17.3136 17.925 17.3336ZM5.8875 17.575C5.983 17.6713 6.05553 17.75 6.04865 17.75C6.04178 17.75 5.958 17.6713 5.8625 17.575C5.767 17.4788 5.69448 17.4 5.70135 17.4C5.70823 17.4 5.792 17.4788 5.8875 17.575ZM10.35 17.4345C10.35 17.4396 10.3303 17.4593 10.3063 17.4782C10.2666 17.5093 10.2657 17.5084 10.2968 17.4688C10.3295 17.4271 10.35 17.4139 10.35 17.4345ZM12.725 17.5375C12.7573 17.5719 12.7781 17.6 12.7712 17.6C12.7644 17.6 12.7323 17.5719 12.7 17.5375C12.6677 17.5031 12.6469 17.475 12.6538 17.475C12.6607 17.475 12.6927 17.5031 12.725 17.5375ZM17.8 17.4826C17.8 17.4868 17.7578 17.529 17.7063 17.5764L17.6125 17.6625L17.6986 17.5688C17.7788 17.4815 17.8 17.4635 17.8 17.4826ZM10.275 17.532C10.275 17.5359 10.2047 17.6062 10.1188 17.6883L9.9625 17.8375L10.1117 17.6813C10.2503 17.5361 10.275 17.5136 10.275 17.532ZM12.8782 17.6688C12.9093 17.7084 12.9084 17.7093 12.8688 17.6782C12.8271 17.6455 12.8139 17.625 12.8344 17.625C12.8396 17.625 12.8593 17.6447 12.8782 17.6688ZM17.575 17.6836C17.575 17.6884 17.5497 17.7137 17.5188 17.7399L17.4625 17.7875L17.5101 17.7313C17.5549 17.6784 17.575 17.6636 17.575 17.6836ZM6.1282 17.7938C6.15928 17.8334 6.1584 17.8343 6.11875 17.8032C6.09468 17.7843 6.075 17.7646 6.075 17.7595C6.075 17.7389 6.09553 17.7521 6.1282 17.7938ZM9.95 17.8345C9.95 17.8396 9.9303 17.8593 9.90625 17.8782C9.8666 17.9093 9.86573 17.9084 9.8968 17.8688C9.92948 17.8271 9.95 17.8139 9.95 17.8345ZM17.35 17.8616C17.35 17.868 17.3247 17.8855 17.2938 17.9005C17.2397 17.9267 17.2394 17.9262 17.286 17.8889C17.337 17.848 17.35 17.8425 17.35 17.8616ZM17.225 17.9366C17.225 17.943 17.1997 17.9605 17.1688 17.9755C17.1147 18.0017 17.1144 18.0012 17.161 17.9639C17.212 17.923 17.225 17.9175 17.225 17.9366ZM9.7 18.0116C9.7 18.018 9.6747 18.0355 9.64375 18.0505C9.58973 18.0767 9.58943 18.0762 9.63603 18.0389C9.68703 17.998 9.7 17.9925 9.7 18.0116ZM13.575 18.0625C13.6094 18.0822 13.6263 18.0982 13.6125 18.0982C13.5988 18.0982 13.5594 18.0822 13.525 18.0625C13.4906 18.0429 13.4738 18.0268 13.4875 18.0268C13.5013 18.0268 13.5406 18.0429 13.575 18.0625ZM16.925 18.1C16.9044 18.1133 16.8763 18.1242 16.8625 18.1242C16.8488 18.1242 16.8544 18.1133 16.875 18.1C16.8956 18.0867 16.9238 18.0758 16.9375 18.0758C16.9513 18.0758 16.9456 18.0867 16.925 18.1ZM9.5 18.125C9.47938 18.1383 9.45125 18.1492 9.4375 18.1492C9.42375 18.1492 9.42938 18.1383 9.45 18.125C9.47063 18.1117 9.49875 18.1008 9.5125 18.1008C9.52625 18.1008 9.52063 18.1117 9.5 18.125ZM7.06823 18.2651C7.05993 18.2734 7.03835 18.2743 7.02032 18.2671C7.00037 18.2591 7.0063 18.2532 7.03542 18.252C7.06177 18.2509 7.07653 18.2568 7.06823 18.2651ZM9.14323 18.2651C9.13493 18.2734 9.11335 18.2743 9.09532 18.2671C9.07537 18.2591 9.0813 18.2532 9.11042 18.252C9.13677 18.2509 9.15153 18.2568 9.14323 18.2651ZM14.1682 18.2651C14.1599 18.2734 14.1383 18.2743 14.1203 18.2671C14.1004 18.2591 14.1063 18.2532 14.1354 18.252C14.1618 18.2509 14.1765 18.2568 14.1682 18.2651ZM16.3682 18.2901C16.3599 18.2984 16.3383 18.2993 16.3203 18.2921C16.3004 18.2841 16.3063 18.2782 16.3354 18.277C16.3618 18.2759 16.3765 18.2818 16.3682 18.2901ZM7.38125 18.3415C7.36408 18.3485 7.33595 18.3485 7.31875 18.3415C7.30158 18.3346 7.31563 18.329 7.35 18.329C7.38438 18.329 7.39845 18.3346 7.38125 18.3415ZM8.83125 18.3415C8.81408 18.3485 8.78595 18.3485 8.76875 18.3415C8.75158 18.3346 8.76563 18.329 8.8 18.329C8.83438 18.329 8.84845 18.3346 8.83125 18.3415ZM14.5317 18.3414C14.5148 18.3483 14.481 18.3487 14.4567 18.3423C14.4324 18.336 14.4463 18.3304 14.4875 18.3299C14.5288 18.3294 14.5486 18.3346 14.5317 18.3414ZM16.1063 18.3415C16.0891 18.3485 16.061 18.3485 16.0438 18.3415C16.0266 18.3346 16.0406 18.329 16.075 18.329C16.1094 18.329 16.1235 18.3346 16.1063 18.3415ZM7.53125 18.3665C7.51408 18.3735 7.48595 18.3735 7.46875 18.3665C7.45158 18.3596 7.46563 18.354 7.5 18.354C7.53438 18.354 7.54845 18.3596 7.53125 18.3665ZM8.68125 18.3665C8.66408 18.3735 8.63595 18.3735 8.61875 18.3665C8.60158 18.3596 8.61563 18.354 8.65 18.354C8.68438 18.354 8.69845 18.3596 8.68125 18.3665ZM14.6813 18.3665C14.6641 18.3735 14.636 18.3735 14.6188 18.3665C14.6016 18.3596 14.6156 18.354 14.65 18.354C14.6844 18.354 14.6985 18.3596 14.6813 18.3665ZM15.9563 18.3665C15.9391 18.3735 15.911 18.3735 15.8938 18.3665C15.8766 18.3596 15.8906 18.354 15.925 18.354C15.9594 18.354 15.9735 18.3596 15.9563 18.3665ZM7.73173 18.3914C7.7148 18.3983 7.68105 18.3987 7.65673 18.3923C7.6324 18.386 7.64625 18.3804 7.6875 18.3799C7.72875 18.3794 7.74865 18.3846 7.73173 18.3914ZM8.50673 18.3914C8.4898 18.3983 8.45605 18.3987 8.43173 18.3923C8.4074 18.386 8.42125 18.3804 8.4625 18.3799C8.50375 18.3794 8.52365 18.3846 8.50673 18.3914ZM14.9188 18.3922C14.8947 18.3985 14.8553 18.3985 14.8313 18.3922C14.8072 18.386 14.8269 18.3808 14.875 18.3808C14.9231 18.3808 14.9428 18.386 14.9188 18.3922ZM15.7567 18.3914C15.7398 18.3983 15.706 18.3987 15.6817 18.3923C15.6574 18.386 15.6713 18.3804 15.7125 18.3799C15.7538 18.3794 15.7736 18.3846 15.7567 18.3914Z" fill="#808080"/>
<path fill-rule="evenodd" clip-rule="evenodd" d="M0 10V20H10H20V10V0H10H0V10ZM15.95 9.14802C16.7122 9.29995 17.2886 9.69638 17.7297 10.3721C17.828 10.5226 17.8455 10.5649 17.8196 10.5893C17.7774 10.6291 16.4604 11.4731 16.4193 11.4867C16.4011 11.4927 16.3392 11.4215 16.275 11.3209C16.0539 10.9744 15.7633 10.7774 15.3917 10.7224C14.911 10.6511 14.4866 10.8549 14.3475 11.2238C14.3053 11.3358 14.2971 11.4034 14.305 11.5754C14.3273 12.0588 14.5503 12.2637 15.5088 12.6812C16.3402 13.0434 16.5301 13.133 16.8312 13.3055C17.6936 13.7996 18.1181 14.2948 18.3165 15.0377C18.3771 15.2646 18.3834 15.331 18.3854 15.7625C18.3879 16.3241 18.3482 16.5239 18.152 16.9375C17.8105 17.6577 17.1409 18.1295 16.1775 18.3289C15.8652 18.3935 15.0577 18.4195 14.707 18.3762C13.5262 18.2303 12.6129 17.678 12.0378 16.7618C11.962 16.6411 11.9003 16.53 11.9007 16.5149C11.9013 16.4894 13.3978 15.6113 13.41 15.6293C13.7794 16.1712 14.0736 16.4447 14.4626 16.6076C14.9391 16.8071 15.6212 16.7961 16.0458 16.582C16.2178 16.4952 16.4316 16.2651 16.4846 16.1098C16.5339 15.9649 16.5369 15.6976 16.4909 15.5447C16.3791 15.1732 16.1105 14.9891 14.95 14.4884C13.9958 14.0766 13.5842 13.8328 13.1977 13.4501C12.7853 13.0419 12.5738 12.6255 12.4864 12.05C12.3895 11.4123 12.4879 10.8222 12.7764 10.3098C12.9269 10.0426 13.3103 9.65825 13.594 9.4902C13.9376 9.28663 14.3315 9.15848 14.7959 9.09918C15.0477 9.06703 15.6773 9.09367 15.95 9.14802ZM10.8433 12.6938C10.8352 16.1803 10.8347 16.2145 10.7822 16.425C10.4941 17.5815 9.79813 18.2054 8.6052 18.3764C8.32643 18.4163 7.55058 18.3934 7.3 18.3378C6.42943 18.1447 5.76415 17.6471 5.33918 16.8712L5.24805 16.7048L5.85528 16.3371C6.75145 15.7945 6.74228 15.7999 6.76578 15.8011C6.77773 15.8017 6.84938 15.9044 6.925 16.0293C7.25458 16.5738 7.62028 16.7871 8.1375 16.7363C8.58563 16.6923 8.82695 16.4883 8.94688 16.0521C8.98028 15.9305 8.9863 15.4773 8.99348 12.5438L9.0017 9.175H9.9266H10.8515L10.8433 12.6938Z" fill="white"/>
<path fill-rule="evenodd" clip-rule="evenodd" d="M0 10.0124V19.9999H9.9875H19.975V10.0124V0.0249023H9.9875H0V10.0124ZM15.95 9.14793C16.7122 9.29985 17.2886 9.69628 17.7297 10.372C17.828 10.5225 17.8455 10.5648 17.8196 10.5892C17.7774 10.629 16.4604 11.473 16.4193 11.4866C16.4011 11.4926 16.3392 11.4214 16.275 11.3208C16.0539 10.9743 15.7633 10.7773 15.3917 10.7223C14.911 10.651 14.4866 10.8548 14.3475 11.2237C14.3053 11.3357 14.2971 11.4033 14.305 11.5753C14.3273 12.0587 14.5503 12.2636 15.5088 12.6811C16.3402 13.0433 16.5301 13.133 16.8312 13.3055C17.6936 13.7996 18.1181 14.2947 18.3165 15.0376C18.3771 15.2646 18.3834 15.3309 18.3854 15.7624C18.3879 16.324 18.3482 16.5238 18.152 16.9374C17.8105 17.6576 17.1409 18.1294 16.1775 18.3288C15.8652 18.3934 15.0577 18.4194 14.707 18.3761C13.5262 18.2302 12.6129 17.6779 12.0378 16.7617C11.962 16.641 11.9003 16.5299 11.9007 16.5148C11.9013 16.4893 13.3978 15.6112 13.41 15.6292C13.7794 16.1711 14.0736 16.4446 14.4626 16.6075C14.9391 16.8071 15.6212 16.796 16.0458 16.5819C16.2178 16.4951 16.4316 16.265 16.4846 16.1097C16.5339 15.9648 16.5369 15.6975 16.4909 15.5446C16.3791 15.1731 16.1105 14.989 14.95 14.4883C13.9958 14.0765 13.5842 13.8327 13.1977 13.4501C12.7853 13.0419 12.5738 12.6254 12.4864 12.0499C12.3895 11.4122 12.4879 10.8221 12.7764 10.3097C12.9269 10.0425 13.3103 9.65815 13.594 9.4901C13.9376 9.28653 14.3315 9.15838 14.7959 9.09908C15.0477 9.06693 15.6773 9.09358 15.95 9.14793ZM10.8433 12.6937C10.8352 16.1802 10.8347 16.2144 10.7822 16.4249C10.4941 17.5814 9.79813 18.2053 8.6052 18.3763C8.32643 18.4162 7.55058 18.3933 7.3 18.3377C6.42943 18.1446 5.76415 17.647 5.33918 16.8711L5.24805 16.7047L5.85528 16.337C6.75145 15.7944 6.74228 15.7998 6.76578 15.801C6.77773 15.8016 6.84938 15.9043 6.925 16.0292C7.25458 16.5737 7.62028 16.787 8.1375 16.7362C8.58563 16.6922 8.82695 16.4882 8.94688 16.052C8.98028 15.9304 8.9863 15.4772 8.99348 12.5437L9.0017 9.1749H9.9266H10.8515L10.8433 12.6937Z" fill="white"/>
<path fill-rule="evenodd" clip-rule="evenodd" d="M15.0938 9.06817C15.1522 9.07344 15.2478 9.07344 15.3063 9.06817C15.3647 9.06292 15.3169 9.05859 15.2 9.05859C15.0831 9.05859 15.0353 9.06292 15.0938 9.06817ZM14.7938 9.09252C14.8247 9.09847 14.8753 9.09847 14.9063 9.09252C14.9372 9.08654 14.9119 9.08167 14.85 9.08167C14.7881 9.08167 14.7628 9.08654 14.7938 9.09252ZM15.5316 9.09282C15.5696 9.09854 15.6258 9.09839 15.6566 9.09247C15.6873 9.08654 15.6563 9.08184 15.5875 9.08202C15.5188 9.08222 15.4936 9.08707 15.5316 9.09282ZM14.6067 9.11719C14.631 9.12354 14.6648 9.12312 14.6817 9.11627C14.6986 9.10942 14.6788 9.10424 14.6375 9.10474C14.5963 9.10524 14.5824 9.11084 14.6067 9.11719ZM15.7688 9.11642C15.786 9.12337 15.8141 9.12337 15.8313 9.11642C15.8485 9.10949 15.8344 9.10382 15.8 9.10382C15.7656 9.10382 15.7516 9.10949 15.7688 9.11642ZM14.3875 9.15104C14.3527 9.16682 14.3678 9.16907 14.4375 9.15847C14.4925 9.15009 14.5422 9.13909 14.5479 9.13404C14.5694 9.11512 14.4355 9.12929 14.3875 9.15104ZM15.9625 9.14987C16.0038 9.16037 16.06 9.16917 16.0875 9.16942C16.1267 9.16979 16.124 9.16554 16.075 9.14987C16.0406 9.13887 15.9844 9.13007 15.95 9.13032C15.8939 9.13074 15.8951 9.13272 15.9625 9.14987ZM8.98712 12.4374C8.98712 14.2386 8.9901 14.9718 8.99375 14.0667C8.99738 13.1615 8.99738 11.6878 8.99375 10.7917C8.9901 9.89554 8.98712 10.6361 8.98712 12.4374ZM10.8621 12.5874C10.8621 14.4711 10.8651 15.238 10.8688 14.2917C10.8724 13.3453 10.8724 11.804 10.8688 10.8667C10.8651 9.92929 10.8621 10.7036 10.8621 12.5874ZM14.125 9.22487C14.0793 9.25439 14.1188 9.25439 14.1875 9.22487C14.2205 9.21069 14.2247 9.20292 14.2 9.20202C14.1794 9.20124 14.1456 9.21154 14.125 9.22487ZM16.3 9.23737C16.4142 9.28132 16.4591 9.28067 16.3625 9.23647C16.3213 9.21757 16.2706 9.20247 16.25 9.20289C16.2294 9.20332 16.2519 9.21884 16.3 9.23737ZM13.925 9.29987C13.9044 9.31319 13.8988 9.32409 13.9125 9.32409C13.9263 9.32409 13.9544 9.31319 13.975 9.29987C13.9956 9.28654 14.0013 9.27564 13.9875 9.27564C13.9738 9.27564 13.9456 9.28654 13.925 9.29987ZM16.475 9.29987C16.4956 9.31319 16.5238 9.32409 16.5375 9.32409C16.5513 9.32409 16.5456 9.31319 16.525 9.29987C16.5044 9.28654 16.4763 9.27564 16.4625 9.27564C16.4488 9.27564 16.4544 9.28654 16.475 9.29987ZM16.6271 9.35899C16.6328 9.36399 16.6656 9.38149 16.7 9.39787C16.7589 9.42592 16.7597 9.42542 16.714 9.38874C16.6742 9.35684 16.5928 9.32897 16.6271 9.35899ZM13.7127 9.39959C13.7039 9.41374 13.714 9.41794 13.7362 9.40942C13.7795 9.39279 13.7874 9.37487 13.7515 9.37487C13.7385 9.37487 13.7211 9.38599 13.7127 9.39959ZM13.5424 9.49932C13.4778 9.54027 13.425 9.57917 13.425 9.58579C13.425 9.59239 13.4813 9.56284 13.55 9.52009C13.6603 9.45157 13.6931 9.42487 13.6674 9.42487C13.6632 9.42487 13.6069 9.45837 13.5424 9.49932ZM16.775 9.43562C16.775 9.44249 16.7975 9.46014 16.825 9.47487C16.8525 9.48959 16.875 9.49599 16.875 9.48912C16.875 9.48224 16.8525 9.46459 16.825 9.44987C16.7975 9.43514 16.775 9.42874 16.775 9.43562ZM16.9125 9.51672C16.9263 9.53002 17.0131 9.59982 17.1054 9.67184C17.1977 9.74384 17.3383 9.87279 17.4179 9.95839C17.4974 10.044 17.5403 10.0855 17.5131 10.0507C17.4101 9.91872 17.2573 9.76664 17.1125 9.65202C16.9703 9.53939 16.8561 9.46214 16.9125 9.51672ZM13.3468 9.64362C13.3157 9.68327 13.3166 9.68414 13.3563 9.65307C13.3979 9.62039 13.4111 9.59987 13.3906 9.59987C13.3854 9.59987 13.3657 9.61957 13.3468 9.64362ZM13.1118 9.85612L12.9375 10.0374L13.1188 9.86304C13.2184 9.76717 13.3 9.68559 13.3 9.68179C13.3 9.66344 13.2738 9.68777 13.1118 9.85612ZM12.8968 10.0936C12.8657 10.1333 12.8666 10.1341 12.9063 10.1031C12.9479 10.0704 12.9611 10.0499 12.9406 10.0499C12.9354 10.0499 12.9157 10.0696 12.8968 10.0936ZM17.575 10.1593C17.575 10.1645 17.5947 10.1842 17.6188 10.2031C17.6584 10.2341 17.6593 10.2333 17.6282 10.1936C17.5955 10.152 17.575 10.1387 17.575 10.1593ZM12.775 10.2749C12.7603 10.3024 12.7539 10.3249 12.7607 10.3249C12.7676 10.3249 12.7853 10.3024 12.8 10.2749C12.8147 10.2474 12.8211 10.2249 12.8143 10.2249C12.8074 10.2249 12.7897 10.2474 12.775 10.2749ZM12.6738 10.4523C12.645 10.5086 12.6258 10.559 12.6311 10.5642C12.6363 10.5695 12.6651 10.5234 12.695 10.4618C12.7631 10.3216 12.7447 10.3133 12.6738 10.4523ZM17.8241 10.5179C17.8481 10.5674 17.8401 10.5807 17.7505 10.64C17.6952 10.6766 17.65 10.7119 17.65 10.7186C17.65 10.7252 17.6753 10.7142 17.7063 10.6941C17.7372 10.674 17.7878 10.6418 17.8188 10.6227C17.8856 10.5813 17.8867 10.574 17.8361 10.5109C17.7987 10.4642 17.7983 10.4644 17.8241 10.5179ZM12.5529 10.7523C12.5376 10.7963 12.5258 10.8447 12.5268 10.8598C12.5277 10.875 12.5447 10.8433 12.5644 10.7895C12.5841 10.7357 12.5958 10.6874 12.5905 10.682C12.5851 10.6767 12.5682 10.7083 12.5529 10.7523ZM15.1313 10.7178C15.1691 10.7235 15.2309 10.7235 15.2688 10.7178C15.3066 10.712 15.2756 10.7074 15.2 10.7074C15.1244 10.7074 15.0934 10.712 15.1313 10.7178ZM14.9453 10.7419C14.9633 10.7492 14.9849 10.7483 14.9932 10.74C15.0015 10.7317 14.9868 10.7258 14.9604 10.7268C14.9313 10.728 14.9254 10.734 14.9453 10.7419ZM15.4188 10.7414C15.436 10.7484 15.4641 10.7484 15.4813 10.7414C15.4985 10.7345 15.4844 10.7288 15.45 10.7288C15.4156 10.7288 15.4016 10.7345 15.4188 10.7414ZM17.5121 10.7909C17.3845 10.8754 17.3395 10.9201 17.4391 10.8632C17.5268 10.8132 17.6439 10.7262 17.6246 10.7254C17.6174 10.7251 17.5668 10.7546 17.5121 10.7909ZM14.8 10.7749C14.7543 10.8044 14.7938 10.8044 14.8625 10.7749C14.8955 10.7607 14.8997 10.7529 14.875 10.752C14.8544 10.7512 14.8206 10.7615 14.8 10.7749ZM15.6 10.7874C15.7142 10.8313 15.7591 10.8307 15.6625 10.7865C15.6213 10.7676 15.5706 10.7525 15.55 10.7529C15.5294 10.7533 15.5519 10.7688 15.6 10.7874ZM14.6077 10.8892L14.5375 10.9535L14.6188 10.897C14.6635 10.8659 14.7 10.837 14.7 10.8327C14.7 10.8129 14.6724 10.8299 14.6077 10.8892ZM15.8 10.8586C15.8 10.8644 15.8295 10.8884 15.8656 10.9121C15.9016 10.9357 15.9235 10.9427 15.9142 10.9276C15.8964 10.8987 15.8 10.8405 15.8 10.8586ZM12.502 10.9394C12.5032 10.9686 12.5091 10.9745 12.5171 10.9546C12.5243 10.9365 12.5234 10.9149 12.5151 10.9066C12.5068 10.8983 12.5009 10.9131 12.502 10.9394ZM16.049 11.0561C16.1103 11.1214 16.1637 11.1749 16.1677 11.1749C16.1865 11.1749 16.1666 11.1524 16.0563 11.0488L15.9375 10.9374L16.049 11.0561ZM17.1621 11.0159C17.0345 11.1004 16.9895 11.1451 17.0891 11.0882C17.1768 11.0382 17.2939 10.9512 17.2746 10.9504C17.2674 10.9501 17.2168 10.9796 17.1621 11.0159ZM12.4789 11.0499C12.4789 11.0842 12.4846 11.0983 12.4915 11.0811C12.4985 11.0639 12.4985 11.0358 12.4915 11.0186C12.4846 11.0014 12.4789 11.0155 12.4789 11.0499ZM14.4446 11.0436C14.3892 11.1072 14.3437 11.2018 14.3605 11.2187C14.3685 11.2267 14.375 11.2216 14.375 11.2075C14.375 11.1934 14.4028 11.1409 14.4367 11.0909C14.503 10.9932 14.5064 10.9727 14.4446 11.0436ZM12.4558 11.1999C12.4558 11.248 12.4609 11.2677 12.4672 11.2436C12.4735 11.2196 12.4735 11.1802 12.4672 11.1561C12.4609 11.1321 12.4558 11.1517 12.4558 11.1999ZM16.8121 11.2409C16.6845 11.3254 16.6395 11.3701 16.7391 11.3132C16.8268 11.2632 16.9439 11.1762 16.9246 11.1754C16.9174 11.1751 16.8668 11.2046 16.8121 11.2409ZM16.175 11.2093C16.175 11.2145 16.1947 11.2342 16.2188 11.2531C16.2584 11.2841 16.2593 11.2833 16.2282 11.2436C16.1955 11.202 16.175 11.1887 16.175 11.2093ZM14.304 11.3749C14.304 11.4092 14.3096 11.4233 14.3165 11.4061C14.3235 11.3889 14.3235 11.3608 14.3165 11.3436C14.3096 11.3264 14.304 11.3405 14.304 11.3749ZM12.4336 11.5624C12.4336 11.6724 12.4381 11.7143 12.4433 11.6555C12.4486 11.5967 12.4485 11.5067 12.4432 11.4555C12.4378 11.4043 12.4335 11.4524 12.4336 11.5624ZM16.325 11.4249C16.3397 11.4524 16.3574 11.4749 16.3643 11.4749C16.3711 11.4749 16.3647 11.4524 16.35 11.4249C16.3353 11.3974 16.3176 11.3749 16.3107 11.3749C16.3039 11.3749 16.3103 11.3974 16.325 11.4249ZM16.4625 11.463C16.4075 11.4969 16.3724 11.5247 16.3846 11.5247C16.4102 11.5249 16.575 11.4259 16.575 11.4103C16.575 11.3945 16.5701 11.3968 16.4625 11.463ZM14.304 11.6749C14.304 11.7092 14.3096 11.7233 14.3165 11.7061C14.3235 11.6889 14.3235 11.6608 14.3165 11.6436C14.3096 11.6264 14.304 11.6405 14.304 11.6749ZM14.327 11.7894C14.3282 11.8186 14.3341 11.8245 14.3421 11.8046C14.3493 11.7865 14.3484 11.7649 14.3401 11.7566C14.3318 11.7483 14.3259 11.7631 14.327 11.7894ZM14.35 11.8659C14.35 11.8793 14.3675 11.9121 14.3889 11.9388C14.4255 11.9846 14.426 11.9838 14.398 11.9249C14.3615 11.8483 14.35 11.8342 14.35 11.8659ZM12.4563 11.9624C12.4566 12.0174 12.4617 12.0369 12.4677 12.0058C12.4737 11.9747 12.4734 11.9297 12.4672 11.9058C12.4609 11.8819 12.456 11.9074 12.4563 11.9624ZM14.4749 12.0686C14.5076 12.1133 14.5383 12.1499 14.5431 12.1499C14.5621 12.1499 14.5001 12.0561 14.4591 12.0228C14.4321 12.0009 14.4381 12.0183 14.4749 12.0686ZM12.4799 12.1374C12.4804 12.1786 12.486 12.1925 12.4923 12.1681C12.4987 12.1438 12.4983 12.1101 12.4914 12.0931C12.4846 12.0762 12.4794 12.0961 12.4799 12.1374ZM14.6173 12.2026C14.6474 12.2355 14.7093 12.2838 14.7548 12.31C14.8588 12.3699 14.8449 12.3547 14.6875 12.2366C14.6139 12.1814 14.585 12.1674 14.6173 12.2026ZM12.502 12.2644C12.5032 12.2936 12.5091 12.2995 12.5171 12.2796C12.5243 12.2615 12.5234 12.2399 12.5151 12.2316C12.5068 12.2233 12.5009 12.2381 12.502 12.2644ZM12.5285 12.3499C12.5285 12.3705 12.5382 12.4099 12.55 12.4374C12.5636 12.4689 12.5715 12.4735 12.5715 12.4499C12.5715 12.4292 12.5618 12.3899 12.55 12.3624C12.5365 12.3308 12.5285 12.3262 12.5285 12.3499ZM14.85 12.3623C14.85 12.3789 15.253 12.5802 15.2641 12.569C15.2691 12.5641 15.1779 12.5129 15.0615 12.4552C14.9452 12.3974 14.85 12.3556 14.85 12.3623ZM12.6008 12.5874C12.6008 12.6011 12.6117 12.6292 12.625 12.6499C12.6383 12.6705 12.6492 12.6761 12.6492 12.6624C12.6492 12.6486 12.6383 12.6205 12.625 12.5999C12.6117 12.5792 12.6008 12.5736 12.6008 12.5874ZM15.4 12.6374C15.4344 12.657 15.4738 12.6731 15.4875 12.6731C15.5013 12.6731 15.4844 12.657 15.45 12.6374C15.4156 12.6177 15.3763 12.6016 15.3625 12.6016C15.3488 12.6016 15.3656 12.6177 15.4 12.6374ZM15.6 12.7249C15.6206 12.7382 15.6488 12.7491 15.6625 12.7491C15.6763 12.7491 15.6706 12.7382 15.65 12.7249C15.6294 12.7115 15.6013 12.7006 15.5875 12.7006C15.5738 12.7006 15.5794 12.7115 15.6 12.7249ZM12.675 12.7594C12.675 12.7863 12.7494 12.9249 12.7638 12.9249C12.7706 12.9249 12.7577 12.8883 12.735 12.8436C12.6885 12.7524 12.675 12.7333 12.675 12.7594ZM15.775 12.7999C15.7956 12.8132 15.8238 12.8241 15.8375 12.8241C15.8513 12.8241 15.8456 12.8132 15.825 12.7999C15.8044 12.7865 15.7763 12.7756 15.7625 12.7756C15.7488 12.7756 15.7544 12.7865 15.775 12.7999ZM15.95 12.8749C15.9706 12.8882 15.9988 12.8991 16.0125 12.8991C16.0263 12.8991 16.0206 12.8882 16 12.8749C15.9794 12.8615 15.9513 12.8506 15.9375 12.8506C15.9238 12.8506 15.9294 12.8615 15.95 12.8749ZM16.15 12.9624C16.1844 12.982 16.2238 12.9981 16.2375 12.9981C16.2513 12.9981 16.2344 12.982 16.2 12.9624C16.1656 12.9427 16.1263 12.9266 16.1125 12.9266C16.0988 12.9266 16.1156 12.9427 16.15 12.9624ZM12.8173 13.0268C12.8422 13.0691 12.8785 13.1169 12.898 13.133C12.9175 13.1492 12.902 13.1145 12.8634 13.0561C12.7825 12.9334 12.7506 12.9131 12.8173 13.0268ZM16.475 13.1097C16.475 13.1151 16.4925 13.1262 16.5138 13.1344C16.5361 13.1429 16.5461 13.1387 16.5373 13.1246C16.5226 13.1008 16.475 13.0894 16.475 13.1097ZM12.9937 13.2624C13.0362 13.3174 13.1307 13.4186 13.2037 13.4874C13.3111 13.5885 13.3034 13.5766 13.1635 13.4249C12.9271 13.1685 12.9042 13.1466 12.9937 13.2624ZM16.725 13.2361C16.725 13.243 16.7588 13.266 16.8 13.2874C16.8413 13.3087 16.875 13.3205 16.875 13.3136C16.875 13.3068 16.8413 13.2837 16.8 13.2624C16.7588 13.241 16.725 13.2292 16.725 13.2361ZM16.9 13.3356C16.9 13.3425 16.9225 13.3601 16.95 13.3749C16.9775 13.3896 17 13.396 17 13.3891C17 13.3822 16.9775 13.3646 16.95 13.3499C16.9225 13.3351 16.9 13.3287 16.9 13.3356ZM17.025 13.4106C17.025 13.4175 17.0475 13.4351 17.075 13.4499C17.1025 13.4646 17.125 13.471 17.125 13.4641C17.125 13.4572 17.1025 13.4396 17.075 13.4249C17.0475 13.4101 17.025 13.4037 17.025 13.4106ZM17.15 13.4832C17.15 13.4899 17.226 13.5493 17.3188 13.6151C17.4116 13.6808 17.5888 13.8363 17.7125 13.9605C17.8363 14.0847 17.8996 14.1383 17.8533 14.0796C17.807 14.0209 17.6934 13.9049 17.6007 13.8219C17.4344 13.6731 17.15 13.4593 17.15 13.4832ZM13.3737 13.634C13.4245 13.6977 13.85 13.9967 13.85 13.9688C13.85 13.9623 13.7853 13.9145 13.7063 13.8626C13.6272 13.8106 13.5119 13.7278 13.45 13.6784C13.3881 13.6291 13.3538 13.6091 13.3737 13.634ZM13.875 13.9861C13.875 13.993 13.9088 14.016 13.95 14.0374C13.9913 14.0587 14.025 14.0705 14.025 14.0636C14.025 14.0568 13.9913 14.0337 13.95 14.0124C13.9088 13.991 13.875 13.9792 13.875 13.9861ZM14.2183 14.178C14.2353 14.1951 14.2555 14.2027 14.2632 14.195C14.2709 14.1873 14.257 14.1734 14.2323 14.164C14.1967 14.1504 14.1938 14.1533 14.2183 14.178ZM17.9866 14.2936C18.0251 14.352 18.0614 14.3999 18.0672 14.3999C18.0853 14.3999 17.9896 14.2477 17.952 14.2167C17.9325 14.2006 17.948 14.2352 17.9866 14.2936ZM14.5 14.3124C14.5344 14.332 14.5738 14.3481 14.5875 14.3481C14.6013 14.3481 14.5844 14.332 14.55 14.3124C14.5156 14.2927 14.4763 14.2766 14.4625 14.2766C14.4488 14.2766 14.4656 14.2927 14.5 14.3124ZM14.725 14.4124C14.7594 14.432 14.7988 14.4481 14.8125 14.4481C14.8263 14.4481 14.8094 14.432 14.775 14.4124C14.7406 14.3927 14.7013 14.3766 14.6875 14.3766C14.6738 14.3766 14.6906 14.3927 14.725 14.4124ZM18.1426 14.5617C18.1796 14.6369 18.2139 14.6943 18.2191 14.6891C18.2303 14.6779 18.1042 14.4249 18.0874 14.4249C18.0809 14.4249 18.1057 14.4864 18.1426 14.5617ZM14.9 14.4874C14.9344 14.507 14.9738 14.5231 14.9875 14.5231C15.0013 14.5231 14.9844 14.507 14.95 14.4874C14.9156 14.4677 14.8763 14.4516 14.8625 14.4516C14.8488 14.4516 14.8656 14.4677 14.9 14.4874ZM15.075 14.5624C15.1094 14.582 15.1488 14.5981 15.1625 14.5981C15.1763 14.5981 15.1594 14.582 15.125 14.5624C15.0906 14.5427 15.0513 14.5266 15.0375 14.5266C15.0238 14.5266 15.0406 14.5427 15.075 14.5624ZM15.25 14.6374C15.2844 14.657 15.3238 14.6731 15.3375 14.6731C15.3513 14.6731 15.3344 14.657 15.3 14.6374C15.2656 14.6177 15.2263 14.6016 15.2125 14.6016C15.1988 14.6016 15.2156 14.6177 15.25 14.6374ZM15.475 14.7374C15.5094 14.757 15.5488 14.7731 15.5625 14.7731C15.5763 14.7731 15.5594 14.757 15.525 14.7374C15.4906 14.7177 15.4513 14.7016 15.4375 14.7016C15.4238 14.7016 15.4406 14.7177 15.475 14.7374ZM15.6183 14.803C15.6353 14.8201 15.6555 14.8277 15.6632 14.82C15.6709 14.8123 15.657 14.7984 15.6323 14.789C15.5967 14.7754 15.5938 14.7783 15.6183 14.803ZM15.8 14.8863C15.8 14.8932 15.845 14.9218 15.9 14.9499C15.955 14.9779 16 14.9953 16 14.9884C16 14.9815 15.955 14.9529 15.9 14.9249C15.845 14.8968 15.8 14.8795 15.8 14.8863ZM18.302 14.9894C18.3032 15.0186 18.3091 15.0245 18.3171 15.0046C18.3243 14.9865 18.3234 14.9649 18.3151 14.9566C18.3068 14.9483 18.3009 14.9631 18.302 14.9894ZM16.1111 15.074C16.1531 15.1079 16.2374 15.1867 16.2983 15.249C16.3818 15.3344 16.3956 15.3427 16.3541 15.2828C16.3238 15.2391 16.2515 15.1667 16.1933 15.122C16.065 15.0233 16.0046 14.9881 16.1111 15.074ZM18.327 15.0894C18.3282 15.1186 18.3341 15.1245 18.3421 15.1046C18.3493 15.0865 18.3484 15.0649 18.3401 15.0566C18.3318 15.0483 18.3259 15.0631 18.327 15.0894ZM18.354 15.1999C18.354 15.2342 18.3596 15.2483 18.3665 15.2311C18.3735 15.2139 18.3735 15.1858 18.3665 15.1686C18.3596 15.1514 18.354 15.1655 18.354 15.1999ZM18.3813 15.3624C18.3816 15.4174 18.3867 15.4369 18.3927 15.4058C18.3986 15.3747 18.3984 15.3297 18.3922 15.3058C18.3859 15.2819 18.381 15.3074 18.3813 15.3624ZM16.427 15.4249C16.4635 15.5014 16.475 15.5156 16.475 15.4838C16.475 15.4704 16.4575 15.4376 16.4361 15.4109C16.3995 15.3651 16.399 15.3659 16.427 15.4249ZM18.4096 15.7874C18.4096 15.9524 18.4137 16.0166 18.4185 15.9301C18.4234 15.8437 18.4234 15.7087 18.4184 15.6301C18.4135 15.5516 18.4095 15.6224 18.4096 15.7874ZM13.3627 15.6246C13.3543 15.6382 13.3621 15.6437 13.38 15.6369C13.399 15.6297 13.4419 15.6712 13.4835 15.7371C13.5225 15.799 13.5656 15.8566 13.5793 15.865C13.593 15.8735 13.5623 15.8173 13.5111 15.7401C13.4176 15.5994 13.391 15.5787 13.3627 15.6246ZM16.5058 15.6999C16.5058 15.748 16.511 15.7677 16.5172 15.7436C16.5235 15.7196 16.5235 15.6802 16.5172 15.6561C16.511 15.6321 16.5058 15.6517 16.5058 15.6999ZM13.2438 15.6892C13.1503 15.7399 13.156 15.761 13.25 15.7124C13.2913 15.691 13.325 15.6682 13.325 15.6617C13.325 15.6456 13.3223 15.6465 13.2438 15.6892ZM13.0688 15.7892C12.9753 15.8399 12.981 15.861 13.075 15.8124C13.1163 15.791 13.15 15.7682 13.15 15.7617C13.15 15.7456 13.1473 15.7465 13.0688 15.7892ZM6.6125 15.8532C6.54375 15.8957 6.47625 15.9421 6.4625 15.9563C6.44875 15.9704 6.48813 15.9516 6.55 15.9144C6.73255 15.8047 6.78235 15.7844 6.79268 15.8154C6.7977 15.8304 6.81883 15.8641 6.8396 15.8901C6.87155 15.93 6.8713 15.9247 6.83808 15.8561C6.81643 15.8114 6.78495 15.7751 6.7681 15.7753C6.75127 15.7756 6.68125 15.8106 6.6125 15.8532ZM8.9558 15.8749C8.9558 15.923 8.96095 15.9427 8.96722 15.9186C8.97352 15.8946 8.97352 15.8552 8.96722 15.8311C8.96095 15.8071 8.9558 15.8267 8.9558 15.8749ZM12.911 15.8887C12.8644 15.9261 12.8647 15.9265 12.9188 15.9004C12.9497 15.8854 12.975 15.8679 12.975 15.8615C12.975 15.8424 12.962 15.8479 12.911 15.8887ZM16.5058 15.9499C16.5058 15.998 16.511 16.0177 16.5172 15.9936C16.5235 15.9696 16.5235 15.9302 16.5172 15.9061C16.511 15.8821 16.5058 15.9017 16.5058 15.9499ZM13.6688 15.9874C13.7113 16.0424 13.8114 16.1492 13.8912 16.2249C14.0141 16.3413 14.0079 16.3317 13.8509 16.1624C13.5979 15.8896 13.5796 15.872 13.6688 15.9874ZM12.7688 15.9642C12.6753 16.0149 12.681 16.036 12.775 15.9874C12.8163 15.966 12.85 15.9432 12.85 15.9367C12.85 15.9206 12.8473 15.9215 12.7688 15.9642ZM6.8968 15.9874C6.9103 16.0149 6.93965 16.0599 6.96205 16.0874L7.00275 16.1374L6.9782 16.0874C6.9647 16.0599 6.93535 16.0149 6.91295 15.9874L6.87225 15.9374L6.8968 15.9874ZM6.36102 16.0137C6.31442 16.0511 6.31473 16.0515 6.36875 16.0254C6.3997 16.0104 6.425 15.9929 6.425 15.9865C6.425 15.9674 6.41202 15.9729 6.36102 16.0137ZM8.92698 16.0394C8.92818 16.0686 8.9341 16.0745 8.94208 16.0546C8.9493 16.0365 8.9484 16.0149 8.9401 16.0066C8.9318 15.9983 8.9259 16.0131 8.92698 16.0394ZM10.8313 16.1124C10.8316 16.1674 10.8367 16.1869 10.8427 16.1558C10.8487 16.1247 10.8484 16.0797 10.8422 16.0558C10.8359 16.0319 10.831 16.0574 10.8313 16.1124ZM12.611 16.0637C12.5644 16.1011 12.5647 16.1015 12.6188 16.0754C12.6497 16.0604 12.675 16.0429 12.675 16.0365C12.675 16.0174 12.662 16.0229 12.611 16.0637ZM6.23602 16.0887C6.18942 16.1261 6.18973 16.1265 6.24375 16.1004C6.2747 16.0854 6.3 16.0679 6.3 16.0615C6.3 16.0424 6.28702 16.0479 6.23602 16.0887ZM8.90198 16.1166C8.9009 16.1326 8.89353 16.1664 8.8856 16.1916C8.87193 16.2351 8.87265 16.2352 8.89987 16.1927C8.91565 16.1681 8.923 16.1343 8.91625 16.1177C8.90737 16.0958 8.9034 16.0955 8.90198 16.1166ZM12.4688 16.1392C12.3753 16.1899 12.381 16.211 12.475 16.1624C12.5163 16.141 12.55 16.1182 12.55 16.1117C12.55 16.0956 12.5473 16.0965 12.4688 16.1392ZM6.11102 16.1637C6.06442 16.2011 6.06473 16.2015 6.11875 16.1754C6.1497 16.1604 6.175 16.1429 6.175 16.1365C6.175 16.1174 6.16202 16.1229 6.11102 16.1637ZM16.4126 16.2155C16.3863 16.2643 16.3024 16.3613 16.2262 16.4311C16.1499 16.5009 16.1105 16.5458 16.1385 16.5308C16.2412 16.4762 16.5005 16.1671 16.4697 16.1362C16.4645 16.1311 16.4388 16.1667 16.4126 16.2155ZM18.3808 16.1999C18.3808 16.248 18.386 16.2677 18.3922 16.2436C18.3985 16.2196 18.3985 16.1802 18.3922 16.1561C18.386 16.1321 18.3808 16.1517 18.3808 16.1999ZM7.04945 16.2241C7.07855 16.2649 7.1151 16.3062 7.1307 16.3159C7.1463 16.3255 7.12757 16.2921 7.08907 16.2416C7.0055 16.1321 6.974 16.1181 7.04945 16.2241ZM5.98602 16.2387C5.93942 16.2761 5.93973 16.2765 5.99375 16.2504C6.0247 16.2354 6.05 16.2179 6.05 16.2115C6.05 16.1924 6.03702 16.1979 5.98602 16.2387ZM12.2938 16.2392C12.2003 16.2899 12.206 16.311 12.3 16.2624C12.3413 16.241 12.375 16.2182 12.375 16.2117C12.375 16.1956 12.3723 16.1965 12.2938 16.2392ZM8.8286 16.3186C8.80133 16.3824 8.80195 16.3838 8.8371 16.3388C8.85795 16.3121 8.875 16.2812 8.875 16.2701C8.875 16.2321 8.85805 16.2498 8.8286 16.3186ZM10.802 16.2894C10.8032 16.3186 10.8091 16.3245 10.8171 16.3046C10.8243 16.2865 10.8234 16.2649 10.8151 16.2566C10.8068 16.2483 10.8009 16.2631 10.802 16.2894ZM5.86102 16.3137C5.81442 16.3511 5.81473 16.3515 5.86875 16.3254C5.8997 16.3104 5.925 16.2929 5.925 16.2865C5.925 16.2674 5.91202 16.2729 5.86102 16.3137ZM12.1188 16.3392C12.0253 16.3899 12.031 16.411 12.125 16.3624C12.1663 16.341 12.2 16.3182 12.2 16.3117C12.2 16.2956 12.1973 16.2965 12.1188 16.3392ZM18.354 16.3499C18.354 16.3842 18.3596 16.3983 18.3665 16.3811C18.3735 16.3639 18.3735 16.3358 18.3665 16.3186C18.3596 16.3014 18.354 16.3155 18.354 16.3499ZM5.6625 16.4282C5.59375 16.4707 5.52625 16.5171 5.5125 16.5313C5.48483 16.5597 5.6571 16.4617 5.75213 16.3949C5.85195 16.3248 5.79618 16.3454 5.6625 16.4282ZM7.2 16.4093C7.23438 16.448 7.29625 16.503 7.3375 16.5314C7.42663 16.5927 7.40265 16.5664 7.25 16.4353C7.17528 16.3712 7.1585 16.3624 7.2 16.4093ZM14.05 16.3593C14.05 16.3645 14.0697 16.3842 14.0938 16.4031C14.1334 16.4341 14.1343 16.4333 14.1032 16.3936C14.0705 16.352 14.05 16.3387 14.05 16.3593ZM10.7789 16.4249C10.7789 16.4592 10.7846 16.4733 10.7915 16.4561C10.7985 16.4389 10.7985 16.4108 10.7915 16.3936C10.7846 16.3764 10.7789 16.3905 10.7789 16.4249ZM8.6625 16.5173C8.59375 16.5807 8.56 16.6206 8.5875 16.6058C8.6351 16.5803 8.82205 16.3988 8.79865 16.4009C8.79253 16.4014 8.73125 16.4538 8.6625 16.5173ZM11.961 16.4387C11.9144 16.4761 11.9147 16.4765 11.9688 16.4504C11.9997 16.4354 12.025 16.4179 12.025 16.4115C12.025 16.3924 12.012 16.3979 11.961 16.4387ZM14.15 16.4356C14.15 16.4425 14.1725 16.4601 14.2 16.4749C14.2275 16.4896 14.25 16.496 14.25 16.4891C14.25 16.4822 14.2275 16.4646 14.2 16.4499C14.1725 16.4351 14.15 16.4287 14.15 16.4356ZM18.327 16.4644C18.3282 16.4936 18.3341 16.4995 18.3421 16.4796C18.3493 16.4615 18.3484 16.4399 18.3401 16.4316C18.3318 16.4233 18.3259 16.4381 18.327 16.4644ZM11.877 16.5013C11.8759 16.5228 11.8925 16.5621 11.9139 16.5888C11.9521 16.6366 11.9524 16.6366 11.9298 16.5874C11.9171 16.5599 11.9005 16.5205 11.8928 16.4999C11.8808 16.4675 11.8787 16.4677 11.877 16.5013ZM10.752 16.5394C10.7532 16.5686 10.7591 16.5745 10.7671 16.5546C10.7743 16.5365 10.7734 16.5149 10.7651 16.5066C10.7568 16.4983 10.7509 16.5131 10.752 16.5394ZM14.311 16.536C14.3377 16.5574 14.3705 16.5749 14.3839 16.5749C14.4157 16.5749 14.4015 16.5633 14.325 16.5269C14.2661 16.4988 14.2653 16.4993 14.311 16.536ZM18.2893 16.5891C18.2801 16.6258 18.2774 16.6606 18.2833 16.6665C18.2892 16.6724 18.3015 16.6472 18.3107 16.6106C18.3199 16.5739 18.3226 16.5391 18.3167 16.5332C18.3108 16.5274 18.2985 16.5525 18.2893 16.5891ZM5.41102 16.5887C5.36442 16.6261 5.36473 16.6265 5.41875 16.6004C5.4497 16.5854 5.475 16.5679 5.475 16.5615C5.475 16.5424 5.46202 16.5479 5.41102 16.5887ZM16 16.5874C15.9656 16.607 15.9494 16.6235 15.964 16.624C15.9785 16.6245 16.0123 16.6083 16.039 16.5882C16.1007 16.5415 16.081 16.5411 16 16.5874ZM7.425 16.5871C7.425 16.6042 7.57807 16.6801 7.5895 16.6687C7.59492 16.6633 7.56015 16.6401 7.51218 16.6172C7.46423 16.5944 7.425 16.5808 7.425 16.5871ZM14.5375 16.6383C14.5788 16.6572 14.6294 16.6723 14.65 16.6718C14.6706 16.6714 14.6481 16.6559 14.6 16.6374C14.4859 16.5934 14.441 16.5941 14.5375 16.6383ZM5.28602 16.6637C5.23942 16.7011 5.23972 16.7015 5.29375 16.6754C5.3247 16.6604 5.35 16.6429 5.35 16.6365C5.35 16.6174 5.33702 16.6229 5.28602 16.6637ZM11.975 16.6999C11.9897 16.7274 12.0074 16.7499 12.0143 16.7499C12.0211 16.7499 12.0147 16.7274 12 16.6999C11.9853 16.6724 11.9676 16.6499 11.9607 16.6499C11.9539 16.6499 11.9603 16.6724 11.975 16.6999ZM7.6625 16.6999C7.69 16.7117 7.735 16.721 7.7625 16.7206C7.8027 16.72 7.80025 16.716 7.75 16.6999C7.66453 16.6725 7.5988 16.6725 7.6625 16.6999ZM8.2625 16.6999C8.19445 16.7172 8.1933 16.7191 8.25 16.7201C8.28438 16.7208 8.335 16.7117 8.3625 16.6999C8.42415 16.6734 8.3666 16.6734 8.2625 16.6999ZM10.68 16.7674C10.643 16.8879 10.6609 16.9058 10.7 16.7874C10.7165 16.7374 10.7251 16.6917 10.7192 16.6857C10.7133 16.6798 10.6956 16.7165 10.68 16.7674ZM14.7203 16.6919C14.7383 16.6992 14.7599 16.6983 14.7682 16.69C14.7765 16.6817 14.7618 16.6758 14.7354 16.6768C14.7063 16.678 14.7004 16.684 14.7203 16.6919ZM15.7203 16.6919C15.7383 16.6992 15.7599 16.6983 15.7682 16.69C15.7765 16.6817 15.7618 16.6758 15.7354 16.6768C15.7063 16.678 15.7004 16.684 15.7203 16.6919ZM14.8188 16.7164C14.836 16.7234 14.8641 16.7234 14.8813 16.7164C14.8985 16.7095 14.8844 16.7038 14.85 16.7038C14.8156 16.7038 14.8016 16.7095 14.8188 16.7164ZM15.6203 16.7169C15.6383 16.7242 15.6599 16.7233 15.6682 16.715C15.6765 16.7067 15.6618 16.7008 15.6354 16.7018C15.6063 16.703 15.6004 16.709 15.6203 16.7169ZM18.158 16.9272C18.1005 17.0497 18.0589 17.1499 18.0654 17.1499C18.0825 17.1499 18.2839 16.7253 18.2722 16.714C18.2669 16.7089 18.2155 16.8048 18.158 16.9272ZM5.25 16.7484C5.25 16.7613 5.26112 16.7788 5.27472 16.7872C5.28887 16.7959 5.29308 16.7859 5.28455 16.7637C5.26793 16.7204 5.25 16.7124 5.25 16.7484ZM7.93125 16.7428C7.96905 16.7485 8.03095 16.7485 8.06875 16.7428C8.10655 16.737 8.07563 16.7324 8 16.7324C7.92438 16.7324 7.89345 16.737 7.93125 16.7428ZM14.9938 16.7425C15.0247 16.7485 15.0753 16.7485 15.1063 16.7425C15.1372 16.7365 15.1119 16.7317 15.05 16.7317C14.9881 16.7317 14.9628 16.7365 14.9938 16.7425ZM15.3938 16.7425C15.4247 16.7485 15.4753 16.7485 15.5063 16.7425C15.5372 16.7365 15.5119 16.7317 15.45 16.7317C15.3881 16.7317 15.3628 16.7365 15.3938 16.7425ZM12.0673 16.8518C12.0922 16.8941 12.1285 16.9419 12.148 16.958C12.1675 16.9742 12.152 16.9395 12.1134 16.8811C12.0325 16.7584 12.0006 16.7381 12.0673 16.8518ZM10.6156 16.9383C10.5915 17.0012 10.5986 17.0174 10.6281 16.9667C10.6427 16.9416 10.6493 16.9158 10.6429 16.9094C10.6364 16.903 10.6241 16.916 10.6156 16.9383ZM5.375 16.9749C5.38973 17.0024 5.40738 17.0249 5.41425 17.0249C5.42113 17.0249 5.41473 17.0024 5.4 16.9749C5.38528 16.9474 5.36762 16.9249 5.36075 16.9249C5.35387 16.9249 5.36028 16.9474 5.375 16.9749ZM12.2437 17.0874C12.2861 17.1424 12.3791 17.2492 12.4504 17.3249C12.5613 17.4425 12.5573 17.4352 12.4229 17.2749C12.2368 17.0528 12.1347 16.9459 12.2437 17.0874ZM10.3939 17.3561C10.3291 17.4558 10.3073 17.5011 10.3455 17.4568C10.4103 17.3816 10.5383 17.1749 10.52 17.1749C10.5155 17.1749 10.4588 17.2564 10.3939 17.3561ZM5.5786 17.2749C5.61045 17.323 5.7211 17.4476 5.8245 17.5517L6.0125 17.741L5.84938 17.5642C5.75965 17.4669 5.649 17.3424 5.60348 17.2874C5.5286 17.1969 5.52622 17.1957 5.5786 17.2749ZM17.9468 17.2936C17.9157 17.3333 17.9166 17.3341 17.9563 17.3031C17.9979 17.2704 18.0111 17.2499 17.9906 17.2499C17.9854 17.2499 17.9657 17.2696 17.9468 17.2936ZM17.773 17.5061C17.699 17.5921 17.6583 17.6466 17.6825 17.6274C17.7334 17.587 17.9351 17.3499 17.9186 17.3499C17.9125 17.3499 17.847 17.4202 17.773 17.5061ZM12.6375 17.4976C12.6897 17.5579 12.875 17.7113 12.875 17.6942C12.875 17.6888 12.8103 17.6294 12.7313 17.5621C12.6522 17.4949 12.61 17.4659 12.6375 17.4976ZM10.1242 17.6936L9.9875 17.8374L10.1313 17.7007C10.2648 17.5738 10.2865 17.5499 10.2679 17.5499C10.264 17.5499 10.1993 17.6145 10.1242 17.6936ZM17.5481 17.7186L17.4875 17.7874L17.5563 17.7268C17.6205 17.6701 17.6365 17.6499 17.6169 17.6499C17.6124 17.6499 17.5815 17.6808 17.5481 17.7186ZM12.9168 17.7269C12.9478 17.7644 13.1 17.8601 13.1 17.8421C13.1 17.8363 13.0522 17.8 12.9938 17.7614C12.9353 17.7229 12.9007 17.7073 12.9168 17.7269ZM6.125 17.8243C6.17313 17.8678 6.235 17.9152 6.2625 17.9297C6.32888 17.9646 6.28778 17.9271 6.15 17.8271L6.0375 17.7453L6.125 17.8243ZM17.3875 17.8396L17.3125 17.904L17.3938 17.8502C17.4385 17.8207 17.475 17.7916 17.475 17.7857C17.475 17.7669 17.4644 17.7735 17.3875 17.8396ZM9.87363 17.8953C9.82473 17.9322 9.75723 17.9825 9.72363 18.0072C9.66485 18.0503 9.6657 18.0503 9.74565 18.0072C9.82465 17.9646 10.0015 17.8261 9.975 17.8276C9.96813 17.828 9.9225 17.8585 9.87363 17.8953ZM13.125 17.8606C13.125 17.8675 13.1475 17.8851 13.175 17.8999C13.2025 17.9146 13.225 17.921 13.225 17.9141C13.225 17.9072 13.2025 17.8896 13.175 17.8749C13.1475 17.8601 13.125 17.8537 13.125 17.8606ZM17.236 17.9387C17.1894 17.9761 17.1897 17.9765 17.2438 17.9504C17.2747 17.9354 17.3 17.9179 17.3 17.9115C17.3 17.8924 17.287 17.8979 17.236 17.9387ZM6.325 17.9606C6.325 17.9675 6.3475 17.9851 6.375 17.9999C6.4025 18.0146 6.425 18.021 6.425 18.0141C6.425 18.0072 6.4025 17.9896 6.375 17.9749C6.3475 17.9601 6.325 17.9537 6.325 17.9606ZM13.3 17.9622C13.3 17.9791 13.5031 18.0801 13.5144 18.0688C13.5196 18.0636 13.4735 18.0348 13.412 18.0049C13.3504 17.975 13.3 17.9558 13.3 17.9622ZM6.45 18.0372C6.45 18.054 6.70305 18.1801 6.71428 18.1689C6.7194 18.1638 6.66205 18.1294 6.5868 18.0925C6.51155 18.0556 6.45 18.0307 6.45 18.0372ZM17 18.0624C16.9656 18.082 16.9494 18.0985 16.964 18.099C16.9785 18.0995 17.0123 18.0833 17.039 18.0632C17.1007 18.0165 17.081 18.0161 17 18.0624ZM13.7 18.1499C13.7206 18.1632 13.7488 18.1741 13.7625 18.1741C13.7763 18.1741 13.7706 18.1632 13.75 18.1499C13.7294 18.1365 13.7013 18.1256 13.6875 18.1256C13.6738 18.1256 13.6794 18.1365 13.7 18.1499ZM16.8 18.1499C16.7794 18.1632 16.7738 18.1741 16.7875 18.1741C16.8013 18.1741 16.8294 18.1632 16.85 18.1499C16.8706 18.1365 16.8763 18.1256 16.8625 18.1256C16.8488 18.1256 16.8206 18.1365 16.8 18.1499ZM9.3125 18.2017C9.2575 18.2281 9.24063 18.2427 9.275 18.2342C9.34578 18.2166 9.47575 18.1514 9.4375 18.1527C9.42375 18.1532 9.3675 18.1752 9.3125 18.2017ZM6.775 18.1956C6.79563 18.2084 6.84063 18.2263 6.875 18.2355C6.91843 18.2472 6.92605 18.2452 6.9 18.2291C6.87938 18.2163 6.83438 18.1984 6.8 18.1892C6.75658 18.1776 6.74895 18.1795 6.775 18.1956ZM14.0453 18.2669C14.0633 18.2742 14.0849 18.2733 14.0932 18.265C14.1015 18.2567 14.0868 18.2508 14.0604 18.2518C14.0313 18.253 14.0254 18.259 14.0453 18.2669ZM16.4703 18.2669C16.4883 18.2742 16.5099 18.2733 16.5182 18.265C16.5265 18.2567 16.5118 18.2508 16.4854 18.2518C16.4563 18.253 16.4504 18.259 16.4703 18.2669ZM7.04532 18.2919C7.06335 18.2992 7.08493 18.2983 7.09323 18.29C7.10153 18.2817 7.08677 18.2758 7.06042 18.2768C7.0313 18.278 7.02537 18.284 7.04532 18.2919ZM9.07032 18.2919C9.08835 18.2992 9.10993 18.2983 9.11823 18.29C9.12653 18.2817 9.11177 18.2758 9.08542 18.2768C9.0563 18.278 9.05037 18.284 9.07032 18.2919ZM14.1453 18.2919C14.1633 18.2992 14.1849 18.2983 14.1932 18.29C14.2015 18.2817 14.1868 18.2758 14.1604 18.2768C14.1313 18.278 14.1254 18.284 14.1453 18.2919ZM7.14532 18.3169C7.16335 18.3242 7.18493 18.3233 7.19323 18.315C7.20153 18.3067 7.18677 18.3008 7.16042 18.3018C7.1313 18.303 7.12537 18.309 7.14532 18.3169ZM8.97032 18.3169C8.98835 18.3242 9.00993 18.3233 9.01823 18.315C9.02653 18.3067 9.01177 18.3008 8.98542 18.3018C8.9563 18.303 8.95037 18.309 8.97032 18.3169ZM14.2438 18.3164C14.261 18.3234 14.2891 18.3234 14.3063 18.3164C14.3235 18.3095 14.3094 18.3038 14.275 18.3038C14.2406 18.3038 14.2266 18.3095 14.2438 18.3164ZM16.2688 18.3164C16.286 18.3234 16.3141 18.3234 16.3313 18.3164C16.3485 18.3095 16.3344 18.3038 16.3 18.3038C16.2656 18.3038 16.2516 18.3095 16.2688 18.3164ZM7.24532 18.3419C7.26335 18.3492 7.28493 18.3483 7.29323 18.34C7.30153 18.3317 7.28677 18.3258 7.26042 18.3268C7.2313 18.328 7.22537 18.334 7.24532 18.3419ZM8.87032 18.3419C8.88835 18.3492 8.90993 18.3483 8.91823 18.34C8.92653 18.3317 8.91177 18.3258 8.88542 18.3268C8.8563 18.328 8.85037 18.334 8.87032 18.3419ZM14.3703 18.3419C14.3883 18.3492 14.4099 18.3483 14.4182 18.34C14.4265 18.3317 14.4118 18.3258 14.3854 18.3268C14.3563 18.328 14.3504 18.334 14.3703 18.3419ZM16.1438 18.3414C16.161 18.3484 16.1891 18.3484 16.2063 18.3414C16.2235 18.3345 16.2094 18.3288 16.175 18.3288C16.1406 18.3288 16.1266 18.3345 16.1438 18.3414ZM7.36875 18.3664C7.38595 18.3734 7.41408 18.3734 7.43125 18.3664C7.44845 18.3595 7.43438 18.3538 7.4 18.3538C7.36563 18.3538 7.35158 18.3595 7.36875 18.3664ZM8.71875 18.3664C8.73595 18.3734 8.76408 18.3734 8.78125 18.3664C8.79845 18.3595 8.78438 18.3538 8.75 18.3538C8.71563 18.3538 8.70158 18.3595 8.71875 18.3664ZM14.5067 18.3672C14.531 18.3735 14.5648 18.3731 14.5817 18.3663C14.5986 18.3594 14.5788 18.3542 14.5375 18.3547C14.4963 18.3552 14.4824 18.3608 14.5067 18.3672ZM16.0067 18.3672C16.031 18.3735 16.0648 18.3731 16.0817 18.3663C16.0986 18.3594 16.0788 18.3542 16.0375 18.3547C15.9963 18.3552 15.9824 18.3608 16.0067 18.3672ZM7.50625 18.3921C7.5303 18.3984 7.5697 18.3984 7.59375 18.3921C7.6178 18.3858 7.59813 18.3807 7.55 18.3807C7.50188 18.3807 7.4822 18.3858 7.50625 18.3921ZM8.55625 18.3921C8.5803 18.3984 8.6197 18.3984 8.64375 18.3921C8.6678 18.3858 8.64813 18.3807 8.6 18.3807C8.55188 18.3807 8.5322 18.3858 8.55625 18.3921ZM14.6691 18.3925C14.7002 18.3985 14.7452 18.3983 14.7691 18.392C14.793 18.3858 14.7675 18.3809 14.7125 18.3812C14.6575 18.3814 14.638 18.3866 14.6691 18.3925ZM15.8191 18.3925C15.8502 18.3985 15.8952 18.3983 15.9191 18.392C15.943 18.3858 15.9175 18.3809 15.8625 18.3812C15.8075 18.3814 15.788 18.3866 15.8191 18.3925ZM7.86875 18.4185C7.9822 18.4231 8.1678 18.4231 8.28125 18.4185C8.3947 18.4138 8.30188 18.41 8.075 18.41C7.84813 18.41 7.7553 18.4138 7.86875 18.4185ZM15.055 18.4185C15.1746 18.423 15.3771 18.4231 15.505 18.4185C15.6329 18.414 15.535 18.4102 15.2875 18.4102C15.04 18.4102 14.9354 18.4139 15.055 18.4185Z" fill="white"/>
<path fill-rule="evenodd" clip-rule="evenodd" d="M14.8313 9.09199C14.8553 9.09829 14.8947 9.09829 14.9188 9.09199C14.9428 9.08572 14.9231 9.08057 14.875 9.08057C14.8269 9.08057 14.8072 9.08572 14.8313 9.09199ZM15.5063 9.09199C15.5303 9.09829 15.5697 9.09829 15.5938 9.09199C15.6178 9.08572 15.5981 9.08057 15.55 9.08057C15.5019 9.08057 15.4822 9.08572 15.5063 9.09199ZM14.6453 9.11684C14.6633 9.12407 14.6849 9.12317 14.6932 9.11487C14.7015 9.10657 14.6868 9.10067 14.6604 9.10174C14.6313 9.10294 14.6254 9.10887 14.6453 9.11684ZM15.7703 9.11684C15.7883 9.12407 15.8099 9.12317 15.8182 9.11487C15.8265 9.10657 15.8118 9.10067 15.7854 9.10174C15.7563 9.10294 15.7504 9.10887 15.7703 9.11684ZM14.4953 9.14184C14.5133 9.14907 14.5349 9.14817 14.5432 9.13987C14.5515 9.13157 14.5368 9.12567 14.5104 9.12674C14.4813 9.12794 14.4754 9.13387 14.4953 9.14184ZM16.0453 9.16684C16.0633 9.17407 16.0849 9.17317 16.0932 9.16487C16.1015 9.15657 16.0868 9.15067 16.0604 9.15174C16.0313 9.15294 16.0254 9.15887 16.0453 9.16684ZM8.98712 12.4373C8.98712 14.2385 8.9901 14.9717 8.99375 14.0666C8.99738 13.1614 8.99738 11.6877 8.99375 10.7916C8.9901 9.89544 8.98712 10.636 8.98712 12.4373ZM10.8621 12.5123C10.8621 14.3548 10.8651 15.1048 10.8688 14.1791C10.8724 13.2533 10.8724 11.7458 10.8688 10.8291C10.8651 9.91232 10.8621 10.6698 10.8621 12.5123ZM17.1 9.65922C17.1 9.66439 17.1197 9.68409 17.1438 9.70297C17.1834 9.73404 17.1843 9.73317 17.1532 9.69352C17.1205 9.65187 17.1 9.63864 17.1 9.65922ZM13.1115 9.85602L12.9875 9.98727L13.1188 9.86322C13.2407 9.74792 13.2615 9.72477 13.2428 9.72477C13.2388 9.72477 13.1798 9.78384 13.1115 9.85602ZM17.3125 9.84977C17.3374 9.87727 17.3634 9.89977 17.3703 9.89977C17.3771 9.89977 17.3624 9.87727 17.3375 9.84977C17.3126 9.82227 17.2866 9.79977 17.2798 9.79977C17.2729 9.79977 17.2876 9.82227 17.3125 9.84977ZM17.4875 10.0498C17.5124 10.0773 17.5384 10.0998 17.5453 10.0998C17.5521 10.0998 17.5374 10.0773 17.5125 10.0498C17.4876 10.0223 17.4616 9.99977 17.4548 9.99977C17.4479 9.99977 17.4626 10.0223 17.4875 10.0498ZM15.1313 10.7177C15.1691 10.7234 15.2309 10.7234 15.2688 10.7177C15.3066 10.7119 15.2756 10.7073 15.2 10.7073C15.1244 10.7073 15.0934 10.7119 15.1313 10.7177ZM15.4453 10.7418C15.4633 10.7491 15.4849 10.7482 15.4932 10.7399C15.5015 10.7316 15.4868 10.7257 15.4604 10.7267C15.4313 10.7279 15.4254 10.7339 15.4453 10.7418ZM16.049 11.056C16.1103 11.1213 16.1637 11.1748 16.1677 11.1748C16.1865 11.1748 16.1666 11.1523 16.0563 11.0487L15.9375 10.9373L16.049 11.056ZM12.477 11.0643C12.4782 11.0935 12.4841 11.0994 12.4921 11.0795C12.4993 11.0614 12.4984 11.0398 12.4901 11.0315C12.4818 11.0232 12.4759 11.038 12.477 11.0643ZM12.452 11.2393C12.4532 11.2685 12.4591 11.2744 12.4671 11.2545C12.4743 11.2364 12.4734 11.2148 12.4651 11.2065C12.4568 11.1982 12.4509 11.213 12.452 11.2393ZM12.4299 11.5623C12.4304 11.6035 12.436 11.6174 12.4423 11.593C12.4487 11.5687 12.4483 11.535 12.4414 11.518C12.4346 11.5011 12.4294 11.521 12.4299 11.5623ZM12.4539 11.9248C12.4539 11.9591 12.4596 11.9732 12.4665 11.956C12.4735 11.9388 12.4735 11.9107 12.4665 11.8935C12.4596 11.8763 12.4539 11.8904 12.4539 11.9248ZM12.477 12.1143C12.4782 12.1435 12.4841 12.1494 12.4921 12.1295C12.4993 12.1114 12.4984 12.0898 12.4901 12.0815C12.4818 12.0732 12.4759 12.088 12.477 12.1143ZM14.625 12.2092C14.625 12.2144 14.6447 12.2341 14.6688 12.253C14.7084 12.284 14.7093 12.2832 14.6782 12.2435C14.6455 12.2019 14.625 12.1886 14.625 12.2092ZM12.95 13.2092C12.95 13.2144 12.9697 13.2341 12.9938 13.253C13.0334 13.284 13.0343 13.2832 13.0032 13.2435C12.9705 13.2019 12.95 13.1886 12.95 13.2092ZM13.15 13.4373C13.1967 13.4854 13.2404 13.5248 13.2473 13.5248C13.2542 13.5248 13.2217 13.4854 13.175 13.4373C13.1284 13.3891 13.0846 13.3498 13.0777 13.3498C13.0708 13.3498 13.1034 13.3891 13.15 13.4373ZM13.35 13.6092C13.35 13.6144 13.3697 13.6341 13.3938 13.653C13.4334 13.684 13.4343 13.6832 13.4032 13.6435C13.3705 13.6019 13.35 13.5886 13.35 13.6092ZM17.4875 13.7498C17.5124 13.7773 17.5384 13.7998 17.5453 13.7998C17.5521 13.7998 17.5374 13.7773 17.5125 13.7498C17.4876 13.7223 17.4616 13.6998 17.4548 13.6998C17.4479 13.6998 17.4626 13.7223 17.4875 13.7498ZM17.65 13.8842C17.65 13.8894 17.6697 13.9091 17.6938 13.928C17.7334 13.959 17.7343 13.9582 17.7032 13.9185C17.6705 13.8769 17.65 13.8636 17.65 13.8842ZM17.825 14.0842C17.825 14.0894 17.8447 14.1091 17.8688 14.128C17.9084 14.159 17.9093 14.1582 17.8782 14.1185C17.8455 14.0769 17.825 14.0636 17.825 14.0842ZM16.2 15.1326C16.2 15.1369 16.2366 15.1735 16.2813 15.2138L16.3625 15.2873L16.2891 15.206C16.2206 15.1303 16.2 15.1133 16.2 15.1326ZM18.379 15.3998C18.379 15.4341 18.3846 15.4482 18.3915 15.431C18.3985 15.4138 18.3985 15.3857 18.3915 15.3685C18.3846 15.3513 18.379 15.3654 18.379 15.3998ZM18.4068 15.7998C18.4068 15.8616 18.4117 15.8869 18.4177 15.856C18.4236 15.8251 18.4236 15.7744 18.4177 15.7435C18.4117 15.7126 18.4068 15.7379 18.4068 15.7998ZM8.95198 15.9143C8.95318 15.9435 8.9591 15.9494 8.96708 15.9295C8.9743 15.9114 8.9734 15.8898 8.9651 15.8815C8.9568 15.8732 8.9509 15.888 8.95198 15.9143ZM13.725 16.0623C13.7573 16.0966 13.7894 16.1248 13.7962 16.1248C13.8031 16.1248 13.7823 16.0966 13.75 16.0623C13.7177 16.0279 13.6857 15.9998 13.6788 15.9998C13.6719 15.9998 13.6927 16.0279 13.725 16.0623ZM10.8299 16.0873C10.8304 16.1285 10.836 16.1424 10.8423 16.118C10.8487 16.0937 10.8483 16.06 10.8414 16.043C10.8346 16.0261 10.8294 16.046 10.8299 16.0873ZM18.379 16.1748C18.379 16.2091 18.3846 16.2232 18.3915 16.206C18.3985 16.1888 18.3985 16.1607 18.3915 16.1435C18.3846 16.1263 18.379 16.1404 18.379 16.1748ZM13.9625 16.2998C13.9874 16.3273 14.0134 16.3498 14.0203 16.3498C14.0271 16.3498 14.0124 16.3273 13.9875 16.2998C13.9626 16.2723 13.9366 16.2498 13.9298 16.2498C13.9229 16.2498 13.9376 16.2723 13.9625 16.2998ZM18.352 16.3393C18.3532 16.3685 18.3591 16.3744 18.3671 16.3545C18.3743 16.3364 18.3734 16.3148 18.3651 16.3065C18.3568 16.2982 18.3509 16.313 18.352 16.3393ZM7.225 16.4373C7.27165 16.4854 7.31542 16.5248 7.3223 16.5248C7.32917 16.5248 7.29665 16.4854 7.25 16.4373C7.20335 16.3891 7.15958 16.3498 7.1527 16.3498C7.14583 16.3498 7.17835 16.3891 7.225 16.4373ZM16.1718 16.4935C16.1407 16.5332 16.1416 16.534 16.1813 16.503C16.2229 16.4703 16.2361 16.4498 16.2156 16.4498C16.2104 16.4498 16.1907 16.4695 16.1718 16.4935ZM7.72032 16.7168C7.73835 16.7241 7.75993 16.7232 7.76823 16.7149C7.77653 16.7066 7.76177 16.7007 7.73542 16.7017C7.7063 16.7029 7.70037 16.7089 7.72032 16.7168ZM8.27032 16.7168C8.28835 16.7241 8.30993 16.7232 8.31823 16.7149C8.32653 16.7066 8.31177 16.7007 8.28542 16.7017C8.2563 16.7029 8.25037 16.7089 8.27032 16.7168ZM14.8203 16.7168C14.8383 16.7241 14.8599 16.7232 14.8682 16.7149C14.8765 16.7066 14.8618 16.7007 14.8354 16.7017C14.8063 16.7029 14.8004 16.7089 14.8203 16.7168ZM7.93125 16.7427C7.96905 16.7484 8.03095 16.7484 8.06875 16.7427C8.10655 16.7369 8.07563 16.7323 8 16.7323C7.92438 16.7323 7.89345 16.7369 7.93125 16.7427ZM14.9688 16.7413C14.986 16.7483 15.0141 16.7483 15.0313 16.7413C15.0485 16.7344 15.0344 16.7287 15 16.7287C14.9656 16.7287 14.9516 16.7344 14.9688 16.7413ZM15.4688 16.7413C15.486 16.7483 15.5141 16.7483 15.5313 16.7413C15.5485 16.7344 15.5344 16.7287 15.5 16.7287C15.4656 16.7287 15.4516 16.7344 15.4688 16.7413ZM12.2 17.0342C12.2 17.0394 12.2197 17.0591 12.2438 17.078C12.2834 17.109 12.2843 17.1082 12.2532 17.0685C12.2205 17.0269 12.2 17.0136 12.2 17.0342ZM12.35 17.2123C12.3823 17.2466 12.4144 17.2748 12.4212 17.2748C12.4281 17.2748 12.4073 17.2466 12.375 17.2123C12.3427 17.1779 12.3107 17.1498 12.3038 17.1498C12.2969 17.1498 12.3177 17.1779 12.35 17.2123ZM5.625 17.3342C5.625 17.3394 5.64468 17.3591 5.66875 17.378C5.7084 17.409 5.70928 17.4082 5.6782 17.3685C5.64553 17.3269 5.625 17.3136 5.625 17.3342ZM17.8351 17.431L17.7875 17.4873L17.8438 17.4396C17.8966 17.3949 17.9114 17.3748 17.8914 17.3748C17.8866 17.3748 17.8613 17.4001 17.8351 17.431ZM12.65 17.5123C12.6823 17.5466 12.7144 17.5748 12.7212 17.5748C12.7281 17.5748 12.7073 17.5466 12.675 17.5123C12.6427 17.4779 12.6107 17.4498 12.6038 17.4498C12.5969 17.4498 12.6177 17.4779 12.65 17.5123ZM5.8375 17.5748C5.8912 17.6298 5.94078 17.6748 5.94765 17.6748C5.95453 17.6748 5.9162 17.6298 5.8625 17.5748C5.8088 17.5198 5.75922 17.4748 5.75235 17.4748C5.74547 17.4748 5.7838 17.5198 5.8375 17.5748ZM12.775 17.6092C12.775 17.6144 12.7947 17.6341 12.8188 17.653C12.8584 17.684 12.8593 17.6832 12.8282 17.6435C12.7955 17.6019 12.775 17.5886 12.775 17.6092ZM10.1231 17.6935L10.0625 17.7623L10.1313 17.7017C10.1691 17.6683 10.2 17.6374 10.2 17.6329C10.2 17.6133 10.1798 17.6293 10.1231 17.6935ZM17.5601 17.706L17.5125 17.7623L17.5688 17.7146C17.6216 17.6699 17.6364 17.6498 17.6164 17.6498C17.6116 17.6498 17.5863 17.6751 17.5601 17.706ZM14.2703 18.3168C14.2883 18.3241 14.3099 18.3232 14.3182 18.3149C14.3265 18.3066 14.3118 18.3007 14.2854 18.3017C14.2563 18.3029 14.2504 18.3089 14.2703 18.3168ZM7.39532 18.3668C7.41335 18.3741 7.43493 18.3732 7.44323 18.3649C7.45153 18.3566 7.43677 18.3507 7.41042 18.3517C7.3813 18.3529 7.37537 18.3589 7.39532 18.3668ZM8.72032 18.3668C8.73835 18.3741 8.75993 18.3732 8.76823 18.3649C8.77653 18.3566 8.76177 18.3507 8.73542 18.3517C8.7063 18.3529 8.70037 18.3589 8.72032 18.3668ZM14.5188 18.3663C14.536 18.3733 14.5641 18.3733 14.5813 18.3663C14.5985 18.3594 14.5844 18.3537 14.55 18.3537C14.5156 18.3537 14.5016 18.3594 14.5188 18.3663ZM15.9953 18.3668C16.0133 18.3741 16.0349 18.3732 16.0432 18.3649C16.0515 18.3566 16.0368 18.3507 16.0104 18.3517C15.9813 18.3529 15.9754 18.3589 15.9953 18.3668ZM7.54375 18.3913C7.56095 18.3983 7.58908 18.3983 7.60625 18.3913C7.62345 18.3844 7.60938 18.3787 7.575 18.3787C7.54063 18.3787 7.52658 18.3844 7.54375 18.3913ZM8.54375 18.3913C8.56095 18.3983 8.58908 18.3983 8.60625 18.3913C8.62345 18.3844 8.60938 18.3787 8.575 18.3787C8.54063 18.3787 8.52658 18.3844 8.54375 18.3913ZM14.7067 18.3921C14.731 18.3984 14.7648 18.398 14.7817 18.3912C14.7986 18.3843 14.7788 18.3791 14.7375 18.3796C14.6963 18.3801 14.6824 18.3857 14.7067 18.3921ZM15.8067 18.3921C15.831 18.3984 15.8648 18.398 15.8817 18.3912C15.8986 18.3843 15.8788 18.3791 15.8375 18.3796C15.7963 18.3801 15.7824 18.3857 15.8067 18.3921ZM7.91973 18.4183C8.0062 18.4232 8.1412 18.4232 8.21973 18.4182C8.29825 18.4133 8.2275 18.4093 8.0625 18.4093C7.8975 18.4094 7.83325 18.4134 7.91973 18.4183ZM15.1323 18.4183C15.2257 18.4231 15.3719 18.4231 15.4573 18.4182C15.5426 18.4134 15.4663 18.4094 15.2875 18.4095C15.1088 18.4095 15.0389 18.4135 15.1323 18.4183Z" fill="white"/>
<path fill-rule="evenodd" clip-rule="evenodd" d="M14.8688 9.0917C14.886 9.09865 14.9141 9.09865 14.9313 9.0917C14.9485 9.08478 14.9344 9.0791 14.9 9.0791C14.8656 9.0791 14.8516 9.08478 14.8688 9.0917ZM15.4938 9.0917C15.511 9.09865 15.5391 9.09865 15.5563 9.0917C15.5735 9.08478 15.5594 9.0791 15.525 9.0791C15.4906 9.0791 15.4766 9.08478 15.4938 9.0917ZM8.98712 12.4502C8.98712 14.2445 8.9901 14.9786 8.99375 14.0814C8.99738 13.1842 8.99738 11.7161 8.99375 10.8189C8.9901 9.9217 8.98712 10.6558 8.98712 12.4502ZM10.8621 12.4752C10.8621 14.2833 10.8651 15.023 10.8688 14.1189C10.8724 13.2149 10.8724 11.7355 10.8688 10.8314C10.8651 9.92733 10.8621 10.667 10.8621 12.4752ZM13.1231 9.8439L13.0625 9.91265L13.1313 9.85205C13.1691 9.8187 13.2 9.78778 13.2 9.7833C13.2 9.76368 13.1798 9.77965 13.1231 9.8439ZM15.1313 10.7181C15.1691 10.7238 15.2309 10.7238 15.2688 10.7181C15.3066 10.7123 15.2756 10.7077 15.2 10.7077C15.1244 10.7077 15.0934 10.7123 15.1313 10.7181ZM16.2 15.133C16.2 15.1373 16.2366 15.1739 16.2813 15.2142L16.3625 15.2877L16.2891 15.2064C16.2206 15.1307 16.2 15.1137 16.2 15.133ZM10.827 16.0647C10.8282 16.0939 10.8341 16.0998 10.8421 16.0799C10.8493 16.0618 10.8484 16.0402 10.8401 16.0319C10.8318 16.0236 10.8259 16.0384 10.827 16.0647ZM7.25 16.4596C7.25 16.4648 7.2697 16.4845 7.29375 16.5034C7.3334 16.5344 7.33427 16.5336 7.3032 16.4939C7.27052 16.4523 7.25 16.439 7.25 16.4596ZM7.93125 16.7431C7.96905 16.7488 8.03095 16.7488 8.06875 16.7431C8.10655 16.7373 8.07563 16.7327 8 16.7327C7.92438 16.7327 7.89345 16.7373 7.93125 16.7431ZM12.35 17.2096C12.35 17.2148 12.3697 17.2345 12.3938 17.2534C12.4334 17.2844 12.4343 17.2836 12.4032 17.2439C12.3705 17.2023 12.35 17.189 12.35 17.2096ZM12.6 17.4596C12.6 17.4648 12.6197 17.4845 12.6438 17.5034C12.6834 17.5344 12.6843 17.5336 12.6532 17.4939C12.6205 17.4523 12.6 17.439 12.6 17.4596ZM7.9694 18.4185C8.0282 18.4238 8.1182 18.4237 8.1694 18.4183C8.2206 18.413 8.1725 18.4086 8.0625 18.4087C7.9525 18.4088 7.9106 18.4132 7.9694 18.4185ZM15.182 18.4186C15.2477 18.4237 15.349 18.4237 15.407 18.4184C15.465 18.4132 15.4113 18.409 15.2875 18.409C15.1638 18.4091 15.1163 18.4134 15.182 18.4186Z" fill="white"/>
</svg>
