<svg width="15" height="15" viewBox="0 0 24 25" fill="none" xmlns="http://www.w3.org/2000/svg">
<path fill-rule="evenodd" clip-rule="evenodd" d="M4.5 4C3.67157 4 3 4.67157 3 5.5V20.5C3 21.3284 3.67157 22 4.5 22H19.5C20.3284 22 21 21.3284 21 20.5V5.5C21 4.67157 20.3284 4 19.5 4H4.5ZM8.52076 8.00272C8.52639 8.95897 7.81061 9.54819 6.96123 9.54397C6.16107 9.53975 5.46357 8.90272 5.46779 8.00413C5.47201 7.15897 6.13998 6.47975 7.00764 6.49944C7.88795 6.51913 8.52639 7.1646 8.52076 8.00272ZM12.2797 10.7618H9.75971H9.7583V19.3216H12.4217V19.1219C12.4217 18.742 12.4214 18.362 12.4211 17.9819C12.4203 16.9681 12.4194 15.9532 12.4246 14.9397C12.426 14.6936 12.4372 14.4377 12.5005 14.2028C12.7381 13.3253 13.5271 12.7586 14.4074 12.8979C14.9727 12.9864 15.3467 13.3141 15.5042 13.8471C15.6013 14.1803 15.6449 14.5389 15.6491 14.8863C15.6605 15.9339 15.6589 16.9815 15.6573 18.0292C15.6567 18.399 15.6561 18.769 15.6561 19.1388V19.3202H18.328V19.1149C18.328 18.6629 18.3278 18.211 18.3275 17.7591C18.327 16.6296 18.3264 15.5001 18.3294 14.3702C18.3308 13.8597 18.276 13.3563 18.1508 12.8627C17.9638 12.1286 17.5771 11.5211 16.9485 11.0824C16.5027 10.7702 16.0133 10.5691 15.4663 10.5466C15.404 10.544 15.3412 10.5406 15.2781 10.5372C14.9984 10.5221 14.7141 10.5067 14.4467 10.5607C13.6817 10.7139 13.0096 11.0641 12.5019 11.6814C12.4429 11.7522 12.3852 11.8241 12.2991 11.9314L12.2797 11.9557V10.7618ZM5.68164 19.3244H8.33242V10.7673H5.68164V19.3244Z" fill="white"/>
</svg>
