<svg width="503" height="500" viewBox="0 0 503 500" fill="none" xmlns="http://www.w3.org/2000/svg">
<path fill-rule="evenodd" clip-rule="evenodd" d="M25.422 1.17839C19.5369 3.025 14.9159 6.07004 10.1444 11.2464C4.38646 17.493 1.98758 22.7673 0.799252 31.7883C0.118763 36.9586 -0.130615 112.852 0.064243 255.67L0.359054 471.73L2.61153 477.283C5.70503 484.911 12.517 492.359 20.2154 496.533L26.6094 500H251.251H475.894L482.288 496.533C489.986 492.359 496.798 484.911 499.891 477.283L502.144 471.73L502.439 255.67C502.634 112.852 502.384 36.9586 501.704 31.7883C501.137 27.4863 499.713 22.0837 498.538 19.7818C495.302 13.4363 487.91 6.13566 481.573 3.02298L475.894 0.234392L252.766 0.0445825C71.1986 -0.108881 28.8528 0.102131 25.422 1.17839ZM120.273 68.8578C134.456 71.8634 145.517 80.524 151.616 93.3998C154.624 99.7493 154.832 100.904 154.832 111.293C154.832 121.682 154.624 122.837 151.616 129.187C147.935 136.958 140.777 145.106 134.293 148.906C128.705 152.181 117.929 155.216 111.945 155.2C98.1344 155.164 83.1808 146.87 75.5854 135.034C59.0689 109.295 73.1704 75.4062 103.102 68.9032C111.235 67.1363 112.135 67.1333 120.273 68.8578ZM362.181 183.101C395.28 188.98 414.926 207.941 423.253 242.04C428.005 261.501 428.338 268.517 428.392 350.07L428.441 426.297L390.832 426.562L353.224 426.826V360.405C353.224 279.614 352.696 273.766 344.258 261.139C337.264 250.671 326.588 246.303 310.551 247.347C290.488 248.651 279.017 258.4 273.225 279.068C271.06 286.792 271.003 288.529 270.672 356.885L270.332 426.802H233.027H195.722V306.643V186.484L231.311 186.75L266.901 187.015L267.406 203.075L267.91 219.134L273.207 212.006C283.535 198.107 299.921 187.516 317.428 183.423C329.522 180.596 347.352 180.468 362.181 183.101ZM149.031 306.909L149.287 426.802H111.927H74.5667V306.644V186.485L111.67 186.751L148.774 187.015L149.031 306.909Z" fill="white"/>
</svg>
