<svg width="343" height="373" viewBox="0 0 343 373" fill="none" xmlns="http://www.w3.org/2000/svg">
<path d="M39.1081 61.1866C35.6818 69.2641 34.2405 77.086 37.2715 85.308C38.3481 88.2284 40.1086 90.5266 42.1934 92.7179C43.6527 94.2518 45.6441 95.8516 43.7518 98.2608C42.0332 100.449 39.7475 101.153 37.0711 99.9929C33.0797 98.2625 30.2463 95.2985 28.1955 91.5444C23.217 82.4312 23.597 73.0045 26.722 63.4766C32.4505 46.0109 44.6068 33.3126 57.9773 21.5292C65.8883 14.5571 74.5629 8.68447 83.8308 3.68496C85.5821 2.7402 87.4306 1.91998 89.317 1.29022C101.895 -2.90903 109.129 3.37753 107.178 16.7226C104.42 35.5823 98.5074 53.6315 93.0704 71.8032C91.3657 77.5005 89.6211 83.1859 87.4388 90.3801C95.6261 84.8406 102.224 79.7581 107.542 73.1284C108.374 72.0907 109.028 70.9079 109.878 69.8866C111.735 67.6567 114.119 66.379 116.924 67.6441C119.947 69.0074 119.974 71.7483 119.128 74.5109C116.644 82.6263 114.117 90.7288 111.585 98.8294C110.841 101.208 110.202 103.575 111.189 106.574C114.442 104.969 116.382 102.289 118.393 99.7503C124.764 91.7093 129.129 82.5371 133.216 73.2122C134.151 71.0779 135.067 68.9265 136.161 66.8727C137.644 64.0883 139.887 62.439 143.119 63.7657C146.326 65.0821 146.146 68.0119 145.406 70.6133C144.27 74.6088 142.642 78.4617 141.337 82.4129C139.877 86.8331 138.44 91.2663 137.201 95.7512C136.553 98.0966 136.165 100.582 138.052 103.736C143.764 99.1049 148.666 94.4144 151.374 87.7728C155.295 78.1525 161.054 69.8347 169.526 63.7708C175.878 59.2237 182.492 54.1536 190.697 60.5425C191.121 60.8722 191.957 60.7342 192.597 60.7125C198.272 60.5202 199.681 62.2731 197.601 67.7822C194.542 75.8857 191.409 83.9499 189.432 92.4071C189.028 94.1347 188.111 95.8653 189.599 97.6467C192.378 97.3903 193.889 95.2268 195.6 93.5473C203.583 85.7116 209.898 76.8794 211.922 65.5358C212.45 62.5806 213.346 59.6922 215.011 57.1451C216.434 54.9678 218.515 54.0634 221.053 54.7719C223.879 55.5608 224.411 57.8285 224.027 60.3195C223.532 63.5344 222.803 66.7133 222.001 70.7912C226.367 65.9313 229.271 61.0053 233.519 57.2446C235.773 55.2492 238.031 53.2848 240.895 52.192C246.683 49.9832 250.516 52.8781 249.912 59.0359C249.253 65.7506 246.646 71.9094 244.389 78.1678C242.951 82.1555 241.299 86.0961 240.815 90.4589C243.324 90.6841 244.288 89.1213 245.451 88.0427C254.989 79.1973 262.932 69.322 266.243 56.3452C266.975 53.4738 268.164 50.6325 269.637 48.0606C271.104 45.499 273.719 44.594 276.568 45.7372C279.505 46.916 279.672 49.3899 278.878 52.0261C271.872 75.295 264.91 98.579 256.714 121.467C255.638 124.472 253.587 126.396 250.22 125.259C247.023 124.18 246.781 121.57 247.636 118.681C250.234 109.903 252.817 101.121 255.396 92.3382C255.992 90.3086 256.549 88.2676 257.484 84.9558C253.976 88.9223 251.382 91.8925 248.745 94.8245C246.613 97.1947 244.131 99.1517 241.404 100.796C238.079 102.801 234.547 103.959 231.159 101.315C228.032 98.8745 227.925 95.3852 228.811 91.7381C230.31 85.576 232.377 79.6044 234.588 73.6737C235.505 71.2153 236.353 68.7316 237.508 65.4853C234.589 66.4411 233.357 68.1558 232.046 69.7032C224.558 78.5402 218.543 88.2771 214.222 99.0417C213.85 99.9683 213.455 100.887 213.031 101.791C211.281 105.518 208.439 108.042 204.328 106.424C200.606 104.958 202.23 101.422 202.746 98.555C202.828 98.0952 202.832 97.6212 202.896 96.8819C199.633 99.8411 196.649 102.69 193.509 105.354C190.248 108.12 186.53 110.533 182.167 108.646C178.134 106.901 178.566 102.687 178.3 99.0559C178.255 98.4474 178.12 97.8457 178.047 97.3777C174.833 100.375 171.77 103.382 168.548 106.207C161.015 112.812 154.875 112.306 148.63 104.456C146.526 106.312 144.534 108.295 142.313 109.977C138.886 112.572 135.442 115.84 130.64 113.933C125.797 112.011 126.499 107.246 125.787 102.131C123.747 104.637 122.159 106.554 120.608 108.5C117.874 111.929 114.69 114.804 110.702 116.723C107.395 118.315 104.16 118.107 101.268 115.927C98.4186 113.78 97.9473 110.65 98.6564 107.353C99.3911 103.938 100.275 100.553 101.141 97.1672C101.996 93.8198 102.909 90.4872 104.051 86.1926C97.7885 91.8172 92.1025 96.6268 85.9458 100.839C83.5326 102.49 83.0687 105.225 82.3133 107.762C75.2646 131.44 66.5911 154.471 54.8043 176.236C49.3807 186.251 42.977 195.576 33.9374 202.748C31.6049 204.599 29.0543 206.279 26.3802 207.577C13.6731 213.744 2.77441 206.38 3.68902 192.32C4.28212 183.202 6.80097 174.602 11.4196 166.736C25.6033 142.58 43.6714 121.901 66.8318 105.935C70.3421 103.515 72.3362 100.6 73.5621 96.5266C80.996 71.8265 88.8516 47.2497 94.581 22.0701C95.0972 19.8014 95.4305 17.4906 95.8361 15.1971C96.5195 11.333 94.9405 10.1558 91.3806 11.5651C83.8574 14.5433 77.3536 19.2287 71.1189 24.2266C58.3105 34.4942 46.4264 45.6273 39.1081 61.1866ZM37.6714 146.201C31.3227 153.947 25.3978 161.985 20.9324 170.996C17.8094 177.298 15.3901 183.848 14.8008 190.924C14.5621 193.792 14.6216 196.849 17.4187 198.532C20.2063 200.21 22.889 198.878 25.346 197.296C28.8964 195.011 31.6805 191.932 34.2655 188.64C43.7349 176.583 50.0288 162.774 55.8247 148.765C59.9879 138.703 64.1651 128.595 67.2765 116.995C55.9158 125.927 46.8674 135.633 37.6714 146.201ZM166.072 98.592C174.231 91.5167 180.402 83.0065 184.468 72.9953C185.219 71.1453 186.057 69.0588 184.21 67.4708C182.467 65.9725 180.391 66.5946 178.635 67.6589C176.805 68.7681 174.958 69.9547 173.419 71.4227C166.496 78.0277 162.392 86.2398 160.146 95.451C159.704 97.2642 159.317 99.2785 161.127 100.448C162.884 101.584 164.121 99.7528 166.072 98.592Z" fill="white"/>
<path d="M242.838 308.194C243.144 305.265 241.136 304.944 239.373 304.566C237.192 304.099 236.518 306.034 235.743 307.378C230.413 316.62 225.044 325.829 218.148 334.037C215.996 336.6 213.701 338.994 210.837 340.791C204.314 344.883 199.552 342.745 198.327 335.137C198.174 334.184 198.146 333.21 198.011 331.693C194.345 335.037 191.636 338.69 187.833 341.077C184.325 343.28 180.662 346.371 176.446 343.351C172.352 340.417 172.615 335.875 173.91 331.511C176.129 324.034 178.48 316.597 180.925 308.657C178.827 309.307 177.763 310.734 176.652 312.003C169.595 320.074 163.498 328.767 159.359 338.736C158.531 340.729 157.658 342.754 156.456 344.527C154.841 346.91 152.489 348.283 149.581 346.957C146.679 345.635 146.854 343.003 147.594 340.483C149.846 332.819 152.194 325.183 154.512 317.537C155.045 315.78 155.508 314.023 154.918 311.889C152.702 312.265 151.769 314.112 150.583 315.537C143.926 323.534 138.685 332.392 134.632 341.967C133.918 343.653 133.161 345.331 132.275 346.929C130.986 349.257 128.96 350.25 126.386 349.347C123.761 348.425 123.005 346.253 123.398 343.706C123.696 341.774 124.267 339.885 125.311 338.72C122.167 341.385 119.093 344.14 115.861 346.693C112.27 349.53 108.284 352.368 103.571 350.244C99.0394 348.201 100.323 343.458 100.062 338.848C96.4917 342.908 93.6113 346.926 89.6675 349.844C85.845 352.672 81.8085 355.476 76.8809 352.712C71.8392 349.884 71.4702 344.82 72.3318 339.945C74.8961 325.434 82.1881 313.844 94.9916 306.234C100.131 303.18 105.714 301.203 111.156 306.092C111.61 306.5 112.323 306.747 112.946 306.821C119.209 307.566 119.341 307.81 117.318 313.955C114.822 321.537 111.754 328.945 110.286 336.845C110.046 338.135 109.432 339.414 110.745 340.876C113.659 340.628 115.481 338.348 117.385 336.44C124.815 328.991 130.163 320.274 132.983 310.071C133.424 308.473 133.854 306.805 134.675 305.393C136.015 303.092 138.311 302.367 140.734 303.262C143.133 304.149 143.685 306.197 143.047 308.611C142.334 311.313 141.669 314.028 140.77 317.577C144.632 313.287 146.996 308.851 150.688 305.523C152.427 303.956 154.091 302.327 156.286 301.397C161.824 299.052 165.477 301.329 165.735 307.379C165.855 310.182 165.756 312.994 165.756 315.766C167.949 312.779 170.219 309.422 172.766 306.29C175.731 302.645 179.136 299.392 183.745 297.916C189.104 296.199 193.154 299.772 192.176 305.312C190.808 313.06 187.084 320.096 185.268 327.715C184.821 329.589 183.913 331.436 184.978 334.075C192.698 328.944 198.311 322.364 202.014 314.26C204.081 309.736 205.456 304.888 207.025 300.148C207.557 298.542 208.067 296.969 209.284 295.765C210.698 294.367 212.422 293.825 214.323 294.553C216.357 295.33 216.976 297.103 216.66 299.035C216.313 301.154 215.659 303.232 215.026 305.293C213.122 311.499 211.075 317.663 209.269 323.897C208.549 326.381 207.853 329.016 209.198 331.585C211.781 332.013 212.996 330.271 214.279 328.825C221.637 320.531 227.352 311.156 231.988 301.134C233.012 298.922 233.101 296.297 233.857 293.938C234.754 291.136 236.276 288.403 239.592 288.566C242.678 288.719 243.33 291.293 243.303 294.078C243.278 296.751 245.717 296.952 247.459 297.713C253.808 300.485 254.362 301.876 251.881 308.416C249.993 313.396 248.215 318.42 246.48 323.455C245.792 325.45 245.008 327.529 246.673 330.126C252.457 327.135 257.304 323.297 259.264 316.962C262.535 306.393 267.202 296.835 276.258 289.957C279.372 287.592 282.786 285.895 286.683 285.454C293.259 284.711 297.728 289.532 296.251 295.963C293.578 307.6 285.546 314.504 274.955 318.615C271.199 320.073 268.49 321.354 270.021 325.912C271.143 329.255 274.345 330.002 278.894 328.106C284.728 325.673 289.166 321.392 293.587 317.077C294.882 315.812 296.298 313.943 298.23 315.374C300.48 317.04 298.863 319.041 297.763 320.62C293.3 327.026 287.54 332.092 280.598 335.567C271.588 340.077 264.378 337.601 259.194 328.494C257.056 329.251 256.084 331.296 254.681 332.796C252.494 335.133 250.083 337.173 247.232 338.607C244.387 340.036 241.351 341.61 238.334 339.275C235.404 337.008 234.956 333.638 235.388 330.199C236.357 322.486 239.542 315.503 242.838 308.194ZM95.9344 334.474C99.5788 329.541 103.154 324.56 105.293 318.74C106.027 316.743 107.152 314.499 105.245 312.708C103.11 310.702 100.688 312.025 98.8527 313.288C89.4268 319.774 84.6828 329.153 82.8478 340.192C82.6299 341.503 82.737 342.959 84.1305 343.693C85.5675 344.451 86.65 343.407 87.7075 342.65C90.6927 340.514 93.2856 337.969 95.9344 334.474ZM282.153 295.682C277.04 300.281 273.393 305.769 271.28 312.87C281.489 308.272 287.555 300.562 286.345 294.233C284.866 293.604 283.848 294.641 282.153 295.682Z" fill="white"/>
<path d="M73.1565 360.775C74.8252 361.911 76.2117 362.833 77.6165 363.725C79.553 364.956 82.1915 365.901 80.9517 368.944C79.8204 371.72 77.3028 372.85 74.4476 372.615C71.4158 372.365 68.6466 371.034 66.1764 369.311C55.1523 361.62 47.2897 351.111 40.3176 339.86C37.3637 335.094 34.6438 330.182 31.2962 324.443C29.6116 328.61 28.1512 331.884 26.9566 335.251C24.7866 341.37 22.7831 347.547 20.6935 353.694C19.608 356.887 18.6025 360.771 14.1508 359.517C9.57568 358.228 10.2399 354.255 11.2935 350.784C13.516 343.461 15.762 336.137 18.3168 328.926C23.7657 313.547 29.4165 298.24 34.9878 282.904C35.4424 281.652 35.7522 280.309 36.423 279.183C38.0884 276.388 40.4985 274.453 43.8583 275.738C47.2636 277.04 47.1724 280.014 46.1244 282.912C42.8972 291.834 39.5662 300.719 36.326 309.637C35.7821 311.134 34.6127 312.525 35.1945 314.306C36.6049 315.226 37.8683 314.415 39.0103 313.931C48.2976 309.996 56.8343 304.883 63.7851 297.446C67.7339 293.221 70.6065 288.374 71.1443 282.48C71.7892 275.413 68.4595 271.379 61.3784 270.683C47.6278 269.334 35.5559 274.473 23.86 280.755C16.8471 284.521 10.7048 289.094 8.38154 297.463C7.36121 301.139 3.84637 301.325 1.55224 298.123C-0.604587 295.112 -0.315234 291.857 1.20785 288.644C3.49731 283.815 7.44565 280.401 11.5452 277.293C24.853 267.205 39.9889 261.502 56.485 259.352C58.7761 259.054 61.1594 259.138 63.4693 259.362C78.9517 260.864 86.8852 272.478 82.0421 287.258C77.0248 302.57 65.1961 311.575 51.4152 318.466C49.0655 319.641 46.6126 320.61 43.4581 322.005C51.7361 336.515 60.2606 350.049 73.1565 360.775Z" fill="white"/>
<path d="M185.088 178.071C187.151 175.363 188.105 172.507 189.288 169.758C190.605 166.7 193.038 165.435 196.163 166.351C199.361 167.289 199.755 169.977 199.17 172.82C198.503 176.064 197.678 179.275 196.582 183.946C198.891 180.948 200.403 179.002 201.897 177.043C204.533 173.584 207.352 170.265 211.114 168.011C214.794 165.807 218.706 164.387 222.851 166.977C226.954 169.541 227.749 173.857 227.344 177.959C225.771 193.873 218.138 206.629 205.619 216.354C199.501 221.106 195.224 221.289 187.095 218.339C183.937 225.645 182.283 233.447 179.937 241.016C179.003 244.032 178.331 247.144 177.2 250.083C176.011 253.175 173.668 255.162 170.187 254.053C166.607 252.912 166.842 249.943 167.685 247.016C172.885 228.96 178.103 210.91 183.312 192.857C183.576 191.939 183.804 191.011 183.66 189.813C178.81 194.734 172.841 198.4 169.266 204.527C166.152 209.864 162.545 214.85 157.787 218.897C154.457 221.729 150.933 224.141 146.472 224.878C138.885 226.132 133.352 222.228 132.135 214.663C129.64 199.152 142.781 176.85 157.608 171.435C168.325 167.521 175.463 172.492 175.501 183.899C175.505 185.219 175.501 186.539 175.501 188.213C179.63 185.807 181.782 181.615 185.088 178.071ZM146.126 198.712C144.592 202.959 143.29 207.239 143.691 211.855C143.971 215.071 145.88 215.915 148.519 214.878C150.157 214.235 151.735 213.041 152.924 211.719C159.443 204.472 163.203 195.843 164.981 186.34C165.371 184.252 165.582 181.813 163.386 180.434C160.932 178.892 158.878 180.446 157.079 181.926C151.901 186.182 149.018 192.002 146.126 198.712ZM197.846 194.346C195.621 198.42 193.345 202.467 191.198 206.581C190.499 207.921 190.166 209.504 191.336 210.792C192.584 212.167 194.238 212.413 195.896 211.646C197.539 210.887 199.275 210.158 200.658 209.033C209.442 201.889 214.022 192.316 216.045 181.411C216.373 179.641 217.01 177.417 214.466 175.684C206.845 179.613 203.092 187.191 197.846 194.346Z" fill="white"/>
<path d="M110.294 183.385C115.751 171.447 121.057 159.853 126.729 147.461C117.078 148.057 108.642 149.798 100.16 151.178C98.8483 151.391 97.5337 151.646 96.2109 151.726C92.8407 151.929 90.2124 151.106 90.0484 147.024C89.8955 143.222 90.4749 139.592 95.0661 139.248C109.676 138.153 124.164 136.069 138.697 134.341C143.06 133.823 144.481 136.238 142.411 140.89C137.742 151.385 132.75 161.736 127.959 172.178C120.247 188.984 113.595 206.229 106.837 223.43C104.528 229.307 98.5235 233.164 92.3767 232.61C88.6975 232.278 87.9736 229.844 89.2241 226.883C90.7765 223.208 92.7292 219.703 94.4734 216.107C99.7061 205.319 104.921 194.522 110.294 183.385Z" fill="white"/>
<path d="M307.373 88.3975C303.921 92.0811 300.44 95.1022 296.004 96.9081C285.096 101.348 276.443 95.3859 277.597 83.6134C279.136 67.9063 286.333 55.19 299.485 46.1162C300.437 45.4596 301.484 44.9122 302.546 44.4494C314.111 39.4096 322.821 45.7921 321.467 58.3839C320.233 69.8523 315.432 79.7104 307.373 88.3975ZM301.782 56.2725C301.023 57.1543 300.246 58.0209 299.509 58.9205C294.007 65.6359 290.818 73.4075 289.089 81.8384C288.603 84.2114 288.458 86.7824 290.607 88.2477C293.053 89.9163 294.991 87.6821 296.749 86.3629C299.852 84.0341 301.97 80.7808 303.942 77.5013C307.411 71.733 309.632 65.4926 310.217 58.7619C310.383 56.8545 310.898 54.5416 308.82 53.2925C306.671 52.0003 305.094 53.756 303.474 54.8507C303.062 55.1288 302.697 55.4758 301.782 56.2725Z" fill="white"/>
<path d="M294.333 189.344C290.503 193.696 286.91 197.785 282.522 202.778C289.653 201.639 295.667 200.713 301.667 199.704C304.568 199.216 307.717 198.571 308.53 202.434C309.38 206.478 307.024 208.797 303.154 209.328C293.431 210.663 283.688 211.848 273.95 213.071C271.794 213.342 269.993 212.771 268.904 210.696C267.762 208.52 268.226 206.536 269.504 204.588C273.627 198.303 278.569 192.659 283.348 186.891C288.639 180.505 294.033 174.203 299.932 167.212C294.486 167.179 290.136 168.558 285.707 169.434C282.47 170.075 278.828 171.279 277.402 166.675C276.375 163.359 279.244 160.126 283.814 159.437C291.872 158.223 299.956 157.177 308.021 156.008C310.828 155.601 313.438 155.708 315.015 158.486C316.485 161.075 315.335 163.4 313.737 165.4C307.399 173.334 300.967 181.193 294.333 189.344Z" fill="white"/>
<path d="M266.59 171.229C263.642 184.768 255.195 192.761 242.788 196.802C239.449 197.889 237.924 199.408 238.934 202.856C239.96 206.359 242.54 207.643 245.877 206.886C252.051 205.485 257.062 201.942 261.621 197.676C263.315 196.091 265.076 194.568 266.904 193.141C267.688 192.529 268.769 192.255 269.695 192.96C270.784 193.788 270.69 194.924 270.358 196.128C267.903 205.029 248.467 217.123 239.312 215.426C231.546 213.986 226.529 207.724 227.536 199.467C229.337 184.713 236.283 172.784 248.679 164.305C250.296 163.199 252.199 162.387 254.083 161.814C261.801 159.468 266.285 162.735 266.59 171.229ZM254.028 170.826C246.948 175.328 243.692 182.357 240.486 190.924C248.81 186.811 254.041 181.492 256.643 173.769C257.171 172.199 258.187 169.809 254.028 170.826Z" fill="white"/>
<path d="M316.58 332.774C312.363 333.395 308.603 334.128 304.808 334.537C302.239 334.814 299.267 335.56 297.534 332.743C295.678 329.727 297.56 327.285 299.402 325.119C307.808 315.238 316.294 305.426 324.745 295.585C325.588 294.603 326.818 293.901 327.138 292.077C322.243 291.269 317.746 293.235 313.125 293.852C310.637 294.184 307.808 295.268 306.91 291.856C306.058 288.622 307.968 286.157 310.971 285.395C319.677 283.186 328.602 282.034 337.529 281.298C341.802 280.945 343.908 285.182 341.491 289.055C339.307 292.555 336.514 295.698 333.818 298.85C326.693 307.178 319.475 315.426 311.819 324.254C317.684 324.325 322.648 322.592 327.726 321.718C330.688 321.208 334.214 320.026 335.036 324.263C335.809 328.245 333.242 330.326 329.339 330.862C325.225 331.427 321.127 332.114 316.58 332.774Z" fill="white"/>
<path d="M232.863 269.486C228.798 275.45 223.729 279.997 218.94 284.793C217.665 286.07 216.165 287.559 214.227 285.997C212.603 284.689 213.269 282.948 214.04 281.455C217.158 275.418 220.321 269.376 225.304 264.614C226.962 263.03 229.074 261.521 231.538 263.041C233.89 264.492 234.075 266.73 232.863 269.486Z" fill="white"/>
<path d="M167.609 163.6C163.641 164.311 162.671 161.974 163.598 159.301C165.55 153.674 167.863 148.146 170.415 142.762C171.794 139.852 174.547 137.945 177.787 139.781C180.979 141.59 180 144.712 178.632 147.265C175.574 152.972 171.943 158.326 167.609 163.6Z" fill="white"/>
<path d="M283.566 28.1741C282.341 31.005 280.947 33.2235 278.714 34.8347C277.115 35.9882 275.404 36.4704 273.587 35.5687C271.748 34.6559 271.175 32.9546 271.186 30.9984C271.199 28.4459 272.087 26.112 273.106 23.8494C274.706 20.2973 277.063 17.1174 281.41 18.5993C286.267 20.2553 284.883 24.2286 283.566 28.1741Z" fill="white"/>
</svg>
