<svg width="572" height="251" viewBox="0 0 572 251" fill="none" xmlns="http://www.w3.org/2000/svg">
<path d="M35.4728 61.1866C32.0465 69.2641 30.6051 77.086 33.6362 85.308C34.7128 88.2284 36.4733 90.5266 38.5581 92.7179C40.0174 94.2518 42.0088 95.8516 40.1165 98.2608C38.3979 100.449 36.1122 101.153 33.4358 99.9929C29.4444 98.2625 26.611 95.2985 24.5602 91.5444C19.5817 82.4312 19.9617 73.0045 23.0867 63.4766C28.8152 46.0109 40.9715 33.3126 54.342 21.5292C62.253 14.5571 70.9276 8.68447 80.1954 3.68496C81.9468 2.7402 83.7953 1.91998 85.6817 1.29022C98.2595 -2.90903 105.494 3.37753 103.543 16.7226C100.785 35.5823 94.8721 53.6315 89.435 71.8032C87.7304 77.5005 85.9858 83.1859 83.8035 90.3801C91.9908 84.8406 98.5883 79.7581 103.906 73.1284C104.739 72.0907 105.393 70.9079 106.243 69.8866C108.099 67.6567 110.484 66.379 113.289 67.6441C116.312 69.0074 116.338 71.7483 115.493 74.5109C113.008 82.6263 110.482 90.7288 107.95 98.8294C107.206 101.208 106.566 103.575 107.553 106.574C110.806 104.969 112.746 102.289 114.758 99.7503C121.128 91.7093 125.494 82.5371 129.58 73.2122C130.516 71.0779 131.432 68.9265 132.526 66.8727C134.008 64.0883 136.251 62.439 139.483 63.7657C142.69 65.0821 142.511 68.0119 141.771 70.6133C140.634 74.6088 139.006 78.4617 137.702 82.4129C136.242 86.8331 134.805 91.2663 133.566 95.7512C132.918 98.0966 132.53 100.582 134.416 103.736C140.129 99.1049 145.031 94.4144 147.738 87.7728C151.66 78.1525 157.419 69.8347 165.89 63.7708C172.243 59.2237 178.857 54.1536 187.062 60.5425C187.485 60.8722 188.322 60.7342 188.962 60.7125C194.637 60.5202 196.046 62.2731 193.966 67.7822C190.906 75.8857 187.774 83.9499 185.797 92.4071C185.393 94.1347 184.475 95.8653 185.964 97.6467C188.743 97.3903 190.254 95.2268 191.965 93.5473C199.948 85.7116 206.262 76.8794 208.287 65.5358C208.814 62.5806 209.71 59.6922 211.376 57.1451C212.799 54.9678 214.879 54.0634 217.418 54.7719C220.244 55.5608 220.776 57.8285 220.392 60.3195C219.897 63.5344 219.168 66.7133 218.366 70.7912C222.732 65.9313 225.635 61.0053 229.884 57.2446C232.138 55.2492 234.396 53.2848 237.26 52.192C243.048 49.9832 246.881 52.8781 246.276 59.0359C245.617 65.7506 243.011 71.9094 240.754 78.1678C239.315 82.1555 237.663 86.0961 237.18 90.4589C239.689 90.6841 240.652 89.1213 241.815 88.0427C251.354 79.1973 259.297 69.322 262.607 56.3452C263.34 53.4738 264.529 50.6325 266.002 48.0606C267.469 45.499 270.083 44.594 272.933 45.7372C275.87 46.916 276.037 49.3899 275.243 52.0261C268.237 75.295 261.275 98.579 253.078 121.467C252.003 124.472 249.952 126.396 246.585 125.259C243.388 124.18 243.146 121.57 244.001 118.681C246.599 109.903 249.182 101.121 251.761 92.3382C252.356 90.3086 252.914 88.2676 253.849 84.9558C250.341 88.9223 247.746 91.8925 245.109 94.8245C242.978 97.1947 240.496 99.1517 237.769 100.796C234.443 102.801 230.912 103.959 227.524 101.315C224.396 98.8745 224.289 95.3852 225.176 91.7381C226.675 85.576 228.741 79.6044 230.953 73.6737C231.869 71.2153 232.718 68.7316 233.873 65.4853C230.954 66.4411 229.721 68.1558 228.41 69.7032C220.923 78.5402 214.907 88.2771 210.587 99.0417C210.215 99.9683 209.82 100.887 209.396 101.791C207.646 105.518 204.803 108.042 200.692 106.424C196.971 104.958 198.595 101.422 199.11 98.555C199.193 98.0952 199.197 97.6212 199.261 96.8819C195.997 99.8411 193.014 102.69 189.873 105.354C186.613 108.12 182.894 110.533 178.532 108.646C174.499 106.901 174.931 102.687 174.665 99.0559C174.62 98.4474 174.484 97.8457 174.412 97.3777C171.198 100.375 168.135 103.382 164.912 106.207C157.38 112.812 151.24 112.306 144.995 104.456C142.891 106.312 140.898 108.295 138.677 109.977C135.251 112.572 131.807 115.84 127.004 113.933C122.162 112.011 122.864 107.246 122.152 102.131C120.111 104.637 118.524 106.554 116.973 108.5C114.238 111.929 111.054 114.804 107.067 116.723C103.759 118.315 100.524 118.107 97.6327 115.927C94.7832 113.78 94.312 110.65 95.0211 107.353C95.7557 103.938 96.64 100.553 97.5053 97.1672C98.3606 93.8198 99.274 90.4872 100.416 86.1926C94.1531 91.8172 88.4672 96.6268 82.3105 100.839C79.8973 102.49 79.4334 105.225 78.678 107.762C71.6293 131.44 62.9558 154.471 51.169 176.236C45.7454 186.251 39.3417 195.576 30.3021 202.748C27.9696 204.599 25.419 206.279 22.7449 207.577C10.0378 213.744 -0.860901 206.38 0.0537027 192.32C0.646805 183.202 3.16566 174.602 7.7843 166.736C21.9679 142.58 40.0361 121.901 63.1964 105.935C66.7068 103.515 68.7009 100.6 69.9268 96.5266C77.3607 71.8265 85.2163 47.2497 90.9457 22.0701C91.4619 19.8014 91.7951 17.4906 92.2008 15.1971C92.8842 11.333 91.3051 10.1558 87.7453 11.5651C80.222 14.5433 73.7183 19.2287 67.4836 24.2266C54.6752 34.4942 42.7911 45.6273 35.4728 61.1866ZM34.0361 146.201C27.6874 153.947 21.7625 161.985 17.2971 170.996C14.1741 177.298 11.7547 183.848 11.1655 190.924C10.9267 193.792 10.9863 196.849 13.7834 198.532C16.571 200.21 19.2537 198.878 21.7106 197.296C25.261 195.011 28.0451 191.932 30.6302 188.64C40.0996 176.583 46.3935 162.774 52.1894 148.765C56.3526 138.703 60.5298 128.595 63.6412 116.995C52.2805 125.927 43.232 135.633 34.0361 146.201ZM162.436 98.592C170.596 91.5167 176.767 83.0065 180.833 72.9953C181.584 71.1453 182.422 69.0588 180.575 67.4708C178.832 65.9725 176.756 66.5946 175 67.6589C173.169 68.7681 171.323 69.9547 169.784 71.4227C162.861 78.0277 158.757 86.2398 156.51 95.451C156.068 97.2642 155.681 99.2785 157.492 100.448C159.249 101.584 160.486 99.7528 162.436 98.592Z" fill="white"/>
<path d="M415.837 186.035C416.144 183.106 414.136 182.785 412.373 182.407C410.192 181.94 409.518 183.874 408.743 185.218C403.413 194.461 398.044 203.67 391.148 211.878C388.996 214.44 386.701 216.835 383.837 218.631C377.314 222.723 372.552 220.586 371.327 212.978C371.174 212.024 371.146 211.05 371.011 209.534C367.345 212.878 364.636 216.53 360.833 218.918C357.325 221.12 353.661 224.212 349.446 221.191C345.352 218.257 345.615 213.716 346.91 209.351C349.129 201.875 351.48 194.438 353.925 186.498C351.827 187.147 350.762 188.574 349.652 189.844C342.595 197.914 336.498 206.608 332.359 216.576C331.531 218.569 330.658 220.595 329.456 222.368C327.841 224.75 325.489 226.123 322.581 224.798C319.679 223.475 319.854 220.843 320.594 218.324C322.846 210.659 325.194 203.023 327.512 195.378C328.045 193.62 328.508 191.863 327.918 189.73C325.702 190.105 324.769 191.952 323.583 193.378C316.926 201.374 311.685 210.232 307.632 219.808C306.918 221.493 306.161 223.171 305.275 224.77C303.986 227.097 301.96 228.091 299.386 227.187C296.761 226.266 296.005 224.094 296.398 221.546C296.695 219.615 297.267 217.725 298.311 216.56C295.167 219.226 292.093 221.98 288.861 224.534C285.27 227.371 281.284 230.209 276.571 228.084C272.039 226.041 273.323 221.298 273.062 216.689C269.492 220.749 266.611 224.767 262.667 227.684C258.845 230.513 254.808 233.316 249.881 230.553C244.839 227.725 244.47 222.661 245.332 217.785C247.896 203.275 255.188 191.684 267.992 184.075C273.131 181.02 278.714 179.044 284.156 183.932C284.61 184.341 285.323 184.588 285.946 184.662C292.209 185.407 292.34 185.651 290.318 191.796C287.822 199.378 284.754 206.785 283.286 214.685C283.046 215.975 282.432 217.254 283.745 218.716C286.659 218.468 288.481 216.189 290.385 214.281C297.815 206.832 303.163 198.115 305.983 187.912C306.424 186.314 306.854 184.645 307.675 183.234C309.015 180.932 311.311 180.207 313.734 181.103C316.133 181.989 316.685 184.037 316.047 186.451C315.334 189.153 314.669 191.869 313.77 195.418C317.632 191.128 319.996 186.692 323.688 183.364C325.427 181.796 327.091 180.167 329.286 179.238C334.824 176.893 338.477 179.17 338.735 185.22C338.855 188.022 338.756 190.834 338.756 193.606C340.949 190.619 343.219 187.262 345.766 184.131C348.731 180.485 352.136 177.233 356.745 175.757C362.104 174.039 366.154 177.613 365.176 183.153C363.808 190.901 360.084 197.937 358.268 205.555C357.821 207.43 356.913 209.276 357.978 211.915C365.698 206.785 371.311 200.205 375.013 192.101C377.081 187.577 378.456 182.729 380.025 177.988C380.557 176.382 381.067 174.809 382.284 173.606C383.698 172.208 385.422 171.666 387.323 172.393C389.357 173.171 389.976 174.943 389.66 176.875C389.313 178.994 388.659 181.072 388.026 183.134C386.122 189.34 384.075 195.504 382.268 201.737C381.549 204.222 380.852 206.857 382.198 209.426C384.781 209.854 385.996 208.111 387.279 206.665C394.637 198.371 400.352 188.997 404.988 178.975C406.011 176.763 406.101 174.138 406.856 171.779C407.754 168.977 409.276 166.244 412.592 166.407C415.678 166.559 416.329 169.133 416.303 171.919C416.278 174.591 418.717 174.793 420.459 175.554C426.808 178.325 427.362 179.717 424.881 186.257C422.993 191.237 421.215 196.26 419.48 201.296C418.792 203.291 418.008 205.369 419.673 207.966C425.457 204.975 430.303 201.138 432.264 194.803C435.535 184.234 440.202 174.675 449.258 167.798C452.371 165.433 455.786 163.735 459.683 163.295C466.259 162.551 470.728 167.373 469.251 173.803C466.578 185.44 458.545 192.345 447.955 196.456C444.199 197.913 441.49 199.194 443.021 203.752C444.143 207.096 447.345 207.843 451.894 205.946C457.728 203.514 462.166 199.232 466.587 194.918C467.882 193.653 469.298 191.784 471.23 193.215C473.48 194.881 471.863 196.881 470.763 198.461C466.3 204.867 460.54 209.933 453.598 213.408C444.588 217.917 437.378 215.441 432.194 206.334C430.056 207.092 429.084 209.136 427.681 210.636C425.494 212.974 423.083 215.014 420.232 216.447C417.387 217.877 414.351 219.451 411.333 217.116C408.404 214.848 407.956 211.478 408.388 208.04C409.357 200.327 412.542 193.343 415.837 186.035ZM268.934 212.314C272.579 207.381 276.154 202.401 278.293 196.58C279.027 194.583 280.152 192.34 278.245 190.548C276.11 188.542 273.688 189.866 271.853 191.129C262.427 197.614 257.683 206.994 255.848 218.033C255.63 219.344 255.737 220.8 257.13 221.534C258.567 222.291 259.65 221.248 260.707 220.491C263.693 218.355 266.286 215.809 268.934 212.314ZM455.153 173.523C450.039 178.122 446.393 183.61 444.28 190.71C454.489 186.112 460.555 178.403 459.345 172.074C457.865 171.444 456.848 172.481 455.153 173.523Z" fill="white"/>
<path d="M246.157 238.616C247.825 239.752 249.212 240.673 250.616 241.566C252.553 242.796 255.191 243.742 253.952 246.785C252.82 249.561 250.303 250.691 247.448 250.455C244.416 250.206 241.647 248.874 239.176 247.151C228.152 239.46 220.29 228.951 213.318 217.701C210.364 212.934 207.644 208.023 204.296 202.283C202.612 206.45 201.151 209.724 199.957 213.092C197.787 219.21 195.783 225.388 193.693 231.535C192.608 234.728 191.603 238.611 187.151 237.357C182.576 236.069 183.24 232.095 184.293 228.624C186.516 221.302 188.762 213.978 191.317 206.767C196.766 191.388 202.416 176.08 207.988 160.745C208.442 159.493 208.752 158.15 209.423 157.024C211.088 154.229 213.498 152.293 216.858 153.578C220.264 154.88 220.172 157.855 219.124 160.752C215.897 169.675 212.566 178.56 209.326 187.478C208.782 188.975 207.613 190.365 208.195 192.146C209.605 193.067 210.868 192.256 212.01 191.772C221.298 187.836 229.834 182.724 236.785 175.287C240.734 171.062 243.606 166.215 244.144 160.321C244.789 153.253 241.459 149.219 234.378 148.524C220.628 147.174 208.556 152.313 196.86 158.595C189.847 162.362 183.705 166.935 181.382 175.304C180.361 178.979 176.846 179.165 174.552 175.963C172.395 172.953 172.685 169.698 174.208 166.485C176.497 161.656 180.446 158.242 184.545 155.134C197.853 145.046 212.989 139.342 229.485 137.193C231.776 136.894 234.159 136.978 236.469 137.202C251.952 138.704 259.885 150.319 255.042 165.099C250.025 180.411 238.196 189.416 224.415 196.307C222.066 197.482 219.613 198.451 216.458 199.846C224.736 214.356 233.261 227.89 246.157 238.616Z" fill="white"/>
<path d="M440.429 43.7987C442.493 41.0913 443.447 38.2345 444.63 35.4861C445.946 32.4283 448.38 31.163 451.505 32.0792C454.703 33.0168 455.097 35.7048 454.512 38.548C453.845 41.7915 453.019 45.0027 451.924 49.6737C454.233 46.6765 455.745 44.7304 457.239 42.7708C459.875 39.3123 462.694 35.9934 466.456 33.7393C470.135 31.5348 474.048 30.1147 478.193 32.7047C482.296 35.269 483.091 39.5851 482.686 43.6868C481.113 59.601 473.48 72.3572 460.961 82.0824C454.843 86.8345 450.566 87.0173 442.437 84.0672C439.279 91.3734 437.625 99.1755 435.279 106.744C434.344 109.76 433.673 112.872 432.542 115.811C431.353 118.903 429.01 120.89 425.529 119.781C421.949 118.64 422.183 115.671 423.027 112.744C428.227 94.6885 433.445 76.6382 438.654 58.5851C438.918 57.6675 439.146 56.7392 439.002 55.5415C434.152 60.4617 428.183 64.128 424.608 70.2553C421.494 75.592 417.887 80.5779 413.129 84.6249C409.799 87.4574 406.275 89.8692 401.814 90.6062C394.227 91.8596 388.694 87.9561 387.477 80.3915C384.982 64.8796 398.123 42.5782 412.949 37.1632C423.667 33.2489 430.805 38.2203 430.842 49.6275C430.847 50.947 430.843 52.2666 430.843 53.9411C434.971 51.5346 437.123 47.3432 440.429 43.7987ZM401.468 64.4397C399.934 68.6867 398.632 72.9666 399.033 77.5832C399.312 80.7988 401.222 81.6429 403.861 80.6062C405.499 79.9629 407.077 78.7687 408.266 77.4472C414.785 70.2001 418.544 61.5705 420.323 52.0677C420.713 49.9797 420.924 47.541 418.728 46.1617C416.274 44.6202 414.22 46.1745 412.42 47.6539C407.243 51.9102 404.36 57.7305 401.468 64.4397ZM453.188 60.0743C450.963 64.1476 448.687 68.1947 446.54 72.309C445.841 73.6487 445.508 75.2317 446.678 76.5204C447.926 77.8948 449.58 78.1408 451.238 77.3741C452.881 76.6145 454.617 75.8865 456 74.7615C464.784 67.6172 469.364 58.0436 471.387 47.1388C471.715 45.3688 472.352 43.1448 469.808 41.412C462.187 45.3406 458.434 52.9194 453.188 60.0743Z" fill="white"/>
<path d="M365.636 49.1128C371.092 37.1748 376.399 25.5813 382.071 13.1891C372.42 13.7851 363.984 15.526 355.502 16.9056C354.19 17.1191 352.876 17.3739 351.553 17.4538C348.183 17.6572 345.554 16.8338 345.39 12.7523C345.237 8.94978 345.817 5.31993 350.408 4.97596C365.018 3.88145 379.506 1.79695 394.039 0.0692548C398.402 -0.449392 399.822 1.96577 397.753 6.61799C393.083 17.1132 388.091 27.4643 383.3 37.906C375.589 54.7124 368.937 71.9573 362.179 89.1582C359.87 95.0353 353.865 98.8917 347.719 98.3376C344.039 98.006 343.316 95.5718 344.566 92.6112C346.118 88.9357 348.071 85.4306 349.815 81.8346C355.048 71.0467 360.263 60.2503 365.636 49.1128Z" fill="white"/>
<path d="M303.738 88.3975C300.286 92.0811 296.805 95.1022 292.369 96.9081C281.461 101.348 272.808 95.3859 273.962 83.6134C275.5 67.9063 282.697 55.19 295.85 46.1162C296.802 45.4596 297.849 44.9122 298.911 44.4494C310.476 39.4096 319.186 45.7921 317.832 58.3839C316.598 69.8523 311.796 79.7104 303.738 88.3975ZM298.147 56.2725C297.388 57.1543 296.611 58.0209 295.874 58.9205C290.371 65.6359 287.182 73.4075 285.454 81.8384C284.968 84.2114 284.823 86.7824 286.971 88.2477C289.418 89.9163 291.356 87.6821 293.114 86.3629C296.217 84.0341 298.335 80.7808 300.307 77.5013C303.775 71.733 305.997 65.4926 306.582 58.7619C306.747 56.8545 307.263 54.5416 305.185 53.2925C303.036 52.0003 301.459 53.756 299.839 54.8507C299.427 55.1288 299.062 55.4758 298.147 56.2725Z" fill="white"/>
<path d="M549.675 55.072C545.845 59.4242 542.252 63.5128 537.864 68.5063C544.995 67.3667 551.009 66.4408 557.009 65.4315C559.91 64.9436 563.059 64.2992 563.872 68.1623C564.722 72.2064 562.366 74.5248 558.496 75.0561C548.773 76.3908 539.03 77.5759 529.292 78.7992C527.136 79.0702 525.335 78.4986 524.246 76.424C523.104 74.2476 523.568 72.2639 524.846 70.316C528.968 64.0315 533.911 58.3875 538.69 52.6194C543.981 46.2327 549.375 39.9313 555.274 32.9404C549.828 32.9074 545.478 34.2859 541.049 35.1625C537.812 35.8032 534.17 37.0071 532.744 32.4026C531.717 29.0867 534.586 25.854 539.156 25.1653C547.214 23.9511 555.298 22.9046 563.363 21.736C566.17 21.3293 568.78 21.436 570.357 24.2141C571.827 26.8027 570.677 29.1277 569.079 31.1277C562.741 39.062 556.309 46.9213 549.675 55.072Z" fill="white"/>
<path d="M521.931 36.9568C518.984 50.496 510.537 58.489 498.13 62.5299C494.791 63.6172 493.266 65.1365 494.275 68.5841C495.302 72.0874 497.882 73.3712 501.218 72.614C507.393 71.2128 512.404 67.6701 516.963 63.4038C518.656 61.8186 520.418 60.2961 522.246 58.8689C523.03 58.2566 524.111 57.9834 525.037 58.6876C526.126 59.5158 526.032 60.6522 525.7 61.8559C523.245 70.7569 503.808 82.8508 494.654 81.1535C486.888 79.7135 481.871 73.4516 482.878 65.1947C484.678 50.4407 491.625 38.5116 504.021 30.0329C505.638 28.9265 507.54 28.1146 509.425 27.5417C517.143 25.1956 521.627 28.463 521.931 36.9568ZM509.37 36.5544C502.29 41.0558 499.034 48.0853 495.828 56.6522C504.152 52.5388 509.383 47.2197 511.984 39.4972C512.513 37.927 513.529 35.5372 509.37 36.5544Z" fill="white"/>
<path d="M489.58 210.614C485.363 211.235 481.603 211.969 477.808 212.378C475.239 212.655 472.267 213.4 470.534 210.584C468.678 207.568 470.56 205.125 472.402 202.959C480.808 193.079 489.294 183.267 497.745 173.426C498.588 172.444 499.818 171.742 500.138 169.917C495.243 169.11 490.746 171.075 486.125 171.693C483.637 172.025 480.808 173.108 479.91 169.697C479.058 166.462 480.968 163.998 483.971 163.236C492.677 161.027 501.602 159.875 510.529 159.138C514.802 158.786 516.908 163.023 514.491 166.896C512.307 170.396 509.514 173.538 506.818 176.691C499.693 185.019 492.475 193.266 484.819 202.094C490.684 202.165 495.648 200.433 500.726 199.559C503.688 199.049 507.214 197.867 508.036 202.103C508.809 206.085 506.242 208.166 502.339 208.703C498.225 209.268 494.127 209.955 489.58 210.614Z" fill="white"/>
<path d="M405.863 147.327C401.798 153.291 396.729 157.837 391.94 162.634C390.665 163.91 389.165 165.399 387.227 163.838C385.603 162.53 386.269 160.789 387.04 159.296C390.158 153.259 393.321 147.216 398.304 142.455C399.962 140.87 402.074 139.361 404.538 140.881C406.89 142.333 407.075 144.571 405.863 147.327Z" fill="white"/>
<path d="M422.951 29.3275C418.983 30.0389 418.013 27.7025 418.94 25.0292C420.892 19.4015 423.205 13.8745 425.757 8.48977C427.136 5.58028 429.889 3.67309 433.129 5.50924C436.321 7.31808 435.342 10.4399 433.974 12.9926C430.916 18.6996 427.284 24.0537 422.951 29.3275Z" fill="white"/>
<path d="M279.931 28.1741C278.706 31.005 277.312 33.2235 275.079 34.8347C273.48 35.9882 271.769 36.4704 269.952 35.5687C268.113 34.6559 267.54 32.9546 267.55 30.9984C267.564 28.4459 268.452 26.112 269.471 23.8494C271.071 20.2973 273.428 17.1174 277.775 18.5993C282.632 20.2553 281.248 24.2286 279.931 28.1741Z" fill="white"/>
</svg>
