<svg width="255" height="24" viewBox="0 0 255 24" fill="none" xmlns="http://www.w3.org/2000/svg">
<path d="M0.912 14.52C1.12 14.664 1.488 14.84 2.016 15.048C2.544 15.24 3.168 15.336 3.888 15.336C4.512 15.336 5.024 15.232 5.424 15.024C5.824 14.8 6.128 14.472 6.336 14.04C6.56 13.608 6.704 13.048 6.768 12.36C6.848 11.672 6.888 10.848 6.888 9.888V0.959999H10.2V9.624C10.2 10.904 10.128 12.072 9.984 13.128C9.84 14.184 9.56 15.096 9.144 15.864C8.728 16.632 8.096 17.224 7.248 17.64C6.416 18.056 5.304 18.264 3.912 18.264C3.144 18.264 2.456 18.176 1.848 18C1.24 17.824 0.68 17.56 0.168 17.208L0.912 14.52ZM12.9456 13.296V5.424H16.1616V12.6C16.1616 13.56 16.3376 14.288 16.6896 14.784C17.0416 15.264 17.5616 15.504 18.2496 15.504C18.6656 15.504 19.0736 15.424 19.4736 15.264C19.8896 15.088 20.2656 14.832 20.6016 14.496C20.9536 14.16 21.2496 13.736 21.4896 13.224V5.424H24.7056V14.4C24.7056 14.736 24.7616 14.976 24.8736 15.12C25.0016 15.264 25.2016 15.352 25.4736 15.384V18C25.1536 18.048 24.8816 18.08 24.6576 18.096C24.4496 18.128 24.2576 18.144 24.0816 18.144C23.5056 18.144 23.0336 18.016 22.6656 17.76C22.3136 17.488 22.1056 17.12 22.0416 16.656L21.9696 15.648C21.4096 16.496 20.6896 17.144 19.8096 17.592C18.9296 18.024 17.9616 18.24 16.9056 18.24C15.6096 18.24 14.6256 17.824 13.9536 16.992C13.2816 16.144 12.9456 14.912 12.9456 13.296ZM27.0375 14.28C27.0375 13.464 27.2615 12.752 27.7095 12.144C28.1735 11.52 28.8135 11.04 29.6295 10.704C30.4455 10.368 31.3815 10.2 32.4375 10.2C32.9655 10.2 33.5015 10.24 34.0455 10.32C34.5895 10.4 35.0615 10.528 35.4615 10.704V10.032C35.4615 9.232 35.2215 8.616 34.7415 8.184C34.2775 7.752 33.5815 7.536 32.6535 7.536C31.9655 7.536 31.3095 7.656 30.6855 7.896C30.0615 8.136 29.4055 8.488 28.7175 8.952L27.6855 6.84C28.5175 6.296 29.3655 5.888 30.2295 5.616C31.1095 5.344 32.0295 5.208 32.9895 5.208C34.7815 5.208 36.1735 5.656 37.1655 6.552C38.1735 7.448 38.6775 8.728 38.6775 10.392V14.4C38.6775 14.736 38.7335 14.976 38.8455 15.12C38.9735 15.264 39.1735 15.352 39.4455 15.384V18C39.1575 18.048 38.8935 18.088 38.6535 18.12C38.4295 18.152 38.2375 18.168 38.0775 18.168C37.4375 18.168 36.9495 18.024 36.6135 17.736C36.2935 17.448 36.0935 17.096 36.0135 16.68L35.9415 16.032C35.3975 16.736 34.7175 17.28 33.9015 17.664C33.0855 18.048 32.2535 18.24 31.4055 18.24C30.5735 18.24 29.8215 18.072 29.1495 17.736C28.4935 17.384 27.9735 16.912 27.5895 16.32C27.2215 15.712 27.0375 15.032 27.0375 14.28ZM34.8615 14.928C35.0375 14.736 35.1815 14.544 35.2935 14.352C35.4055 14.16 35.4615 13.984 35.4615 13.824V12.552C35.0775 12.392 34.6615 12.272 34.2135 12.192C33.7655 12.096 33.3415 12.048 32.9415 12.048C32.1095 12.048 31.4215 12.232 30.8775 12.6C30.3495 12.952 30.0855 13.424 30.0855 14.016C30.0855 14.336 30.1735 14.64 30.3495 14.928C30.5255 15.216 30.7815 15.448 31.1175 15.624C31.4535 15.8 31.8535 15.888 32.3175 15.888C32.7975 15.888 33.2695 15.8 33.7335 15.624C34.1975 15.432 34.5735 15.2 34.8615 14.928ZM53.3708 18H50.1548V10.944C50.1548 9.936 49.9788 9.2 49.6268 8.736C49.2748 8.272 48.7868 8.04 48.1628 8.04C47.7308 8.04 47.2908 8.152 46.8428 8.376C46.4108 8.6 46.0188 8.912 45.6668 9.312C45.3148 9.696 45.0588 10.144 44.8988 10.656V18H41.6828V5.424H44.5868V7.752C44.9068 7.208 45.3148 6.752 45.8108 6.384C46.3068 6 46.8748 5.712 47.5148 5.52C48.1708 5.312 48.8588 5.208 49.5788 5.208C50.3628 5.208 51.0028 5.352 51.4988 5.64C52.0108 5.912 52.3948 6.288 52.6508 6.768C52.9228 7.232 53.1068 7.76 53.2028 8.352C53.3148 8.944 53.3708 9.544 53.3708 10.152V18ZM55.6151 14.52C55.8231 14.664 56.1911 14.84 56.7191 15.048C57.2471 15.24 57.8711 15.336 58.5911 15.336C59.2151 15.336 59.7271 15.232 60.1271 15.024C60.5271 14.8 60.8311 14.472 61.0391 14.04C61.2631 13.608 61.4071 13.048 61.4711 12.36C61.5511 11.672 61.5911 10.848 61.5911 9.888V0.959999H64.9031V9.624C64.9031 10.904 64.8311 12.072 64.6871 13.128C64.5431 14.184 64.2631 15.096 63.8471 15.864C63.4311 16.632 62.7991 17.224 61.9511 17.64C61.1191 18.056 60.0071 18.264 58.6151 18.264C57.8471 18.264 57.1591 18.176 56.5511 18C55.9431 17.824 55.3831 17.56 54.8711 17.208L55.6151 14.52ZM73.5533 18.24C72.5293 18.24 71.6093 18.072 70.7933 17.736C69.9773 17.384 69.2813 16.904 68.7053 16.296C68.1453 15.688 67.7133 14.992 67.4093 14.208C67.1053 13.424 66.9533 12.6 66.9533 11.736C66.9533 10.856 67.1053 10.024 67.4093 9.24C67.7133 8.456 68.1453 7.76 68.7053 7.152C69.2813 6.544 69.9773 6.072 70.7933 5.736C71.6093 5.384 72.5293 5.208 73.5533 5.208C74.5773 5.208 75.4893 5.384 76.2893 5.736C77.1053 6.072 77.8013 6.544 78.3773 7.152C78.9533 7.76 79.3853 8.456 79.6733 9.24C79.9773 10.024 80.1293 10.856 80.1293 11.736C80.1293 12.6 79.9773 13.424 79.6733 14.208C79.3853 14.992 78.9533 15.688 78.3773 16.296C77.8173 16.904 77.1293 17.384 76.3133 17.736C75.4973 18.072 74.5773 18.24 73.5533 18.24ZM70.2653 11.736C70.2653 12.472 70.4093 13.128 70.6973 13.704C70.9853 14.264 71.3773 14.704 71.8733 15.024C72.3693 15.344 72.9293 15.504 73.5533 15.504C74.1613 15.504 74.7133 15.344 75.2093 15.024C75.7053 14.688 76.0973 14.24 76.3853 13.68C76.6893 13.104 76.8413 12.448 76.8413 11.712C76.8413 10.992 76.6893 10.344 76.3853 9.768C76.0973 9.192 75.7053 8.744 75.2093 8.424C74.7133 8.104 74.1613 7.944 73.5533 7.944C72.9293 7.944 72.3693 8.112 71.8733 8.448C71.3773 8.768 70.9853 9.216 70.6973 9.792C70.4093 10.352 70.2653 11 70.2653 11.736ZM88.3776 18V0.959999H91.6896V15.096H100.378V18H88.3776ZM107.795 18.24C106.771 18.24 105.851 18.072 105.035 17.736C104.219 17.384 103.523 16.904 102.947 16.296C102.387 15.688 101.955 14.992 101.651 14.208C101.347 13.424 101.195 12.6 101.195 11.736C101.195 10.856 101.347 10.024 101.651 9.24C101.955 8.456 102.387 7.76 102.947 7.152C103.523 6.544 104.219 6.072 105.035 5.736C105.851 5.384 106.771 5.208 107.795 5.208C108.819 5.208 109.731 5.384 110.531 5.736C111.347 6.072 112.043 6.544 112.619 7.152C113.195 7.76 113.627 8.456 113.915 9.24C114.219 10.024 114.371 10.856 114.371 11.736C114.371 12.6 114.219 13.424 113.915 14.208C113.627 14.992 113.195 15.688 112.619 16.296C112.059 16.904 111.371 17.384 110.555 17.736C109.739 18.072 108.819 18.24 107.795 18.24ZM104.507 11.736C104.507 12.472 104.651 13.128 104.939 13.704C105.227 14.264 105.619 14.704 106.115 15.024C106.611 15.344 107.171 15.504 107.795 15.504C108.403 15.504 108.955 15.344 109.451 15.024C109.947 14.688 110.339 14.24 110.627 13.68C110.931 13.104 111.083 12.448 111.083 11.712C111.083 10.992 110.931 10.344 110.627 9.768C110.339 9.192 109.947 8.744 109.451 8.424C108.955 8.104 108.403 7.944 107.795 7.944C107.171 7.944 106.611 8.112 106.115 8.448C105.619 8.768 105.227 9.216 104.939 9.792C104.651 10.352 104.507 11 104.507 11.736ZM108.851 3.96L106.787 3.336L108.083 0.48H111.083L108.851 3.96ZM124.078 18.24C123.102 18.24 122.238 18.024 121.486 17.592C120.75 17.144 120.174 16.544 119.758 15.792V23.112H116.542V5.424H119.35V7.584C119.83 6.848 120.438 6.272 121.174 5.856C121.91 5.424 122.75 5.208 123.694 5.208C124.542 5.208 125.318 5.376 126.022 5.712C126.742 6.048 127.366 6.52 127.894 7.128C128.422 7.72 128.83 8.408 129.118 9.192C129.422 9.96 129.574 10.792 129.574 11.688C129.574 12.904 129.334 14.008 128.854 15C128.39 15.992 127.742 16.784 126.91 17.376C126.094 17.952 125.15 18.24 124.078 18.24ZM122.998 15.504C123.494 15.504 123.942 15.4 124.342 15.192C124.742 14.984 125.086 14.704 125.374 14.352C125.678 13.984 125.902 13.576 126.046 13.128C126.206 12.664 126.286 12.184 126.286 11.688C126.286 11.16 126.198 10.672 126.022 10.224C125.862 9.776 125.622 9.384 125.302 9.048C124.982 8.696 124.606 8.424 124.174 8.232C123.758 8.04 123.302 7.944 122.806 7.944C122.502 7.944 122.19 8 121.87 8.112C121.566 8.208 121.27 8.352 120.982 8.544C120.694 8.736 120.438 8.96 120.214 9.216C120.006 9.472 119.854 9.752 119.758 10.056V13.008C119.95 13.472 120.206 13.896 120.526 14.28C120.862 14.664 121.246 14.968 121.678 15.192C122.11 15.4 122.55 15.504 122.998 15.504ZM137.585 18.24C136.577 18.24 135.665 18.072 134.849 17.736C134.033 17.384 133.337 16.912 132.761 16.32C132.185 15.712 131.737 15.024 131.417 14.256C131.113 13.472 130.961 12.648 130.961 11.784C130.961 10.584 131.225 9.488 131.753 8.496C132.297 7.504 133.065 6.712 134.057 6.12C135.065 5.512 136.249 5.208 137.609 5.208C138.985 5.208 140.161 5.512 141.137 6.12C142.113 6.712 142.857 7.504 143.369 8.496C143.897 9.472 144.161 10.528 144.161 11.664C144.161 11.856 144.153 12.056 144.137 12.264C144.121 12.456 144.105 12.616 144.089 12.744H134.369C134.433 13.384 134.617 13.944 134.921 14.424C135.241 14.904 135.641 15.272 136.121 15.528C136.617 15.768 137.145 15.888 137.705 15.888C138.345 15.888 138.945 15.736 139.505 15.432C140.081 15.112 140.473 14.696 140.681 14.184L143.441 14.952C143.137 15.592 142.697 16.16 142.121 16.656C141.561 17.152 140.897 17.544 140.129 17.832C139.361 18.104 138.513 18.24 137.585 18.24ZM134.297 10.704H140.873C140.809 10.064 140.625 9.512 140.321 9.048C140.033 8.568 139.649 8.2 139.169 7.944C138.689 7.672 138.153 7.536 137.561 7.536C136.985 7.536 136.457 7.672 135.977 7.944C135.513 8.2 135.129 8.568 134.825 9.048C134.537 9.512 134.361 10.064 134.297 10.704ZM145.14 16.032L152.076 7.68H145.428V5.424H155.532V7.392L148.644 15.744H155.652V18H145.14V16.032ZM163.893 18V0.959999H171.429C172.213 0.959999 172.933 1.12 173.589 1.44C174.261 1.76 174.837 2.192 175.317 2.736C175.813 3.28 176.189 3.888 176.445 4.56C176.717 5.232 176.853 5.92 176.853 6.624C176.853 7.344 176.725 8.04 176.469 8.712C176.229 9.368 175.877 9.944 175.413 10.44C174.949 10.936 174.405 11.32 173.781 11.592L177.669 18H174.021L170.517 12.288H167.205V18H163.893ZM167.205 9.384H171.357C171.773 9.384 172.141 9.264 172.461 9.024C172.781 8.768 173.037 8.432 173.229 8.016C173.421 7.6 173.517 7.136 173.517 6.624C173.517 6.08 173.405 5.608 173.181 5.208C172.957 4.792 172.669 4.464 172.317 4.224C171.981 3.984 171.613 3.864 171.213 3.864H167.205V9.384ZM178.467 14.28C178.467 13.464 178.691 12.752 179.139 12.144C179.603 11.52 180.243 11.04 181.059 10.704C181.875 10.368 182.811 10.2 183.867 10.2C184.395 10.2 184.931 10.24 185.475 10.32C186.019 10.4 186.491 10.528 186.891 10.704V10.032C186.891 9.232 186.651 8.616 186.171 8.184C185.707 7.752 185.011 7.536 184.083 7.536C183.395 7.536 182.739 7.656 182.115 7.896C181.491 8.136 180.835 8.488 180.147 8.952L179.115 6.84C179.947 6.296 180.795 5.888 181.659 5.616C182.539 5.344 183.459 5.208 184.419 5.208C186.211 5.208 187.603 5.656 188.595 6.552C189.603 7.448 190.107 8.728 190.107 10.392V14.4C190.107 14.736 190.163 14.976 190.275 15.12C190.403 15.264 190.603 15.352 190.875 15.384V18C190.587 18.048 190.323 18.088 190.083 18.12C189.859 18.152 189.667 18.168 189.507 18.168C188.867 18.168 188.379 18.024 188.043 17.736C187.723 17.448 187.523 17.096 187.443 16.68L187.371 16.032C186.827 16.736 186.147 17.28 185.331 17.664C184.515 18.048 183.683 18.24 182.835 18.24C182.003 18.24 181.251 18.072 180.579 17.736C179.923 17.384 179.403 16.912 179.019 16.32C178.651 15.712 178.467 15.032 178.467 14.28ZM186.291 14.928C186.467 14.736 186.611 14.544 186.723 14.352C186.835 14.16 186.891 13.984 186.891 13.824V12.552C186.507 12.392 186.091 12.272 185.643 12.192C185.195 12.096 184.771 12.048 184.371 12.048C183.539 12.048 182.851 12.232 182.307 12.6C181.779 12.952 181.515 13.424 181.515 14.016C181.515 14.336 181.603 14.64 181.779 14.928C181.955 15.216 182.211 15.448 182.547 15.624C182.883 15.8 183.283 15.888 183.747 15.888C184.227 15.888 184.699 15.8 185.163 15.624C185.627 15.432 186.003 15.2 186.291 14.928ZM212.648 18H209.432V10.944C209.432 9.952 209.256 9.224 208.904 8.76C208.568 8.28 208.096 8.04 207.488 8.04C206.864 8.04 206.264 8.288 205.688 8.784C205.128 9.264 204.728 9.896 204.488 10.68V18H201.272V10.944C201.272 9.936 201.096 9.2 200.744 8.736C200.408 8.272 199.936 8.04 199.328 8.04C198.704 8.04 198.104 8.28 197.528 8.76C196.968 9.24 196.568 9.872 196.328 10.656V18H193.112V5.424H196.016V7.752C196.496 6.936 197.136 6.312 197.936 5.88C198.736 5.432 199.656 5.208 200.696 5.208C201.736 5.208 202.544 5.464 203.12 5.976C203.712 6.488 204.088 7.12 204.248 7.872C204.76 7.008 205.408 6.352 206.192 5.904C206.992 5.44 207.888 5.208 208.88 5.208C209.664 5.208 210.296 5.352 210.776 5.64C211.272 5.912 211.656 6.288 211.928 6.768C212.2 7.232 212.384 7.76 212.48 8.352C212.592 8.944 212.648 9.544 212.648 10.152V18ZM215.448 18V5.424H218.664V18H215.448ZM218.112 3.96L216.048 3.336L217.344 0.48H220.344L218.112 3.96ZM229.054 8.208C228.078 8.208 227.206 8.4 226.438 8.784C225.67 9.152 225.118 9.688 224.782 10.392V18H221.566V5.424H224.518V8.112C224.966 7.248 225.534 6.568 226.222 6.072C226.91 5.576 227.638 5.304 228.406 5.256C228.582 5.256 228.718 5.256 228.814 5.256C228.91 5.256 228.99 5.264 229.054 5.28V8.208ZM236.515 18.24C235.507 18.24 234.595 18.072 233.779 17.736C232.963 17.384 232.267 16.912 231.691 16.32C231.115 15.712 230.667 15.024 230.347 14.256C230.043 13.472 229.891 12.648 229.891 11.784C229.891 10.584 230.155 9.488 230.683 8.496C231.227 7.504 231.995 6.712 232.987 6.12C233.995 5.512 235.179 5.208 236.539 5.208C237.915 5.208 239.091 5.512 240.067 6.12C241.043 6.712 241.787 7.504 242.299 8.496C242.827 9.472 243.091 10.528 243.091 11.664C243.091 11.856 243.083 12.056 243.067 12.264C243.051 12.456 243.035 12.616 243.019 12.744H233.299C233.363 13.384 233.547 13.944 233.851 14.424C234.171 14.904 234.571 15.272 235.051 15.528C235.547 15.768 236.075 15.888 236.635 15.888C237.275 15.888 237.875 15.736 238.435 15.432C239.011 15.112 239.403 14.696 239.611 14.184L242.371 14.952C242.067 15.592 241.627 16.16 241.051 16.656C240.491 17.152 239.827 17.544 239.059 17.832C238.291 18.104 237.443 18.24 236.515 18.24ZM233.227 10.704H239.803C239.739 10.064 239.555 9.512 239.251 9.048C238.963 8.568 238.579 8.2 238.099 7.944C237.619 7.672 237.083 7.536 236.491 7.536C235.915 7.536 235.387 7.672 234.907 7.944C234.443 8.2 234.059 8.568 233.755 9.048C233.467 9.512 233.291 10.064 233.227 10.704ZM244.069 16.032L251.005 7.68H244.357V5.424H254.461V7.392L247.573 15.744H254.581V18H244.069V16.032Z" fill="white"/>
</svg>
