<svg width="33" height="20" viewBox="0 0 33 20" fill="none" xmlns="http://www.w3.org/2000/svg">
<path fill-rule="evenodd" clip-rule="evenodd" d="M21.847 0.0497565L21.7932 0.0999195L21.7869 2.56238C21.7816 4.57939 21.7774 5.03023 21.7635 5.05466C21.7541 5.07106 21.7268 5.09268 21.7028 5.10272C21.6448 5.12695 21.6526 5.13058 21.1928 4.86452C20.9822 4.74266 20.7812 4.63281 20.7461 4.62041C20.6693 4.59329 20.5849 4.59101 20.5086 4.61401C20.4204 4.64062 17.2823 6.45496 17.2189 6.516C17.1895 6.54437 17.1521 6.59687 17.1359 6.63268L17.1064 6.69779V8.59423V10.4907L17.141 10.5611C17.16 10.5998 17.1945 10.6497 17.2176 10.672C17.2708 10.7233 20.4326 12.5507 20.5086 12.5741C20.5848 12.5976 20.6692 12.5953 20.7461 12.5677C20.8364 12.5352 23.9681 10.7216 24.0191 10.6722C24.0422 10.6498 24.0767 10.5998 24.0957 10.5611L24.1303 10.4907V5.89324V1.29581L24.0942 1.22227C24.0743 1.18182 24.0369 1.13107 24.0112 1.10949C23.9854 1.08792 23.5332 0.829557 23.0065 0.53536C22.056 0.00457391 22.0481 0.000461788 21.9747 2.75859e-05C21.9061 -0.000381075 21.897 0.00318193 21.847 0.0497565ZM3.35244 4.53769C3.31733 4.55408 2.58174 4.97372 1.7178 5.4702C0.45462 6.19614 0.136631 6.38407 0.0939902 6.42985C-0.00793229 6.53929 0.000151524 6.31049 0.000151524 9.08735C0.000151524 10.8091 0.00430198 11.5791 0.0137395 11.6041C0.0458576 11.6891 0.140373 11.7459 0.223714 11.7303C0.269076 11.7217 2.13243 10.6616 2.20947 10.6005C2.23406 10.581 2.27428 10.5259 2.29887 10.4781L2.34356 10.3911L2.34995 9.16383L2.35633 7.93655L2.38493 7.87853C2.40066 7.84661 2.43227 7.80253 2.45517 7.78057C2.50797 7.72992 3.33297 7.2551 3.40991 7.23107C3.48506 7.20761 3.59446 7.21716 3.66548 7.25339C3.84466 7.34481 4.52211 7.74723 4.56167 7.78576C4.58758 7.811 4.62206 7.86099 4.63829 7.89687L4.66782 7.96209L4.67421 9.18807L4.68059 10.414L4.70954 10.4728C4.72545 10.5051 4.75918 10.5522 4.78448 10.5775C4.81261 10.6057 5.20516 10.8379 5.79544 11.1757C6.68637 11.6856 6.76495 11.728 6.81967 11.728C6.85852 11.728 6.89468 11.7182 6.92457 11.6998C7.01561 11.6435 7.00833 11.8575 7.01321 9.09229L7.01762 6.59563L6.98162 6.52233C6.96182 6.48201 6.9216 6.42836 6.89222 6.4031C6.83234 6.35159 3.71244 4.55299 3.63498 4.52532C3.55605 4.49711 3.42729 4.50275 3.35244 4.53769ZM29.0903 4.56087C29.0212 4.5793 25.85 6.41288 25.7926 6.46764C25.7656 6.4933 25.7311 6.54121 25.7159 6.57412L25.6883 6.63394V8.54315V10.4524L25.7157 10.5117C25.7308 10.5444 25.7656 10.5932 25.793 10.6203C25.8261 10.653 26.3687 10.969 27.4122 11.5634C28.2753 12.0551 29.0048 12.4671 29.0334 12.479C29.1021 12.5076 29.2412 12.5084 29.3107 12.4806C29.3615 12.4603 31.193 11.4468 31.2648 11.3993C31.3409 11.3489 31.3623 11.2024 31.3049 11.1255C31.2892 11.1045 30.6705 10.7419 29.6664 10.1654C28.2315 9.34153 28.0506 9.23423 28.0297 9.19466C28.0078 9.15323 28.0062 9.10778 28.0062 8.53566V7.92117L28.0349 7.87919C28.0557 7.84889 28.1435 7.79119 28.351 7.67149C29.1865 7.18958 29.1192 7.2255 29.1749 7.23135C29.2128 7.23534 29.3577 7.31258 29.7304 7.52749C30.2276 7.81416 30.28 7.84776 30.3093 7.89823C30.3195 7.91588 30.326 8.08151 30.3304 8.4346C30.3365 8.92024 30.3381 8.9471 30.3624 8.97932C30.4103 9.04297 30.4881 9.0717 30.5653 9.05428C30.6185 9.0423 32.4974 7.95319 32.5658 7.89471C32.5928 7.87171 32.631 7.81999 32.6507 7.77977L32.6866 7.70667V7.17669V6.64671L32.6561 6.5793C32.638 6.53925 32.601 6.48998 32.565 6.45797C32.4932 6.39415 29.4101 4.60216 29.3152 4.56904C29.2454 4.54473 29.1622 4.5417 29.0903 4.56087ZM11.9279 4.59026C11.8582 4.61674 8.74763 6.41635 8.69351 6.46154C8.66702 6.48364 8.62967 6.53148 8.6105 6.56784L8.57564 6.63394L8.57228 8.51988L8.56892 10.4058L8.59661 10.4798C8.61543 10.5301 8.64305 10.5715 8.68297 10.6091C8.72278 10.6466 9.24008 10.9518 10.2911 11.5579C11.1433 12.0494 11.8645 12.4638 11.8938 12.4788C11.9605 12.513 12.1079 12.5248 12.1784 12.5016C12.2521 12.4774 15.4012 10.6556 15.4483 10.6099C15.4706 10.5884 15.5037 10.5375 15.5219 10.4968L15.5551 10.4229L15.5518 8.52841L15.5484 6.63394L15.5144 6.57009C15.4957 6.53497 15.4613 6.48822 15.4378 6.46619C15.3912 6.42238 12.2551 4.61008 12.1846 4.58619C12.1272 4.56672 11.9839 4.56899 11.9279 4.59026ZM21.1833 7.58045C21.4837 7.75335 21.7394 7.90628 21.7517 7.92029C21.7724 7.94382 21.7741 7.99482 21.7741 8.59342V9.24108L21.7454 9.26787C21.7141 9.29702 20.6576 9.90976 20.6223 9.91919C20.5991 9.92541 19.4927 9.29409 19.4662 9.25946C19.4428 9.22896 19.4431 7.95708 19.4664 7.92512C19.4904 7.89237 20.5745 7.26748 20.6087 7.26673C20.6244 7.26637 20.883 7.40755 21.1833 7.58045ZM28.8437 7.93598C28.6687 8.03763 28.5208 8.12818 28.515 8.13721C28.497 8.16572 28.5018 8.89262 28.5202 8.91676C28.529 8.92826 28.6769 9.0189 28.8489 9.11815C29.0781 9.25048 29.1703 9.29736 29.1942 9.29383C29.2492 9.28578 29.8421 8.93663 29.8573 8.90342C29.8774 8.85931 29.8749 8.18831 29.8545 8.14798C29.8373 8.11398 29.2511 7.7669 29.1938 7.75681C29.17 7.75261 29.0815 7.79787 28.8437 7.93598ZM15.9924 11.9726C15.9556 11.9825 15.8966 12.0052 15.8613 12.0232C15.826 12.041 15.1291 12.441 14.3127 12.9119C13.3165 13.4865 12.8099 13.7857 12.7725 13.8215C12.6987 13.8921 12.6378 13.9877 12.6055 14.0835C12.5795 14.1607 12.5792 14.1785 12.5792 15.982C12.5792 17.7856 12.5795 17.8034 12.6055 17.8806C12.6377 17.9762 12.6985 18.0717 12.7725 18.1429C12.8244 18.1929 13.4826 18.5843 13.6963 18.6923C13.9185 18.8046 14.1301 18.8618 14.3232 18.8618C14.713 18.8618 14.9875 18.7112 15.1262 18.4212C15.2226 18.2198 15.2155 18.3769 15.2196 16.3495C15.2233 14.5408 15.2232 14.5331 15.1975 14.5073C15.1735 14.4833 15.1555 14.4815 14.9438 14.4815C14.7405 14.4815 14.7136 14.484 14.6951 14.5045C14.6761 14.5255 14.6739 14.68 14.6707 16.2701L14.6672 18.0126L14.6314 18.0856C14.537 18.2777 14.3252 18.3511 14.0921 18.2723C13.9689 18.2307 13.1476 17.7559 13.1293 17.7157C13.1101 17.6736 13.1101 14.2905 13.1292 14.2485C13.1389 14.2271 13.5683 13.9729 14.624 13.3635C15.4386 12.8932 16.1183 12.5033 16.1345 12.4971C16.1597 12.4873 16.38 12.6103 17.6653 13.3515C18.7544 13.9797 19.1704 14.2257 19.1805 14.2479C19.2004 14.2914 19.2001 17.6732 19.1803 17.7167C19.1611 17.7589 16.1797 19.4809 16.1427 19.4712C16.129 19.4677 15.9425 19.3607 15.7284 19.2335C15.5142 19.1063 15.3267 19.0023 15.3116 19.0023C15.2965 19.0023 15.2344 19.0294 15.1736 19.0626C15.1129 19.0958 14.9999 19.147 14.9226 19.1765C14.7611 19.2382 14.7423 19.2558 14.7887 19.3015C14.8295 19.3416 15.8194 19.9289 15.9124 19.9681C15.9737 19.994 16.0039 19.9979 16.1502 19.9981C16.2644 19.9983 16.3345 19.9925 16.3701 19.98C16.3988 19.9698 17.1078 19.5661 17.9457 19.0828C19.6123 18.1215 19.5793 18.1427 19.659 17.979C19.7341 17.8246 19.7305 17.9253 19.7306 15.9923C19.7307 14.7432 19.7266 14.1945 19.7167 14.1469C19.6927 14.0317 19.6329 13.9233 19.5464 13.8381C19.4759 13.7686 19.3066 13.6673 18.0071 12.9171C17.2041 12.4535 16.5106 12.0555 16.466 12.0326C16.314 11.9544 16.1411 11.9325 15.9924 11.9726ZM20.5864 13.5477C20.3936 13.6096 20.2661 13.7336 20.203 13.9203C20.1801 13.9881 20.176 14.0242 20.18 14.1254C20.1844 14.2357 20.1896 14.2576 20.2316 14.3426C20.2844 14.4494 20.378 14.5507 20.4705 14.601C20.8209 14.7918 21.2513 14.5789 21.317 14.1824C21.354 13.9587 21.2364 13.716 21.0332 13.5969C20.9106 13.5251 20.7215 13.5042 20.5864 13.5477ZM20.9475 13.6756C21.2364 13.8135 21.306 14.1779 21.0892 14.4178C21.0337 14.4793 20.892 14.5523 20.8053 14.5643C20.7278 14.5749 20.6143 14.5534 20.5353 14.513C20.4018 14.4447 20.2954 14.2833 20.2831 14.1304C20.2746 14.0242 20.2973 13.9362 20.3572 13.8436C20.4858 13.6445 20.7342 13.5738 20.9475 13.6756ZM20.5353 14.0902V14.4176H20.5992H20.663V14.2899V14.1622L20.7109 14.1624C20.8178 14.1628 20.8288 14.1775 20.848 14.3442L20.8564 14.4176H20.9329C20.9824 14.4176 21.0065 14.413 21.0012 14.4044C20.9943 14.3932 20.957 14.1873 20.9568 14.1595C20.9568 14.1545 20.9446 14.1391 20.9296 14.1252L20.9025 14.0999L20.9383 14.0691C20.9684 14.0432 20.9748 14.0266 20.9787 13.963C20.988 13.8135 20.9386 13.779 20.7008 13.7694L20.5353 13.7627V14.0902ZM20.8219 13.9062C20.8481 13.9279 20.8474 13.9945 20.8207 14.0239C20.8052 14.041 20.7812 14.0473 20.7313 14.0473H20.663V13.9627V13.8781L20.7325 13.8839C20.7707 13.8871 20.8109 13.8971 20.8219 13.9062ZM16.6531 14.4056C16.4046 14.4363 16.1807 14.5047 16.0228 14.5979C15.9726 14.6275 15.8878 14.6954 15.8344 14.7486C15.7576 14.8252 15.7264 14.8682 15.6856 14.954C15.6572 15.0137 15.6264 15.0942 15.617 15.1328C15.5924 15.2346 15.5962 15.4898 15.6239 15.5925C15.7243 15.9645 16.0533 16.1541 16.7425 16.2372C17.3999 16.3165 17.5001 16.3331 17.6767 16.3916C17.8829 16.4598 17.951 16.5416 17.9401 16.7078C17.9261 16.9218 17.7969 17.0406 17.5095 17.1038C17.4022 17.1275 17.3463 17.1307 17.049 17.1305C16.7496 17.1303 16.6958 17.1271 16.5828 17.1025C16.2733 17.0351 16.1317 16.9004 16.0717 16.6161C16.0438 16.4843 16.0488 16.4865 15.7783 16.4865C15.485 16.4865 15.497 16.4781 15.5071 16.6747C15.5203 16.9308 15.598 17.1059 15.7788 17.2867C15.8834 17.3914 15.9111 17.4112 16.0413 17.4746C16.2747 17.5882 16.4741 17.6361 16.8255 17.6627C17.2397 17.694 17.6395 17.6467 17.9209 17.5329C18.1574 17.4372 18.3478 17.2732 18.4389 17.0867C18.5161 16.9287 18.5354 16.8413 18.535 16.6525C18.5345 16.3871 18.4829 16.2447 18.3335 16.0967C18.137 15.902 17.8714 15.8189 17.0873 15.7071C16.3355 15.5999 16.1933 15.5405 16.1933 15.3335C16.1933 15.1426 16.3121 15.0225 16.5637 14.959C16.6967 14.9254 17.2225 14.9244 17.367 14.9574C17.4918 14.9859 17.6086 15.0418 17.6788 15.1065C17.7445 15.1671 17.8171 15.2976 17.8451 15.4054C17.8776 15.5307 17.8729 15.5287 18.137 15.5287C18.3638 15.5287 18.3657 15.5284 18.3975 15.4967C18.4271 15.4671 18.4288 15.4589 18.4208 15.385C18.3616 14.8382 18.0287 14.5208 17.4124 14.4232C17.2612 14.3993 16.7919 14.3884 16.6531 14.4056Z" fill="white"/>
<path fill-rule="evenodd" clip-rule="evenodd" d="M21.847 0.0497565L21.7932 0.0999195L21.7869 2.56238C21.7816 4.57939 21.7774 5.03023 21.7635 5.05466C21.7541 5.07106 21.7268 5.09268 21.7028 5.10272C21.6448 5.12695 21.6526 5.13058 21.1928 4.86452C20.9822 4.74266 20.7812 4.63281 20.7461 4.62041C20.6693 4.59329 20.5849 4.59101 20.5086 4.61401C20.4204 4.64062 17.2823 6.45496 17.2189 6.516C17.1895 6.54437 17.1521 6.59687 17.1359 6.63268L17.1064 6.69779V8.59423V10.4907L17.141 10.5611C17.16 10.5998 17.1945 10.6497 17.2176 10.672C17.2708 10.7233 20.4326 12.5507 20.5086 12.5741C20.5848 12.5976 20.6692 12.5953 20.7461 12.5677C20.8364 12.5352 23.9681 10.7216 24.0191 10.6722C24.0422 10.6498 24.0767 10.5998 24.0957 10.5611L24.1303 10.4907V5.89324V1.29581L24.0942 1.22227C24.0743 1.18182 24.0369 1.13107 24.0112 1.10949C23.9854 1.08792 23.5332 0.829557 23.0065 0.53536C22.056 0.00457391 22.0481 0.000461788 21.9747 2.75859e-05C21.9061 -0.000381075 21.897 0.00318193 21.847 0.0497565ZM3.35244 4.53769C3.31733 4.55408 2.58174 4.97372 1.7178 5.4702C0.45462 6.19614 0.136631 6.38407 0.0939902 6.42985C-0.00793229 6.53929 0.000151524 6.31049 0.000151524 9.08735C0.000151524 10.8091 0.00430198 11.5791 0.0137395 11.6041C0.0458576 11.6891 0.140373 11.7459 0.223714 11.7303C0.269076 11.7217 2.13243 10.6616 2.20947 10.6005C2.23406 10.581 2.27428 10.5259 2.29887 10.4781L2.34356 10.3911L2.34995 9.16383L2.35633 7.93655L2.38493 7.87853C2.40066 7.84661 2.43227 7.80253 2.45517 7.78057C2.50797 7.72992 3.33297 7.2551 3.40991 7.23107C3.48506 7.20761 3.59446 7.21716 3.66548 7.25339C3.84466 7.34481 4.52211 7.74723 4.56167 7.78576C4.58758 7.811 4.62206 7.86099 4.63829 7.89687L4.66782 7.96209L4.67421 9.18807L4.68059 10.414L4.70954 10.4728C4.72545 10.5051 4.75918 10.5522 4.78448 10.5775C4.81261 10.6057 5.20516 10.8379 5.79544 11.1757C6.68637 11.6856 6.76495 11.728 6.81967 11.728C6.85852 11.728 6.89468 11.7182 6.92457 11.6998C7.01561 11.6435 7.00833 11.8575 7.01321 9.09229L7.01762 6.59563L6.98162 6.52233C6.96182 6.48201 6.9216 6.42836 6.89222 6.4031C6.83234 6.35159 3.71244 4.55299 3.63498 4.52532C3.55605 4.49711 3.42729 4.50275 3.35244 4.53769ZM29.0903 4.56087C29.0212 4.5793 25.85 6.41288 25.7926 6.46764C25.7656 6.4933 25.7311 6.54121 25.7159 6.57412L25.6883 6.63394V8.54315V10.4524L25.7157 10.5117C25.7308 10.5444 25.7656 10.5932 25.793 10.6203C25.8261 10.653 26.3687 10.969 27.4122 11.5634C28.2753 12.0551 29.0048 12.4671 29.0334 12.479C29.1021 12.5076 29.2412 12.5084 29.3107 12.4806C29.3615 12.4603 31.193 11.4468 31.2648 11.3993C31.3409 11.3489 31.3623 11.2024 31.3049 11.1255C31.2892 11.1045 30.6705 10.7419 29.6664 10.1654C28.2315 9.34153 28.0506 9.23423 28.0297 9.19466C28.0078 9.15323 28.0062 9.10778 28.0062 8.53566V7.92117L28.0349 7.87919C28.0557 7.84889 28.1435 7.79119 28.351 7.67149C29.1865 7.18958 29.1192 7.2255 29.1749 7.23135C29.2128 7.23534 29.3577 7.31258 29.7304 7.52749C30.2276 7.81416 30.28 7.84776 30.3093 7.89823C30.3195 7.91588 30.326 8.08151 30.3304 8.4346C30.3365 8.92024 30.3381 8.9471 30.3624 8.97932C30.4103 9.04297 30.4881 9.0717 30.5653 9.05428C30.6185 9.0423 32.4974 7.95319 32.5658 7.89471C32.5928 7.87171 32.631 7.81999 32.6507 7.77977L32.6866 7.70667V7.17669V6.64671L32.6561 6.5793C32.638 6.53925 32.601 6.48998 32.565 6.45797C32.4932 6.39415 29.4101 4.60216 29.3152 4.56904C29.2454 4.54473 29.1622 4.5417 29.0903 4.56087ZM11.9279 4.59033C11.8609 4.6159 8.74874 6.41567 8.69678 6.45889C8.67209 6.47943 8.63474 6.52722 8.61377 6.56508L8.57564 6.63394L8.57228 8.51988L8.56892 10.4058L8.5963 10.479C8.61321 10.5242 8.64393 10.5721 8.6767 10.6044C8.7132 10.6404 9.22283 10.9411 10.3104 11.5683C11.1797 12.0698 11.9122 12.4876 11.9382 12.4969C11.9975 12.518 12.1275 12.5196 12.1846 12.4998C12.2511 12.4767 15.4029 10.6536 15.4438 10.6145C15.4635 10.5957 15.4966 10.5458 15.5174 10.5036L15.5551 10.4268L15.5518 8.53038L15.5484 6.63394L15.5138 6.56832C15.4948 6.53224 15.4564 6.48339 15.4286 6.45977C15.373 6.41263 12.2912 4.62945 12.2049 4.59452C12.1401 4.56829 11.9916 4.56604 11.9279 4.59033ZM21.1833 7.58045C21.4837 7.75335 21.7394 7.90628 21.7517 7.92029C21.7724 7.94382 21.7741 7.99482 21.7741 8.59342V9.24108L21.7454 9.26787C21.7141 9.29702 20.6576 9.90976 20.6223 9.91919C20.5991 9.92541 19.4927 9.29409 19.4662 9.25946C19.4428 9.22896 19.4431 7.95708 19.4664 7.92512C19.4904 7.89237 20.5745 7.26748 20.6087 7.26673C20.6244 7.26637 20.883 7.40755 21.1833 7.58045ZM28.8432 7.93741C28.6679 8.03913 28.52 8.12941 28.5146 8.138C28.5091 8.14661 28.5045 8.32064 28.5044 8.52475C28.5043 8.80218 28.5083 8.90114 28.5202 8.91683C28.529 8.92836 28.6769 9.01883 28.849 9.11787C29.0713 9.24578 29.1712 9.29666 29.1938 9.29357C29.2114 9.29117 29.365 9.20897 29.5351 9.11093C29.7923 8.96271 29.8467 8.92641 29.8576 8.89563C29.8775 8.83937 29.8745 8.18758 29.8542 8.1474C29.8432 8.12572 29.7373 8.05782 29.5206 7.93349C29.346 7.83333 29.1938 7.75161 29.1825 7.75192C29.1712 7.75221 29.0185 7.83568 28.8432 7.93741ZM15.9924 11.9718C15.9556 11.9821 15.8981 12.0045 15.8647 12.0215C15.8312 12.0385 15.1401 12.4349 14.3288 12.9025C13.1839 13.5623 12.836 13.7686 12.7742 13.8241C12.7121 13.8799 12.6826 13.9198 12.6401 14.0056L12.5856 14.1156V15.982V17.8485L12.6392 17.9567C12.7235 18.1267 12.774 18.1667 13.2497 18.44C13.7949 18.7532 13.9382 18.8176 14.162 18.8499C14.2893 18.8683 14.5045 18.8588 14.6161 18.8298C14.7222 18.8023 14.8589 18.735 14.9382 18.6713C15.069 18.5661 15.1759 18.3593 15.2095 18.1467C15.2179 18.0929 15.2226 17.4412 15.2227 16.2981C15.2228 14.5495 15.2225 14.5323 15.1972 14.507C15.1736 14.4834 15.1546 14.4815 14.9438 14.4815C14.7405 14.4815 14.7136 14.484 14.6951 14.5045C14.6761 14.5255 14.6739 14.68 14.6707 16.2701L14.6672 18.0126L14.6314 18.0856C14.5371 18.2776 14.3254 18.351 14.0921 18.2724C13.9685 18.2308 13.1478 17.7564 13.1294 17.7159C13.11 17.6734 13.11 14.2907 13.1293 14.2482C13.1392 14.2266 13.5661 13.9741 14.6413 13.3537C15.4654 12.8783 16.1467 12.4893 16.1554 12.4893C16.1641 12.4893 16.8452 12.8781 17.6689 13.3533C18.7558 13.9803 19.1704 14.2257 19.1805 14.2478C19.2 14.2905 19.2002 17.6731 19.1807 17.7158C19.1732 17.7323 19.1574 17.7517 19.1456 17.759C18.9793 17.8618 16.1811 19.4679 16.1621 19.4715C16.145 19.4747 15.9964 19.3935 15.7371 19.2394C15.5178 19.109 15.3262 19.0023 15.3113 19.0023C15.2964 19.0023 15.2344 19.0294 15.1736 19.0626C15.1129 19.0958 14.9999 19.147 14.9226 19.1765C14.7612 19.2382 14.7422 19.2558 14.7887 19.3013C14.8308 19.3425 15.8505 19.9453 15.9285 19.9752C16.0123 20.0072 16.2947 20.0085 16.375 19.9771C16.405 19.9654 17.1134 19.5617 17.9493 19.08C19.3249 18.2872 19.4765 18.1967 19.5476 18.1254C19.6333 18.0396 19.693 17.9309 19.7167 17.8172C19.7366 17.7218 19.7366 14.2423 19.7167 14.1469C19.6927 14.0319 19.6329 13.9233 19.5474 13.8393C19.4782 13.7714 19.2915 13.6599 17.9567 12.8897C17.1249 12.4097 16.4123 12.0047 16.3731 11.9897C16.28 11.9542 16.0874 11.9451 15.9924 11.9718ZM20.6005 13.5439C20.4354 13.5883 20.3055 13.6974 20.2303 13.8549C20.1856 13.9486 20.1841 13.956 20.1841 14.0984C20.1841 14.2373 20.1864 14.25 20.2252 14.3319C20.3096 14.5102 20.4734 14.6344 20.6624 14.6637C21.0414 14.7223 21.3786 14.3865 21.3166 14.0122C21.26 13.6706 20.9306 13.4552 20.6005 13.5439ZM20.9371 13.6687C21.3458 13.8558 21.2912 14.4409 20.8546 14.5527C20.4526 14.6557 20.1246 14.179 20.3607 13.8349C20.4882 13.649 20.7373 13.5772 20.9371 13.6687ZM20.5353 14.0902V14.4176H20.5992H20.663V14.2899V14.1622L20.7109 14.1624C20.8178 14.1628 20.8288 14.1775 20.848 14.3442L20.8564 14.4176H20.9315H21.0065L20.9951 14.3825C20.9889 14.3632 20.9774 14.3044 20.9697 14.2518C20.9598 14.1847 20.9473 14.1474 20.9275 14.1264C20.9014 14.0986 20.901 14.0956 20.9217 14.084C20.976 14.0537 21.001 13.9254 20.9661 13.8564C20.9348 13.7945 20.8806 13.7767 20.7008 13.7694L20.5353 13.7627V14.0902ZM20.8219 13.9062C20.8481 13.9279 20.8474 13.9945 20.8207 14.0239C20.8052 14.041 20.7812 14.0473 20.7313 14.0473H20.663V13.9627V13.8781L20.7325 13.8839C20.7707 13.8871 20.8109 13.8971 20.8219 13.9062ZM16.7041 14.3998C16.2749 14.4506 15.9981 14.5657 15.8102 14.7713C15.7264 14.863 15.678 14.9473 15.6358 15.0753C15.6065 15.1641 15.602 15.1992 15.6016 15.3435C15.6013 15.4638 15.6074 15.5324 15.6237 15.5925C15.7252 15.9652 16.0518 16.1534 16.7425 16.2371C17.2508 16.2987 17.3465 16.3118 17.4576 16.3344C17.6231 16.3682 17.7626 16.416 17.8348 16.4639C17.9089 16.513 17.9422 16.5795 17.9426 16.6789C17.9435 16.9018 17.8108 17.0352 17.5215 17.1021C17.4127 17.1273 17.3646 17.1302 17.0553 17.1305C16.7494 17.1307 16.6965 17.1277 16.5861 17.1034C16.2702 17.0339 16.1323 16.9032 16.0717 16.6161C16.0438 16.4843 16.0488 16.4865 15.7783 16.4865C15.485 16.4865 15.497 16.4781 15.5071 16.6747C15.5202 16.9306 15.5983 17.1067 15.7775 17.2847C15.8689 17.3754 15.9174 17.4121 16.0081 17.4589C16.2384 17.5778 16.4763 17.6371 16.8255 17.6625C17.3283 17.6992 17.7787 17.6251 18.0784 17.4564C18.2275 17.3723 18.3707 17.2255 18.4388 17.0866C18.516 16.929 18.5354 16.8415 18.535 16.6525C18.5345 16.3917 18.4826 16.2453 18.3397 16.1024C18.2351 15.9977 18.1303 15.9387 17.9347 15.8745C17.7461 15.8126 17.5558 15.7751 17.0873 15.7079C16.6326 15.6426 16.4572 15.6048 16.3358 15.546C16.2553 15.507 16.2386 15.4931 16.2179 15.4476C16.2047 15.4184 16.1938 15.3655 16.1936 15.3298C16.1928 15.1427 16.3081 15.0251 16.5573 14.9588C16.6829 14.9254 17.2236 14.9244 17.367 14.9573C17.4919 14.986 17.6086 15.0418 17.6788 15.1065C17.745 15.1675 17.8172 15.2979 17.8456 15.4074C17.8764 15.5269 17.881 15.5287 18.1428 15.5287C18.3639 15.5287 18.3657 15.5285 18.3977 15.4965C18.4272 15.467 18.4292 15.458 18.4216 15.3911C18.4054 15.2493 18.3629 15.0995 18.3047 14.9796C18.2561 14.8793 18.228 14.8403 18.1423 14.755C17.9581 14.5715 17.7279 14.4695 17.381 14.4178C17.2838 14.4033 16.786 14.3901 16.7041 14.3998Z" fill="white"/>
<path fill-rule="evenodd" clip-rule="evenodd" d="M21.847 0.0497565L21.7932 0.0999195L21.7869 2.56238C21.7816 4.57939 21.7774 5.03023 21.7635 5.05466C21.7541 5.07106 21.7268 5.09268 21.7028 5.10272C21.6448 5.12695 21.6526 5.13058 21.1928 4.86452C20.9822 4.74266 20.7812 4.63281 20.7461 4.62041C20.6693 4.59329 20.5849 4.59101 20.5086 4.61401C20.4204 4.64062 17.2823 6.45496 17.2189 6.516C17.1895 6.54437 17.1521 6.59687 17.1359 6.63268L17.1064 6.69779V8.59423V10.4907L17.141 10.5611C17.16 10.5998 17.1945 10.6497 17.2176 10.672C17.2708 10.7233 20.4326 12.5507 20.5086 12.5741C20.5848 12.5976 20.6692 12.5953 20.7461 12.5677C20.8364 12.5352 23.9681 10.7216 24.0191 10.6722C24.0422 10.6498 24.0767 10.5998 24.0957 10.5611L24.1303 10.4907V5.89324V1.29581L24.0942 1.22227C24.0743 1.18182 24.0369 1.13107 24.0112 1.10949C23.9854 1.08792 23.5332 0.829557 23.0065 0.53536C22.056 0.00457391 22.0481 0.000461788 21.9747 2.75859e-05C21.9061 -0.000381075 21.897 0.00318193 21.847 0.0497565ZM3.35244 4.53769C3.31733 4.55408 2.58174 4.97372 1.7178 5.4702C0.45462 6.19614 0.136631 6.38407 0.0939902 6.42985C-0.00793229 6.53929 0.000151524 6.31049 0.000151524 9.08735C0.000151524 10.8091 0.00430198 11.5791 0.0137395 11.6041C0.0458576 11.6891 0.140373 11.7459 0.223714 11.7303C0.269076 11.7217 2.13243 10.6616 2.20947 10.6005C2.23406 10.581 2.27428 10.5259 2.29887 10.4781L2.34356 10.3911L2.34995 9.16383L2.35633 7.93655L2.38493 7.87853C2.40066 7.84661 2.43227 7.80253 2.45517 7.78057C2.50797 7.72992 3.33297 7.2551 3.40991 7.23107C3.48506 7.20761 3.59446 7.21716 3.66548 7.25339C3.84466 7.34481 4.52211 7.74723 4.56167 7.78576C4.58758 7.811 4.62206 7.86099 4.63829 7.89687L4.66782 7.96209L4.67421 9.18807L4.68059 10.414L4.70954 10.4728C4.72545 10.5051 4.75918 10.5522 4.78448 10.5775C4.81261 10.6057 5.20516 10.8379 5.79544 11.1757C6.68637 11.6856 6.76495 11.728 6.81967 11.728C6.85852 11.728 6.89468 11.7182 6.92457 11.6998C7.01561 11.6435 7.00833 11.8575 7.01321 9.09229L7.01762 6.59563L6.98162 6.52233C6.96182 6.48201 6.9216 6.42836 6.89222 6.4031C6.83234 6.35159 3.71244 4.55299 3.63498 4.52532C3.55605 4.49711 3.42729 4.50275 3.35244 4.53769ZM29.0903 4.56087C29.0212 4.5793 25.85 6.41288 25.7926 6.46764C25.7656 6.4933 25.7311 6.54121 25.7159 6.57412L25.6883 6.63394V8.54315V10.4524L25.7157 10.5117C25.7308 10.5444 25.7656 10.5932 25.793 10.6203C25.8261 10.653 26.3687 10.969 27.4122 11.5634C28.2753 12.0551 29.0048 12.4671 29.0334 12.479C29.1021 12.5076 29.2412 12.5084 29.3107 12.4806C29.3615 12.4603 31.193 11.4468 31.2648 11.3993C31.3409 11.3489 31.3623 11.2024 31.3049 11.1255C31.2892 11.1045 30.6705 10.7419 29.6664 10.1654C28.2315 9.34153 28.0506 9.23423 28.0297 9.19466C28.0078 9.15323 28.0062 9.10778 28.0062 8.53566V7.92117L28.0349 7.87919C28.0557 7.84889 28.1435 7.79119 28.351 7.67149C29.1865 7.18958 29.1192 7.2255 29.1749 7.23135C29.2128 7.23534 29.3577 7.31258 29.7304 7.52749C30.2276 7.81416 30.28 7.84776 30.3093 7.89823C30.3195 7.91588 30.326 8.08151 30.3304 8.4346C30.3365 8.92024 30.3381 8.9471 30.3624 8.97932C30.4103 9.04297 30.4881 9.0717 30.5653 9.05428C30.6185 9.0423 32.4974 7.95319 32.5658 7.89471C32.5928 7.87171 32.631 7.81999 32.6507 7.77977L32.6866 7.70667V7.17669V6.64671L32.6561 6.5793C32.638 6.53925 32.601 6.48998 32.565 6.45797C32.4932 6.39415 29.4101 4.60216 29.3152 4.56904C29.2454 4.54473 29.1622 4.5417 29.0903 4.56087ZM12.2344 4.61481C12.2344 4.61757 12.2433 4.62325 12.2542 4.62744C12.2656 4.6318 12.2707 4.62965 12.2663 4.62242C12.2588 4.61028 12.2344 4.60447 12.2344 4.61481ZM12.3749 4.69215C12.3749 4.69566 12.3921 4.70745 12.4132 4.71834C12.4343 4.72924 12.4515 4.73528 12.4515 4.73177C12.4515 4.72825 12.4343 4.71647 12.4132 4.70557C12.3921 4.69468 12.3749 4.68864 12.3749 4.69215ZM8.7144 6.44229C8.66642 6.48012 8.5964 6.5858 8.58601 6.63607C8.56334 6.7457 8.55121 6.73393 8.82147 6.86448C8.95667 6.9298 9.06731 6.98013 9.06731 6.97633C9.06731 6.96434 8.7675 6.4114 8.76081 6.41107C8.7573 6.41089 8.73642 6.42494 8.7144 6.44229ZM15.4237 6.53921C15.4058 6.57024 15.1745 6.99216 14.9096 7.4768C14.6448 7.96145 14.4191 8.37339 14.4081 8.39223L14.3882 8.42648L14.2827 8.25175C14.2246 8.15565 14.1714 8.0684 14.1643 8.05787C14.1557 8.04501 14.1513 8.58402 14.1508 9.69707C14.1501 11.2716 14.1511 11.355 14.1724 11.3462C14.1847 11.3411 14.2017 11.3366 14.2101 11.3363C14.2186 11.3359 14.2226 11.3309 14.2189 11.325C14.2153 11.3192 14.2171 11.3144 14.223 11.3144C14.2336 11.3144 14.4482 11.2024 14.5331 11.1525C14.5577 11.138 14.6956 11.0586 14.8396 10.976C15.4726 10.6127 15.4457 10.6304 15.4991 10.5396C15.5634 10.4304 15.5627 10.4247 15.4645 10.2555C15.4158 10.1717 15.376 10.1 15.376 10.0963C15.376 10.0925 15.4119 10.1065 15.4558 10.1273L15.5356 10.1651L15.5453 10.0533C15.5506 9.99184 15.5535 9.19733 15.5517 8.28774L15.5484 6.63394L15.5207 6.58286C15.5054 6.55476 15.4847 6.52075 15.4746 6.50728C15.4572 6.48405 15.4545 6.48569 15.4237 6.53921ZM21.1833 7.58045C21.4837 7.75335 21.7394 7.90628 21.7517 7.92029C21.7724 7.94382 21.7741 7.99482 21.7741 8.59342V9.24108L21.7454 9.26787C21.7141 9.29702 20.6576 9.90976 20.6223 9.91919C20.5991 9.92541 19.4927 9.29409 19.4662 9.25946C19.4428 9.22896 19.4431 7.95708 19.4664 7.92512C19.4904 7.89237 20.5745 7.26748 20.6087 7.26673C20.6244 7.26637 20.883 7.40755 21.1833 7.58045ZM9.86846 8.48052C9.79753 8.59315 8.6669 10.544 8.66326 10.5601C8.65544 10.5945 8.71936 10.6521 8.83743 10.717C8.86904 10.7343 8.9495 10.7803 9.01622 10.8191C9.08295 10.8578 9.18828 10.9191 9.2503 10.9551C9.31231 10.9912 9.36558 11.0207 9.36868 11.0207C9.37177 11.0207 9.39756 11.0353 9.42597 11.0533C9.47511 11.0843 9.50326 11.1007 9.61325 11.1625C9.6396 11.1773 9.66689 11.1938 9.67391 11.1991C9.68094 11.2044 9.71254 11.223 9.74415 11.2405C9.77576 11.2579 9.85621 11.3039 9.92294 11.3427C9.98967 11.3814 10.095 11.4427 10.157 11.4787C10.219 11.5148 10.2723 11.5443 10.2754 11.5443C10.2785 11.5443 10.3043 11.5589 10.3327 11.5769C10.3611 11.5948 10.4041 11.6207 10.4282 11.6343C10.5212 11.687 10.5692 11.7147 10.6062 11.7369C10.6272 11.7496 10.6588 11.7679 10.6764 11.7776C10.694 11.7873 10.7629 11.827 10.8297 11.866C11.1135 12.0316 11.1768 12.0678 11.1825 12.0678C11.1858 12.0678 11.2199 12.088 11.2583 12.1125C11.2968 12.1371 11.3307 12.1572 11.3338 12.1572C11.3369 12.1572 11.3698 12.1753 11.407 12.1973C11.4442 12.2194 11.4947 12.2489 11.5193 12.263C11.5439 12.2771 11.5812 12.2991 11.6023 12.3119C11.6233 12.3248 11.6605 12.3443 11.6848 12.3553C11.7092 12.3663 11.7322 12.3794 11.7359 12.3844C11.7397 12.3894 11.7908 12.4186 11.8494 12.4493C11.9336 12.4934 11.9737 12.5066 12.0398 12.5119L12.1236 12.5186L12.0846 12.4497C12.0632 12.4118 11.9194 12.1509 11.765 11.8699C11.4786 11.3486 9.91509 8.50031 9.89749 8.46775C9.88991 8.45374 9.88355 8.45654 9.86846 8.48052Z" fill="white"/>
<path fill-rule="evenodd" clip-rule="evenodd" d="M21.847 0.0497565L21.7932 0.0999195L21.7869 2.56238C21.7816 4.57939 21.7774 5.03023 21.7635 5.05466C21.7541 5.07106 21.7268 5.09268 21.7028 5.10272C21.6448 5.12695 21.6526 5.13058 21.1928 4.86452C20.9822 4.74266 20.7812 4.63281 20.7461 4.62041C20.6693 4.59329 20.5849 4.59101 20.5086 4.61401C20.4204 4.64062 17.2823 6.45496 17.2189 6.516C17.1895 6.54437 17.1521 6.59687 17.1359 6.63268L17.1064 6.69779V8.59423V10.4907L17.141 10.5611C17.16 10.5998 17.1945 10.6497 17.2176 10.672C17.2708 10.7233 20.4326 12.5507 20.5086 12.5741C20.5848 12.5976 20.6692 12.5953 20.7461 12.5677C20.8364 12.5352 23.9681 10.7216 24.0191 10.6722C24.0422 10.6498 24.0767 10.5998 24.0957 10.5611L24.1303 10.4907V5.89324V1.29581L24.0942 1.22227C24.0743 1.18182 24.0369 1.13107 24.0112 1.10949C23.9854 1.08792 23.5332 0.829557 23.0065 0.53536C22.056 0.00457391 22.0481 0.000461788 21.9747 2.75859e-05C21.9061 -0.000381075 21.897 0.00318193 21.847 0.0497565ZM3.35244 4.53769C3.31733 4.55408 2.58174 4.97372 1.7178 5.4702C0.45462 6.19614 0.136631 6.38407 0.0939902 6.42985C-0.00793229 6.53929 0.000151524 6.31049 0.000151524 9.08735C0.000151524 10.8091 0.00430198 11.5791 0.0137395 11.6041C0.0458576 11.6891 0.140373 11.7459 0.223714 11.7303C0.269076 11.7217 2.13243 10.6616 2.20947 10.6005C2.23406 10.581 2.27428 10.5259 2.29887 10.4781L2.34356 10.3911L2.34995 9.16383L2.35633 7.93655L2.38493 7.87853C2.40066 7.84661 2.43227 7.80253 2.45517 7.78057C2.50797 7.72992 3.33297 7.2551 3.40991 7.23107C3.48506 7.20761 3.59446 7.21716 3.66548 7.25339C3.84466 7.34481 4.52211 7.74723 4.56167 7.78576C4.58758 7.811 4.62206 7.86099 4.63829 7.89687L4.66782 7.96209L4.67421 9.18807L4.68059 10.414L4.70954 10.4728C4.72545 10.5051 4.75918 10.5522 4.78448 10.5775C4.81261 10.6057 5.20516 10.8379 5.79544 11.1757C6.68637 11.6856 6.76495 11.728 6.81967 11.728C6.85852 11.728 6.89468 11.7182 6.92457 11.6998C7.01561 11.6435 7.00833 11.8575 7.01321 9.09229L7.01762 6.59563L6.98162 6.52233C6.96182 6.48201 6.9216 6.42836 6.89222 6.4031C6.83234 6.35159 3.71244 4.55299 3.63498 4.52532C3.55605 4.49711 3.42729 4.50275 3.35244 4.53769ZM29.0903 4.56087C29.0212 4.5793 25.85 6.41288 25.7926 6.46764C25.7656 6.4933 25.7311 6.54121 25.7159 6.57412L25.6883 6.63394V8.54315V10.4524L25.7157 10.5117C25.7308 10.5444 25.7656 10.5932 25.793 10.6203C25.8261 10.653 26.3687 10.969 27.4122 11.5634C28.2753 12.0551 29.0048 12.4671 29.0334 12.479C29.1021 12.5076 29.2412 12.5084 29.3107 12.4806C29.3615 12.4603 31.193 11.4468 31.2648 11.3993C31.3409 11.3489 31.3623 11.2024 31.3049 11.1255C31.2892 11.1045 30.6705 10.7419 29.6664 10.1654C28.2315 9.34153 28.0506 9.23423 28.0297 9.19466C28.0078 9.15323 28.0062 9.10778 28.0062 8.53566V7.92117L28.0349 7.87919C28.0557 7.84889 28.1435 7.79119 28.351 7.67149C29.1865 7.18958 29.1192 7.2255 29.1749 7.23135C29.2128 7.23534 29.3577 7.31258 29.7304 7.52749C30.2276 7.81416 30.28 7.84776 30.3093 7.89823C30.3195 7.91588 30.326 8.08151 30.3304 8.4346C30.3365 8.92024 30.3381 8.9471 30.3624 8.97932C30.4103 9.04297 30.4881 9.0717 30.5653 9.05428C30.6185 9.0423 32.4974 7.95319 32.5658 7.89471C32.5928 7.87171 32.631 7.81999 32.6507 7.77977L32.6866 7.70667V7.17669V6.64671L32.6561 6.5793C32.638 6.53925 32.601 6.48998 32.565 6.45797C32.4932 6.39415 29.4101 4.60216 29.3152 4.56904C29.2454 4.54473 29.1622 4.5417 29.0903 4.56087ZM12.2344 4.61481C12.2344 4.61757 12.2433 4.62325 12.2542 4.62744C12.2656 4.6318 12.2707 4.62965 12.2663 4.62242C12.2588 4.61028 12.2344 4.60447 12.2344 4.61481ZM12.3749 4.69215C12.3749 4.69566 12.3921 4.70745 12.4132 4.71834C12.4343 4.72924 12.4515 4.73528 12.4515 4.73177C12.4515 4.72825 12.4343 4.71647 12.4132 4.70557C12.3921 4.69468 12.3749 4.68864 12.3749 4.69215ZM8.7144 6.44229C8.66642 6.48012 8.5964 6.5858 8.58601 6.63607C8.56334 6.7457 8.55121 6.73393 8.82147 6.86448C8.95667 6.9298 9.06731 6.98013 9.06731 6.97633C9.06731 6.96434 8.7675 6.4114 8.76081 6.41107C8.7573 6.41089 8.73642 6.42494 8.7144 6.44229ZM15.4237 6.53921C15.4058 6.57024 15.1745 6.99216 14.9096 7.4768C14.6448 7.96145 14.4191 8.37339 14.4081 8.39223L14.3882 8.42648L14.2827 8.25175C14.2246 8.15565 14.1714 8.0684 14.1643 8.05787C14.1557 8.04501 14.1513 8.58402 14.1508 9.69707C14.1501 11.2716 14.1511 11.355 14.1724 11.3462C14.1847 11.3411 14.2017 11.3366 14.2101 11.3363C14.2186 11.3359 14.2226 11.3309 14.2189 11.325C14.2153 11.3192 14.2171 11.3144 14.223 11.3144C14.2336 11.3144 14.4482 11.2024 14.5331 11.1525C14.5577 11.138 14.6956 11.0586 14.8396 10.976C15.4726 10.6127 15.4457 10.6304 15.4991 10.5396C15.5634 10.4304 15.5627 10.4247 15.4645 10.2555C15.4158 10.1717 15.376 10.1 15.376 10.0963C15.376 10.0925 15.4119 10.1065 15.4558 10.1273L15.5356 10.1651L15.5453 10.0533C15.5506 9.99184 15.5535 9.19733 15.5517 8.28774L15.5484 6.63394L15.5207 6.58286C15.5054 6.55476 15.4847 6.52075 15.4746 6.50728C15.4572 6.48405 15.4545 6.48569 15.4237 6.53921ZM21.1833 7.58045C21.4837 7.75335 21.7394 7.90628 21.7517 7.92029C21.7724 7.94382 21.7741 7.99482 21.7741 8.59342V9.24108L21.7454 9.26787C21.7141 9.29702 20.6576 9.90976 20.6223 9.91919C20.5991 9.92541 19.4927 9.29409 19.4662 9.25946C19.4428 9.22896 19.4431 7.95708 19.4664 7.92512C19.4904 7.89237 20.5745 7.26748 20.6087 7.26673C20.6244 7.26637 20.883 7.40755 21.1833 7.58045ZM9.86846 8.48052C9.80134 8.58712 8.66677 10.544 8.6624 10.5607C8.65558 10.5868 8.71121 10.6429 8.78607 10.6855C8.81783 10.7035 8.88979 10.7452 8.94598 10.778C9.24509 10.9526 9.29708 10.9826 9.36742 11.0208C9.40956 11.0436 9.44979 11.0667 9.45681 11.0721C9.46383 11.0774 9.49114 11.0939 9.51747 11.1087C9.54382 11.1235 9.58403 11.1464 9.60687 11.1596C9.6297 11.1728 9.68285 11.2034 9.72499 11.2276C9.76714 11.2518 9.85621 11.3035 9.92294 11.3424C10.2104 11.5101 10.2701 11.5443 10.2754 11.5443C10.2785 11.5443 10.3043 11.5589 10.3327 11.5769C10.3611 11.5948 10.4041 11.6207 10.4282 11.6343C10.4523 11.648 10.4922 11.6707 10.5168 11.6847C10.5414 11.6988 10.583 11.7224 10.6094 11.7371C10.6357 11.7519 10.7032 11.7912 10.7594 11.8244C10.955 11.9401 11.1047 12.0266 11.1808 12.0681C11.223 12.091 11.2727 12.1205 11.2914 12.1335C11.31 12.1466 11.3284 12.1572 11.3323 12.1572C11.3362 12.1572 11.3698 12.1753 11.407 12.1973C11.5094 12.2581 11.5561 12.2846 11.647 12.3338C11.6926 12.3585 11.7329 12.382 11.7364 12.3861C11.7399 12.3902 11.7908 12.4186 11.8494 12.4493C11.9336 12.4934 11.9737 12.5066 12.0398 12.5119L12.1236 12.5186L12.0846 12.4497C12.0632 12.4118 11.9194 12.1509 11.765 11.8699C11.4786 11.3486 9.91509 8.50031 9.89749 8.46775C9.88991 8.45374 9.88355 8.45654 9.86846 8.48052Z" fill="white"/>
<path fill-rule="evenodd" clip-rule="evenodd" d="M21.847 0.0497565L21.7932 0.0999195L21.7869 2.56238C21.7816 4.57939 21.7774 5.03023 21.7635 5.05466C21.7541 5.07106 21.7268 5.09268 21.7028 5.10272C21.6448 5.12695 21.6526 5.13058 21.1928 4.86452C20.9822 4.74266 20.7812 4.63281 20.7461 4.62041C20.6693 4.59329 20.5849 4.59101 20.5086 4.61401C20.4204 4.64062 17.2823 6.45496 17.2189 6.516C17.1895 6.54437 17.1521 6.59687 17.1359 6.63268L17.1064 6.69779V8.59423V10.4907L17.141 10.5611C17.16 10.5998 17.1945 10.6497 17.2176 10.672C17.2708 10.7233 20.4326 12.5507 20.5086 12.5741C20.5848 12.5976 20.6692 12.5953 20.7461 12.5677C20.8364 12.5352 23.9681 10.7216 24.0191 10.6722C24.0422 10.6498 24.0767 10.5998 24.0957 10.5611L24.1303 10.4907V5.89324V1.29581L24.0942 1.22227C24.0743 1.18182 24.0369 1.13107 24.0112 1.10949C23.9854 1.08792 23.5332 0.829557 23.0065 0.53536C22.056 0.00457391 22.0481 0.000461788 21.9747 2.75859e-05C21.9061 -0.000381075 21.897 0.00318193 21.847 0.0497565ZM3.35244 4.53769C3.31733 4.55408 2.58174 4.97372 1.7178 5.4702C0.45462 6.19614 0.136631 6.38407 0.0939902 6.42985C-0.00793229 6.53929 0.000151524 6.31049 0.000151524 9.08735C0.000151524 10.8091 0.00430198 11.5791 0.0137395 11.6041C0.0458576 11.6891 0.140373 11.7459 0.223714 11.7303C0.269076 11.7217 2.13243 10.6616 2.20947 10.6005C2.23406 10.581 2.27428 10.5259 2.29887 10.4781L2.34356 10.3911L2.34995 9.16383L2.35633 7.93655L2.38493 7.87853C2.40066 7.84661 2.43227 7.80253 2.45517 7.78057C2.50797 7.72992 3.33297 7.2551 3.40991 7.23107C3.48506 7.20761 3.59446 7.21716 3.66548 7.25339C3.84466 7.34481 4.52211 7.74723 4.56167 7.78576C4.58758 7.811 4.62206 7.86099 4.63829 7.89687L4.66782 7.96209L4.67421 9.18807L4.68059 10.414L4.70954 10.4728C4.72545 10.5051 4.75918 10.5522 4.78448 10.5775C4.81261 10.6057 5.20516 10.8379 5.79544 11.1757C6.68637 11.6856 6.76495 11.728 6.81967 11.728C6.85852 11.728 6.89468 11.7182 6.92457 11.6998C7.01561 11.6435 7.00833 11.8575 7.01321 9.09229L7.01762 6.59563L6.98162 6.52233C6.96182 6.48201 6.9216 6.42836 6.89222 6.4031C6.83234 6.35159 3.71244 4.55299 3.63498 4.52532C3.55605 4.49711 3.42729 4.50275 3.35244 4.53769ZM29.0903 4.56087C29.0212 4.5793 25.85 6.41288 25.7926 6.46764C25.7656 6.4933 25.7311 6.54121 25.7159 6.57412L25.6883 6.63394V8.54315V10.4524L25.7157 10.5117C25.7308 10.5444 25.7656 10.5932 25.793 10.6203C25.8261 10.653 26.3687 10.969 27.4122 11.5634C28.2753 12.0551 29.0048 12.4671 29.0334 12.479C29.1021 12.5076 29.2412 12.5084 29.3107 12.4806C29.3615 12.4603 31.193 11.4468 31.2648 11.3993C31.3409 11.3489 31.3623 11.2024 31.3049 11.1255C31.2892 11.1045 30.6705 10.7419 29.6664 10.1654C28.2315 9.34153 28.0506 9.23423 28.0297 9.19466C28.0078 9.15323 28.0062 9.10778 28.0062 8.53566V7.92117L28.0349 7.87919C28.0557 7.84889 28.1435 7.79119 28.351 7.67149C29.1865 7.18958 29.1192 7.2255 29.1749 7.23135C29.2128 7.23534 29.3577 7.31258 29.7304 7.52749C30.2276 7.81416 30.28 7.84776 30.3093 7.89823C30.3195 7.91588 30.326 8.08151 30.3304 8.4346C30.3365 8.92024 30.3381 8.9471 30.3624 8.97932C30.4103 9.04297 30.4881 9.0717 30.5653 9.05428C30.6185 9.0423 32.4974 7.95319 32.5658 7.89471C32.5928 7.87171 32.631 7.81999 32.6507 7.77977L32.6866 7.70667V7.17669V6.64671L32.6561 6.5793C32.638 6.53925 32.601 6.48998 32.565 6.45797C32.4932 6.39415 29.4101 4.60216 29.3152 4.56904C29.2454 4.54473 29.1622 4.5417 29.0903 4.56087ZM21.1833 7.58045C21.4837 7.75335 21.7394 7.90628 21.7517 7.92029C21.7724 7.94382 21.7741 7.99482 21.7741 8.59342V9.24108L21.7454 9.26787C21.7141 9.29702 20.6576 9.90976 20.6223 9.91919C20.5991 9.92541 19.4927 9.29409 19.4662 9.25946C19.4428 9.22896 19.4431 7.95708 19.4664 7.92512C19.4904 7.89237 20.5745 7.26748 20.6087 7.26673C20.6244 7.26637 20.883 7.40755 21.1833 7.58045Z" fill="white"/>
<path fill-rule="evenodd" clip-rule="evenodd" d="M21.847 0.0497565L21.7932 0.0999195L21.7869 2.56238C21.7816 4.57939 21.7774 5.03023 21.7635 5.05466C21.7541 5.07106 21.7268 5.09268 21.7028 5.10272C21.6448 5.12695 21.6526 5.13058 21.1928 4.86452C20.9822 4.74266 20.7812 4.63281 20.7461 4.62041C20.6693 4.59329 20.5849 4.59101 20.5086 4.61401C20.4204 4.64062 17.2823 6.45496 17.2189 6.516C17.1895 6.54437 17.1521 6.59687 17.1359 6.63268L17.1064 6.69779V8.59423V10.4907L17.141 10.5611C17.16 10.5998 17.1945 10.6497 17.2176 10.672C17.2708 10.7233 20.4326 12.5507 20.5086 12.5741C20.5848 12.5976 20.6692 12.5953 20.7461 12.5677C20.8364 12.5352 23.9681 10.7216 24.0191 10.6722C24.0422 10.6498 24.0767 10.5998 24.0957 10.5611L24.1303 10.4907V5.89324V1.29581L24.0942 1.22227C24.0743 1.18182 24.0369 1.13107 24.0112 1.10949C23.9854 1.08792 23.5332 0.829557 23.0065 0.53536C22.056 0.00457391 22.0481 0.000461788 21.9747 2.75859e-05C21.9061 -0.000381075 21.897 0.00318193 21.847 0.0497565ZM3.35244 4.53769C3.31733 4.55408 2.58174 4.97372 1.7178 5.4702C0.45462 6.19614 0.136631 6.38407 0.0939902 6.42985C-0.00793229 6.53929 0.000151524 6.31049 0.000151524 9.08735C0.000151524 10.8091 0.00430198 11.5791 0.0137395 11.6041C0.0458576 11.6891 0.140373 11.7459 0.223714 11.7303C0.269076 11.7217 2.13243 10.6616 2.20947 10.6005C2.23406 10.581 2.27428 10.5259 2.29887 10.4781L2.34356 10.3911L2.34995 9.16383L2.35633 7.93655L2.38493 7.87853C2.40066 7.84661 2.43227 7.80253 2.45517 7.78057C2.50797 7.72992 3.33297 7.2551 3.40991 7.23107C3.48506 7.20761 3.59446 7.21716 3.66548 7.25339C3.84466 7.34481 4.52211 7.74723 4.56167 7.78576C4.58758 7.811 4.62206 7.86099 4.63829 7.89687L4.66782 7.96209L4.67421 9.18807L4.68059 10.414L4.70954 10.4728C4.72545 10.5051 4.75918 10.5522 4.78448 10.5775C4.81261 10.6057 5.20516 10.8379 5.79544 11.1757C6.68637 11.6856 6.76495 11.728 6.81967 11.728C6.85852 11.728 6.89468 11.7182 6.92457 11.6998C7.01561 11.6435 7.00833 11.8575 7.01321 9.09229L7.01762 6.59563L6.98162 6.52233C6.96182 6.48201 6.9216 6.42836 6.89222 6.4031C6.83234 6.35159 3.71244 4.55299 3.63498 4.52532C3.55605 4.49711 3.42729 4.50275 3.35244 4.53769ZM29.0903 4.56087C29.0212 4.5793 25.85 6.41288 25.7926 6.46764C25.7656 6.4933 25.7311 6.54121 25.7159 6.57412L25.6883 6.63394V8.54315V10.4524L25.7157 10.5117C25.7308 10.5444 25.7656 10.5932 25.793 10.6203C25.8261 10.653 26.3687 10.969 27.4122 11.5634C28.2753 12.0551 29.0048 12.4671 29.0334 12.479C29.1021 12.5076 29.2412 12.5084 29.3107 12.4806C29.3615 12.4603 31.193 11.4468 31.2648 11.3993C31.3409 11.3489 31.3623 11.2024 31.3049 11.1255C31.2892 11.1045 30.6705 10.7419 29.6664 10.1654C28.2315 9.34153 28.0506 9.23423 28.0297 9.19466C28.0078 9.15323 28.0062 9.10778 28.0062 8.53566V7.92117L28.0349 7.87919C28.0557 7.84889 28.1435 7.79119 28.351 7.67149C29.1865 7.18958 29.1192 7.2255 29.1749 7.23135C29.2128 7.23534 29.3577 7.31258 29.7304 7.52749C30.2276 7.81416 30.28 7.84776 30.3093 7.89823C30.3195 7.91588 30.326 8.08151 30.3304 8.4346C30.3365 8.92024 30.3381 8.9471 30.3624 8.97932C30.4103 9.04297 30.4881 9.0717 30.5653 9.05428C30.6185 9.0423 32.4974 7.95319 32.5658 7.89471C32.5928 7.87171 32.631 7.81999 32.6507 7.77977L32.6866 7.70667V7.17669V6.64671L32.6561 6.5793C32.638 6.53925 32.601 6.48998 32.565 6.45797C32.4932 6.39415 29.4101 4.60216 29.3152 4.56904C29.2454 4.54473 29.1622 4.5417 29.0903 4.56087ZM21.1833 7.58045C21.4837 7.75335 21.7394 7.90628 21.7517 7.92029C21.7724 7.94382 21.7741 7.99482 21.7741 8.59342V9.24108L21.7454 9.26787C21.7141 9.29702 20.6576 9.90976 20.6223 9.91919C20.5991 9.92541 19.4927 9.29409 19.4662 9.25946C19.4428 9.22896 19.4431 7.95708 19.4664 7.92512C19.4904 7.89237 20.5745 7.26748 20.6087 7.26673C20.6244 7.26637 20.883 7.40755 21.1833 7.58045Z" fill="white"/>
<path fill-rule="evenodd" clip-rule="evenodd" d="M21.8954 0.0119084C21.8814 0.0177573 21.8526 0.0407572 21.8316 0.0630292L21.7932 0.103499L21.7869 2.56421C21.7816 4.57975 21.7774 5.0303 21.7635 5.05473C21.7541 5.07112 21.7268 5.09275 21.7028 5.10278C21.6657 5.1183 21.6529 5.11843 21.6177 5.10366C21.5826 5.089 21.3546 4.95952 20.8828 4.68649C20.7306 4.59836 20.6271 4.57834 20.5086 4.61408C20.4204 4.64069 17.2823 6.45503 17.2189 6.51607C17.1895 6.54444 17.1521 6.59694 17.1359 6.63274L17.1064 6.69786V8.5943V10.4907L17.141 10.5611C17.16 10.5999 17.1945 10.6498 17.2176 10.6721C17.2533 10.7065 17.6212 10.9225 18.8432 11.6268C18.9556 11.6915 19.3665 11.9287 19.7563 12.1538C20.1462 12.3789 20.4881 12.5695 20.5162 12.5772C20.6513 12.6146 20.7263 12.5922 21.0029 12.4315C21.2504 12.2879 21.4694 12.161 21.6528 12.0551C21.723 12.0146 21.8494 11.9415 21.9337 11.8928C22.018 11.844 22.2249 11.7245 22.3935 11.6273C22.562 11.5301 22.8235 11.3791 22.9745 11.2918C23.1255 11.2044 23.3296 11.0867 23.4279 11.0301C23.5262 10.9735 23.6527 10.9004 23.7088 10.8676C23.765 10.8349 23.8519 10.7843 23.9019 10.7552C24.0039 10.6959 24.0637 10.6346 24.1034 10.5489L24.1303 10.4907V5.89331V1.29588L24.0922 1.22066C24.0712 1.17929 24.0338 1.12855 24.0091 1.1079C23.9845 1.08726 23.8637 1.01438 23.7408 0.945953C23.6179 0.877515 23.3391 0.722058 23.1214 0.600482C21.99 -0.0311925 22.0485 -0.000402523 21.9821 0.000465881C21.9485 0.000912853 21.9095 0.00605942 21.8954 0.0119084ZM3.35244 4.53776C3.31733 4.55414 2.58174 4.97379 1.7178 5.47027C0.45462 6.19621 0.136631 6.38414 0.0939902 6.42992C-0.00793229 6.53935 0.000151524 6.3104 0.000151524 9.08865C0.000151524 11.8018 -0.0050972 11.6203 0.0754089 11.6881C0.133107 11.7366 0.194687 11.7451 0.266969 11.7145C0.346389 11.6808 2.15301 10.6445 2.20947 10.6002C2.23439 10.5806 2.27395 10.5266 2.29887 10.4782L2.34356 10.3912L2.34995 9.1639L2.35633 7.93661L2.38493 7.8786C2.40066 7.84668 2.43227 7.80255 2.45517 7.78053C2.4904 7.74665 2.77625 7.57676 3.25666 7.30417C3.42987 7.2059 3.5448 7.19189 3.66687 7.25418C3.84497 7.34503 4.52227 7.74747 4.56167 7.78583C4.58758 7.81107 4.62206 7.86106 4.63829 7.89694L4.66782 7.96216L4.67421 9.18814L4.68059 10.4141L4.70954 10.4729C4.72545 10.5052 4.75918 10.5523 4.78448 10.5776C4.81261 10.6057 5.20516 10.838 5.79544 11.1758C6.68637 11.6857 6.76495 11.728 6.81967 11.728C6.85852 11.728 6.89467 11.7183 6.92457 11.6998C7.01555 11.6436 7.00828 11.8573 7.01319 9.09236L7.01762 6.5957L6.98305 6.52531C6.96403 6.48658 6.92955 6.43675 6.90642 6.41457C6.8833 6.39239 6.76093 6.31454 6.6345 6.24157C6.23846 6.01297 5.56853 5.62736 5.1531 5.38887C5.02668 5.31628 4.81692 5.1956 4.68698 5.12067C3.91527 4.67569 3.66702 4.53538 3.6283 4.52233C3.55322 4.49702 3.42425 4.50424 3.35244 4.53776ZM29.0903 4.56094C29.0212 4.57937 25.85 6.41295 25.7926 6.46771C25.7656 6.49337 25.7311 6.54128 25.7159 6.57419L25.6883 6.63401V8.54322V10.4524L25.7157 10.5118C25.7308 10.5445 25.7656 10.5933 25.793 10.6204C25.8261 10.6531 26.3687 10.9691 27.4122 11.5635C28.2753 12.0551 29.0048 12.4672 29.0334 12.4791C29.1021 12.5077 29.2412 12.5085 29.3107 12.4807C29.3615 12.4604 31.193 11.4468 31.2648 11.3993C31.3411 11.3488 31.3623 11.2025 31.3046 11.1252C31.2906 11.1064 31.1677 11.0274 31.0315 10.9495C30.8952 10.8717 30.5884 10.6958 30.3496 10.5587C29.1529 9.87156 28.8237 9.68269 28.4595 9.4743C28.2323 9.34426 28.0528 9.23331 28.0381 9.21383C28.0135 9.18113 28.0124 9.15717 28.009 8.55107L28.0055 7.92226L28.0346 7.87984C28.0524 7.85378 28.1104 7.81044 28.185 7.76747C28.2517 7.72899 28.4212 7.63101 28.5617 7.54975C29.1447 7.21248 29.119 7.22583 29.1749 7.23156C29.213 7.23546 29.3557 7.31157 29.7304 7.52802C30.0077 7.68817 30.244 7.82505 30.2555 7.83216C30.267 7.83929 30.2871 7.86284 30.3002 7.88448C30.3221 7.92065 30.3246 7.96525 30.3304 8.43467C30.3365 8.92025 30.3381 8.94718 30.3623 8.97954C30.4017 9.032 30.4537 9.057 30.5236 9.057C30.5782 9.057 30.6064 9.04546 30.7363 8.97003C30.8186 8.9222 30.9664 8.83636 31.0647 8.77926C31.1631 8.72216 31.3326 8.62373 31.4415 8.5605C31.9875 8.24345 32.0886 8.18477 32.2742 8.07742C32.5353 7.92644 32.5836 7.89143 32.6288 7.8202C32.6899 7.7238 32.6948 7.67017 32.6905 7.13624C32.6867 6.65313 32.6862 6.64591 32.6564 6.58003C32.6178 6.49467 32.5505 6.43316 32.3991 6.34506C32.3325 6.30628 32.1802 6.21788 32.0608 6.14861C31.9414 6.07934 31.7777 5.98424 31.6969 5.93727C31.5473 5.85033 31.0051 5.53582 30.6241 5.31508C30.5083 5.24793 30.3675 5.16604 30.3113 5.13308C30.2551 5.10013 30.0769 4.99676 29.9154 4.90337C29.7538 4.80998 29.5642 4.69978 29.4939 4.65851C29.3114 4.55124 29.2145 4.52781 29.0903 4.56094ZM21.1833 7.58052C21.4837 7.75342 21.7394 7.90635 21.7517 7.92036C21.7724 7.94389 21.7741 7.99489 21.7741 8.59348V9.24115L21.7454 9.26794C21.7141 9.29703 20.6576 9.90982 20.6224 9.91922C20.6029 9.92445 20.4922 9.86388 19.9798 9.56746C19.8885 9.51464 19.7393 9.42858 19.6481 9.37624C19.557 9.32388 19.4753 9.27163 19.4666 9.26014C19.4544 9.24409 19.4506 9.0886 19.4502 8.59253C19.4499 7.99452 19.4515 7.94391 19.4722 7.92031C19.4845 7.90627 19.5836 7.84347 19.6925 7.78074C20.0826 7.55599 20.2505 7.45894 20.414 7.3638C20.5053 7.31065 20.5929 7.26695 20.6087 7.26667C20.6244 7.26639 20.883 7.40762 21.1833 7.58052Z" fill="white"/>
<path fill-rule="evenodd" clip-rule="evenodd" d="M7.01369 9.03495C7.01394 9.05602 7.0168 9.0631 7.02005 9.05067C7.02329 9.03825 7.02308 9.02101 7.01958 9.01236C7.01608 9.00372 7.01343 9.01388 7.01369 9.03495Z" fill="white"/>
</svg>
