<svg width="400" height="420" viewBox="0 0 400 420" fill="none" xmlns="http://www.w3.org/2000/svg">
<path fill-rule="evenodd" clip-rule="evenodd" d="M184.363 0.743955C139.267 7.76896 103.814 40.2 92.5785 84.706C90.7905 91.785 90.4445 95.964 90.5085 109.706C90.5745 124.032 90.9195 127.467 93.1215 135.78C100.501 163.633 116.141 185.771 139.417 201.311C166.895 219.657 201.714 224.432 233.372 214.197C282.48 198.319 314.365 149.877 308.93 99.402C303.826 51.998 271.933 15.002 225.863 3.04496C215.124 0.256958 194.743 -0.872045 184.363 0.743955ZM213.863 20.747C245.582 25.751 273.879 49.296 284.279 79.336C288.233 90.757 289.292 97.554 289.242 111.206C289.205 121.345 288.715 125.966 287.013 132.206C278.575 163.147 255.315 186.886 224.15 196.366C216.358 198.736 213.663 199.046 200.363 199.098C184.02 199.162 177.761 198.025 164.618 192.605C144.204 184.187 125.095 164.923 116.929 144.53C112.201 132.723 110.776 126.121 110.162 113.179C109.725 103.961 109.991 99.178 111.305 92.695C117.768 60.798 139.909 35.437 170.859 24.481C183.202 20.111 200.379 18.619 213.863 20.747ZM76.8125 217.27C66.1835 225.28 54.3385 234.617 50.4905 238.02C35.2005 251.541 19.8335 273.571 11.9565 293.26C1.88151 318.444 -0.394493 333.31 0.052507 371.027L0.362508 397.206L3.15251 402.888C6.17751 409.047 10.5185 413.411 17.1405 416.95L21.3625 419.206H199.363H377.363L382.012 417.057C387.957 414.309 394.469 407.796 397.211 401.855C399.167 397.617 399.386 395.199 399.691 374.524C400.171 341.922 398.233 325.763 391.358 305.062C383.093 280.175 366.134 254.511 347.281 238.36C339.101 231.353 302.555 204.682 301.227 204.75C299.762 204.826 289.668 219.915 290.541 220.722C290.993 221.14 300.449 228.061 311.554 236.103C332.642 251.374 343.821 261.478 352.543 273.152C366.739 292.152 375.803 314.989 378.759 339.206C379.363 344.156 379.859 358.016 379.86 370.006C379.863 393.086 379.304 396.329 374.918 398.676C373.62 399.371 316.695 399.706 199.863 399.706C83.0305 399.706 26.1055 399.371 24.8075 398.676C20.3415 396.286 19.8625 393.261 19.8685 367.506C19.8765 334.055 22.2255 319.524 30.8705 299.45C42.1515 273.256 55.4575 258.005 88.2295 233.706C98.9855 225.731 107.804 218.854 107.825 218.424C107.86 217.71 96.9345 202.706 96.3795 202.706C96.2465 202.706 87.4415 209.26 76.8125 217.27Z" fill="white"/>
</svg>
