<svg width="21" height="20" viewBox="0 0 21 20" fill="none" xmlns="http://www.w3.org/2000/svg">
<path fill-rule="evenodd" clip-rule="evenodd" d="M2.69188 0.104702C1.45457 0.437433 0.441448 1.46398 0.115565 2.71519C-0.0396729 3.31115 -0.0370023 16.6872 0.118441 17.2841C0.44227 18.5272 1.4747 19.5654 2.71845 19.8985C3.2284 20.035 17.3476 20.0333 17.861 19.8966C18.7619 19.6567 19.7347 18.8891 20.1298 18.1063C20.5802 17.2138 20.5568 17.6593 20.5568 9.98891C20.5568 3.2602 20.5522 3.0091 20.4223 2.58865C20.0588 1.41221 19.2207 0.560007 18.0271 0.153047L17.578 0L10.3194 0.00273909C4.2027 0.00499884 3.00277 0.021091 2.69188 0.104702Z" fill="white"/>
<path fill-rule="evenodd" clip-rule="evenodd" d="M2.72579 0.100698C1.45499 0.449658 0.442209 1.46086 0.11838 2.7042C-0.03946 3.31023 -0.03946 16.6781 0.11838 17.2841C0.440634 18.5212 1.41034 19.5047 2.6795 19.8814C3.01134 19.9799 3.83039 19.9918 10.2851 19.9918C16.7062 19.9918 17.5606 19.9796 17.8908 19.8826C19.1397 19.5157 20.1331 18.5079 20.4519 17.2841C20.6097 16.6781 20.6097 3.31023 20.4519 2.7042C20.1338 1.48312 19.137 0.471776 17.8908 0.105697C17.56 0.00859589 16.7184 -0.00283982 10.2898 0.00256989C4.46586 0.00750025 2.99566 0.0266054 2.72579 0.100698ZM8.16233 4.60917C8.8102 4.69696 9.52934 5.03661 9.90261 5.4311C10.1615 5.70474 10.5269 6.37945 10.5979 6.71519C10.6606 7.01142 10.64 7.96825 10.5638 8.30194C10.4895 8.62714 10.2527 9.19064 10.1164 9.36677C9.80579 9.76825 9.11917 10.2464 8.67454 10.3709C8.56231 10.4023 8.45507 10.4325 8.43624 10.4378C8.22944 10.4965 7.54474 10.5609 7.13517 10.5601C6.85271 10.5596 6.58311 10.5899 6.536 10.6274C6.4719 10.6785 6.4504 11.0979 6.4504 12.2965V13.8974H5.73139H5.01238V9.31774C5.01238 5.64845 5.03005 4.72353 5.10119 4.66443C5.23027 4.55733 7.47968 4.51673 8.16233 4.60917ZM6.4932 5.99056C6.42815 6.16018 6.44417 9.05649 6.51073 9.16161C6.5551 9.23159 6.72191 9.24604 7.2116 9.22228C8.12193 9.17811 8.38365 9.08265 8.77603 8.65145C9.06 8.3394 9.18929 7.9195 9.15204 7.43002C9.07171 6.37356 8.48548 5.91223 7.19509 5.89024C6.64248 5.88079 6.52915 5.89702 6.4932 5.99056ZM14.9758 7.04915L15.3867 7.15536L15.4209 7.83041C15.4443 8.29236 15.4311 8.51463 15.3789 8.53456C15.3369 8.55052 15.1828 8.50245 15.0365 8.42767C14.6071 8.20827 13.7352 8.1289 13.3528 8.27442C13.1493 8.35186 12.9557 8.66453 12.9557 8.91591C12.9557 9.14709 13.3015 9.44373 14.0431 9.84878C14.3963 10.0417 14.6989 10.1996 14.7156 10.1996C14.7323 10.1996 14.7846 10.2381 14.8319 10.2852C14.8792 10.3323 15.0311 10.47 15.1694 10.5912C15.4728 10.8572 15.6827 11.214 15.7368 11.5558C15.7589 11.695 15.7919 11.8334 15.8104 11.8634C15.8722 11.9641 15.6802 12.6267 15.4771 13.0139C15.2847 13.3806 14.8072 13.8122 14.5345 13.8659C14.4759 13.8774 14.4203 13.8892 14.4109 13.8921C14.4015 13.895 14.3788 13.8987 14.3604 13.9004C14.3421 13.902 14.1952 13.943 14.034 13.9916C13.7486 14.0775 12.742 14.0859 12.425 14.0051C12.3403 13.9835 12.2171 13.9532 12.1511 13.9377C11.8646 13.8704 11.6579 13.7574 11.5904 13.6313C11.5504 13.5565 11.5177 13.2316 11.5177 12.909C11.5177 12.2528 11.531 12.2392 11.9599 12.4578C12.8719 12.9228 13.9687 12.8817 14.232 12.3727C14.3626 12.1201 14.3184 11.9367 14.0563 11.6432C13.8369 11.3974 13.7488 11.338 13.1612 11.039C11.7733 10.333 11.3421 9.58733 11.6064 8.3507C11.6638 8.08206 11.9554 7.65312 12.238 7.42153C12.8071 6.9552 13.9896 6.79435 14.9758 7.04915Z" fill="#B6D0D8"/>
<path fill-rule="evenodd" clip-rule="evenodd" d="M2.72579 0.100698C1.45499 0.449658 0.442209 1.46086 0.11838 2.7042C-0.03946 3.31023 -0.03946 16.6781 0.11838 17.2841C0.440634 18.5212 1.41034 19.5047 2.6795 19.8814C3.01134 19.9799 3.83039 19.9918 10.2851 19.9918C16.7062 19.9918 17.5606 19.9796 17.8908 19.8826C19.1397 19.5157 20.1331 18.5079 20.4519 17.2841C20.6097 16.6781 20.6097 3.31023 20.4519 2.7042C20.1338 1.48312 19.137 0.471776 17.8908 0.105697C17.56 0.00859589 16.7184 -0.00283982 10.2898 0.00256989C4.46586 0.00750025 2.99566 0.0266054 2.72579 0.100698ZM8.69885 4.71264C9.81928 5.06133 10.4658 5.81581 10.6469 6.98622C10.7964 7.9525 10.459 9.08087 9.84064 9.68183C9.2288 10.2766 8.24594 10.6026 7.04958 10.6081L6.51888 10.6104V12.2113C6.51888 13.4995 6.50019 13.8276 6.42308 13.8916C6.36124 13.943 6.10021 13.9641 5.68695 13.9514L5.04662 13.9316V9.27514V4.61869L5.66291 4.57534C6.74013 4.49947 8.23067 4.56692 8.69885 4.71264ZM6.55312 5.96351C6.53285 6.01638 6.52449 6.76778 6.5347 7.6332L6.55312 9.20667L7.2118 9.20242C7.79892 9.19865 7.91431 9.17633 8.2732 8.99699C8.85505 8.7063 9.07657 8.36337 9.10999 7.70154C9.14005 7.10578 9.04918 6.7862 8.75425 6.45025C8.43117 6.08232 8.03722 5.93749 7.25638 5.89963C6.72541 5.87388 6.58256 5.88689 6.55312 5.96351ZM14.8184 6.98793C15.4619 7.12146 15.4894 7.15913 15.4894 7.90717C15.4894 8.64193 15.4912 8.64009 14.9788 8.41349C14.5759 8.23525 13.7564 8.16492 13.4109 8.27887C13.147 8.36597 12.9557 8.62872 12.9557 8.90413C12.9557 9.13025 13.3328 9.43997 14.1159 9.8572C15.3365 10.5075 15.7834 11.0764 15.7834 11.98C15.7834 13.0051 15.1367 13.7684 14.0664 14.0066C13.4737 14.1384 12.6679 14.1085 12.0858 13.9329C11.5506 13.7715 11.5177 13.7163 11.5177 12.9794C11.5177 12.6306 11.5355 12.3274 11.5573 12.3057C11.5791 12.2839 11.8024 12.3635 12.0538 12.4825C12.4734 12.6813 12.5674 12.699 13.2068 12.699C13.8494 12.699 13.9167 12.6862 14.0799 12.533C14.2096 12.4113 14.2568 12.2979 14.2568 12.1083C14.2568 11.76 13.9626 11.4802 13.1426 11.0488C12.3309 10.6217 11.7208 10.0389 11.5898 9.56528C11.4689 9.12881 11.5257 8.39473 11.7079 8.0379C11.8486 7.76241 12.2653 7.33621 12.5352 7.19172C13.0101 6.9376 14.1047 6.83989 14.8184 6.98793Z" fill="white"/>
<path fill-rule="evenodd" clip-rule="evenodd" d="M3.23969 0.926608C2.04729 1.24729 1.12422 2.22014 0.910162 3.38172C0.811555 3.91708 0.808678 15.8506 0.907012 16.5339C1.09868 17.8651 2.09215 18.8765 3.42697 19.0992C3.74498 19.1522 5.8988 19.1692 10.5591 19.1553C18.0371 19.1329 17.5122 19.1685 18.3516 18.6261C18.8722 18.2896 19.3335 17.6838 19.5457 17.0581L19.7002 16.6024L19.7201 10.2682C19.7335 5.99564 19.7161 3.77944 19.6664 3.45903C19.4713 2.19933 18.5644 1.21428 17.3324 0.923869C16.6896 0.772397 3.80394 0.774862 3.23969 0.926608ZM8.6989 4.71278C9.81932 5.06147 10.4658 5.81595 10.6469 6.98637C10.7965 7.95265 10.459 9.08102 9.84069 9.68197C9.22885 10.2767 8.24599 10.6028 7.04963 10.6082L6.51893 10.6106V12.2115C6.51893 13.4996 6.50023 13.8278 6.42313 13.8917C6.36129 13.9431 6.10026 13.9643 5.687 13.9515L5.04667 13.9317V9.27529V4.61883L5.66296 4.57549C6.74018 4.49961 8.23072 4.56706 8.6989 4.71278ZM6.55317 5.96366C6.5329 6.01652 6.52454 6.76792 6.53475 7.63334L6.55317 9.20681L7.21185 9.20256C7.79897 9.1988 7.91436 9.17647 8.27325 8.99713C8.8551 8.70645 9.07662 8.36351 9.11004 7.70168C9.1401 7.10593 9.04923 6.78634 8.7543 6.45039C8.43122 6.08247 8.03727 5.93764 7.25643 5.89977C6.72545 5.87402 6.58261 5.88703 6.55317 5.96366ZM14.8184 6.98808C15.4619 7.12161 15.4894 7.15927 15.4894 7.90732C15.4894 8.64208 15.4913 8.64023 14.9789 8.41364C14.576 8.23539 13.7564 8.16506 13.411 8.27901C13.147 8.36611 12.9558 8.62886 12.9558 8.90428C12.9558 9.13039 13.3328 9.44011 14.1159 9.85734C15.3365 10.5076 15.7835 11.0766 15.7835 11.9801C15.7835 13.0052 15.1367 13.7686 14.0664 14.0067C13.4738 14.1385 12.668 14.1086 12.0859 13.933C11.5506 13.7716 11.5178 13.7164 11.5178 12.9796C11.5178 12.6307 11.5356 12.3275 11.5573 12.3058C11.5791 12.284 11.8025 12.3636 12.0538 12.4827C12.4734 12.6815 12.5675 12.6991 13.2069 12.6991C13.8494 12.6991 13.9167 12.6863 14.08 12.5332C14.2097 12.4114 14.2569 12.2981 14.2569 12.1085C14.2569 11.7602 13.9626 11.4804 13.1427 11.0489C12.3309 10.6218 11.7209 10.039 11.5898 9.56542C11.4689 9.12895 11.5258 8.39487 11.708 8.03804C11.8486 7.76256 12.2653 7.33635 12.5353 7.19187C13.0102 6.93775 14.1047 6.84003 14.8184 6.98808Z" fill="white"/>
<path fill-rule="evenodd" clip-rule="evenodd" d="M3.50002 0.898313C2.31447 1.07745 1.2756 1.99196 0.983615 3.11355C0.891787 3.46621 0.824132 12.8423 0.896649 15.1644C0.940749 16.5781 0.971906 16.93 1.07524 17.1845C1.43495 18.0701 2.11253 18.7086 2.98349 18.9825L3.47167 19.1361H10.3194H17.1671L17.6005 18.9795C18.1666 18.7748 18.4661 18.5798 18.8562 18.1615C19.2362 17.7541 19.4834 17.289 19.594 16.7736C19.6538 16.4949 19.6693 14.6703 19.6535 9.75468L19.6323 3.11239L19.4156 2.65496C19.0416 1.86562 18.4167 1.29952 17.6065 1.01637L17.1671 0.862705L10.4847 0.857707C6.80932 0.854899 3.66621 0.873182 3.50002 0.898313ZM8.69888 4.71284C9.8193 5.06152 10.4658 5.81601 10.6469 6.98642C10.7965 7.9527 10.459 9.08107 9.84067 9.68203C9.22882 10.2768 8.24597 10.6028 7.0496 10.6083L6.51891 10.6106V12.2115C6.51891 13.4997 6.50021 13.8278 6.42311 13.8918C6.36127 13.9432 6.10024 13.9643 5.68698 13.9516L5.04664 13.9318V9.27534V4.61889L5.66294 4.57554C6.74016 4.49967 8.2307 4.56712 8.69888 4.71284ZM6.55314 5.96371C6.53287 6.01658 6.52452 6.76798 6.53472 7.63339L6.55314 9.20686L7.21183 9.20262C7.79895 9.19885 7.91434 9.17653 8.27322 8.99719C8.85508 8.7065 9.0766 8.36357 9.11002 7.70173C9.14008 7.10598 9.04921 6.7864 8.75428 6.45045C8.4312 6.08252 8.03725 5.93769 7.25641 5.89982C6.72543 5.87408 6.58259 5.88709 6.55314 5.96371ZM14.8184 6.98813C15.4619 7.12166 15.4894 7.15933 15.4894 7.90737C15.4894 8.64213 15.4913 8.64028 14.9789 8.41369C14.5759 8.23545 13.7564 8.16512 13.4109 8.27907C13.147 8.36617 12.9558 8.62892 12.9558 8.90433C12.9558 9.13044 13.3328 9.44017 14.1159 9.8574C15.3365 10.5077 15.7835 11.0766 15.7835 11.9802C15.7835 13.0053 15.1367 13.7686 14.0664 14.0068C13.4737 14.1386 12.668 14.1087 12.0858 13.9331C11.5506 13.7717 11.5177 13.7165 11.5177 12.9796C11.5177 12.6308 11.5355 12.3276 11.5573 12.3059C11.5791 12.2841 11.8025 12.3637 12.0538 12.4827C12.4734 12.6815 12.5674 12.6992 13.2069 12.6992C13.8494 12.6992 13.9167 12.6864 14.08 12.5332C14.2097 12.4115 14.2568 12.2981 14.2568 12.1085C14.2568 11.7602 13.9626 11.4804 13.1426 11.049C12.3309 10.6219 11.7208 10.0391 11.5898 9.56548C11.4689 9.129 11.5258 8.39493 11.708 8.03809C11.8486 7.76261 12.2653 7.33641 12.5352 7.19192C13.0101 6.9378 14.1047 6.84008 14.8184 6.98813Z" fill="#808080"/>
<path fill-rule="evenodd" clip-rule="evenodd" d="M3.01094 1.04638C2.12944 1.34802 1.5647 1.85756 1.15644 2.71934L0.938 3.18047L0.919237 9.74689C0.907048 13.9875 0.925126 16.4468 0.970047 16.6901C1.1839 17.8468 2.1054 18.792 3.25123 19.0298C3.49761 19.081 5.7462 19.0983 10.4906 19.0856L17.3725 19.0672L17.7727 18.9058C18.5548 18.5904 19.2422 17.8596 19.5021 17.0674C19.6265 16.6883 19.6323 16.3695 19.6323 9.95972V3.24895L19.4752 2.83527C19.1785 2.05381 18.5309 1.39308 17.7492 1.07431L17.3725 0.920719L10.4221 0.904696L3.47166 0.888672L3.01094 1.04638ZM8.69887 4.71244C9.81929 5.06113 10.4658 5.81561 10.6469 6.98602C10.7965 7.95231 10.459 9.08067 9.84066 9.68163C9.22881 10.2764 8.24596 10.6024 7.04959 10.6079L6.5189 10.6103V12.2111C6.5189 13.4993 6.5002 13.8274 6.4231 13.8914C6.36126 13.9428 6.10023 13.9639 5.68697 13.9512L5.04663 13.9314V9.27494V4.61849L5.66293 4.57514C6.74015 4.49927 8.23069 4.56672 8.69887 4.71244ZM6.55313 5.96332C6.53286 6.01618 6.52451 6.76758 6.53471 7.633L6.55313 9.20647L7.21182 9.20222C7.79894 9.19845 7.91432 9.17613 8.27321 8.99679C8.85507 8.7061 9.07659 8.36317 9.11001 7.70134C9.14007 7.10558 9.0492 6.786 8.75427 6.45005C8.43119 6.08212 8.03724 5.93729 7.25639 5.89943C6.72542 5.87368 6.58258 5.88669 6.55313 5.96332ZM14.8184 6.98774C15.4619 7.12127 15.4894 7.15893 15.4894 7.90697C15.4894 8.64174 15.4913 8.63989 14.9788 8.41329C14.5759 8.23505 13.7564 8.16472 13.4109 8.27867C13.147 8.36577 12.9558 8.62852 12.9558 8.90393C12.9558 9.13005 13.3328 9.43977 14.1159 9.857C15.3365 10.5073 15.7835 11.0762 15.7835 11.9798C15.7835 13.0049 15.1367 13.7682 14.0664 14.0064C13.4737 14.1382 12.6679 14.1083 12.0858 13.9327C11.5506 13.7713 11.5177 13.7161 11.5177 12.9792C11.5177 12.6304 11.5355 12.3272 11.5573 12.3055C11.5791 12.2837 11.8025 12.3633 12.0538 12.4824C12.4734 12.6811 12.5674 12.6988 13.2069 12.6988C13.8494 12.6988 13.9167 12.686 14.0799 12.5328C14.2096 12.4111 14.2568 12.2977 14.2568 12.1081C14.2568 11.7598 13.9626 11.48 13.1426 11.0486C12.3309 10.6215 11.7208 10.0387 11.5898 9.56508C11.4689 9.12861 11.5257 8.39453 11.708 8.0377C11.8486 7.76221 12.2653 7.33601 12.5352 7.19152C13.0101 6.9374 14.1047 6.83969 14.8184 6.98774Z" fill="#808080"/>
<path fill-rule="evenodd" clip-rule="evenodd" d="M3.0812 1.01903C2.04459 1.35046 1.27107 2.14986 0.999288 3.17051C0.876577 3.6315 0.85802 16.1359 0.979224 16.7188C1.15398 17.5595 1.76418 18.3948 2.46456 18.7521C3.16139 19.1076 3.03005 19.1017 10.2851 19.1017C16.1652 19.1017 17.0882 19.0881 17.4438 18.9955C18.2179 18.7939 18.8859 18.2787 19.2439 17.607C19.6806 16.7876 19.6665 17.0404 19.6665 10.0175C19.6665 5.5477 19.6434 3.52379 19.5895 3.26974C19.3508 2.14603 18.441 1.21542 17.3306 0.959453C17.1385 0.915148 14.5861 0.890838 10.2509 0.89214C3.88239 0.894057 3.44803 0.901726 3.0812 1.01903ZM8.77269 4.70598C9.99035 5.10828 10.696 6.11586 10.696 7.45233C10.696 8.94452 9.99665 9.95058 8.64169 10.4077C8.33348 10.5117 7.94384 10.5712 7.37486 10.6013L6.55314 10.6448L6.5189 12.2883L6.48466 13.9317L5.75038 13.9512C5.03513 13.9701 5.0152 13.9665 4.9783 13.8142C4.95741 13.7282 4.94885 11.6403 4.95926 9.17453L4.97816 4.69133L5.14935 4.60121C5.28035 4.53218 5.67423 4.51691 6.82704 4.53595C8.13482 4.55759 8.39148 4.58005 8.77269 4.70598ZM6.5189 7.56333V9.17255H7.1608C8.40147 9.17255 9.01373 8.72286 9.10131 7.74719C9.1691 6.99202 8.89602 6.44229 8.3041 6.14243C7.97 5.97315 7.86085 5.95411 7.22565 5.95411H6.5189V7.56333ZM14.6757 6.9421C15.5024 7.0896 15.4894 7.07488 15.4894 7.86251C15.4894 8.23146 15.4712 8.55166 15.4489 8.57392C15.4266 8.59624 15.2736 8.55673 15.1088 8.48606C14.6906 8.30679 14.0092 8.19435 13.6591 8.24687C13.0379 8.34 12.8042 8.83262 13.19 9.23527C13.2936 9.34353 13.6917 9.59711 14.0745 9.79877C15.3559 10.474 15.9075 11.2265 15.8105 12.167C15.7307 12.9398 15.2832 13.5432 14.5359 13.8854C13.8088 14.2182 12.1115 14.1441 11.6354 13.7587C11.5025 13.6512 11.481 13.5598 11.4638 13.0305C11.4379 12.2302 11.47 12.1891 11.9457 12.4141C12.8527 12.8432 13.9497 12.8369 14.1829 12.4012C14.3915 12.0114 14.1225 11.5972 13.4204 11.2271C12.6358 10.8136 12.0736 10.415 11.861 10.1216C11.413 9.50315 11.3541 8.74949 11.6974 8.0287C11.9647 7.46746 12.4685 7.11761 13.2563 6.94621C13.795 6.82905 14.0378 6.82836 14.6757 6.9421Z" fill="#808080"/>
</svg>
