<svg width="256" height="130" viewBox="0 0 256 130" fill="none" xmlns="http://www.w3.org/2000/svg">
<path fill-rule="evenodd" clip-rule="evenodd" d="M114.665 0.458421C65.583 3.25842 23.141 20.2344 7.38997 43.3654C-3.19203 58.9054 -2.40803 74.3734 9.73297 89.6224C14.095 95.1004 25.208 103.921 33.665 108.617C66.269 126.721 121.828 134.034 167.228 126.196C209.952 118.821 240.469 102.114 251.319 80.1594C254.632 73.4574 255.033 71.8124 255.033 64.9514C255.033 58.7114 254.522 56.1424 252.326 51.3454C239.726 23.8234 199.449 5.01642 144.165 0.840423C130.703 -0.176577 126.702 -0.228579 114.665 0.458421ZM127.665 15.0244C127.665 15.1624 126.99 18.8014 126.165 23.1124C123.951 34.6834 123.214 33.7744 134.799 33.7744C150.383 33.7744 156.813 36.7164 158.276 44.5164C158.862 47.6374 156.619 61.8514 152.516 81.0244L151.499 85.7744H144.249C140.261 85.7744 136.773 85.5494 136.498 85.2744C136.223 84.9994 137.477 77.1074 139.286 67.7374C142.444 51.3724 142.589 48.1494 140.238 46.5394C139.648 46.1354 135.259 45.7984 130.486 45.7894L121.807 45.7744L120.728 51.0244C120.135 53.9124 118.41 62.7994 116.895 70.7744L114.141 85.2744L106.403 85.5664C102.147 85.7274 98.665 85.4494 98.665 84.9504C98.665 83.6034 111.584 17.4834 112.132 16.0244C112.451 15.1764 115.026 14.7744 120.134 14.7744C124.276 14.7744 127.665 14.8864 127.665 15.0244ZM92.513 36.7634C95.129 38.2614 97.868 40.9714 99.389 43.5654C101.653 47.4294 101.868 48.6804 101.454 55.5764C100.913 64.5934 98 71.1884 92.001 76.9754C85.58 83.1694 79.966 85.0254 66.022 85.5654L53.879 86.0364L53.256 89.9284C52.914 92.0694 52.154 96.0604 51.567 98.7974L50.499 103.774H42.515C35.381 103.774 34.585 103.588 35.046 102.024C35.33 101.061 38.304 86.0994 41.657 68.7744C45.009 51.4494 47.998 36.4534 48.299 35.4504C48.809 33.7514 50.188 33.6484 68.506 33.9504C87.322 34.2604 88.351 34.3814 92.513 36.7634ZM210.264 36.1684C219.132 40.2974 222.862 48.6544 220.643 59.4204C218.71 68.8004 215.062 74.7394 208.281 79.5444C202.074 83.9444 198.288 84.9424 185.165 85.6384L173.165 86.2744L171.611 94.7744L170.058 103.274L162.361 103.566C156.313 103.796 154.665 103.56 154.665 102.466C154.665 101.286 163.386 55.4514 166.736 39.0244L167.807 33.7744L186.486 33.7844C204.038 33.7934 205.473 33.9374 210.264 36.1684ZM62.14 46.0244C61.552 47.6174 56.665 71.7214 56.665 73.0314C56.665 73.6324 60.27 73.8554 65.962 73.6064C73.507 73.2764 75.839 72.7864 78.339 71.0064C82.2 68.2574 84.429 63.6334 85.247 56.6754C86.027 50.0334 84.149 47.1354 78.165 45.7494C72.206 44.3684 62.692 44.5314 62.14 46.0244ZM181.223 45.8844C180.955 46.6494 179.789 52.4494 178.632 58.7744C177.475 65.0994 176.289 71.1064 175.997 72.1244C175.503 73.8484 176.114 73.9504 184.995 73.6244C192.767 73.3384 195.043 72.8864 197.344 71.1694C202.04 67.6664 204.013 63.2344 204.093 56.0064C204.158 50.1464 203.916 49.3444 201.539 47.5504C198.12 44.9704 182.006 43.6494 181.223 45.8844Z" fill="white"/>
</svg>
