<svg width="21" height="20" viewBox="0 0 21 20" fill="none" xmlns="http://www.w3.org/2000/svg">
<path fill-rule="evenodd" clip-rule="evenodd" d="M3.36024 0.00707566C3.1343 0.0247277 2.93642 0.0573026 2.72176 0.112177C1.61978 0.393888 0.706649 1.18799 0.271487 2.24306C0.121537 2.60662 0.0332922 2.98823 0.00520923 3.39459C-0.00173641 3.49507 -0.00173641 16.5044 0.00520923 16.6048C0.0202723 16.8228 0.0515151 17.028 0.100345 17.2297C0.311473 18.1019 0.840013 18.8643 1.58752 19.375C2.06241 19.6995 2.6308 19.9113 3.20361 19.9774C3.41112 20.0014 2.98909 20 10.2558 20C14.7386 19.9999 17.0684 19.9982 17.1163 19.9949C17.535 19.966 17.9278 19.8733 18.2981 19.716C19.1922 19.3363 19.8958 18.6181 20.2551 17.7184C20.397 17.363 20.479 16.9995 20.5064 16.6048C20.5133 16.5043 20.5133 3.49515 20.5064 3.39459C20.479 2.99964 20.3971 2.63673 20.2551 2.28104C19.824 1.20158 18.9012 0.393047 17.7748 0.10787C17.566 0.0550091 17.345 0.0203159 17.1163 0.00451173C17.0683 0.00119165 14.7407 -0.000315661 10.2433 5.49067e-05C4.74258 0.000510605 3.42707 0.00185266 3.36024 0.00707566Z" fill="white"/>
<path fill-rule="evenodd" clip-rule="evenodd" d="M3.36024 0.00707566C3.1343 0.0247277 2.93642 0.0573026 2.72176 0.112177C1.61978 0.393888 0.706649 1.18799 0.271487 2.24306C0.121537 2.60662 0.0332922 2.98823 0.00520923 3.39459C-0.00173641 3.49507 -0.00173641 16.5044 0.00520923 16.6048C0.0202723 16.8228 0.0515151 17.028 0.100345 17.2297C0.311473 18.1019 0.840013 18.8643 1.58752 19.375C2.06241 19.6995 2.6308 19.9113 3.20361 19.9774C3.41112 20.0014 2.98909 20 10.2558 20C14.7386 19.9999 17.0684 19.9982 17.1163 19.9949C17.535 19.966 17.9278 19.8733 18.2981 19.716C19.1922 19.3363 19.8958 18.6181 20.2551 17.7184C20.397 17.363 20.479 16.9995 20.5064 16.6048C20.5133 16.5043 20.5133 3.49515 20.5064 3.39459C20.479 2.99964 20.3971 2.63673 20.2551 2.28104C19.824 1.20158 18.9012 0.393047 17.7748 0.10787C17.566 0.0550091 17.345 0.0203159 17.1163 0.00451173C17.0683 0.00119165 14.7407 -0.000315661 10.2433 5.49067e-05C4.74258 0.000510605 3.42707 0.00185266 3.36024 0.00707566ZM8.00736 5.09664C8.6378 5.13774 9.01897 5.2154 9.49714 5.40016C9.89464 5.55375 10.2974 5.82255 10.5739 6.11877C10.9941 6.56903 11.2455 7.14667 11.3147 7.82137C11.3397 8.0644 11.3328 8.39633 11.2971 8.67142C11.2354 9.14694 11.0822 9.57019 10.848 9.91208C10.5273 10.3804 10.0663 10.7476 9.5247 10.9661C9.42272 11.0073 9.23649 11.069 9.11155 11.1031C8.74014 11.2043 8.34912 11.2602 7.86213 11.2816C7.68569 11.2894 7.21337 11.2879 7.08344 11.2792C7.02285 11.2751 6.91752 11.2718 6.84937 11.2717L6.72546 11.2717L6.72418 12.6684L6.72289 14.0651L6.70765 14.0868C6.69926 14.0987 6.68236 14.1141 6.67009 14.121L6.64777 14.1335H5.79397H4.94016L4.92013 14.1231C4.90736 14.1165 4.89556 14.1047 4.88758 14.0906L4.87506 14.0684L4.87355 9.64667C4.87246 6.46969 4.87357 5.21771 4.87749 5.19936C4.88376 5.17003 4.9017 5.14971 4.92798 5.14217C4.93747 5.13945 5.01427 5.13722 5.10037 5.13716C5.18577 5.1371 5.30747 5.13491 5.37082 5.13229C5.43416 5.12967 5.58627 5.12521 5.70884 5.12239C5.8314 5.11956 6.00942 5.115 6.10444 5.11226C6.19946 5.10953 6.39664 5.10478 6.54261 5.1017C6.68859 5.09863 6.87337 5.09435 6.95324 5.0922C7.15218 5.08684 7.90575 5.09002 8.00736 5.09664ZM7.25871 6.77035C7.14854 6.77289 7.03361 6.77375 7.00332 6.77228C6.94853 6.76961 6.76576 6.777 6.74256 6.78282L6.7304 6.78587V8.22195V9.65804L6.75669 9.661C6.86449 9.67316 6.98997 9.67667 7.31129 9.67652C7.68005 9.67635 7.73759 9.67397 7.92223 9.65119C8.1084 9.62823 8.29263 9.5883 8.48308 9.52962C8.59587 9.49487 8.6302 9.48235 8.70022 9.45042C8.92467 9.34806 9.14966 9.16316 9.27147 8.98095C9.37803 8.82155 9.44085 8.62077 9.46455 8.36379C9.47259 8.27667 9.47137 8.055 9.46244 7.98104C9.44234 7.81438 9.39225 7.65042 9.31619 7.50226C9.2603 7.39341 9.1941 7.30591 9.09332 7.20772C8.96863 7.08624 8.85012 7.00883 8.6884 6.94324C8.46186 6.85137 8.24071 6.79944 7.9698 6.7745C7.88805 6.76697 7.50319 6.76473 7.25871 6.77035ZM16.5833 7.14555C16.6018 7.1524 16.6268 7.17706 16.6362 7.19771C16.645 7.21709 16.6454 7.25465 16.6455 8.08569C16.6456 9.02111 16.647 8.97225 16.6199 8.99623C16.595 9.0184 16.5828 9.0197 16.3627 9.02362C16.0482 9.02922 15.8739 9.04815 15.6015 9.10624C15.2933 9.17196 15.006 9.26843 14.8037 9.37409C14.6773 9.44012 14.5687 9.5189 14.4785 9.61003L14.4322 9.65683L14.431 11.8626L14.4297 14.0684L14.4184 14.0897C14.4109 14.1036 14.3998 14.1148 14.3858 14.1222L14.3646 14.1335H13.4753H12.5861L12.5616 14.1184C12.5464 14.109 12.5313 14.0939 12.5219 14.0787L12.5067 14.0542L12.5041 11.3372C12.5026 9.84277 12.4998 8.61559 12.498 8.61008C12.4961 8.60457 12.4921 8.48289 12.4892 8.33967C12.4778 7.78721 12.4739 7.69606 12.4513 7.44158C12.447 7.39382 12.445 7.34813 12.4468 7.34006C12.4486 7.33198 12.4557 7.31859 12.4627 7.31031C12.4773 7.29292 12.513 7.27409 12.5212 7.27942C12.5243 7.28142 12.8749 7.28418 13.3005 7.28555L14.0741 7.28806L14.0981 7.29995C14.133 7.31728 14.1679 7.35089 14.1855 7.38414C14.2071 7.42484 14.2349 7.51739 14.2471 7.58852C14.2527 7.62157 14.265 7.69368 14.2744 7.74876C14.2936 7.86141 14.306 7.98622 14.3111 8.11878L14.3145 8.20836L14.3702 8.14632C14.4503 8.05717 14.5928 7.91928 14.682 7.84468C14.8898 7.67093 15.0921 7.5392 15.3474 7.41135C15.6783 7.24565 16.0449 7.1546 16.4378 7.14057C16.5362 7.13705 16.5628 7.13796 16.5833 7.14555Z" fill="white"/>
<path fill-rule="evenodd" clip-rule="evenodd" d="M3.36024 0.00707566C3.1343 0.0247277 2.93642 0.0573026 2.72176 0.112177C1.61978 0.393888 0.706649 1.18799 0.271487 2.24306C0.121537 2.60662 0.0332922 2.98823 0.00520923 3.39459C-0.00173641 3.49507 -0.00173641 16.5044 0.00520923 16.6048C0.0202723 16.8228 0.0515151 17.028 0.100345 17.2297C0.311473 18.1019 0.840013 18.8643 1.58752 19.375C2.06241 19.6995 2.6308 19.9113 3.20361 19.9774C3.41112 20.0014 2.98909 20 10.2558 20C14.7386 19.9999 17.0684 19.9982 17.1163 19.9949C17.535 19.966 17.9278 19.8733 18.2981 19.716C19.1922 19.3363 19.8958 18.6181 20.2551 17.7184C20.397 17.363 20.479 16.9995 20.5064 16.6048C20.5133 16.5043 20.5133 3.49515 20.5064 3.39459C20.479 2.99964 20.3971 2.63673 20.2551 2.28104C19.824 1.20158 18.9012 0.393047 17.7748 0.10787C17.566 0.0550091 17.345 0.0203159 17.1163 0.00451173C17.0683 0.00119165 14.7407 -0.000315661 10.2433 5.49067e-05C4.74258 0.000510605 3.42707 0.00185266 3.36024 0.00707566ZM8.02488 5.0967C8.64081 5.13809 9.02771 5.21758 9.49714 5.39916C9.71754 5.48441 9.95947 5.6156 10.1572 5.75712C10.5293 6.02332 10.798 6.33182 11.0023 6.7272C11.1723 7.05618 11.2857 7.46514 11.3196 7.87145C11.3429 8.15009 11.3285 8.49659 11.2819 8.78034C11.2294 9.10024 11.1444 9.3701 11.0138 9.63087C10.8945 9.86927 10.7381 10.0856 10.5338 10.2946C10.2033 10.6328 9.80553 10.879 9.33689 11.0355C8.91054 11.178 8.44575 11.2563 7.87716 11.2816C7.73857 11.2877 7.17532 11.2876 7.11349 11.2815C7.0887 11.279 6.99124 11.2754 6.8969 11.2735L6.72539 11.2701L6.72528 12.6618C6.72518 14.0047 6.72485 14.0541 6.71591 14.0738C6.70443 14.0991 6.67585 14.1232 6.64849 14.1307C6.63328 14.1349 6.40186 14.136 5.78145 14.135C4.98929 14.1336 4.93413 14.133 4.91927 14.1249C4.89876 14.1136 4.88454 14.0933 4.87772 14.0656C4.87381 14.0497 4.87266 12.7932 4.87367 9.61662L4.87506 5.18984L4.88642 5.17157C4.90615 5.13985 4.91978 5.13726 5.0667 5.13728C5.13757 5.13729 5.30033 5.13395 5.42841 5.12985C5.66679 5.12221 5.8886 5.11642 6.31226 5.10678C6.44446 5.10377 6.66417 5.09833 6.80051 5.09469C7.08858 5.08699 7.90026 5.08832 8.02488 5.0967ZM7.33132 6.76976C6.91891 6.77449 6.76229 6.77793 6.74667 6.78259L6.73541 6.78595V8.22192V9.6579L6.7642 9.6609C6.87425 9.67238 7.00214 9.67494 7.36387 9.6729C7.78155 9.67055 7.79327 9.66997 7.9909 9.6415C8.19977 9.61141 8.48105 9.53962 8.63943 9.47596C8.88676 9.37657 9.1383 9.17922 9.26955 8.98162C9.37288 8.82603 9.43057 8.65267 9.46065 8.40727C9.46478 8.37357 9.46709 8.29176 9.46709 8.17942C9.46709 7.98491 9.46371 7.94997 9.43214 7.81887C9.40651 7.71245 9.37377 7.62338 9.32168 7.51841C9.26181 7.39774 9.20806 7.32398 9.10432 7.22004C8.97727 7.09277 8.85209 7.00985 8.68589 6.94285C8.50156 6.86855 8.30155 6.81619 8.10229 6.79008C7.92722 6.76715 7.81588 6.76421 7.33132 6.76976ZM16.5719 7.14063C16.5965 7.14747 16.6248 7.17263 16.6362 7.19787C16.645 7.21704 16.6454 7.25731 16.6455 8.08936C16.6456 8.9308 16.6453 8.96137 16.6362 8.97823C16.6302 8.98942 16.6182 9.00016 16.6026 9.00819L16.5783 9.02071L16.3728 9.02405C16.1794 9.0272 16.1026 9.0311 15.9896 9.04352C15.6156 9.0846 15.2307 9.18456 14.9079 9.32445C14.747 9.39418 14.6062 9.48677 14.491 9.59848L14.4322 9.65556V11.8549C14.4322 13.8598 14.4315 14.0562 14.4242 14.0777C14.4147 14.1055 14.3944 14.1229 14.3621 14.1308C14.3459 14.1348 14.0918 14.136 13.4632 14.135C12.6188 14.1336 12.5862 14.1332 12.5693 14.1242C12.5447 14.1111 12.53 14.0967 12.5175 14.0734L12.5067 14.0534L12.5039 11.3643C12.502 9.50754 12.4994 8.63256 12.4955 8.53747C12.4924 8.46173 12.4874 8.28145 12.4843 8.13686C12.4777 7.82108 12.4731 7.71934 12.456 7.50598L12.4429 7.34331L12.4545 7.32151C12.463 7.30552 12.4721 7.29682 12.4889 7.28887L12.5118 7.27804L13.2854 7.28055L14.0591 7.28305L14.0881 7.29474C14.1283 7.31096 14.1727 7.35304 14.1917 7.39302C14.212 7.43557 14.2396 7.53357 14.2491 7.59663C14.2534 7.62522 14.2613 7.67114 14.2666 7.69869C14.2915 7.82634 14.312 8.02915 14.312 8.14812C14.312 8.17773 14.3139 8.20196 14.3162 8.20196C14.3186 8.20196 14.3295 8.19125 14.3405 8.17817C14.4153 8.08951 14.5732 7.9347 14.6826 7.84276C14.928 7.63649 15.2434 7.44391 15.5189 7.33215C15.7979 7.21893 16.1158 7.1516 16.4227 7.14068C16.4806 7.13862 16.5335 7.13658 16.5404 7.13616C16.5473 7.13573 16.5615 7.13774 16.5719 7.14063Z" fill="white"/>
<path fill-rule="evenodd" clip-rule="evenodd" d="M3.36024 0.00707566C3.1343 0.0247277 2.93642 0.0573026 2.72176 0.112177C1.61978 0.393888 0.706649 1.18799 0.271487 2.24306C0.121537 2.60662 0.0332922 2.98823 0.00520923 3.39459C-0.00173641 3.49507 -0.00173641 16.5044 0.00520923 16.6048C0.0202723 16.8228 0.0515151 17.028 0.100345 17.2297C0.311473 18.1019 0.840013 18.8643 1.58752 19.375C2.06241 19.6995 2.6308 19.9113 3.20361 19.9774C3.41112 20.0014 2.98909 20 10.2558 20C14.7386 19.9999 17.0684 19.9982 17.1163 19.9949C17.535 19.966 17.9278 19.8733 18.2981 19.716C19.1922 19.3363 19.8958 18.6181 20.2551 17.7184C20.397 17.363 20.479 16.9995 20.5064 16.6048C20.5133 16.5043 20.5133 3.49515 20.5064 3.39459C20.479 2.99964 20.3971 2.63673 20.2551 2.28104C19.824 1.20158 18.9012 0.393047 17.7748 0.10787C17.566 0.0550091 17.345 0.0203159 17.1163 0.00451173C17.0683 0.00119165 14.7407 -0.000315661 10.2433 5.49067e-05C4.74258 0.000510605 3.42707 0.00185266 3.36024 0.00707566ZM8.07496 5.09905C8.53873 5.13273 8.89312 5.19439 9.20669 5.29598C9.54417 5.4053 9.78855 5.51593 10.0216 5.66489C10.4111 5.91385 10.6944 6.20168 10.9216 6.57947C10.9688 6.6578 11.0544 6.82663 11.0892 6.90998C11.1865 7.14234 11.2607 7.41658 11.2995 7.68617C11.3625 8.12408 11.3312 8.65722 11.217 9.09247C11.1127 9.48988 10.9426 9.81981 10.6772 10.1399C10.614 10.2161 10.4096 10.4201 10.3312 10.4853C9.85936 10.8773 9.30357 11.1077 8.56289 11.2186C8.27767 11.2612 8.06039 11.2781 7.67935 11.287C7.44873 11.2925 7.22794 11.2891 7.00833 11.2767C6.96701 11.2744 6.88645 11.2723 6.8293 11.2721L6.72539 11.2717V12.664C6.72539 14.0242 6.72517 14.0567 6.71584 14.0749C6.70354 14.0988 6.68268 14.1185 6.6592 14.1283C6.64262 14.1352 6.54846 14.136 5.79788 14.136C5.20161 14.136 4.94939 14.1344 4.93539 14.1305C4.90981 14.1234 4.88492 14.0983 4.878 14.0726C4.87406 14.058 4.87288 12.8116 4.8738 9.62106C4.87498 5.46248 4.87558 5.18889 4.88357 5.17431C4.90261 5.13955 4.8982 5.14024 5.12294 5.13657C5.23448 5.13475 5.35617 5.13181 5.39335 5.13005C5.45726 5.12702 5.74599 5.11946 6.27721 5.10692C6.40665 5.10386 6.62524 5.09839 6.76295 5.09476C7.1162 5.08544 7.92401 5.08809 8.07496 5.09905ZM6.98329 6.7748C6.86486 6.7767 6.76063 6.78001 6.75168 6.78215L6.73541 6.78604V8.22192V9.65781L6.77171 9.66094C6.90941 9.67281 7.01563 9.67494 7.36637 9.67286C7.77042 9.67047 7.79337 9.6693 7.98733 9.6414C8.25753 9.60253 8.57629 9.51285 8.74429 9.42845C8.96203 9.31904 9.18128 9.12688 9.2895 8.9506C9.37317 8.81431 9.43321 8.62702 9.45727 8.4273C9.46832 8.33553 9.47271 8.10151 9.46494 8.01837C9.44623 7.81828 9.38101 7.61137 9.28464 7.44636C9.20542 7.31071 9.06289 7.16303 8.91603 7.06442C8.74194 6.94754 8.47704 6.85275 8.18395 6.80245C8.0226 6.77477 7.99495 6.77338 7.58421 6.77232C7.37213 6.77178 7.10172 6.77289 6.98329 6.7748ZM16.583 7.14466C16.6046 7.15445 16.6333 7.18381 16.6409 7.20381C16.6437 7.21124 16.6456 7.5607 16.6456 8.08836C16.6456 9.07828 16.6499 8.98476 16.603 9.00819L16.578 9.02071L16.3802 9.02401C16.0454 9.02958 15.8643 9.04976 15.5719 9.11404C15.3191 9.1696 15.0573 9.25461 14.8669 9.343C14.7219 9.4103 14.5666 9.51845 14.4705 9.61901L14.4322 9.65908L14.432 11.8588C14.4317 14.2046 14.433 14.0802 14.4089 14.1068C14.4038 14.1124 14.3929 14.1208 14.3846 14.1253C14.3709 14.1329 14.2957 14.1337 13.4883 14.135C12.8007 14.1361 12.6019 14.135 12.5844 14.1302C12.5556 14.1223 12.5173 14.0852 12.5097 14.0578C12.5059 14.0441 12.5043 13.2931 12.5042 11.482C12.5041 9.94592 12.5021 8.85761 12.4992 8.7553C12.4965 8.66166 12.4898 8.39913 12.4842 8.17191C12.4741 7.75423 12.4723 7.71361 12.4536 7.48836C12.448 7.41951 12.4444 7.35483 12.4457 7.34463C12.4489 7.32029 12.4636 7.30032 12.4875 7.28801C12.5065 7.27815 12.5153 7.27807 13.2854 7.28055L14.0641 7.28305L14.0927 7.29646C14.1324 7.31503 14.154 7.33326 14.1769 7.36727C14.1997 7.40117 14.2315 7.49472 14.2436 7.56348C14.2479 7.58827 14.2572 7.6401 14.2642 7.67866C14.2936 7.84079 14.3058 7.95079 14.31 8.08928C14.3137 8.21353 14.3123 8.20973 14.3411 8.17651C14.6144 7.86131 14.9763 7.58813 15.3761 7.39526C15.686 7.24582 16.047 7.156 16.4002 7.14052C16.5433 7.13425 16.561 7.13465 16.583 7.14466Z" fill="#757575"/>
<path fill-rule="evenodd" clip-rule="evenodd" d="M3.36024 0.00707566C3.1343 0.0247277 2.93642 0.0573026 2.72176 0.112177C1.61978 0.393888 0.706649 1.18799 0.271487 2.24306C0.121537 2.60662 0.0332922 2.98823 0.00520923 3.39459C-0.00173641 3.49507 -0.00173641 16.5044 0.00520923 16.6048C0.0202723 16.8228 0.0515151 17.028 0.100345 17.2297C0.311473 18.1019 0.840013 18.8643 1.58752 19.375C2.06241 19.6995 2.6308 19.9113 3.20361 19.9774C3.41112 20.0014 2.98909 20 10.2558 20C14.7386 19.9999 17.0684 19.9982 17.1163 19.9949C17.535 19.966 17.9278 19.8733 18.2981 19.716C19.1922 19.3363 19.8958 18.6181 20.2551 17.7184C20.397 17.363 20.479 16.9995 20.5064 16.6048C20.5133 16.5043 20.5133 3.49515 20.5064 3.39459C20.479 2.99964 20.3971 2.63673 20.2551 2.28104C19.824 1.20158 18.9012 0.393047 17.7748 0.10787C17.566 0.0550091 17.345 0.0203159 17.1163 0.00451173C17.0683 0.00119165 14.7407 -0.000315661 10.2433 5.49067e-05C4.74258 0.000510605 3.42707 0.00185266 3.36024 0.00707566ZM7.94726 5.09223C8.58054 5.1216 9.05293 5.2175 9.54221 5.41601C9.91192 5.56602 10.2755 5.80849 10.5418 6.08254C10.8252 6.37431 11.0392 6.72818 11.1662 7.11529C11.2875 7.48508 11.3383 7.82736 11.3307 8.22199C11.3158 8.98709 11.1225 9.58269 10.7287 10.0766C10.3553 10.5449 9.8477 10.8842 9.24926 11.0654C8.83292 11.1915 8.4461 11.2537 7.89969 11.2825C7.74613 11.2906 7.17315 11.2908 7.09596 11.2829C7.06429 11.2796 6.96796 11.2754 6.88191 11.2735L6.72545 11.2701L6.72417 12.6697L6.72289 14.0693L6.70855 14.09C6.69959 14.1029 6.68467 14.1154 6.66876 14.1234L6.6433 14.136H5.79623C5.17612 14.136 4.9446 14.1345 4.93214 14.1303C4.90928 14.1227 4.89317 14.1076 4.88202 14.0835C4.87305 14.064 4.87277 13.9296 4.87266 9.63146L4.87255 5.19948L4.88382 5.17713C4.9027 5.1397 4.91204 5.13731 5.04031 5.13709C5.1009 5.13699 5.21358 5.13483 5.29069 5.1323C5.36781 5.12976 5.52443 5.12531 5.63873 5.12241C5.75303 5.11951 5.92316 5.11492 6.01681 5.11221C6.11045 5.10951 6.3065 5.10484 6.45247 5.10185C6.59845 5.09885 6.7776 5.09468 6.85058 5.09258C7.0514 5.08681 7.82495 5.08656 7.94726 5.09223ZM7.22102 6.77156C7.21963 6.77295 7.11825 6.77525 6.99573 6.77667C6.87321 6.77809 6.76452 6.78075 6.75419 6.78257L6.73541 6.78588V8.22189V9.6579L6.78423 9.66122C6.81108 9.66305 6.86686 9.66668 6.90817 9.66928C7.00916 9.67563 7.60915 9.67551 7.70948 9.66911C7.98316 9.65165 8.20474 9.61144 8.47307 9.53053C8.76198 9.44342 8.95235 9.32877 9.15411 9.12037C9.32847 8.94027 9.42226 8.72239 9.45782 8.41478C9.47042 8.30585 9.47054 8.04291 9.45804 7.95908C9.42188 7.71658 9.33308 7.49586 9.20723 7.33563C9.1141 7.21705 8.99704 7.11247 8.87382 7.03775C8.70645 6.93627 8.44647 6.84776 8.19014 6.80499C8.00833 6.77466 7.9868 6.77345 7.58917 6.77115C7.38808 6.76998 7.22241 6.77017 7.22102 6.77156ZM16.592 7.1473C16.6139 7.15817 16.6338 7.18205 16.6434 7.20918C16.649 7.22459 16.6502 7.38136 16.6503 8.08177C16.6503 8.57719 16.6484 8.94383 16.6458 8.95523C16.6398 8.98113 16.6268 8.9977 16.6027 9.01035C16.5841 9.02012 16.572 9.02089 16.3894 9.02391C16.283 9.02567 16.1804 9.02844 16.1616 9.03007C16.1427 9.0317 16.098 9.03547 16.0622 9.03845C15.6463 9.07303 15.164 9.1999 14.8352 9.36124C14.6968 9.42913 14.5441 9.53803 14.4632 9.62651L14.4373 9.6549L14.436 11.8567L14.4347 14.0584L14.4242 14.081C14.4184 14.0934 14.4089 14.1077 14.4032 14.1127C14.3765 14.1364 14.4101 14.1356 13.4732 14.1357C12.6312 14.1358 12.591 14.1354 12.5718 14.1267C12.5462 14.115 12.5164 14.082 12.5094 14.0575C12.5056 14.0439 12.5036 13.2655 12.5025 11.3818C12.5014 9.54286 12.4992 8.68442 12.4953 8.59255C12.4923 8.51957 12.4873 8.34267 12.4843 8.19945C12.4771 7.85505 12.4713 7.71439 12.4565 7.532C12.4497 7.44858 12.4442 7.36948 12.4442 7.35622C12.4442 7.32651 12.4592 7.30182 12.485 7.28915C12.5022 7.28071 12.5445 7.28025 13.2716 7.28047C14.1185 7.28072 14.0725 7.27903 14.1235 7.31175C14.187 7.35248 14.2234 7.43764 14.2545 7.61856C14.2865 7.80423 14.2917 7.83847 14.2991 7.91151C14.3056 7.97679 14.3169 8.15219 14.317 8.19064C14.317 8.19946 14.3259 8.19193 14.3583 8.15563C14.6369 7.84378 14.9644 7.59803 15.3638 7.40098C15.6652 7.25229 16.0163 7.16166 16.3727 7.14059C16.4891 7.13371 16.5696 7.13617 16.592 7.1473Z" fill="#808080"/>
<path fill-rule="evenodd" clip-rule="evenodd" d="M3.36024 0.00707566C3.1343 0.0247277 2.93642 0.0573026 2.72176 0.112177C1.61978 0.393888 0.706649 1.18799 0.271487 2.24306C0.121537 2.60662 0.0332922 2.98823 0.00520923 3.39459C-0.00173641 3.49507 -0.00173641 16.5044 0.00520923 16.6048C0.0202723 16.8228 0.0515151 17.028 0.100345 17.2297C0.311473 18.1019 0.840013 18.8643 1.58752 19.375C2.06241 19.6995 2.6308 19.9113 3.20361 19.9774C3.41112 20.0014 2.98909 20 10.2558 20C14.7386 19.9999 17.0684 19.9982 17.1163 19.9949C17.535 19.966 17.9278 19.8733 18.2981 19.716C19.1922 19.3363 19.8958 18.6181 20.2551 17.7184C20.397 17.363 20.479 16.9995 20.5064 16.6048C20.5133 16.5043 20.5133 3.49515 20.5064 3.39459C20.479 2.99964 20.3971 2.63673 20.2551 2.28104C19.824 1.20158 18.9012 0.393047 17.7748 0.10787C17.566 0.0550091 17.345 0.0203159 17.1163 0.00451173C17.0683 0.00119165 14.7407 -0.000315661 10.2433 5.49067e-05C4.74258 0.000510605 3.42707 0.00185266 3.36024 0.00707566ZM7.9698 5.09225C8.5918 5.12371 9.05296 5.21768 9.52969 5.4101C10.0232 5.60927 10.4607 5.93832 10.7592 6.33479C11.0748 6.7539 11.2607 7.25433 11.3209 7.84641C11.3333 7.96845 11.3333 8.34073 11.3208 8.47988C11.2749 8.99276 11.1535 9.4057 10.9417 9.76936C10.661 10.2514 10.1872 10.6727 9.65488 10.9138C9.18947 11.1246 8.63552 11.2429 7.93224 11.2819C7.77506 11.2906 7.29201 11.2936 7.17859 11.2866C7.1235 11.2832 6.99898 11.2794 6.90188 11.2781L6.72532 11.2758L6.72543 12.6691L6.72553 14.0623L6.71267 14.0843C6.70559 14.0963 6.69051 14.1124 6.67916 14.1199L6.65852 14.1335L5.79975 14.1348L4.94099 14.1361L4.91948 14.1257C4.90682 14.1196 4.89326 14.1077 4.88652 14.0969L4.87506 14.0785V9.63076V5.18307L4.8856 5.16893C4.90862 5.13804 4.90156 5.1389 5.18303 5.13281C5.32487 5.12973 5.51754 5.12503 5.61119 5.12236C6.07683 5.10908 6.74312 5.09311 7.08594 5.08702C7.34777 5.08236 7.83099 5.08522 7.9698 5.09225ZM7.27542 6.77225C7.27405 6.77361 7.16382 6.77572 7.03046 6.77693C6.8971 6.77814 6.77616 6.78068 6.7617 6.78259L6.73541 6.78606V8.22188V9.6577L6.84432 9.6647C6.99252 9.67424 7.66242 9.67456 7.76699 9.66514C8.03281 9.64122 8.24382 9.60027 8.48533 9.52574C8.68239 9.46493 8.8124 9.40151 8.95381 9.29723C9.07621 9.20696 9.20119 9.08186 9.26521 8.98554C9.37295 8.82341 9.43543 8.63028 9.46038 8.38223C9.47013 8.28526 9.46874 8.04318 9.458 7.9666C9.4354 7.80556 9.39666 7.67736 9.32676 7.53221C9.26833 7.41091 9.20088 7.31682 9.10166 7.21819C8.97496 7.09226 8.83979 7.00541 8.66262 6.93609C8.43027 6.84519 8.19013 6.79285 7.92308 6.77492C7.847 6.76981 7.2802 6.76747 7.27542 6.77225ZM16.6014 7.15288C16.6155 7.16273 16.6278 7.17733 16.6368 7.19509L16.6506 7.22225L16.6506 8.08142C16.6505 8.68463 16.6489 8.94656 16.6451 8.96062C16.6377 8.98774 16.619 9.00621 16.5884 9.01652C16.5672 9.02368 16.5462 9.02496 16.463 9.02409C16.2172 9.02153 15.9412 9.04392 15.7267 9.08383C15.4307 9.1389 15.1696 9.21589 14.9215 9.32132C14.7491 9.39458 14.5985 9.49314 14.4836 9.60789L14.4373 9.65424L14.436 11.8588C14.4349 13.6644 14.4335 14.0662 14.4281 14.0785C14.4183 14.101 14.3923 14.1255 14.3723 14.1311C14.361 14.1342 14.036 14.136 13.4725 14.136L12.5905 14.136L12.5637 14.1221C12.5429 14.1113 12.5331 14.1019 12.5205 14.081L12.5042 14.0539L12.504 11.5648C12.5039 10.1959 12.5018 8.98002 12.4994 8.86297C12.4804 7.96102 12.4673 7.61316 12.4444 7.39987C12.4375 7.33554 12.4493 7.30508 12.4884 7.28667C12.5056 7.27859 12.5561 7.2782 13.2879 7.28055L14.0691 7.28305L14.0938 7.29441C14.1274 7.30993 14.1588 7.33661 14.1796 7.36743C14.1996 7.39696 14.2321 7.49211 14.244 7.55597C14.292 7.81263 14.3027 7.89849 14.316 8.13631L14.3195 8.19836L14.3753 8.13631C14.7248 7.7474 15.2246 7.41805 15.6966 7.26565C15.955 7.18222 16.2511 7.13493 16.5012 7.13714L16.5797 7.13783L16.6014 7.15288Z" fill="#757575"/>
<path fill-rule="evenodd" clip-rule="evenodd" d="M3.36024 0.00707566C3.1343 0.0247277 2.93642 0.0573026 2.72176 0.112177C1.61978 0.393888 0.706649 1.18799 0.271487 2.24306C0.121537 2.60662 0.0332922 2.98823 0.00520923 3.39459C-0.00173641 3.49507 -0.00173641 16.5044 0.00520923 16.6048C0.0202723 16.8228 0.0515151 17.028 0.100345 17.2297C0.311473 18.1019 0.840013 18.8643 1.58752 19.375C2.06241 19.6995 2.6308 19.9113 3.20361 19.9774C3.41112 20.0014 2.98909 20 10.2558 20C14.7386 19.9999 17.0684 19.9982 17.1163 19.9949C17.535 19.966 17.9278 19.8733 18.2981 19.716C19.1922 19.3363 19.8958 18.6181 20.2551 17.7184C20.397 17.363 20.479 16.9995 20.5064 16.6048C20.5133 16.5043 20.5133 3.49515 20.5064 3.39459C20.479 2.99964 20.3971 2.63673 20.2551 2.28104C19.824 1.20158 18.9012 0.393047 17.7748 0.10787C17.566 0.0550091 17.345 0.0203159 17.1163 0.00451173C17.0683 0.00119165 14.7407 -0.000315661 10.2433 5.49067e-05C4.74258 0.000510605 3.42707 0.00185266 3.36024 0.00707566ZM7.98983 5.09183C8.54688 5.12335 8.94357 5.19683 9.36096 5.34581C9.7027 5.46778 9.95284 5.59938 10.2132 5.79415C10.4847 5.99721 10.6801 6.20366 10.8594 6.47681C10.9863 6.67002 11.0929 6.88801 11.162 7.09526C11.2536 7.36981 11.3081 7.64534 11.3279 7.93382C11.3356 8.04587 11.3311 8.3795 11.3203 8.49741C11.2499 9.26715 11.0026 9.82744 10.5187 10.3131C10.4636 10.3684 10.3949 10.4339 10.366 10.4587C10.0374 10.7402 9.66883 10.9401 9.23674 11.0713C8.81934 11.1981 8.38148 11.2651 7.82958 11.2867C7.67278 11.2928 7.22379 11.2925 7.14353 11.2862C7.11048 11.2836 7.00401 11.2802 6.90692 11.2785L6.7304 11.2755V12.656C6.7304 13.6344 6.72881 14.0428 6.72495 14.0581C6.71811 14.0853 6.69557 14.113 6.66857 14.1274L6.64777 14.1385H5.79397H4.94016L4.91762 14.126C4.90098 14.1168 4.89181 14.107 4.88257 14.0885L4.87005 14.0634V9.62914V5.19485L4.88214 5.17375C4.90453 5.13466 4.9003 5.13531 5.15799 5.13167C5.28331 5.1299 5.46696 5.12593 5.56612 5.12285C5.7949 5.11573 6.253 5.10392 6.58267 5.09664C6.72314 5.09354 6.91356 5.08925 7.00582 5.08712C7.22822 5.08197 7.86986 5.08505 7.98983 5.09183ZM7.33087 6.77182C7.32925 6.77348 7.20756 6.77597 7.06046 6.77735C6.91336 6.77874 6.7806 6.78155 6.76545 6.78358L6.73791 6.78729L6.73665 8.22064L6.73539 9.65399L6.74667 9.65633C6.81356 9.67028 7.43562 9.67959 7.6468 9.66981C7.9525 9.65566 8.20281 9.6124 8.48559 9.52486C8.59638 9.49057 8.65506 9.46817 8.73096 9.43121C8.89328 9.35218 9.06061 9.22532 9.18271 9.08873C9.32931 8.92472 9.41796 8.71294 9.45214 8.44506C9.46271 8.36226 9.4712 8.16669 9.46738 8.09429C9.45575 7.87408 9.40174 7.67157 9.30681 7.49221C9.22018 7.32853 9.07105 7.16828 8.90373 7.05906C8.7216 6.94017 8.43213 6.8418 8.13383 6.79743C7.99558 6.77686 7.93428 6.77365 7.63178 6.77122C7.4679 6.76989 7.3325 6.77016 7.33087 6.77182ZM16.5902 7.14519C16.6139 7.15729 16.6391 7.18694 16.6457 7.21044C16.6487 7.2215 16.6505 7.54667 16.6506 8.09146C16.6506 8.95451 16.6506 8.95497 16.6402 8.97637C16.6319 8.9935 16.6242 9.00058 16.6014 9.01175L16.573 9.02572L16.3551 9.02904C16.0096 9.03431 15.8199 9.05768 15.4838 9.1364C15.3974 9.15663 15.2922 9.18705 15.183 9.22337C14.8536 9.33299 14.6408 9.45094 14.4811 9.61253L14.4373 9.65682L14.436 11.8626L14.4347 14.0684L14.4222 14.091C14.4129 14.1076 14.4031 14.1168 14.3846 14.126L14.3596 14.1385H13.4782C12.7421 14.1385 12.5937 14.1374 12.5773 14.1316C12.548 14.1213 12.5165 14.0871 12.5071 14.0555C12.5 14.0317 12.4992 13.7735 12.4992 11.4197C12.4992 9.83704 12.4972 8.75226 12.4943 8.66266C12.4916 8.58141 12.4871 8.4124 12.4842 8.28709C12.4726 7.77579 12.4667 7.6453 12.4441 7.40611C12.441 7.37232 12.4409 7.34759 12.4441 7.336C12.4501 7.31399 12.4694 7.29255 12.4907 7.28427C12.5034 7.27936 12.672 7.27857 13.2879 7.28055L14.0691 7.28305L14.0978 7.29647C14.135 7.31394 14.1716 7.34858 14.1908 7.38452C14.2115 7.42334 14.2387 7.51538 14.2512 7.58852C14.2568 7.62157 14.2671 7.68104 14.2741 7.72068C14.2967 7.84863 14.308 7.95766 14.3161 8.12575L14.3195 8.19726L14.3629 8.14828C14.4221 8.08148 14.5874 7.91941 14.657 7.85998C14.9283 7.6283 15.2608 7.42756 15.5702 7.30872C15.7889 7.22471 16.0496 7.16543 16.2875 7.14562C16.3865 7.13737 16.3915 7.13714 16.4843 7.1362C16.5616 7.13542 16.5729 7.13638 16.5902 7.14519Z" fill="#757575"/>
</svg>
