<svg width="20" height="20" viewBox="0 0 20 20" fill="none" xmlns="http://www.w3.org/2000/svg">
<path fill-rule="evenodd" clip-rule="evenodd" d="M8.87565 0.0343249C7.48879 0.122941 6.42129 0.380166 5.86474 0.759799C5.5701 0.960782 5.42705 1.1275 5.28727 1.43285C5.11701 1.80473 5.07991 2.1523 5.07841 3.38939L5.07704 4.52171H7.45984H9.84264V4.8171V5.11249H6.34366C2.96477 5.11249 2.83397 5.11521 2.53315 5.19189C1.49815 5.45565 0.767514 6.14844 0.407219 7.20774C0.292411 7.54531 0.0978485 8.48909 0.0330993 9.02257C-0.0343674 9.57837 0.00623863 10.8377 0.110215 11.4141C0.232152 12.0902 0.418089 12.7985 0.565114 13.1471C0.83758 13.7931 1.28807 14.3157 1.78223 14.559C2.21063 14.7698 2.42843 14.8 3.52841 14.8006L4.52013 14.8012L4.53455 13.4523C4.54821 12.1713 4.55353 12.0894 4.63966 11.8277C4.96467 10.8396 5.68002 10.124 6.67213 9.79424C6.94767 9.70267 6.94941 9.70259 9.80325 9.67947C12.9509 9.65399 12.815 9.66486 13.3476 9.39669C13.7075 9.21547 14.1629 8.75995 14.3429 8.40107C14.6392 7.81033 14.624 7.97791 14.6384 5.15439C14.6469 3.49671 14.637 2.52323 14.6097 2.34741C14.4652 1.41596 13.723 0.624669 12.6981 0.309194C12.3365 0.197891 11.5179 0.0844622 10.7091 0.033616C9.99266 -0.0114012 9.58849 -0.0112437 8.87565 0.0343249ZM7.5329 1.59315C7.85089 1.75345 8.04341 2.05581 8.04341 2.39491C8.04341 2.88565 7.66212 3.26139 7.16413 3.26139C6.78064 3.26139 6.42157 2.96387 6.33429 2.57376C6.1799 1.88389 6.91561 1.28193 7.5329 1.59315ZM15.199 6.27088C15.199 7.10947 15.1835 7.51018 15.1429 7.72234C14.9245 8.86388 14.1446 9.74138 13.0131 10.1185L12.7374 10.2103L9.86233 10.2318L6.98722 10.2532L6.72649 10.3543C6.36351 10.495 6.14177 10.6322 5.8686 10.8852C5.57148 11.1602 5.37924 11.4495 5.22119 11.8594L5.09673 12.1821L5.08531 14.8138C5.07282 17.6921 5.07203 17.6806 5.30456 18.1479C5.43457 18.4093 5.83437 18.8433 6.11917 19.0324C7.2468 19.7809 9.19731 20.1546 10.8548 19.9399C12.4739 19.73 13.6993 19.1847 14.2399 18.4334C14.5978 17.9359 14.6187 17.8357 14.6381 16.5243L14.6548 15.392H12.2684H9.88202V15.0966V14.8012H13.5789C15.8974 14.8012 17.3537 14.7864 17.4849 14.7615C18.3307 14.6012 18.856 13.9723 19.3485 12.5306C19.6784 11.5647 19.793 10.8044 19.7541 9.83871C19.701 8.51706 19.3369 6.95756 18.911 6.22768C18.7039 5.87282 18.3372 5.49472 18.0503 5.34025C17.6719 5.13647 17.4869 5.11249 16.2935 5.11249H15.199V6.27088ZM12.7685 16.6675C13.2399 16.8094 13.5021 17.2787 13.3679 17.7403C13.1403 18.5233 12.1426 18.618 11.7612 17.893C11.5753 17.5396 11.7027 17.0304 12.0355 16.7964C12.2858 16.6206 12.4919 16.5843 12.7685 16.6675Z" fill="white"/>
<path fill-rule="evenodd" clip-rule="evenodd" d="M8.87565 0.0343249C7.48879 0.122941 6.42129 0.380166 5.86474 0.759799C5.5701 0.960782 5.42705 1.1275 5.28727 1.43285C5.11701 1.80473 5.07991 2.1523 5.07841 3.38939L5.07704 4.52171H7.45984H9.84264V4.8171V5.11249H6.34366C2.96477 5.11249 2.83397 5.11521 2.53315 5.19189C1.49815 5.45565 0.767514 6.14844 0.407219 7.20774C0.292411 7.54531 0.0978485 8.48909 0.0330993 9.02257C-0.0343674 9.57837 0.00623863 10.8377 0.110215 11.4141C0.232152 12.0902 0.418089 12.7985 0.565114 13.1471C0.83758 13.7931 1.28807 14.3157 1.78223 14.559C2.21063 14.7698 2.42843 14.8 3.52841 14.8006L4.52013 14.8012L4.53455 13.4523C4.54821 12.1713 4.55353 12.0894 4.63966 11.8277C4.96467 10.8396 5.68002 10.124 6.67213 9.79424C6.94767 9.70267 6.94941 9.70259 9.80325 9.67947C12.9509 9.65399 12.815 9.66486 13.3476 9.39669C13.7075 9.21547 14.1629 8.75995 14.3429 8.40107C14.6392 7.81033 14.624 7.97791 14.6384 5.15439C14.6469 3.49671 14.637 2.52323 14.6097 2.34741C14.4652 1.41596 13.723 0.624669 12.6981 0.309194C12.3365 0.197891 11.5179 0.0844622 10.7091 0.033616C9.99266 -0.0114012 9.58849 -0.0112437 8.87565 0.0343249ZM7.5329 1.59315C7.85089 1.75345 8.04341 2.05581 8.04341 2.39491C8.04341 2.88565 7.66212 3.26139 7.16413 3.26139C6.78064 3.26139 6.42157 2.96387 6.33429 2.57376C6.1799 1.88389 6.91561 1.28193 7.5329 1.59315ZM15.199 6.27088C15.199 7.10947 15.1835 7.51018 15.1429 7.72234C14.9245 8.86388 14.1446 9.74138 13.0131 10.1185L12.7374 10.2103L9.86233 10.2318L6.98722 10.2532L6.72649 10.3543C6.36351 10.495 6.14177 10.6322 5.8686 10.8852C5.57148 11.1602 5.37924 11.4495 5.22119 11.8594L5.09673 12.1821L5.08531 14.8138C5.07282 17.6921 5.07203 17.6806 5.30456 18.1479C5.43457 18.4093 5.83437 18.8433 6.11917 19.0324C7.2468 19.7809 9.19731 20.1546 10.8548 19.9399C12.4739 19.73 13.6993 19.1847 14.2399 18.4334C14.5978 17.9359 14.6187 17.8357 14.6381 16.5243L14.6548 15.392H12.2684H9.88202V15.0966V14.8012H13.5789C15.8974 14.8012 17.3537 14.7864 17.4849 14.7615C18.3307 14.6012 18.856 13.9723 19.3485 12.5306C19.6784 11.5647 19.793 10.8044 19.7541 9.83871C19.701 8.51706 19.3369 6.95756 18.911 6.22768C18.7039 5.87282 18.3372 5.49472 18.0503 5.34025C17.6719 5.13647 17.4869 5.11249 16.2935 5.11249H15.199V6.27088ZM12.7685 16.6675C13.2399 16.8094 13.5021 17.2787 13.3679 17.7403C13.1403 18.5233 12.1426 18.618 11.7612 17.893C11.5753 17.5396 11.7027 17.0304 12.0355 16.7964C12.2858 16.6206 12.4919 16.5843 12.7685 16.6675Z" fill="white"/>
<path fill-rule="evenodd" clip-rule="evenodd" d="M8.87565 0.0343249C7.48879 0.122941 6.42129 0.380166 5.86474 0.759799C5.5701 0.960782 5.42705 1.1275 5.28727 1.43285C5.11701 1.80473 5.07991 2.1523 5.07841 3.38939L5.07704 4.52171H7.45984H9.84264V4.8171V5.11249H6.34366C2.96477 5.11249 2.83397 5.11521 2.53315 5.19189C1.49815 5.45565 0.767514 6.14844 0.407219 7.20774C0.292411 7.54531 0.0978485 8.48909 0.0330993 9.02257C-0.0343674 9.57837 0.00623863 10.8377 0.110215 11.4141C0.232152 12.0902 0.418089 12.7985 0.565114 13.1471C0.83758 13.7931 1.28807 14.3157 1.78223 14.559C2.21063 14.7698 2.42843 14.8 3.52841 14.8006L4.52013 14.8012L4.53455 13.4523C4.54821 12.1713 4.55353 12.0894 4.63966 11.8277C4.96467 10.8396 5.68002 10.124 6.67213 9.79424C6.94767 9.70267 6.94941 9.70259 9.80325 9.67947C12.9509 9.65399 12.815 9.66486 13.3476 9.39669C13.7075 9.21547 14.1629 8.75995 14.3429 8.40107C14.6392 7.81033 14.624 7.97791 14.6384 5.15439C14.6469 3.49671 14.637 2.52323 14.6097 2.34741C14.4652 1.41596 13.723 0.624669 12.6981 0.309194C12.3365 0.197891 11.5179 0.0844622 10.7091 0.033616C9.99266 -0.0114012 9.58849 -0.0112437 8.87565 0.0343249ZM7.5329 1.59315C7.85089 1.75345 8.04341 2.05581 8.04341 2.39491C8.04341 2.88565 7.66212 3.26139 7.16413 3.26139C6.78064 3.26139 6.42157 2.96387 6.33429 2.57376C6.1799 1.88389 6.91561 1.28193 7.5329 1.59315ZM15.199 6.27088C15.199 7.10947 15.1835 7.51018 15.1429 7.72234C14.9245 8.86388 14.1446 9.74138 13.0131 10.1185L12.7374 10.2103L9.86233 10.2318L6.98722 10.2532L6.72649 10.3543C6.36351 10.495 6.14177 10.6322 5.8686 10.8852C5.57148 11.1602 5.37924 11.4495 5.22119 11.8594L5.09673 12.1821L5.08531 14.8138C5.07282 17.6921 5.07203 17.6806 5.30456 18.1479C5.43457 18.4093 5.83437 18.8433 6.11917 19.0324C7.2468 19.7809 9.19731 20.1546 10.8548 19.9399C12.4739 19.73 13.6993 19.1847 14.2399 18.4334C14.5978 17.9359 14.6187 17.8357 14.6381 16.5243L14.6548 15.392H12.2684H9.88202V15.0966V14.8012H13.5789C15.8974 14.8012 17.3537 14.7864 17.4849 14.7615C18.3307 14.6012 18.856 13.9723 19.3485 12.5306C19.6784 11.5647 19.793 10.8044 19.7541 9.83871C19.701 8.51706 19.3369 6.95756 18.911 6.22768C18.7039 5.87282 18.3372 5.49472 18.0503 5.34025C17.6719 5.13647 17.4869 5.11249 16.2935 5.11249H15.199V6.27088ZM12.7685 16.6675C13.2399 16.8094 13.5021 17.2787 13.3679 17.7403C13.1403 18.5233 12.1426 18.618 11.7612 17.893C11.5753 17.5396 11.7027 17.0304 12.0355 16.7964C12.2858 16.6206 12.4919 16.5843 12.7685 16.6675Z" fill="white"/>
<path fill-rule="evenodd" clip-rule="evenodd" d="M8.87565 0.0343249C7.48879 0.122941 6.42129 0.380166 5.86474 0.759799C5.5701 0.960782 5.42705 1.1275 5.28727 1.43285C5.11701 1.80473 5.07991 2.1523 5.07841 3.38939L5.07704 4.52171H7.45984H9.84264V4.8171V5.11249H6.34366C2.96477 5.11249 2.83397 5.11521 2.53315 5.19189C1.49815 5.45565 0.767514 6.14844 0.407219 7.20774C0.292411 7.54531 0.0978485 8.48909 0.0330993 9.02257C-0.0343674 9.57837 0.00623863 10.8377 0.110215 11.4141C0.232152 12.0902 0.418089 12.7985 0.565114 13.1471C0.83758 13.7931 1.28807 14.3157 1.78223 14.559C2.21063 14.7698 2.42843 14.8 3.52841 14.8006L4.52013 14.8012L4.53455 13.4523C4.54821 12.1713 4.55353 12.0894 4.63966 11.8277C4.96467 10.8396 5.68002 10.124 6.67213 9.79424C6.94767 9.70267 6.94941 9.70259 9.80325 9.67947C12.9509 9.65399 12.815 9.66486 13.3476 9.39669C13.7075 9.21547 14.1629 8.75995 14.3429 8.40107C14.6392 7.81033 14.624 7.97791 14.6384 5.15439C14.6469 3.49671 14.637 2.52323 14.6097 2.34741C14.4652 1.41596 13.723 0.624669 12.6981 0.309194C12.3365 0.197891 11.5179 0.0844622 10.7091 0.033616C9.99266 -0.0114012 9.58849 -0.0112437 8.87565 0.0343249ZM7.5329 1.59315C7.85089 1.75345 8.04341 2.05581 8.04341 2.39491C8.04341 2.88565 7.66212 3.26139 7.16413 3.26139C6.78064 3.26139 6.42157 2.96387 6.33429 2.57376C6.1799 1.88389 6.91561 1.28193 7.5329 1.59315ZM15.199 6.27088C15.199 7.10947 15.1835 7.51018 15.1429 7.72234C14.9245 8.86388 14.1446 9.74138 13.0131 10.1185L12.7374 10.2103L9.86233 10.2318L6.98722 10.2532L6.72649 10.3543C6.36351 10.495 6.14177 10.6322 5.8686 10.8852C5.57148 11.1602 5.37924 11.4495 5.22119 11.8594L5.09673 12.1821L5.08531 14.8138C5.07282 17.6921 5.07203 17.6806 5.30456 18.1479C5.43457 18.4093 5.83437 18.8433 6.11917 19.0324C7.2468 19.7809 9.19731 20.1546 10.8548 19.9399C12.4739 19.73 13.6993 19.1847 14.2399 18.4334C14.5978 17.9359 14.6187 17.8357 14.6381 16.5243L14.6548 15.392H12.2684H9.88202V15.0966V14.8012H13.5789C15.8974 14.8012 17.3537 14.7864 17.4849 14.7615C18.3307 14.6012 18.856 13.9723 19.3485 12.5306C19.6784 11.5647 19.793 10.8044 19.7541 9.83871C19.701 8.51706 19.3369 6.95756 18.911 6.22768C18.7039 5.87282 18.3372 5.49472 18.0503 5.34025C17.6719 5.13647 17.4869 5.11249 16.2935 5.11249H15.199V6.27088ZM12.7685 16.6675C13.2399 16.8094 13.5021 17.2787 13.3679 17.7403C13.1403 18.5233 12.1426 18.618 11.7612 17.893C11.5753 17.5396 11.7027 17.0304 12.0355 16.7964C12.2858 16.6206 12.4919 16.5843 12.7685 16.6675Z" fill="white"/>
<path fill-rule="evenodd" clip-rule="evenodd" d="M8.87565 0.0343249C7.48879 0.122941 6.42129 0.380166 5.86474 0.759799C5.5701 0.960782 5.42705 1.1275 5.28727 1.43285C5.11701 1.80473 5.07991 2.1523 5.07841 3.38939L5.07704 4.52171H7.45984H9.84264V4.8171V5.11249H6.34366C2.96477 5.11249 2.83397 5.11521 2.53315 5.19189C1.49815 5.45565 0.767514 6.14844 0.407219 7.20774C0.292411 7.54531 0.0978485 8.48909 0.0330993 9.02257C-0.0343674 9.57837 0.00623863 10.8377 0.110215 11.4141C0.232152 12.0902 0.418089 12.7985 0.565114 13.1471C0.83758 13.7931 1.28807 14.3157 1.78223 14.559C2.21063 14.7698 2.42843 14.8 3.52841 14.8006L4.52013 14.8012L4.53455 13.4523C4.54821 12.1713 4.55353 12.0894 4.63966 11.8277C4.96467 10.8396 5.68002 10.124 6.67213 9.79424C6.94767 9.70267 6.94941 9.70259 9.80325 9.67947C12.9509 9.65399 12.815 9.66486 13.3476 9.39669C13.7075 9.21547 14.1629 8.75995 14.3429 8.40107C14.6392 7.81033 14.624 7.97791 14.6384 5.15439C14.6469 3.49671 14.637 2.52323 14.6097 2.34741C14.4652 1.41596 13.723 0.624669 12.6981 0.309194C12.3365 0.197891 11.5179 0.0844622 10.7091 0.033616C9.99266 -0.0114012 9.58849 -0.0112437 8.87565 0.0343249ZM7.5329 1.59315C7.85089 1.75345 8.04341 2.05581 8.04341 2.39491C8.04341 2.88565 7.66212 3.26139 7.16413 3.26139C6.78064 3.26139 6.42157 2.96387 6.33429 2.57376C6.1799 1.88389 6.91561 1.28193 7.5329 1.59315ZM15.199 6.27088C15.199 7.10947 15.1835 7.51018 15.1429 7.72234C14.9245 8.86388 14.1446 9.74138 13.0131 10.1185L12.7374 10.2103L9.86233 10.2318L6.98722 10.2532L6.72649 10.3543C6.36351 10.495 6.14177 10.6322 5.8686 10.8852C5.57148 11.1602 5.37924 11.4495 5.22119 11.8594L5.09673 12.1821L5.08531 14.8138C5.07282 17.6921 5.07203 17.6806 5.30456 18.1479C5.43457 18.4093 5.83437 18.8433 6.11917 19.0324C7.2468 19.7809 9.19731 20.1546 10.8548 19.9399C12.4739 19.73 13.6993 19.1847 14.2399 18.4334C14.5978 17.9359 14.6187 17.8357 14.6381 16.5243L14.6548 15.392H12.2684H9.88202V15.0966V14.8012H13.5789C15.8974 14.8012 17.3537 14.7864 17.4849 14.7615C18.3307 14.6012 18.856 13.9723 19.3485 12.5306C19.6784 11.5647 19.793 10.8044 19.7541 9.83871C19.701 8.51706 19.3369 6.95756 18.911 6.22768C18.7039 5.87282 18.3372 5.49472 18.0503 5.34025C17.6719 5.13647 17.4869 5.11249 16.2935 5.11249H15.199V6.27088ZM12.7685 16.6675C13.2399 16.8094 13.5021 17.2787 13.3679 17.7403C13.1403 18.5233 12.1426 18.618 11.7612 17.893C11.5753 17.5396 11.7027 17.0304 12.0355 16.7964C12.2858 16.6206 12.4919 16.5843 12.7685 16.6675Z" fill="white"/>
<path fill-rule="evenodd" clip-rule="evenodd" d="M8.87565 0.0343249C7.48879 0.122941 6.42129 0.380166 5.86474 0.759799C5.5701 0.960782 5.42705 1.1275 5.28727 1.43285C5.11701 1.80473 5.07991 2.1523 5.07841 3.38939L5.07704 4.52171H7.45984H9.84264V4.8171V5.11249H6.34366C2.96477 5.11249 2.83397 5.11521 2.53315 5.19189C1.49815 5.45565 0.767514 6.14844 0.407219 7.20774C0.292411 7.54531 0.0978485 8.48909 0.0330993 9.02257C-0.0343674 9.57837 0.00623863 10.8377 0.110215 11.4141C0.232152 12.0902 0.418089 12.7985 0.565114 13.1471C0.83758 13.7931 1.28807 14.3157 1.78223 14.559C2.21063 14.7698 2.42843 14.8 3.52841 14.8006L4.52013 14.8012L4.53455 13.4523C4.54821 12.1713 4.55353 12.0894 4.63966 11.8277C4.96467 10.8396 5.68002 10.124 6.67213 9.79424C6.94767 9.70267 6.94941 9.70259 9.80325 9.67947C12.9509 9.65399 12.815 9.66486 13.3476 9.39669C13.7075 9.21547 14.1629 8.75995 14.3429 8.40107C14.6392 7.81033 14.624 7.97791 14.6384 5.15439C14.6469 3.49671 14.637 2.52323 14.6097 2.34741C14.4652 1.41596 13.723 0.624669 12.6981 0.309194C12.3365 0.197891 11.5179 0.0844622 10.7091 0.033616C9.99266 -0.0114012 9.58849 -0.0112437 8.87565 0.0343249ZM7.5329 1.59315C7.85089 1.75345 8.04341 2.05581 8.04341 2.39491C8.04341 2.88565 7.66212 3.26139 7.16413 3.26139C6.78064 3.26139 6.42157 2.96387 6.33429 2.57376C6.1799 1.88389 6.91561 1.28193 7.5329 1.59315ZM15.199 6.27088C15.199 7.10947 15.1835 7.51018 15.1429 7.72234C14.9245 8.86388 14.1446 9.74138 13.0131 10.1185L12.7374 10.2103L9.86233 10.2318L6.98722 10.2532L6.72649 10.3543C6.36351 10.495 6.14177 10.6322 5.8686 10.8852C5.57148 11.1602 5.37924 11.4495 5.22119 11.8594L5.09673 12.1821L5.08531 14.8138C5.07282 17.6921 5.07203 17.6806 5.30456 18.1479C5.43457 18.4093 5.83437 18.8433 6.11917 19.0324C7.2468 19.7809 9.19731 20.1546 10.8548 19.9399C12.4739 19.73 13.6993 19.1847 14.2399 18.4334C14.5978 17.9359 14.6187 17.8357 14.6381 16.5243L14.6548 15.392H12.2684H9.88202V15.0966V14.8012H13.5789C15.8974 14.8012 17.3537 14.7864 17.4849 14.7615C18.3307 14.6012 18.856 13.9723 19.3485 12.5306C19.6784 11.5647 19.793 10.8044 19.7541 9.83871C19.701 8.51706 19.3369 6.95756 18.911 6.22768C18.7039 5.87282 18.3372 5.49472 18.0503 5.34025C17.6719 5.13647 17.4869 5.11249 16.2935 5.11249H15.199V6.27088ZM12.7685 16.6675C13.2399 16.8094 13.5021 17.2787 13.3679 17.7403C13.1403 18.5233 12.1426 18.618 11.7612 17.893C11.5753 17.5396 11.7027 17.0304 12.0355 16.7964C12.2858 16.6206 12.4919 16.5843 12.7685 16.6675Z" fill="white"/>
<path fill-rule="evenodd" clip-rule="evenodd" d="M8.87565 0.0343249C7.48879 0.122941 6.42129 0.380166 5.86474 0.759799C5.5701 0.960782 5.42705 1.1275 5.28727 1.43285C5.11701 1.80473 5.07991 2.1523 5.07841 3.38939L5.07704 4.52171H7.45984H9.84264V4.8171V5.11249H6.34366C2.96477 5.11249 2.83397 5.11521 2.53315 5.19189C1.49815 5.45565 0.767514 6.14844 0.407219 7.20774C0.292411 7.54531 0.0978485 8.48909 0.0330993 9.02257C-0.0343674 9.57837 0.00623863 10.8377 0.110215 11.4141C0.232152 12.0902 0.418089 12.7985 0.565114 13.1471C0.83758 13.7931 1.28807 14.3157 1.78223 14.559C2.21063 14.7698 2.42843 14.8 3.52841 14.8006L4.52013 14.8012L4.53455 13.4523C4.54821 12.1713 4.55353 12.0894 4.63966 11.8277C4.96467 10.8396 5.68002 10.124 6.67213 9.79424C6.94767 9.70267 6.94941 9.70259 9.80325 9.67947C12.9509 9.65399 12.815 9.66486 13.3476 9.39669C13.7075 9.21547 14.1629 8.75995 14.3429 8.40107C14.6392 7.81033 14.624 7.97791 14.6384 5.15439C14.6469 3.49671 14.637 2.52323 14.6097 2.34741C14.4652 1.41596 13.723 0.624669 12.6981 0.309194C12.3365 0.197891 11.5179 0.0844622 10.7091 0.033616C9.99266 -0.0114012 9.58849 -0.0112437 8.87565 0.0343249ZM7.5329 1.59315C7.85089 1.75345 8.04341 2.05581 8.04341 2.39491C8.04341 2.88565 7.66212 3.26139 7.16413 3.26139C6.78064 3.26139 6.42157 2.96387 6.33429 2.57376C6.1799 1.88389 6.91561 1.28193 7.5329 1.59315ZM15.199 6.27088C15.199 7.10947 15.1835 7.51018 15.1429 7.72234C14.9245 8.86388 14.1446 9.74138 13.0131 10.1185L12.7374 10.2103L9.86233 10.2318L6.98722 10.2532L6.72649 10.3543C6.36351 10.495 6.14177 10.6322 5.8686 10.8852C5.57148 11.1602 5.37924 11.4495 5.22119 11.8594L5.09673 12.1821L5.08531 14.8138C5.07282 17.6921 5.07203 17.6806 5.30456 18.1479C5.43457 18.4093 5.83437 18.8433 6.11917 19.0324C7.2468 19.7809 9.19731 20.1546 10.8548 19.9399C12.4739 19.73 13.6993 19.1847 14.2399 18.4334C14.5978 17.9359 14.6187 17.8357 14.6381 16.5243L14.6548 15.392H12.2684H9.88202V15.0966V14.8012H13.5789C15.8974 14.8012 17.3537 14.7864 17.4849 14.7615C18.3307 14.6012 18.856 13.9723 19.3485 12.5306C19.6784 11.5647 19.793 10.8044 19.7541 9.83871C19.701 8.51706 19.3369 6.95756 18.911 6.22768C18.7039 5.87282 18.3372 5.49472 18.0503 5.34025C17.6719 5.13647 17.4869 5.11249 16.2935 5.11249H15.199V6.27088ZM12.7685 16.6675C13.2399 16.8094 13.5021 17.2787 13.3679 17.7403C13.1403 18.5233 12.1426 18.618 11.7612 17.893C11.5753 17.5396 11.7027 17.0304 12.0355 16.7964C12.2858 16.6206 12.4919 16.5843 12.7685 16.6675Z" fill="white"/>
<path fill-rule="evenodd" clip-rule="evenodd" d="M8.87565 0.0343249C7.48879 0.122941 6.42129 0.380166 5.86474 0.759799C5.5701 0.960782 5.42705 1.1275 5.28727 1.43285C5.11701 1.80473 5.07991 2.1523 5.07841 3.38939L5.07704 4.52171H7.45984H9.84264V4.8171V5.11249H6.34366C2.96477 5.11249 2.83397 5.11521 2.53315 5.19189C1.49815 5.45565 0.767514 6.14844 0.407219 7.20774C0.292411 7.54531 0.0978485 8.48909 0.0330993 9.02257C-0.0343674 9.57837 0.00623863 10.8377 0.110215 11.4141C0.232152 12.0902 0.418089 12.7985 0.565114 13.1471C0.83758 13.7931 1.28807 14.3157 1.78223 14.559C2.21063 14.7698 2.42843 14.8 3.52841 14.8006L4.52013 14.8012L4.53455 13.4523C4.54821 12.1713 4.55353 12.0894 4.63966 11.8277C4.96467 10.8396 5.68002 10.124 6.67213 9.79424C6.94767 9.70267 6.94941 9.70259 9.80325 9.67947C12.9509 9.65399 12.815 9.66486 13.3476 9.39669C13.7075 9.21547 14.1629 8.75995 14.3429 8.40107C14.6392 7.81033 14.624 7.97791 14.6384 5.15439C14.6469 3.49671 14.637 2.52323 14.6097 2.34741C14.4652 1.41596 13.723 0.624669 12.6981 0.309194C12.3365 0.197891 11.5179 0.0844622 10.7091 0.033616C9.99266 -0.0114012 9.58849 -0.0112437 8.87565 0.0343249ZM7.5329 1.59315C7.85089 1.75345 8.04341 2.05581 8.04341 2.39491C8.04341 2.88565 7.66212 3.26139 7.16413 3.26139C6.78064 3.26139 6.42157 2.96387 6.33429 2.57376C6.1799 1.88389 6.91561 1.28193 7.5329 1.59315ZM15.199 6.27088C15.199 7.10947 15.1835 7.51018 15.1429 7.72234C14.9245 8.86388 14.1446 9.74138 13.0131 10.1185L12.7374 10.2103L9.86233 10.2318L6.98722 10.2532L6.72649 10.3543C6.36351 10.495 6.14177 10.6322 5.8686 10.8852C5.57148 11.1602 5.37924 11.4495 5.22119 11.8594L5.09673 12.1821L5.08531 14.8138C5.07282 17.6921 5.07203 17.6806 5.30456 18.1479C5.43457 18.4093 5.83437 18.8433 6.11917 19.0324C7.2468 19.7809 9.19731 20.1546 10.8548 19.9399C12.4739 19.73 13.6993 19.1847 14.2399 18.4334C14.5978 17.9359 14.6187 17.8357 14.6381 16.5243L14.6548 15.392H12.2684H9.88202V15.0966V14.8012H13.5789C15.8974 14.8012 17.3537 14.7864 17.4849 14.7615C18.3307 14.6012 18.856 13.9723 19.3485 12.5306C19.6784 11.5647 19.793 10.8044 19.7541 9.83871C19.701 8.51706 19.3369 6.95756 18.911 6.22768C18.7039 5.87282 18.3372 5.49472 18.0503 5.34025C17.6719 5.13647 17.4869 5.11249 16.2935 5.11249H15.199V6.27088ZM12.7685 16.6675C13.2399 16.8094 13.5021 17.2787 13.3679 17.7403C13.1403 18.5233 12.1426 18.618 11.7612 17.893C11.5753 17.5396 11.7027 17.0304 12.0355 16.7964C12.2858 16.6206 12.4919 16.5843 12.7685 16.6675Z" fill="white"/>
</svg>
