<svg width="23" height="20" viewBox="0 0 23 20" fill="none" xmlns="http://www.w3.org/2000/svg">
<path fill-rule="evenodd" clip-rule="evenodd" d="M6.26862 0.018912C5.67426 0.144318 5.187 0.485819 4.85473 1.00987C4.19767 2.04619 4.12665 3.77429 4.6499 5.99421C4.67842 6.11521 4.70344 6.21702 4.70549 6.22046C4.70755 6.2239 4.65869 6.24132 4.59691 6.25917C3.42533 6.5977 2.40499 7.04247 1.64967 7.54389C1.31244 7.76776 1.09713 7.94127 0.849307 8.1889C0.284423 8.75331 0.000490958 9.35512 9.71728e-07 9.9891C-0.000199023 10.2423 0.0304501 10.4306 0.112278 10.6791C0.294713 11.233 0.71904 11.769 1.35468 12.2486C1.90333 12.6626 2.67986 13.068 3.53718 13.3881C3.84041 13.5013 4.3052 13.6555 4.56459 13.729C4.62509 13.7461 4.68202 13.7623 4.69109 13.7649C4.70603 13.7692 4.70627 13.7746 4.69367 13.8218C4.66811 13.9176 4.58099 14.3019 4.54586 14.474C4.20057 16.1651 4.22468 17.5524 4.61615 18.5189C4.93992 19.3182 5.51569 19.8252 6.27403 19.9787C6.37347 19.9988 6.40226 19.9998 6.80683 19.9964C7.27691 19.9925 7.26233 19.9941 7.57988 19.9138C8.57298 19.6627 9.78395 18.9053 10.9775 17.7889C11.051 17.7201 11.1401 17.6375 11.1755 17.6054L11.2397 17.5469L11.2821 17.5848C11.3053 17.6056 11.3896 17.6843 11.4694 17.7597C12.0914 18.3472 12.7928 18.8897 13.4043 19.2561C14.0019 19.6141 14.5417 19.8389 15.0959 19.9605L15.2443 19.9931L15.6732 19.9965L16.1021 20L16.2282 19.9736C16.7962 19.8546 17.2639 19.5301 17.604 19.0188C17.6972 18.8788 17.8305 18.6112 17.898 18.4289C18.2511 17.4741 18.2666 16.1465 17.9436 14.529C17.9035 14.3281 17.8037 13.8843 17.7804 13.803L17.7715 13.772L17.9678 13.7137C18.7919 13.4693 19.5776 13.1584 20.1796 12.8388C21.2143 12.2893 21.8984 11.6734 22.2397 10.9841C22.4668 10.5254 22.5329 10.0572 22.438 9.57911C22.3727 9.25058 22.201 8.88318 21.9665 8.57042C21.2769 7.65086 19.872 6.84769 17.9678 6.28432L17.7715 6.22622L17.7804 6.19522C17.8037 6.11385 17.9035 5.6701 17.9436 5.46923C18.1769 4.30096 18.2343 3.27694 18.1134 2.43931C17.953 1.32809 17.4635 0.542667 16.709 0.185887C16.5666 0.118549 16.4818 0.08786 16.3093 0.0413814L16.1743 0.0050024L15.7493 0.0015525C15.2718 -0.00232739 15.2519 -0.000587432 14.9593 0.0707405C13.8914 0.331013 12.6962 1.08163 11.3894 2.31272C11.3096 2.38784 11.2412 2.44818 11.2372 2.44681C11.2333 2.44543 11.1478 2.36734 11.0472 2.27328C9.77332 1.08149 8.59364 0.339633 7.55962 0.0800203C7.25144 0.00264247 7.21793 -0.000707433 6.76073 8.2544e-05C6.40861 0.000692527 6.3431 0.00320245 6.26862 0.018912ZM7.01982 0.973765C7.84913 1.08418 8.94586 1.70841 10.0694 2.70953C10.2345 2.85658 10.5494 3.15113 10.5493 3.15825C10.5492 3.16157 10.5082 3.20929 10.4582 3.26429C10.0471 3.71667 9.58382 4.27377 9.19946 4.77781C9.06837 4.94971 8.71843 5.42498 8.66947 5.49761C8.65554 5.51827 8.63741 5.52159 8.41448 5.54431C7.49974 5.63752 6.45721 5.8028 5.73731 5.96874C5.66661 5.98504 5.65965 5.98518 5.65519 5.97038C5.61929 5.85117 5.49327 5.26471 5.44545 4.99424C5.32851 4.33299 5.2833 3.81805 5.29243 3.25137C5.30046 2.75272 5.34477 2.41526 5.44627 2.07966C5.54709 1.74629 5.67606 1.50732 5.85713 1.31834C6.03528 1.13244 6.24605 1.02072 6.50453 0.975235C6.60959 0.956735 6.88603 0.955955 7.01982 0.973765ZM15.97 0.975215C16.6454 1.08882 17.0436 1.68733 17.1647 2.7708C17.1866 2.96721 17.1951 3.51856 17.1801 3.77427C17.1449 4.37703 17.047 5.01837 16.8832 5.71922C16.853 5.84846 16.8262 5.9614 16.8236 5.97019C16.8193 5.9845 16.8076 5.98364 16.7116 5.96201C15.9403 5.78832 15.0062 5.64073 14.0693 5.5445C13.8427 5.52123 13.8232 5.51769 13.8093 5.49733C13.8011 5.48523 13.7139 5.36483 13.6156 5.22978C13.1205 4.54964 12.581 3.88316 12.061 3.30929C11.9888 3.22954 11.9296 3.16172 11.9295 3.15858C11.9293 3.15169 12.2507 2.85086 12.4044 2.71411C13.3128 1.90543 14.1923 1.345 14.9393 1.09878C15.1274 1.03676 15.2975 0.995304 15.4493 0.974465C15.5871 0.955525 15.8553 0.955915 15.97 0.975215ZM11.3563 3.99459C11.7307 4.4113 12.1118 4.86982 12.4442 5.30336L12.5432 5.43249L12.4038 5.42591C11.9938 5.40656 11.2213 5.3986 10.7309 5.40867C10.4468 5.41451 10.1517 5.42226 10.075 5.42589L9.93557 5.43249L10.0345 5.30336C10.1765 5.118 10.4295 4.80221 10.5986 4.59925C10.8535 4.29324 11.2295 3.86772 11.2413 3.87185C11.2451 3.87318 11.2969 3.92842 11.3563 3.99459ZM12.3894 6.40823C12.7512 6.4267 13.1626 6.4511 13.2243 6.45775L13.2843 6.4642L13.4446 6.70419C13.8652 7.3339 14.3046 8.06133 14.6892 8.76413C14.8553 9.06772 15.1951 9.72427 15.2702 9.8866L15.3223 9.9991L15.2702 10.1116C15.1951 10.2739 14.8553 10.9305 14.6892 11.2341C14.4203 11.7254 14.1006 12.2698 13.8112 12.729C13.6417 12.998 13.2954 13.5241 13.2827 13.5319C13.2721 13.5385 12.91 13.5633 12.5994 13.5788C11.7783 13.6197 10.7018 13.6198 9.88444 13.5789C9.60613 13.565 9.2176 13.5395 9.20204 13.534C9.18785 13.5291 8.86917 13.0491 8.66753 12.729C8.37448 12.2638 8.0551 11.7196 7.78719 11.2291C7.5133 10.7275 7.15952 10.0321 7.15952 9.9953C7.15952 9.97708 7.50111 9.29962 7.65929 9.00412C7.93498 8.48913 8.21709 7.99854 8.52711 7.495C8.79139 7.06573 9.18047 6.47171 9.20242 6.46397C9.23178 6.45362 9.91248 6.41492 10.3394 6.39933C10.6372 6.38845 12.129 6.39493 12.3894 6.40823ZM7.92949 6.59306C7.92949 6.59519 7.86505 6.69981 7.78627 6.82556C7.43088 7.39285 7.04077 8.06979 6.73403 8.65148C6.67969 8.75452 6.63217 8.83552 6.62843 8.83148C6.61619 8.81824 6.34395 8.12997 6.24977 7.87416C6.14885 7.60003 5.92513 6.94027 5.93108 6.93432C5.93731 6.92808 6.34921 6.84304 6.60953 6.79424C6.91727 6.73654 7.26224 6.68021 7.5845 6.63504C7.722 6.61577 7.84575 6.59818 7.8595 6.59596C7.89625 6.59001 7.92949 6.58864 7.92949 6.59306ZM14.9343 6.64062C15.2708 6.68829 15.6799 6.75609 15.9593 6.8105C16.191 6.85563 16.5427 6.9294 16.5472 6.9338C16.5565 6.94309 16.3089 7.66212 16.1653 8.04243C16.0751 8.28135 15.8793 8.77126 15.8568 8.81417C15.8442 8.8381 15.839 8.83023 15.729 8.6218C15.4287 8.05291 15.0466 7.39069 14.6925 6.82556C14.6138 6.69981 14.5493 6.59476 14.5493 6.59212C14.5493 6.58642 14.5708 6.58913 14.9343 6.64062ZM5.04325 7.39167C5.28398 8.14042 5.63186 9.0365 5.98273 9.8116L6.06761 9.9991L5.98264 10.1866C5.63282 10.9585 5.28753 11.8478 5.04305 12.6065C5.00535 12.7235 4.9693 12.819 4.96284 12.819C4.95638 12.819 4.86159 12.7923 4.75221 12.7596C2.87384 12.198 1.54402 11.3927 1.12663 10.5641C1.0649 10.4415 1.04277 10.3828 1.01189 10.2594C0.989083 10.1683 0.985543 10.1332 0.985543 9.9991C0.985543 9.86357 0.988973 9.83036 1.01288 9.73469C1.24668 8.79921 2.60721 7.8882 4.73191 7.24443C4.84887 7.20899 4.95141 7.17981 4.95975 7.17959C4.97079 7.17929 4.99355 7.23711 5.04325 7.39167ZM17.6808 7.22468C19.4515 7.74968 20.7259 8.4752 21.2476 9.25524C21.3551 9.41599 21.4246 9.56925 21.4668 9.73881C21.4894 9.82984 21.4929 9.8651 21.4929 9.9991C21.4927 10.2172 21.4593 10.3502 21.3501 10.5666C21.252 10.7613 21.1348 10.9149 20.9248 11.1243C20.3917 11.6557 19.5219 12.1419 18.3792 12.5472C18.0592 12.6607 17.515 12.8298 17.5064 12.8185C17.5045 12.816 17.4525 12.661 17.3908 12.474C17.1389 11.7109 16.8205 10.8993 16.4758 10.1415L16.411 9.99891L16.4913 9.82151C16.8385 9.05479 17.1444 8.27242 17.3965 7.50675C17.4557 7.32667 17.5094 7.17931 17.5158 7.17926C17.5221 7.17922 17.5963 7.19966 17.6808 7.22468ZM11.0894 7.99945C10.2319 8.06453 9.50451 8.67558 9.29524 9.50666C9.23538 9.7444 9.21894 10.053 9.25384 10.2841C9.38769 11.1705 10.0695 11.8523 10.9544 11.9846C11.1012 12.0065 11.3779 12.0065 11.5244 11.9845C12.41 11.8518 13.0911 11.1708 13.225 10.2841C13.2356 10.2135 13.2416 10.1114 13.2416 9.9991C13.2416 9.72848 13.1991 9.50155 13.1033 9.25998C12.7807 8.44664 11.9606 7.93334 11.0894 7.99945ZM6.78672 11.4441C7.05538 11.9541 7.44506 12.628 7.78648 13.173C7.86537 13.2989 7.92799 13.4038 7.92566 13.4062C7.92063 13.4112 7.41351 13.3407 7.14952 13.2982C6.78101 13.239 5.94562 13.0784 5.93126 13.064C5.92574 13.0585 6.13407 12.4405 6.22956 12.179C6.31359 11.949 6.46766 11.5527 6.56001 11.3291C6.5884 11.2603 6.61589 11.193 6.62109 11.1796C6.63052 11.1552 6.63066 11.1552 6.65333 11.1946C6.66586 11.2163 6.72588 11.3286 6.78672 11.4441ZM16.0027 11.5391C16.0826 11.7398 16.1892 12.0165 16.2397 12.154C16.3375 12.4206 16.5533 13.0583 16.5476 13.0639C16.5421 13.0695 16.1813 13.1447 15.9293 13.1929C15.6139 13.2532 15.273 13.3096 14.9343 13.3576C14.5666 13.4097 14.5493 13.4118 14.5493 13.4055C14.5493 13.4025 14.5972 13.3244 14.6558 13.232C14.9911 12.7032 15.4354 11.9332 15.7496 11.3365C15.801 11.2388 15.8463 11.1623 15.8502 11.1665C15.8542 11.1707 15.9228 11.3383 16.0027 11.5391ZM6.06455 14.0987C6.82295 14.2538 7.61348 14.3727 8.45866 14.4586C8.56547 14.4695 8.65582 14.4819 8.65946 14.4861C8.6631 14.4904 8.71273 14.5592 8.76975 14.639C9.24524 15.304 9.80005 15.9983 10.3189 16.5775C10.4044 16.673 10.4923 16.7716 10.514 16.7966L10.5537 16.8421L10.4691 16.921C9.98141 17.3756 9.6726 17.6393 9.30445 17.9154C8.45035 18.5559 7.65577 18.9404 7.00952 19.0257C6.85321 19.0464 6.56005 19.0385 6.43954 19.0105C6.20234 18.9552 6.01787 18.8493 5.84837 18.6711C5.56738 18.3756 5.38727 17.8895 5.31395 17.2289C5.29205 17.0315 5.28355 16.4665 5.29873 16.2168C5.33645 15.5966 5.43504 14.9596 5.60565 14.234C5.63022 14.1295 5.65251 14.0367 5.65519 14.0278C5.65965 14.013 5.66664 14.0132 5.73731 14.0296C5.7798 14.0394 5.92705 14.0705 6.06455 14.0987ZM16.8835 14.279C17.0478 14.9856 17.1449 15.622 17.1801 16.2239C17.1951 16.4796 17.1866 17.031 17.1647 17.2274C17.1162 17.6606 17.0303 17.9944 16.8948 18.2753C16.8135 18.4438 16.7354 18.5607 16.6304 18.6711C16.4609 18.8494 16.2761 18.9554 16.0393 19.0104C15.9282 19.0362 15.6451 19.0462 15.4988 19.0295C14.5752 18.9242 13.3497 18.188 12.0502 16.9579L11.9261 16.8404L11.9652 16.7953C11.9868 16.7706 12.0743 16.6724 12.1597 16.5771C12.5356 16.158 12.8895 15.729 13.2761 15.2239C13.4081 15.0516 13.7506 14.5871 13.8093 14.5009C13.8232 14.4805 13.8426 14.477 14.0693 14.4539C14.9593 14.3631 16.0022 14.1982 16.7142 14.0356C16.8034 14.0153 16.815 14.0145 16.8215 14.0284C16.8255 14.037 16.8534 14.1497 16.8835 14.279ZM10.7374 14.5895C11.215 14.5993 11.9666 14.5915 12.3937 14.5724L12.543 14.5657L12.4941 14.6298C12.2947 14.8908 12.0244 15.2284 11.8302 15.4589C11.5839 15.7513 11.2528 16.1239 11.2394 16.1239C11.2308 16.1239 11.0673 15.9444 10.884 15.7338C10.6236 15.4347 10.2703 15.0026 10.0345 14.6948L9.93556 14.5657L10.0845 14.5725C10.1665 14.5762 10.4602 14.5839 10.7374 14.5895Z" fill="white"/>
</svg>
