<svg width="27" height="20" viewBox="0 0 27 20" fill="none" xmlns="http://www.w3.org/2000/svg">
<path fill-rule="evenodd" clip-rule="evenodd" d="M11.5742 0.0119163C10.3253 0.0863008 9.20488 0.350763 7.81223 0.899862C4.78541 2.09331 2.36355 3.76597 1.03832 5.57829C0.554081 6.24052 0.203313 6.96321 0.0571705 7.59974C-0.00439627 7.86789 -0.0187354 8.29859 0.026408 8.52341C0.136349 9.07086 0.433595 9.65881 0.89001 10.2315C1.09622 10.4903 1.64784 11.0421 1.97652 11.3184C2.46132 11.7259 2.82003 11.9922 3.8106 12.6799C4.72824 13.3169 5.207 13.6714 5.207 13.7137C5.207 13.7225 5.04051 13.8165 4.83706 13.9224C3.89465 14.4133 3.07746 14.9313 2.42307 15.4526C2.15717 15.6645 1.60042 16.2198 1.45174 16.4216C1.12033 16.8712 0.923941 17.3816 0.870085 17.9332C0.827568 18.3685 0.899743 18.7616 1.09322 19.1484C1.24809 19.4581 1.46556 19.6975 1.69217 19.8078C1.98644 19.951 2.60861 20.0313 3.09197 19.9885C3.6492 19.9392 4.07856 19.8187 4.56949 19.5741C5.14397 19.2878 5.61854 18.912 6.03713 18.412C6.71651 17.6004 7.06949 16.5309 7.03456 15.3899C7.0179 14.8463 6.93591 14.4191 6.77743 14.0501C6.73644 13.9547 6.70632 13.8733 6.71047 13.8692C6.75225 13.8281 8.1696 13.0205 8.18061 13.0315C8.18342 13.0343 8.15837 13.1185 8.12494 13.2186C7.95299 13.7337 7.80962 14.7431 7.84318 15.2023C7.8953 15.9156 8.09843 16.5885 8.40174 17.0527C8.64165 17.4198 8.83646 17.5467 9.18546 17.563C9.60488 17.5827 9.86234 17.4378 10.1263 17.0334C10.3123 16.7485 10.6572 16.0379 10.9898 15.2544C11.0312 15.157 11.0602 15.1054 11.0543 15.1398C11.0267 15.3001 11.001 15.6567 11.0012 15.8767C11.0015 16.5947 11.1988 17.0577 11.5533 17.1724C11.7962 17.251 12.0429 17.1666 12.3092 16.9139C12.5547 16.6809 12.7063 16.468 12.9861 15.963C13.8089 14.478 14.3859 13.2766 14.9928 11.7846C15.112 11.4917 15.1478 11.4211 15.157 11.4615C15.1634 11.49 15.1971 11.6405 15.2319 11.7959C15.3612 12.3731 15.5014 12.7727 15.745 13.2585C15.8077 13.3836 15.8813 13.5362 15.9085 13.5978L15.958 13.7098L15.7044 14.0501C15.5649 14.2372 15.2304 14.6516 14.961 14.9709C14.1746 15.9031 14.0448 16.0816 14.0015 16.2899C13.9601 16.4889 14.0579 16.6758 14.2472 16.7595C14.5461 16.8917 15.2415 16.8203 15.8072 16.5993C16.8145 16.2058 17.351 15.6155 17.4439 14.7982C17.4849 14.4375 17.4152 14.0138 17.2369 13.541L17.1528 13.3177L17.3862 12.9678C17.7625 12.4038 18.207 11.6441 18.5822 10.9236L18.7483 10.6048L18.7618 10.7047C18.7847 10.8729 18.9575 11.5466 19.0366 11.776C19.0778 11.8952 19.1924 12.1599 19.2914 12.3642L19.4715 12.7358L19.3473 12.8414C18.777 13.3264 18.2494 14.032 18.0571 14.5666C17.9232 14.939 17.8831 15.3085 17.9517 15.5394C17.9911 15.6723 18.1215 15.8223 18.2618 15.8963C18.3579 15.947 18.3895 15.9525 18.577 15.9514C18.7723 15.9503 18.8025 15.944 19.0564 15.8511C19.6956 15.6174 20.1203 15.3526 20.5098 14.9449C21.052 14.3774 21.1701 13.8157 20.918 13.0035C20.8842 12.8946 20.8516 12.7858 20.8456 12.7617C20.8357 12.722 20.8588 12.7098 21.0919 12.6327C21.2333 12.5859 21.414 12.5327 21.4934 12.5145C22.5717 12.2671 23.9654 12.3981 24.8204 12.8272C25.5903 13.2135 26.0912 13.9112 26.0903 14.596C26.09 14.8186 26.0565 14.9591 25.955 15.1648C25.8589 15.3592 25.6271 15.6064 25.3855 15.7718C25.1575 15.928 25.1395 15.9485 25.1651 16.0212C25.1949 16.1062 25.271 16.1226 25.4326 16.0788C25.7296 15.9984 26.1719 15.6595 26.3714 15.3593C26.5887 15.0325 26.6645 14.7347 26.6472 14.276C26.6329 13.8968 26.5774 13.6791 26.4046 13.3257C25.921 12.3367 24.8688 11.6706 23.5582 11.5242C23.2821 11.4933 22.6169 11.4984 22.3156 11.5336C21.7883 11.5953 21.1843 11.7588 20.7377 11.9606C20.6308 12.0089 20.5404 12.0453 20.5369 12.0414C20.5068 12.0085 20.1229 11.2083 20.08 11.0892C20.0209 10.9248 19.9778 10.6877 19.9424 10.332C19.9021 9.92733 19.9682 9.52959 20.1806 8.89987C20.2726 8.6271 20.274 8.61909 20.2412 8.55006C20.1636 8.38656 19.9251 8.32172 19.4764 8.34215C19.0507 8.36153 18.7335 8.43694 18.6437 8.54006C18.6031 8.58677 18.5219 8.8416 18.4234 9.23113C18.328 9.60866 18.2123 9.8893 17.9177 10.4587C17.6151 11.0434 16.9352 12.2488 16.785 12.4669C16.7632 12.4985 16.7428 12.4676 16.6334 12.2376C16.5638 12.0914 16.487 11.9126 16.4627 11.8402C16.3953 11.6394 16.3341 11.1942 16.3332 10.8985C16.3322 10.5303 16.3789 10.2954 16.5687 9.71491L16.6729 9.39628L16.6348 9.32934C16.6099 9.28561 16.5534 9.24076 16.4719 9.20002C16.3543 9.14118 16.3308 9.13726 16.0553 9.13057C15.6141 9.11988 15.2282 9.18847 15.0732 9.30512C15.0186 9.34622 15.0011 9.38311 14.9627 9.53745C14.863 9.93863 14.7852 10.1725 14.6284 10.5429C14.4621 10.9359 13.548 12.9985 13.1363 13.9101C12.858 14.5264 12.4236 15.4001 12.3347 15.5225C12.2359 15.6586 12.2199 15.6223 12.2223 15.269C12.2241 15.0244 12.2357 14.9188 12.2892 14.6604C12.3664 14.2875 12.5681 13.4727 12.7712 12.7134C12.8522 12.4106 12.9185 12.1217 12.9185 12.0715C12.9185 11.9047 12.8216 11.7899 12.6158 11.7129C12.4097 11.6358 12.2488 11.6581 12.0657 11.7892C12.0157 11.8249 12.0154 11.8248 12.0289 11.7713C12.0649 11.6278 12.0827 11.2363 12.0622 11.037C12.0165 10.5916 11.8638 10.3322 11.5647 10.192C11.4595 10.1426 11.4257 10.1378 11.1886 10.1378C10.9567 10.1378 10.9086 10.1443 10.7509 10.1976C10.1701 10.3938 9.47453 10.9146 8.9955 11.5119C8.88483 11.6499 8.79438 11.7405 8.73133 11.7766C8.67862 11.8068 8.08434 12.133 7.41071 12.5014L6.18592 13.1712L6.00389 12.9884C5.65001 12.6329 5.31175 12.3499 4.35613 11.6096C3.72277 11.1189 3.42973 10.8731 3.12511 10.5766C2.46615 9.93534 2.13504 9.38922 2.02529 8.76253C1.98289 8.52049 1.99886 8.05643 2.05949 7.76806C2.39469 6.17389 4.12983 4.5521 7.10567 3.05157C8.53809 2.32928 9.84206 1.89735 11.1573 1.70948C12.7919 1.47603 14.2301 1.71707 14.9099 2.33839C15.2316 2.63234 15.3767 3.03482 15.3509 3.56115C15.3115 4.36661 14.8483 5.2408 14.0246 6.06478C12.8196 7.27017 11.0951 8.05874 9.19821 8.27185C8.95303 8.29938 8.38961 8.29909 8.166 8.2713C7.76285 8.22122 7.38833 8.11332 7.07962 7.95832C6.83846 7.83723 6.74869 7.77218 6.51505 7.54914C6.4034 7.44257 6.29842 7.35537 6.28173 7.35537C6.26506 7.35537 6.22535 7.37777 6.19351 7.40518C6.14401 7.44776 6.13623 7.46902 6.13984 7.55197C6.14215 7.60533 6.17135 7.71393 6.2047 7.7933C6.45442 8.38766 7.25777 8.94043 8.10954 9.10398C8.4804 9.17517 8.74619 9.19645 9.26074 9.1961C10.1982 9.19545 11.0483 9.0609 12.0197 8.75946C13.0207 8.44884 13.7596 8.06576 14.499 7.47408C14.8244 7.21371 15.3077 6.73353 15.5519 6.42791C16.0743 5.77435 16.4874 4.98769 16.6575 4.32288C16.7651 3.90209 16.7838 3.74706 16.7831 3.28079C16.7823 2.81856 16.7559 2.62396 16.6484 2.2908C16.2801 1.14903 15.0363 0.333214 13.2832 0.0836122C12.7689 0.0103948 12.0829 -0.0183877 11.5742 0.0119163ZM11.3162 11.2239C11.4856 11.3772 11.1089 12.6392 10.2717 14.723C9.96411 15.4885 9.69027 15.9422 9.5357 15.9422C9.32774 15.9422 9.18914 15.3978 9.2147 14.6814C9.24861 13.7307 9.55271 12.8575 10.1719 11.9331C10.5262 11.4041 11.1133 11.0402 11.3162 11.2239ZM19.9027 13.4041C19.9395 13.5701 19.934 13.8697 19.8907 14.057C19.7919 14.4839 19.453 14.8621 18.9949 15.0568C18.8776 15.1066 18.8521 15.1114 18.8362 15.0863C18.7895 15.0124 18.8462 14.7781 18.9956 14.4281C19.1117 14.156 19.2149 13.9755 19.3779 13.7593C19.5253 13.5639 19.8303 13.2464 19.8555 13.262C19.8655 13.2682 19.8868 13.3321 19.9027 13.4041ZM5.90155 14.4364C5.97638 14.7955 5.98569 14.8835 5.98603 15.2336C5.9863 15.5274 5.97736 15.6438 5.94003 15.8323C5.75378 16.773 5.12951 17.6539 4.30615 18.138C3.60443 18.5506 2.87761 18.6173 2.64104 18.2907C2.4252 17.9927 2.48085 17.4215 2.78268 16.8364C3.08311 16.2539 3.64061 15.7191 4.70129 14.9957C4.96965 14.8127 5.82452 14.2798 5.85529 14.2763C5.86223 14.2755 5.88305 14.3475 5.90155 14.4364ZM16.3165 14.633C16.2703 14.9309 16.1404 15.1717 15.8752 15.4508C15.687 15.6489 15.4279 15.85 15.2352 15.9474C15.1196 16.0059 15.0235 16.022 15.0235 15.9831C15.0235 15.9712 15.1706 15.8 15.3503 15.6027C15.7136 15.204 15.8994 14.985 16.153 14.6565C16.247 14.5347 16.3275 14.4458 16.3319 14.4589C16.3362 14.472 16.3293 14.5503 16.3165 14.633Z" fill="white"/>
</svg>
