<svg width="193" height="274" viewBox="0 0 193 274" fill="none" xmlns="http://www.w3.org/2000/svg">
<path fill-rule="evenodd" clip-rule="evenodd" d="M116.854 0.550434C115.754 0.796434 111.929 1.98043 108.354 3.18143C103.201 4.91243 99.3682 5.38243 89.8542 5.45343C83.2542 5.50243 74.9292 6.10143 71.3542 6.78543C56.8982 9.54843 41.3042 17.9434 31.6372 28.1644C16.3482 44.3314 4.35421 88.4094 7.46521 117.004C8.53521 126.837 8.50221 127.184 6.07921 131.722C-0.113792 143.324 -0.165793 143.785 0.0652073 186.044C0.298207 228.829 0.743208 232.81 6.63321 244.797C12.9662 257.685 27.4062 268.785 42.4572 272.333C59.4532 276.339 78.8472 271.645 93.2682 260.034C98.1682 256.089 100.483 254.87 103.076 254.87C107.406 254.87 128.404 249.586 137.154 246.295C158.382 238.31 175.867 223.827 184.807 206.825C191.099 194.856 192.837 186.545 192.846 168.37C192.855 150.188 191.578 144.391 184.148 128.903L180.087 120.436L180.664 104.403C180.981 95.5854 181.749 82.7454 182.371 75.8704C184.479 52.5864 181.993 36.7754 174.355 24.8714C167.227 13.7644 152.498 3.64643 139.555 0.967434C134.395 -0.100566 120.872 -0.349566 116.854 0.550434Z" fill="white"/>
<path fill-rule="evenodd" clip-rule="evenodd" d="M116.854 0.550434C115.754 0.796434 111.929 1.98043 108.354 3.18143C103.201 4.91243 99.3682 5.38243 89.8542 5.45343C83.2542 5.50243 74.9292 6.10143 71.3542 6.78543C56.8982 9.54843 41.3042 17.9434 31.6372 28.1644C16.3482 44.3314 4.35421 88.4094 7.46521 117.004C8.53521 126.837 8.50221 127.184 6.07921 131.722C-0.113792 143.324 -0.165793 143.785 0.0652073 186.044C0.298207 228.829 0.743208 232.81 6.63321 244.797C12.9662 257.685 27.4062 268.785 42.4572 272.333C59.4532 276.339 78.8472 271.645 93.2682 260.034C98.1682 256.089 100.483 254.87 103.076 254.87C107.406 254.87 128.404 249.586 137.154 246.295C158.382 238.31 175.867 223.827 184.807 206.825C191.099 194.856 192.837 186.545 192.846 168.37C192.855 150.188 191.578 144.391 184.148 128.903L180.087 120.436L180.664 104.403C180.981 95.5854 181.749 82.7454 182.371 75.8704C184.479 52.5864 181.993 36.7754 174.355 24.8714C167.227 13.7644 152.498 3.64643 139.555 0.967434C134.395 -0.100566 120.872 -0.349566 116.854 0.550434ZM149.482 33.6204C150.725 35.2064 150.69 35.2414 149.104 33.9984C147.438 32.6914 146.909 31.8704 147.732 31.8704C147.939 31.8704 148.727 32.6584 149.482 33.6204ZM51.3542 44.2484C51.3542 44.4554 50.5672 45.2434 49.6042 45.9984C48.0182 47.2414 47.9832 47.2064 49.2262 45.6204C50.5332 43.9544 51.3542 43.4254 51.3542 44.2484ZM36.3542 134.248C36.3542 134.455 35.5672 135.243 34.6042 135.998C33.0182 137.241 32.9832 137.206 34.2262 135.62C35.5332 133.954 36.3542 133.425 36.3542 134.248Z" fill="#FDEACD"/>
<path fill-rule="evenodd" clip-rule="evenodd" d="M116.854 0.550434C115.754 0.796434 111.929 1.98043 108.354 3.18143C103.201 4.91243 99.3682 5.38243 89.8542 5.45343C83.2542 5.50243 74.9292 6.10143 71.3542 6.78543C56.8982 9.54843 41.3042 17.9434 31.6372 28.1644C16.3482 44.3314 4.35421 88.4094 7.46521 117.004C8.53521 126.837 8.50221 127.184 6.07921 131.722C-0.113792 143.324 -0.165793 143.785 0.0652073 186.044C0.298207 228.829 0.743208 232.81 6.63321 244.797C12.9662 257.685 27.4062 268.785 42.4572 272.333C59.4532 276.339 78.8472 271.645 93.2682 260.034C98.1682 256.089 100.483 254.87 103.076 254.87C107.406 254.87 128.404 249.586 137.154 246.295C158.382 238.31 175.867 223.827 184.807 206.825C191.099 194.856 192.837 186.545 192.846 168.37C192.855 150.188 191.578 144.391 184.148 128.903L180.087 120.436L180.664 104.403C180.981 95.5854 181.749 82.7454 182.371 75.8704C184.479 52.5864 181.993 36.7754 174.355 24.8714C167.227 13.7644 152.498 3.64643 139.555 0.967434C134.395 -0.100566 120.872 -0.349566 116.854 0.550434ZM90.6042 30.5764C89.3662 30.8144 87.3422 30.8144 86.1042 30.5764C84.8662 30.3374 85.8792 30.1424 88.3542 30.1424C90.8292 30.1424 91.8422 30.3374 90.6042 30.5764ZM149.482 33.6204C150.725 35.2064 150.69 35.2414 149.104 33.9984C147.438 32.6914 146.909 31.8704 147.732 31.8704C147.939 31.8704 148.727 32.6584 149.482 33.6204ZM51.3542 44.2484C51.3542 44.4554 50.5672 45.2434 49.6042 45.9984C48.0182 47.2414 47.9832 47.2064 49.2262 45.6204C50.5332 43.9544 51.3542 43.4254 51.3542 44.2484ZM89.0832 53.4744C88.7512 53.8064 87.8882 53.8424 87.1672 53.5534C86.3692 53.2344 86.6062 52.9974 87.7712 52.9494C88.8252 52.9064 89.4152 53.1424 89.0832 53.4744ZM158.079 64.1024C157.856 65.8994 157.669 64.6704 157.664 61.3704C157.658 58.0704 157.84 56.5994 158.069 58.1024C158.297 59.6054 158.301 62.3054 158.079 64.1024ZM112.482 62.6204C113.725 64.2064 113.69 64.2414 112.104 62.9984C111.141 62.2434 110.354 61.4554 110.354 61.2484C110.354 60.4254 111.175 60.9544 112.482 62.6204ZM132.047 102.601C131.793 103.574 131.569 103.02 131.549 101.37C131.529 99.7204 131.736 98.9244 132.01 99.6014C132.284 100.278 132.301 101.628 132.047 102.601ZM32.0372 103.058C31.7182 103.855 31.4812 103.618 31.4332 102.453C31.3902 101.399 31.6262 100.809 31.9582 101.141C32.2902 101.473 32.3262 102.336 32.0372 103.058ZM55.0372 103.058C54.7182 103.855 54.4812 103.618 54.4332 102.453C54.3902 101.399 54.6262 100.809 54.9582 101.141C55.2902 101.473 55.3262 102.336 55.0372 103.058ZM155.072 107.606C154.842 109.126 154.648 108.12 154.64 105.37C154.633 102.62 154.821 101.376 155.058 102.606C155.295 103.836 155.301 106.086 155.072 107.606ZM32.0472 112.601C31.7932 113.574 31.5692 113.02 31.5492 111.37C31.5292 109.72 31.7362 108.924 32.0102 109.601C32.2842 110.278 32.3012 111.628 32.0472 112.601ZM132.037 113.058C131.718 113.855 131.481 113.618 131.433 112.453C131.39 111.399 131.626 110.809 131.958 111.141C132.29 111.473 132.326 112.336 132.037 113.058ZM155.016 117.12C154.739 117.808 154.512 117.245 154.512 115.87C154.512 114.495 154.739 113.933 155.016 114.62C155.294 115.308 155.294 116.433 155.016 117.12ZM105.083 128.474C104.751 128.806 103.888 128.842 103.167 128.553C102.369 128.234 102.606 127.997 103.771 127.949C104.825 127.906 105.415 128.142 105.083 128.474ZM36.3542 134.248C36.3542 134.455 35.5672 135.243 34.6042 135.998C33.0182 137.241 32.9832 137.206 34.2262 135.62C35.5332 133.954 36.3542 133.425 36.3542 134.248ZM97.0832 141.474C96.7512 141.806 95.8882 141.842 95.1672 141.553C94.3692 141.234 94.6062 140.997 95.7712 140.949C96.8252 140.906 97.4152 141.142 97.0832 141.474ZM130.037 172.058C129.718 172.855 129.481 172.618 129.433 171.453C129.39 170.399 129.626 169.809 129.958 170.141C130.29 170.473 130.326 171.336 130.037 172.058ZM48.0432 182.62C47.7922 183.583 47.5862 182.795 47.5862 180.87C47.5862 178.945 47.7922 178.157 48.0432 179.12C48.2952 180.083 48.2952 181.657 48.0432 182.62ZM25.0432 183.62C24.7922 184.583 24.5862 183.795 24.5862 181.87C24.5862 179.945 24.7922 179.157 25.0432 180.12C25.2952 181.083 25.2952 182.657 25.0432 183.62ZM126.354 183.215C126.354 183.405 125.342 184.417 124.104 185.465L121.854 187.37L123.759 185.12C125.549 183.006 126.354 182.415 126.354 183.215ZM25.0162 199.12C24.7392 199.808 24.5122 199.245 24.5122 197.87C24.5122 196.495 24.7392 195.933 25.0162 196.62C25.2942 197.308 25.2942 198.433 25.0162 199.12ZM48.0372 199.058C47.7182 199.855 47.4812 199.618 47.4332 198.453C47.3902 197.399 47.6262 196.809 47.9582 197.141C48.2902 197.473 48.3262 198.336 48.0372 199.058ZM90.0832 207.474C89.7512 207.806 88.8882 207.842 88.1672 207.553C87.3692 207.234 87.6062 206.997 88.7712 206.949C89.8252 206.906 90.4152 207.142 90.0832 207.474ZM96.0832 207.474C95.7512 207.806 94.8882 207.842 94.1672 207.553C93.3692 207.234 93.6062 206.997 94.7712 206.949C95.8252 206.906 96.4152 207.142 96.0832 207.474ZM25.0792 216.102C24.8562 217.899 24.6692 216.67 24.6642 213.37C24.6582 210.07 24.8402 208.599 25.0692 210.102C25.2972 211.605 25.3012 214.305 25.0792 216.102ZM48.0162 211.12C47.7392 211.808 47.5122 211.245 47.5122 209.87C47.5122 208.495 47.7392 207.933 48.0162 208.62C48.2942 209.308 48.2942 210.433 48.0162 211.12ZM48.0372 217.058C47.7182 217.855 47.4812 217.618 47.4332 216.453C47.3902 215.399 47.6262 214.809 47.9582 215.141C48.2902 215.473 48.3262 216.336 48.0372 217.058ZM89.6042 230.532C88.9172 230.81 87.7922 230.81 87.1042 230.532C86.4172 230.255 86.9792 230.028 88.3542 230.028C89.7292 230.028 90.2922 230.255 89.6042 230.532ZM96.0832 230.474C95.7512 230.806 94.8882 230.842 94.1672 230.553C93.3692 230.234 93.6062 229.997 94.7712 229.949C95.8252 229.906 96.4152 230.142 96.0832 230.474ZM62.0832 248.474C61.7512 248.806 60.8882 248.842 60.1672 248.553C59.3692 248.234 59.6062 247.997 60.7712 247.949C61.8252 247.906 62.4152 248.142 62.0832 248.474Z" fill="white"/>
<path fill-rule="evenodd" clip-rule="evenodd" d="M116.854 0.550434C115.754 0.796434 111.929 1.98043 108.354 3.18143C103.201 4.91243 99.3682 5.38243 89.8542 5.45343C83.2542 5.50243 74.9292 6.10143 71.3542 6.78543C56.8982 9.54843 41.3042 17.9434 31.6372 28.1644C16.3482 44.3314 4.35421 88.4094 7.46521 117.004C8.53521 126.837 8.50221 127.184 6.07921 131.722C-0.113792 143.324 -0.165793 143.785 0.0652073 186.044C0.298207 228.829 0.743208 232.81 6.63321 244.797C12.9662 257.685 27.4062 268.785 42.4572 272.333C59.4532 276.339 78.8472 271.645 93.2682 260.034C98.1682 256.089 100.483 254.87 103.076 254.87C107.406 254.87 128.404 249.586 137.154 246.295C158.382 238.31 175.867 223.827 184.807 206.825C191.099 194.856 192.837 186.545 192.846 168.37C192.855 150.188 191.578 144.391 184.148 128.903L180.087 120.436L180.664 104.403C180.981 95.5854 181.749 82.7454 182.371 75.8704C184.479 52.5864 181.993 36.7754 174.355 24.8714C167.227 13.7644 152.498 3.64643 139.555 0.967434C134.395 -0.100566 120.872 -0.349566 116.854 0.550434ZM90.6042 30.5764C89.3662 30.8144 87.3422 30.8144 86.1042 30.5764C84.8662 30.3374 85.8792 30.1424 88.3542 30.1424C90.8292 30.1424 91.8422 30.3374 90.6042 30.5764ZM149.482 33.6204C150.725 35.2064 150.69 35.2414 149.104 33.9984C147.438 32.6914 146.909 31.8704 147.732 31.8704C147.939 31.8704 148.727 32.6584 149.482 33.6204ZM51.3542 44.2484C51.3542 44.4554 50.5672 45.2434 49.6042 45.9984C48.0182 47.2414 47.9832 47.2064 49.2262 45.6204C50.5332 43.9544 51.3542 43.4254 51.3542 44.2484ZM89.6042 53.5324C88.9172 53.8104 87.7922 53.8104 87.1042 53.5324C86.4172 53.2554 86.9792 53.0284 88.3542 53.0284C89.7292 53.0284 90.2922 53.2554 89.6042 53.5324ZM158.079 64.1024C157.856 65.8994 157.669 64.6704 157.664 61.3704C157.658 58.0704 157.84 56.5994 158.069 58.1024C158.297 59.6054 158.301 62.3054 158.079 64.1024ZM70.3542 58.2484C70.3542 58.4554 69.5672 59.2434 68.6042 59.9984C67.0182 61.2414 66.9832 61.2064 68.2262 59.6204C69.5332 57.9544 70.3542 57.4254 70.3542 58.2484ZM112.917 63.1204L115.854 66.3704L112.604 63.4334C110.817 61.8184 109.354 60.3554 109.354 60.1834C109.354 59.4104 110.179 60.0914 112.917 63.1204ZM134.037 79.0584C133.718 79.8554 133.481 79.6184 133.433 78.4534C133.39 77.3994 133.626 76.8094 133.958 77.1414C134.29 77.4734 134.326 78.3364 134.037 79.0584ZM157.037 80.0584C156.718 80.8554 156.481 80.6184 156.433 79.4534C156.39 78.3994 156.626 77.8094 156.958 78.1414C157.29 78.4734 157.326 79.3364 157.037 80.0584ZM133.037 89.0584C132.718 89.8554 132.481 89.6184 132.433 88.4534C132.39 87.3994 132.626 86.8094 132.958 87.1414C133.29 87.4734 133.326 88.3364 133.037 89.0584ZM156.037 91.0584C155.718 91.8554 155.481 91.6184 155.433 90.4534C155.39 89.3994 155.626 88.8094 155.958 89.1414C156.29 89.4734 156.326 90.3364 156.037 91.0584ZM132.043 103.62C131.792 104.583 131.586 103.795 131.586 101.87C131.586 99.9454 131.792 99.1574 132.043 100.12C132.295 101.083 132.295 102.657 132.043 103.62ZM55.0162 103.12C54.7392 103.808 54.5122 103.245 54.5122 101.87C54.5122 100.495 54.7392 99.9334 55.0162 100.62C55.2942 101.308 55.2942 102.433 55.0162 103.12ZM155.079 108.102C154.856 109.899 154.669 108.67 154.664 105.37C154.658 102.07 154.84 100.599 155.069 102.102C155.297 103.605 155.301 106.305 155.079 108.102ZM32.0162 104.12C31.7392 104.808 31.5122 104.245 31.5122 102.87C31.5122 101.495 31.7392 100.933 32.0162 101.62C32.2942 102.308 32.2942 103.433 32.0162 104.12ZM32.0472 112.601C31.7932 113.574 31.5692 113.02 31.5492 111.37C31.5292 109.72 31.7362 108.924 32.0102 109.601C32.2842 110.278 32.3012 111.628 32.0472 112.601ZM132.047 113.601C131.793 114.574 131.569 114.02 131.549 112.37C131.529 110.72 131.736 109.924 132.01 110.601C132.284 111.278 132.301 112.628 132.047 113.601ZM155.047 116.601C154.793 117.574 154.569 117.02 154.549 115.37C154.529 113.72 154.736 112.924 155.01 113.601C155.284 114.278 155.301 115.628 155.047 116.601ZM118.482 118.62C119.725 120.206 119.69 120.241 118.104 118.998C116.438 117.691 115.909 116.87 116.732 116.87C116.939 116.87 117.727 117.657 118.482 118.62ZM95.0832 127.474C94.7512 127.806 93.8882 127.842 93.1672 127.553C92.3692 127.234 92.6062 126.997 93.7712 126.949C94.8252 126.906 95.4152 127.142 95.0832 127.474ZM105.604 128.532C104.917 128.81 103.792 128.81 103.104 128.532C102.417 128.255 102.979 128.028 104.354 128.028C105.729 128.028 106.292 128.255 105.604 128.532ZM63.8542 130.87C64.8492 131.97 65.4392 132.87 65.1642 132.87C64.8892 132.87 63.8492 131.97 62.8542 130.87C61.8592 129.77 61.2692 128.87 61.5442 128.87C61.8192 128.87 62.8592 129.77 63.8542 130.87ZM36.3542 134.196C36.3542 134.375 35.1172 135.612 33.6042 136.946L30.8542 139.37L33.2782 136.62C35.5442 134.05 36.3542 133.411 36.3542 134.196ZM133.917 140.12L136.854 143.37L133.604 140.433C130.575 137.695 129.894 136.87 130.667 136.87C130.839 136.87 132.302 138.333 133.917 140.12ZM87.0832 140.474C86.7512 140.806 85.8882 140.842 85.1672 140.553C84.3692 140.234 84.6062 139.997 85.7712 139.949C86.8252 139.906 87.4152 140.142 87.0832 140.474ZM97.0832 141.474C96.7512 141.806 95.8882 141.842 95.1672 141.553C94.3692 141.234 94.6062 140.997 95.7712 140.949C96.8252 140.906 97.4152 141.142 97.0832 141.474ZM66.0372 159.058C65.7182 159.855 65.4812 159.618 65.4332 158.453C65.3902 157.399 65.6262 156.809 65.9582 157.141C66.2902 157.473 66.3262 158.336 66.0372 159.058ZM130.016 172.12C129.739 172.808 129.512 172.245 129.512 170.87C129.512 169.495 129.739 168.933 130.016 169.62C130.294 170.308 130.294 171.433 130.016 172.12ZM145.037 175.058C144.718 175.855 144.481 175.618 144.433 174.453C144.39 173.399 144.626 172.809 144.958 173.141C145.29 173.473 145.326 174.336 145.037 175.058ZM48.0432 182.62C47.7922 183.583 47.5862 182.795 47.5862 180.87C47.5862 178.945 47.7922 178.157 48.0432 179.12C48.2952 180.083 48.2952 181.657 48.0432 182.62ZM25.0612 184.108C24.8222 185.352 24.6172 184.57 24.6062 182.37C24.5952 180.17 24.7912 179.152 25.0412 180.108C25.2912 181.064 25.3002 182.864 25.0612 184.108ZM76.8542 184.87C77.8492 185.97 78.4392 186.87 78.1642 186.87C77.8892 186.87 76.8492 185.97 75.8542 184.87C74.8592 183.77 74.2692 182.87 74.5442 182.87C74.8192 182.87 75.8592 183.77 76.8542 184.87ZM126.354 183.215C126.354 183.405 125.342 184.417 124.104 185.465L121.854 187.37L123.759 185.12C125.549 183.006 126.354 182.415 126.354 183.215ZM82.4822 190.62C83.7252 192.206 83.6902 192.241 82.1042 190.998C80.4382 189.691 79.9092 188.87 80.7322 188.87C80.9392 188.87 81.7272 189.657 82.4822 190.62ZM25.0472 198.601C24.7932 199.574 24.5692 199.02 24.5492 197.37C24.5292 195.72 24.7362 194.924 25.0102 195.601C25.2842 196.278 25.3012 197.628 25.0472 198.601ZM48.0372 199.058C47.7182 199.855 47.4812 199.618 47.4332 198.453C47.3902 197.399 47.6262 196.809 47.9582 197.141C48.2902 197.473 48.3262 198.336 48.0372 199.058ZM157.354 203.167C157.354 203.33 155.442 205.243 153.104 207.417L148.854 211.37L152.807 207.12C156.483 203.168 157.354 202.41 157.354 203.167ZM48.0472 210.601C47.7932 211.574 47.5692 211.02 47.5492 209.37C47.5292 207.72 47.7362 206.924 48.0102 207.601C48.2842 208.278 48.3012 209.628 48.0472 210.601ZM90.0832 207.474C89.7512 207.806 88.8882 207.842 88.1672 207.553C87.3692 207.234 87.6062 206.997 88.7712 206.949C89.8252 206.906 90.4152 207.142 90.0832 207.474ZM96.0832 207.474C95.7512 207.806 94.8882 207.842 94.1672 207.553C93.3692 207.234 93.6062 206.997 94.7712 206.949C95.8252 206.906 96.4152 207.142 96.0832 207.474ZM25.0792 216.102C24.8562 217.899 24.6692 216.67 24.6642 213.37C24.6582 210.07 24.8402 208.599 25.0692 210.102C25.2972 211.605 25.3012 214.305 25.0792 216.102ZM48.0162 218.12C47.7392 218.808 47.5122 218.245 47.5122 216.87C47.5122 215.495 47.7392 214.933 48.0162 215.62C48.2942 216.308 48.2942 217.433 48.0162 218.12ZM66.0372 217.058C65.7182 217.855 65.4812 217.618 65.4332 216.453C65.3902 215.399 65.6262 214.809 65.9582 215.141C66.2902 215.473 66.3262 216.336 66.0372 217.058ZM64.3542 221.248C64.3542 221.455 63.5672 222.243 62.6042 222.998C61.0182 224.241 60.9832 224.206 62.2262 222.62C63.5332 220.954 64.3542 220.425 64.3542 221.248ZM90.6232 230.526C89.9462 230.8 88.5962 230.817 87.6232 230.563C86.6502 230.309 87.2042 230.085 88.8542 230.065C90.5042 230.045 91.3002 230.252 90.6232 230.526ZM95.6042 230.532C94.9172 230.81 93.7922 230.81 93.1042 230.532C92.4172 230.255 92.9792 230.028 94.3542 230.028C95.7292 230.028 96.2922 230.255 95.6042 230.532ZM33.4822 238.62C34.7252 240.206 34.6902 240.241 33.1042 238.998C31.4382 237.691 30.9092 236.87 31.7322 236.87C31.9392 236.87 32.7272 237.657 33.4822 238.62ZM62.0832 248.474C61.7512 248.806 60.8882 248.842 60.1672 248.553C59.3692 248.234 59.6062 247.997 60.7712 247.949C61.8252 247.906 62.4152 248.142 62.0832 248.474Z" fill="white"/>
<path fill-rule="evenodd" clip-rule="evenodd" d="M116.854 0.550434C115.754 0.796434 111.929 1.98043 108.354 3.18143C103.201 4.91243 99.3682 5.38243 89.8542 5.45343C83.2542 5.50243 74.9292 6.10143 71.3542 6.78543C56.8982 9.54843 41.3042 17.9434 31.6372 28.1644C16.3482 44.3314 4.35421 88.4094 7.46521 117.004C8.53521 126.837 8.50221 127.184 6.07921 131.722C-0.113792 143.324 -0.165793 143.785 0.0652073 186.044C0.298207 228.829 0.743208 232.81 6.63321 244.797C12.9662 257.685 27.4062 268.785 42.4572 272.333C59.4532 276.339 78.8472 271.645 93.2682 260.034C98.1682 256.089 100.483 254.87 103.076 254.87C107.406 254.87 128.404 249.586 137.154 246.295C158.382 238.31 175.867 223.827 184.807 206.825C191.099 194.856 192.837 186.545 192.846 168.37C192.855 150.188 191.578 144.391 184.148 128.903L180.087 120.436L180.664 104.403C180.981 95.5854 181.749 82.7454 182.371 75.8704C184.479 52.5864 181.993 36.7754 174.355 24.8714C167.227 13.7644 152.498 3.64643 139.555 0.967434C134.395 -0.100566 120.872 -0.349566 116.854 0.550434ZM124.623 25.5264C123.946 25.8004 122.596 25.8174 121.623 25.5634C120.65 25.3094 121.204 25.0854 122.854 25.0654C124.504 25.0454 125.3 25.2524 124.623 25.5264ZM132.604 25.5324C131.917 25.8104 130.792 25.8104 130.104 25.5324C129.417 25.2554 129.979 25.0284 131.354 25.0284C132.729 25.0284 133.292 25.2554 132.604 25.5324ZM90.6042 30.5764C89.3662 30.8144 87.3422 30.8144 86.1042 30.5764C84.8662 30.3374 85.8792 30.1424 88.3542 30.1424C90.8292 30.1424 91.8422 30.3374 90.6042 30.5764ZM79.0832 31.4744C78.7512 31.8064 77.8882 31.8424 77.1672 31.5534C76.3692 31.2344 76.6062 30.9974 77.7712 30.9494C78.8252 30.9064 79.4152 31.1424 79.0832 31.4744ZM100.083 31.4744C99.7512 31.8064 98.8882 31.8424 98.1672 31.5534C97.3692 31.2344 97.6062 30.9974 98.7712 30.9494C99.8252 30.9064 100.415 31.1424 100.083 31.4744ZM149.482 33.6204C150.725 35.2064 150.69 35.2414 149.104 33.9984C147.438 32.6914 146.909 31.8704 147.732 31.8704C147.939 31.8704 148.727 32.6584 149.482 33.6204ZM51.3542 44.2484C51.3542 44.4554 50.5672 45.2434 49.6042 45.9984C48.0182 47.2414 47.9832 47.2064 49.2262 45.6204C50.5332 43.9544 51.3542 43.4254 51.3542 44.2484ZM91.6182 53.5744C90.3882 53.8114 88.1382 53.8174 86.6182 53.5884C85.0982 53.3584 86.1042 53.1644 88.8542 53.1564C91.6042 53.1494 92.8482 53.3374 91.6182 53.5744ZM135.082 65.6204C134.867 67.6834 134.69 65.9954 134.69 61.8704C134.69 57.7454 134.867 56.0584 135.082 58.1204C135.298 60.1834 135.298 63.5584 135.082 65.6204ZM158.079 64.1024C157.856 65.8994 157.669 64.6704 157.664 61.3704C157.658 58.0704 157.84 56.5994 158.069 58.1024C158.297 59.6054 158.301 62.3054 158.079 64.1024ZM70.3542 58.2484C70.3542 58.4554 69.5672 59.2434 68.6042 59.9984C67.0182 61.2414 66.9832 61.2064 68.2262 59.6204C69.5332 57.9544 70.3542 57.4254 70.3542 58.2484ZM112.917 63.1204L115.854 66.3704L112.604 63.4334C110.817 61.8184 109.354 60.3554 109.354 60.1834C109.354 59.4104 110.179 60.0914 112.917 63.1204ZM90.1042 66.5594C89.1412 66.8114 87.5672 66.8114 86.6042 66.5594C85.6412 66.3084 86.4292 66.1024 88.3542 66.1024C90.2792 66.1024 91.0672 66.3084 90.1042 66.5594ZM100.354 71.3704C101.646 72.7454 102.478 73.8704 102.203 73.8704C101.928 73.8704 100.646 72.7454 99.3542 71.3704C98.0622 69.9954 97.2302 68.8704 97.5052 68.8704C97.7802 68.8704 99.0622 69.9954 100.354 71.3704ZM157.047 79.6014C156.793 80.5744 156.569 80.0204 156.549 78.3704C156.529 76.7204 156.736 75.9244 157.01 76.6014C157.284 77.2784 157.301 78.6284 157.047 79.6014ZM134.047 80.6014C133.793 81.5744 133.569 81.0204 133.549 79.3704C133.529 77.7204 133.736 76.9244 134.01 77.6014C134.284 78.2784 134.301 79.6284 134.047 80.6014ZM34.0372 89.0584C33.7182 89.8554 33.4812 89.6184 33.4332 88.4534C33.3902 87.3994 33.6262 86.8094 33.9582 87.1414C34.2902 87.4734 34.3262 88.3364 34.0372 89.0584ZM133.047 90.6014C132.793 91.5744 132.569 91.0204 132.549 89.3704C132.529 87.7204 132.736 86.9244 133.01 87.6014C133.284 88.2784 133.301 89.6284 133.047 90.6014ZM156.047 90.6014C155.793 91.5744 155.569 91.0204 155.549 89.3704C155.529 87.7204 155.736 86.9244 156.01 87.6014C156.284 88.2784 156.301 89.6284 156.047 90.6014ZM33.0372 95.0584C32.7182 95.8554 32.4812 95.6184 32.4332 94.4534C32.3902 93.3994 32.6262 92.8094 32.9582 93.1414C33.2902 93.4734 33.3262 94.3364 33.0372 95.0584ZM72.0372 98.0584C71.7182 98.8554 71.4812 98.6184 71.4332 97.4534C71.3902 96.3994 71.6262 95.8094 71.9582 96.1414C72.2902 96.4734 72.3262 97.3364 72.0372 98.0584ZM155.091 113.12C154.889 116.007 154.724 113.645 154.724 107.87C154.724 102.095 154.889 99.7324 155.091 102.62C155.293 105.508 155.293 110.232 155.091 113.12ZM132.086 111.12C131.876 113.457 131.703 111.545 131.703 106.87C131.703 102.195 131.876 100.282 132.086 102.62C132.297 104.957 132.297 108.782 132.086 111.12ZM55.0162 103.12C54.7392 103.808 54.5122 103.245 54.5122 101.87C54.5122 100.495 54.7392 99.9334 55.0162 100.62C55.2942 101.308 55.2942 102.433 55.0162 103.12ZM32.0842 110.598C31.8672 112.672 31.6872 111.22 31.6822 107.37C31.6782 103.52 31.8552 101.822 32.0762 103.598C32.2972 105.373 32.3002 108.523 32.0842 110.598ZM115.037 109.058C114.718 109.855 114.481 109.618 114.433 108.453C114.39 107.399 114.626 106.809 114.958 107.141C115.29 107.473 115.326 108.336 115.037 109.058ZM72.0372 110.058C71.7182 110.855 71.4812 110.618 71.4332 109.453C71.3902 108.399 71.6262 107.809 71.9582 108.141C72.2902 108.473 72.3262 109.336 72.0372 110.058ZM55.0372 113.058C54.7182 113.855 54.4812 113.618 54.4332 112.453C54.3902 111.399 54.6262 110.809 54.9582 111.141C55.2902 111.473 55.3262 112.336 55.0372 113.058ZM131.354 116.248C131.354 116.455 130.567 117.243 129.604 117.998C128.018 119.241 127.983 119.206 129.226 117.62C130.533 115.954 131.354 115.425 131.354 116.248ZM118.482 118.62C119.725 120.206 119.69 120.241 118.104 118.998C116.438 117.691 115.909 116.87 116.732 116.87C116.939 116.87 117.727 117.657 118.482 118.62ZM90.0832 126.474C89.7512 126.806 88.8882 126.842 88.1672 126.553C87.3692 126.234 87.6062 125.997 88.7712 125.949C89.8252 125.906 90.4152 126.142 90.0832 126.474ZM96.6232 127.526C95.9462 127.8 94.5962 127.817 93.6232 127.563C92.6502 127.309 93.2042 127.085 94.8542 127.065C96.5042 127.045 97.3002 127.252 96.6232 127.526ZM63.3542 130.37C64.6462 131.745 65.4782 132.87 65.2032 132.87C64.9282 132.87 63.6462 131.745 62.3542 130.37C61.0622 128.995 60.2302 127.87 60.5052 127.87C60.7802 127.87 62.0622 128.995 63.3542 130.37ZM106.623 128.526C105.946 128.8 104.596 128.817 103.623 128.563C102.65 128.309 103.204 128.085 104.854 128.065C106.504 128.045 107.3 128.252 106.623 128.526ZM36.3542 134.196C36.3542 134.375 35.1172 135.612 33.6042 136.946L30.8542 139.37L33.2782 136.62C35.5442 134.05 36.3542 133.411 36.3542 134.196ZM133.917 140.12L136.854 143.37L133.604 140.433C130.575 137.695 129.894 136.87 130.667 136.87C130.839 136.87 132.302 138.333 133.917 140.12ZM86.6042 140.532C85.9172 140.81 84.7922 140.81 84.1042 140.532C83.4172 140.255 83.9792 140.028 85.3542 140.028C86.7292 140.028 87.2922 140.255 86.6042 140.532ZM96.6232 141.526C95.9462 141.8 94.5962 141.817 93.6232 141.563C92.6502 141.309 93.2042 141.085 94.8542 141.065C96.5042 141.045 97.3002 141.252 96.6232 141.526ZM104.083 142.474C103.751 142.806 102.888 142.842 102.167 142.553C101.369 142.234 101.606 141.997 102.771 141.949C103.825 141.906 104.415 142.142 104.083 142.474ZM123.354 151.37C124.646 152.745 125.478 153.87 125.203 153.87C124.928 153.87 123.646 152.745 122.354 151.37C121.062 149.995 120.23 148.87 120.505 148.87C120.78 148.87 122.062 149.995 123.354 151.37ZM66.0472 158.601C65.7932 159.574 65.5692 159.02 65.5492 157.37C65.5292 155.72 65.7362 154.924 66.0102 155.601C66.2842 156.278 66.3012 157.628 66.0472 158.601ZM25.0612 161.108C24.8222 162.352 24.6172 161.57 24.6062 159.37C24.5952 157.17 24.7912 156.152 25.0412 157.108C25.2912 158.064 25.3002 159.864 25.0612 161.108ZM168.016 162.12C167.739 162.808 167.512 162.245 167.512 160.87C167.512 159.495 167.739 158.933 168.016 159.62C168.294 160.308 168.294 161.433 168.016 162.12ZM48.0432 164.62C47.7922 165.583 47.5862 164.795 47.5862 162.87C47.5862 160.945 47.7922 160.157 48.0432 161.12C48.2952 162.083 48.2952 163.657 48.0432 164.62ZM145.037 163.058C144.718 163.855 144.481 163.618 144.433 162.453C144.39 161.399 144.626 160.809 144.958 161.141C145.29 161.473 145.326 162.336 145.037 163.058ZM67.0372 165.058C66.7182 165.855 66.4812 165.618 66.4332 164.453C66.3902 163.399 66.6262 162.809 66.9582 163.141C67.2902 163.473 67.3262 164.336 67.0372 165.058ZM130.06 171.12C129.821 172.358 129.626 171.345 129.626 168.87C129.626 166.395 129.821 165.382 130.06 166.62C130.298 167.858 130.298 169.882 130.06 171.12ZM48.0842 180.598C47.8672 182.672 47.6872 181.22 47.6822 177.37C47.6782 173.52 47.8552 171.822 48.0762 173.598C48.2972 175.373 48.3002 178.523 48.0842 180.598ZM145.016 176.12C144.739 176.808 144.512 176.245 144.512 174.87C144.512 173.495 144.739 172.933 145.016 173.62C145.294 174.308 145.294 175.433 145.016 176.12ZM168.016 177.12C167.739 177.808 167.512 177.245 167.512 175.87C167.512 174.495 167.739 173.933 168.016 174.62C168.294 175.308 168.294 176.433 168.016 177.12ZM25.0942 194.583C24.8952 197.766 24.7302 195.42 24.7282 189.37C24.7262 183.32 24.8892 180.716 25.0902 183.583C25.2912 186.451 25.2932 191.401 25.0942 194.583ZM76.8542 184.87C77.8492 185.97 78.4392 186.87 78.1642 186.87C77.8892 186.87 76.8492 185.97 75.8542 184.87C74.8592 183.77 74.2692 182.87 74.5442 182.87C74.8192 182.87 75.8592 183.77 76.8542 184.87ZM126.354 183.215C126.354 183.405 125.342 184.417 124.104 185.465L121.854 187.37L123.759 185.12C125.549 183.006 126.354 182.415 126.354 183.215ZM120.854 187.87C120.514 188.42 119.7 188.863 119.045 188.855C118.329 188.845 118.453 188.452 119.354 187.87C121.275 186.628 121.621 186.628 120.854 187.87ZM82.4822 190.62C83.7252 192.206 83.6902 192.241 82.1042 190.998C80.4382 189.691 79.9092 188.87 80.7322 188.87C80.9392 188.87 81.7272 189.657 82.4822 190.62ZM134.354 193.248C134.354 193.455 133.567 194.243 132.604 194.998C131.018 196.241 130.983 196.206 132.226 194.62C133.533 192.954 134.354 192.425 134.354 193.248ZM92.0832 194.474C91.7512 194.806 90.8882 194.842 90.1672 194.553C89.3692 194.234 89.6062 193.997 90.7712 193.949C91.8252 193.906 92.4152 194.142 92.0832 194.474ZM101.083 194.474C100.751 194.806 99.8882 194.842 99.1672 194.553C98.3692 194.234 98.6062 193.997 99.7712 193.949C100.825 193.906 101.415 194.142 101.083 194.474ZM48.0472 200.601C47.7932 201.574 47.5692 201.02 47.5492 199.37C47.5292 197.72 47.7362 196.924 48.0102 197.601C48.2842 198.278 48.3012 199.628 48.0472 200.601ZM65.0472 205.601C64.7932 206.574 64.5692 206.02 64.5492 204.37C64.5292 202.72 64.7362 201.924 65.0102 202.601C65.2842 203.278 65.3012 204.628 65.0472 205.601ZM157.354 203.167C157.354 203.33 155.442 205.243 153.104 207.417L148.854 211.37L152.807 207.12C156.483 203.168 157.354 202.41 157.354 203.167ZM48.0612 210.108C47.8222 211.352 47.6172 210.57 47.6062 208.37C47.5952 206.17 47.7912 205.152 48.0412 206.108C48.2912 207.064 48.3002 208.864 48.0612 210.108ZM89.6042 207.532C88.9172 207.81 87.7922 207.81 87.1042 207.532C86.4172 207.255 86.9792 207.028 88.3542 207.028C89.7292 207.028 90.2922 207.255 89.6042 207.532ZM97.6232 207.526C96.9462 207.8 95.5962 207.817 94.6232 207.563C93.6502 207.309 94.2042 207.085 95.8542 207.065C97.5042 207.045 98.3002 207.252 97.6232 207.526ZM25.0792 216.102C24.8562 217.899 24.6692 216.67 24.6642 213.37C24.6582 210.07 24.8402 208.599 25.0692 210.102C25.2972 211.605 25.3012 214.305 25.0792 216.102ZM66.0162 217.12C65.7392 217.808 65.5122 217.245 65.5122 215.87C65.5122 214.495 65.7392 213.933 66.0162 214.62C66.2942 215.308 66.2942 216.433 66.0162 217.12ZM48.0162 218.12C47.7392 218.808 47.5122 218.245 47.5122 216.87C47.5122 215.495 47.7392 214.933 48.0162 215.62C48.2942 216.308 48.2942 217.433 48.0162 218.12ZM65.3542 220.215C65.3542 220.405 64.3412 221.417 63.1042 222.465L60.8542 224.37L62.7592 222.12C64.5492 220.006 65.3542 219.415 65.3542 220.215ZM59.8542 224.87C59.5142 225.42 58.4752 225.838 57.5452 225.8C56.1662 225.742 56.2242 225.571 57.8542 224.87C60.5302 223.72 60.5652 223.72 59.8542 224.87ZM94.1042 230.586C92.5922 230.815 90.1162 230.815 88.6042 230.586C87.0922 230.357 88.3292 230.17 91.3542 230.17C94.3792 230.17 95.6162 230.357 94.1042 230.586ZM34.9172 240.12L37.8542 243.37L34.6042 240.433C31.5752 237.695 30.8942 236.87 31.6672 236.87C31.8392 236.87 33.3022 238.333 34.9172 240.12ZM77.3542 240.248C77.3542 240.455 76.5672 241.243 75.6042 241.998C74.0182 243.241 73.9832 243.206 75.2262 241.62C76.5332 239.954 77.3542 239.425 77.3542 240.248ZM52.6042 248.532C51.9172 248.81 50.7922 248.81 50.1042 248.532C49.4172 248.255 49.9792 248.028 51.3542 248.028C52.7292 248.028 53.2922 248.255 52.6042 248.532ZM61.6232 248.526C60.9462 248.8 59.5962 248.817 58.6232 248.563C57.6502 248.309 58.2042 248.085 59.8542 248.065C61.5042 248.045 62.3002 248.252 61.6232 248.526Z" fill="white"/>
<path fill-rule="evenodd" clip-rule="evenodd" d="M116.854 0.550434C115.754 0.796434 111.929 1.98043 108.354 3.18143C103.201 4.91243 99.3682 5.38243 89.8542 5.45343C83.2542 5.50243 74.9292 6.10143 71.3542 6.78543C56.8982 9.54843 41.3042 17.9434 31.6372 28.1644C16.3482 44.3314 4.35421 88.4094 7.46521 117.004C8.53521 126.837 8.50221 127.184 6.07921 131.722C-0.113792 143.324 -0.165793 143.785 0.0652073 186.044C0.298207 228.829 0.743208 232.81 6.63321 244.797C12.9662 257.685 27.4062 268.785 42.4572 272.333C59.4532 276.339 78.8472 271.645 93.2682 260.034C98.1682 256.089 100.483 254.87 103.076 254.87C107.406 254.87 128.404 249.586 137.154 246.295C158.382 238.31 175.867 223.827 184.807 206.825C191.099 194.856 192.837 186.545 192.846 168.37C192.855 150.188 191.578 144.391 184.148 128.903L180.087 120.436L180.664 104.403C180.981 95.5854 181.749 82.7454 182.371 75.8704C184.479 52.5864 181.993 36.7754 174.355 24.8714C167.227 13.7644 152.498 3.64643 139.555 0.967434C134.395 -0.100566 120.872 -0.349566 116.854 0.550434ZM124.623 25.5264C123.946 25.8004 122.596 25.8174 121.623 25.5634C120.65 25.3094 121.204 25.0854 122.854 25.0654C124.504 25.0454 125.3 25.2524 124.623 25.5264ZM132.623 25.5264C131.946 25.8004 130.596 25.8174 129.623 25.5634C128.65 25.3094 129.204 25.0854 130.854 25.0654C132.504 25.0454 133.3 25.2524 132.623 25.5264ZM90.6042 30.5764C89.3662 30.8144 87.3422 30.8144 86.1042 30.5764C84.8662 30.3374 85.8792 30.1424 88.3542 30.1424C90.8292 30.1424 91.8422 30.3374 90.6042 30.5764ZM79.6042 31.5324C78.9172 31.8104 77.7922 31.8104 77.1042 31.5324C76.4172 31.2554 76.9792 31.0284 78.3542 31.0284C79.7292 31.0284 80.2922 31.2554 79.6042 31.5324ZM100.083 31.4744C99.7512 31.8064 98.8882 31.8424 98.1672 31.5534C97.3692 31.2344 97.6062 30.9974 98.7712 30.9494C99.8252 30.9064 100.415 31.1424 100.083 31.4744ZM149.482 33.6204C150.725 35.2064 150.69 35.2414 149.104 33.9984C147.438 32.6914 146.909 31.8704 147.732 31.8704C147.939 31.8704 148.727 32.6584 149.482 33.6204ZM51.3542 44.2484C51.3542 44.4554 50.5672 45.2434 49.6042 45.9984C48.0182 47.2414 47.9832 47.2064 49.2262 45.6204C50.5332 43.9544 51.3542 43.4254 51.3542 44.2484ZM157.037 49.0584C156.718 49.8554 156.481 49.6184 156.433 48.4534C156.39 47.3994 156.626 46.8094 156.958 47.1414C157.29 47.4734 157.326 48.3364 157.037 49.0584ZM45.1702 53.3744C44.5432 54.7524 43.8412 55.6904 43.6112 55.4604C43.1432 54.9934 45.1712 50.8704 45.8682 50.8704C46.1122 50.8704 45.7982 51.9974 45.1702 53.3744ZM91.1042 53.5864C89.5922 53.8154 87.1162 53.8154 85.6042 53.5864C84.0922 53.3574 85.3292 53.1704 88.3542 53.1704C91.3792 53.1704 92.6162 53.3574 91.1042 53.5864ZM135.086 66.1204C134.876 68.4574 134.703 66.5454 134.703 61.8704C134.703 57.1954 134.876 55.2824 135.086 57.6204C135.297 59.9574 135.297 63.7824 135.086 66.1204ZM158.079 64.1024C157.856 65.8994 157.669 64.6704 157.664 61.3704C157.658 58.0704 157.84 56.5994 158.069 58.1024C158.297 59.6054 158.301 62.3054 158.079 64.1024ZM70.3542 58.2484C70.3542 58.4554 69.5672 59.2434 68.6042 59.9984C67.0182 61.2414 66.9832 61.2064 68.2262 59.6204C69.5332 57.9544 70.3542 57.4254 70.3542 58.2484ZM112.917 63.1204L115.854 66.3704L112.604 63.4334C110.817 61.8184 109.354 60.3554 109.354 60.1834C109.354 59.4104 110.179 60.0914 112.917 63.1204ZM64.4762 65.5454C63.2972 67.5724 63.0132 66.9234 63.9782 64.4094C64.3202 63.5154 64.8122 62.9944 65.0692 63.2524C65.3272 63.5094 65.0602 64.5414 64.4762 65.5454ZM90.1042 66.5594C89.1412 66.8114 87.5672 66.8114 86.6042 66.5594C85.6412 66.3084 86.4292 66.1024 88.3542 66.1024C90.2792 66.1024 91.0672 66.3084 90.1042 66.5594ZM100.354 71.3704C101.646 72.7454 102.478 73.8704 102.203 73.8704C101.928 73.8704 100.646 72.7454 99.3542 71.3704C98.0622 69.9954 97.2302 68.8704 97.5052 68.8704C97.7802 68.8704 99.0622 69.9954 100.354 71.3704ZM104.902 77.9634C105.782 79.6644 106.324 81.2334 106.107 81.4504C105.89 81.6674 104.964 80.2764 104.049 78.3574C101.993 74.0454 102.705 73.7154 104.902 77.9634ZM157.047 79.6014C156.793 80.5744 156.569 80.0204 156.549 78.3704C156.529 76.7204 156.736 75.9244 157.01 76.6014C157.284 77.2784 157.301 78.6284 157.047 79.6014ZM134.047 80.6014C133.793 81.5744 133.569 81.0204 133.549 79.3704C133.529 77.7204 133.736 76.9244 134.01 77.6014C134.284 78.2784 134.301 79.6284 134.047 80.6014ZM59.0372 81.0584C58.7182 81.8554 58.4812 81.6184 58.4332 80.4534C58.3902 79.3994 58.6262 78.8094 58.9582 79.1414C59.2902 79.4734 59.3262 80.3364 59.0372 81.0584ZM35.0372 84.0584C34.7182 84.8554 34.4812 84.6184 34.4332 83.4534C34.3902 82.3994 34.6262 81.8094 34.9582 82.1414C35.2902 82.4734 35.3262 83.3364 35.0372 84.0584ZM34.0372 89.0584C33.7182 89.8554 33.4812 89.6184 33.4332 88.4534C33.3902 87.3994 33.6262 86.8094 33.9582 87.1414C34.2902 87.4734 34.3262 88.3364 34.0372 89.0584ZM133.047 90.6014C132.793 91.5744 132.569 91.0204 132.549 89.3704C132.529 87.7204 132.736 86.9244 133.01 87.6014C133.284 88.2784 133.301 89.6284 133.047 90.6014ZM156.047 90.6014C155.793 91.5744 155.569 91.0204 155.549 89.3704C155.529 87.7204 155.736 86.9244 156.01 87.6014C156.284 88.2784 156.301 89.6284 156.047 90.6014ZM73.0372 93.0584C72.7182 93.8554 72.4812 93.6184 72.4332 92.4534C72.3902 91.3994 72.6262 90.8094 72.9582 91.1414C73.2902 91.4734 73.3262 92.3364 73.0372 93.0584ZM33.0372 95.0584C32.7182 95.8554 32.4812 95.6184 32.4332 94.4534C32.3902 93.3994 32.6262 92.8094 32.9582 93.1414C33.2902 93.4734 33.3262 94.3364 33.0372 95.0584ZM56.0372 95.0584C55.7182 95.8554 55.4812 95.6184 55.4332 94.4534C55.3902 93.3994 55.6262 92.8094 55.9582 93.1414C56.2902 93.4734 56.3262 94.3364 56.0372 95.0584ZM72.0162 99.1204C71.7392 99.8084 71.5122 99.2454 71.5122 97.8704C71.5122 96.4954 71.7392 95.9334 72.0162 96.6204C72.2942 97.3084 72.2942 98.4334 72.0162 99.1204ZM155.094 112.583C154.895 115.766 154.73 113.42 154.728 107.37C154.726 101.32 154.889 98.7164 155.09 101.583C155.291 104.451 155.293 109.401 155.094 112.583ZM55.0472 102.601C54.7932 103.574 54.5692 103.02 54.5492 101.37C54.5292 99.7204 54.7362 98.9244 55.0102 99.6014C55.2842 100.278 55.3012 101.628 55.0472 102.601ZM130.184 117.299L127.928 119.37L129.641 117.291C130.912 115.749 131.406 113.041 131.558 106.791L131.761 98.3704L132.101 106.799C132.411 114.5 132.246 115.407 130.184 117.299ZM32.0842 110.598C31.8672 112.672 31.6872 111.22 31.6822 107.37C31.6782 103.52 31.8552 101.822 32.0762 103.598C32.2972 105.373 32.3002 108.523 32.0842 110.598ZM72.0162 110.12C71.7392 110.808 71.5122 110.245 71.5122 108.87C71.5122 107.495 71.7392 106.933 72.0162 107.62C72.2942 108.308 72.2942 109.433 72.0162 110.12ZM115.037 109.058C114.718 109.855 114.481 109.618 114.433 108.453C114.39 107.399 114.626 106.809 114.958 107.141C115.29 107.473 115.326 108.336 115.037 109.058ZM55.0162 114.12C54.7392 114.808 54.5122 114.245 54.5122 112.87C54.5122 111.495 54.7392 110.933 55.0162 111.62C55.2942 112.308 55.2942 113.433 55.0162 114.12ZM116.037 115.058C115.718 115.855 115.481 115.618 115.433 114.453C115.39 113.399 115.626 112.809 115.958 113.141C116.29 113.473 116.326 114.336 116.037 115.058ZM33.0372 119.058C32.7182 119.855 32.4812 119.618 32.4332 118.453C32.3902 117.399 32.6262 116.809 32.9582 117.141C33.2902 117.473 33.3262 118.336 33.0372 119.058ZM118.482 118.62C119.725 120.206 119.69 120.241 118.104 118.998C116.438 117.691 115.909 116.87 116.732 116.87C116.939 116.87 117.727 117.657 118.482 118.62ZM123.604 120.532C122.917 120.81 121.792 120.81 121.104 120.532C120.417 120.255 120.979 120.028 122.354 120.028C123.729 120.028 124.292 120.255 123.604 120.532ZM90.0832 126.474C89.7512 126.806 88.8882 126.842 88.1672 126.553C87.3692 126.234 87.6062 125.997 88.7712 125.949C89.8252 125.906 90.4152 126.142 90.0832 126.474ZM96.6232 127.526C95.9462 127.8 94.5962 127.817 93.6232 127.563C92.6502 127.309 93.2042 127.085 94.8542 127.065C96.5042 127.045 97.3002 127.252 96.6232 127.526ZM154.482 128.62C155.725 130.206 155.69 130.241 154.104 128.998C153.141 128.243 152.354 127.455 152.354 127.248C152.354 126.425 153.175 126.954 154.482 128.62ZM63.3542 130.37C64.6462 131.745 65.4782 132.87 65.2032 132.87C64.9282 132.87 63.6462 131.745 62.3542 130.37C61.0622 128.995 60.2302 127.87 60.5052 127.87C60.7802 127.87 62.0622 128.995 63.3542 130.37ZM106.623 128.526C105.946 128.8 104.596 128.817 103.623 128.563C102.65 128.309 103.204 128.085 104.854 128.065C106.504 128.045 107.3 128.252 106.623 128.526ZM36.3542 134.196C36.3542 134.375 35.1172 135.612 33.6042 136.946L30.8542 139.37L33.2782 136.62C35.5442 134.05 36.3542 133.411 36.3542 134.196ZM73.8802 137.677C73.5732 137.985 72.7662 137.678 72.0872 136.994C71.1072 136.006 71.2222 135.892 72.6472 136.434C73.6332 136.81 74.1882 137.369 73.8802 137.677ZM133.354 139.37C135.22 141.295 136.521 142.87 136.246 142.87C135.971 142.87 134.22 141.295 132.354 139.37C130.488 137.445 129.187 135.87 129.462 135.87C129.737 135.87 131.488 137.445 133.354 139.37ZM29.7622 142.37C28.8612 143.745 27.9242 144.87 27.6802 144.87C27.1902 144.87 28.1332 143.058 29.6322 141.12C31.3542 138.894 31.4482 139.797 29.7622 142.37ZM86.6042 140.532C85.9172 140.81 84.7922 140.81 84.1042 140.532C83.4172 140.255 83.9792 140.028 85.3542 140.028C86.7292 140.028 87.2922 140.255 86.6042 140.532ZM96.1042 141.559C95.1412 141.811 93.5672 141.811 92.6042 141.559C91.6412 141.308 92.4292 141.102 94.3542 141.102C96.2792 141.102 97.0672 141.308 96.1042 141.559ZM104.083 142.474C103.751 142.806 102.888 142.842 102.167 142.553C101.369 142.234 101.606 141.997 102.771 141.949C103.825 141.906 104.415 142.142 104.083 142.474ZM109.083 143.474C108.751 143.806 107.888 143.842 107.167 143.553C106.369 143.234 106.606 142.997 107.771 142.949C108.825 142.906 109.415 143.142 109.083 143.474ZM26.0372 150.058C25.7182 150.855 25.4812 150.618 25.4332 149.453C25.3902 148.399 25.6262 147.809 25.9582 148.141C26.2902 148.473 26.3262 149.336 26.0372 150.058ZM123.354 151.37C124.646 152.745 125.478 153.87 125.203 153.87C124.928 153.87 123.646 152.745 122.354 151.37C121.062 149.995 120.23 148.87 120.505 148.87C120.78 148.87 122.062 149.995 123.354 151.37ZM25.0792 160.102C24.8562 161.899 24.6692 160.67 24.6642 157.37C24.6582 154.07 24.8402 152.599 25.0692 154.102C25.2972 155.605 25.3012 158.305 25.0792 160.102ZM66.0432 158.62C65.7922 159.583 65.5862 158.795 65.5862 156.87C65.5862 154.945 65.7922 154.157 66.0432 155.12C66.2952 156.083 66.2952 157.657 66.0432 158.62ZM167.037 156.058C166.718 156.855 166.481 156.618 166.433 155.453C166.39 154.399 166.626 153.809 166.958 154.141C167.29 154.473 167.326 155.336 167.037 156.058ZM168.016 162.12C167.739 162.808 167.512 162.245 167.512 160.87C167.512 159.495 167.739 158.933 168.016 159.62C168.294 160.308 168.294 161.433 168.016 162.12ZM48.0432 164.62C47.7922 165.583 47.5862 164.795 47.5862 162.87C47.5862 160.945 47.7922 160.157 48.0432 161.12C48.2952 162.083 48.2952 163.657 48.0432 164.62ZM145.037 163.058C144.718 163.855 144.481 163.618 144.433 162.453C144.39 161.399 144.626 160.809 144.958 161.141C145.29 161.473 145.326 162.336 145.037 163.058ZM67.0372 165.058C66.7182 165.855 66.4812 165.618 66.4332 164.453C66.3902 163.399 66.6262 162.809 66.9582 163.141C67.2902 163.473 67.3262 164.336 67.0372 165.058ZM130.06 171.12C129.821 172.358 129.626 171.345 129.626 168.87C129.626 166.395 129.821 165.382 130.06 166.62C130.298 167.858 130.298 169.882 130.06 171.12ZM68.0372 169.058C67.7182 169.855 67.4812 169.618 67.4332 168.453C67.3902 167.399 67.6262 166.809 67.9582 167.141C68.2902 167.473 68.3262 168.336 68.0372 169.058ZM48.0822 180.62C47.8672 182.683 47.6902 180.995 47.6902 176.87C47.6902 172.745 47.8672 171.058 48.0822 173.12C48.2982 175.183 48.2982 178.558 48.0822 180.62ZM145.016 176.12C144.739 176.808 144.512 176.245 144.512 174.87C144.512 173.495 144.739 172.933 145.016 173.62C145.294 174.308 145.294 175.433 145.016 176.12ZM168.016 177.12C167.739 177.808 167.512 177.245 167.512 175.87C167.512 174.495 167.739 173.933 168.016 174.62C168.294 175.308 168.294 176.433 168.016 177.12ZM25.0942 194.583C24.8952 197.766 24.7302 195.42 24.7282 189.37C24.7262 183.32 24.8892 180.716 25.0902 183.583C25.2912 186.451 25.2932 191.401 25.0942 194.583ZM83.3542 191.578C83.3542 192.329 82.4562 191.535 78.3122 187.12L73.8542 182.37L78.6042 186.828C81.2172 189.28 83.3542 191.418 83.3542 191.578ZM126.354 183.215C126.354 183.405 125.342 184.417 124.104 185.465L121.854 187.37L123.759 185.12C125.549 183.006 126.354 182.415 126.354 183.215ZM120.854 187.87C120.514 188.42 119.7 188.863 119.045 188.855C118.329 188.845 118.453 188.452 119.354 187.87C121.275 186.628 121.621 186.628 120.854 187.87ZM138.354 190.248C138.354 190.455 137.567 191.243 136.604 191.998C135.018 193.241 134.983 193.206 136.226 191.62C137.533 189.954 138.354 189.425 138.354 190.248ZM134.354 193.248C134.354 193.455 133.567 194.243 132.604 194.998C131.018 196.241 130.983 196.206 132.226 194.62C133.533 192.954 134.354 192.425 134.354 193.248ZM92.0832 194.474C91.7512 194.806 90.8882 194.842 90.1672 194.553C89.3692 194.234 89.6062 193.997 90.7712 193.949C91.8252 193.906 92.4152 194.142 92.0832 194.474ZM101.083 194.474C100.751 194.806 99.8882 194.842 99.1672 194.553C98.3692 194.234 98.6062 193.997 99.7712 193.949C100.825 193.906 101.415 194.142 101.083 194.474ZM48.0472 200.601C47.7932 201.574 47.5692 201.02 47.5492 199.37C47.5292 197.72 47.7362 196.924 48.0102 197.601C48.2842 198.278 48.3012 199.628 48.0472 200.601ZM69.8472 199.859C70.1972 200.425 69.7962 200.593 68.9062 200.252C67.1742 199.587 66.8572 198.87 68.2952 198.87C68.8132 198.87 69.5112 199.315 69.8472 199.859ZM160.354 199.248C160.354 199.455 159.567 200.243 158.604 200.998C157.018 202.241 156.983 202.206 158.226 200.62C159.533 198.954 160.354 198.425 160.354 199.248ZM122.354 200.87C121.529 201.403 120.404 201.839 119.854 201.839C119.304 201.839 119.529 201.403 120.354 200.87C121.179 200.337 122.304 199.901 122.854 199.901C123.404 199.901 123.179 200.337 122.354 200.87ZM65.0472 205.601C64.7932 206.574 64.5692 206.02 64.5492 204.37C64.5292 202.72 64.7362 201.924 65.0102 202.601C65.2842 203.278 65.3012 204.628 65.0472 205.601ZM157.354 203.167C157.354 203.33 155.442 205.243 153.104 207.417L148.854 211.37L152.807 207.12C156.483 203.168 157.354 202.41 157.354 203.167ZM48.0602 210.12C47.8212 211.358 47.6262 210.345 47.6262 207.87C47.6262 205.395 47.8212 204.382 48.0602 205.62C48.2982 206.858 48.2982 208.882 48.0602 210.12ZM89.6232 207.526C88.9462 207.8 87.5962 207.817 86.6232 207.563C85.6502 207.309 86.2042 207.085 87.8542 207.065C89.5042 207.045 90.3002 207.252 89.6232 207.526ZM98.1042 207.559C97.1412 207.811 95.5672 207.811 94.6042 207.559C93.6412 207.308 94.4292 207.102 96.3542 207.102C98.2792 207.102 99.0672 207.308 98.1042 207.559ZM25.0792 216.102C24.8562 217.899 24.6692 216.67 24.6642 213.37C24.6582 210.07 24.8402 208.599 25.0692 210.102C25.2972 211.605 25.3012 214.305 25.0792 216.102ZM66.0472 217.601C65.7932 218.574 65.5692 218.02 65.5492 216.37C65.5292 214.72 65.7362 213.924 66.0102 214.601C66.2842 215.278 66.3012 216.628 66.0472 217.601ZM48.0162 218.12C47.7392 218.808 47.5122 218.245 47.5122 216.87C47.5122 215.495 47.7392 214.933 48.0162 215.62C48.2942 216.308 48.2942 217.433 48.0162 218.12ZM65.3542 220.215C65.3542 220.405 64.3412 221.417 63.1042 222.465L60.8542 224.37L62.7592 222.12C64.5492 220.006 65.3542 219.415 65.3542 220.215ZM59.8542 224.87C59.5142 225.42 58.4752 225.838 57.5452 225.8C56.1662 225.742 56.2242 225.571 57.8542 224.87C60.5302 223.72 60.5652 223.72 59.8542 224.87ZM121.083 225.474C120.751 225.806 119.888 225.842 119.167 225.553C118.369 225.234 118.606 224.997 119.771 224.949C120.825 224.906 121.415 225.142 121.083 225.474ZM117.083 226.474C116.751 226.806 115.888 226.842 115.167 226.553C114.369 226.234 114.606 225.997 115.771 225.949C116.825 225.906 117.415 226.142 117.083 226.474ZM104.083 229.474C103.751 229.806 102.888 229.842 102.167 229.553C101.369 229.234 101.606 228.997 102.771 228.949C103.825 228.906 104.415 229.142 104.083 229.474ZM94.1042 230.586C92.5922 230.815 90.1162 230.815 88.6042 230.586C87.0922 230.357 88.3292 230.17 91.3542 230.17C94.3792 230.17 95.6162 230.357 94.1042 230.586ZM83.3542 234.248C83.3542 234.455 82.5672 235.243 81.6042 235.998C80.0182 237.241 79.9832 237.206 81.2262 235.62C82.5332 233.954 83.3542 233.425 83.3542 234.248ZM34.9172 240.12L37.8542 243.37L34.6042 240.433C31.5752 237.695 30.8942 236.87 31.6672 236.87C31.8392 236.87 33.3022 238.333 34.9172 240.12ZM77.3542 240.248C77.3542 240.455 76.5672 241.243 75.6042 241.998C74.0182 243.241 73.9832 243.206 75.2262 241.62C76.5332 239.954 77.3542 239.425 77.3542 240.248ZM73.3542 243.335C73.3542 243.59 72.3412 244.29 71.1042 244.89C68.9432 245.937 68.9312 245.919 70.7952 244.425C72.8352 242.791 73.3542 242.57 73.3542 243.335ZM52.6042 248.532C51.9172 248.81 50.7922 248.81 50.1042 248.532C49.4172 248.255 49.9792 248.028 51.3542 248.028C52.7292 248.028 53.2922 248.255 52.6042 248.532ZM61.1042 248.559C60.1412 248.811 58.5672 248.811 57.6042 248.559C56.6412 248.308 57.4292 248.102 59.3542 248.102C61.2792 248.102 62.0672 248.308 61.1042 248.559Z" fill="white"/>
<path fill-rule="evenodd" clip-rule="evenodd" d="M116.854 0.550434C115.754 0.796434 111.929 1.98043 108.354 3.18143C103.201 4.91243 99.3682 5.38243 89.8542 5.45343C83.2542 5.50243 74.9292 6.10143 71.3542 6.78543C56.8982 9.54843 41.3042 17.9434 31.6372 28.1644C16.3482 44.3314 4.35421 88.4094 7.46521 117.004C8.53521 126.837 8.50221 127.184 6.07921 131.722C-0.113792 143.324 -0.165793 143.785 0.0652073 186.044C0.298207 228.829 0.743208 232.81 6.63321 244.797C12.9662 257.685 27.4062 268.785 42.4572 272.333C59.4532 276.339 78.8472 271.645 93.2682 260.034C98.1682 256.089 100.483 254.87 103.076 254.87C107.406 254.87 128.404 249.586 137.154 246.295C158.382 238.31 175.867 223.827 184.807 206.825C191.099 194.856 192.837 186.545 192.846 168.37C192.855 150.188 191.578 144.391 184.148 128.903L180.087 120.436L180.664 104.403C180.981 95.5854 181.749 82.7454 182.371 75.8704C184.479 52.5864 181.993 36.7754 174.355 24.8714C167.227 13.7644 152.498 3.64643 139.555 0.967434C134.395 -0.100566 120.872 -0.349566 116.854 0.550434ZM132.854 25.3694C130.632 26.1274 116.982 26.5564 118.854 25.8094C119.954 25.3704 123.779 25.0144 127.354 25.0194C130.929 25.0244 133.404 25.1814 132.854 25.3694ZM137.083 26.4744C136.751 26.8064 135.888 26.8424 135.167 26.5534C134.369 26.2344 134.606 25.9974 135.771 25.9494C136.825 25.9064 137.415 26.1424 137.083 26.4744ZM116.271 27.2354C116.042 27.4354 114.729 28.1354 113.354 28.7904C110.997 29.9124 110.965 29.8924 112.795 28.4254C114.388 27.1494 117.643 26.0344 116.271 27.2354ZM141.913 28.4254C143.743 29.8924 143.711 29.9124 141.354 28.7904C138.293 27.3324 137.726 26.8704 138.996 26.8704C139.533 26.8704 140.845 27.5704 141.913 28.4254ZM90.6042 30.5764C89.3662 30.8144 87.3422 30.8144 86.1042 30.5764C84.8662 30.3374 85.8792 30.1424 88.3542 30.1424C90.8292 30.1424 91.8422 30.3374 90.6042 30.5764ZM108.854 31.8704C107.859 32.9704 106.614 33.8704 106.088 33.8704C105.563 33.8704 106.195 32.9854 107.493 31.9034C110.549 29.3574 111.141 29.3434 108.854 31.8704ZM150.968 35.6044C153.918 39.6554 154.897 41.8804 152.185 38.3704C150.91 36.7204 148.514 34.0804 146.86 32.5044C144.234 30.0004 144.176 29.8404 146.404 31.2384C147.807 32.1184 149.861 34.0834 150.968 35.6044ZM80.6232 31.5264C79.9462 31.8004 78.5962 31.8174 77.6232 31.5634C76.6502 31.3094 77.2042 31.0854 78.8542 31.0654C80.5042 31.0454 81.3002 31.2524 80.6232 31.5264ZM99.6232 31.5264C98.9462 31.8004 97.5962 31.8174 96.6232 31.5634C95.6502 31.3094 96.2042 31.0854 97.8542 31.0654C99.5042 31.0454 100.3 31.2524 99.6232 31.5264ZM75.0832 32.4744C74.7512 32.8064 73.8882 32.8424 73.1672 32.5534C72.3692 32.2344 72.6062 31.9974 73.7712 31.9494C74.8252 31.9064 75.4152 32.1424 75.0832 32.4744ZM104.083 32.4744C103.751 32.8064 102.888 32.8424 102.167 32.5534C101.369 32.2344 101.606 31.9974 102.771 31.9494C103.825 31.9064 104.415 32.1424 104.083 32.4744ZM67.3542 34.8704C66.5292 35.4034 65.4042 35.8394 64.8542 35.8394C64.3042 35.8394 64.5292 35.4034 65.3542 34.8704C66.1792 34.3374 67.3042 33.9014 67.8542 33.9014C68.4042 33.9014 68.1792 34.3374 67.3542 34.8704ZM60.8042 37.6754C57.9882 40.0624 52.3542 43.8974 52.3542 43.4274C52.3542 42.8064 60.3662 36.8704 61.2042 36.8704C61.5072 36.8704 61.3272 37.2324 60.8042 37.6754ZM156.323 45.3704C156.323 45.9204 155.887 45.6954 155.354 44.8704C154.821 44.0454 154.385 42.9204 154.385 42.3704C154.385 41.8204 154.821 42.0454 155.354 42.8704C155.887 43.6954 156.323 44.8204 156.323 45.3704ZM51.3542 44.2484C51.3542 44.4554 50.5672 45.2434 49.6042 45.9984C48.0182 47.2414 47.9832 47.2064 49.2262 45.6204C50.5332 43.9544 51.3542 43.4254 51.3542 44.2484ZM157.043 51.6204C156.792 52.5834 156.586 51.7954 156.586 49.8704C156.586 47.9454 156.792 47.1584 157.043 48.1204C157.295 49.0824 157.295 50.6584 157.043 51.6204ZM135.167 63.3114L134.979 74.3704L134.417 62.8704C134.107 56.5454 133.483 50.6954 133.03 49.8704C132.577 49.0454 132.914 49.2444 133.78 50.3114C135.029 51.8524 135.315 54.5344 135.167 63.3114ZM45.1702 53.3744C44.5432 54.7524 43.8412 55.6904 43.6112 55.4604C43.1432 54.9934 45.1712 50.8704 45.8682 50.8704C46.1122 50.8704 45.7982 51.9974 45.1702 53.3744ZM120.699 52.4134C120.373 53.2624 119.892 53.7424 119.63 53.4804C119.368 53.2184 119.45 52.5234 119.813 51.9374C120.799 50.3414 121.375 50.6514 120.699 52.4134ZM92.1042 53.5984C90.0422 53.8144 86.6672 53.8144 84.6042 53.5984C82.5422 53.3834 84.2292 53.2064 88.3542 53.2064C92.4792 53.2064 94.1672 53.3834 92.1042 53.5984ZM79.3542 54.5794C78.5292 54.8824 76.3912 55.7234 74.6042 56.4494C72.8172 57.1744 71.3542 57.5444 71.3542 57.2714C71.3542 56.5214 77.6382 53.9434 79.3542 53.9884C80.6872 54.0234 80.6872 54.0894 79.3542 54.5794ZM99.0832 54.4744C98.7512 54.8064 97.8882 54.8424 97.1672 54.5534C96.3692 54.2344 96.6062 53.9974 97.7712 53.9494C98.8252 53.9064 99.4152 54.1424 99.0832 54.4744ZM106.474 57.7314C111.119 60.6774 116.867 65.8704 115.483 65.8704C115.054 65.8704 113.612 64.6974 112.278 63.2644C110.945 61.8304 107.604 59.3594 104.854 57.7734C102.104 56.1874 100.328 54.8854 100.908 54.8794C101.488 54.8744 103.993 56.1574 106.474 57.7314ZM158.079 64.1024C157.856 65.8994 157.669 64.6704 157.664 61.3704C157.658 58.0704 157.84 56.5994 158.069 58.1024C158.297 59.6054 158.301 62.3054 158.079 64.1024ZM40.2602 65.3894C38.6282 69.7794 37.5452 72.1144 37.8532 70.5794C38.5672 67.0184 42.4412 56.6234 42.8882 57.0704C43.0742 57.2564 41.8912 61.0004 40.2602 65.3894ZM69.8572 58.8654C69.5192 59.4124 68.2552 60.3424 67.0482 60.9324C65.1582 61.8564 65.2002 61.7214 67.3542 59.9594C70.1542 57.6694 70.7602 57.4044 69.8572 58.8654ZM120.047 62.6014C119.793 63.5744 119.569 63.0204 119.549 61.3704C119.529 59.7204 119.736 58.9244 120.01 59.6014C120.284 60.2784 120.301 61.6284 120.047 62.6014ZM63.9722 66.5324C63.1262 68.0934 62.4162 69.0544 62.3942 68.6674C62.3262 67.4784 64.6532 62.8354 65.0952 63.2774C65.3232 63.5064 64.8182 64.9704 63.9722 66.5324ZM90.1042 66.5594C89.1412 66.8114 87.5672 66.8114 86.6042 66.5594C85.6412 66.3084 86.4292 66.1024 88.3542 66.1024C90.2792 66.1024 91.0672 66.3084 90.1042 66.5594ZM82.0022 69.4954C80.5592 70.9384 78.6172 74.5334 77.6872 77.4824C76.7572 80.4324 75.8062 82.6554 75.5732 82.4234C75.3412 82.1904 75.8932 79.7624 76.8022 77.0274C78.3082 72.4924 82.2612 66.8704 83.9432 66.8704C84.3192 66.8704 83.4462 68.0514 82.0022 69.4954ZM103.525 75.8164C105.081 78.2614 106.349 80.7364 106.342 81.3164C106.335 81.8964 105.177 80.3454 103.768 77.8704C102.358 75.3954 100.226 72.2594 99.0302 70.9004C97.3062 68.9444 97.2532 68.7364 98.7752 69.9004C99.8312 70.7094 101.969 73.3714 103.525 75.8164ZM60.9282 74.4574C60.1402 76.6094 59.4632 77.8754 59.4242 77.2694C59.3272 75.7394 61.4982 69.6814 61.9742 70.1564C62.1872 70.3704 61.7172 72.3054 60.9282 74.4574ZM157.07 78.6204C156.841 80.1334 156.654 78.8954 156.654 75.8704C156.654 72.8454 156.841 71.6074 157.07 73.1204C157.299 74.6334 157.299 77.1074 157.07 78.6204ZM37.0372 76.0584C36.7182 76.8554 36.4812 76.6184 36.4332 75.4534C36.3902 74.3994 36.6262 73.8094 36.9582 74.1414C37.2902 74.4734 37.3262 75.3364 37.0372 76.0584ZM134.06 83.1204C133.821 84.3574 133.626 83.3454 133.626 80.8704C133.626 78.3954 133.821 77.3834 134.06 78.6204C134.298 79.8574 134.298 81.8834 134.06 83.1204ZM36.0372 80.0584C35.7182 80.8554 35.4812 80.6184 35.4332 79.4534C35.3902 78.3994 35.6262 77.8094 35.9582 78.1414C36.2902 78.4734 36.3262 79.3364 36.0372 80.0584ZM59.0372 81.0584C58.7182 81.8554 58.4812 81.6184 58.4332 80.4534C58.3902 79.3994 58.6262 78.8094 58.9582 79.1414C59.2902 79.4734 59.3262 80.3364 59.0372 81.0584ZM35.0162 85.1204C34.7392 85.8084 34.5122 85.2454 34.5122 83.8704C34.5122 82.4954 34.7392 81.9334 35.0162 82.6204C35.2942 83.3084 35.2942 84.4334 35.0162 85.1204ZM58.0372 85.0584C57.7182 85.8554 57.4812 85.6184 57.4332 84.4534C57.3902 83.3994 57.6262 82.8094 57.9582 83.1414C58.2902 83.4734 58.3262 84.3364 58.0372 85.0584ZM108.323 86.3704C108.323 86.9204 107.887 86.6954 107.354 85.8704C106.821 85.0454 106.385 83.9204 106.385 83.3704C106.385 82.8204 106.821 83.0454 107.354 83.8704C107.887 84.6954 108.323 85.8204 108.323 86.3704ZM156.06 90.1204C155.821 91.3574 155.626 90.3454 155.626 87.8704C155.626 85.3954 155.821 84.3834 156.06 85.6204C156.298 86.8574 156.298 88.8834 156.06 90.1204ZM34.0162 90.1204C33.7392 90.8084 33.5122 90.2454 33.5122 88.8704C33.5122 87.4954 33.7392 86.9334 34.0162 87.6204C34.2942 88.3084 34.2942 89.4334 34.0162 90.1204ZM57.0372 89.0584C56.7182 89.8554 56.4812 89.6184 56.4332 88.4534C56.3902 87.3994 56.6262 86.8094 56.9582 87.1414C57.2902 87.4734 57.3262 88.3364 57.0372 89.0584ZM74.0372 89.0584C73.7182 89.8554 73.4812 89.6184 73.4332 88.4534C73.3902 87.3994 73.6262 86.8094 73.9582 87.1414C74.2902 87.4734 74.3262 88.3364 74.0372 89.0584ZM133.072 93.6064C132.842 95.1264 132.648 94.1204 132.64 91.3704C132.633 88.6204 132.821 87.3764 133.058 88.6064C133.295 89.8364 133.301 92.0864 133.072 93.6064ZM112.29 95.8704C112.301 96.6954 111.42 95.4084 110.332 93.0114C109.244 90.6134 108.373 88.3634 108.396 88.0114C108.478 86.7494 112.271 94.4024 112.29 95.8704ZM73.0162 94.1204C72.7392 94.8084 72.5122 94.2454 72.5122 92.8704C72.5122 91.4954 72.7392 90.9334 73.0162 91.6204C73.2942 92.3084 73.2942 93.4334 73.0162 94.1204ZM56.0162 95.1204C55.7392 95.8084 55.5122 95.2454 55.5122 93.8704C55.5122 92.4954 55.7392 91.9334 56.0162 92.6204C56.2942 93.3084 56.2942 94.4334 56.0162 95.1204ZM33.0472 96.6014C32.7932 97.5744 32.5692 97.0204 32.5492 95.3704C32.5292 93.7204 32.7362 92.9244 33.0102 93.6014C33.2842 94.2784 33.3012 95.6284 33.0472 96.6014ZM155.094 112.12C154.899 115.558 154.739 112.745 154.739 105.87C154.739 98.9954 154.899 96.1834 155.094 99.6204C155.29 103.058 155.29 108.683 155.094 112.12ZM72.0872 107.094C71.8762 109.446 71.7002 107.77 71.6972 103.37C71.6932 98.9704 71.8662 97.0464 72.0812 99.0944C72.2962 101.142 72.2992 104.742 72.0872 107.094ZM55.0432 102.62C54.7922 103.583 54.5862 102.795 54.5862 100.87C54.5862 98.9454 54.7922 98.1574 55.0432 99.1204C55.2952 100.083 55.2952 101.657 55.0432 102.62ZM113.037 100.058C112.718 100.855 112.481 100.618 112.433 99.4534C112.39 98.3994 112.626 97.8094 112.958 98.1414C113.29 98.4734 113.326 99.3364 113.037 100.058ZM130.184 117.299L127.928 119.37L129.641 117.291C130.912 115.749 131.406 113.041 131.558 106.791L131.761 98.3704L132.101 106.799C132.411 114.5 132.246 115.407 130.184 117.299ZM32.0842 110.598C31.8672 112.672 31.6872 111.22 31.6822 107.37C31.6782 103.52 31.8552 101.822 32.0762 103.598C32.2972 105.373 32.3002 108.523 32.0842 110.598ZM114.016 105.12C113.739 105.808 113.512 105.245 113.512 103.87C113.512 102.495 113.739 101.933 114.016 102.62C114.294 103.308 114.294 104.433 114.016 105.12ZM115.047 110.601C114.793 111.574 114.569 111.02 114.549 109.37C114.529 107.72 114.736 106.924 115.01 107.601C115.284 108.278 115.301 109.628 115.047 110.601ZM55.0472 114.601C54.7932 115.574 54.5692 115.02 54.5492 113.37C54.5292 111.72 54.7362 110.924 55.0102 111.601C55.2842 112.278 55.3012 113.628 55.0472 114.601ZM74.2682 116.37C74.2992 116.92 73.8872 116.695 73.3542 115.87C72.8212 115.045 72.4092 113.695 72.4402 112.87C72.4982 111.286 74.1642 114.476 74.2682 116.37ZM118.112 118.12C120.041 120.295 119.069 120.442 116.925 118.299C116.061 117.434 115.406 115.747 115.47 114.549C115.578 112.522 115.62 112.509 116.073 114.37C116.341 115.47 117.259 117.157 118.112 118.12ZM33.0162 119.12C32.7392 119.808 32.5122 119.245 32.5122 117.87C32.5122 116.495 32.7392 115.933 33.0162 116.62C33.2942 117.308 33.2942 118.433 33.0162 119.12ZM57.2682 121.37C57.2992 121.92 56.8872 121.695 56.3542 120.87C55.8212 120.045 55.4092 118.695 55.4402 117.87C55.4982 116.286 57.1642 119.476 57.2682 121.37ZM126.354 119.87C125.529 120.403 123.729 120.793 122.354 120.736C120.048 120.641 120.086 120.574 122.854 119.87C127.176 118.77 128.056 118.77 126.354 119.87ZM77.4822 121.62C78.7252 123.206 78.6902 123.241 77.1042 121.998C75.4382 120.691 74.9092 119.87 75.7322 119.87C75.9392 119.87 76.7272 120.657 77.4822 121.62ZM36.2682 129.37C36.2992 129.92 35.8872 129.695 35.3542 128.87C34.8212 128.045 34.4092 126.695 34.4402 125.87C34.4982 124.286 36.1642 127.476 36.2682 129.37ZM67.9292 133.916C69.8822 135.123 73.5902 136.936 76.1672 137.944C78.7452 138.952 80.1792 139.793 79.3542 139.813C74.7222 139.928 61.6192 131.256 59.2122 126.483C58.6262 125.321 59.5492 126.024 61.2622 128.045C62.9752 130.067 65.9752 132.709 67.9292 133.916ZM156.283 131.409C156.597 131.98 155.629 131.08 154.131 129.409C152.633 127.738 151.396 125.972 151.381 125.485C151.356 124.664 154.99 129.056 156.283 131.409ZM90.6042 126.532C89.9172 126.81 88.7922 126.81 88.1042 126.532C87.4172 126.255 87.9792 126.028 89.3542 126.028C90.7292 126.028 91.2922 126.255 90.6042 126.532ZM98.6042 127.576C97.3662 127.814 95.3422 127.814 94.1042 127.576C92.8662 127.337 93.8792 127.142 96.3542 127.142C98.8292 127.142 99.8422 127.337 98.6042 127.576ZM108.116 128.557C107.16 128.807 105.36 128.816 104.116 128.577C102.872 128.338 103.654 128.133 105.854 128.122C108.054 128.111 109.072 128.307 108.116 128.557ZM114.083 129.474C113.751 129.806 112.888 129.842 112.167 129.553C111.369 129.234 111.606 128.997 112.771 128.949C113.825 128.906 114.415 129.142 114.083 129.474ZM34.3952 136.829C28.9342 142.29 26.2602 148.015 25.2952 156.314L24.4742 163.37L24.7642 156.37C25.1002 148.26 27.3572 143.054 33.1972 136.915C35.3132 134.69 37.3392 132.87 37.6992 132.87C38.0592 132.87 36.5732 134.651 34.3952 136.829ZM128.354 135.44C128.354 135.715 127.454 135.459 126.354 134.87C125.254 134.281 124.354 133.575 124.354 133.3C124.354 133.025 125.254 133.281 126.354 133.87C127.454 134.459 128.354 135.165 128.354 135.44ZM159.354 135.87C159.943 136.97 160.199 137.87 159.924 137.87C159.649 137.87 158.943 136.97 158.354 135.87C157.765 134.77 157.509 133.87 157.784 133.87C158.059 133.87 158.765 134.77 159.354 135.87ZM133.854 139.87C136.002 142.07 137.535 143.87 137.26 143.87C136.985 143.87 135.002 142.07 132.854 139.87C130.706 137.67 129.173 135.87 129.448 135.87C129.723 135.87 131.706 137.67 133.854 139.87ZM86.1042 140.559C85.1412 140.811 83.5672 140.811 82.6042 140.559C81.6412 140.308 82.4292 140.102 84.3542 140.102C86.2792 140.102 87.0672 140.308 86.1042 140.559ZM95.6042 141.576C94.3662 141.814 92.3422 141.814 91.1042 141.576C89.8662 141.337 90.8792 141.142 93.3542 141.142C95.8292 141.142 96.8422 141.337 95.6042 141.576ZM103.623 142.526C102.946 142.8 101.596 142.817 100.623 142.563C99.6502 142.309 100.204 142.085 101.854 142.065C103.504 142.045 104.3 142.252 103.623 142.526ZM111.854 144.334C115.716 146.102 113.92 146.128 109.354 144.37C107.429 143.629 106.529 143.008 107.354 142.991C108.179 142.974 110.204 143.578 111.854 144.334ZM164.323 146.37C164.323 146.92 163.887 146.695 163.354 145.87C162.821 145.045 162.385 143.92 162.385 143.37C162.385 142.82 162.821 143.045 163.354 143.87C163.887 144.695 164.323 145.82 164.323 146.37ZM141.161 150.396C140.853 150.704 140.294 150.149 139.918 149.163C139.376 147.738 139.49 147.623 140.478 148.603C141.162 149.282 141.469 150.089 141.161 150.396ZM59.6042 149.532C58.9172 149.81 57.7922 149.81 57.1042 149.532C56.4172 149.255 56.9792 149.028 58.3542 149.028C59.7292 149.028 60.2922 149.255 59.6042 149.532ZM126.525 155.816C128.081 158.261 129.344 160.961 129.332 161.816C129.32 162.671 128.49 161.57 127.487 159.37C126.484 157.17 124.361 153.795 122.769 151.87C121.177 149.945 120.735 149.045 121.785 149.87C122.836 150.695 124.969 153.371 126.525 155.816ZM66.1942 156.742L66.0342 160.37L65.6122 156.874C65.3802 154.951 64.6652 152.701 64.0222 151.874C63.0052 150.564 63.0802 150.547 64.6042 151.742C65.7672 152.654 66.3002 154.332 66.1942 156.742ZM49.1502 153.825C48.4792 154.9 47.7362 155.585 47.4992 155.349C47.0712 154.92 49.2502 151.87 49.9852 151.87C50.1972 151.87 49.8222 152.75 49.1502 153.825ZM167.016 157.12C166.739 157.808 166.512 157.245 166.512 155.87C166.512 154.495 166.739 153.933 167.016 154.62C167.294 155.308 167.294 156.433 167.016 157.12ZM144.037 158.058C143.718 158.855 143.481 158.618 143.433 157.453C143.39 156.399 143.626 155.809 143.958 156.141C144.29 156.473 144.326 157.336 144.037 158.058ZM168.079 167.102C167.856 168.899 167.669 167.67 167.664 164.37C167.658 161.07 167.84 159.599 168.069 161.102C168.297 162.605 168.301 165.305 168.079 167.102ZM48.0942 178.12C47.8992 181.558 47.7392 178.745 47.7392 171.87C47.7392 164.995 47.8992 162.183 48.0942 165.62C48.2902 169.058 48.2902 174.683 48.0942 178.12ZM145.016 163.12C144.739 163.808 144.512 163.245 144.512 161.87C144.512 160.495 144.739 159.933 145.016 160.62C145.294 161.308 145.294 162.433 145.016 163.12ZM67.0472 164.601C66.7932 165.574 66.5692 165.02 66.5492 163.37C66.5292 161.72 66.7362 160.924 67.0102 161.601C67.2842 162.278 67.3012 163.628 67.0472 164.601ZM26.0702 171.62C25.8412 173.132 25.6542 171.895 25.6542 168.87C25.6542 165.845 25.8412 164.608 26.0702 166.12C26.2992 167.632 26.2992 170.108 26.0702 171.62ZM130.06 171.12C129.821 172.358 129.626 171.345 129.626 168.87C129.626 166.395 129.821 165.382 130.06 166.62C130.298 167.858 130.298 169.882 130.06 171.12ZM70.1972 174.37C70.1942 174.92 69.5732 174.02 68.8182 172.37C68.0622 170.72 67.4582 168.695 67.4752 167.87C67.4922 167.045 68.1132 167.945 68.8542 169.87C69.5952 171.795 70.2002 173.82 70.1972 174.37ZM146.037 170.058C145.718 170.855 145.481 170.618 145.433 169.453C145.39 168.399 145.626 167.809 145.958 168.141C146.29 168.473 146.326 169.336 146.037 170.058ZM168.061 176.108C167.822 177.352 167.617 176.57 167.606 174.37C167.595 172.17 167.791 171.152 168.041 172.108C168.291 173.064 168.3 174.864 168.061 176.108ZM145.047 176.601C144.793 177.574 144.569 177.02 144.549 175.37C144.529 173.72 144.736 172.924 145.01 173.601C145.284 174.278 145.301 175.628 145.047 176.601ZM128.349 178.582C127.26 180.282 127.231 180.279 127.778 178.538C128.095 177.531 128.39 176.181 128.433 175.538C128.49 174.695 128.649 174.707 129.004 175.582C129.274 176.249 128.98 177.599 128.349 178.582ZM80.0812 187.673C83.0182 190.59 84.5912 192.532 83.5752 191.988C81.0702 190.647 73.8462 182.719 72.4382 179.764C71.3272 177.435 71.3432 177.437 73.0192 179.87C73.9662 181.245 77.1442 184.756 80.0812 187.673ZM25.0942 194.583C24.8952 197.766 24.7302 195.42 24.7282 189.37C24.7262 183.32 24.8892 180.716 25.0902 183.583C25.2912 186.451 25.2932 191.401 25.0942 194.583ZM167.037 182.058C166.718 182.855 166.481 182.618 166.433 181.453C166.39 180.399 166.626 179.809 166.958 180.141C167.29 180.473 167.326 181.336 167.037 182.058ZM126.444 182.702C125.904 183.71 124.678 185.172 123.717 185.952C122.637 186.83 122.879 186.131 124.351 184.12C126.977 180.532 127.962 179.865 126.444 182.702ZM141.387 186.317C139.378 189.567 133.022 195.401 129.354 197.362C127.372 198.421 128.716 197.171 134.387 192.681C136.88 190.707 139.785 187.485 140.843 185.521C141.901 183.556 142.95 182.133 143.174 182.357C143.399 182.581 142.594 184.363 141.387 186.317ZM166.037 186.058C165.718 186.855 165.481 186.618 165.433 185.453C165.39 184.399 165.626 183.809 165.958 184.141C166.29 184.473 166.326 185.336 166.037 186.058ZM120.854 187.87C120.514 188.42 119.7 188.863 119.045 188.855C118.329 188.845 118.453 188.452 119.354 187.87C121.275 186.628 121.621 186.628 120.854 187.87ZM115.854 189.87C113.105 191.051 111.526 191.051 113.354 189.87C114.179 189.337 115.529 188.925 116.354 188.956C117.343 188.992 117.173 189.303 115.854 189.87ZM110.354 191.87C109.529 192.403 108.179 192.815 107.354 192.784C106.365 192.748 106.535 192.437 107.854 191.87C110.603 190.689 112.182 190.689 110.354 191.87ZM105.083 193.474C104.751 193.806 103.888 193.842 103.167 193.553C102.369 193.234 102.606 192.997 103.771 192.949C104.825 192.906 105.415 193.142 105.083 193.474ZM98.6042 194.593C96.8172 194.815 93.8912 194.815 92.1042 194.593C90.3172 194.372 91.7792 194.19 95.3542 194.19C98.9292 194.19 100.391 194.372 98.6042 194.593ZM48.0872 208.094C47.8762 210.446 47.7002 208.77 47.6972 204.37C47.6932 199.97 47.8662 198.046 48.0812 200.094C48.2962 202.142 48.2992 205.742 48.0872 208.094ZM160.758 198.12C158.768 201.603 152.887 208.053 149.109 210.895C145.395 213.69 145.499 213.519 149.921 209.551C152.708 207.05 156.257 203.174 157.807 200.937C160.433 197.148 162.369 195.3 160.758 198.12ZM126.854 198.87C126.514 199.42 125.7 199.863 125.045 199.855C124.329 199.845 124.453 199.452 125.354 198.87C127.275 197.628 127.621 197.628 126.854 198.87ZM71.5362 200.999C73.1802 202.17 76.6252 203.949 79.1902 204.952C81.7552 205.956 83.2772 206.797 82.5722 206.823C81.8672 206.849 79.7552 206.229 77.8792 205.445C74.1392 203.882 66.3932 198.87 67.7172 198.87C68.1732 198.87 69.8912 199.828 71.5362 200.999ZM122.354 200.87C121.529 201.403 120.404 201.839 119.854 201.839C119.304 201.839 119.529 201.403 120.354 200.87C121.179 200.337 122.304 199.901 122.854 199.901C123.404 199.901 123.179 200.337 122.354 200.87ZM65.0472 205.601C64.7932 206.574 64.5692 206.02 64.5492 204.37C64.5292 202.72 64.7362 201.924 65.0102 202.601C65.2842 203.278 65.3012 204.628 65.0472 205.601ZM112.083 204.474C111.751 204.806 110.888 204.842 110.167 204.553C109.369 204.234 109.606 203.997 110.771 203.949C111.825 203.906 112.415 204.142 112.083 204.474ZM108.083 205.474C107.751 205.806 106.888 205.842 106.167 205.553C105.369 205.234 105.606 204.997 106.771 204.949C107.825 204.906 108.415 205.142 108.083 205.474ZM104.083 206.474C103.751 206.806 102.888 206.842 102.167 206.553C101.369 206.234 101.606 205.997 102.771 205.949C103.825 205.906 104.415 206.142 104.083 206.474ZM89.1042 207.559C88.1412 207.811 86.5672 207.811 85.6042 207.559C84.6412 207.308 85.4292 207.102 87.3542 207.102C89.2792 207.102 90.0672 207.308 89.1042 207.559ZM99.1162 207.557C98.1602 207.807 96.3602 207.816 95.1162 207.577C93.8722 207.338 94.6542 207.133 96.8542 207.122C99.0542 207.111 100.072 207.307 99.1162 207.557ZM25.0792 216.102C24.8562 217.899 24.6692 216.67 24.6642 213.37C24.6582 210.07 24.8402 208.599 25.0692 210.102C25.2972 211.605 25.3012 214.305 25.0792 216.102ZM66.0702 216.62C65.8412 218.132 65.6542 216.895 65.6542 213.87C65.6542 210.845 65.8412 209.608 66.0702 211.12C66.2992 212.632 66.2992 215.108 66.0702 216.62ZM48.0472 218.601C47.7932 219.574 47.5692 219.02 47.5492 217.37C47.5292 215.72 47.7362 214.924 48.0102 215.601C48.2842 216.278 48.3012 217.628 48.0472 218.601ZM139.354 217.344C139.354 217.951 133.713 220.884 132.654 220.828C132.214 220.805 133.429 219.924 135.354 218.87C139.295 216.712 139.354 216.69 139.354 217.344ZM62.5882 222.899C60.7922 224.533 58.5422 225.852 57.5882 225.831C56.5422 225.807 57.0452 225.273 58.8542 224.484C60.5052 223.765 62.4722 222.433 63.2272 221.523C63.9812 220.614 64.8812 219.883 65.2262 219.899C65.5722 219.915 64.3842 221.265 62.5882 222.899ZM26.0162 224.12C25.7392 224.808 25.5122 224.245 25.5122 222.87C25.5122 221.495 25.7392 220.933 26.0162 221.62C26.2942 222.308 26.2942 223.433 26.0162 224.12ZM52.7152 224.948C54.4412 226.001 55.3522 226.864 54.7392 226.866C53.0602 226.872 48.3432 222.893 48.4332 221.547C48.4832 220.799 48.7062 220.855 49.0442 221.702C49.3362 222.435 50.9882 223.895 52.7152 224.948ZM122.354 224.87C121.529 225.403 120.179 225.815 119.354 225.784C118.365 225.748 118.535 225.437 119.854 224.87C122.603 223.689 124.182 223.689 122.354 224.87ZM117.083 226.474C116.751 226.806 115.888 226.842 115.167 226.553C114.369 226.234 114.606 225.997 115.771 225.949C116.825 225.906 117.415 226.142 117.083 226.474ZM112.083 227.474C111.751 227.806 110.888 227.842 110.167 227.553C109.369 227.234 109.606 226.997 110.771 226.949C111.825 226.906 112.415 227.142 112.083 227.474ZM108.083 228.474C107.751 228.806 106.888 228.842 106.167 228.553C105.369 228.234 105.606 227.997 106.771 227.949C107.825 227.906 108.415 228.142 108.083 228.474ZM103.623 229.526C102.946 229.8 101.596 229.817 100.623 229.563C99.6502 229.309 100.204 229.085 101.854 229.065C103.504 229.045 104.3 229.252 103.623 229.526ZM84.4782 232.137C83.4902 233.117 83.3762 233.002 83.9182 231.577C84.2942 230.591 84.8532 230.036 85.1612 230.344C85.4692 230.651 85.1622 231.458 84.4782 232.137ZM94.1042 230.586C92.5922 230.815 90.1162 230.815 88.6042 230.586C87.0922 230.357 88.3292 230.17 91.3542 230.17C94.3792 230.17 95.6162 230.357 94.1042 230.586ZM80.3002 237.5C76.6912 241.302 68.7152 246.877 66.9082 246.861C66.3282 246.855 68.1042 245.549 70.8542 243.957C73.6042 242.365 77.4052 239.444 79.3002 237.466C81.1962 235.488 82.9712 233.87 83.2462 233.87C83.5212 233.87 82.1962 235.503 80.3002 237.5ZM34.9172 240.12L37.8542 243.37L34.6042 240.433C31.5752 237.695 30.8942 236.87 31.6672 236.87C31.8392 236.87 33.3022 238.333 34.9172 240.12ZM46.3542 246.87C47.1792 247.403 47.4042 247.839 46.8542 247.839C46.3042 247.839 45.1792 247.403 44.3542 246.87C43.5292 246.337 43.3042 245.901 43.8542 245.901C44.4042 245.901 45.5292 246.337 46.3542 246.87ZM63.8542 247.87C62.7542 248.343 58.9292 248.682 55.3542 248.623L48.8542 248.517L55.8542 247.87C66.0302 246.93 66.0422 246.93 63.8542 247.87Z" fill="white"/>
<path fill-rule="evenodd" clip-rule="evenodd" d="M116.854 0.550434C115.754 0.796434 111.929 1.98043 108.354 3.18143C103.201 4.91243 99.3682 5.38243 89.8542 5.45343C83.2542 5.50243 74.9292 6.10143 71.3542 6.78543C56.8982 9.54843 41.3042 17.9434 31.6372 28.1644C16.3482 44.3314 4.35421 88.4094 7.46521 117.004C8.53521 126.837 8.50221 127.184 6.07921 131.722C-0.113792 143.324 -0.165793 143.785 0.0652073 186.044C0.298207 228.829 0.743208 232.81 6.63321 244.797C12.9662 257.685 27.4062 268.785 42.4572 272.333C59.4532 276.339 78.8472 271.645 93.2682 260.034C98.1682 256.089 100.483 254.87 103.076 254.87C107.406 254.87 128.404 249.586 137.154 246.295C158.382 238.31 175.867 223.827 184.807 206.825C191.099 194.856 192.837 186.545 192.846 168.37C192.855 150.188 191.578 144.391 184.148 128.903L180.087 120.436L180.664 104.403C180.981 95.5854 181.749 82.7454 182.371 75.8704C184.479 52.5864 181.993 36.7754 174.355 24.8714C167.227 13.7644 152.498 3.64643 139.555 0.967434C134.395 -0.100566 120.872 -0.349566 116.854 0.550434ZM140.784 27.8364C147.179 30.9324 152.065 36.0034 155.185 42.7844C157.561 47.9474 157.75 49.3934 157.674 61.8704C157.629 69.2954 157.089 80.0304 156.473 85.7264C155.858 91.4224 155.354 100.679 155.354 106.298C155.354 112.939 154.807 118.119 153.791 121.102L152.228 125.689L155.766 130.615C172.658 154.127 172.51 185.696 155.417 205.071C143.762 218.283 115.777 229.659 93.6342 230.185C85.9572 230.368 85.8192 230.417 83.2362 233.929C75.7432 244.116 65.2772 249.341 53.7872 248.631C41.4192 247.866 31.8432 240.787 27.1652 228.949C25.0342 223.555 24.9602 222.143 24.9462 186.37C24.9322 150.126 24.9772 149.284 27.1402 145.165C28.3552 142.852 31.1332 139.084 33.3142 136.792C37.0902 132.822 37.2122 132.496 35.8832 129.926C33.1212 124.586 31.0582 110.97 31.7512 102.661C33.1002 86.4854 37.9122 67.0444 43.4872 55.2434C48.6682 44.2794 58.6972 36.4394 72.8542 32.2884C79.8942 30.2244 95.6202 29.9404 102.116 31.7594C106.083 32.8714 106.609 32.7784 109.707 30.4154C115.216 26.2134 120.08 24.8594 128.425 25.2054C133.804 25.4284 137.383 26.1904 140.784 27.8364ZM123.583 48.5394C121.185 49.5044 119.142 54.9294 119.819 58.5354C121.294 66.3954 117.555 68.0914 111.27 62.4134C104.731 56.5064 99.8392 54.5604 90.3542 54.0954C81.0362 53.6384 73.4582 55.7114 68.2352 60.1464C63.6512 64.0394 57.7002 82.2974 55.3682 99.6294C52.9172 117.84 58.7512 130.042 73.0352 136.582C78.1502 138.923 80.8112 139.448 99.8542 141.865C113.927 143.651 122.033 148.054 127.069 156.646C129.433 160.68 129.822 162.428 129.788 168.862C129.744 177.402 127.351 183.34 122.627 186.636C118.331 189.633 104.534 194.034 97.6062 194.617C89.2062 195.325 83.8862 193.215 77.8822 186.796C71.7392 180.229 67.7152 171.389 66.0862 160.885C64.9502 153.556 64.4282 152.208 62.2542 150.988C59.2092 149.278 53.5132 150.111 50.2652 152.741C48.0392 154.544 48.0332 154.631 48.0352 186.978C48.0362 220.829 48.2502 222.673 52.4262 224.908C55.0912 226.335 60.2642 224.659 63.3572 221.367C65.4982 219.087 65.6142 218.342 65.0552 210.417C64.5712 203.559 64.7492 201.618 65.9762 200.391C67.9122 198.455 67.7262 198.427 72.1252 201.331C81.7772 207.701 92.9042 208.691 108.427 204.56C120.603 201.319 127.564 198.193 134.003 193.076C148.515 181.541 148.784 157.42 134.575 141.692C127.059 133.374 119.604 130.399 100.99 128.289C77.6582 125.645 72.4762 121.689 71.5572 105.82C71.2042 99.7174 71.6602 96.0014 73.7772 87.7534C78.0632 71.0524 81.5962 65.8264 88.5542 65.8924C92.4372 65.9294 98.9532 69.4764 101.632 73.0114C106.015 78.7954 112.274 94.7824 114.496 105.87C116.999 118.355 118.288 120.276 123.676 119.554C129.837 118.727 131.351 116.645 131.375 108.965C131.386 105.338 132.055 95.6204 132.862 87.3704C133.669 79.1204 134.335 67.7584 134.342 62.1204C134.352 53.1944 134.096 51.6124 132.354 49.8704C130.476 47.9924 126.458 47.3834 123.583 48.5394Z" fill="#808080"/>
</svg>
