<svg width="26" height="20" viewBox="0 0 26 20" fill="none" xmlns="http://www.w3.org/2000/svg">
<path fill-rule="evenodd" clip-rule="evenodd" d="M4.5512 0.0252845C4.5512 0.0496334 4.54277 0.0505689 4.32364 0.0505689C4.10451 0.0505689 4.09608 0.0515044 4.09608 0.0758534C4.09608 0.0994564 4.08765 0.101138 3.96966 0.101138C3.85167 0.101138 3.84324 0.102819 3.84324 0.126422C3.84324 0.149595 3.8348 0.151707 3.7421 0.151707C3.64939 0.151707 3.64096 0.153818 3.64096 0.176991C3.64096 0.200164 3.63253 0.202276 3.53982 0.202276C3.44712 0.202276 3.43869 0.204387 3.43869 0.22756C3.43869 0.250038 3.43025 0.252845 3.36283 0.252845C3.29541 0.252845 3.28698 0.255651 3.28698 0.278129C3.28698 0.299204 3.27855 0.303413 3.23641 0.303413C3.19427 0.303413 3.18584 0.307623 3.18584 0.328698C3.18584 0.351176 3.17741 0.353982 3.10999 0.353982C3.04257 0.353982 3.03413 0.356789 3.03413 0.379267C3.03413 0.400341 3.0257 0.404551 2.98357 0.404551C2.94143 0.404551 2.933 0.408761 2.933 0.429836C2.933 0.45091 2.92456 0.45512 2.88243 0.45512C2.84029 0.45512 2.83186 0.45933 2.83186 0.480405C2.83186 0.501479 2.82343 0.505689 2.78129 0.505689C2.73915 0.505689 2.73072 0.509899 2.73072 0.530973C2.73072 0.552048 2.72229 0.556258 2.68015 0.556258C2.63802 0.556258 2.62958 0.560468 2.62958 0.581542C2.62958 0.602617 2.62115 0.606827 2.57901 0.606827C2.53688 0.606827 2.52845 0.611037 2.52845 0.632111C2.52845 0.648963 2.52001 0.657396 2.50316 0.657396C2.48631 0.657396 2.47788 0.665828 2.47788 0.68268C2.47788 0.703755 2.46944 0.707965 2.42731 0.707965C2.38517 0.707965 2.37674 0.712174 2.37674 0.733249C2.37674 0.750101 2.36831 0.758534 2.35145 0.758534C2.3346 0.758534 2.32617 0.766966 2.32617 0.783818C2.32617 0.804893 2.31774 0.809102 2.2756 0.809102C2.23346 0.809102 2.22503 0.813312 2.22503 0.834387C2.22503 0.851239 2.2166 0.859671 2.19975 0.859671C2.1829 0.859671 2.17446 0.868104 2.17446 0.884956C2.17446 0.901808 2.16603 0.91024 2.14918 0.91024C2.13233 0.91024 2.12389 0.918673 2.12389 0.935525C2.12389 0.956599 2.11546 0.960809 2.07332 0.960809C2.03119 0.960809 2.02276 0.965019 2.02276 0.986094C2.02276 1.00295 2.01432 1.01138 1.99747 1.01138C1.98062 1.01138 1.97219 1.01981 1.97219 1.03666C1.97219 1.05351 1.96375 1.06195 1.9469 1.06195C1.93005 1.06195 1.92162 1.07038 1.92162 1.08723C1.92162 1.10408 1.91319 1.11252 1.89633 1.11252C1.87948 1.11252 1.87105 1.12095 1.87105 1.1378C1.87105 1.15465 1.86262 1.16308 1.84576 1.16308C1.82891 1.16308 1.82048 1.17152 1.82048 1.18837C1.82048 1.20944 1.81205 1.21365 1.76991 1.21365C1.72054 1.21365 1.71934 1.2147 1.71934 1.2579C1.71934 1.29372 1.71453 1.30215 1.69406 1.30215C1.67721 1.30215 1.66877 1.31058 1.66877 1.32743C1.66877 1.34429 1.66034 1.35272 1.64349 1.35272C1.62494 1.35272 1.6182 1.36115 1.6182 1.38432C1.6182 1.4075 1.61147 1.41593 1.59292 1.41593C1.57607 1.41593 1.56764 1.42436 1.56764 1.44121C1.56764 1.45807 1.5592 1.4665 1.54235 1.4665C1.5255 1.4665 1.51707 1.47493 1.51707 1.49178C1.51707 1.50863 1.50863 1.51707 1.49178 1.51707C1.47493 1.51707 1.4665 1.5255 1.4665 1.54235C1.4665 1.5592 1.45807 1.56764 1.44121 1.56764C1.42436 1.56764 1.41593 1.57607 1.41593 1.59292C1.41593 1.60977 1.4075 1.6182 1.39064 1.6182C1.37379 1.6182 1.36536 1.62664 1.36536 1.64349C1.36536 1.66034 1.35693 1.66877 1.34008 1.66877C1.31961 1.66877 1.31479 1.67721 1.31479 1.71302C1.31479 1.74884 1.30997 1.75727 1.28951 1.75727C1.27096 1.75727 1.26422 1.7657 1.26422 1.78887C1.26422 1.81205 1.25748 1.82048 1.23894 1.82048C1.22209 1.82048 1.21365 1.82891 1.21365 1.84576C1.21365 1.86262 1.20522 1.87105 1.18837 1.87105C1.16729 1.87105 1.16308 1.87948 1.16308 1.92162C1.16308 1.96375 1.15887 1.97219 1.1378 1.97219C1.12095 1.97219 1.11252 1.98062 1.11252 1.99747C1.11252 2.01432 1.10408 2.02276 1.08723 2.02276C1.06616 2.02276 1.06195 2.03119 1.06195 2.07332C1.06195 2.11546 1.05774 2.12389 1.03666 2.12389C1.01981 2.12389 1.01138 2.13233 1.01138 2.14918C1.01138 2.16603 1.00295 2.17446 0.986094 2.17446C0.965019 2.17446 0.960809 2.1829 0.960809 2.22503C0.960809 2.26717 0.956599 2.2756 0.935525 2.2756C0.91445 2.2756 0.91024 2.28403 0.91024 2.32617C0.91024 2.36831 0.90603 2.37674 0.884956 2.37674C0.863881 2.37674 0.859671 2.38517 0.859671 2.42731C0.859671 2.46944 0.855461 2.47788 0.834387 2.47788C0.813312 2.47788 0.809102 2.48631 0.809102 2.52845C0.809102 2.57058 0.804893 2.57901 0.783818 2.57901C0.762743 2.57901 0.758534 2.58745 0.758534 2.62958C0.758534 2.67172 0.754324 2.68015 0.733249 2.68015C0.711024 2.68015 0.707965 2.68858 0.707965 2.74968C0.707965 2.81078 0.704905 2.81922 0.68268 2.81922C0.661138 2.81922 0.657396 2.82765 0.657396 2.87611C0.657396 2.92456 0.653654 2.933 0.632111 2.933C0.609633 2.933 0.606827 2.94143 0.606827 3.00885C0.606827 3.07627 0.60402 3.0847 0.581542 3.0847C0.559064 3.0847 0.556258 3.09314 0.556258 3.16056C0.556258 3.22798 0.553451 3.23641 0.530973 3.23641C0.507939 3.23641 0.505689 3.24484 0.505689 3.33123C0.505689 3.41761 0.503439 3.42604 0.480405 3.42604C0.457105 3.42604 0.45512 3.43448 0.45512 3.5335C0.45512 3.63253 0.453135 3.64096 0.429836 3.64096C0.405954 3.64096 0.404551 3.64939 0.404551 3.79267C0.404551 3.93594 0.403148 3.94437 0.379267 3.94437C0.354387 3.94437 0.353982 3.95281 0.353982 4.46903C0.353982 4.98525 0.354387 4.99368 0.379267 4.99368C0.403148 4.99368 0.404551 5.00211 0.404551 5.14539C0.404551 5.28866 0.405954 5.29709 0.429836 5.29709C0.453135 5.29709 0.45512 5.30552 0.45512 5.40455C0.45512 5.50358 0.457105 5.51201 0.480405 5.51201C0.503439 5.51201 0.505689 5.52044 0.505689 5.60683C0.505689 5.69321 0.507939 5.70164 0.530973 5.70164C0.553451 5.70164 0.556258 5.71008 0.556258 5.7775C0.556258 5.84492 0.559064 5.85335 0.581542 5.85335C0.60402 5.85335 0.606827 5.86178 0.606827 5.9292C0.606827 5.99662 0.609633 6.00506 0.632111 6.00506C0.654589 6.00506 0.657396 6.01349 0.657396 6.08091C0.657396 6.14833 0.660202 6.15676 0.68268 6.15676C0.703755 6.15676 0.707965 6.1652 0.707965 6.20733C0.707965 6.24947 0.712174 6.2579 0.733249 6.2579C0.754324 6.2579 0.758534 6.26633 0.758534 6.30847C0.758534 6.35061 0.762743 6.35904 0.783818 6.35904C0.804893 6.35904 0.809102 6.36747 0.809102 6.40961C0.809102 6.45174 0.813312 6.46018 0.834387 6.46018C0.855461 6.46018 0.859671 6.46861 0.859671 6.51075C0.859671 6.55288 0.863881 6.56131 0.884956 6.56131C0.90603 6.56131 0.91024 6.56975 0.91024 6.61188C0.91024 6.65402 0.91445 6.66245 0.935525 6.66245C0.956599 6.66245 0.960809 6.67089 0.960809 6.71302C0.960809 6.75516 0.965019 6.76359 0.986094 6.76359C1.00295 6.76359 1.01138 6.77202 1.01138 6.78887C1.01138 6.80573 1.01981 6.81416 1.03666 6.81416C1.05774 6.81416 1.06195 6.82259 1.06195 6.86473C1.06195 6.90686 1.06616 6.9153 1.08723 6.9153C1.10408 6.9153 1.11252 6.92373 1.11252 6.94058C1.11252 6.95743 1.12095 6.96587 1.1378 6.96587C1.15887 6.96587 1.16308 6.9743 1.16308 7.01644C1.16308 7.05857 1.16729 7.067 1.18837 7.067C1.20522 7.067 1.21365 7.07544 1.21365 7.09229C1.21365 7.10914 1.22209 7.11757 1.23894 7.11757C1.26001 7.11757 1.26422 7.12601 1.26422 7.16814C1.26422 7.21028 1.26843 7.21871 1.28951 7.21871C1.30636 7.21871 1.31479 7.22714 1.31479 7.244C1.31479 7.26085 1.32322 7.26928 1.34008 7.26928C1.35693 7.26928 1.36536 7.27771 1.36536 7.29456C1.36536 7.31142 1.37379 7.31985 1.39064 7.31985C1.4075 7.31985 1.41593 7.32828 1.41593 7.34513C1.41593 7.36198 1.42436 7.37042 1.44121 7.37042C1.45807 7.37042 1.4665 7.37885 1.4665 7.3957C1.4665 7.41255 1.47493 7.42099 1.49178 7.42099C1.51033 7.42099 1.51707 7.42942 1.51707 7.45259C1.51707 7.47576 1.52381 7.4842 1.54235 7.4842C1.56282 7.4842 1.56764 7.49263 1.56764 7.52845C1.56764 7.56426 1.57245 7.57269 1.59292 7.57269C1.60977 7.57269 1.6182 7.58113 1.6182 7.59798C1.6182 7.61483 1.62664 7.62326 1.64349 7.62326C1.66034 7.62326 1.66877 7.63169 1.66877 7.64855C1.66877 7.6654 1.67721 7.67383 1.69406 7.67383C1.71053 7.67383 1.71934 7.68226 1.71934 7.698C1.71934 7.71636 1.73153 7.72424 1.76991 7.73072C1.801 7.73597 1.82048 7.74614 1.82048 7.75712C1.82048 7.76694 1.83186 7.77497 1.84576 7.77497C1.86262 7.77497 1.87105 7.7834 1.87105 7.80025C1.87105 7.81711 1.87948 7.82554 1.89633 7.82554C1.91319 7.82554 1.92162 7.83397 1.92162 7.85082C1.92162 7.86767 1.93005 7.87611 1.9469 7.87611C1.96375 7.87611 1.97219 7.88454 1.97219 7.90139C1.97219 7.91824 1.98062 7.92668 1.99747 7.92668C2.01432 7.92668 2.02276 7.93511 2.02276 7.95196C2.02276 7.96881 2.03119 7.97724 2.04804 7.97724C2.06489 7.97724 2.07332 7.98568 2.07332 8.00253C2.07332 8.0236 2.08176 8.02781 2.12389 8.02781C2.16603 8.02781 2.17446 8.03202 2.17446 8.0531C2.17446 8.06995 2.1829 8.07838 2.19975 8.07838C2.2166 8.07838 2.22503 8.08681 2.22503 8.10367C2.22503 8.12474 2.23346 8.12895 2.2756 8.12895C2.31774 8.12895 2.32617 8.13316 2.32617 8.15424C2.32617 8.17109 2.3346 8.17952 2.35145 8.17952C2.36831 8.17952 2.37674 8.18795 2.37674 8.2048C2.37674 8.22588 2.38517 8.23009 2.42731 8.23009C2.46944 8.23009 2.47788 8.2343 2.47788 8.25537C2.47788 8.27223 2.48631 8.28066 2.50316 8.28066C2.52001 8.28066 2.52845 8.28909 2.52845 8.30594C2.52845 8.32702 2.53688 8.33123 2.57901 8.33123C2.62115 8.33123 2.62958 8.33544 2.62958 8.35651C2.62958 8.37759 2.63802 8.3818 2.68015 8.3818C2.72229 8.3818 2.73072 8.38601 2.73072 8.40708C2.73072 8.42815 2.73915 8.43236 2.78129 8.43236C2.82343 8.43236 2.83186 8.43657 2.83186 8.45765C2.83186 8.47872 2.84029 8.48293 2.88243 8.48293C2.92456 8.48293 2.933 8.48714 2.933 8.50822C2.933 8.52929 2.94143 8.5335 2.98357 8.5335C3.0257 8.5335 3.03413 8.53771 3.03413 8.55879C3.03413 8.58126 3.04257 8.58407 3.10999 8.58407C3.17741 8.58407 3.18584 8.58688 3.18584 8.60936C3.18584 8.63043 3.19427 8.63464 3.23641 8.63464C3.27855 8.63464 3.28698 8.63885 3.28698 8.65992C3.28698 8.6824 3.29541 8.68521 3.36283 8.68521C3.43025 8.68521 3.43869 8.68802 3.43869 8.71049C3.43869 8.73231 3.44712 8.73578 3.50032 8.73578C3.58675 8.73578 3.64096 8.74857 3.64096 8.76896C3.64096 8.78178 3.66089 8.78635 3.71681 8.78635C3.78424 8.78635 3.79267 8.78915 3.79267 8.81163C3.79267 8.83523 3.8011 8.83692 3.91909 8.83692C4.03708 8.83692 4.04551 8.8386 4.04551 8.8622C4.04551 8.88468 4.05394 8.88748 4.12137 8.88748H4.19722V9.03919C4.19722 9.18247 4.19582 9.1909 4.17193 9.1909C4.14785 9.1909 4.14665 9.19933 4.14665 9.36789C4.14665 9.53645 4.14545 9.54488 4.12137 9.54488C4.09713 9.54488 4.09608 9.55331 4.09608 9.74716C4.09608 9.941 4.09503 9.94943 4.0708 9.94943C4.04585 9.94943 4.04551 9.95786 4.04551 10.5815C4.04551 11.2052 4.04517 11.2137 4.02023 11.2137C4.00338 11.2137 3.99494 11.2221 3.99494 11.2389C3.99494 11.2558 3.98651 11.2642 3.96966 11.2642C3.95281 11.2642 3.94437 11.2727 3.94437 11.2895C3.94437 11.3064 3.93594 11.3148 3.91909 11.3148C3.90224 11.3148 3.89381 11.3232 3.89381 11.3401C3.89381 11.3626 3.88537 11.3654 3.81795 11.3654C3.76202 11.3654 3.7421 11.3699 3.7421 11.3827C3.7421 11.4061 3.68558 11.4159 3.55089 11.4159C3.44712 11.4159 3.43869 11.4178 3.43869 11.4412C3.43869 11.4651 3.43025 11.4665 3.28698 11.4665C3.1437 11.4665 3.13527 11.4679 3.13527 11.4918C3.13527 11.515 3.12684 11.5171 3.03413 11.5171C2.95267 11.5171 2.933 11.5208 2.933 11.536C2.933 11.5466 2.94424 11.555 2.95828 11.555C2.97513 11.555 2.98357 11.5634 2.98357 11.5803C2.98357 11.5971 2.992 11.6056 3.00885 11.6056C3.0257 11.6056 3.03413 11.614 3.03413 11.6308C3.03413 11.6477 3.04257 11.6561 3.05942 11.6561C3.07627 11.6561 3.0847 11.6646 3.0847 11.6814C3.0847 11.6983 3.09314 11.7067 3.10999 11.7067C3.12684 11.7067 3.13527 11.7151 3.13527 11.732C3.13527 11.7488 3.1437 11.7573 3.16056 11.7573C3.17741 11.7573 3.18584 11.7657 3.18584 11.7826C3.18584 11.7994 3.19427 11.8078 3.21113 11.8078C3.22798 11.8078 3.23641 11.8163 3.23641 11.8331C3.23641 11.85 3.24484 11.8584 3.26169 11.8584C3.27855 11.8584 3.28698 11.8668 3.28698 11.8837C3.28698 11.9005 3.29541 11.909 3.31226 11.909C3.32912 11.909 3.33755 11.9174 3.33755 11.9343C3.33755 11.9511 3.34598 11.9595 3.36283 11.9595C3.37968 11.9595 3.38812 11.968 3.38812 11.9848C3.38812 12.0017 3.39655 12.0101 3.4134 12.0101C3.43025 12.0101 3.43869 12.0185 3.43869 12.0354C3.43869 12.0523 3.44712 12.0607 3.46397 12.0607C3.48082 12.0607 3.48925 12.0691 3.48925 12.086C3.48925 12.1028 3.49769 12.1113 3.51454 12.1113C3.53139 12.1113 3.53982 12.1197 3.53982 12.1365C3.53982 12.1534 3.54826 12.1618 3.56511 12.1618C3.58196 12.1618 3.59039 12.1703 3.59039 12.1871C3.59039 12.204 3.59882 12.2124 3.61568 12.2124C3.63253 12.2124 3.64096 12.2208 3.64096 12.2377C3.64096 12.2545 3.64939 12.263 3.66625 12.263C3.68479 12.263 3.69153 12.2714 3.69153 12.2946C3.69153 12.3177 3.69827 12.3262 3.71681 12.3262C3.73367 12.3262 3.7421 12.3346 3.7421 12.3515C3.7421 12.3683 3.75053 12.3767 3.76738 12.3767C3.78424 12.3767 3.79267 12.3852 3.79267 12.402C3.79267 12.4189 3.8011 12.4273 3.81795 12.4273C3.8348 12.4273 3.84324 12.4357 3.84324 12.4526C3.84324 12.4694 3.85167 12.4779 3.86852 12.4779C3.88537 12.4779 3.89381 12.4863 3.89381 12.5032C3.89381 12.52 3.90224 12.5284 3.91909 12.5284C3.93594 12.5284 3.94437 12.5369 3.94437 12.5537C3.94437 12.5706 3.95281 12.579 3.96966 12.579C3.98651 12.579 3.99494 12.5874 3.99494 12.6043C3.99494 12.6212 4.00338 12.6296 4.02023 12.6296C4.03708 12.6296 4.04551 12.638 4.04551 12.6549C4.04551 12.6717 4.05394 12.6802 4.0708 12.6802C4.08765 12.6802 4.09608 12.6886 4.09608 12.7054C4.09608 12.7223 4.10451 12.7307 4.12137 12.7307C4.13822 12.7307 4.14665 12.7392 4.14665 12.756C4.14665 12.7729 4.15508 12.7813 4.17193 12.7813C4.18879 12.7813 4.19722 12.7897 4.19722 12.8066C4.19722 12.8234 4.20565 12.8319 4.2225 12.8319C4.23936 12.8319 4.24779 12.8403 4.24779 12.8571C4.24779 12.874 4.25622 12.8824 4.27307 12.8824C4.28992 12.8824 4.29836 12.8909 4.29836 12.9077C4.29836 12.9246 4.30679 12.933 4.32364 12.933C4.34049 12.933 4.34893 12.9414 4.34893 12.9583C4.34893 12.9751 4.35736 12.9836 4.37421 12.9836C4.39106 12.9836 4.39949 12.992 4.39949 13.0088C4.39949 13.0257 4.40793 13.0341 4.42478 13.0341C4.44163 13.0341 4.45006 13.0426 4.45006 13.0594C4.45006 13.0763 4.4585 13.0847 4.47535 13.0847C4.4922 13.0847 4.50063 13.0931 4.50063 13.11C4.50063 13.1268 4.50906 13.1353 4.52592 13.1353C4.54277 13.1353 4.5512 13.1437 4.5512 13.1606C4.5512 13.1774 4.55963 13.1858 4.57649 13.1858C4.59334 13.1858 4.60177 13.1943 4.60177 13.2111C4.60177 13.228 4.6102 13.2364 4.62705 13.2364C4.64752 13.2364 4.65234 13.2448 4.65234 13.2807C4.65234 13.3165 4.65716 13.3249 4.67762 13.3249C4.69448 13.3249 4.70291 13.3333 4.70291 13.3502C4.70291 13.367 4.71134 13.3755 4.72819 13.3755C4.74504 13.3755 4.75348 13.3839 4.75348 13.4008C4.75348 13.4176 4.76191 13.426 4.77876 13.426C4.79561 13.426 4.80405 13.4345 4.80405 13.4513C4.80405 13.4682 4.81248 13.4766 4.82933 13.4766C4.84618 13.4766 4.85461 13.485 4.85461 13.5019C4.85461 13.5187 4.86305 13.5272 4.8799 13.5272C4.89675 13.5272 4.90518 13.5356 4.90518 13.5525C4.90518 13.5693 4.91362 13.5777 4.93047 13.5777C4.94732 13.5777 4.95575 13.5862 4.95575 13.603C4.95575 13.6199 4.96418 13.6283 4.98104 13.6283C4.99789 13.6283 5.00632 13.6368 5.00632 13.6536C5.00632 13.6705 5.01475 13.6789 5.03161 13.6789C5.04846 13.6789 5.05689 13.6873 5.05689 13.7042C5.05689 13.721 5.06532 13.7295 5.08217 13.7295C5.09903 13.7295 5.10746 13.7379 5.10746 13.7547C5.10746 13.7716 5.11589 13.78 5.13274 13.78C5.1496 13.78 5.15803 13.7885 5.15803 13.8053C5.15803 13.8222 5.16646 13.8306 5.18331 13.8306C5.20016 13.8306 5.2086 13.839 5.2086 13.8559C5.2086 13.8727 5.21703 13.8812 5.23388 13.8812C5.25073 13.8812 5.25917 13.8896 5.25917 13.9064C5.25917 13.9233 5.2676 13.9317 5.28445 13.9317C5.3013 13.9317 5.30973 13.9402 5.30973 13.957C5.30973 13.9739 5.31817 13.9823 5.33502 13.9823C5.35187 13.9823 5.3603 13.9907 5.3603 14.0076C5.3603 14.0244 5.36874 14.0329 5.38559 14.0329C5.40244 14.0329 5.41087 14.0413 5.41087 14.0582C5.41087 14.075 5.4193 14.0834 5.43616 14.0834C5.45301 14.0834 5.46144 14.0919 5.46144 14.1087C5.46144 14.1256 5.46987 14.134 5.48673 14.134C5.50358 14.134 5.51201 14.1424 5.51201 14.1593C5.51201 14.1761 5.52044 14.1846 5.53729 14.1846C5.55415 14.1846 5.56258 14.193 5.56258 14.2099C5.56258 14.2267 5.57101 14.2351 5.58786 14.2351C5.60472 14.2351 5.61315 14.2436 5.61315 14.2604C5.61315 14.2773 5.62158 14.2857 5.63843 14.2857C5.65528 14.2857 5.66372 14.2941 5.66372 14.311C5.66372 14.3279 5.67215 14.3363 5.689 14.3363C5.70585 14.3363 5.71429 14.3447 5.71429 14.3616C5.71429 14.3784 5.72272 14.3869 5.73957 14.3869C5.75642 14.3869 5.76485 14.3953 5.76485 14.4121C5.76485 14.429 5.77329 14.4374 5.79014 14.4374C5.80699 14.4374 5.81542 14.4459 5.81542 14.4627C5.81542 14.4796 5.82386 14.488 5.84071 14.488C5.85925 14.488 5.86599 14.4964 5.86599 14.5196C5.86599 14.5428 5.87273 14.5512 5.89128 14.5512C5.90813 14.5512 5.91656 14.5596 5.91656 14.5765C5.91656 14.5933 5.92499 14.6018 5.94185 14.6018C5.9587 14.6018 5.96713 14.6102 5.96713 14.6271C5.96713 14.6439 5.97556 14.6523 5.99241 14.6523C6.00927 14.6523 6.0177 14.6608 6.0177 14.6776C6.0177 14.6945 6.02613 14.7029 6.04298 14.7029C6.05703 14.7029 6.06827 14.7113 6.06827 14.7219C6.06827 14.7324 6.07951 14.7408 6.09355 14.7408C6.11402 14.7408 6.11884 14.7324 6.11884 14.6966C6.11884 14.6608 6.12365 14.6523 6.14412 14.6523C6.1652 14.6523 6.16941 14.6439 6.16941 14.6018C6.16941 14.5596 6.17362 14.5512 6.19469 14.5512C6.21324 14.5512 6.21997 14.5428 6.21997 14.5196C6.21997 14.4964 6.22671 14.488 6.24526 14.488C6.26633 14.488 6.27054 14.4796 6.27054 14.4374C6.27054 14.3953 6.27475 14.3869 6.29583 14.3869C6.3169 14.3869 6.32111 14.3784 6.32111 14.3363C6.32111 14.2941 6.32532 14.2857 6.3464 14.2857C6.36747 14.2857 6.37168 14.2773 6.37168 14.2351C6.37168 14.193 6.37589 14.1846 6.39697 14.1846C6.41804 14.1846 6.42225 14.1761 6.42225 14.134C6.42225 14.0919 6.42646 14.0834 6.44753 14.0834C6.46861 14.0834 6.47282 14.075 6.47282 14.0329C6.47282 13.9907 6.47703 13.9823 6.4981 13.9823C6.51918 13.9823 6.52339 13.9739 6.52339 13.9317C6.52339 13.8896 6.5276 13.8812 6.54867 13.8812C6.56975 13.8812 6.57396 13.8727 6.57396 13.8306C6.57396 13.7885 6.57817 13.78 6.59924 13.78C6.61971 13.78 6.62453 13.7716 6.62453 13.7358C6.62453 13.7 6.62934 13.6915 6.64981 13.6915C6.67089 13.6915 6.67509 13.6831 6.67509 13.641C6.67509 13.5988 6.6793 13.5904 6.70038 13.5904C6.72145 13.5904 6.72566 13.582 6.72566 13.5398C6.72566 13.4977 6.72987 13.4893 6.75095 13.4893C6.77202 13.4893 6.77623 13.4808 6.77623 13.4387C6.77623 13.3965 6.78044 13.3881 6.80152 13.3881C6.82259 13.3881 6.8268 13.3797 6.8268 13.3375C6.8268 13.2954 6.83101 13.287 6.85209 13.287C6.87316 13.287 6.87737 13.2785 6.87737 13.2364C6.87737 13.1943 6.88158 13.1858 6.90265 13.1858C6.92373 13.1858 6.92794 13.1774 6.92794 13.1353C6.92794 13.0931 6.93215 13.0847 6.95322 13.0847C6.97177 13.0847 6.97851 13.0763 6.97851 13.0531C6.97851 13.0299 6.98525 13.0215 7.00379 13.0215C7.02487 13.0215 7.02908 13.0131 7.02908 12.9709C7.02908 12.9288 7.03329 12.9204 7.05436 12.9204C7.07544 12.9204 7.07965 12.9119 7.07965 12.8698C7.07965 12.8276 7.08386 12.8192 7.10493 12.8192C7.12601 12.8192 7.13022 12.8108 7.13022 12.7686C7.13022 12.7265 7.13442 12.7181 7.1555 12.7181C7.17657 12.7181 7.18078 12.7096 7.18078 12.6675C7.18078 12.6254 7.18499 12.6169 7.20607 12.6169C7.22654 12.6169 7.23135 12.6085 7.23135 12.5727C7.23135 12.5369 7.23617 12.5284 7.25664 12.5284C7.27771 12.5284 7.28192 12.52 7.28192 12.4779C7.28192 12.4357 7.28613 12.4273 7.30721 12.4273C7.32828 12.4273 7.33249 12.4189 7.33249 12.3767C7.33249 12.3346 7.3367 12.3262 7.35778 12.3262C7.37885 12.3262 7.38306 12.3177 7.38306 12.2756C7.38306 12.2335 7.38727 12.225 7.40834 12.225C7.42942 12.225 7.43363 12.2166 7.43363 12.1745C7.43363 12.1323 7.43784 12.1239 7.45891 12.1239C7.47999 12.1239 7.4842 12.1155 7.4842 12.0733C7.4842 12.0312 7.48841 12.0228 7.50948 12.0228C7.53056 12.0228 7.53477 12.0143 7.53477 11.9722C7.53477 11.9301 7.53898 11.9216 7.56005 11.9216C7.58113 11.9216 7.58534 11.9132 7.58534 11.871C7.58534 11.8289 7.58955 11.8205 7.61062 11.8205C7.63169 11.8205 7.6359 11.812 7.6359 11.7699C7.6359 11.7278 7.64011 11.7193 7.66119 11.7193C7.68226 11.7193 7.68647 11.7109 7.68647 11.6688C7.68647 11.6266 7.69068 11.6182 7.71176 11.6182C7.7303 11.6182 7.73704 11.6098 7.73704 11.5866C7.73704 11.5634 7.74378 11.555 7.76233 11.555C7.7834 11.555 7.78761 11.5466 7.78761 11.5044C7.78761 11.4623 7.79182 11.4539 7.8129 11.4539C7.83397 11.4539 7.83818 11.4454 7.83818 11.4033C7.83818 11.3612 7.84239 11.3527 7.86346 11.3527C7.88393 11.3527 7.88875 11.3443 7.88875 11.3085C7.88875 11.2727 7.89357 11.2642 7.91403 11.2642C7.93511 11.2642 7.93932 11.2558 7.93932 11.2137C7.93932 11.1715 7.94353 11.1631 7.9646 11.1631C7.98568 11.1631 7.98989 11.1547 7.98989 11.1125C7.98989 11.0704 7.9941 11.0619 8.01517 11.0619C8.03625 11.0619 8.04046 11.0535 8.04046 11.0114C8.04046 10.9692 8.04467 10.9608 8.06574 10.9608C8.08681 10.9608 8.09102 10.9524 8.09102 10.9102C8.09102 10.8681 8.09523 10.8597 8.11631 10.8597C8.13738 10.8597 8.14159 10.8512 8.14159 10.8091C8.14159 10.767 8.1458 10.7585 8.16688 10.7585C8.18373 10.7585 8.19216 10.7501 8.19216 10.7332C8.19216 10.7108 8.18373 10.708 8.11631 10.708C8.04889 10.708 8.04046 10.7108 8.04046 10.7332C8.04046 10.7573 8.03202 10.7585 7.86346 10.7585C7.69491 10.7585 7.68647 10.7597 7.68647 10.7838C7.68647 10.8079 7.67804 10.8091 7.50948 10.8091C7.36774 10.8091 7.33249 10.8126 7.33249 10.8265C7.33249 10.8524 7.27375 10.8597 7.06542 10.8597H6.87737V10.7585C6.87737 10.6658 6.87948 10.6574 6.90265 10.6574C6.92723 10.6574 6.92794 10.649 6.92794 10.354C6.92794 10.059 6.92865 10.0506 6.95322 10.0506C6.97711 10.0506 6.97851 10.0421 6.97851 9.89886C6.97851 9.75559 6.97991 9.74716 7.00379 9.74716C7.0274 9.74716 7.02908 9.73872 7.02908 9.62073C7.02908 9.50274 7.03076 9.49431 7.05436 9.49431C7.07684 9.49431 7.07965 9.48588 7.07965 9.41846C7.07965 9.35104 7.08245 9.3426 7.10493 9.3426C7.12796 9.3426 7.13022 9.33417 7.13022 9.24779C7.13022 9.1614 7.13247 9.15297 7.1555 9.15297C7.17704 9.15297 7.18078 9.14454 7.18078 9.09608C7.18078 9.04762 7.18453 9.03919 7.20607 9.03919C7.22855 9.03919 7.23135 9.03076 7.23135 8.96334C7.23135 8.89592 7.23416 8.88748 7.25664 8.88748C7.27912 8.88748 7.28192 8.87905 7.28192 8.81163C7.28192 8.74421 7.28473 8.73578 7.30721 8.73578C7.32828 8.73578 7.33249 8.72735 7.33249 8.68521C7.33249 8.64307 7.3367 8.63464 7.35778 8.63464C7.37885 8.63464 7.38306 8.62621 7.38306 8.58407C7.38306 8.54193 7.38727 8.5335 7.40834 8.5335C7.42942 8.5335 7.43363 8.52507 7.43363 8.48293C7.43363 8.4408 7.43784 8.43236 7.45891 8.43236C7.47999 8.43236 7.4842 8.42393 7.4842 8.3818C7.4842 8.33966 7.48841 8.33123 7.50948 8.33123C7.53056 8.33123 7.53477 8.32279 7.53477 8.28066C7.53477 8.23852 7.53898 8.23009 7.56005 8.23009C7.58113 8.23009 7.58534 8.22166 7.58534 8.17952C7.58534 8.13738 7.58955 8.12895 7.61062 8.12895C7.62747 8.12895 7.6359 8.12052 7.6359 8.10367C7.6359 8.08681 7.64434 8.07838 7.66119 8.07838C7.68226 8.07838 7.68647 8.06995 7.68647 8.02781C7.68647 7.98568 7.69068 7.97724 7.71176 7.97724C7.72861 7.97724 7.73704 7.96881 7.73704 7.95196C7.73704 7.93511 7.74547 7.92668 7.76233 7.92668C7.7834 7.92668 7.78761 7.91824 7.78761 7.87611C7.78761 7.83397 7.79182 7.82554 7.8129 7.82554C7.82975 7.82554 7.83818 7.81711 7.83818 7.80025C7.83818 7.7834 7.84661 7.77497 7.86346 7.77497C7.88454 7.77497 7.88875 7.76654 7.88875 7.7244C7.88875 7.68226 7.89296 7.67383 7.91403 7.67383C7.93089 7.67383 7.93932 7.6654 7.93932 7.64855C7.93932 7.63169 7.94775 7.62326 7.9646 7.62326C7.98145 7.62326 7.98989 7.61483 7.98989 7.59798C7.98989 7.58113 7.99832 7.57269 8.01517 7.57269C8.03564 7.57269 8.04046 7.56426 8.04046 7.52845C8.04046 7.49263 8.04527 7.4842 8.06574 7.4842C8.08429 7.4842 8.09102 7.47576 8.09102 7.45259C8.09102 7.42942 8.09776 7.42099 8.11631 7.42099C8.13316 7.42099 8.14159 7.41255 8.14159 7.3957C8.14159 7.37885 8.15003 7.37042 8.16688 7.37042C8.18373 7.37042 8.19216 7.36198 8.19216 7.34513C8.19216 7.32828 8.20059 7.31985 8.21745 7.31985C8.2343 7.31985 8.24273 7.31142 8.24273 7.29456C8.24273 7.27771 8.25116 7.26928 8.26802 7.26928C8.28487 7.26928 8.2933 7.26085 8.2933 7.244C8.2933 7.22714 8.30173 7.21871 8.31858 7.21871C8.33544 7.21871 8.34387 7.21028 8.34387 7.19343C8.34387 7.17657 8.3523 7.16814 8.36915 7.16814C8.38601 7.16814 8.39444 7.15971 8.39444 7.14286C8.39444 7.12601 8.40287 7.11757 8.41972 7.11757C8.43657 7.11757 8.44501 7.10914 8.44501 7.09229C8.44501 7.07544 8.45344 7.067 8.47029 7.067C8.48714 7.067 8.49558 7.05857 8.49558 7.04172C8.49558 7.02487 8.50401 7.01644 8.52086 7.01644C8.53771 7.01644 8.54614 7.008 8.54614 6.99115C8.54614 6.9743 8.55458 6.96587 8.57143 6.96587C8.58828 6.96587 8.59671 6.95743 8.59671 6.94058C8.59671 6.92373 8.60515 6.9153 8.622 6.9153C8.63885 6.9153 8.64728 6.90686 8.64728 6.89001C8.64728 6.87316 8.65571 6.86473 8.67257 6.86473C8.68942 6.86473 8.69785 6.8563 8.69785 6.83944C8.69785 6.82259 8.70628 6.81416 8.72314 6.81416C8.73704 6.81416 8.74842 6.80613 8.74842 6.79631C8.74842 6.78534 8.7679 6.77516 8.79899 6.76991C8.83737 6.76343 8.84956 6.75555 8.84956 6.73719C8.84956 6.72145 8.85837 6.71302 8.87484 6.71302C8.89169 6.71302 8.90013 6.70459 8.90013 6.68774C8.90013 6.67089 8.90856 6.66245 8.92541 6.66245C8.94226 6.66245 8.9507 6.65402 8.9507 6.63717C8.9507 6.61609 8.95913 6.61188 9.00126 6.61188C9.0434 6.61188 9.05183 6.60767 9.05183 6.5866C9.05183 6.56975 9.06027 6.56131 9.07712 6.56131C9.09397 6.56131 9.1024 6.55288 9.1024 6.53603C9.1024 6.51496 9.11083 6.51075 9.15297 6.51075C9.19511 6.51075 9.20354 6.50654 9.20354 6.48546C9.20354 6.46861 9.21197 6.46018 9.22882 6.46018C9.24568 6.46018 9.25411 6.45174 9.25411 6.43489C9.25411 6.41382 9.26254 6.40961 9.30468 6.40961C9.34681 6.40961 9.35525 6.4054 9.35525 6.38432C9.35525 6.36747 9.36368 6.35904 9.38053 6.35904C9.39738 6.35904 9.40582 6.35061 9.40582 6.33375C9.40582 6.31268 9.41425 6.30847 9.45638 6.30847C9.49852 6.30847 9.50695 6.30426 9.50695 6.28319C9.50695 6.26211 9.51539 6.2579 9.55752 6.2579C9.59966 6.2579 9.60809 6.25369 9.60809 6.23262C9.60809 6.21154 9.61652 6.20733 9.65866 6.20733C9.7008 6.20733 9.70923 6.20312 9.70923 6.18205C9.70923 6.16097 9.71766 6.15676 9.7598 6.15676C9.80193 6.15676 9.81037 6.15255 9.81037 6.13148C9.81037 6.1104 9.8188 6.10619 9.86094 6.10619C9.90307 6.10619 9.9115 6.10198 9.9115 6.08091C9.9115 6.05984 9.91994 6.05563 9.96207 6.05563C10.0042 6.05563 10.0126 6.05142 10.0126 6.03034C10.0126 6.00786 10.0211 6.00506 10.0885 6.00506C10.1559 6.00506 10.1643 6.00225 10.1643 5.97977C10.1643 5.9587 10.1728 5.95449 10.2149 5.95449C10.2494 5.95449 10.2655 5.94896 10.2655 5.93711C10.2655 5.91904 10.3181 5.90392 10.3808 5.90392C10.4033 5.90392 10.4172 5.89726 10.4172 5.88654C10.4172 5.86847 10.4698 5.85335 10.5326 5.85335C10.555 5.85335 10.5689 5.84669 10.5689 5.83597C10.5689 5.81558 10.6231 5.80278 10.7095 5.80278C10.7534 5.80278 10.7712 5.79778 10.7712 5.7854C10.7712 5.76331 10.8267 5.75221 10.9371 5.75221C11.0156 5.75221 11.024 5.74976 11.024 5.72693C11.024 5.70305 11.0325 5.70164 11.1757 5.70164C11.319 5.70164 11.3274 5.70024 11.3274 5.67636C11.3274 5.6514 11.3359 5.65107 11.9706 5.65107C12.3243 5.65107 12.6316 5.65463 12.6533 5.65898C12.675 5.66333 12.6928 5.6747 12.6928 5.68426C12.6928 5.6977 12.7182 5.70164 12.805 5.70164C12.9397 5.70164 12.9962 5.71145 12.9962 5.73483C12.9962 5.74789 13.0178 5.75221 13.0831 5.75221C13.1936 5.75221 13.2491 5.76331 13.2491 5.7854C13.2491 5.79822 13.269 5.80278 13.3249 5.80278C13.3923 5.80278 13.4008 5.80559 13.4008 5.82807C13.4008 5.84989 13.4092 5.85335 13.4624 5.85335C13.5488 5.85335 13.603 5.86614 13.603 5.88654C13.603 5.89726 13.617 5.90392 13.6394 5.90392C13.7022 5.90392 13.7547 5.91904 13.7547 5.93711C13.7547 5.94896 13.7708 5.95449 13.8053 5.95449C13.8474 5.95449 13.8559 5.9587 13.8559 5.97977C13.8559 5.99919 13.8643 6.00506 13.8922 6.00506C13.955 6.00506 14.0076 6.02018 14.0076 6.03824C14.0076 6.0501 14.0237 6.05563 14.0582 6.05563C14.1003 6.05563 14.1087 6.05984 14.1087 6.08091C14.1087 6.10198 14.1172 6.10619 14.1593 6.10619C14.2014 6.10619 14.2099 6.1104 14.2099 6.13148C14.2099 6.15255 14.2183 6.15676 14.2604 6.15676C14.3026 6.15676 14.311 6.16097 14.311 6.18205C14.311 6.20312 14.3194 6.20733 14.3616 6.20733C14.4037 6.20733 14.4121 6.21154 14.4121 6.23262C14.4121 6.25369 14.4206 6.2579 14.4627 6.2579C14.5041 6.2579 14.5133 6.2623 14.5133 6.28207C14.5133 6.30043 14.5255 6.30831 14.5638 6.31479C14.5949 6.32004 14.6144 6.33022 14.6144 6.34119C14.6144 6.35101 14.6258 6.35904 14.6397 6.35904C14.6565 6.35904 14.665 6.36747 14.665 6.38432C14.665 6.4054 14.6734 6.40961 14.7156 6.40961C14.7577 6.40961 14.7661 6.41382 14.7661 6.43489C14.7661 6.45174 14.7746 6.46018 14.7914 6.46018C14.8083 6.46018 14.8167 6.46861 14.8167 6.48546C14.8167 6.50654 14.8251 6.51075 14.8673 6.51075C14.9094 6.51075 14.9178 6.51496 14.9178 6.53603C14.9178 6.55288 14.9263 6.56131 14.9431 6.56131C14.9596 6.56131 14.9684 6.56975 14.9684 6.58549C14.9684 6.60384 14.9806 6.61172 15.019 6.6182C15.0501 6.62345 15.0695 6.63363 15.0695 6.6446C15.0695 6.65443 15.0809 6.66245 15.0948 6.66245C15.1117 6.66245 15.1201 6.67089 15.1201 6.68774C15.1201 6.70459 15.1285 6.71302 15.1454 6.71302C15.1622 6.71302 15.1707 6.72145 15.1707 6.73831C15.1707 6.75516 15.1791 6.76359 15.196 6.76359C15.2124 6.76359 15.2212 6.77202 15.2212 6.78776C15.2212 6.80612 15.2334 6.814 15.2718 6.82048C15.3029 6.82573 15.3224 6.8359 15.3224 6.84688C15.3224 6.8567 15.3338 6.86473 15.3477 6.86473C15.3645 6.86473 15.3729 6.87316 15.3729 6.89001C15.3729 6.90686 15.3814 6.9153 15.3982 6.9153C15.4151 6.9153 15.4235 6.92373 15.4235 6.94058C15.4235 6.95743 15.4319 6.96587 15.4488 6.96587C15.4657 6.96587 15.4741 6.9743 15.4741 6.99115C15.4741 7.008 15.4825 7.01644 15.4994 7.01644C15.5162 7.01644 15.5247 7.02487 15.5247 7.04172C15.5247 7.05857 15.5331 7.067 15.5499 7.067C15.5668 7.067 15.5752 7.07544 15.5752 7.09229C15.5752 7.10914 15.5837 7.11757 15.6005 7.11757C15.6174 7.11757 15.6258 7.12601 15.6258 7.14286C15.6258 7.15971 15.6342 7.16814 15.6511 7.16814C15.6679 7.16814 15.6764 7.17657 15.6764 7.19343C15.6764 7.21028 15.6848 7.21871 15.7016 7.21871C15.7185 7.21871 15.7269 7.22714 15.7269 7.244C15.7269 7.26085 15.7354 7.26928 15.7522 7.26928C15.7691 7.26928 15.7775 7.27771 15.7775 7.29456C15.7775 7.31142 15.7859 7.31985 15.8028 7.31985C15.8196 7.31985 15.8281 7.32828 15.8281 7.34513C15.8281 7.36198 15.8365 7.37042 15.8534 7.37042C15.8744 7.37042 15.8786 7.37885 15.8786 7.42099C15.8786 7.46312 15.8828 7.47156 15.9039 7.47156C15.9208 7.47156 15.9292 7.47999 15.9292 7.49684C15.9292 7.51369 15.9376 7.52212 15.9545 7.52212C15.9713 7.52212 15.9798 7.53056 15.9798 7.54741C15.9798 7.56426 15.9882 7.57269 16.0051 7.57269C16.0219 7.57269 16.0303 7.58113 16.0303 7.59798C16.0303 7.61483 16.0388 7.62326 16.0556 7.62326C16.0767 7.62326 16.0809 7.63169 16.0809 7.67383C16.0809 7.71597 16.0851 7.7244 16.1062 7.7244C16.123 7.7244 16.1315 7.73283 16.1315 7.74968C16.1315 7.76654 16.1399 7.77497 16.1568 7.77497C16.1753 7.77497 16.182 7.7834 16.182 7.80657C16.182 7.82975 16.1888 7.83818 16.2073 7.83818C16.2278 7.83818 16.2326 7.84661 16.2326 7.88243C16.2326 7.91824 16.2374 7.92668 16.2579 7.92668C16.279 7.92668 16.2832 7.93511 16.2832 7.97724C16.2832 8.01938 16.2874 8.02781 16.3085 8.02781C16.3253 8.02781 16.3338 8.03625 16.3338 8.0531C16.3338 8.06995 16.3422 8.07838 16.359 8.07838C16.3801 8.07838 16.3843 8.08681 16.3843 8.12895C16.3843 8.17109 16.3885 8.17952 16.4096 8.17952C16.4307 8.17952 16.4349 8.18795 16.4349 8.23009C16.4349 8.27223 16.4391 8.28066 16.4602 8.28066C16.477 8.28066 16.4855 8.28909 16.4855 8.30594C16.4855 8.32279 16.4939 8.33123 16.5107 8.33123C16.5318 8.33123 16.536 8.33966 16.536 8.3818C16.536 8.42393 16.5402 8.43236 16.5613 8.43236C16.5824 8.43236 16.5866 8.4408 16.5866 8.48293C16.5866 8.52507 16.5908 8.5335 16.6119 8.5335C16.6344 8.5335 16.6372 8.54193 16.6372 8.60936C16.6372 8.67678 16.64 8.68521 16.6625 8.68521C16.6835 8.68521 16.6877 8.69364 16.6877 8.73578C16.6877 8.77791 16.6919 8.78635 16.713 8.78635C16.7341 8.78635 16.7383 8.79478 16.7383 8.83692C16.7383 8.87905 16.7425 8.88748 16.7636 8.88748C16.7861 8.88748 16.7889 8.89592 16.7889 8.96334C16.7889 9.03076 16.7917 9.03919 16.8142 9.03919C16.8366 9.03919 16.8394 9.04762 16.8394 9.11504C16.8394 9.18247 16.8423 9.1909 16.8647 9.1909C16.8872 9.1909 16.89 9.19933 16.89 9.26675C16.89 9.33417 16.8928 9.3426 16.9153 9.3426C16.9385 9.3426 16.9406 9.35104 16.9406 9.44374C16.9406 9.53645 16.9427 9.54488 16.9659 9.54488C16.9895 9.54488 16.9912 9.55331 16.9912 9.6713C16.9912 9.78929 16.9928 9.79772 17.0164 9.79772C17.0403 9.79772 17.0417 9.80616 17.0417 9.94943C17.0417 10.0927 17.0431 10.1011 17.067 10.1011C17.0919 10.1011 17.0923 10.1096 17.0923 10.7332C17.0923 11.3569 17.0919 11.3654 17.067 11.3654C17.043 11.3654 17.0417 11.3738 17.0417 11.536C17.0417 11.6983 17.0405 11.7067 17.0164 11.7067C16.9931 11.7067 16.9912 11.7151 16.9912 11.8142C16.9912 11.9132 16.9892 11.9216 16.9659 11.9216C16.9428 11.9216 16.9406 11.9301 16.9406 12.0164C16.9406 12.1028 16.9383 12.1113 16.9153 12.1113C16.8926 12.1113 16.89 12.1197 16.89 12.1934C16.89 12.2672 16.8874 12.2756 16.8647 12.2756C16.8423 12.2756 16.8394 12.284 16.8394 12.3515C16.8394 12.4189 16.8366 12.4273 16.8142 12.4273C16.7931 12.4273 16.7889 12.4357 16.7889 12.4779C16.7889 12.52 16.7847 12.5284 16.7636 12.5284C16.7411 12.5284 16.7383 12.5369 16.7383 12.6043C16.7383 12.6717 16.7355 12.6802 16.713 12.6802C16.6919 12.6802 16.6877 12.6886 16.6877 12.7307C16.6877 12.7729 16.6835 12.7813 16.6625 12.7813C16.6414 12.7813 16.6372 12.7897 16.6372 12.8319C16.6372 12.874 16.633 12.8824 16.6119 12.8824C16.5908 12.8824 16.5866 12.8909 16.5866 12.933C16.5866 12.9751 16.5824 12.9836 16.5613 12.9836C16.5402 12.9836 16.536 12.992 16.536 13.0341C16.536 13.0763 16.5318 13.0847 16.5107 13.0847C16.4897 13.0847 16.4855 13.0931 16.4855 13.1353C16.4855 13.1774 16.4813 13.1858 16.4602 13.1858C16.4397 13.1858 16.4349 13.1943 16.4349 13.2301C16.4349 13.2659 16.4301 13.2743 16.4096 13.2743C16.3911 13.2743 16.3843 13.2828 16.3843 13.3059C16.3843 13.3291 16.3776 13.3375 16.359 13.3375C16.338 13.3375 16.3338 13.346 16.3338 13.3881C16.3338 13.4303 16.3295 13.4387 16.3085 13.4387C16.2916 13.4387 16.2832 13.4471 16.2832 13.464C16.2832 13.4808 16.2748 13.4893 16.2579 13.4893C16.2368 13.4893 16.2326 13.4977 16.2326 13.5398C16.2326 13.582 16.2284 13.5904 16.2073 13.5904C16.1905 13.5904 16.182 13.5988 16.182 13.6157C16.182 13.6325 16.1736 13.641 16.1568 13.641C16.1357 13.641 16.1315 13.6494 16.1315 13.6915C16.1315 13.7337 16.1273 13.7421 16.1062 13.7421C16.0893 13.7421 16.0809 13.7505 16.0809 13.7674C16.0809 13.7842 16.0725 13.7927 16.0556 13.7927C16.0388 13.7927 16.0303 13.8011 16.0303 13.818C16.0303 13.8348 16.0219 13.8432 16.0051 13.8432C15.9846 13.8432 15.9798 13.8517 15.9798 13.8875C15.9798 13.9233 15.975 13.9317 15.9545 13.9317C15.9359 13.9317 15.9292 13.9402 15.9292 13.9633C15.9292 13.9865 15.9225 13.9949 15.9039 13.9949C15.8871 13.9949 15.8786 14.0034 15.8786 14.0202C15.8786 14.0371 15.8702 14.0455 15.8534 14.0455C15.8365 14.0455 15.8281 14.0539 15.8281 14.0708C15.8281 14.0876 15.8196 14.0961 15.8028 14.0961C15.7859 14.0961 15.7775 14.1045 15.7775 14.1214C15.7775 14.1382 15.7691 14.1467 15.7522 14.1467C15.7317 14.1467 15.7269 14.1551 15.7269 14.1909C15.7269 14.2267 15.7221 14.2351 15.7016 14.2351C15.6848 14.2351 15.6764 14.2436 15.6764 14.2604C15.6764 14.2773 15.6679 14.2857 15.6511 14.2857C15.6342 14.2857 15.6258 14.2941 15.6258 14.311C15.6258 14.3279 15.6174 14.3363 15.6005 14.3363C15.5837 14.3363 15.5752 14.3447 15.5752 14.3616C15.5752 14.3784 15.5668 14.3869 15.5499 14.3869C15.5331 14.3869 15.5247 14.3953 15.5247 14.4121C15.5247 14.429 15.5162 14.4374 15.4994 14.4374C15.4829 14.4374 15.4741 14.4459 15.4741 14.4616C15.4741 14.4799 15.4619 14.4878 15.4235 14.4943C15.3851 14.5008 15.3729 14.5087 15.3729 14.527C15.3729 14.5428 15.3641 14.5512 15.3477 14.5512C15.3308 14.5512 15.3224 14.5596 15.3224 14.5765C15.3224 14.5933 15.3139 14.6018 15.2971 14.6018C15.2802 14.6018 15.2718 14.6102 15.2718 14.6271C15.2718 14.6439 15.2634 14.6523 15.2465 14.6523C15.2297 14.6523 15.2212 14.6608 15.2212 14.6776C15.2212 14.6945 15.2128 14.7029 15.196 14.7029C15.1791 14.7029 15.1707 14.7113 15.1707 14.7282C15.1707 14.745 15.1622 14.7535 15.1454 14.7535C15.1315 14.7535 15.1201 14.7615 15.1201 14.7713C15.1201 14.7823 15.1006 14.7925 15.0695 14.7977C15.0312 14.8042 15.019 14.8121 15.019 14.8304C15.019 14.8462 15.0102 14.8546 14.9937 14.8546C14.9768 14.8546 14.9684 14.863 14.9684 14.8799C14.9684 14.8968 14.96 14.9052 14.9431 14.9052C14.9292 14.9052 14.9178 14.9132 14.9178 14.923C14.9178 14.934 14.8983 14.9442 14.8673 14.9494C14.8289 14.9559 14.8167 14.9638 14.8167 14.9821C14.8167 14.9979 14.8079 15.0063 14.7914 15.0063C14.7775 15.0063 14.7661 15.0143 14.7661 15.0242C14.7661 15.0351 14.7466 15.0453 14.7156 15.0506C14.6772 15.0571 14.665 15.0649 14.665 15.0833C14.665 15.1031 14.6558 15.1075 14.6144 15.1075C14.5723 15.1075 14.5638 15.1117 14.5638 15.1327C14.5638 15.1496 14.5554 15.158 14.5386 15.158C14.5247 15.158 14.5133 15.1661 14.5133 15.1759C14.5133 15.1869 14.4938 15.197 14.4627 15.2023C14.4335 15.2072 14.4121 15.2179 14.4121 15.2276C14.4121 15.2372 14.3908 15.2479 14.3616 15.2528C14.3323 15.2578 14.311 15.2684 14.311 15.2781C14.311 15.2878 14.2897 15.2985 14.2604 15.3034C14.232 15.3082 14.2099 15.3191 14.2099 15.3282C14.2099 15.3453 14.156 15.3603 14.0945 15.3603C14.0666 15.3603 14.0582 15.3662 14.0582 15.3856C14.0582 15.4067 14.0497 15.4109 14.0076 15.4109C13.9654 15.4109 13.957 15.4151 13.957 15.4362C13.957 15.4586 13.9486 15.4614 13.8812 15.4614C13.8137 15.4614 13.8053 15.4642 13.8053 15.4867C13.8053 15.5078 13.7969 15.512 13.7547 15.512C13.7203 15.512 13.7042 15.5175 13.7042 15.5294C13.7042 15.5498 13.65 15.5626 13.5635 15.5626C13.5197 15.5626 13.5019 15.5676 13.5019 15.58C13.5019 15.598 13.4493 15.6131 13.3865 15.6131C13.3641 15.6131 13.3502 15.6198 13.3502 15.6305C13.3502 15.6509 13.296 15.6637 13.2095 15.6637C13.1661 15.6637 13.1479 15.6688 13.1479 15.6809C13.1479 15.6997 13.0478 15.7143 12.9185 15.7143C12.8641 15.7143 12.8445 15.7189 12.8445 15.7317C12.8445 15.7561 12.7871 15.7649 12.628 15.7649C12.521 15.7649 12.4905 15.7686 12.4905 15.7819C12.4905 15.7944 12.4595 15.8012 12.3748 15.8072C12.3112 15.8117 9.53492 15.8154 6.20539 15.8154C1.00024 15.8154 0.151707 15.8179 0.151707 15.8333C0.151707 15.8442 0.132225 15.8544 0.101138 15.8597C0.0522124 15.8679 0.0505689 15.8698 0.0505689 15.9177C0.0505689 15.9587 0.0462579 15.9671 0.0252845 15.9671C0.000164349 15.9671 0 15.9756 0 17.2503C0 18.5251 0.000164349 18.5335 0.0252845 18.5335C0.046359 18.5335 0.0505689 18.5419 0.0505689 18.5841C0.0505689 18.6262 0.0547788 18.6346 0.0758534 18.6346C0.0927054 18.6346 0.101138 18.6431 0.101138 18.6599C0.101138 18.6852 0.10957 18.6852 11.0999 18.6852C22.0902 18.6852 22.0986 18.6852 22.0986 18.7105C22.0986 18.7273 22.107 18.7358 22.1239 18.7358C22.1488 18.7358 22.1492 18.7442 22.1492 19.3679C22.1492 19.9916 22.1495 20 22.1745 20C22.1913 20 22.1997 19.9916 22.1997 19.9747C22.1997 19.9579 22.2082 19.9494 22.225 19.9494C22.2419 19.9494 22.2503 19.941 22.2503 19.9241C22.2503 19.9073 22.2587 19.8989 22.2756 19.8989C22.2925 19.8989 22.3009 19.8904 22.3009 19.8736C22.3009 19.8525 22.3093 19.8483 22.3515 19.8483C22.3936 19.8483 22.402 19.8441 22.402 19.823C22.402 19.8062 22.4105 19.7977 22.4273 19.7977C22.4442 19.7977 22.4526 19.7893 22.4526 19.7724C22.4526 19.7556 22.461 19.7472 22.4779 19.7472C22.4947 19.7472 22.5032 19.7387 22.5032 19.7219C22.5032 19.7008 22.5116 19.6966 22.5537 19.6966C22.5959 19.6966 22.6043 19.6924 22.6043 19.6713C22.6043 19.6545 22.6127 19.646 22.6296 19.646C22.6464 19.646 22.6549 19.6376 22.6549 19.6207C22.6549 19.6039 22.6633 19.5954 22.6802 19.5954C22.697 19.5954 22.7054 19.587 22.7054 19.5702C22.7054 19.5491 22.7139 19.5449 22.756 19.5449C22.7981 19.5449 22.8066 19.5407 22.8066 19.5196C22.8066 19.5027 22.815 19.4943 22.8319 19.4943C22.8487 19.4943 22.8571 19.4859 22.8571 19.469C22.8571 19.448 22.8656 19.4437 22.9077 19.4437C22.9498 19.4437 22.9583 19.4395 22.9583 19.4185C22.9583 19.4016 22.9667 19.3932 22.9836 19.3932C23.0004 19.3932 23.0088 19.3847 23.0088 19.3679C23.0088 19.351 23.0173 19.3426 23.0341 19.3426C23.051 19.3426 23.0594 19.3342 23.0594 19.3173C23.0594 19.2962 23.0679 19.292 23.11 19.292C23.1521 19.292 23.1606 19.2878 23.1606 19.2668C23.1606 19.2499 23.169 19.2415 23.1858 19.2415C23.2027 19.2415 23.2111 19.233 23.2111 19.2162C23.2111 19.1993 23.2196 19.1909 23.2364 19.1909C23.2533 19.1909 23.2617 19.1825 23.2617 19.1656C23.2617 19.1445 23.2701 19.1403 23.3123 19.1403C23.3544 19.1403 23.3628 19.1361 23.3628 19.115C23.3628 19.0982 23.3713 19.0898 23.3881 19.0898C23.405 19.0898 23.4134 19.0813 23.4134 19.0645C23.4134 19.0476 23.4218 19.0392 23.4387 19.0392C23.4555 19.0392 23.464 19.0308 23.464 19.0139C23.464 18.9928 23.4724 18.9886 23.5145 18.9886C23.5567 18.9886 23.5651 18.9844 23.5651 18.9633C23.5651 18.9465 23.5735 18.9381 23.5904 18.9381C23.6072 18.9381 23.6157 18.9296 23.6157 18.9128C23.6157 18.8917 23.6241 18.8875 23.6662 18.8875C23.7084 18.8875 23.7168 18.8833 23.7168 18.8622C23.7168 18.8453 23.7252 18.8369 23.7421 18.8369C23.759 18.8369 23.7674 18.8285 23.7674 18.8116C23.7674 18.7948 23.7758 18.7863 23.7927 18.7863C23.8095 18.7863 23.818 18.7779 23.818 18.7611C23.818 18.74 23.8264 18.7358 23.8685 18.7358C23.9107 18.7358 23.9191 18.7316 23.9191 18.7105C23.9191 18.6936 23.9275 18.6852 23.9444 18.6852C23.9612 18.6852 23.9697 18.6768 23.9697 18.6599C23.9697 18.6431 23.9781 18.6346 23.9949 18.6346C24.0118 18.6346 24.0202 18.6262 24.0202 18.6094C24.0202 18.5883 24.0287 18.5841 24.0708 18.5841C24.1129 18.5841 24.1214 18.5799 24.1214 18.5588C24.1214 18.5419 24.1298 18.5335 24.1467 18.5335C24.1635 18.5335 24.1719 18.5251 24.1719 18.5082C24.1719 18.4914 24.1804 18.4829 24.1972 18.4829C24.2141 18.4829 24.2225 18.4745 24.2225 18.4576C24.2225 18.4366 24.2309 18.4324 24.2731 18.4324C24.3152 18.4324 24.3236 18.4282 24.3236 18.4071C24.3236 18.3902 24.3321 18.3818 24.3489 18.3818C24.3658 18.3818 24.3742 18.3734 24.3742 18.3565C24.3742 18.3397 24.3826 18.3312 24.3995 18.3312C24.4134 18.3312 24.4248 18.3232 24.4248 18.3134C24.4248 18.3024 24.4443 18.2922 24.4753 18.287C24.5137 18.2805 24.5259 18.2726 24.5259 18.2543C24.5259 18.2385 24.5347 18.2301 24.5512 18.2301C24.5681 18.2301 24.5765 18.2217 24.5765 18.2048C24.5765 18.1837 24.5849 18.1795 24.6271 18.1795C24.6692 18.1795 24.6776 18.1753 24.6776 18.1542C24.6776 18.1374 24.6861 18.129 24.7029 18.129C24.7198 18.129 24.7282 18.1205 24.7282 18.1037C24.7282 18.0868 24.7366 18.0784 24.7535 18.0784C24.7703 18.0784 24.7788 18.0699 24.7788 18.0531C24.7788 18.032 24.7872 18.0278 24.8293 18.0278C24.8715 18.0278 24.8799 18.0236 24.8799 18.0025C24.8799 17.9857 24.8883 17.9772 24.9052 17.9772C24.922 17.9772 24.9305 17.9688 24.9305 17.952C24.9305 17.9351 24.9389 17.9267 24.9558 17.9267C24.9726 17.9267 24.981 17.9182 24.981 17.9014C24.981 17.8803 24.9895 17.8761 25.0316 17.8761C25.0737 17.8761 25.0822 17.8719 25.0822 17.8508C25.0822 17.834 25.0906 17.8255 25.1075 17.8255C25.1243 17.8255 25.1327 17.8171 25.1327 17.8003C25.1327 17.7834 25.1412 17.775 25.158 17.775C25.1749 17.775 25.1833 17.7665 25.1833 17.7497C25.1833 17.7286 25.1917 17.7244 25.2339 17.7244C25.276 17.7244 25.2845 17.7202 25.2845 17.6991C25.2845 17.6823 25.2929 17.6738 25.3097 17.6738C25.3266 17.6738 25.335 17.6654 25.335 17.6485C25.335 17.6317 25.3435 17.6233 25.3603 17.6233C25.3742 17.6233 25.3856 17.6152 25.3856 17.6054C25.3856 17.5944 25.4051 17.5843 25.4362 17.579C25.4745 17.5725 25.4867 17.5647 25.4867 17.5463C25.4867 17.5306 25.4955 17.5221 25.512 17.5221C25.5289 17.5221 25.5373 17.5137 25.5373 17.4968C25.5373 17.4758 25.5457 17.4716 25.5879 17.4716C25.63 17.4716 25.6384 17.4673 25.6384 17.4463C25.6384 17.4294 25.6469 17.421 25.6637 17.421C25.6806 17.421 25.689 17.4126 25.689 17.3957C25.689 17.3788 25.6974 17.3704 25.7143 17.3704C25.7311 17.3704 25.7396 17.362 25.7396 17.3451C25.7396 17.3241 25.748 17.3198 25.7901 17.3198C25.8395 17.3198 25.8407 17.3188 25.8407 17.2756C25.8407 17.2398 25.8359 17.2314 25.8154 17.2314C25.799 17.2314 25.7901 17.2229 25.7901 17.2072C25.7901 17.1888 25.778 17.1809 25.7396 17.1745C25.7012 17.168 25.689 17.1601 25.689 17.1417C25.689 17.126 25.6802 17.1176 25.6637 17.1176C25.6497 17.1176 25.6384 17.1091 25.6384 17.0986C25.6384 17.0881 25.6272 17.0796 25.6131 17.0796C25.5967 17.0796 25.5879 17.0712 25.5879 17.0555C25.5879 17.0371 25.5757 17.0292 25.5373 17.0228C25.4989 17.0163 25.4867 17.0084 25.4867 16.99C25.4867 16.9743 25.4779 16.9659 25.4614 16.9659C25.4474 16.9659 25.4362 16.9574 25.4362 16.9469C25.4362 16.9364 25.4249 16.9279 25.4109 16.9279C25.3944 16.9279 25.3856 16.9195 25.3856 16.9038C25.3856 16.8854 25.3734 16.8775 25.335 16.871C25.3039 16.8658 25.2845 16.8556 25.2845 16.8447C25.2845 16.8348 25.2731 16.8268 25.2592 16.8268C25.2423 16.8268 25.2339 16.8184 25.2339 16.8015C25.2339 16.7847 25.2254 16.7762 25.2086 16.7762C25.1921 16.7762 25.1833 16.7678 25.1833 16.7521C25.1833 16.7337 25.1711 16.7258 25.1327 16.7193C25.1017 16.7141 25.0822 16.7039 25.0822 16.6929C25.0822 16.6831 25.0708 16.6751 25.0569 16.6751C25.0404 16.6751 25.0316 16.6667 25.0316 16.6509C25.0316 16.6326 25.0194 16.6247 24.981 16.6182C24.9427 16.6117 24.9305 16.6038 24.9305 16.5855C24.9305 16.5697 24.9217 16.5613 24.9052 16.5613C24.8911 16.5613 24.8799 16.5529 24.8799 16.5424C24.8799 16.5318 24.8687 16.5234 24.8546 16.5234C24.8381 16.5234 24.8293 16.515 24.8293 16.4992C24.8293 16.4809 24.8171 16.473 24.7788 16.4665C24.7477 16.4613 24.7282 16.4511 24.7282 16.4401C24.7282 16.4303 24.7168 16.4223 24.7029 16.4223C24.6861 16.4223 24.6776 16.4138 24.6776 16.397C24.6776 16.3801 24.6692 16.3717 24.6523 16.3717C24.6359 16.3717 24.6271 16.3632 24.6271 16.3475C24.6271 16.3292 24.6149 16.3213 24.5765 16.3148C24.5454 16.3095 24.5259 16.2994 24.5259 16.2884C24.5259 16.2786 24.5145 16.2705 24.5006 16.2705C24.4838 16.2705 24.4753 16.2621 24.4753 16.2453C24.4753 16.2284 24.4669 16.22 24.4501 16.22C24.4336 16.22 24.4248 16.2115 24.4248 16.1958C24.4248 16.1774 24.4126 16.1696 24.3742 16.1631C24.3431 16.1578 24.3236 16.1477 24.3236 16.1367C24.3236 16.1269 24.3123 16.1188 24.2984 16.1188C24.2819 16.1188 24.2731 16.1104 24.2731 16.0947C24.2731 16.0763 24.2609 16.0684 24.2225 16.0619C24.1841 16.0555 24.1719 16.0476 24.1719 16.0292C24.1719 16.0135 24.1631 16.0051 24.1467 16.0051C24.1326 16.0051 24.1214 15.9966 24.1214 15.9861C24.1214 15.9756 24.1101 15.9671 24.0961 15.9671C24.0796 15.9671 24.0708 15.9587 24.0708 15.943C24.0708 15.9246 24.0586 15.9167 24.0202 15.9102C23.9891 15.905 23.9697 15.8948 23.9697 15.8838C23.9697 15.874 23.9583 15.866 23.9444 15.866C23.9275 15.866 23.9191 15.8576 23.9191 15.8407C23.9191 15.8239 23.9107 15.8154 23.8938 15.8154C23.8773 15.8154 23.8685 15.807 23.8685 15.7913C23.8685 15.7729 23.8563 15.765 23.818 15.7585C23.7869 15.7533 23.7674 15.7431 23.7674 15.7321C23.7674 15.7223 23.756 15.7143 23.7421 15.7143C23.7252 15.7143 23.7168 15.7059 23.7168 15.689C23.7168 15.6721 23.7084 15.6637 23.6915 15.6637C23.6751 15.6637 23.6662 15.6553 23.6662 15.6395C23.6662 15.6212 23.6541 15.6133 23.6157 15.6068C23.5846 15.6016 23.5651 15.5914 23.5651 15.5804C23.5651 15.5706 23.5537 15.5626 23.5398 15.5626C23.523 15.5626 23.5145 15.5541 23.5145 15.5373C23.5145 15.5204 23.5061 15.512 23.4893 15.512C23.4724 15.512 23.464 15.5036 23.464 15.4867C23.464 15.4657 23.4555 15.4614 23.4134 15.4614C23.3713 15.4614 23.3628 15.4572 23.3628 15.4362C23.3628 15.4193 23.3544 15.4109 23.3375 15.4109C23.3211 15.4109 23.3123 15.4024 23.3123 15.3867C23.3123 15.3683 23.3001 15.3605 23.2617 15.354C23.2306 15.3487 23.2111 15.3386 23.2111 15.3276C23.2111 15.3178 23.1997 15.3097 23.1858 15.3097C23.169 15.3097 23.1606 15.3013 23.1606 15.2845C23.1606 15.2676 23.1521 15.2592 23.1353 15.2592C23.1188 15.2592 23.11 15.2507 23.11 15.235C23.11 15.2166 23.0978 15.2088 23.0594 15.2023C23.0283 15.197 23.0088 15.1869 23.0088 15.1759C23.0088 15.1661 22.9975 15.158 22.9836 15.158C22.9667 15.158 22.9583 15.1496 22.9583 15.1327C22.9583 15.1159 22.9498 15.1075 22.933 15.1075C22.9165 15.1075 22.9077 15.099 22.9077 15.0833C22.9077 15.0649 22.8955 15.0571 22.8571 15.0506C22.8261 15.0453 22.8066 15.0351 22.8066 15.0242C22.8066 15.0143 22.7952 15.0063 22.7813 15.0063C22.7644 15.0063 22.756 14.9979 22.756 14.981C22.756 14.9642 22.7476 14.9558 22.7307 14.9558C22.7139 14.9558 22.7054 14.9473 22.7054 14.9305C22.7054 14.9094 22.697 14.9052 22.6549 14.9052C22.6127 14.9052 22.6043 14.901 22.6043 14.8799C22.6043 14.863 22.5959 14.8546 22.579 14.8546C22.5625 14.8546 22.5537 14.8462 22.5537 14.8304C22.5537 14.8121 22.5415 14.8042 22.5032 14.7977C22.4721 14.7925 22.4526 14.7823 22.4526 14.7713C22.4526 14.7615 22.4412 14.7535 22.4273 14.7535C22.4105 14.7535 22.402 14.745 22.402 14.7282C22.402 14.7113 22.3936 14.7029 22.3767 14.7029C22.3603 14.7029 22.3515 14.6945 22.3515 14.6787C22.3515 14.6604 22.3393 14.6525 22.3009 14.646C22.2698 14.6408 22.2503 14.6306 22.2503 14.6196C22.2503 14.6098 22.2389 14.6018 22.225 14.6018C22.2082 14.6018 22.1997 14.5933 22.1997 14.5765C22.1997 14.5596 22.1913 14.5512 22.1745 14.5512C22.1495 14.5512 22.1492 14.5596 22.1492 15.1327C22.1492 15.7059 22.1488 15.7143 22.1239 15.7143C22.107 15.7143 22.0986 15.7227 22.0986 15.7396C22.0986 15.7564 22.0902 15.7649 22.0733 15.7649C22.0565 15.7649 22.048 15.7733 22.048 15.7901C22.048 15.8153 22.0396 15.8154 20.1517 15.8154H18.2554V15.7332C18.2554 15.6595 18.258 15.6511 18.2807 15.6511C18.3011 15.6511 18.3059 15.6426 18.3059 15.6068C18.3059 15.571 18.3108 15.5626 18.3312 15.5626C18.3498 15.5626 18.3565 15.5541 18.3565 15.531C18.3565 15.5078 18.3632 15.4994 18.3818 15.4994C18.3986 15.4994 18.4071 15.4909 18.4071 15.4741C18.4071 15.4572 18.4155 15.4488 18.4324 15.4488C18.4534 15.4488 18.4576 15.4404 18.4576 15.3982C18.4576 15.3561 18.4619 15.3477 18.4829 15.3477C18.4998 15.3477 18.5082 15.3392 18.5082 15.3224C18.5082 15.3055 18.5167 15.2971 18.5335 15.2971C18.554 15.2971 18.5588 15.2887 18.5588 15.2528C18.5588 15.217 18.5636 15.2086 18.5841 15.2086C18.6026 15.2086 18.6094 15.2002 18.6094 15.177C18.6094 15.1538 18.6161 15.1454 18.6346 15.1454C18.6551 15.1454 18.6599 15.137 18.6599 15.1011C18.6599 15.0653 18.6647 15.0569 18.6852 15.0569C18.7038 15.0569 18.7105 15.0485 18.7105 15.0253C18.7105 15.0021 18.7172 14.9937 18.7358 14.9937C18.7569 14.9937 18.7611 14.9852 18.7611 14.9431C18.7611 14.901 18.7653 14.8925 18.7863 14.8925C18.8032 14.8925 18.8116 14.8841 18.8116 14.8673C18.8116 14.8504 18.8201 14.842 18.8369 14.842C18.858 14.842 18.8622 14.8335 18.8622 14.7914C18.8622 14.7493 18.8664 14.7408 18.8875 14.7408C18.9086 14.7408 18.9128 14.7324 18.9128 14.6903C18.9128 14.6481 18.917 14.6397 18.9381 14.6397C18.9585 14.6397 18.9633 14.6313 18.9633 14.5954C18.9633 14.5596 18.9682 14.5512 18.9886 14.5512C19.0072 14.5512 19.0139 14.5428 19.0139 14.5196C19.0139 14.4964 19.0206 14.488 19.0392 14.488C19.0603 14.488 19.0645 14.4796 19.0645 14.4374C19.0645 14.3953 19.0687 14.3869 19.0898 14.3869C19.1108 14.3869 19.115 14.3784 19.115 14.3363C19.115 14.2941 19.1193 14.2857 19.1403 14.2857C19.1614 14.2857 19.1656 14.2773 19.1656 14.2351C19.1656 14.193 19.1698 14.1846 19.1909 14.1846C19.212 14.1846 19.2162 14.1761 19.2162 14.134C19.2162 14.0919 19.2204 14.0834 19.2415 14.0834C19.2637 14.0834 19.2668 14.075 19.2668 14.0139C19.2668 13.9528 19.2698 13.9444 19.292 13.9444C19.3131 13.9444 19.3173 13.9359 19.3173 13.8938C19.3173 13.8517 19.3215 13.8432 19.3426 13.8432C19.3641 13.8432 19.3679 13.8348 19.3679 13.7863C19.3679 13.7379 19.3716 13.7295 19.3932 13.7295C19.4154 13.7295 19.4185 13.721 19.4185 13.6599C19.4185 13.5988 19.4215 13.5904 19.4437 13.5904C19.4653 13.5904 19.469 13.582 19.469 13.5335C19.469 13.485 19.4728 13.4766 19.4943 13.4766C19.5165 13.4766 19.5196 13.4682 19.5196 13.4071C19.5196 13.346 19.5227 13.3375 19.5449 13.3375C19.5674 13.3375 19.5702 13.3291 19.5702 13.2617C19.5702 13.1943 19.573 13.1858 19.5954 13.1858C19.6179 13.1858 19.6207 13.1774 19.6207 13.11C19.6207 13.0426 19.6235 13.0341 19.646 13.0341C19.6687 13.0341 19.6713 13.0257 19.6713 12.952C19.6713 12.8782 19.6739 12.8698 19.6966 12.8698C19.7196 12.8698 19.7219 12.8614 19.7219 12.775C19.7219 12.6886 19.7241 12.6802 19.7472 12.6802C19.7703 12.6802 19.7724 12.6717 19.7724 12.579C19.7724 12.4863 19.7746 12.4779 19.7977 12.4779C19.8213 12.4779 19.823 12.4694 19.823 12.3515C19.823 12.2335 19.8247 12.225 19.8483 12.225C19.8722 12.225 19.8736 12.2166 19.8736 12.0733C19.8736 11.9301 19.875 11.9216 19.8989 11.9216C19.9231 11.9216 19.9241 11.9132 19.9241 11.7193C19.9241 11.5255 19.9252 11.5171 19.9494 11.5171C19.9744 11.5171 19.9747 11.5086 19.9747 10.8091C19.9747 10.1096 19.9744 10.1011 19.9494 10.1011C19.9251 10.1011 19.9241 10.0927 19.9241 9.87358C19.9241 9.65445 19.9232 9.64602 19.8989 9.64602C19.875 9.64602 19.8736 9.63759 19.8736 9.49431C19.8736 9.35104 19.8722 9.3426 19.8483 9.3426C19.8244 9.3426 19.823 9.33417 19.823 9.1909C19.823 9.04762 19.8216 9.03919 19.7977 9.03919C19.7746 9.03919 19.7724 9.03076 19.7724 8.93805C19.7724 8.84535 19.7703 8.83692 19.7472 8.83692C19.724 8.83692 19.7219 8.82848 19.7219 8.73578C19.7219 8.64307 19.7198 8.63464 19.6966 8.63464C19.6736 8.63464 19.6713 8.62621 19.6713 8.53982C19.6713 8.45344 19.6691 8.44501 19.646 8.44501C19.6233 8.44501 19.6207 8.43657 19.6207 8.36283C19.6207 8.28909 19.6181 8.28066 19.5954 8.28066C19.573 8.28066 19.5702 8.27223 19.5702 8.2048C19.5702 8.13738 19.5674 8.12895 19.5449 8.12895C19.5224 8.12895 19.5196 8.12052 19.5196 8.0531C19.5196 7.98568 19.5168 7.97724 19.4943 7.97724C19.4721 7.97724 19.469 7.96881 19.469 7.90771C19.469 7.84661 19.466 7.83818 19.4437 7.83818C19.4222 7.83818 19.4185 7.82975 19.4185 7.78129C19.4185 7.73283 19.4147 7.7244 19.3932 7.7244C19.3709 7.7244 19.3679 7.71597 19.3679 7.65487C19.3679 7.59377 19.3648 7.58534 19.3426 7.58534C19.3211 7.58534 19.3173 7.5769 19.3173 7.52845C19.3173 7.47999 19.3136 7.47156 19.292 7.47156C19.271 7.47156 19.2668 7.46312 19.2668 7.42099C19.2668 7.37885 19.2625 7.37042 19.2415 7.37042C19.2204 7.37042 19.2162 7.36198 19.2162 7.31985C19.2162 7.27771 19.212 7.26928 19.1909 7.26928C19.1698 7.26928 19.1656 7.26085 19.1656 7.21871C19.1656 7.17657 19.1614 7.16814 19.1403 7.16814C19.1193 7.16814 19.115 7.15971 19.115 7.11757C19.115 7.07544 19.1108 7.067 19.0898 7.067C19.0687 7.067 19.0645 7.05857 19.0645 7.01644C19.0645 6.9743 19.0603 6.96587 19.0392 6.96587C19.0181 6.96587 19.0139 6.95743 19.0139 6.9153C19.0139 6.87316 19.0097 6.86473 18.9886 6.86473C18.9682 6.86473 18.9633 6.8563 18.9633 6.82048C18.9633 6.78467 18.9585 6.77623 18.9381 6.77623C18.917 6.77623 18.9128 6.7678 18.9128 6.72566C18.9128 6.68353 18.9086 6.67509 18.8875 6.67509C18.8689 6.67509 18.8622 6.66666 18.8622 6.64349C18.8622 6.62032 18.8555 6.61188 18.8369 6.61188C18.8164 6.61188 18.8116 6.60345 18.8116 6.56764C18.8116 6.53182 18.8068 6.52339 18.7863 6.52339C18.7653 6.52339 18.7611 6.51496 18.7611 6.47282C18.7611 6.43068 18.7569 6.42225 18.7358 6.42225C18.7172 6.42225 18.7105 6.41382 18.7105 6.39064C18.7105 6.36747 18.7038 6.35904 18.6852 6.35904C18.6647 6.35904 18.6599 6.35061 18.6599 6.31479C18.6599 6.27898 18.6551 6.27054 18.6346 6.27054C18.6161 6.27054 18.6094 6.26211 18.6094 6.23894C18.6094 6.21576 18.6026 6.20733 18.5841 6.20733C18.5636 6.20733 18.5588 6.1989 18.5588 6.16308C18.5588 6.12727 18.554 6.11884 18.5335 6.11884C18.5167 6.11884 18.5082 6.1104 18.5082 6.09355C18.5082 6.0767 18.4998 6.06827 18.4829 6.06827C18.4644 6.06827 18.4576 6.05984 18.4576 6.03666C18.4576 6.01349 18.4509 6.00506 18.4324 6.00506C18.4119 6.00506 18.4071 5.99662 18.4071 5.96081C18.4071 5.92499 18.4023 5.91656 18.3818 5.91656C18.3649 5.91656 18.3565 5.90813 18.3565 5.89128C18.3565 5.87442 18.3481 5.86599 18.3312 5.86599C18.3127 5.86599 18.3059 5.85756 18.3059 5.83439C18.3059 5.81121 18.2992 5.80278 18.2807 5.80278C18.2602 5.80278 18.2554 5.79435 18.2554 5.75853C18.2554 5.72272 18.2506 5.71429 18.2301 5.71429C18.2132 5.71429 18.2048 5.70585 18.2048 5.689C18.2048 5.67215 18.1964 5.66372 18.1795 5.66372C18.1627 5.66372 18.1542 5.65528 18.1542 5.63843C18.1542 5.62158 18.1458 5.61315 18.129 5.61315C18.1121 5.61315 18.1037 5.60472 18.1037 5.58786C18.1037 5.57101 18.0952 5.56258 18.0784 5.56258C18.0598 5.56258 18.0531 5.55415 18.0531 5.53097C18.0531 5.5078 18.0464 5.49937 18.0278 5.49937C18.011 5.49937 18.0025 5.49094 18.0025 5.47408C18.0025 5.45723 17.9941 5.4488 17.9772 5.4488C17.9568 5.4488 17.952 5.44037 17.952 5.40455C17.952 5.36874 17.9471 5.3603 17.9267 5.3603C17.9098 5.3603 17.9014 5.35187 17.9014 5.33502C17.9014 5.31817 17.893 5.30973 17.8761 5.30973C17.8593 5.30973 17.8508 5.3013 17.8508 5.28445C17.8508 5.2676 17.8424 5.25917 17.8255 5.25917C17.8087 5.25917 17.8003 5.25073 17.8003 5.23388C17.8003 5.21703 17.7918 5.2086 17.775 5.2086C17.7581 5.2086 17.7497 5.20016 17.7497 5.18331C17.7497 5.16646 17.7413 5.15803 17.7244 5.15803C17.7075 5.15803 17.6991 5.1496 17.6991 5.13274C17.6991 5.11589 17.6907 5.10746 17.6738 5.10746C17.657 5.10746 17.6485 5.09903 17.6485 5.08217C17.6485 5.06532 17.6401 5.05689 17.6233 5.05689C17.6064 5.05689 17.598 5.04846 17.598 5.03161C17.598 5.01475 17.5895 5.00632 17.5727 5.00632C17.5558 5.00632 17.5474 4.99789 17.5474 4.98104C17.5474 4.96418 17.539 4.95575 17.5221 4.95575C17.5053 4.95575 17.4968 4.94732 17.4968 4.93047C17.4968 4.91362 17.4884 4.90518 17.4716 4.90518C17.4547 4.90518 17.4463 4.89675 17.4463 4.8799C17.4463 4.86305 17.4378 4.85461 17.421 4.85461C17.4041 4.85461 17.3957 4.84618 17.3957 4.82933C17.3957 4.81248 17.3873 4.80405 17.3704 4.80405C17.3539 4.80405 17.3451 4.79561 17.3451 4.77987C17.3451 4.76152 17.3329 4.75364 17.2946 4.74716C17.2635 4.74191 17.244 4.73173 17.244 4.72076C17.244 4.71094 17.2326 4.70291 17.2187 4.70291C17.2019 4.70291 17.1934 4.69448 17.1934 4.67762C17.1934 4.66077 17.185 4.65234 17.1681 4.65234C17.1513 4.65234 17.1429 4.64391 17.1429 4.62705C17.1429 4.6102 17.1344 4.60177 17.1176 4.60177C17.1007 4.60177 17.0923 4.59334 17.0923 4.57649C17.0923 4.55963 17.0839 4.5512 17.067 4.5512C17.0505 4.5512 17.0417 4.54277 17.0417 4.52703C17.0417 4.50867 17.0295 4.5008 16.9912 4.49431C16.9601 4.48906 16.9406 4.47889 16.9406 4.46791C16.9406 4.45809 16.9292 4.45006 16.9153 4.45006C16.8984 4.45006 16.89 4.44163 16.89 4.42478C16.89 4.40793 16.8816 4.39949 16.8647 4.39949C16.8483 4.39949 16.8394 4.39106 16.8394 4.37532C16.8394 4.35697 16.8273 4.34909 16.7889 4.3426C16.7578 4.33736 16.7383 4.32718 16.7383 4.31621C16.7383 4.30638 16.7269 4.29836 16.713 4.29836C16.6962 4.29836 16.6877 4.28992 16.6877 4.27307C16.6877 4.25622 16.6793 4.24779 16.6625 4.24779C16.6456 4.24779 16.6372 4.23936 16.6372 4.2225C16.6372 4.20143 16.6287 4.19722 16.5866 4.19722C16.5445 4.19722 16.536 4.19301 16.536 4.17193C16.536 4.15508 16.5276 4.14665 16.5107 4.14665C16.4939 4.14665 16.4855 4.13822 16.4855 4.12137C16.4855 4.10029 16.477 4.09608 16.4349 4.09608C16.3928 4.09608 16.3843 4.09187 16.3843 4.0708C16.3843 4.05394 16.3759 4.04551 16.359 4.04551C16.3422 4.04551 16.3338 4.03708 16.3338 4.02023C16.3338 3.99915 16.3253 3.99494 16.2832 3.99494C16.241 3.99494 16.2326 3.99073 16.2326 3.96966C16.2326 3.95281 16.2242 3.94437 16.2073 3.94437C16.1905 3.94437 16.182 3.93594 16.182 3.91909C16.182 3.89802 16.1736 3.89381 16.1315 3.89381C16.0893 3.89381 16.0809 3.8896 16.0809 3.86852C16.0809 3.84745 16.0725 3.84324 16.0303 3.84324C15.989 3.84324 15.9798 3.83884 15.9798 3.81906C15.9798 3.80071 15.9676 3.79283 15.9292 3.78635C15.8981 3.7811 15.8786 3.77092 15.8786 3.75995C15.8786 3.75013 15.8673 3.7421 15.8534 3.7421C15.8365 3.7421 15.8281 3.73367 15.8281 3.71681C15.8281 3.69574 15.8196 3.69153 15.7775 3.69153C15.7354 3.69153 15.7269 3.68732 15.7269 3.66625C15.7269 3.64517 15.7185 3.64096 15.6764 3.64096C15.6342 3.64096 15.6258 3.63675 15.6258 3.61568C15.6258 3.5946 15.6174 3.59039 15.5752 3.59039C15.5331 3.59039 15.5247 3.58618 15.5247 3.56511C15.5247 3.54403 15.5162 3.53982 15.4741 3.53982C15.4319 3.53982 15.4235 3.53561 15.4235 3.51454C15.4235 3.49512 15.4151 3.48925 15.3872 3.48925C15.3244 3.48925 15.2718 3.47413 15.2718 3.45607C15.2718 3.44422 15.2557 3.43869 15.2212 3.43869C15.1791 3.43869 15.1707 3.43448 15.1707 3.4134C15.1707 3.39233 15.1622 3.38812 15.1201 3.38812C15.078 3.38812 15.0695 3.38391 15.0695 3.36283C15.0695 3.34341 15.0611 3.33755 15.0332 3.33755C14.9704 3.33755 14.9178 3.32243 14.9178 3.30436C14.9178 3.29252 14.9017 3.28698 14.8673 3.28698C14.8251 3.28698 14.8167 3.28277 14.8167 3.26169C14.8167 3.23922 14.8083 3.23641 14.7408 3.23641C14.6734 3.23641 14.665 3.2336 14.665 3.21113C14.665 3.18865 14.6565 3.18584 14.5891 3.18584C14.5217 3.18584 14.5133 3.18303 14.5133 3.16056C14.5133 3.13808 14.5048 3.13527 14.4374 3.13527C14.37 3.13527 14.3616 3.13247 14.3616 3.10999C14.3616 3.08817 14.3531 3.0847 14.2999 3.0847C14.2135 3.0847 14.1593 3.07191 14.1593 3.05152C14.1593 3.0387 14.1394 3.03413 14.0834 3.03413C14.016 3.03413 14.0076 3.03133 14.0076 3.00885C14.0076 2.98568 13.9992 2.98357 13.9064 2.98357C13.8137 2.98357 13.8053 2.98145 13.8053 2.95828C13.8053 2.93468 13.7969 2.933 13.6789 2.933C13.5609 2.933 13.5525 2.93131 13.5525 2.90771C13.5525 2.88432 13.544 2.88243 13.4403 2.88243C13.3056 2.88243 13.2491 2.87262 13.2491 2.84924C13.2491 2.8354 13.216 2.83186 13.0863 2.83186C12.9026 2.83186 12.8445 2.82388 12.8445 2.79867C12.8445 2.7841 12.7096 2.78129 12.0101 2.78129C11.1842 2.78129 11.1757 2.78154 11.1757 2.80657C11.1757 2.83066 11.1673 2.83186 10.9987 2.83186C10.857 2.83186 10.8217 2.83532 10.8217 2.84924C10.8217 2.87262 10.7652 2.88243 10.6305 2.88243C10.5438 2.88243 10.5183 2.88637 10.5183 2.89981C10.5183 2.9219 10.4628 2.933 10.3524 2.933C10.2739 2.933 10.2655 2.93545 10.2655 2.95828C10.2655 2.98145 10.2571 2.98357 10.1643 2.98357C10.0716 2.98357 10.0632 2.98568 10.0632 3.00885C10.0632 3.03202 10.0548 3.03413 9.96207 3.03413C9.86937 3.03413 9.86094 3.03625 9.86094 3.05942C9.86094 3.0819 9.8525 3.0847 9.78508 3.0847C9.72915 3.0847 9.70923 3.08927 9.70923 3.10209C9.70923 3.12248 9.65502 3.13527 9.56858 3.13527C9.51539 3.13527 9.50695 3.13874 9.50695 3.16056C9.50695 3.18303 9.49852 3.18584 9.4311 3.18584C9.36368 3.18584 9.35525 3.18865 9.35525 3.21113C9.35525 3.2322 9.34681 3.23641 9.30468 3.23641C9.2702 3.23641 9.25411 3.24195 9.25411 3.25379C9.25411 3.27186 9.20153 3.28698 9.13875 3.28698C9.11083 3.28698 9.1024 3.29284 9.1024 3.31226C9.1024 3.33474 9.09397 3.33755 9.02655 3.33755C8.95913 3.33755 8.9507 3.34035 8.9507 3.36283C8.9507 3.38391 8.94226 3.38812 8.90013 3.38812C8.85799 3.38812 8.84956 3.39233 8.84956 3.4134C8.84956 3.43448 8.84113 3.43869 8.79899 3.43869C8.76451 3.43869 8.74842 3.44422 8.74842 3.45607C8.74842 3.47413 8.69584 3.48925 8.63306 3.48925C8.60515 3.48925 8.59671 3.49512 8.59671 3.51454C8.59671 3.53561 8.58828 3.53982 8.54614 3.53982C8.50401 3.53982 8.49558 3.54403 8.49558 3.56511C8.49558 3.58618 8.48714 3.59039 8.44501 3.59039C8.40287 3.59039 8.39444 3.5946 8.39444 3.61568C8.39444 3.63675 8.38601 3.64096 8.34387 3.64096C8.30173 3.64096 8.2933 3.64517 8.2933 3.66625C8.2933 3.68732 8.28487 3.69153 8.24273 3.69153C8.20059 3.69153 8.19216 3.69574 8.19216 3.71681C8.19216 3.73789 8.18373 3.7421 8.14159 3.7421C8.09946 3.7421 8.09102 3.74631 8.09102 3.76738C8.09102 3.78424 8.08259 3.79267 8.06574 3.79267C8.05183 3.79267 8.04046 3.8007 8.04046 3.81052C8.04046 3.82149 8.02097 3.83167 7.98989 3.83692C7.9515 3.8434 7.93932 3.85128 7.93932 3.86963C7.93932 3.88941 7.93011 3.89381 7.88875 3.89381C7.84661 3.89381 7.83818 3.89802 7.83818 3.91909C7.83818 3.93594 7.82975 3.94437 7.8129 3.94437C7.79899 3.94437 7.78761 3.9524 7.78761 3.96222C7.78761 3.9732 7.76813 3.98338 7.73704 3.98862C7.69866 3.99511 7.68647 4.00298 7.68647 4.02134C7.68647 4.04111 7.67727 4.04551 7.6359 4.04551C7.59377 4.04551 7.58534 4.04972 7.58534 4.0708C7.58534 4.08765 7.5769 4.09608 7.56005 4.09608C7.5432 4.09608 7.53477 4.10451 7.53477 4.12137C7.53477 4.14244 7.52633 4.14665 7.4842 4.14665C7.44206 4.14665 7.43363 4.15086 7.43363 4.17193C7.43363 4.18879 7.4252 4.19722 7.40834 4.19722C7.39149 4.19722 7.38306 4.20565 7.38306 4.2225C7.38306 4.23936 7.37463 4.24779 7.35778 4.24779C7.34387 4.24779 7.33249 4.25582 7.33249 4.26564C7.33249 4.27661 7.31301 4.28679 7.28192 4.29204C7.24354 4.29852 7.23135 4.3064 7.23135 4.32475C7.23135 4.34049 7.22254 4.34893 7.20607 4.34893C7.18922 4.34893 7.18078 4.35736 7.18078 4.37421C7.18078 4.39106 7.17235 4.39949 7.1555 4.39949C7.14159 4.39949 7.13022 4.40752 7.13022 4.41735C7.13022 4.42832 7.11073 4.4385 7.07965 4.44374C7.04126 4.45023 7.02908 4.4581 7.02908 4.47646C7.02908 4.4922 7.02027 4.50063 7.00379 4.50063C6.98694 4.50063 6.97851 4.50906 6.97851 4.52592C6.97851 4.54277 6.97008 4.5512 6.95322 4.5512C6.93637 4.5512 6.92794 4.55963 6.92794 4.57649C6.92794 4.59334 6.91951 4.60177 6.90265 4.60177C6.88875 4.60177 6.87737 4.6098 6.87737 4.61962C6.87737 4.63059 6.85789 4.64077 6.8268 4.64602C6.78842 4.6525 6.77623 4.66038 6.77623 4.67874C6.77623 4.69448 6.76742 4.70291 6.75095 4.70291C6.7341 4.70291 6.72566 4.71134 6.72566 4.72819C6.72566 4.74504 6.71723 4.75348 6.70038 4.75348C6.68353 4.75348 6.67509 4.76191 6.67509 4.77876C6.67509 4.79561 6.66666 4.80405 6.64981 4.80405C6.63296 4.80405 6.62453 4.81248 6.62453 4.82933C6.62453 4.84618 6.61609 4.85461 6.59924 4.85461C6.58239 4.85461 6.57396 4.86305 6.57396 4.8799C6.57396 4.89675 6.56552 4.90518 6.54867 4.90518C6.53182 4.90518 6.52339 4.91362 6.52339 4.93047C6.52339 4.94732 6.51496 4.95575 6.4981 4.95575C6.48125 4.95575 6.47282 4.96418 6.47282 4.98104C6.47282 4.99789 6.46439 5.00632 6.44753 5.00632C6.43068 5.00632 6.42225 5.01475 6.42225 5.03161C6.42225 5.04846 6.41382 5.05689 6.39697 5.05689C6.38011 5.05689 6.37168 5.06532 6.37168 5.08217C6.37168 5.09903 6.36325 5.10746 6.3464 5.10746C6.32954 5.10746 6.32111 5.11589 6.32111 5.13274C6.32111 5.1496 6.31268 5.15803 6.29583 5.15803C6.27898 5.15803 6.27054 5.16646 6.27054 5.18331C6.27054 5.20016 6.26211 5.2086 6.24526 5.2086C6.22841 5.2086 6.21997 5.21703 6.21997 5.23388C6.21997 5.25073 6.21154 5.25917 6.19469 5.25917C6.17784 5.25917 6.16941 5.2676 6.16941 5.28445C6.16941 5.3013 6.16097 5.30973 6.14412 5.30973C6.12727 5.30973 6.11884 5.31817 6.11884 5.33502C6.11884 5.35187 6.1104 5.3603 6.09355 5.3603C6.0767 5.3603 6.06827 5.36874 6.06827 5.38559C6.06827 5.40244 6.05984 5.41087 6.04298 5.41087C6.02252 5.41087 6.0177 5.4193 6.0177 5.45512C6.0177 5.49094 6.01288 5.49937 5.99241 5.49937C5.97556 5.49937 5.96713 5.5078 5.96713 5.52465C5.96713 5.5415 5.9587 5.54994 5.94185 5.54994C5.9233 5.54994 5.91656 5.55837 5.91656 5.58154C5.91656 5.60472 5.90982 5.61315 5.89128 5.61315C5.87442 5.61315 5.86599 5.62158 5.86599 5.63843C5.86599 5.65528 5.85756 5.66372 5.84071 5.66372C5.82386 5.66372 5.81542 5.67215 5.81542 5.689C5.81542 5.70585 5.80699 5.71429 5.79014 5.71429C5.76967 5.71429 5.76485 5.72272 5.76485 5.75853C5.76485 5.79435 5.76004 5.80278 5.73957 5.80278C5.72102 5.80278 5.71429 5.81121 5.71429 5.83439C5.71429 5.85756 5.70755 5.86599 5.689 5.86599C5.67215 5.86599 5.66372 5.87442 5.66372 5.89128C5.66372 5.90813 5.65528 5.91656 5.63843 5.91656C5.61796 5.91656 5.61315 5.92499 5.61315 5.96081C5.61315 5.99662 5.60833 6.00506 5.58786 6.00506C5.56932 6.00506 5.56258 6.01349 5.56258 6.03666C5.56258 6.05984 5.55584 6.06827 5.53729 6.06827C5.52044 6.06827 5.51201 6.0767 5.51201 6.09355C5.51201 6.1104 5.50358 6.11884 5.48673 6.11884C5.46626 6.11884 5.46144 6.12727 5.46144 6.16308C5.46144 6.1989 5.45662 6.20733 5.43616 6.20733C5.41761 6.20733 5.41087 6.21576 5.41087 6.23894C5.41087 6.26211 5.40413 6.27054 5.38559 6.27054C5.36451 6.27054 5.3603 6.27898 5.3603 6.32111C5.3603 6.36325 5.35609 6.37168 5.33502 6.37168C5.31817 6.37168 5.30973 6.38011 5.30973 6.39697C5.30973 6.41382 5.3013 6.42225 5.28445 6.42225C5.26338 6.42225 5.25917 6.43068 5.25917 6.47282C5.25917 6.51496 5.25496 6.52339 5.23388 6.52339C5.21341 6.52339 5.2086 6.53182 5.2086 6.56764C5.2086 6.60345 5.20378 6.61188 5.18331 6.61188C5.16477 6.61188 5.15803 6.62032 5.15803 6.64349C5.15803 6.66666 5.15129 6.67509 5.13274 6.67509C5.11167 6.67509 5.10746 6.68353 5.10746 6.72566C5.10746 6.7678 5.10325 6.77623 5.08217 6.77623C5.06171 6.77623 5.05689 6.78467 5.05689 6.82048C5.05689 6.8563 5.05207 6.86473 5.03161 6.86473C5.01053 6.86473 5.00632 6.87316 5.00632 6.9153C5.00632 6.95743 5.00211 6.96587 4.98104 6.96587C4.95996 6.96587 4.95575 6.9743 4.95575 7.01644C4.95575 7.05857 4.95154 7.067 4.93047 7.067C4.91192 7.067 4.90518 7.07544 4.90518 7.09861C4.90518 7.12178 4.89845 7.13022 4.8799 7.13022C4.85943 7.13022 4.85461 7.13865 4.85461 7.17446C4.85461 7.21028 4.8498 7.21871 4.82933 7.21871C4.81078 7.21871 4.80405 7.22714 4.80405 7.25032C4.80405 7.27349 4.79731 7.28192 4.77876 7.28192C4.76485 7.28192 4.75348 7.28975 4.75348 7.2993C4.75348 7.32197 4.69752 7.33249 4.57685 7.33249C4.40167 7.33249 4.24779 7.31745 4.24779 7.3003C4.24779 7.28978 4.21417 7.28158 4.14665 7.2756C4.07281 7.26906 4.04551 7.26188 4.04551 7.249C4.04551 7.23799 4.03185 7.23135 4.00917 7.23135C3.94827 7.23135 3.89381 7.21644 3.89381 7.19975C3.89381 7.18306 3.83934 7.16814 3.77845 7.16814C3.75558 7.16814 3.7421 7.16153 3.7421 7.15029C3.7421 7.13932 3.72262 7.12914 3.69153 7.12389C3.66229 7.11895 3.64096 7.10829 3.64096 7.09861C3.64096 7.08893 3.61963 7.07827 3.59039 7.07333C3.56115 7.06838 3.53982 7.05772 3.53982 7.04804C3.53982 7.03836 3.5185 7.0277 3.48925 7.02276C3.46001 7.01781 3.43869 7.00716 3.43869 6.99747C3.43869 6.98779 3.41736 6.97713 3.38812 6.97219C3.34973 6.9657 3.33755 6.95783 3.33755 6.93947C3.33755 6.92373 3.32874 6.9153 3.31226 6.9153C3.29836 6.9153 3.28698 6.90727 3.28698 6.89745C3.28698 6.88647 3.2675 6.8763 3.23641 6.87105C3.19803 6.86456 3.18584 6.85669 3.18584 6.83833C3.18584 6.82259 3.17703 6.81416 3.16056 6.81416C3.14651 6.81416 3.13527 6.80573 3.13527 6.7952C3.13527 6.78467 3.12403 6.77623 3.10999 6.77623C3.09351 6.77623 3.0847 6.7678 3.0847 6.75206C3.0847 6.7337 3.07252 6.72583 3.03413 6.71934C2.99575 6.71286 2.98357 6.70498 2.98357 6.68662C2.98357 6.67088 2.97475 6.66245 2.95828 6.66245C2.94143 6.66245 2.933 6.65402 2.933 6.63717C2.933 6.62032 2.92456 6.61188 2.90771 6.61188C2.89086 6.61188 2.88243 6.60345 2.88243 6.5866C2.88243 6.56975 2.87399 6.56131 2.85714 6.56131C2.84029 6.56131 2.83186 6.55288 2.83186 6.53603C2.83186 6.51918 2.82343 6.51075 2.80657 6.51075C2.78972 6.51075 2.78129 6.50231 2.78129 6.48546C2.78129 6.46861 2.77286 6.46018 2.75601 6.46018C2.73915 6.46018 2.73072 6.45174 2.73072 6.43489C2.73072 6.41804 2.72229 6.40961 2.70544 6.40961C2.68858 6.40961 2.68015 6.40118 2.68015 6.38432C2.68015 6.36747 2.67172 6.35904 2.65487 6.35904C2.6344 6.35904 2.62958 6.35061 2.62958 6.31479C2.62958 6.27898 2.62477 6.27054 2.6043 6.27054C2.58745 6.27054 2.57901 6.26211 2.57901 6.24526C2.57901 6.22841 2.57058 6.21997 2.55373 6.21997C2.53518 6.21997 2.52845 6.21154 2.52845 6.18837C2.52845 6.1652 2.52171 6.15676 2.50316 6.15676C2.48631 6.15676 2.47788 6.14833 2.47788 6.13148C2.47788 6.11463 2.46944 6.10619 2.45259 6.10619C2.43212 6.10619 2.42731 6.09776 2.42731 6.06195C2.42731 6.02613 2.42249 6.0177 2.40202 6.0177C2.38095 6.0177 2.37674 6.00927 2.37674 5.96713C2.37674 5.92499 2.37253 5.91656 2.35145 5.91656C2.33291 5.91656 2.32617 5.90813 2.32617 5.88496C2.32617 5.86178 2.31943 5.85335 2.30088 5.85335C2.27981 5.85335 2.2756 5.84492 2.2756 5.80278C2.2756 5.76064 2.27139 5.75221 2.25032 5.75221C2.22924 5.75221 2.22503 5.74378 2.22503 5.70164C2.22503 5.65951 2.22082 5.65107 2.19975 5.65107C2.17867 5.65107 2.17446 5.64264 2.17446 5.60051C2.17446 5.55837 2.17025 5.54994 2.14918 5.54994C2.12695 5.54994 2.12389 5.5415 2.12389 5.4804C2.12389 5.4193 2.12083 5.41087 2.09861 5.41087C2.07592 5.41087 2.07332 5.40244 2.07332 5.3287C2.07332 5.25496 2.07073 5.24652 2.04804 5.24652C2.02487 5.24652 2.02276 5.23809 2.02276 5.14539C2.02276 5.05268 2.02064 5.04425 1.99747 5.04425C1.97327 5.04425 1.97219 5.03582 1.97219 4.84829C1.97219 4.66077 1.9711 4.65234 1.9469 4.65234C1.92302 4.65234 1.92162 4.64391 1.92162 4.50063C1.92162 4.35736 1.92302 4.34893 1.9469 4.34893C1.97116 4.34893 1.97219 4.34049 1.97219 4.14033C1.97219 3.94016 1.97321 3.93173 1.99747 3.93173C2.02064 3.93173 2.02276 3.9233 2.02276 3.83059C2.02276 3.73789 2.02487 3.72946 2.04804 3.72946C2.07107 3.72946 2.07332 3.72102 2.07332 3.63464C2.07332 3.54826 2.07558 3.53982 2.09861 3.53982C2.12015 3.53982 2.12389 3.53139 2.12389 3.48293C2.12389 3.43448 2.12764 3.42604 2.14918 3.42604C2.1714 3.42604 2.17446 3.41761 2.17446 3.35651C2.17446 3.29541 2.17752 3.28698 2.19975 3.28698C2.22082 3.28698 2.22503 3.27855 2.22503 3.23641C2.22503 3.19427 2.22924 3.18584 2.25032 3.18584C2.27139 3.18584 2.2756 3.17741 2.2756 3.13527C2.2756 3.09314 2.27981 3.0847 2.30088 3.0847C2.32196 3.0847 2.32617 3.07627 2.32617 3.03413C2.32617 2.992 2.33038 2.98357 2.35145 2.98357C2.37 2.98357 2.37674 2.97513 2.37674 2.95196C2.37674 2.92879 2.38348 2.92035 2.40202 2.92035C2.42249 2.92035 2.42731 2.91192 2.42731 2.87611C2.42731 2.84029 2.43212 2.83186 2.45259 2.83186C2.46944 2.83186 2.47788 2.82343 2.47788 2.80657C2.47788 2.78972 2.48631 2.78129 2.50316 2.78129C2.52171 2.78129 2.52845 2.77286 2.52845 2.74968C2.52845 2.72651 2.53518 2.71808 2.55373 2.71808C2.5742 2.71808 2.57901 2.70965 2.57901 2.67383C2.57901 2.63802 2.58383 2.62958 2.6043 2.62958C2.62115 2.62958 2.62958 2.62115 2.62958 2.6043C2.62958 2.58745 2.63802 2.57901 2.65487 2.57901C2.67172 2.57901 2.68015 2.57058 2.68015 2.55373C2.68015 2.53688 2.68858 2.52845 2.70544 2.52845C2.72229 2.52845 2.73072 2.52001 2.73072 2.50316C2.73072 2.48631 2.73915 2.47788 2.75601 2.47788C2.77286 2.47788 2.78129 2.46944 2.78129 2.45259C2.78129 2.43574 2.78972 2.42731 2.80657 2.42731C2.82343 2.42731 2.83186 2.41887 2.83186 2.40202C2.83186 2.38517 2.84029 2.37674 2.85714 2.37674C2.87399 2.37674 2.88243 2.36831 2.88243 2.35145C2.88243 2.3346 2.89086 2.32617 2.90771 2.32617C2.92456 2.32617 2.933 2.31774 2.933 2.30088C2.933 2.28403 2.94143 2.2756 2.95828 2.2756C2.97475 2.2756 2.98357 2.26717 2.98357 2.25143C2.98357 2.23307 2.99575 2.2252 3.03413 2.21871C3.07252 2.21223 3.0847 2.20435 3.0847 2.18599C3.0847 2.17025 3.09351 2.16182 3.10999 2.16182C3.12403 2.16182 3.13527 2.15339 3.13527 2.14286C3.13527 2.13233 3.14651 2.12389 3.16056 2.12389C3.17703 2.12389 3.18584 2.11546 3.18584 2.09972C3.18584 2.08137 3.19803 2.07349 3.23641 2.067C3.26565 2.06206 3.28698 2.0514 3.28698 2.04172C3.28698 2.03204 3.30831 2.02138 3.33755 2.01643C3.36863 2.01119 3.38812 2.00101 3.38812 1.99004C3.38812 1.98021 3.39949 1.97219 3.4134 1.97219C3.42987 1.97219 3.43869 1.96375 3.43869 1.94802C3.43869 1.92966 3.45087 1.92178 3.48925 1.9153C3.5185 1.91035 3.53982 1.8997 3.53982 1.89001C3.53982 1.88033 3.56115 1.86967 3.59039 1.86473C3.62148 1.85948 3.64096 1.8493 3.64096 1.83833C3.64096 1.82709 3.65444 1.82048 3.67731 1.82048C3.74009 1.82048 3.79267 1.80536 3.79267 1.78729C3.79267 1.77657 3.8066 1.76991 3.82901 1.76991C3.8918 1.76991 3.94437 1.75479 3.94437 1.73673C3.94437 1.72601 3.95831 1.71934 3.98072 1.71934C4.0435 1.71934 4.09608 1.70422 4.09608 1.68616C4.09608 1.6731 4.11767 1.66877 4.183 1.66877C4.29068 1.66877 4.34893 1.65776 4.34893 1.6374C4.34893 1.62578 4.414 1.62021 4.60493 1.6155C4.96556 1.60659 5.30973 1.61723 5.30973 1.63731C5.30973 1.65776 5.36784 1.66877 5.47566 1.66877C5.54099 1.66877 5.56258 1.6731 5.56258 1.68616C5.56258 1.70655 5.61679 1.71934 5.70322 1.71934C5.75642 1.71934 5.76485 1.72281 5.76485 1.74463C5.76485 1.7657 5.77329 1.76991 5.81542 1.76991C5.8499 1.76991 5.86599 1.77545 5.86599 1.78729C5.86599 1.80536 5.91857 1.82048 5.98135 1.82048C6.00422 1.82048 6.0177 1.82709 6.0177 1.83833C6.0177 1.8493 6.03718 1.85948 6.06827 1.86473C6.09936 1.86997 6.11884 1.88015 6.11884 1.89113C6.11884 1.90095 6.13022 1.90898 6.14412 1.90898C6.16059 1.90898 6.16941 1.91741 6.16941 1.93315C6.16941 1.9515 6.18159 1.95938 6.21997 1.96587C6.25106 1.97111 6.27054 1.98129 6.27054 1.99226C6.27054 2.00209 6.28192 2.01011 6.29583 2.01011C6.31268 2.01011 6.32111 2.01855 6.32111 2.0354C6.32111 2.05225 6.32954 2.06068 6.3464 2.06068C6.36494 2.06068 6.37168 2.06912 6.37168 2.09229C6.37168 2.11546 6.36494 2.12389 6.3464 2.12389C6.32593 2.12389 6.32111 2.13233 6.32111 2.16814C6.32111 2.20396 6.3163 2.21239 6.29583 2.21239C6.27728 2.21239 6.27054 2.22082 6.27054 2.24399C6.27054 2.26717 6.26381 2.2756 6.24526 2.2756C6.22841 2.2756 6.21997 2.28403 6.21997 2.30088C6.21997 2.31774 6.21154 2.32617 6.19469 2.32617C6.17784 2.32617 6.16941 2.3346 6.16941 2.35145C6.16941 2.36831 6.16097 2.37674 6.14412 2.37674C6.12365 2.37674 6.11884 2.38517 6.11884 2.42099C6.11884 2.4568 6.11402 2.46523 6.09355 2.46523C6.07501 2.46523 6.06827 2.47367 6.06827 2.49684C6.06827 2.52001 6.06153 2.52845 6.04298 2.52845C6.02613 2.52845 6.0177 2.53688 6.0177 2.55373C6.0177 2.57058 6.00927 2.57901 5.99241 2.57901C5.97851 2.57901 5.96713 2.5867 5.96713 2.59608C5.96713 2.61517 6.11479 2.62958 6.31042 2.62958C6.40139 2.62958 6.42225 2.63312 6.42225 2.64855C6.42225 2.66397 6.4431 2.66751 6.53399 2.66751C6.83697 2.66751 7.18078 2.68458 7.18078 2.69962C7.18078 2.71126 7.28022 2.71736 7.58534 2.7244C7.91646 2.73205 7.98989 2.7369 7.98989 2.75119C7.98989 2.76531 8.02856 2.76865 8.19216 2.76865C8.38601 2.76865 8.39444 2.7676 8.39444 2.74336C8.39444 2.72651 8.40287 2.71808 8.41972 2.71808C8.44276 2.71808 8.44501 2.70965 8.44501 2.62326C8.44501 2.53688 8.44276 2.52845 8.41972 2.52845C8.39655 2.52845 8.39444 2.52001 8.39444 2.42731C8.39444 2.3346 8.39233 2.32617 8.36915 2.32617C8.34585 2.32617 8.34387 2.31774 8.34387 2.21871C8.34387 2.11968 8.34188 2.11125 8.31858 2.11125C8.29507 2.11125 8.2933 2.10282 8.2933 1.99115C8.2933 1.87948 8.29153 1.87105 8.26802 1.87105C8.24484 1.87105 8.24273 1.86262 8.24273 1.76991C8.24273 1.67721 8.24062 1.66877 8.21745 1.66877C8.19427 1.66877 8.19216 1.66034 8.19216 1.56764C8.19216 1.47493 8.19005 1.4665 8.16688 1.4665C8.1437 1.4665 8.14159 1.45807 8.14159 1.36536C8.14159 1.27265 8.13948 1.26422 8.11631 1.26422C8.09314 1.26422 8.09102 1.25579 8.09102 1.16308C8.09102 1.07038 8.08891 1.06195 8.06574 1.06195C8.04257 1.06195 8.04046 1.05351 8.04046 0.960809C8.04046 0.868104 8.03834 0.859671 8.01517 0.859671C7.992 0.859671 7.98989 0.851239 7.98989 0.758534C7.98989 0.665828 7.98778 0.657396 7.9646 0.657396C7.94143 0.657396 7.93932 0.648963 7.93932 0.556258C7.93932 0.463552 7.93721 0.45512 7.91403 0.45512C7.89296 0.45512 7.88875 0.446688 7.88875 0.404551C7.88875 0.362415 7.88454 0.353982 7.86346 0.353982C7.84661 0.353982 7.83818 0.362415 7.83818 0.379267C7.83818 0.396119 7.82975 0.404551 7.8129 0.404551C7.79604 0.404551 7.78761 0.412984 7.78761 0.429836C7.78761 0.446688 7.77918 0.45512 7.76233 0.45512C7.74547 0.45512 7.73704 0.463552 7.73704 0.480405C7.73704 0.497257 7.72861 0.505689 7.71176 0.505689C7.69491 0.505689 7.68647 0.514121 7.68647 0.530973C7.68647 0.547826 7.67804 0.556258 7.66119 0.556258C7.64011 0.556258 7.6359 0.56469 7.6359 0.606827C7.6359 0.648963 7.63169 0.657396 7.61062 0.657396C7.59377 0.657396 7.58534 0.665828 7.58534 0.68268C7.58534 0.699532 7.5769 0.707965 7.56005 0.707965C7.5432 0.707965 7.53477 0.716397 7.53477 0.733249C7.53477 0.756637 7.52633 0.758534 7.42257 0.758534C7.28788 0.758534 7.23135 0.748723 7.23135 0.725348C7.23135 0.71579 7.21997 0.707965 7.20607 0.707965C7.18922 0.707965 7.18078 0.699532 7.18078 0.68268C7.18078 0.661606 7.17235 0.657396 7.13022 0.657396C7.08808 0.657396 7.07965 0.653186 7.07965 0.632111C7.07965 0.611037 7.07121 0.606827 7.02908 0.606827C6.98694 0.606827 6.97851 0.602617 6.97851 0.581542C6.97851 0.560468 6.97008 0.556258 6.92794 0.556258C6.8858 0.556258 6.87737 0.552048 6.87737 0.530973C6.87737 0.509899 6.86894 0.505689 6.8268 0.505689C6.78467 0.505689 6.77623 0.501479 6.77623 0.480405C6.77623 0.45933 6.7678 0.45512 6.72566 0.45512C6.68353 0.45512 6.67509 0.45091 6.67509 0.429836C6.67509 0.408761 6.66666 0.404551 6.62453 0.404551C6.58239 0.404551 6.57396 0.400341 6.57396 0.379267C6.57396 0.358192 6.56552 0.353982 6.52339 0.353982C6.48125 0.353982 6.47282 0.349772 6.47282 0.328698C6.47282 0.30622 6.46439 0.303413 6.39697 0.303413C6.32954 0.303413 6.32111 0.300607 6.32111 0.278129C6.32111 0.255651 6.31268 0.252845 6.24526 0.252845C6.17784 0.252845 6.16941 0.250038 6.16941 0.22756C6.16941 0.205082 6.16097 0.202276 6.09355 0.202276C6.02613 0.202276 6.0177 0.199469 6.0177 0.176991C6.0177 0.153818 6.00927 0.151707 5.91656 0.151707C5.82386 0.151707 5.81542 0.149595 5.81542 0.126422C5.81542 0.102819 5.80699 0.101138 5.689 0.101138C5.57101 0.101138 5.56258 0.0994564 5.56258 0.0758534C5.56258 0.0516182 5.55415 0.0505689 5.3603 0.0505689C5.16646 0.0505689 5.15803 0.0495196 5.15803 0.0252845C5.15803 0.000707965 5.1496 0 4.85461 0C4.55963 0 4.5512 0.000707965 4.5512 0.0252845Z" fill="white"/>
</svg>
