<svg width="33" height="21" viewBox="0 0 33 21" fill="none" xmlns="http://www.w3.org/2000/svg">
<path fill-rule="evenodd" clip-rule="evenodd" d="M9.84185 2.79524C7.64934 5.64724 6.98886 8.40724 8.98888 6.36024C10.9498 4.35324 15.1316 4.98524 17.5869 7.66024C19.3994 9.63524 20.8405 10.1602 24.4449 10.1602C29.0742 10.1602 31.2129 8.77524 32.5525 4.91024C33.295 2.76724 32.8231 2.72524 29.9173 4.67424C27.8079 6.08824 27.4161 5.98924 23.9544 3.17424C18.9363 -0.907761 12.814 -1.07276 9.84185 2.79524ZM1.95411 12.1602C0.879347 13.2602 0 14.8452 0 15.6832C0 17.0432 0.24524 17.0422 2.29119 15.6692C4.44461 14.2252 4.80612 14.3142 8.28834 17.1462C11.1296 19.4582 12.986 20.1602 16.2562 20.1602C20.819 20.1602 24.4263 17.6432 24.4263 14.4602C24.4263 13.1382 24.1654 13.0272 23.2538 13.9602C21.4121 15.8452 18.6099 15.3772 15.455 12.6602C11.7022 9.42924 4.86963 9.17624 1.95411 12.1602Z" fill="white"/>
<path fill-rule="evenodd" clip-rule="evenodd" d="M9.84185 2.79524C7.64934 5.64724 6.98886 8.40724 8.98888 6.36024C10.9498 4.35324 15.1316 4.98524 17.5869 7.66024C19.3994 9.63524 20.8405 10.1602 24.4449 10.1602C29.0742 10.1602 31.2129 8.77524 32.5525 4.91024C33.295 2.76724 32.8231 2.72524 29.9173 4.67424C27.8079 6.08824 27.4161 5.98924 23.9544 3.17424C18.9363 -0.907761 12.814 -1.07276 9.84185 2.79524ZM1.95411 12.1602C0.879347 13.2602 0 14.8452 0 15.6832C0 17.0432 0.24524 17.0422 2.29119 15.6692C4.44461 14.2252 4.80612 14.3142 8.28834 17.1462C11.1296 19.4582 12.986 20.1602 16.2562 20.1602C20.819 20.1602 24.4263 17.6432 24.4263 14.4602C24.4263 13.1382 24.1654 13.0272 23.2538 13.9602C21.4121 15.8452 18.6099 15.3772 15.455 12.6602C11.7022 9.42924 4.86963 9.17624 1.95411 12.1602Z" fill="white"/>
<path fill-rule="evenodd" clip-rule="evenodd" d="M9.84185 2.79524C7.64934 5.64724 6.98886 8.40724 8.98888 6.36024C10.9498 4.35324 15.1316 4.98524 17.5869 7.66024C19.3994 9.63524 20.8405 10.1602 24.4449 10.1602C29.0742 10.1602 31.2129 8.77524 32.5525 4.91024C33.295 2.76724 32.8231 2.72524 29.9173 4.67424C27.8079 6.08824 27.4161 5.98924 23.9544 3.17424C18.9363 -0.907761 12.814 -1.07276 9.84185 2.79524ZM1.95411 12.1602C0.879347 13.2602 0 14.8452 0 15.6832C0 17.0432 0.24524 17.0422 2.29119 15.6692C4.44461 14.2252 4.80612 14.3142 8.28834 17.1462C11.1296 19.4582 12.986 20.1602 16.2562 20.1602C20.819 20.1602 24.4263 17.6432 24.4263 14.4602C24.4263 13.1382 24.1654 13.0272 23.2538 13.9602C21.4121 15.8452 18.6099 15.3772 15.455 12.6602C11.7022 9.42924 4.86963 9.17624 1.95411 12.1602Z" fill="white"/>
<path fill-rule="evenodd" clip-rule="evenodd" d="M9.84185 2.79524C7.64934 5.64724 6.98886 8.40724 8.98888 6.36024C10.9498 4.35324 15.1316 4.98524 17.5869 7.66024C19.3994 9.63524 20.8405 10.1602 24.4449 10.1602C29.0742 10.1602 31.2129 8.77524 32.5525 4.91024C33.295 2.76724 32.8231 2.72524 29.9173 4.67424C27.8079 6.08824 27.4161 5.98924 23.9544 3.17424C18.9363 -0.907761 12.814 -1.07276 9.84185 2.79524ZM1.95411 12.1602C0.879347 13.2602 0 14.8452 0 15.6832C0 17.0432 0.24524 17.0422 2.29119 15.6692C4.44461 14.2252 4.80612 14.3142 8.28834 17.1462C11.1296 19.4582 12.986 20.1602 16.2562 20.1602C20.819 20.1602 24.4263 17.6432 24.4263 14.4602C24.4263 13.1382 24.1654 13.0272 23.2538 13.9602C21.4121 15.8452 18.6099 15.3772 15.455 12.6602C11.7022 9.42924 4.86963 9.17624 1.95411 12.1602Z" fill="white"/>
<path fill-rule="evenodd" clip-rule="evenodd" d="M9.84185 2.79524C7.64934 5.64724 6.98886 8.40724 8.98888 6.36024C10.9498 4.35324 15.1316 4.98524 17.5869 7.66024C19.3994 9.63524 20.8405 10.1602 24.4449 10.1602C29.0742 10.1602 31.2129 8.77524 32.5525 4.91024C33.295 2.76724 32.8231 2.72524 29.9173 4.67424C27.8079 6.08824 27.4161 5.98924 23.9544 3.17424C18.9363 -0.907761 12.814 -1.07276 9.84185 2.79524ZM1.95411 12.1602C0.879347 13.2602 0 14.8452 0 15.6832C0 17.0432 0.24524 17.0422 2.29119 15.6692C4.44461 14.2252 4.80612 14.3142 8.28834 17.1462C11.1296 19.4582 12.986 20.1602 16.2562 20.1602C20.819 20.1602 24.4263 17.6432 24.4263 14.4602C24.4263 13.1382 24.1654 13.0272 23.2538 13.9602C21.4121 15.8452 18.6099 15.3772 15.455 12.6602C11.7022 9.42924 4.86963 9.17624 1.95411 12.1602Z" fill="white"/>
<path fill-rule="evenodd" clip-rule="evenodd" d="M9.84185 2.79524C7.64934 5.64724 6.98886 8.40724 8.98888 6.36024C10.9498 4.35324 15.1316 4.98524 17.5869 7.66024C19.3994 9.63524 20.8405 10.1602 24.4449 10.1602C29.0742 10.1602 31.2129 8.77524 32.5525 4.91024C33.295 2.76724 32.8231 2.72524 29.9173 4.67424C27.8079 6.08824 27.4161 5.98924 23.9544 3.17424C18.9363 -0.907761 12.814 -1.07276 9.84185 2.79524ZM1.95411 12.1602C0.879347 13.2602 0 14.8452 0 15.6832C0 17.0432 0.24524 17.0422 2.29119 15.6692C4.44461 14.2252 4.80612 14.3142 8.28834 17.1462C11.1296 19.4582 12.986 20.1602 16.2562 20.1602C20.819 20.1602 24.4263 17.6432 24.4263 14.4602C24.4263 13.1382 24.1654 13.0272 23.2538 13.9602C21.4121 15.8452 18.6099 15.3772 15.455 12.6602C11.7022 9.42924 4.86963 9.17624 1.95411 12.1602Z" fill="white"/>
<path fill-rule="evenodd" clip-rule="evenodd" d="M9.84185 2.79524C7.64934 5.64724 6.98886 8.40724 8.98888 6.36024C10.9498 4.35324 15.1316 4.98524 17.5869 7.66024C19.3994 9.63524 20.8405 10.1602 24.4449 10.1602C29.0742 10.1602 31.2129 8.77524 32.5525 4.91024C33.295 2.76724 32.8231 2.72524 29.9173 4.67424C27.8079 6.08824 27.4161 5.98924 23.9544 3.17424C18.9363 -0.907761 12.814 -1.07276 9.84185 2.79524ZM1.95411 12.1602C0.879347 13.2602 0 14.8452 0 15.6832C0 17.0432 0.24524 17.0422 2.29119 15.6692C4.44461 14.2252 4.80612 14.3142 8.28834 17.1462C11.1296 19.4582 12.986 20.1602 16.2562 20.1602C20.819 20.1602 24.4263 17.6432 24.4263 14.4602C24.4263 13.1382 24.1654 13.0272 23.2538 13.9602C21.4121 15.8452 18.6099 15.3772 15.455 12.6602C11.7022 9.42924 4.86963 9.17624 1.95411 12.1602Z" fill="white"/>
<path fill-rule="evenodd" clip-rule="evenodd" d="M9.84185 2.79524C7.64934 5.64724 6.98886 8.40724 8.98888 6.36024C10.9498 4.35324 15.1316 4.98524 17.5869 7.66024C19.3994 9.63524 20.8405 10.1602 24.4449 10.1602C29.0742 10.1602 31.2129 8.77524 32.5525 4.91024C33.295 2.76724 32.8231 2.72524 29.9173 4.67424C27.8079 6.08824 27.4161 5.98924 23.9544 3.17424C18.9363 -0.907761 12.814 -1.07276 9.84185 2.79524ZM1.95411 12.1602C0.879347 13.2602 0 14.8452 0 15.6832C0 17.0432 0.24524 17.0422 2.29119 15.6692C4.44461 14.2252 4.80612 14.3142 8.28834 17.1462C11.1296 19.4582 12.986 20.1602 16.2562 20.1602C20.819 20.1602 24.4263 17.6432 24.4263 14.4602C24.4263 13.1382 24.1654 13.0272 23.2538 13.9602C21.4121 15.8452 18.6099 15.3772 15.455 12.6602C11.7022 9.42924 4.86963 9.17624 1.95411 12.1602Z" fill="white"/>
</svg>
