<svg width="580" height="578" viewBox="0 0 580 578" fill="none" xmlns="http://www.w3.org/2000/svg">
<path fill-rule="evenodd" clip-rule="evenodd" d="M270.184 0.469615C245.773 1.94361 224.735 5.90761 202.184 13.2826C166.937 24.8086 141.875 38.0406 111.434 61.1956C99.7232 70.1036 91.8412 77.2146 79.5552 89.9586C40.0552 130.929 11.8272 188.921 3.13123 246.959C-5.64677 305.552 4.07023 364.13 31.7902 419.733C54.8022 465.894 85.8252 500.392 132.649 531.892C163.167 552.421 207.363 569.318 245.121 574.891C280.016 580.042 326.896 578.211 357.706 570.495C367.557 568.028 386.831 561.931 391.184 559.906C392.834 559.138 397.334 557.309 401.184 555.84C411.17 552.032 431.667 541.599 442.09 535.02C468.27 518.495 497.794 492.43 515.783 469.959C535.198 445.707 553.429 412.157 563.792 381.608C568.782 366.899 574.75 342.413 576.624 328.959C587.485 250.975 564.801 169.328 514.946 106.959C497.225 84.7896 468.638 59.6536 442.09 42.8976C418.717 28.1456 384.02 13.7346 355.684 7.00961C332.707 1.55661 297.187 -1.16039 270.184 0.469615ZM276.451 53.7086L276.184 79.9586L262.684 81.1496C255.259 81.8036 245.013 83.3336 239.916 84.5476C234.818 85.7626 230.468 86.5766 230.249 86.3566C229.416 85.5236 212.549 38.2596 212.944 37.8646C214.066 36.7426 230.681 32.4186 239.366 30.9876C248.973 29.4056 263.948 27.8706 272.451 27.5966L276.717 27.4586L276.451 53.7086ZM318.289 28.4806C334.383 29.7556 347.623 31.9466 357.995 35.0516C362.403 36.3706 366.203 37.6436 366.439 37.8806C366.844 38.2856 349.974 85.5026 349.119 86.3576C348.9 86.5766 344.55 85.7586 339.452 84.5406C334.355 83.3226 324.109 81.7856 316.684 81.1236L303.184 79.9216L302.917 53.6896C302.697 32.0036 302.888 27.4586 304.022 27.4586C304.776 27.4586 311.196 27.9186 318.289 28.4806ZM196.15 70.4896C200.704 82.8476 204.72 93.6396 205.073 94.4726C205.561 95.6196 203.589 96.9896 196.95 100.117C192.129 102.389 184.651 106.783 180.333 109.882C173.302 114.928 166.847 118.459 164.652 118.459C163.778 118.459 132.826 81.9986 132.432 80.5056C132.137 79.3886 146.718 68.4496 157.264 61.8756C164.931 57.0976 185.509 47.3536 187.027 47.7826C187.491 47.9136 191.596 58.1316 196.15 70.4896ZM406.313 53.4546C417.311 58.6126 426.586 64.3056 439.424 73.7766C446.636 79.0976 447.51 80.0666 446.424 81.5496C442.372 87.0856 415.463 118.459 414.768 118.459C412.501 118.459 405.904 114.874 398.928 109.851C394.669 106.784 387.239 102.411 382.418 100.131C375.763 96.9856 373.809 95.6216 374.305 94.4726C374.869 93.1686 389.946 52.3076 391.217 48.6396C391.808 46.9336 393.691 47.5336 406.313 53.4546ZM121.397 108.756C126.464 114.918 133.781 123.722 137.658 128.321L144.706 136.683L135.913 145.881C131.076 150.941 124.25 158.878 120.745 163.519C117.239 168.161 113.879 171.809 113.277 171.626C112.676 171.443 102.412 165.646 90.4692 158.744C71.5412 147.805 68.8772 145.967 69.7092 144.413C74.7972 134.906 107.898 97.3706 111.075 97.5056C111.685 97.5316 116.33 102.594 121.397 108.756ZM479.435 107.709C491.763 120.183 505.229 136.646 510.026 145.108C510.588 146.1 498.303 153.612 469.072 170.149L464.961 172.475L462.171 168.217C458.34 162.371 450.738 153.407 441.977 144.408L434.627 136.858L450.906 117.219C459.859 106.417 467.661 97.5516 468.244 97.5186C468.827 97.4856 473.863 102.072 479.435 107.709ZM276.451 132.196L276.184 157.932L270.684 158.7C258.045 160.463 241.254 165.834 230.977 171.4C227.87 173.082 224.757 174.459 224.057 174.459C223.358 174.459 221.714 172.996 220.404 171.209C202.98 147.429 193.684 134.355 193.684 133.629C193.684 132.614 202.371 126.679 208.245 123.683C214.533 120.475 229.835 114.696 239.317 111.948C250.091 108.826 259.32 107.389 273.451 106.634L276.718 106.459L276.451 132.196ZM325.332 108.548C336.58 110.225 359.568 117.82 371.175 123.693C376.996 126.639 385.684 132.514 385.684 133.505C385.684 134.922 356.635 174.459 355.594 174.459C355.062 174.459 351.96 173.113 348.701 171.467C337.19 165.657 320.436 160.307 308.684 158.689L303.184 157.932L302.917 132.125L302.65 106.319L310.917 106.975C315.464 107.336 321.951 108.044 325.332 108.548ZM186.567 169.493L201.818 190.527L194.606 198.243C186.119 207.324 179.164 216.973 173.368 227.708C171.067 231.97 168.783 235.457 168.292 235.458C166.757 235.46 121.229 220.27 120.355 219.465C118.195 217.474 135.955 185.714 146.081 173.459C150.655 167.923 169.808 148.459 170.681 148.459C171.03 148.459 178.179 157.924 186.567 169.493ZM416.722 155.795C427.654 166.481 434.581 174.669 442.242 185.959C449.673 196.909 460.357 218.23 459.023 219.445C458.074 220.309 412.76 235.459 411.125 235.459C410.543 235.459 408.576 232.647 406.754 229.209C401.032 218.414 393.145 207.257 385.209 198.73L377.551 190.502L388.278 175.73C394.177 167.606 401.044 158.147 403.537 154.709C406.03 151.272 408.328 148.459 408.644 148.459C408.96 148.459 412.595 151.76 416.722 155.795ZM81.5122 183.955C92.0572 190.003 100.684 195.527 100.684 196.23C100.684 196.934 99.1802 200.535 97.3422 204.234C93.5892 211.787 89.3792 224.058 87.5572 232.756C86.8892 235.944 85.9872 238.772 85.5532 239.04C85.1182 239.309 76.0832 237.961 65.4732 236.046C54.8642 234.131 44.1213 232.275 41.5993 231.923C34.3903 230.914 34.1932 230.633 35.6162 223.398C37.3722 214.476 45.0692 192.791 50.9322 180.25L55.9382 169.542L59.1392 171.25C60.9002 172.19 70.9682 177.907 81.5122 183.955ZM535.493 197.459C540.418 210.631 544.684 225.078 544.684 228.58C544.684 230.561 543.585 230.997 535.184 232.349C531.884 232.88 521.345 234.713 511.764 236.421C497.9 238.893 494.18 239.265 493.539 238.243C493.096 237.537 492.223 234.484 491.599 231.459C490.06 223.994 485.396 210.813 481.714 203.519C480.048 200.217 478.685 196.941 478.685 196.238C478.686 195.534 488.698 189.25 500.935 182.273L523.184 169.587L526.815 176.773C528.813 180.725 532.718 190.034 535.493 197.459ZM311.417 186.103C347.068 193.475 376.419 219.341 388.664 254.177C399.617 285.337 395.397 319.63 377.252 346.9C354.736 380.74 315.029 398.758 275.65 393.004C243.932 388.37 218.405 372.025 200.954 345.177C184.81 320.339 180.279 286.625 189.242 258.02C201.961 217.428 236.039 189.571 279.684 184.088C285.702 183.332 303.478 184.461 311.417 186.103ZM137.184 253.292C159.182 260.625 160.179 261.068 160.061 263.459C159.993 264.834 159.342 271.448 158.614 278.157C157.452 288.874 157.492 291.9 158.945 303.071C159.855 310.064 160.375 316.151 160.099 316.596C159.349 317.811 112.897 332.709 111.86 332.067C110.269 331.085 107.804 320.252 106.601 308.959C104.023 284.761 107.956 245.218 112.909 245.542C113.61 245.588 124.534 249.076 137.184 253.292ZM468.793 248.209C472.711 258.374 474.805 290.094 472.782 308.627C471.585 319.589 469.247 330.291 467.714 331.827C467.224 332.319 456.49 329.276 443.016 324.827C420.197 317.294 419.189 316.853 419.296 314.459C419.358 313.084 419.981 306.729 420.68 300.337C421.71 290.923 421.708 286.554 420.673 277.337C419.971 271.079 419.348 264.834 419.29 263.459C419.189 261.071 420.214 260.615 442.184 253.281C454.834 249.058 465.758 245.57 466.459 245.531C467.16 245.491 468.21 246.697 468.793 248.209ZM38.5582 257.995C43.0112 258.839 54.1393 260.843 63.2893 262.448C72.4383 264.053 80.0632 265.504 80.2322 265.674C80.4012 265.843 80.0942 271.152 79.5502 277.47C78.8802 285.235 78.8972 292.666 79.6012 300.396C80.1742 306.686 80.5133 311.963 80.3543 312.123C80.1943 312.282 68.6633 314.481 54.7293 317.01C35.2453 320.546 29.2173 321.322 28.6303 320.372C26.5373 316.985 26.2192 263.441 28.2612 258.12C29.0342 256.103 28.6152 256.108 38.5582 257.995ZM551.997 266.471C552.892 276.917 552.255 316.914 551.148 319.733C550.593 321.147 549.717 321.386 546.818 320.912C542.327 320.178 526.051 317.264 510.367 314.386L498.549 312.217L499.083 308.588C500.468 299.178 500.731 286.988 499.763 277.034C499.179 271.025 498.869 265.941 499.073 265.737C499.397 265.413 507.283 263.943 540.684 257.981C544.809 257.245 548.859 256.719 549.684 256.813C550.835 256.943 551.373 259.192 551.997 266.471ZM87.4103 344.959C89.3653 353.922 93.5802 366.113 97.3422 373.684C99.1802 377.383 100.683 380.983 100.681 381.684C100.679 382.385 90.6673 388.7 78.4313 395.716L56.1842 408.473L51.0342 397.716C45.4062 385.96 36.2442 359.729 35.1562 352.255C34.3592 346.781 32.9072 347.507 50.6842 344.486C75.8452 340.21 81.2023 339.228 81.6433 338.81C81.8953 338.57 83.0022 338.506 84.1012 338.667C85.6662 338.895 86.3863 340.265 87.4103 344.959ZM500.385 339.418C503.024 339.945 513.059 341.753 522.684 343.437C547.621 347.799 545.018 346.732 544.206 352.255C543.077 359.939 533.933 386.155 528.364 397.675L523.184 408.39L500.935 395.675C488.698 388.681 478.686 382.384 478.685 381.68C478.685 380.977 480.099 377.602 481.827 374.18C485.405 367.099 490.684 352.977 490.684 350.487C490.684 347.609 493.719 338.459 494.674 338.459C495.175 338.459 497.745 338.89 500.385 339.418ZM171.277 346.209C177.917 359.263 186.314 371.058 196.477 381.606L201.918 387.253L186.617 408.356C178.201 419.963 171.025 429.459 170.67 429.459C170.315 429.459 165.849 425.316 160.747 420.252C150.67 410.252 141.645 399.154 134.185 387.588C128.662 379.025 119.254 359.565 120.177 358.611C121.001 357.759 165.699 342.683 167.777 342.556C168.666 342.502 170.211 344.113 171.277 346.209ZM435.129 350.058C447.809 354.237 458.557 358.008 459.013 358.437C460.111 359.47 451.185 378.283 445.183 387.588C437.799 399.035 428.79 410.104 418.632 420.209C413.518 425.296 409.049 429.459 408.702 429.459C408.354 429.459 406.03 426.647 403.537 423.209C401.044 419.772 394.153 410.278 388.223 402.113L377.442 387.267L382.417 382.113C392.971 371.18 401.454 359.231 408.617 345.209C409.39 343.697 410.484 342.459 411.048 342.459C411.612 342.459 422.448 345.878 435.129 350.058ZM233.98 407.912C244.268 412.89 257.416 417.029 268.684 418.839L276.184 420.043L276.451 445.821L276.718 471.599L268.451 470.943C250.898 469.549 239.115 466.77 221.403 459.849C207.67 454.483 193.684 446.67 193.684 444.365C193.684 442.912 222.732 403.459 223.802 403.459C224.337 403.459 228.918 405.463 233.98 407.912ZM371.122 423.51C379.131 434.538 385.684 443.944 385.684 444.413C385.684 446.673 371.572 454.532 357.965 459.849C340.253 466.77 328.47 469.549 310.917 470.943L302.65 471.599L302.917 445.821L303.184 420.043L310.684 418.839C321.711 417.068 334.435 413.061 344.925 408.054C350.017 405.623 354.719 403.595 355.372 403.547C356.026 403.499 363.113 412.482 371.122 423.51ZM121.228 414.917C124.504 419.294 131.142 427.023 135.98 432.092L144.776 441.308L137.98 449.202C134.242 453.544 126.909 462.327 121.684 468.719C116.459 475.111 111.685 480.367 111.075 480.4C107.977 480.565 74.7542 442.933 69.7612 433.603C68.8582 431.915 71.1073 430.358 91.4313 418.601C103.903 411.386 114.37 405.815 114.69 406.221C115.01 406.627 117.952 410.54 121.228 414.917ZM488.409 418.921C508.414 430.411 510.532 431.875 509.616 433.586C504.689 442.793 471.394 480.541 468.314 480.412C467.693 480.385 464.184 476.673 460.517 472.162C456.851 467.65 449.553 458.839 444.3 452.581L434.75 441.202L444.325 431.081C449.592 425.514 456.413 417.498 459.484 413.269C462.555 409.039 465.319 405.709 465.626 405.868C465.933 406.027 476.185 411.901 488.409 418.921ZM169.068 460.975C171.063 461.809 176.181 465 180.44 468.067C184.699 471.134 192.129 475.507 196.95 477.787C203.617 480.938 205.558 482.293 205.055 483.445C204.691 484.278 200.724 494.956 196.239 507.175C191.755 519.394 187.846 529.63 187.553 529.923C187.26 530.216 184.142 529.286 180.624 527.857C166.839 522.255 155.678 515.749 139.944 504.141C132.72 498.812 131.857 497.852 132.944 496.358C136.929 490.883 163.876 459.459 164.586 459.459C165.056 459.459 167.072 460.141 169.068 460.975ZM428.265 474.709C435.262 483.097 442.584 491.646 444.536 493.708C446.672 495.963 447.708 497.791 447.135 498.296C434.814 509.169 401.378 528.814 393.66 529.714C391.788 529.933 390.622 527.391 382.763 505.959L373.962 481.959L383.073 477.459C388.084 474.984 395.22 470.783 398.93 468.124C405.861 463.156 412.28 459.569 414.364 459.499C415.014 459.477 421.269 466.321 428.265 474.709ZM240.244 493.432C244.611 494.518 254.484 495.984 262.184 496.691L276.184 497.976L276.451 524.218C276.671 545.912 276.48 550.459 275.346 550.459C269.994 550.459 246.506 548.134 238.786 546.84C230.409 545.436 214.026 541.135 212.948 540.056C212.134 539.242 230.038 491.459 231.157 491.459C231.787 491.459 235.876 492.347 240.244 493.432ZM358.094 515.552C362.899 528.803 366.646 539.83 366.42 540.056C365.299 541.177 349.018 545.392 340.184 546.848C331.715 548.244 310.365 550.39 304.417 550.443C302.766 550.458 302.668 548.743 302.917 524.228L303.184 497.997L317.184 496.728C324.884 496.031 334.334 494.621 338.184 493.595C350.118 490.416 348.22 488.322 358.094 515.552Z" fill="white"/>
</svg>
