<svg width="502" height="500" viewBox="0 0 502 500" fill="none" xmlns="http://www.w3.org/2000/svg">
<path fill-rule="evenodd" clip-rule="evenodd" d="M233.805 0.406383C212.681 1.68191 194.475 5.11218 174.961 11.4942C144.46 21.4682 122.772 32.9186 96.43 52.9559C86.2959 60.6644 79.4752 66.818 68.8434 77.846C34.662 113.3 10.2347 163.483 2.70962 213.707C-4.88645 264.41 3.52219 315.101 27.5098 363.217C47.4233 403.163 74.2692 433.016 114.789 460.274C141.197 478.039 179.443 492.661 212.117 497.484C242.313 501.941 282.881 500.357 309.542 493.68C318.067 491.545 334.746 486.269 338.513 484.516C339.941 483.852 343.835 482.269 347.166 480.998C355.808 477.703 373.545 468.674 382.564 462.981C405.219 448.681 430.768 426.126 446.335 406.68C463.136 385.694 478.912 356.661 487.88 330.226C492.198 317.497 497.362 296.308 498.984 284.666C508.383 217.182 488.753 146.528 445.611 92.557C430.276 73.373 405.538 51.6215 382.564 37.1216C362.339 24.3559 332.313 11.8853 307.793 6.06579C287.909 1.34702 257.172 -1.00414 233.805 0.406383ZM239.228 46.477L238.997 69.1925L227.315 70.2231C220.89 70.7891 212.023 72.1131 207.612 73.1636C203.201 74.215 199.437 74.9194 199.247 74.729C198.526 74.0082 183.93 33.1081 184.272 32.7663C185.243 31.7954 199.621 28.0536 207.136 26.8152C215.45 25.4463 228.409 24.1179 235.767 23.8808L239.458 23.7614L239.228 46.477ZM275.433 24.6458C289.36 25.7491 300.817 27.6451 309.793 30.3321C313.607 31.4735 316.895 32.575 317.1 32.7801C317.45 33.1306 302.852 73.99 302.112 74.7299C301.922 74.9194 298.158 74.2115 293.746 73.1575C289.336 72.1035 280.469 70.7735 274.044 70.2006L262.362 69.1605L262.131 46.4605C261.94 27.6945 262.106 23.7614 263.087 23.7614C263.739 23.7614 269.295 24.1595 275.433 24.6458ZM169.739 60.9985C173.68 71.6925 177.155 81.0314 177.461 81.7522C177.883 82.7448 176.177 83.9303 170.432 86.6363C166.26 88.6024 159.789 92.4047 156.052 95.0865C149.968 99.4531 144.382 102.509 142.482 102.509C141.726 102.509 114.942 70.9578 114.601 69.6658C114.345 68.6992 126.963 59.2331 136.089 53.5443C142.724 49.4096 160.531 40.9776 161.845 41.3489C162.246 41.4622 165.799 50.3044 169.739 60.9985ZM351.605 46.2572C361.122 50.7207 369.148 55.6471 380.257 63.8429C386.498 68.4474 387.255 69.286 386.315 70.5693C382.808 75.3599 359.523 102.509 358.921 102.509C356.96 102.509 351.251 99.4063 345.214 95.0596C341.529 92.4056 335.099 88.6214 330.927 86.6484C325.168 83.9269 323.477 82.7465 323.906 81.7522C324.395 80.6238 337.441 45.2646 338.541 42.0905C339.053 40.6142 340.682 41.1334 351.605 46.2572ZM105.052 94.1121C109.436 99.4444 115.768 107.063 119.123 111.043L125.222 118.279L117.613 126.238C113.427 130.617 107.52 137.485 104.487 141.501C101.453 145.518 98.5458 148.675 98.0249 148.517C97.5048 148.359 88.6228 143.342 78.2879 137.369C61.9085 127.903 59.6032 126.313 60.3232 124.968C64.7261 116.741 93.3701 84.26 96.1194 84.3769C96.6472 84.3993 100.667 88.7798 105.052 94.1121ZM414.881 93.2061C425.549 104 437.202 118.247 441.353 125.569C441.839 126.428 431.209 132.928 405.913 147.239L402.356 149.252L399.942 145.567C396.626 140.508 390.048 132.751 382.467 124.964L376.106 118.43L390.193 101.436C397.941 92.088 404.692 84.4167 405.197 84.3881C405.701 84.3595 410.059 88.3281 414.881 93.2061ZM239.228 114.396L238.997 136.667L234.238 137.331C223.3 138.857 208.77 143.505 199.877 148.321C197.188 149.777 194.495 150.968 193.889 150.968C193.284 150.968 191.861 149.702 190.728 148.156C175.65 127.578 167.605 116.264 167.605 115.636C167.605 114.758 175.123 109.622 180.206 107.029C185.647 104.253 198.889 99.2523 207.094 96.8743C216.417 94.1727 224.404 92.9291 236.632 92.2758L239.459 92.1244L239.228 114.396ZM281.528 93.9321C291.261 95.3833 311.154 101.956 321.198 107.038C326.235 109.587 333.753 114.671 333.753 115.529C333.753 116.755 308.616 150.968 307.715 150.968C307.254 150.968 304.57 149.804 301.75 148.379C291.789 143.352 277.291 138.722 267.121 137.322L262.362 136.667L262.131 114.335L261.9 92.0032L269.053 92.5709C272.988 92.8833 278.602 93.496 281.528 93.9321ZM161.447 146.671L174.644 164.873L168.403 171.55C161.059 179.408 155.04 187.758 150.025 197.048C148.034 200.736 146.057 203.753 145.632 203.754C144.304 203.756 104.906 190.611 104.15 189.915C102.281 188.192 117.649 160.708 126.412 150.103C130.37 145.312 146.944 128.469 147.7 128.469C148.002 128.469 154.188 136.66 161.447 146.671ZM360.612 134.817C370.072 144.065 376.067 151.15 382.696 160.92C389.126 170.396 398.372 188.846 397.218 189.897C396.396 190.645 357.184 203.755 355.769 203.755C355.265 203.755 353.563 201.322 351.986 198.347C347.035 189.005 340.21 179.35 333.342 171.971L326.715 164.851L335.998 152.068C341.103 145.038 347.045 136.853 349.203 133.878C351.36 130.903 353.348 128.469 353.622 128.469C353.895 128.469 357.041 131.326 360.612 134.817ZM70.5369 159.186C79.6621 164.419 87.1275 169.2 87.1275 169.808C87.1275 170.417 85.826 173.533 84.2355 176.734C80.9878 183.27 77.3447 193.889 75.768 201.416C75.1899 204.175 74.4094 206.622 74.0338 206.854C73.6574 207.087 65.8389 205.92 56.6575 204.263C47.477 202.606 38.1805 201 35.9981 200.695C29.7597 199.822 29.5893 199.579 30.8207 193.318C32.3402 185.597 39.0008 166.832 44.0744 155.98L48.4064 146.713L51.1764 148.192C52.7002 149.005 61.4126 153.952 70.5369 159.186ZM463.391 170.872C467.653 182.27 471.345 194.772 471.345 197.802C471.345 199.517 470.394 199.894 463.124 201.064C460.268 201.523 451.148 203.109 442.857 204.587C430.86 206.727 427.641 207.049 427.086 206.164C426.703 205.553 425.947 202.911 425.407 200.294C424.075 193.834 420.04 182.428 416.853 176.116C415.412 173.258 414.232 170.423 414.232 169.815C414.233 169.206 422.897 163.768 433.486 157.73L452.74 146.752L455.882 152.971C457.611 156.391 460.99 164.446 463.391 170.872ZM269.486 161.045C300.337 167.424 325.736 189.807 336.332 219.953C345.81 246.917 342.159 276.593 326.457 300.191C306.972 329.474 272.612 345.066 238.535 340.087C211.088 336.077 188.998 321.933 173.897 298.7C159.926 277.206 156.005 248.032 163.762 223.278C174.768 188.152 204.257 164.046 242.026 159.301C247.234 158.647 262.616 159.624 269.486 161.045ZM118.713 219.187C137.749 225.533 138.612 225.916 138.51 227.985C138.451 229.175 137.887 234.898 137.257 240.704C136.252 249.978 136.286 252.596 137.544 262.263C138.331 268.315 138.781 273.582 138.542 273.967C137.893 275.019 97.6961 287.911 96.7987 287.355C95.4219 286.505 93.2888 277.131 92.2478 267.359C90.0169 246.419 93.4204 212.2 97.7064 212.48C98.3131 212.52 107.766 215.539 118.713 219.187ZM405.672 214.788C409.062 223.585 410.875 251.034 409.124 267.071C408.088 276.557 406.065 285.818 404.738 287.147C404.314 287.573 395.026 284.94 383.366 281.09C363.619 274.571 362.747 274.19 362.84 272.118C362.893 270.928 363.432 265.429 364.037 259.897C364.929 251.751 364.927 247.97 364.031 239.994C363.424 234.579 362.885 229.175 362.834 227.985C362.747 225.918 363.634 225.524 382.646 219.177C393.593 215.523 403.046 212.505 403.652 212.471C404.259 212.436 405.168 213.48 405.672 214.788ZM33.3665 223.257C37.2199 223.987 46.8496 225.721 54.7676 227.11C62.6847 228.499 69.283 229.755 69.4293 229.902C69.5755 230.048 69.3099 234.642 68.8391 240.109C68.2593 246.829 68.274 253.259 68.8832 259.949C69.3791 265.392 69.6725 269.958 69.5349 270.097C69.3964 270.234 59.418 272.137 47.3602 274.325C30.4996 277.385 25.2833 278.057 24.7753 277.235C22.9641 274.304 22.6889 227.969 24.456 223.365C25.1249 221.619 24.7623 221.624 33.3665 223.257ZM477.673 230.591C478.447 239.631 477.896 274.242 476.938 276.682C476.458 277.905 475.7 278.112 473.191 277.702C469.305 277.067 455.22 274.545 441.648 272.055L431.421 270.178L431.884 267.037C433.082 258.894 433.31 248.346 432.472 239.732C431.967 234.532 431.698 230.133 431.875 229.956C432.155 229.676 438.98 228.404 467.883 223.245C471.453 222.608 474.957 222.152 475.671 222.234C476.667 222.346 477.133 224.292 477.673 230.591ZM75.6408 298.511C77.3326 306.267 80.98 316.817 84.2355 323.369C85.826 326.569 87.1266 329.685 87.1249 330.291C87.1232 330.898 78.4593 336.363 67.8708 342.434L48.6192 353.473L44.1627 344.165C39.2925 333.992 31.3641 311.293 30.4226 304.825C29.7329 300.088 28.4764 300.716 43.8598 298.102C65.633 294.402 70.2687 293.552 70.6503 293.19C70.8684 292.983 71.8263 292.927 72.7773 293.066C74.1316 293.264 74.7547 294.449 75.6408 298.511ZM433.01 293.716C435.294 294.172 443.978 295.737 452.307 297.194C473.886 300.969 471.634 300.046 470.931 304.825C469.954 311.474 462.041 334.16 457.222 344.129L452.74 353.402L433.486 342.399C422.897 336.346 414.233 330.897 414.232 330.288C414.232 329.68 415.456 326.759 416.951 323.798C420.047 317.67 424.615 305.45 424.615 303.295C424.615 300.804 427.242 292.886 428.068 292.886C428.502 292.886 430.726 293.259 433.01 293.716ZM148.215 299.593C153.961 310.889 161.228 321.096 170.022 330.224L174.731 335.111L161.49 353.372C154.207 363.416 147.997 371.634 147.69 371.634C147.383 371.634 143.518 368.048 139.103 363.666C130.383 355.013 122.573 345.409 116.118 335.4C111.338 327.99 103.197 311.151 103.996 310.325C104.709 309.588 143.388 296.542 145.187 296.432C145.956 296.385 147.293 297.779 148.215 299.593ZM376.541 302.924C387.513 306.54 396.814 309.803 397.209 310.174C398.159 311.068 390.435 327.348 385.241 335.4C378.851 345.306 371.055 354.885 362.265 363.629C357.84 368.031 353.972 371.634 353.672 371.634C353.371 371.634 351.36 369.2 349.203 366.225C347.045 363.251 341.082 355.035 335.95 347.97L326.621 335.123L330.926 330.663C340.059 321.202 347.4 310.862 353.598 298.728C354.267 297.419 355.214 296.348 355.702 296.348C356.19 296.348 365.567 299.307 376.541 302.924ZM202.476 352.988C211.378 357.296 222.756 360.877 232.507 362.444L238.997 363.485L239.228 385.793L239.459 408.1L232.305 407.532C217.116 406.326 206.919 403.921 191.592 397.932C179.708 393.288 167.605 386.527 167.605 384.533C167.605 383.275 192.742 349.134 193.668 349.134C194.131 349.134 198.095 350.869 202.476 352.988ZM321.152 366.486C328.083 376.029 333.753 384.168 333.753 384.574C333.753 386.53 321.541 393.331 309.767 397.932C294.439 403.921 284.243 406.326 269.053 407.532L261.9 408.1L262.131 385.793L262.362 363.485L268.852 362.444C278.394 360.911 289.405 357.444 298.482 353.111C302.889 351.007 306.958 349.252 307.523 349.211C308.089 349.169 314.221 356.943 321.152 366.486ZM104.905 359.05C107.74 362.837 113.484 369.526 117.671 373.912L125.283 381.887L119.402 388.718C116.167 392.476 109.821 400.076 105.3 405.607C100.778 411.139 96.6472 415.687 96.1194 415.716C93.4385 415.858 64.6889 383.293 60.3682 375.22C59.5867 373.759 61.5329 372.412 79.1204 362.238C89.9131 355.994 98.9707 351.173 99.2476 351.525C99.5246 351.876 102.07 355.262 104.905 359.05ZM422.647 362.515C439.958 372.457 441.791 373.724 440.998 375.205C436.735 383.172 407.923 415.838 405.258 415.726C404.72 415.703 401.684 412.49 398.51 408.587C395.338 404.682 389.023 397.058 384.477 391.642L376.213 381.796L384.499 373.037C389.056 368.22 394.959 361.283 397.616 357.624C400.274 353.963 402.666 351.082 402.931 351.219C403.197 351.357 412.069 356.44 422.647 362.515ZM146.304 398.906C148.03 399.628 152.459 402.389 156.145 405.043C159.83 407.697 166.26 411.481 170.432 413.454C176.201 416.181 177.881 417.354 177.445 418.351C177.13 419.072 173.697 428.312 169.816 438.885C165.936 449.459 162.553 458.317 162.3 458.571C162.046 458.824 159.348 458.019 156.304 456.783C144.375 451.935 134.717 446.305 121.101 436.26C114.85 431.649 114.103 430.818 115.044 429.525C118.492 424.787 141.811 397.594 142.425 397.594C142.832 397.594 144.577 398.184 146.304 398.906ZM370.601 410.791C376.656 418.05 382.992 425.447 384.681 427.232C386.53 429.183 387.426 430.765 386.93 431.202C376.268 440.611 347.334 457.611 340.655 458.39C339.035 458.579 338.026 456.379 331.226 437.833L323.61 417.065L331.494 413.171C335.83 411.029 342.005 407.394 345.216 405.093C351.214 400.793 356.768 397.689 358.572 397.629C359.134 397.61 364.547 403.532 370.601 410.791ZM207.896 426.993C211.675 427.933 220.219 429.201 226.882 429.813L238.997 430.925L239.228 453.634C239.419 472.407 239.253 476.341 238.272 476.341C233.641 476.341 213.315 474.33 206.635 473.21C199.386 471.995 185.208 468.273 184.276 467.339C183.571 466.635 199.064 425.286 200.033 425.286C200.578 425.286 204.116 426.054 207.896 426.993ZM309.878 446.135C314.036 457.601 317.279 467.144 317.083 467.339C316.113 468.309 302.024 471.957 294.38 473.217C287.051 474.425 268.576 476.282 263.429 476.328C262 476.341 261.915 474.857 262.131 453.642L262.362 430.943L274.477 429.845C281.14 429.242 289.317 428.022 292.649 427.134C302.976 424.383 301.334 422.571 309.878 446.135Z" fill="white"/>
</svg>
