<svg width="2204" height="2050" viewBox="0 0 2204 2050" fill="none" xmlns="http://www.w3.org/2000/svg">
<path fill-rule="evenodd" clip-rule="evenodd" d="M710.015 1330.4C728.893 1330.55 759.493 1330.55 778.015 1330.4C796.537 1330.24 781.092 1330.12 743.692 1330.12C706.292 1330.12 691.137 1330.24 710.015 1330.4Z" fill="#C4C4C4"/>
<path fill-rule="evenodd" clip-rule="evenodd" d="M1112.65 1545.4C1099.44 1566.33 1077.11 1581.48 1051.69 1586.75C1043.04 1588.55 1032.5 1588.62 777.442 1588.63L512.192 1588.65V1614.15V1639.65H776.061C1062.9 1639.65 1047.21 1639.94 1064.1 1634.19C1101.23 1621.52 1127.19 1585.04 1127.19 1545.52V1537.65H1122.37H1117.54L1112.65 1545.4Z" fill="#808080"/>
<path fill-rule="evenodd" clip-rule="evenodd" d="M387.271 1203.23C387.319 1204.4 387.556 1204.63 387.875 1203.84C388.164 1203.11 388.128 1202.25 387.796 1201.92C387.464 1201.59 387.228 1202.18 387.271 1203.23ZM388.271 1216.23C388.319 1217.4 388.556 1217.63 388.875 1216.84C389.164 1216.11 389.128 1215.25 388.796 1214.92C388.464 1214.59 388.228 1215.18 388.271 1216.23Z" fill="#DFE8F6"/>
<path fill-rule="evenodd" clip-rule="evenodd" d="M867.942 719.396C884.029 719.551 910.354 719.551 926.442 719.396C942.529 719.242 929.367 719.116 897.192 719.116C865.017 719.116 851.855 719.242 867.942 719.396ZM563.271 847.23C563.319 848.395 563.556 848.632 563.875 847.835C564.164 847.113 564.128 846.25 563.796 845.918C563.464 845.586 563.228 846.176 563.271 847.23ZM384.271 1175.23C384.319 1176.4 384.556 1176.63 384.875 1175.84C385.164 1175.11 385.128 1174.25 384.796 1173.92C384.464 1173.59 384.228 1174.18 384.271 1175.23ZM749.271 1190.23C749.319 1191.4 749.556 1191.63 749.875 1190.84C750.164 1190.11 750.128 1189.25 749.796 1188.92C749.464 1188.59 749.228 1189.18 749.271 1190.23ZM386.271 1191.23C386.319 1192.4 386.556 1192.63 386.875 1191.84C387.164 1191.11 387.128 1190.25 386.796 1189.92C386.464 1189.59 386.228 1190.18 386.271 1191.23ZM748.271 1199.23C748.319 1200.4 748.556 1200.63 748.875 1199.84C749.164 1199.11 749.128 1198.25 748.796 1197.92C748.464 1197.59 748.228 1198.18 748.271 1199.23ZM387.271 1200.23C387.319 1201.4 387.556 1201.63 387.875 1200.84C388.164 1200.11 388.128 1199.25 387.796 1198.92C387.464 1198.59 387.228 1199.18 387.271 1200.23ZM392.271 1207.23C392.319 1208.4 392.556 1208.63 392.875 1207.84C393.164 1207.11 393.128 1206.25 392.796 1205.92C392.464 1205.59 392.228 1206.18 392.271 1207.23ZM747.35 1209.65C747.35 1211.02 747.577 1211.59 747.854 1210.9C748.132 1210.21 748.132 1209.09 747.854 1208.4C747.577 1207.71 747.35 1208.27 747.35 1209.65ZM388.387 1212.15C388.407 1213.8 388.631 1214.35 388.885 1213.38C389.139 1212.41 389.122 1211.06 388.848 1210.38C388.574 1209.7 388.367 1210.5 388.387 1212.15ZM744.271 1214.23C744.319 1215.4 744.556 1215.63 744.875 1214.84C745.164 1214.11 745.128 1213.25 744.796 1212.92C744.464 1212.59 744.228 1213.18 744.271 1214.23ZM391.271 1216.23C391.319 1217.4 391.556 1217.63 391.875 1216.84C392.164 1216.11 392.128 1215.25 391.796 1214.92C391.464 1214.59 391.228 1215.18 391.271 1216.23Z" fill="#C4C4C4"/>
<path fill-rule="evenodd" clip-rule="evenodd" d="M589.239 0.783368C575.331 3.09437 557.755 11.3674 545.871 21.1964C529.077 35.0874 516.819 56.6814 513.26 78.6474C512.55 83.0324 512.205 146.239 512.2 272.897L512.192 460.647L802.442 460.655C998.172 460.66 1094.81 461 1099.19 461.7C1109.19 463.297 1124.35 468.868 1133.39 474.267C1146.16 481.897 1159.1 495.429 1167.8 510.258C1168.89 512.106 1180.06 512.147 1685.8 512.147H2202.69L2202.98 297.647C2203.19 145.62 2202.96 81.3994 2202.18 77.1474C2195.71 41.6194 2170.91 14.0184 2135.47 2.90237L2126.69 0.147368L1360.69 0.0123679C906.972 -0.0676321 592.469 0.246368 589.239 0.783368ZM202.514 719.397C218.915 719.551 245.465 719.551 261.514 719.396C277.562 719.242 264.142 719.116 231.692 719.116C199.242 719.116 186.112 719.242 202.514 719.397ZM534.442 719.396C551.904 719.55 580.479 719.55 597.942 719.396C615.404 719.243 601.117 719.118 566.192 719.118C531.267 719.118 516.98 719.243 534.442 719.396Z" fill="#C4C4C4"/>
<path fill-rule="evenodd" clip-rule="evenodd" d="M1056.38 461.394C1063.36 461.565 1075.06 461.566 1082.38 461.395C1089.7 461.224 1083.99 461.083 1069.69 461.083C1055.39 461.082 1049.4 461.222 1056.38 461.394ZM1098.46 462.34C1099.43 462.594 1100.78 462.577 1101.46 462.303C1102.14 462.029 1101.34 461.822 1099.69 461.842C1098.04 461.862 1097.49 462.086 1098.46 462.34ZM1104.01 463.33C1104.73 463.619 1105.59 463.583 1105.92 463.251C1106.25 462.919 1105.66 462.683 1104.61 462.726C1103.44 462.774 1103.21 463.011 1104.01 463.33ZM1122.28 469.024C1123.3 469.95 1131.19 473.636 1131.19 473.188C1131.19 472.619 1123.65 468.647 1122.57 468.647C1122.18 468.647 1122.05 468.817 1122.28 469.024ZM1132.19 474.077C1132.19 474.352 1133.09 475.058 1134.19 475.647C1135.29 476.236 1136.19 476.492 1136.19 476.217C1136.19 475.942 1135.29 475.236 1134.19 474.647C1133.09 474.058 1132.19 473.802 1132.19 474.077ZM1137.19 476.96C1137.19 477.207 1138.84 478.67 1140.86 480.21C1142.88 481.75 1144.22 482.499 1143.83 481.875C1143.04 480.595 1137.19 476.266 1137.19 476.96ZM1151.15 489.147C1159.94 498.753 1161.04 499.794 1157.45 495.147C1155.75 492.947 1152.19 489.122 1149.55 486.647C1145.86 483.199 1146.24 483.783 1151.15 489.147ZM1162.66 503.397C1164.2 505.734 1165.65 507.647 1165.88 507.647C1166.6 507.647 1162.77 501.561 1161.27 500.32C1160.49 499.675 1161.11 501.06 1162.66 503.397ZM1170.9 517.658C1172.67 521.239 1175.13 527.989 1176.38 532.658L1178.66 541.147L1178.94 782.897L1179.23 1024.65H1691.21H2203.19V768.397V512.147L1729.44 512.382C1468.88 512.511 1235.89 512.286 1211.69 511.882L1167.69 511.147L1170.9 517.658ZM351.442 1330.4C370.554 1330.55 401.829 1330.55 420.942 1330.4C440.054 1330.25 424.417 1330.12 386.192 1330.12C347.967 1330.12 332.329 1330.25 351.442 1330.4Z" fill="#C3B8B8"/>
<path fill-rule="evenodd" clip-rule="evenodd" d="M80.6925 461.34C41.5675 467.097 9.9435 496.949 1.6425 535.962C-0.5475 546.255 -0.5475 1503.04 1.6425 1513.33C9.9815 1552.52 41.0905 1581.97 80.2395 1587.72C86.9085 1588.7 154.059 1588.83 398.359 1588.32L708.026 1587.68L872.859 1492.49C963.517 1440.14 1057.72 1385.74 1082.19 1371.61L1126.69 1345.92L1126.95 946.534C1127.23 504.391 1127.72 538.162 1120.78 520.877L1117.45 512.583L1143.19 512.865L1168.94 513.147L1165.45 507.647C1150.03 483.305 1130.3 469.235 1102.69 462.911C1096.32 461.452 1049.98 461.289 589.693 461.103C311.393 460.991 82.3425 461.097 80.6925 461.34ZM1174.27 528.23C1174.32 529.395 1174.56 529.632 1174.88 528.835C1175.16 528.113 1175.13 527.25 1174.8 526.918C1174.46 526.586 1174.23 527.176 1174.27 528.23ZM1175.27 532.23C1175.32 533.395 1175.56 533.632 1175.88 532.835C1176.16 532.113 1176.13 531.25 1175.8 530.918C1175.46 530.586 1175.23 531.176 1175.27 532.23ZM1176.27 536.23C1176.32 537.395 1176.56 537.632 1176.88 536.835C1177.16 536.113 1177.13 535.25 1176.8 534.918C1176.46 534.586 1176.23 535.176 1176.27 536.23ZM1177.39 542.147C1177.41 543.797 1177.63 544.351 1177.89 543.378C1178.14 542.405 1178.12 541.055 1177.85 540.378C1177.57 539.701 1177.37 540.497 1177.39 542.147ZM1178.86 906.063C1179.04 1102.37 1179.19 1324.56 1179.19 1399.81V1536.65H1691.19H2203.19V1280.65V1024.65H1691.19H1179.2L1178.86 786.897C1178.67 656.134 1178.67 709.759 1178.86 906.063ZM291.539 720.897C293.642 729.297 382.374 1157.09 383.582 1164.65C385.613 1177.36 389.191 1209.09 389.191 1214.4C389.193 1223.12 390.799 1218.16 392.918 1202.9C397.143 1172.46 402.895 1146.33 452.171 933.647L501.867 719.147L565.99 718.89L630.112 718.632L631.12 722.39C636.732 743.299 734.804 1148.04 737.081 1159.68C738.751 1168.23 741.243 1183.75 742.617 1194.18C745.996 1219.83 745.753 1218.38 746.403 1216.65C746.713 1215.82 747.488 1209.3 748.128 1202.15C750.314 1177.71 754.306 1155.91 796.549 937.647L838.838 719.147L897.586 718.889C953.245 718.645 956.303 718.723 955.784 720.389C955.283 721.997 843.456 1197.34 822.214 1288.15C817.197 1309.6 812.858 1327.94 812.573 1328.9C812.083 1330.56 808.175 1330.65 743.943 1330.4L675.833 1330.15L627.026 1127.65C600.182 1016.27 576.21 915.697 573.755 904.147C570.019 886.573 567.488 872.727 562.515 842.647C561.747 838.002 561.728 838.086 558.201 861.147C551.709 903.605 546.917 926.257 510.074 1088.65C489.173 1180.77 468.503 1271.9 464.143 1291.15C459.782 1310.4 455.977 1327.16 455.685 1328.4L455.155 1330.65H386.233C344.601 1330.65 317.081 1330.28 316.733 1329.71C316.415 1329.2 285.149 1197.69 247.251 1037.46C209.353 877.239 176.961 740.361 175.269 733.289C173.577 726.218 172.193 720.03 172.193 719.539C172.193 719.026 197.43 718.647 231.585 718.647H290.975L291.539 720.897Z" fill="#808080"/>
<path fill-rule="evenodd" clip-rule="evenodd" d="M1120.79 520.909C1127.72 538.156 1127.23 504.463 1126.95 946.534L1126.69 1345.92L1082.19 1371.61C1057.72 1385.74 963.535 1440.13 872.899 1492.47L708.106 1587.64L609.899 1587.9C555.885 1588.04 631.167 1588.26 777.192 1588.39C1033.02 1588.61 1043.02 1588.55 1051.69 1586.75C1077.11 1581.48 1099.44 1566.33 1112.65 1545.4L1117.54 1537.65H1122.37H1127.19V1545.52C1127.19 1585.04 1101.23 1621.52 1064.1 1634.19C1047.21 1639.94 1062.9 1639.65 776.041 1639.65H512.152L512.422 1805.9L512.692 1972.15L515.502 1981.15C519.416 1993.68 524.203 2003.21 531.36 2012.71C545.483 2031.45 568.21 2045.21 590.692 2048.63C595.603 2049.37 825.795 2049.61 1362.19 2049.42L2126.69 2049.15L2135.49 2046.39C2170.15 2035.52 2194.32 2009.23 2201.74 1974.33C2202.98 1968.5 2203.19 1936.49 2203.19 1752.08V1536.65H1691.19H1179.19L1179.05 1312.4C1178.98 1189.06 1178.61 964.622 1178.23 813.647L1177.55 539.147L1175.33 531.339C1174.11 527.044 1172.03 521.082 1170.71 518.089L1168.3 512.647H1142.89H1117.48L1120.79 520.909Z" fill="#757575"/>
<path fill-rule="evenodd" clip-rule="evenodd" d="M173.526 721.889C173.832 723.131 206.079 859.597 245.188 1025.15C284.296 1190.7 316.527 1326.94 316.812 1327.9C317.302 1329.56 321.235 1329.65 385.993 1329.4L454.656 1329.15L498.38 1136.65C522.429 1030.77 543.712 936.542 545.675 927.248C549.447 909.392 557.132 864.81 559.269 848.397C560.02 842.627 560.995 838.647 561.657 838.647C562.327 838.647 563.662 844.367 564.984 852.897C569.881 884.508 578.317 921.43 624.331 1112.65C650.735 1222.37 673.264 1316.09 674.395 1320.9L676.452 1329.65L744.072 1329.64L811.692 1329.63L881.152 1033.89C919.354 871.231 951.589 733.984 952.784 728.897L954.957 719.647H897.279H839.601L796.825 940.897C753.821 1163.32 751.551 1175.7 748.701 1203.09C747.846 1211.3 746.961 1218.21 746.736 1218.44C745.431 1219.74 744.415 1216.81 743.848 1210.1C742.823 1197.98 739.366 1175.56 735.683 1157.15C733.813 1147.8 710.189 1049.7 683.185 939.147C656.181 828.597 633.133 733.984 631.968 728.897L629.849 719.647H566.239H502.63L452.884 934.397C425.524 1052.51 401.803 1156.12 400.171 1164.65C396.309 1184.82 392.192 1211.3 392.192 1215.97C392.192 1218.55 391.751 1219.65 390.711 1219.65C388.861 1219.65 388.759 1219.07 386.738 1197.15C385.825 1187.25 383.766 1171.5 382.161 1162.15C380.556 1152.8 359.296 1049.52 334.915 932.647L290.587 720.147L231.779 719.889L172.971 719.631L173.526 721.889Z" fill="white"/>
</svg>
