<svg width="20" height="20" viewBox="0 0 20 20" fill="none" xmlns="http://www.w3.org/2000/svg">
<path fill-rule="evenodd" clip-rule="evenodd" d="M9.55447 0.0127249C6.39045 0.145883 3.46236 1.79763 1.68085 4.45424C0.712586 5.89816 0.142368 7.56316 0.0174452 9.31126C-0.00581506 9.63662 -0.00581506 10.3708 0.0174452 10.6962C0.266696 14.1842 2.2936 17.2642 5.40977 18.8901C6.5919 19.5069 7.93991 19.8851 9.30385 19.9826C9.62921 20.0058 10.3634 20.0058 10.6887 19.9826C13.5951 19.7749 16.2401 18.3325 17.9966 15.9975C19.1506 14.4634 19.8279 12.6532 19.9748 10.711C19.9847 10.58 19.9928 10.2617 19.9928 10.0037C19.9928 9.36435 19.9495 8.85075 19.846 8.26142C19.1712 4.42207 16.2583 1.27957 12.4821 0.317059C11.7781 0.137604 11.1348 0.0437436 10.3909 0.011906C10.016 -0.00413194 9.95366 -0.00407249 9.55447 0.0127249ZM10.8302 0.524807C11.5686 0.598653 12.1803 0.718871 12.8033 0.912607C14.899 1.56424 16.7144 2.92578 17.926 4.75452C19.1639 6.62316 19.6977 8.82701 19.4516 11.0535C19.2976 12.447 18.8454 13.7651 18.1081 14.97C17.229 16.4064 15.9591 17.6024 14.4643 18.4016C11.3648 20.0588 7.57891 19.8592 4.67287 17.8854C3.92674 17.3787 3.28189 16.7961 2.70253 16.1054C0.910373 13.9688 0.150499 11.1695 0.614869 8.41473C1.07334 5.69483 2.71058 3.2949 5.0896 1.85548C5.28 1.74028 5.38552 1.68095 5.64058 1.54571C5.82775 1.44646 6.23777 1.25946 6.47049 1.16719C7.41972 0.790841 8.37933 0.57517 9.42298 0.503632C9.70262 0.484467 10.5551 0.497288 10.8302 0.524807ZM9.38703 1.44278C7.56277 1.57387 5.85978 2.2698 4.44183 3.46367C4.1948 3.67165 3.63886 4.22977 3.43782 4.47159C3.26013 4.68532 3.03338 4.98398 2.90078 5.17892L2.81469 5.3055L3.05122 5.31814C3.42386 5.33807 4.38665 5.3028 5.41973 5.23139C5.69465 5.21238 5.7442 5.21234 5.80731 5.23107C6.07775 5.3114 6.10957 5.71992 5.85548 5.84955C5.77584 5.89019 5.40015 5.93552 4.92208 5.96221C4.7937 5.96937 4.73966 5.97778 4.73966 5.9906C4.73966 6.01756 7.84523 15.2586 7.85888 15.2722C7.86326 15.2766 7.87045 15.2766 7.87487 15.2721C7.8793 15.2677 8.30443 13.9996 8.8196 12.4542L9.75627 9.64425L9.50549 8.95655C9.36757 8.57833 9.07236 7.76964 8.8495 7.15947C8.62662 6.5493 8.43809 6.03287 8.43054 6.01185C8.41693 5.97397 8.41471 5.97349 8.16788 5.95562C8.03097 5.94572 7.80617 5.92469 7.66832 5.90892C7.45868 5.88492 7.40712 5.87405 7.35317 5.84242C7.14334 5.71945 7.15874 5.36584 7.37895 5.2508C7.45822 5.20939 7.50459 5.20942 8.14977 5.25126C8.41595 5.26852 8.77781 5.29053 8.9539 5.30017C9.36485 5.32264 10.297 5.32242 10.7185 5.29975C11.1897 5.27442 11.7459 5.24014 11.9652 5.22291C12.2021 5.2043 12.2676 5.21785 12.3573 5.30408C12.4944 5.4358 12.4965 5.6764 12.3617 5.79889C12.2698 5.8824 12.1595 5.90219 11.5375 5.94679C11.3492 5.96029 11.1871 5.97361 11.1773 5.9764C11.1654 5.97979 11.198 6.09594 11.2762 6.32847C12.1332 8.87676 13.2953 12.3331 13.7209 13.5997C14.0153 14.4759 14.262 15.1986 14.2691 15.2057C14.2764 15.213 14.2856 15.2067 14.2904 15.1911C14.295 15.176 14.4861 14.537 14.7151 13.7712C14.9441 13.0054 15.1961 12.1711 15.2752 11.9172C15.5987 10.8783 15.7074 10.4491 15.7674 9.97433C15.7983 9.72977 15.7905 9.20473 15.7525 8.96876C15.6519 8.34464 15.426 7.76038 15.0429 7.13393C14.7135 6.59522 14.644 6.47435 14.5305 6.24365C14.3253 5.82631 14.2525 5.55555 14.2523 5.20871C14.252 4.78628 14.3892 4.43232 14.6681 4.13579C14.9345 3.8526 15.2566 3.70528 15.6214 3.69977C15.7222 3.69825 15.7885 3.69131 15.7879 3.68235C15.7862 3.65547 15.448 3.36957 15.1636 3.15454C13.8265 2.14378 12.2629 1.56062 10.5696 1.44126C10.3271 1.42418 9.63358 1.42506 9.38703 1.44278ZM17.5067 5.94955C17.656 7.11496 17.4813 8.33137 16.9726 9.66865C16.9258 9.79151 16.7684 10.2371 16.6227 10.6589C16.0052 12.4464 14.3015 17.3696 14.2921 17.3935C14.2731 17.4416 14.318 17.4215 14.5375 17.2835C16.7616 15.8856 18.2236 13.5769 18.5203 10.994C18.5817 10.4593 18.5894 9.63492 18.5373 9.1549C18.442 8.27545 18.2436 7.48568 17.9247 6.71682C17.8087 6.43721 17.5343 5.87881 17.5128 5.87881C17.5034 5.87881 17.5011 5.90565 17.5067 5.94955ZM2.14419 6.53031C2.13987 6.54463 2.09484 6.65689 2.04412 6.77974C1.79575 7.38144 1.6017 8.09923 1.50238 8.78369C1.43642 9.23828 1.42639 9.39942 1.42639 10.0037C1.42639 10.6059 1.43613 10.7634 1.5019 11.2248C1.89108 13.9547 3.57867 16.3332 6.0397 17.6204C6.16093 17.6838 6.26337 17.7325 6.26731 17.7285C6.27127 17.7246 6.15987 17.4072 6.01976 17.0232C5.69982 16.1464 5.47157 15.5211 4.33286 12.4012C3.82916 11.0212 3.1982 9.29228 2.93071 8.55925C2.66323 7.82623 2.38789 7.07183 2.31882 6.88282C2.24976 6.6938 2.19324 6.53131 2.19324 6.5217C2.19324 6.49426 2.15292 6.50133 2.14419 6.53031ZM10.0888 10.8779C10.0642 10.9499 9.9021 11.421 9.72855 11.9247C9.55499 12.4284 9.27007 13.256 9.0954 13.7638C8.92071 14.2716 8.56551 15.3035 8.30604 16.057C7.57903 18.1683 7.56128 18.2209 7.57266 18.2323C7.59215 18.2518 8.07866 18.372 8.3508 18.4245C8.65512 18.4832 8.94718 18.5264 9.22939 18.5544C9.48869 18.5801 10.5035 18.5801 10.7632 18.5544C11.3984 18.4915 12.0574 18.3563 12.6321 18.171C12.7508 18.1327 12.8502 18.0994 12.8528 18.0969C12.8555 18.0945 12.8458 18.0701 12.8314 18.0427C12.817 18.0153 12.2107 16.3647 11.484 14.3748C10.7574 12.3848 10.1562 10.7544 10.1482 10.7517C10.1401 10.749 10.1134 10.8058 10.0888 10.8779Z" fill="white"/>
</svg>
